<?xml version="1.0" encoding="iso-8859-1"?>
<!-- Generator: Adobe Illustrator 19.0.0, SVG Export Plug-In . SVG Version: 6.00 Build 0)  -->
<svg version="1.1" id="Layer_1" xmlns="http://www.w3.org/2000/svg" xmlns:xlink="http://www.w3.org/1999/xlink" x="0px" y="0px"
	 viewBox="0 0 512 512" style="enable-background:new 0 0 512 512;" xml:space="preserve">
<path style="fill:#FFDB2D;" d="M34.919,453.146c-46.558-46.558-46.558-122.313,0-168.87L250.335,68.86
	c59.894-59.896,156.839-59.902,216.741,0c59.896,59.894,59.903,156.84,0,216.741l-95.741,95.741c-6.974,6.975-18.284,6.975-25.259,0
	c-6.975-6.975-6.975-18.284,0-25.259l95.741-95.741c45.827-45.827,45.827-120.394,0-166.222c-45.935-45.934-120.282-45.94-166.222,0
	L60.178,309.535c-32.706,32.706-32.71,85.642,0,118.352c32.706,32.706,85.642,32.71,118.352,0l215.416-215.416
	c19.431-19.432,19.431-51.05,0-70.481c-19.432-19.432-51.05-19.432-70.481,0L139.737,325.716c-6.974,6.975-18.284,6.975-25.259,0
	c-6.975-6.974-6.975-18.284,0-25.259L298.205,116.73c33.36-33.361,87.641-33.361,121,0c33.36,33.36,33.36,87.64,0,121
	L203.789,453.146C157.245,499.69,81.489,499.718,34.919,453.146z"/>
<g>
	<path style="fill:#FF9900;" d="M323.465,141.989c19.432-19.432,51.05-19.432,70.481,0c19.431,19.432,19.431,51.05,0,70.481
		L255.983,350.435v50.519L419.206,237.73c33.36-33.36,33.36-87.64,0-121c-33.36-33.361-87.641-33.361-121,0l-42.223,42.223v50.519
		L323.465,141.989z"/>
	<path style="fill:#FF9900;" d="M467.076,68.86c-58.054-58.055-150.9-59.837-211.093-5.37v50.242l19.613-19.613
		c45.94-45.94,120.288-45.933,166.222,0c45.827,45.827,45.827,120.394,0,166.222l-95.741,95.741c-6.975,6.975-6.975,18.284,0,25.259
		c6.974,6.975,18.284,6.975,25.259,0l95.741-95.741C526.978,225.699,526.971,128.754,467.076,68.86z"/>
</g>
<g>
</g>
<g>
</g>
<g>
</g>
<g>
</g>
<g>
</g>
<g>
</g>
<g>
</g>
<g>
</g>
<g>
</g>
<g>
</g>
<g>
</g>
<g>
</g>
<g>
</g>
<g>
</g>
<g>
</g>
</svg>
