<?xml version="1.0" encoding="UTF-8" standalone="no"?>
<svg
   xmlns:dc="http://purl.org/dc/elements/1.1/"
   xmlns:cc="http://creativecommons.org/ns#"
   xmlns:rdf="http://www.w3.org/1999/02/22-rdf-syntax-ns#"
   xmlns:svg="http://www.w3.org/2000/svg"
   xmlns="http://www.w3.org/2000/svg"
   xmlns:sodipodi="http://sodipodi.sourceforge.net/DTD/sodipodi-0.dtd"
   xmlns:inkscape="http://www.inkscape.org/namespaces/inkscape"
   version="1.1"
   id="svg2"
   xml:space="preserve"
   width="4266.6665"
   height="2666.6667"
   viewBox="0 0 4266.6665 2666.6667"
   sodipodi:docname="5853.eps"><metadata
     id="metadata8"><rdf:RDF><cc:Work
         rdf:about=""><dc:format>image/svg+xml</dc:format><dc:type
           rdf:resource="http://purl.org/dc/dcmitype/StillImage" /></cc:Work></rdf:RDF></metadata><defs
     id="defs6" /><sodipodi:namedview
     pagecolor="#ffffff"
     bordercolor="#666666"
     borderopacity="1"
     objecttolerance="10"
     gridtolerance="10"
     guidetolerance="10"
     inkscape:pageopacity="0"
     inkscape:pageshadow="2"
     inkscape:window-width="640"
     inkscape:window-height="480"
     id="namedview4" /><g
     id="g10"
     inkscape:groupmode="layer"
     inkscape:label="ink_ext_XXXXXX"
     transform="matrix(1.3333333,0,0,-1.3333333,0,2666.6667)"><g
       id="g12"
       transform="scale(0.1)"><path
         d="M 32000,0 H 0 V 20000 H 32000 V 0"
         style="fill:#ffffff;fill-opacity:1;fill-rule:nonzero;stroke:none"
         id="path14" /><path
         d="m 2757.44,3516.3 c 0,0 -2083.116,4498.4 326.23,7301.8 1980.67,2304.7 4672.66,2757.7 6764.12,1369.6 890.81,-591.2 3378.41,-450.9 6375.41,2361.6 3892.4,3652.6 13649.4,1627.6 11765.3,-5675.1 -911.7,-3534 2992.8,-1832.8 1114.3,-5365.4 l -26345.36,7.5"
         style="fill:#ebf3fa;fill-opacity:1;fill-rule:nonzero;stroke:none"
         id="path16" /><path
         d="M 30592.3,3485.3 H 2154.75 c -17.77,0 -32.3,14.5 -32.3,32.3 v 11 c 0,17.7 14.53,32.3 32.3,32.3 H 30592.3 c 17.7,0 32.3,-14.6 32.3,-32.3 v -11 c 0,-17.8 -14.6,-32.3 -32.3,-32.3"
         style="fill:#2e3552;fill-opacity:1;fill-rule:nonzero;stroke:none"
         id="path18" /><path
         d="m 5972.04,8765.4 -95.35,-1042.8 141.74,-22 401.08,927.8 -447.47,137"
         style="fill:#ffb27d;fill-opacity:1;fill-rule:nonzero;stroke:none"
         id="path20" /><path
         d="m 6036.85,7807.9 c 0,0 -32.93,-109.1 -12.38,-190.4 13.71,-54.3 -70.62,-128.8 -163.83,-231.7 -9.39,-10.4 -26.84,0.1 -24.82,13.9 1.05,7.3 3.34,15.8 7.58,25.7 16.89,39.2 65.3,107.2 65.3,107.2 -3.88,15.2 -103.22,-38.4 -159.27,-75.5 -32.55,-21.5 -126.82,-123.3 -151.93,-108.2 -25.11,15.2 15.49,113.2 59.09,185.3 43.61,72.2 200.47,133.1 220.1,188.4 19.64,55.4 160.16,85.3 160.16,85.3"
         style="fill:#ffb27d;fill-opacity:1;fill-rule:nonzero;stroke:none"
         id="path22" /><path
         d="m 6494.78,12547.4 1038.29,442.7 957.28,-456.5 -957.28,-485.9 -1038.29,499.7"
         style="fill:#233862;fill-opacity:1;fill-rule:nonzero;stroke:none"
         id="path24" /><path
         d="m 6662.75,12038.6 14.79,19.6 c -209.08,157.3 -168.48,420.3 -155.9,480.4 1.62,7.7 -1.51,15.6 -7.94,20.2 v 0 c -6.44,4.6 -15.44,0.9 -16.97,-6.8 -13.76,-70.1 -52.04,-349.3 166.02,-513.4"
         style="fill:#efcbab;fill-opacity:1;fill-rule:nonzero;stroke:none"
         id="path26" /><path
         d="m 6677.54,12058.2 31.27,-11.6 -26.14,-33.5 -19.92,25.5 14.79,19.6"
         style="fill:#d8a987;fill-opacity:1;fill-rule:nonzero;stroke:none"
         id="path28" /><path
         d="m 6708.81,12046.6 c 0,0 38.73,-28.2 52.33,-19.5 0,0 -12.64,-36.9 -31.58,-40.8 0,0 -35.15,11.8 -46.89,26.8 l 26.14,33.5"
         style="fill:#efcbab;fill-opacity:1;fill-rule:nonzero;stroke:none"
         id="path30" /><path
         d="m 7165.78,4633.7 -70.43,-296.3 -93.48,-393 h -292.1 l -17.39,376.5 -13.45,290.3 486.85,22.5"
         style="fill:#ffb27d;fill-opacity:1;fill-rule:nonzero;stroke:none"
         id="path32" /><path
         d="m 6594.27,3512.7 c 0,0 0,143 20.38,190.6 20.38,47.5 95.1,241.1 95.1,241.1 h 292.11 c 0,0 54.34,-176.6 57.73,-234.3 3.4,-57.8 0,-197.4 0,-197.4 h -465.32"
         style="fill:#233862;fill-opacity:1;fill-rule:nonzero;stroke:none"
         id="path34" /><path
         d="m 8448.91,3512.7 c 0,0 0,143 -20.38,190.6 -20.38,47.5 -95.11,241.1 -95.11,241.1 h -292.1 c 0,0 -54.34,-176.6 -57.74,-234.3 -3.39,-57.8 0,-197.4 0,-197.4 h 465.33"
         style="fill:#233862;fill-opacity:1;fill-rule:nonzero;stroke:none"
         id="path36" /><path
         d="m 7278.67,11539 c 0,0 -10.29,-318.4 -51.05,-461 l -322.57,-695.3 713.81,-988.4 500.45,1276.9 -289.58,400.1 c 0,0 -87.44,427 -41.58,584.9 45.85,158 -509.48,-117.2 -509.48,-117.2"
         style="fill:#ffb27d;fill-opacity:1;fill-rule:nonzero;stroke:none"
         id="path38" /><path
         d="m 7276.91,11495.1 c 0,0.1 96.01,-231.2 276.88,-226.1 180.86,5.1 222.03,209.6 222.03,209.6 l -498.91,16.5"
         style="fill:#ed985f;fill-opacity:1;fill-rule:nonzero;stroke:none"
         id="path40" /><path
         d="m 7168.95,11682.2 c 0,0 -58.41,291.6 -99.16,379.9 -40.77,88.3 -74.73,482.3 377.01,502.7 0,0 173.22,-20.4 268.32,37.4 0,0 0,-57.8 -23.77,-78.2 0,0 117.62,74 239.89,-61.8 122.28,-135.9 -42.87,-648 -32.7,-760.1 l -729.59,-19.9"
         style="fill:#132644;fill-opacity:1;fill-rule:nonzero;stroke:none"
         id="path42" /><path
         d="m 7533.07,11358.3 c -131.06,2.4 -372.27,176.9 -372.27,393 v 337.2 c 0,78.9 55.03,143.4 122.28,143.4 h 499.97 c 67.26,0 122.28,-64.5 122.28,-143.4 v -318.2 c 0,-226.6 -221.97,-414.6 -372.26,-412"
         style="fill:#ffb27d;fill-opacity:1;fill-rule:nonzero;stroke:none"
         id="path44" /><path
         d="m 7160.8,11908.4 c 0,0 0.69,202.6 161.18,233.8 160.48,31.1 519.67,-98.8 570.61,49 50.95,147.7 -694.27,145.2 -731.79,50.9 -37.52,-94.2 0,-333.7 0,-333.7"
         style="fill:#132644;fill-opacity:1;fill-rule:nonzero;stroke:none"
         id="path46" /><path
         d="m 7227.66,11078 c -0.04,0 298.7,-67.1 298.7,-67.1 l 301.92,72.8 77.05,-463.4 -338.84,-1153.5 -370.69,1382.2 31.86,229"
         style="fill:#ffffff;fill-opacity:1;fill-rule:nonzero;stroke:none"
         id="path48" /><path
         d="m 7212.99,10983.2 237.33,-177.1 77.65,127.2 71.97,-127.2 252.8,220.1 -49.87,57.5 -276.51,-72.8 -298.7,13.6 -14.67,-41.3"
         style="fill:#d2e3fc;fill-opacity:1;fill-rule:nonzero;stroke:none"
         id="path50" /><path
         d="m 8455.89,8467.7 -710.82,-44.4 c -4.07,6.7 -8.67,6.7 -13.76,-0.9 l -209.13,-13 -891.29,55.6 c 0,0 -224.17,-1023.2 -136.1,-2386.7 28.09,-435 90.88,-1723.2 150.69,-2178.8 l 610.94,-6.4 c 79.17,515.2 170.78,1800.9 220.03,2021.7 22.37,100.2 43.14,199.7 62.5,298 17.67,-112 28.99,-202.9 28.75,-259.6 -0.39,-90.6 26.04,-234.8 62.65,-408.6 51.4,-244.8 202.54,-1373.4 247.61,-1668.1 h 641.02 c 7.69,406 42.5,1784.9 49.81,2201.8 19.41,1111.9 -112.9,2389.4 -112.9,2389.4"
         style="fill:#ee9849;fill-opacity:1;fill-rule:nonzero;stroke:none"
         id="path52" /><path
         d="m 8946.54,4872.9 c -326.79,-171.3 -2552.18,-374.3 -2951.1,96.3 -67.89,80.1 880.38,6041.7 880.38,6041.7 0,0 61.08,17.7 164.17,37.1 52.62,9.9 115.98,20.2 187.79,28.9 0.83,-22.3 154.47,-990.5 363.52,-1368.1 0,0 237.02,521.1 238.47,1362.6 0,4.2 -0.93,8.3 -1.45,12.3 44.79,-4.9 90.29,-11 135.9,-18.9 19.29,-3.3 38.59,-6.9 57.88,-10.9 73.27,-14.7 147.04,-33.8 220.41,-58 0,0 772.13,-6087.3 704.03,-6123"
         style="fill:#1c468a;fill-opacity:1;fill-rule:nonzero;stroke:none"
         id="path54" /><path
         d="m 7133.89,11065.7 c 0,0 -340.52,-2615.7 -471.15,-2811.8 -54.69,-82 -134.65,-95.4 -228.86,-77 -17.96,3.4 -36.53,8 -55.41,13.6 l -261.17,100.1 -1.13,0.4 c -42.31,16.9 -85.03,32.9 -127.64,46.1 -268.28,83.1 -247.44,308.9 -175.21,616.8 72.23,307.9 545.23,1790.5 704.86,1895.1 282.11,184.8 615.71,216.7 615.71,216.7"
         style="fill:#1c468a;fill-opacity:1;fill-rule:nonzero;stroke:none"
         id="path56" /><path
         d="m 7828.28,11083.7 c -224.26,24 -434.69,13.1 -600.53,-6.8 -0.09,0.7 -0.09,1.1 -0.09,1.1 0,0 555.84,343.8 600.62,5.7"
         style="fill:#ffb27d;fill-opacity:1;fill-rule:nonzero;stroke:none"
         id="path58" /><path
         d="m 7632.58,9466.9 c -343.92,253.2 -592.59,1581.1 -592.59,1581.1 52.62,9.9 115.98,20.2 187.79,28.9 0.83,-22.3 145.91,-937.2 354.96,-1314.8 0,0 245.58,467.8 247.03,1309.3 0,4.2 -0.93,8.3 -1.45,12.3 44.79,-4.9 90.29,-11 135.9,-18.9 19.29,-3.3 38.59,-6.9 57.88,-10.9 0.55,-708.7 -389.52,-1587 -389.52,-1587"
         style="fill:#bc3f3f;fill-opacity:1;fill-rule:nonzero;stroke:none"
         id="path60" /><path
         d="m 7417,11608.3 c 0,0 156.81,15.7 229.56,-2 0,0 -39.33,-63.3 -102.92,-62.7 -63.6,0.5 -111.48,24.2 -126.64,64.7"
         style="fill:#fff0e6;fill-opacity:1;fill-rule:nonzero;stroke:none"
         id="path62" /><path
         d="m 7038.33,12393 9.33,-152.7 c 0,0 351.82,235.1 928.88,19.2 l -8.03,220.9 c -8.49,43 -35.05,80.3 -73.1,102.2 -108.24,62.3 -361.66,177.9 -762.14,-15.5 -56.13,-27.1 -91.27,-111.9 -94.94,-174.1"
         style="fill:#1c468a;fill-opacity:1;fill-rule:nonzero;stroke:none"
         id="path64" /><path
         d="m 7253.86,11218.4 -119.97,-152.7 317.29,-216.7 75.18,161.9 -272.5,207.5"
         style="fill:#ffffff;fill-opacity:1;fill-rule:nonzero;stroke:none"
         id="path66" /><path
         d="m 7803.91,11218.4 -277.55,-207.5 79.6,-161.9 273.14,228.6 -75.19,140.8"
         style="fill:#ffffff;fill-opacity:1;fill-rule:nonzero;stroke:none"
         id="path68" /><path
         d="m 7517.39,10653 c 8.55,8.5 22.41,8.5 30.95,0 8.55,-8.6 8.55,-22.4 0,-31 -8.54,-8.5 -22.4,-8.5 -30.95,0 -8.55,8.6 -8.55,22.4 0,31"
         style="fill:#d2e3fc;fill-opacity:1;fill-rule:nonzero;stroke:none"
         id="path70" /><path
         d="m 7517.39,10417.4 c 8.55,8.5 22.41,8.5 30.95,0 8.55,-8.6 8.55,-22.5 0,-31 -8.54,-8.5 -22.4,-8.5 -30.95,0 -8.55,8.5 -8.55,22.4 0,31"
         style="fill:#d2e3fc;fill-opacity:1;fill-rule:nonzero;stroke:none"
         id="path72" /><path
         d="m 7517.39,10174.9 c 8.55,8.5 22.41,8.5 30.95,0 8.55,-8.6 8.55,-22.4 0,-31 -8.54,-8.5 -22.4,-8.5 -30.95,0 -8.55,8.6 -8.55,22.4 0,31"
         style="fill:#d2e3fc;fill-opacity:1;fill-rule:nonzero;stroke:none"
         id="path74" /><path
         d="m 8242.49,10995.9 c 0,0 213.87,-88.9 328.24,-350.9 114.37,-262 589.03,-977.6 575.27,-1312.8 -13.76,-335.1 -78.19,-640.1 -397.26,-650.5 -218.99,-7 -441.98,207.3 -441.98,527.8 0,320.5 -64.27,1786.4 -64.27,1786.4"
         style="fill:#1c468a;fill-opacity:1;fill-rule:nonzero;stroke:none"
         id="path76" /><path
         d="m 8921.88,8869.6 c -8.56,-90.4 -42.41,-163.3 -123.31,-183.5 -255.8,-64 -368.99,182.9 -315.12,424.8 1.75,8 3.81,15.8 6.18,23.2 54.59,176.8 251.05,203.9 323.59,207.8 17.03,1 27.24,0.6 27.24,0.6 0,0 1.45,-4 4.03,-11.4 18.37,-54.2 93.8,-289.4 77.39,-461.5"
         style="fill:#233862;fill-opacity:1;fill-rule:nonzero;stroke:none"
         id="path78" /><path
         d="m 8921.88,8869.6 c 0,0 -745.83,335.7 -1041.05,721.1 -21.81,28.5 34.06,63.3 34.06,63.3 l 898.33,-312.1 31.27,-10.8 c 18.37,-54.2 93.8,-289.4 77.39,-461.5"
         style="fill:#ffb27d;fill-opacity:1;fill-rule:nonzero;stroke:none"
         id="path80" /><path
         d="m 8044.53,8337.1 h -985.42 v 1298.6 h 985.42 V 8337.1"
         style="fill:#fcecdb;fill-opacity:1;fill-rule:nonzero;stroke:none"
         id="path82" /><path
         d="m 7464.02,8720.3 -110.8,-185.1 70.07,10 30.03,-55.7 94.12,170.2 -83.42,60.6"
         style="fill:#932424;fill-opacity:1;fill-rule:nonzero;stroke:none"
         id="path84" /><path
         d="m 7610.84,8731.8 110.81,-185.1 -70.07,10 -30.03,-55.8 -94.13,170.2 83.42,60.7"
         style="fill:#932424;fill-opacity:1;fill-rule:nonzero;stroke:none"
         id="path86" /><path
         d="m 7425,8761.2 c 12.44,81 55.83,112.7 122.97,122.9 87.75,13.4 122.98,-55 122.98,-122.9 0,-68 -55.06,-123 -122.98,-123 -67.92,0 -133.28,55.8 -122.97,123"
         style="fill:#bc3f3f;fill-opacity:1;fill-rule:nonzero;stroke:none"
         id="path88" /><path
         d="m 7563.91,8849.3 c -4.86,0 -9.93,-0.4 -15.21,-1.2 -53.24,-8.1 -79.45,-34.3 -87.63,-87.6 v 0 c -2.91,-19 2.95,-38.1 16.52,-53.9 16.91,-19.7 43.83,-32 70.25,-32 47.8,0 86.7,38.9 86.7,86.8 0,31.3 -10.09,58 -27.69,73.1 -11.47,9.9 -25.87,14.8 -42.94,14.8 z m -16.07,-186.1 c -29.66,0 -59.91,13.8 -78.94,36 -15.76,18.3 -22.56,40.7 -19.13,63 v 0 c 8.95,58.4 38.93,88.4 97.21,97.2 27.32,4.2 49.95,-1.3 67.33,-16.2 20.13,-17.3 31.67,-47.1 31.67,-81.8 0,-54.2 -44.02,-98.2 -98.14,-98.2"
         style="fill:#932424;fill-opacity:1;fill-rule:nonzero;stroke:none"
         id="path90" /><path
         d="m 7688.96,9479.4 h -274.28 c -4.54,0 -8.25,3.7 -8.25,8.2 v 0 c 0,4.6 3.71,8.3 8.25,8.3 h 274.28 c 4.54,0 8.25,-3.7 8.25,-8.3 v 0 c 0,-4.5 -3.71,-8.2 -8.25,-8.2"
         style="fill:#1c468a;fill-opacity:1;fill-rule:nonzero;stroke:none"
         id="path92" /><path
         d="m 7742.16,9444.8 h -380.68 c -4.55,0 -8.26,3.7 -8.26,8.3 v 0 c 0,4.5 3.71,8.2 8.26,8.2 h 380.68 c 4.54,0 8.26,-3.7 8.26,-8.2 v 0 c 0,-4.6 -3.72,-8.3 -8.26,-8.3"
         style="fill:#1c468a;fill-opacity:1;fill-rule:nonzero;stroke:none"
         id="path94" /><path
         d="m 7832.61,9158.1 h -561.58 c -5.19,0 -9.44,4.3 -9.44,9.5 v 0 c 0,5.2 4.25,9.4 9.44,9.4 h 561.58 c 5.19,0 9.44,-4.2 9.44,-9.4 v 0 c 0,-5.2 -4.25,-9.5 -9.44,-9.5"
         style="fill:#1c468a;fill-opacity:1;fill-rule:nonzero;stroke:none"
         id="path96" /><path
         d="m 7832.61,9110.9 h -561.58 c -5.19,0 -9.44,4.3 -9.44,9.5 v 0 c 0,5.2 4.25,9.4 9.44,9.4 h 561.58 c 5.19,0 9.44,-4.2 9.44,-9.4 v 0 c 0,-5.2 -4.25,-9.5 -9.44,-9.5"
         style="fill:#1c468a;fill-opacity:1;fill-rule:nonzero;stroke:none"
         id="path98" /><path
         d="m 7832.61,9069.7 h -561.58 c -5.19,0 -9.44,4.2 -9.44,9.4 v 0 c 0,5.2 4.25,9.4 9.44,9.4 h 561.58 c 5.19,0 9.44,-4.2 9.44,-9.4 v 0 c 0,-5.2 -4.25,-9.4 -9.44,-9.4"
         style="fill:#1c468a;fill-opacity:1;fill-rule:nonzero;stroke:none"
         id="path100" /><path
         d="m 7832.61,9024.5 h -561.58 c -5.19,0 -9.44,4.2 -9.44,9.4 v 0 c 0,5.2 4.25,9.4 9.44,9.4 h 561.58 c 5.19,0 9.44,-4.2 9.44,-9.4 v 0 c 0,-5.2 -4.25,-9.4 -9.44,-9.4"
         style="fill:#1c468a;fill-opacity:1;fill-rule:nonzero;stroke:none"
         id="path102" /><path
         d="m 7804.86,8686.1 c -2.89,5.4 1.26,12.1 6,16.5 -1.86,-5.5 -3.86,-11.1 -6,-16.5 z m -8.75,79.6 c -0.06,2.8 1.39,7.8 4.57,7.8 -1.43,-3.1 -2.91,-6.2 -4.46,-9.3 -0.05,0.5 -0.1,1 -0.11,1.5 z m 83.77,-9.2 c -17.71,-14.7 -36.66,-26.9 -56.61,-38.1 1.69,5.3 3.1,10.8 2.84,15.7 -0.36,6.7 -5.74,9.7 -11.12,12.5 -1.33,0.7 -2.58,1.4 -3.81,2.1 2.08,2.1 3.16,4.9 1.78,8 -2.27,5.1 -8.64,4.3 -10.8,-0.4 -0.4,-0.9 -0.64,-1.8 -0.74,-2.6 -0.86,0.5 -1.53,1 -2.09,1.7 3.28,6.1 6.37,12.3 9.21,18.7 0.64,1.4 -0.17,3.1 -1.32,4 -4.73,3.6 -11.18,2.4 -14.98,-2.1 -4.51,-5.3 -3.38,-13.4 -1.21,-19.4 0.15,-0.4 0.31,-0.8 0.49,-1.3 -4.19,-7.5 -8.72,-14.9 -13.6,-22 -0.45,0.5 -0.91,0.9 -1.37,1.4 -1.28,1.2 -2.63,2.8 -3.8,4.6 2.23,5.8 3.65,11.9 4.19,18.2 0.24,2.9 -2.6,4.3 -4.97,3.4 -6.55,-2.4 -10.09,-9.1 -9.24,-15.9 0.3,-2.4 1.05,-4.6 2.14,-6.7 -1.47,-3.2 -3.2,-6.3 -5.26,-9.2 -1.32,-2 -0.37,-3.9 1.19,-4.8 -2.15,-7.2 -5.04,-14.5 -9.98,-19.7 -4.04,-4.2 -11.56,-7.4 -16.47,-2.4 -3.11,3.2 -3.51,8.5 -3.93,12.7 -1.05,10.3 -1.83,21 -1.45,31.3 0.18,4.9 0.7,9.9 2.38,14.6 1.04,2.9 2.5,7.2 3.9,2.3 0.69,-2.5 -0.26,-6.3 -0.5,-8.7 -0.45,-4.5 6.43,-5 6.87,-0.6 0.52,5.2 2.84,16.1 -3.03,19.4 -4.87,2.7 -9.36,-1.2 -11.61,-5.2 -8.12,-14.6 -4.89,-34.6 -3.66,-50.5 0.97,-12.6 5.69,-28.1 21.83,-24.1 15.17,3.8 20.75,22.9 24.24,36.1 0.22,0.8 0.16,1.6 -0.1,2.2 0.06,0.1 0.12,0.2 0.18,0.3 0.62,-0.6 1.26,-1.2 1.9,-1.9 0.9,-0.8 1.75,-1.6 2.58,-2.5 -1.6,-2.2 -3.22,-4.4 -4.88,-6.5 -0.94,-1.3 -0.67,-3.1 0.27,-4.2 5.1,-6.2 14.28,-1.6 14.11,5.9 -0.05,1.8 -0.48,3.3 -1.16,4.8 4.8,6.9 9.28,14 13.43,21.2 2.17,-2.1 4.91,-3.4 8.28,-3.3 0.23,0 0.46,0.1 0.7,0.1 1.76,-1.9 3.98,-3.4 6,-4.6 1.96,-1.1 4.22,-1.8 5.98,-3.2 3.28,-2.7 2.3,-5.7 1.58,-9.5 -0.95,-5 -2.54,-10 -4,-14.9 -6.94,-4 -13.78,-9 -16.12,-17 -2.13,-7.3 -0.23,-15 6.01,-19.5 1.88,-1.4 4.38,-0.3 5.18,1.7 3.92,9.6 7.45,19.4 10.48,29.4 0.1,0.3 0.2,0.6 0.31,0.9 6.13,3.5 12.54,6.6 18.6,10.1 16.08,9.6 31.33,20.4 45.71,32.4 3.41,2.8 -1.13,8 -4.55,5.1"
         style="fill:#1c468a;fill-opacity:1;fill-rule:nonzero;stroke:none"
         id="path104" /><path
         d="m 7114.97,8384.5 h 880.51 v 1195.9 h -880.51 z m 890.83,-10.3 H 7104.65 V 9590.7 H 8005.8 V 8374.2"
         style="fill:#1c468a;fill-opacity:1;fill-rule:nonzero;stroke:none"
         id="path106" /><path
         d="m 7697.21,9734.5 c 0,0 -181.54,-156 -116.19,-179.4 65.35,-23.5 240.77,80.6 275.16,80.6 34.4,0 113.51,0 113.51,0 0,0 -112.13,129.8 -171.29,126.3 -59.16,-3.4 -101.19,-27.5 -101.19,-27.5"
         style="fill:#ffb27d;fill-opacity:1;fill-rule:nonzero;stroke:none"
         id="path108" /><path
         d="M 6662.74,10011.5 6433.88,8176.9 c -17.96,3.4 -36.53,8 -55.41,13.6 l -261.17,100.1 -1.13,0.4 c 0,0 80.49,83.2 189.66,372.2 109.17,289 356.91,1348.3 356.91,1348.3"
         style="fill:#233862;fill-opacity:1;fill-rule:nonzero;stroke:none"
         id="path110" /><path
         d="m 12317.5,7940.9 c 0,0 96.3,-208 91.1,-264.8 -5.1,-56.8 -91.1,-237.3 -91.1,-237.3 l -104,477.9 104,24.2"
         style="fill:#ffb27d;fill-opacity:1;fill-rule:nonzero;stroke:none"
         id="path112" /><path
         d="m 12241.8,8835.4 75.7,-894.5 -104,-24.2 -274.3,811.2 302.6,107.5"
         style="fill:#ffb27d;fill-opacity:1;fill-rule:nonzero;stroke:none"
         id="path114" /><path
         d="m 10005.8,11708.5 1033,609.8 709.6,-497.3 -983,-573.1 -759.6,460.6"
         style="fill:#233862;fill-opacity:1;fill-rule:nonzero;stroke:none"
         id="path116" /><path
         d="m 10536.5,11427.5 c 0,0 -26.5,-150.2 -170.9,-227.6 -144.5,-77.4 -268.3,-100.1 -237.3,-349.3 30.9,-249.2 -139.35,-305.9 -170.31,-471 -30.95,-165.2 -27.15,-466.9 386.91,-376.7 414.1,90.2 1362.4,25.8 1465.4,160 103.1,134.1 30.9,412.7 -144.6,624.2 -175.4,211.6 56.8,350 -25.8,536.1 -82.5,186.2 -240.9,377.8 -240.9,377.8 0,0 -681.3,129.5 -862.5,-273.5"
         style="fill:#132644;fill-opacity:1;fill-rule:nonzero;stroke:none"
         id="path118" /><path
         d="m 10732.1,4566.2 139.7,-588.5 209.3,1.2 7.7,587.3 h -356.7"
         style="fill:#ffb27d;fill-opacity:1;fill-rule:nonzero;stroke:none"
         id="path120" /><path
         d="m 12492.6,4541.1 397.5,-563.4 155,198.9 -239.3,441.9 -313.2,-77.4"
         style="fill:#ffb27d;fill-opacity:1;fill-rule:nonzero;stroke:none"
         id="path122" /><path
         d="m 11281.8,10496.7 c 1.5,-0.6 -25.5,-655.1 -137.7,-656.3 -23.6,-0.2 -197,458.3 -219.1,464.3 -120,32.8 -136.9,326.4 -135.3,326.7 50.8,10.1 65.5,79.9 64.4,380 l 23,-4.5 386.2,-76.5 c 0,0 -8.8,-121.6 -9,-236.1 -0.3,-96.1 5.5,-187.3 27.5,-197.6"
         style="fill:#ffb27d;fill-opacity:1;fill-rule:nonzero;stroke:none"
         id="path124" /><path
         d="m 9721.65,11153.4 -12.58,26.4 c 281.02,133.7 296.13,449.8 295.73,522.9 -0.1,9.3 5.5,17.8 14,21.6 v 0 c 8.6,3.8 18.3,-2.5 18.2,-12 -0.6,-84.9 -22.3,-419.4 -315.35,-558.9"
         style="fill:#efcbab;fill-opacity:1;fill-rule:nonzero;stroke:none"
         id="path126" /><path
         d="m 9709.07,11179.8 -39.2,-6.2 22.53,-45.2 29.25,25 -12.58,26.4"
         style="fill:#d8a987;fill-opacity:1;fill-rule:nonzero;stroke:none"
         id="path128" /><path
         d="m 9669.87,11173.6 c 0,0 -51.82,-23.5 -65.62,-10.3 0,0 5.99,-45.9 27.15,-54.9 0,0 43.74,5.3 61,20 l -22.53,45.2"
         style="fill:#efcbab;fill-opacity:1;fill-rule:nonzero;stroke:none"
         id="path130" /><path
         d="m 11263.3,10930.4 c 0,0 -8.8,-121.6 -9,-236.1 -216.2,6.1 -330.4,203.3 -377.2,312.6 l 386.2,-76.5"
         style="fill:#ef9e67;fill-opacity:1;fill-rule:nonzero;stroke:none"
         id="path132" /><path
         d="m 10797.6,10993.3 c 0,0 -146.4,153.1 -203.3,297.7 -40.6,103.3 -66.1,511.3 344.4,534.5 0,0 118.1,11.9 241.9,-39.7 98.4,-41 248.8,-142.1 178.9,-516.7 l -12.7,-124.3 -549.2,-151.5"
         style="fill:#132644;fill-opacity:1;fill-rule:nonzero;stroke:none"
         id="path134" /><path
         d="m 13007.8,4305.3 c 0,0 -102.6,-17.7 -186.9,-24.1 -18.7,-1.4 -36.5,-2.3 -52,-2.3 -40.6,0 -113.7,15.3 -162.8,26.8 l -3.7,0.8 c -21.6,5.1 -38,9.3 -44.1,10.9 l -2.6,0.6 c 0,0 -512,569.9 -799,1483.5 -6.7,21.3 -13.8,42.8 -21.3,64.5 -157.2,458.2 -482.9,1033.3 -654.6,1553.9 -27.3,82.9 -51.8,161 -73.8,234.8 -7.1,23.7 -14,46.9 -20.5,69.8 -126.5,439.6 -163.1,728.2 -196.9,1036.6 l 1032.2,-262.6 c 0,0 433.4,-1878.7 1186,-4193.2"
         style="fill:#a53d38;fill-opacity:1;fill-rule:nonzero;stroke:none"
         id="path136" /><path
         d="m 11330.9,10869.3 c 0,0 -499.6,-109.3 -562.9,202.9 -63.3,312.2 -170.4,508.3 145.9,591.3 316.4,83 402.7,-23.5 449.1,-122.6 46.5,-99.1 96.2,-635.1 -32.1,-671.6"
         style="fill:#ffb27d;fill-opacity:1;fill-rule:nonzero;stroke:none"
         id="path138" /><path
         d="m 11140.7,11717.2 c 0,0 -63.4,-394 -263.1,-490.7 -199.7,-96.6 -302.5,-58.6 -302.5,-58.6 0,0 135.7,161 124.1,391.8 0,0 302.8,310.9 441.5,157.5"
         style="fill:#132644;fill-opacity:1;fill-rule:nonzero;stroke:none"
         id="path140" /><path
         d="m 11112.7,11680.6 c 0,0 119,-61.2 160,-135.6 41,-74.5 126.3,-100.9 131.8,-220.8 0,0 53.2,269.9 -91.4,387.3 -153.3,124.5 -200.4,-30.9 -200.4,-30.9"
         style="fill:#132644;fill-opacity:1;fill-rule:nonzero;stroke:none"
         id="path142" /><path
         d="m 10864.8,4010.6 c 0,0 16.9,-116.6 -26.7,-241.3 0,0 -34.2,-156.1 119.5,-159 153.7,-2.9 191.4,11.6 174,107.3 -17.4,95.7 -50.5,261.3 -50.5,261.3 l -216.3,31.7"
         style="fill:#ffb27d;fill-opacity:1;fill-rule:nonzero;stroke:none"
         id="path144" /><path
         d="m 10838.1,3769.3 c 0,0 -28.4,-147.4 -11,-225.7 0,0 46.4,-34.8 158.1,-34.8 105.8,0 160.9,34.8 160.9,34.8 0,0 3.3,161.5 -25,229.7 0,0 -108.9,-163.5 -283,-4"
         style="fill:#c45446;fill-opacity:1;fill-rule:nonzero;stroke:none"
         id="path146" /><path
         d="m 13415.5,3702 c 0,0 -283.4,314.6 -370.4,474.6 l -210.8,-107.9 471.1,-442.4 110.2,14.5 -0.1,61.2"
         style="fill:#ffb27d;fill-opacity:1;fill-rule:nonzero;stroke:none"
         id="path148" /><path
         d="m 13595.5,3517.6 c 0,0 -304.5,0 -356.7,5.9 -52.2,5.7 -94.3,81.1 -150.8,194.3 -23.2,46.2 -75.1,71.7 -128.4,85.7 v -261.9 h -80.4 L 12803,3820 c -50.2,92.2 -4,175.8 31.3,248.7 41.1,0 151.6,-28.1 361,-263.9 68.8,-77.5 144.7,-105.1 220.2,-102.8 1,-0.7 2.1,-1.2 3.1,-1.6 174,-78.4 176.9,-182.8 176.9,-182.8"
         style="fill:#c45446;fill-opacity:1;fill-rule:nonzero;stroke:none"
         id="path150" /><path
         d="m 12820.9,4281.2 c -18.7,-1.4 -36.5,-2.3 -52,-2.3 -40.6,0 -113.7,15.3 -162.8,26.8 l -3.7,0.8 -44.1,10.9 -2.6,0.6 c 0,0 -512,569.9 -799,1483.5 -6.7,21.3 -13.8,42.8 -21.3,64.5 -157.2,458.2 -482.9,1033.3 -654.6,1553.9 -27.3,82.9 -51.8,161 -73.8,234.8 -7.1,23.7 -14,46.9 -20.5,69.8 l 182.5,138.6 c 0,0 548.1,-887.5 717.8,-1722.7 140.7,-692.3 746.2,-1589.8 934.1,-1859.2"
         style="fill:#912f2f;fill-opacity:1;fill-rule:nonzero;stroke:none"
         id="path152" /><path
         d="m 11188.2,6062.5 c 3.1,-406.1 -17.5,-1339.9 -70.4,-1726.5 0,0 -50.1,-44.4 -174.5,-44.9 -127.4,-0.5 -184.4,46.5 -184.4,46.5 -132.7,672.1 -227.1,1228.3 -295.8,1707.5 -56.4,393.3 -106.5,730.5 -145.1,1020.8 -34.1,257.1 181.7,953.7 181.7,953.7 l 810.2,79 c -13.5,-711.7 -123.5,-1800 -121.7,-2036.1"
         style="fill:#a53d38;fill-opacity:1;fill-rule:nonzero;stroke:none"
         id="path154" /><path
         d="m 10943.3,4291.1 c -108.4,-6.3 -184.4,46.5 -184.4,46.5 -132.7,672.1 -227.1,1228.3 -295.8,1707.5 -56.4,393.3 -106.5,730.5 -145.1,1020.8 -34.1,257.1 181.7,953.7 181.7,953.7 l 274.7,-175.7 c 0,0 -389.6,-354.4 -293.9,-1024.4 95.7,-669.9 329.5,-2433.5 462.8,-2528.4"
         style="fill:#912f2f;fill-opacity:1;fill-rule:nonzero;stroke:none"
         id="path156" /><path
         d="m 12219.4,8580.6 c -50.6,-17 -107.7,-27 -164.1,-35.2 -89.7,-13.1 -177.4,-21.5 -233.5,-46.9 -165.5,-75.1 -567,2141.6 -567,2141.6 0,0 292.2,-2.8 426.4,-214.2 134.1,-211.5 656.1,-1255.8 702.6,-1590.5 20.8,-150.5 -57.2,-218.6 -164.4,-254.8"
         style="fill:#1c468a;fill-opacity:1;fill-rule:nonzero;stroke:none"
         id="path158" /><path
         d="m 12820.9,5591 c 0,0 -26.9,-67 -100.5,-161.1 -36.7,-46.9 -85,-100.4 -147.3,-155.7 -164.1,-145.3 -425.8,-302.6 -829.9,-380.6 -21.5,-4.1 -43.2,-8 -65.5,-11.8 -121.8,-20.1 -238.8,-34.5 -350.2,-44.3 -226.6,-19.9 -430.4,-21 -603.7,-12.9 -118.6,5.4 -223,15.2 -310.6,26.2 -197.9,24.6 -310.7,55.1 -310.7,55.1 0,0 0,2003.2 165,3192.7 91.5,658.8 398,2532.4 398,2532.4 l 152.4,23.4 365.4,-814 71.5,799.7 166.2,-53.3 c 81.6,-26.3 143.9,-92.7 164.8,-175.8 l 1235.1,-4820"
         style="fill:#1c468a;fill-opacity:1;fill-rule:nonzero;stroke:none"
         id="path160" /><path
         d="m 11643.1,8668 -847.8,86 137.4,1228.3 847.8,-85.9 -137.4,-1228.4"
         style="fill:#bc3f3f;fill-opacity:1;fill-rule:nonzero;stroke:none"
         id="path162" /><path
         d="m 10932.7,9982.3 -54.4,4.1 -127.7,-1227.3 44.7,-5.1 137.4,1228.3"
         style="fill:#9b2323;fill-opacity:1;fill-rule:nonzero;stroke:none"
         id="path164" /><path
         d="m 10221.6,9349.3 c 0,0 595.3,-181.9 1164.1,-263.3 0,0 187.8,-81.1 99.6,-103.4 -22.6,-5.7 -1161.8,-254.1 -1330.7,-92.9 l 67,459.6"
         style="fill:#ffb27d;fill-opacity:1;fill-rule:nonzero;stroke:none"
         id="path166" /><path
         d="m 10816.5,10654.4 c 0,0 -445.4,-53.9 -520.3,-143.8 -236.9,-284.3 -451.71,-1498.3 -266,-1778.6 221.9,-334.8 563.6,190.7 670.7,500.2 55.6,160.5 146.1,1130.3 115.6,1422.2"
         style="fill:#1c468a;fill-opacity:1;fill-rule:nonzero;stroke:none"
         id="path168" /><path
         d="m 11329.7,9094.4 c 0,0 69.9,6.5 83.2,28.8 26.5,44.7 68.5,44.2 103.5,50.1 35,5.9 74.3,44.2 81.2,36.4 7,-7.7 -25.8,-49.9 -44.1,-65.6 0,0 37.6,-2.3 62.4,9.5 24.9,11.9 112.1,111.4 112.5,68.6 1,-103.2 -7,-119.7 -95.4,-192.7 -72.6,-59.9 -318.9,-82.1 -318.9,-82.1 l 15.6,147"
         style="fill:#ffb27d;fill-opacity:1;fill-rule:nonzero;stroke:none"
         id="path170" /><path
         d="m 10815.3,9376.1 -17.4,-174.4 c -27.5,5.9 -59.6,15.6 -97,30.5 -244.2,97.8 -147.8,583.2 -147.8,583.2 38,-194.2 160.4,-344.2 262.2,-439.3"
         style="fill:#233862;fill-opacity:1;fill-rule:nonzero;stroke:none"
         id="path172" /><path
         d="m 11399,11701 c 0,0 -361.1,137.2 -862.5,-273.5 l 10.2,93.8 c 9.2,83.9 52.4,160.5 120.2,210.8 76.4,56.6 198.2,119.1 381.2,144.9 125.7,17.7 250.9,-35.9 324.7,-139.2 l 26.2,-36.8"
         style="fill:#1c468a;fill-opacity:1;fill-rule:nonzero;stroke:none"
         id="path174" /><path
         d="m 12219.4,8580.6 c -50.6,-17 -107.7,-27 -164.1,-35.2 L 11821,9579.5 c 0,0 394.3,-794.9 398.4,-998.9"
         style="fill:#233862;fill-opacity:1;fill-rule:nonzero;stroke:none"
         id="path176" /><path
         d="m 11152,11040.9 c 0,0 23,-44.4 56.8,-44.7 33.8,-0.2 120,8.4 126.3,16.3 6.2,7.9 22.6,55 22.6,55 0,0 -141.9,2.6 -205.7,-26.6"
         style="fill:#ffffff;fill-opacity:1;fill-rule:nonzero;stroke:none"
         id="path178" /><path
         d="m 22770.1,9726 c 0,0 -37.4,52.6 -80.1,85.5 -42.6,32.9 -87.6,94.6 -74.4,114.6 13.2,20 141.3,114.1 141.3,114.1 l 68.3,-168.9 -55.1,-145.3"
         style="fill:#ffb27d;fill-opacity:1;fill-rule:nonzero;stroke:none"
         id="path180" /><path
         d="m 23875.3,11696.3 1115.2,441.9 623.8,-601.4 -1060.1,-413.5 -678.9,573"
         style="fill:#233862;fill-opacity:1;fill-rule:nonzero;stroke:none"
         id="path182" /><path
         d="m 23266.9,9313.5 -444,570.1 -52.8,-157.6 c 0,0 454.7,-1034.2 663,-938 97.1,44.8 -166.2,525.5 -166.2,525.5"
         style="fill:#ffb27d;fill-opacity:1;fill-rule:nonzero;stroke:none"
         id="path184" /><path
         d="m 24654.7,11173.1 c 0,0 -216.6,-127.6 -83.7,-374.9 0,0 -189.6,34.7 -230.6,91.4 0,0 4.8,-23.6 11.8,-35.5 0,0 -222.3,28.2 -263.3,111.1 -84.4,170.8 120.5,160.1 209.1,337.4 115.8,231.7 297.4,413.8 554.2,285.9 0,0 359.1,19.6 196.7,-440.5 -162.3,-460.2 -8.9,-500.8 -8.9,-500.8 0,0 -48.2,-9.8 -68.8,-4.3 0,0 -27.1,19.4 -28.6,37.7 0,0 -1,-27.8 4.5,-38.1 0,0 -169.8,28.1 -235.9,112.5 -66.1,84.4 -105.8,327.4 -56.5,418.1"
         style="fill:#c94c43;fill-opacity:1;fill-rule:nonzero;stroke:none"
         id="path186" /><path
         d="m 24341.9,10432.3 c -0.3,-0.1 -0.5,-0.2 -0.7,-0.3 -1.4,0.2 -1.1,0.3 0.7,0.3"
         style="fill:#ffb27d;fill-opacity:1;fill-rule:nonzero;stroke:none"
         id="path188" /><path
         d="m 24868.5,10583.9 c 6.3,-57.1 13.9,-108.2 17.3,-132.6 2.5,-17.5 42,-328.7 -30.4,-331.8 -72.3,-3.1 -251,-371.9 -331.5,-368.9 -90.1,3.4 -170.1,681.7 -182,681.7 23.1,10 93.4,233.1 115.7,318.2 27,103.2 48.1,214.7 48.1,214.7 l 366.1,-23.1 21.8,-1.4 c -13.5,-49.9 -23.1,-97 -29.8,-140.8 -0.8,-5.8 -1.7,-11.8 -2.5,-17.6 -6.6,-48.6 -0.7,-128 7.2,-198.4"
         style="fill:#ffb27d;fill-opacity:1;fill-rule:nonzero;stroke:none"
         id="path190" /><path
         d="m 24455.3,11002.1 c 0,0 -59.4,188.2 -47.4,332.6 8.6,103 172.8,395.3 525.5,245.7 0,0 86.2,20.6 168.4,-73.5 65.3,-74.8 149.5,-221.3 -63.2,-505.6 l -61.9,-98.7 -521.4,99.5"
         style="fill:#c94c43;fill-opacity:1;fill-rule:nonzero;stroke:none"
         id="path192" /><path
         d="m 24868.5,10583.9 c -256.1,75 -364.8,370.8 -364.8,370.8 108.3,-3.2 249.4,-78.3 360.1,-154.8 -0.8,-5.8 -1.7,-11.8 -2.5,-17.6 -6.6,-48.6 -0.7,-128 7.2,-198.4"
         style="fill:#ed975d;fill-opacity:1;fill-rule:nonzero;stroke:none"
         id="path194" /><path
         d="m 24886.6,10687.8 c 0,0 -462.7,114.4 -387,401.4 75.6,287 66.8,495.1 365.4,434.2 298.7,-60.9 326.9,-185.5 325,-287.4 -2,-101.9 -181.1,-570.6 -303.4,-548.2"
         style="fill:#ffb27d;fill-opacity:1;fill-rule:nonzero;stroke:none"
         id="path196" /><path
         d="m 25076.7,11474.9 c 0,0 -215.2,-303.3 -422,-301.8 -206.7,1.5 -276.9,75.6 -276.9,75.6 0,0 179.6,78.6 265,276.3 0,0 381.2,135.3 433.9,-50.1"
         style="fill:#c94c43;fill-opacity:1;fill-rule:nonzero;stroke:none"
         id="path198" /><path
         d="m 25038.2,11455.8 c 0,0 74.3,-100.1 77.9,-179.2 3.7,-79.2 -25.8,-232.3 19.4,-238.8 0,0 155.6,203.7 83,361.4 -76.9,167.2 -180.3,56.6 -180.3,56.6"
         style="fill:#c94c43;fill-opacity:1;fill-rule:nonzero;stroke:none"
         id="path200" /><path
         d="m 25052.7,11439.8 c 0,0 -183.2,-328.7 -457.3,-376.9 0,0 301.6,151.9 383.9,379.1 82.4,227.2 73.4,-2.2 73.4,-2.2"
         style="fill:#c94c43;fill-opacity:1;fill-rule:nonzero;stroke:none"
         id="path202" /><path
         d="m 24814.4,10871.8 c 0,0 5.8,-43.7 33.6,-54 27.9,-10.4 101.9,-29.1 109.4,-24.4 7.5,4.6 35.2,38.7 35.2,38.7 0,0 -116.6,44.7 -178.2,39.7"
         style="fill:#ffffff;fill-opacity:1;fill-rule:nonzero;stroke:none"
         id="path204" /><path
         d="m 24641.7,6481.1 c -6,-24.5 -11.8,-48.8 -17.6,-72.9 -34.9,-144.9 -67.4,-279.3 -87.8,-391.9 -26.6,-146.3 -32.9,-255.2 2,-300.9 90.1,-118.1 67.2,-749.9 37.5,-1204.8 -17.5,-270.7 -37.5,-478.7 -37.5,-478.7 l -163.5,-168.4 c 0,0 -51.8,268.7 -117.1,594.7 -87.8,438.2 -200.1,979.9 -244.3,1112.6 -35.1,105.2 -86.1,554.2 -131.3,1012.6 -2.2,22.9 -4.5,45.8 -6.7,68.8 -7.8,80.2 -15.3,160.1 -22.5,238.1 -40.5,433.6 18.1,842 18.1,842 0,0 212.7,175.1 486.6,198.7 161.4,14 313.2,-37.3 388.2,-235.7 109.2,-288.5 -1.5,-786.6 -104.1,-1214.2"
         style="fill:#ffb27d;fill-opacity:1;fill-rule:nonzero;stroke:none"
         id="path206" /><path
         d="m 24641.6,6481.2 c -224,161.8 -539.2,449.7 -653.6,921.7 -21.9,234.7 163.1,457.6 369.6,528.1 161.4,14.1 313.2,-37.3 388.2,-235.6 109.2,-288.5 -1.4,-786.8 -104.2,-1214.2"
         style="fill:#ed975d;fill-opacity:1;fill-rule:nonzero;stroke:none"
         id="path208" /><path
         d="m 25458.7,9332.1 1101,-284.5 v -128.5 c 0,0 -1095.7,12.8 -1166.4,134.9 -70.6,122.1 65.4,278.1 65.4,278.1"
         style="fill:#ffb27d;fill-opacity:1;fill-rule:nonzero;stroke:none"
         id="path210" /><path
         d="m 26559.7,5094.3 -51.4,-212.4 c 0,0 -227.5,117.5 -516.2,269.4 -449.9,236.9 -1048.6,557.6 -1166,647.6 -77.3,59.4 -179.6,381.7 -274.2,746.3 -141.1,543.6 -265.4,1181 -265.4,1181 0,0 208.7,803.1 767.7,311.6 334.4,-294.1 282.5,-860.9 245.8,-1301.7 -24.4,-295.7 -41.9,-534.8 69,-596.7 159.3,-88.9 545.3,-413.7 818.1,-731.6 97.8,-114 181,-227.1 234.1,-328.1 l 138.5,14.6"
         style="fill:#ffb27d;fill-opacity:1;fill-rule:nonzero;stroke:none"
         id="path212" /><path
         d="m 26559.7,9047.6 c 0,0 202.1,99.5 282.4,109.2 80.3,9.6 215.2,12.8 215.2,0 0,-12.9 -144.6,-102.7 -183.1,-109.2 -38.6,-6.5 -112.4,-61.1 -90,-67.5 22.5,-6.4 141.4,20.9 143,0 1.6,-20.9 -72.3,-33.7 -85.1,-49.8 -12.9,-16 -57.9,-35.3 -130.1,-25.7 -72.3,9.7 -152.3,14.5 -152.3,14.5 v 128.5"
         style="fill:#ffb27d;fill-opacity:1;fill-rule:nonzero;stroke:none"
         id="path214" /><path
         d="m 26559.7,6020.4 c -711,-1023.7 -2545.3,-1138.5 -2545.3,-1138.5 -297.8,1087 -175.8,3835.4 -107.6,4857 -4.2,178.4 2.7,329.3 32,387.3 45.6,90.5 293.5,247.3 382.6,325.2 0,0 20.6,8.4 38.4,9.8 13.3,-46.8 178.6,-607.7 195,-596 16.2,11.5 295.1,544.4 324.5,607.4 29.9,-0.9 50.4,-1.5 56.3,-1.9 49.2,-2.4 314.5,-55.5 336.7,-98.3 7.8,-14.9 84,-216.8 179.6,-484 0,0 0,-0.2 0.1,-0.7 179.4,-501.3 442.5,-407.2 547,-555.7 65.7,-93.2 37.4,-267.2 -84.4,-417.6 -10.4,-12.8 -21.3,-25.3 -33,-37.6 -92.7,-98.1 -218.4,-156.1 -423,-126 -50.9,7.5 -153.8,56.7 -237.8,129.3 201.4,-756.3 1338.9,-2859.7 1338.9,-2859.7"
         style="fill:#1c468a;fill-opacity:1;fill-rule:nonzero;stroke:none"
         id="path216" /><path
         d="m 24372,10487.3 -96.3,-55 c 0,0 262.8,-743.5 275.8,-740.2 13,3.3 407.8,776 407.8,776 l -80.5,33.6 -324,-636.5 -182.8,622.1"
         style="fill:#f99746;fill-opacity:1;fill-rule:nonzero;stroke:none"
         id="path218" /><path
         d="m 25191.5,11445.9 c 0,0 -336.9,188.9 -893.5,-143.3 l 24,91.3 c 21.5,81.6 75.5,151 150,190.7 83.9,44.8 213.6,88.6 398.4,87.1 126.9,-1 242.9,-72.5 300.6,-185.6 l 20.5,-40.2"
         style="fill:#1c468a;fill-opacity:1;fill-rule:nonzero;stroke:none"
         id="path220" /><path
         d="m 23512.6,11203.6 -8.3,28.1 c 298.4,88.4 362.4,398.3 373.3,470.6 1.4,9.2 8.2,16.7 17.2,19.1 v 0 c 9.1,2.5 17.7,-5.3 16.1,-14.6 -13.8,-83.8 -87.1,-410.9 -398.3,-503.2"
         style="fill:#efcbab;fill-opacity:1;fill-rule:nonzero;stroke:none"
         id="path222" /><path
         d="m 23504.3,11231.7 h -39.7 l 15.2,-48.2 32.8,20.1 -8.3,28.1"
         style="fill:#d8a987;fill-opacity:1;fill-rule:nonzero;stroke:none"
         id="path224" /><path
         d="m 23464.6,11231.7 c 0,0 -54.8,-15.3 -66.4,0 0,0 -1.2,-46.3 18.3,-58.5 0,0 44,-1.5 63.3,10.3 l -15.2,48.2"
         style="fill:#efcbab;fill-opacity:1;fill-rule:nonzero;stroke:none"
         id="path226" /><path
         d="m 24391.7,10420.4 c 0,0 88,-161.8 438.4,-14.4 l -275.3,-540.8 -163.1,555.2"
         style="fill:#ffffff;fill-opacity:1;fill-rule:nonzero;stroke:none"
         id="path228" /><path
         d="m 24275.7,10432.3 c 0,0 -45.7,-1539 -425.3,-1837.3 -26.7,-21.1 -55.2,-36 -85.4,-43.7 -191.8,-48.9 -331.1,65.3 -425.4,223.6 -131.1,219.9 -175.5,524.7 -153.2,595 42.3,133.7 139.9,-102.8 344.6,-37.9 204.8,65 260,889.8 403,1010.2 37.3,31.2 341.7,90.1 341.7,90.1"
         style="fill:#1c468a;fill-opacity:1;fill-rule:nonzero;stroke:none"
         id="path230" /><path
         d="m 22423.4,9337.1 c 0,0 -57.2,30.9 -111.7,70.6 -25,18.5 -49.5,38.6 -67.5,58.6 -10.2,11.4 -18.4,22.5 -23.4,33.3 0,0 463.5,557.9 500.3,623.5 36.8,65.6 386.5,606.8 386.5,606.8 0,0 42.8,-20.2 94.1,-53.4 19.1,-12.4 39.5,-26.7 59.1,-42.4 36.2,-29.2 70.4,-63.4 91.1,-100.3 0,0 -509.1,-515.9 -545,-590.2 -36,-74.5 -383.5,-606.5 -383.5,-606.5"
         style="fill:#efcbab;fill-opacity:1;fill-rule:nonzero;stroke:none"
         id="path232" /><path
         d="m 22311.7,9407.7 c -25,18.5 -49.5,38.6 -67.5,58.6 -10.2,11.4 -18.4,22.5 -23.4,33.3 0,0 463.5,557.9 500.3,623.5 36.8,65.6 386.5,606.8 386.5,606.8 0,0 42.8,-20.2 94.1,-53.4 19.1,-12.4 39.5,-26.7 59.1,-42.4 -142.9,-145.9 -528.8,-543.6 -561.8,-611.8 -31.9,-66.3 -283.2,-454.6 -387.3,-614.6"
         style="fill:#ddb08e;fill-opacity:1;fill-rule:nonzero;stroke:none"
         id="path234" /><path
         d="m 22788.4,10232 c 0,0 -136.7,-132.6 -152.4,-223 l 143,-114.7 c 0,0 125,122.5 164.7,213.1 l -155.3,124.6"
         style="fill:#c94c43;fill-opacity:1;fill-rule:nonzero;stroke:none"
         id="path236" /><path
         d="m 22822.9,9883.6 c 0,0 9.7,90 -11,121.7 -20.7,31.7 -22.6,119 -41.8,109.7 -19.3,-9.3 -6.9,-80.8 -19.1,-115.3 -12.2,-34.6 -30.1,-195.3 19.1,-225.8 49.1,-30.6 52.8,109.7 52.8,109.7"
         style="fill:#ffb27d;fill-opacity:1;fill-rule:nonzero;stroke:none"
         id="path238" /><path
         d="m 22684.3,10109.5 c 0,0 -56.9,8.8 -77.7,-29 -20.7,-37.8 -46.4,-99.2 -7.3,-123.5 39.2,-24.3 85,152.5 85,152.5"
         style="fill:#ffb27d;fill-opacity:1;fill-rule:nonzero;stroke:none"
         id="path240" /><path
         d="m 24575.8,4510.6 c -17.5,-270.7 -37.5,-478.7 -37.5,-478.7 l -163.5,-168.4 c 0,0 -51.8,268.7 -117.1,594.7 0,0 183.3,-63.7 318.1,52.4"
         style="fill:#ffffff;fill-opacity:1;fill-rule:nonzero;stroke:none"
         id="path242" /><path
         d="m 24702.7,3788.5 -88.2,-47.7 c -32.1,-11.4 -58.6,-14.6 -91,-27.1 -49.3,-18.9 -84,-56 -85.7,-62.7 -24.9,-101.2 -60.2,-94.7 -60.2,-94.7 l -354.4,-3.4 c -16.7,8.4 11.6,79.9 25.2,93.3 33.5,33 133.7,16.4 170.3,120.2 20.7,58.3 122.4,239.7 122.4,239.7 l 0.7,0.6 c 3.4,1.8 22.3,5.5 124.7,-15.8 52.9,-10.9 74.9,96.5 74.9,96.5 0,0 16.8,-3.3 35.2,-16.5 14.6,-10.4 30.2,-27.1 39.2,-53.2 12.7,-36.8 64.7,-89.8 102.1,-124.5 22.6,-20.9 39.8,-35.2 39.8,-35.2 0,0 15.7,-18.9 -55,-69.5"
         style="fill:#233862;fill-opacity:1;fill-rule:nonzero;stroke:none"
         id="path244" /><path
         d="m 26559.7,5094.3 -51.4,-212.4 c 0,0 -227.5,117.5 -516.2,269.4 112.3,71.2 167.8,176.8 195,256.5 97.8,-114 181,-227.1 234.1,-328.1 l 138.5,14.6"
         style="fill:#ffffff;fill-opacity:1;fill-rule:nonzero;stroke:none"
         id="path246" /><path
         d="m 26854.1,5011.9 c 0,0 -0.4,0 -1.3,0.3 -6.7,1.6 -37.3,11.7 -57.6,60.5 -13.4,32 -17.4,58.4 -29.7,90.1 l -50.3,86.8 c -52.6,69.3 -71,53.1 -71,53.1 0,0 -13.8,-17.7 -34.1,-40.9 -33.5,-38.4 -85,-91.9 -121.4,-105.7 -25.9,-9.7 -42.1,-25.7 -52,-40.7 -12.7,-18.7 -15.6,-35.7 -15.6,-35.7 0,0 108,-18.8 98.6,-72 -18.3,-103 -14,-121.8 -12.1,-125.1 l 0.6,-0.7 c 0,0 184.2,-96.4 243.1,-115.4 104.9,-33.5 159.6,-104.8 193.6,-137.3 13.7,-13.2 32.8,-19.3 51.5,-16.3 27.7,4.4 63.5,13.3 71.4,30.2 l -213.7,368.8"
         style="fill:#233862;fill-opacity:1;fill-rule:nonzero;stroke:none"
         id="path248" /><path
         d="m 24482.1,9390.3 c 0,29.3 23.8,53.2 53.2,53.2 29.4,0 53.2,-23.9 53.2,-53.2 0,-29.4 -23.8,-53.2 -53.2,-53.2 -29.4,0 -53.2,23.8 -53.2,53.2"
         style="fill:#233862;fill-opacity:1;fill-rule:nonzero;stroke:none"
         id="path250" /><path
         d="m 24482.1,8995.4 c 0,29.4 23.8,53.2 53.2,53.2 29.4,0 53.2,-23.8 53.2,-53.2 0,-29.4 -23.8,-53.2 -53.2,-53.2 -29.4,0 -53.2,23.8 -53.2,53.2"
         style="fill:#233862;fill-opacity:1;fill-rule:nonzero;stroke:none"
         id="path252" /><path
         d="m 25914.6,8914.4 c -10.4,-12.8 -21.3,-25.3 -33,-37.6 -92.7,-98.1 -218.4,-156.1 -423,-126 -50.9,7.5 -153.8,56.7 -237.8,129.3 0,0 -168.7,461 -146,526 22.8,65 347.8,-440.4 617.5,-463.9 105.4,-9.3 176.9,-17.8 222.3,-27.8"
         style="fill:#233862;fill-opacity:1;fill-rule:nonzero;stroke:none"
         id="path254" /><path
         d="m 23930.8,9272.8 -80.4,-677.8 c -26.7,-21.1 -55.2,-36 -85.4,-43.7 -191.8,-48.9 -331.1,65.3 -425.4,223.6 98.3,-13.7 336.7,-34.9 388.7,68.9 66,131.6 202.5,429 202.5,429"
         style="fill:#233862;fill-opacity:1;fill-rule:nonzero;stroke:none"
         id="path256" /><path
         d="m 19275.6,12964.8 c 0,0 95.6,86.1 118.9,146.6 23.3,60.4 20.5,161.9 20.5,227.7 0,0 -28.8,10.1 -35.8,-21.3 -7.1,-31.4 -19.9,-104 -46.5,-118.6 -26.5,-14.6 -85.9,-12.9 -99.6,-87.8 -13.7,-75 42.5,-146.6 42.5,-146.6"
         style="fill:#b56f40;fill-opacity:1;fill-rule:nonzero;stroke:none"
         id="path258" /><path
         d="m 19057,12950.2 c 0,0 -86.9,177.9 -69.3,235.8 17.5,57.9 284.5,121.4 319.7,94.1 35.2,-27.3 0,-359.7 0,-359.7 l -250.4,29.8"
         style="fill:#b56f40;fill-opacity:1;fill-rule:nonzero;stroke:none"
         id="path260" /><path
         d="m 21866.2,7591.4 c 0,0 -12.8,-146.9 38.3,-217.1 51.1,-70.2 78.8,-134.1 95.8,-102.1 17,31.9 -27.7,142.5 -12.8,140.4 14.9,-2.1 56.2,-131.9 77.1,-172.4 20.8,-40.4 65.5,-104.3 95.3,-72.3 29.8,31.9 -27.7,334.1 -51.1,372.4 -23.4,38.3 -72.3,123.4 -72.3,123.4 l -170.3,-72.3"
         style="fill:#b56f40;fill-opacity:1;fill-rule:nonzero;stroke:none"
         id="path262" /><path
         d="m 20030.6,12017.9 1016.1,571.5 682.8,-845.9 -930.4,-451.4 -768.5,725.8"
         style="fill:#233862;fill-opacity:1;fill-rule:nonzero;stroke:none"
         id="path264" /><path
         d="m 20457.3,11748.4 c 0,0 -21.2,-91.2 -80.8,-123.6 -59.6,-32.4 34,-120.1 10.6,-184.8 -23.4,-64.7 71.1,-147.9 71.1,-147.9 l 656.3,-75.5 c 0,0 96.2,41.7 104.7,154.5 8.5,112.8 18.6,253.7 18.6,253.7 l -286.7,218.7 -412.9,-19.5 -80.9,-75.6"
         style="fill:#c94c43;fill-opacity:1;fill-rule:nonzero;stroke:none"
         id="path266" /><path
         d="m 18252.2,12842.7 c 0,0 -30.3,71.3 -51.5,148.8 -9.5,35.7 -17.3,72.6 -19.3,104.7 -1,18.1 -0.3,34.6 3.1,48.4 0,0 846,174.7 929,208.5 83,33.7 810.7,277.5 810.7,277.5 0,0 24.9,-50.6 48,-119.7 8.5,-25.7 16.8,-54.2 23.4,-83.3 12.1,-54.1 18.5,-111.4 10.3,-161.1 0,0 -857.2,-101.8 -946,-144.4 -88.8,-42.5 -807.7,-279.4 -807.7,-279.4"
         style="fill:#efcbab;fill-opacity:1;fill-rule:nonzero;stroke:none"
         id="path268" /><path
         d="m 18200.7,12991.5 c -9.5,35.7 -17.3,72.6 -19.3,104.7 -1,18.1 -0.3,34.6 3.1,48.4 0,0 846,174.7 929,208.5 83,33.7 810.7,277.5 810.7,277.5 0,0 24.9,-50.6 48,-119.7 8.5,-25.7 16.8,-54.2 23.4,-83.3 -241.4,-29.6 -896.1,-113 -977.5,-152 -79,-37.9 -601.6,-212.6 -817.4,-284.1"
         style="fill:#ddb08e;fill-opacity:1;fill-rule:nonzero;stroke:none"
         id="path270" /><path
         d="m 19257.1,13404.4 c 0,0 -225.8,-21.9 -307.6,-94.4 l 47.8,-213 c 0,0 207.5,21.1 311.7,76 l -51.9,231.4"
         style="fill:#c94c43;fill-opacity:1;fill-rule:nonzero;stroke:none"
         id="path272" /><path
         d="m 19462.2,3552.9 c 0,0 0,135.9 19.4,181.1 19.4,45.2 90.4,229.1 90.4,229.1 h 277.5 c 0,0 51.6,-167.8 54.8,-222.7 3.3,-54.8 0,-187.5 0,-187.5 h -442.1"
         style="fill:#233862;fill-opacity:1;fill-rule:nonzero;stroke:none"
         id="path274" /><path
         d="m 21224.3,3552.9 c 0,0 0,135.9 -19.4,181.1 -19.3,45.2 -90.3,229.1 -90.3,229.1 h -277.5 c 0,0 -51.7,-167.8 -54.9,-222.7 -3.2,-54.8 0,-187.5 0,-187.5 h 442.1"
         style="fill:#233862;fill-opacity:1;fill-rule:nonzero;stroke:none"
         id="path276" /><path
         d="m 20530.1,11201 c 0,0 -55.7,-297.5 -114.6,-425.6 l -335.4,-164.7 469.5,-928 644.5,581.9 -214.1,417.6 c 0,0 -20.4,413.5 45.4,555.2 65.9,141.7 -495.3,-36.4 -495.3,-36.4"
         style="fill:#b56f40;fill-opacity:1;fill-rule:nonzero;stroke:none"
         id="path278" /><path
         d="m 20522.1,11159.9 c 0,0.1 56.8,-230.9 227.3,-252.2 170.6,-21.4 238.8,164.7 238.8,164.7 l -466.1,87.5"
         style="fill:#99592e;fill-opacity:1;fill-rule:nonzero;stroke:none"
         id="path280" /><path
         d="m 20742.9,10994.5 c -122.8,21.1 -324,219.9 -292.8,422.8 l 48.7,316.6 c 11.4,74.1 72.4,126.8 135.5,117.1 l 469.5,-72.2 c 63.2,-9.8 105.5,-78.3 94.1,-152.4 l -45.9,-298.8 c -32.8,-212.7 -268.4,-357.3 -409.1,-333.1"
         style="fill:#b56f40;fill-opacity:1;fill-rule:nonzero;stroke:none"
         id="path282" /><path
         d="m 19497,8258 c -0.9,37 48.3,-1471.9 -24,-2328.6 -71.5,-846.1 0.5,-2023.3 0.5,-2023.3 0,0 232.2,-128.1 483.9,0 0,0 276,1634.3 274.3,2023.3 -1.9,414.2 300.4,2264 300.4,2264 L 19497,8258"
         style="fill:#f99746;fill-opacity:1;fill-rule:nonzero;stroke:none"
         id="path284" /><path
         d="m 21214.2,3906.1 c 0,0 -232.1,-128.1 -483.8,0 0,0 -276,1634.3 -274.3,2023.3 0.8,174.9 -52.6,606 -114.7,1045.5 -84.9,601.3 -185.8,1218.5 -185.8,1218.5 l 1075.3,67.1 c 0,0 -88.7,-1485.2 -16.1,-2331.1 72.6,-846 -0.6,-2023.3 -0.6,-2023.3"
         style="fill:#f99746;fill-opacity:1;fill-rule:nonzero;stroke:none"
         id="path286" /><path
         d="m 20595.1,11578.2 c -25,3.8 -48.3,-2 -63.8,-15.9 -13.8,-12.4 -20.6,-30.6 -19.6,-52.6 2,-42.1 28.7,-72.9 79.4,-91.6 38.5,-14.3 77.2,-15.7 77.6,-15.7 l 0.5,-0.1 c 38.9,-5.9 69.9,12.5 97.7,58 6.3,10.2 25.7,45.3 14.2,70.1 -6.4,13.7 -21.6,22.5 -45.1,26.1 z m 47,-182.4 c -45.8,7.1 -135.9,31.4 -139.7,113.5 -1.2,24.9 6.7,45.6 22.7,60 17.6,15.8 43.6,22.4 71.4,18.1 l 141,-21.6 c 26.8,-4.2 44.3,-14.7 52.1,-31.5 13.1,-28.2 -5.9,-64.6 -14.7,-78.9 -30,-49 -63.9,-68.9 -106.8,-62.4 -1.9,0.1 -11.8,0.7 -26,2.8"
         style="fill:#2c3a64;fill-opacity:1;fill-rule:nonzero;stroke:none"
         id="path288" /><path
         d="m 20925.9,11527.3 c -23.5,3.6 -40.6,-0.2 -50.8,-11.4 -18.4,-20.2 -10.4,-59.5 -7.6,-71.1 12.9,-51.8 37,-78.6 75.8,-84.6 l 0.6,-0.1 c 0.3,-0.2 37.6,-10.4 78.7,-8.4 54,2.6 88.7,24 103.2,63.6 7.6,20.6 6.6,40 -2.9,56 -10.6,17.9 -31,30.5 -56,34.3 z m 41.3,-181.5 c -14.2,2.2 -23.8,4.7 -25.6,5.1 -42.8,6.8 -69.3,35.9 -83.1,91.7 -4.1,16.3 -11.3,56.6 9.7,79.6 12.5,13.6 32.4,18.5 59.2,14.3 l 140.9,-21.6 c 27.8,-4.3 50.7,-18.5 62.7,-38.9 10.9,-18.5 12.2,-40.6 3.6,-64 -28.3,-77.2 -121.6,-73.2 -167.4,-66.2"
         style="fill:#2c3a64;fill-opacity:1;fill-rule:nonzero;stroke:none"
         id="path290" /><path
         d="m 20771.9,11493.8 c -2.1,0.3 -3.9,1.8 -4.5,4 -0.9,3 0.9,6.1 3.8,6.9 2.5,0.7 61.6,17 106.6,-16.5 2.5,-1.9 3,-5.4 1.1,-7.9 -1.8,-2.5 -5.3,-3 -7.8,-1.1 -40.7,30.2 -96.2,14.9 -96.8,14.7 -0.8,-0.2 -1.6,-0.2 -2.4,-0.1"
         style="fill:#2c3a64;fill-opacity:1;fill-rule:nonzero;stroke:none"
         id="path292" /><path
         d="m 20647.8,10611.3 -317.7,137.6 c 0,0 -164.2,-1306 55,-1386.8 0,0 625.6,1110.9 583,1253.5 l -320.3,-4.3"
         style="fill:#ffffff;fill-opacity:1;fill-rule:nonzero;stroke:none"
         id="path294" /><path
         d="m 20446.8,10831.7 c 0,0 -89.5,-15.4 -136.3,-60.1 0,0 68.1,-221.3 249,-287.3 l 77.6,127 c 0,0 -147.6,69.8 -190.3,220.4"
         style="fill:#d2e3fc;fill-opacity:1;fill-rule:nonzero;stroke:none"
         id="path296" /><path
         d="m 20637.1,10611.3 c 0,0 295.9,11.4 340,154 0,0 59.1,-61.8 57,-161.8 0,0 -93.7,-141.4 -327.8,-143 l -69.2,150.8"
         style="fill:#d2e3fc;fill-opacity:1;fill-rule:nonzero;stroke:none"
         id="path298" /><path
         d="m 20661.8,11216.6 c 0,0 157.4,-7 226.9,-35 0,0 -48,-56.9 -110.9,-47.2 -62.8,9.6 -106.8,39.9 -116,82.2"
         style="fill:#fff0e6;fill-opacity:1;fill-rule:nonzero;stroke:none"
         id="path300" /><path
         d="m 19547,11680.4 c -142.8,-90 -337.8,-211.9 -497,-308.3 -7.9,26.9 -13.6,51.3 -16.9,72.6 -52.8,336.6 23.9,1505.5 23.9,1505.5 0,0 53,26.7 107.8,31.3 103.6,8.4 142.6,-61.1 142.6,-61.1 0,0 180.5,-1028.3 239.6,-1240"
         style="fill:#b56f40;fill-opacity:1;fill-rule:nonzero;stroke:none"
         id="path302" /><path
         d="m 22075.8,7615 -107.7,-44.8 c -172.3,-61.3 -358.1,21.4 -414.4,195.4 -75.9,234.4 -83.7,486.9 -111.8,694.7 -13.8,102.2 -29.8,312.9 -91.7,477 -0.1,0.1 -0.1,0.2 -0.1,0.2 l 108.2,-3633.2 c -1621.5,-114.9 -2412.7,817.2 -2412.7,817.2 -41.8,983.6 351.2,3199.9 494.4,3968 -69.1,156 -559.6,603.9 -641.6,1043.7 -38.1,204.2 81.2,348.7 226.1,446.2 182.3,122.9 405.1,171.4 405.1,171.4 l 524.1,-700.6 c 22.2,-25.2 37.9,-45 44,-57.5 40.5,-82.4 250.3,-219 250.3,-219 -0.6,-4.3 22.6,-1181.1 65.4,-1218.7 61.7,23.4 475.2,851.3 566.6,1127.2 131.6,-36.2 273.7,-85.3 423.6,-151.4 0,0 283.8,-151.4 324,-811.7 34.1,-559.9 376.2,-1274.6 453.8,-1923.9 9.2,-76.9 -34,-150.6 -105.6,-180.2"
         style="fill:#1c468a;fill-opacity:1;fill-rule:nonzero;stroke:none"
         id="path304" /><path
         d="m 20289.3,10814.3 c 0,0 38.3,-1141.1 87.2,-1426.7 l 727.7,1257.4 -100.3,37.2 -575.2,-1042.1 -56.7,1133.7 -82.7,40.5"
         style="fill:#c94c43;fill-opacity:1;fill-rule:nonzero;stroke:none"
         id="path306" /><path
         d="m 20446.8,10858.7 c 0,0 -89.5,-15.4 -136.3,-60.1 0,0 68.1,-221.3 249,-287.3 l 77.6,100 c 0,0 -147.6,96.7 -190.3,247.4"
         style="fill:#ffffff;fill-opacity:1;fill-rule:nonzero;stroke:none"
         id="path308" /><path
         d="m 20637.1,10611.3 c 0,0 295.9,38.3 340,180.9 0,0 59.1,-61.7 57,-161.7 0,0 -93.7,-141.4 -327.8,-143.1 l -69.2,123.9"
         style="fill:#ffffff;fill-opacity:1;fill-rule:nonzero;stroke:none"
         id="path310" /><path
         d="m 20203,9265.7 c 0,29.7 24.1,53.8 53.7,53.8 29.7,0 53.8,-24.1 53.8,-53.8 0,-29.6 -24.1,-53.7 -53.8,-53.7 -29.6,0 -53.7,24.1 -53.7,53.7"
         style="fill:#233862;fill-opacity:1;fill-rule:nonzero;stroke:none"
         id="path312" /><path
         d="m 20101.9,8781.7 c 0,29.6 24.1,53.7 53.7,53.7 29.7,0 53.8,-24.1 53.8,-53.7 0,-29.7 -24.1,-53.8 -53.8,-53.8 -29.6,0 -53.7,24.1 -53.7,53.8"
         style="fill:#233862;fill-opacity:1;fill-rule:nonzero;stroke:none"
         id="path314" /><path
         d="m 20104.1,11482.3 17.9,17 c -180.1,189.8 -96.4,442.4 -74,499.6 2.9,7.3 1.1,15.6 -4.4,21.2 v 0 c -5.6,5.6 -15.1,3.5 -17.9,-3.9 -25.2,-66.8 -109.4,-335.8 78.4,-533.9"
         style="fill:#efcbab;fill-opacity:1;fill-rule:nonzero;stroke:none"
         id="path316" /><path
         d="m 20122,11499.3 28.9,-16.7 -31.4,-28.7 -15.4,28.4 17.9,17"
         style="fill:#d8a987;fill-opacity:1;fill-rule:nonzero;stroke:none"
         id="path318" /><path
         d="m 20150.9,11482.6 c 0,0 33.5,-34.2 48.3,-28 0,0 -18.6,-34.2 -37.9,-34.9 0,0 -32.7,17.5 -41.8,34.2 l 31.4,28.7"
         style="fill:#efcbab;fill-opacity:1;fill-rule:nonzero;stroke:none"
         id="path320" /><path
         d="m 20473.8,11679.7 c 0,0 126,-8.5 163.3,55.3 0,0 102.4,-25.5 147.5,12.8 0,0 158,-31.9 162.2,31.9 0,0 120.7,-241.5 253,-191 132.2,50.5 -211.6,295.3 -211.6,295.3 l -450,-60 -64.4,-144.3"
         style="fill:#c94c43;fill-opacity:1;fill-rule:nonzero;stroke:none"
         id="path322" /><path
         d="m 20483.1,11860.6 -25.8,-112.2 c 0,0 351.5,124.8 780.5,-123.6 l -5,180.7 c -1,35.3 -17.1,68.5 -44.3,91 -77.6,63.9 -263.2,189.4 -606.8,89.5 -48.2,-14 -87.4,-76.6 -98.6,-125.4"
         style="fill:#1c468a;fill-opacity:1;fill-rule:nonzero;stroke:none"
         id="path324" /><path
         d="m 18947.1,13244.2 c -1.3,6.9 -24.4,55.3 7.3,100.2 31.7,44.9 239.9,113.6 259.3,77.3 19.4,-36.2 7.1,-162.3 -59.8,-190.2 -66.9,-27.9 -201.7,-15.3 -206.8,12.7"
         style="fill:#b56f40;fill-opacity:1;fill-rule:nonzero;stroke:none"
         id="path326" /><path
         d="m 19540,10089.5 c -69.1,156 -559.6,603.9 -641.6,1043.7 -38.1,204.2 81.2,348.7 226.1,446.2 0,0 -67.9,-308.8 124.7,-587.5 192.7,-278.7 290.8,-902.4 290.8,-902.4"
         style="fill:#233862;fill-opacity:1;fill-rule:nonzero;stroke:none"
         id="path328" /><path
         d="m 21968.1,7570.2 c -172.3,-61.3 -358.1,21.4 -414.4,195.4 -75.9,234.4 -83.7,486.9 -111.8,694.7 -13.8,102.2 -29.8,312.9 -91.7,477 5.8,-9 192.4,-304 360,-781.4 170.3,-485 117.1,-555.7 257.9,-585.7"
         style="fill:#233862;fill-opacity:1;fill-rule:nonzero;stroke:none"
         id="path330" /><path
         d="m 28549.8,3560.9 h -914.5 c -49,41.6 33.9,136 120.5,142.3 37.7,2.8 85.2,-5 139.6,-16.5 12.6,167.1 84.5,918.6 355.3,888.4 304.6,-33.8 0,-330.9 -86.1,-506.8 -63.7,-130.3 -131,-317.2 -161.8,-405.4 24.8,-5.3 50.4,-10.6 76.5,-15.4 40.4,124 190.6,540.9 381.6,516.6 224.3,-28.5 134.1,-195.6 -24.8,-294.8 -116.7,-73 -259.9,-176.7 -327.9,-226.8 57.6,-9.4 117.8,-15.8 178.9,-14.3 156.6,3.7 233.1,-42.5 262.7,-67.3"
         style="fill:#82b378;fill-opacity:1;fill-rule:nonzero;stroke:none"
         id="path332" /><path
         d="m 5352.7,3560.9 c 0,0 -421.76,1158.3 -717.89,1059.5 -296.13,-98.7 717.89,-1059.5 717.89,-1059.5"
         style="fill:#82b378;fill-opacity:1;fill-rule:nonzero;stroke:none"
         id="path334" /><path
         d="m 5191.17,3560.9 c -35.89,0 -708.91,698.4 -753.78,515.6 -44.87,-182.9 753.78,-515.6 753.78,-515.6"
         style="fill:#82b378;fill-opacity:1;fill-rule:nonzero;stroke:none"
         id="path336" /><path
         d="m 5909.06,3560.9 c 0,0 -278.34,255.2 -630.75,188.7 -352.41,-66.4 -502.91,-139.2 -724.26,-88.8 -221.35,50.3 -334.43,-99.9 -334.43,-99.9 h 1689.44"
         style="fill:#82b378;fill-opacity:1;fill-rule:nonzero;stroke:none"
         id="path338" /><path
         d="m 15612.1,6446.6 c 64.9,101.7 -481.9,1226.2 -188.4,1852.3 36.6,78 718.1,-38.5 718.1,-38.5 0,0 139.4,-1581.3 61.1,-1999.7 -55.3,-295.6 -163.7,-1168 -222.4,-1654.6 -0.2,-1.6 -0.4,-3.1 -0.6,-4.7 -13.9,-115.7 -25.1,-209.2 -32,-267.3 -5.3,-44 -0.1,-88.4 15.1,-130 43.5,-119 137.8,-365.4 185,-399.3 0,0 -257.9,-73.8 -307.4,-44.8 -49.5,28.8 -175.4,483.4 -175.4,483.4 21.9,42.3 29.6,90.4 22.2,137.5 -9.7,61.9 -24.6,158.9 -41.3,278.4 0,0 0,0 0,-0.1 v 0.1 c -222.4,899.9 -188.9,1544.4 -34,1787.3"
         style="fill:#ffb27d;fill-opacity:1;fill-rule:nonzero;stroke:none"
         id="path340" /><path
         d="m 14155.5,4428.7 c 35.5,31.8 59.8,74 69.4,120.7 12.8,61.4 33.2,157.4 59.8,275.1 v 0 c 110,920.4 369,1511.4 599.8,1683.9 96.6,72.2 -17.5,1317.5 478.3,1799.5 61.8,60 658.2,-289.9 658.2,-289.9 0,0 -428.5,-1528.4 -649.5,-1892.2 -156.2,-257 -565.9,-1034.8 -792.8,-1469.3 v 0 l 0.1,-0.1 c -55.1,-105.1 -99.3,-190.2 -126.7,-242.9 -20.4,-39.2 -31.3,-82.7 -31.8,-126.9 -1.4,-126.7 -18.4,-466.1 31.6,-495.7 31,-18.4 58,-38.7 80.4,-59.4 0,0 -235.2,20.2 -263.9,21.8 -28.4,1.5 -208.7,565.8 -212.2,576.6 0,0.1 0,0.1 0,0.1 36.1,39.2 72.7,74.8 99.3,98.7"
         style="fill:#ffb27d;fill-opacity:1;fill-rule:nonzero;stroke:none"
         id="path342" /><path
         d="m 13939.4,4122.4 -59.1,-346 31.3,-23.2 185,267.2 -157.2,102"
         style="fill:#233862;fill-opacity:1;fill-rule:nonzero;stroke:none"
         id="path344" /><path
         d="m 13945.8,4096 c 202,-105.9 231.8,-459 264,-535 l 369,-1.1 c 55.7,18.8 33.8,97.7 -46.5,171.6 0,0 -235.2,20.2 -263.9,21.8 -28.4,1.5 -208.7,565.8 -212.2,576.6 -84.8,-92 -166.9,-204.3 -110.4,-233.9"
         style="fill:#1c468a;fill-opacity:1;fill-rule:nonzero;stroke:none"
         id="path346" /><path
         d="m 14268.4,5266.2 c 16.3,-441.8 895.2,-356.9 895.2,-356.9 l 116.2,561.9 77,373 25.7,123.6 -38.6,18.3 -559.1,265.4 -175.1,83.2 -7.1,-22.1 -301.5,-944 -0.1,-0.4 -32.6,-102"
         style="fill:#f99746;fill-opacity:1;fill-rule:nonzero;stroke:none"
         id="path348" /><path
         d="m 14301,5368.2 c 253.9,261.1 978.8,103 978.8,103 l 77,373 -12.9,141.9 -559.1,265.4 -182.2,61.1 -301.5,-944 -0.1,-0.4"
         style="fill:#ef7e29;fill-opacity:1;fill-rule:nonzero;stroke:none"
         id="path350" /><path
         d="m 15598.5,3890.9 48.1,-329.8 h 53.3 l 25.1,255.6 -126.5,74.2"
         style="fill:#233862;fill-opacity:1;fill-rule:nonzero;stroke:none"
         id="path352" /><path
         d="m 15598.4,3890.8 c 112.1,-51.7 234.8,-270.1 291.7,-329.8 l 465.6,-3.3 c 58.4,47.7 -145.3,201.9 -207.7,247.1 0,0 -257.9,-73.8 -307.4,-44.8 -49.5,28.8 -175.4,483.4 -175.4,483.4 -55.1,-106.6 -149.4,-314.4 -66.8,-352.6"
         style="fill:#1c468a;fill-opacity:1;fill-rule:nonzero;stroke:none"
         id="path354" /><path
         d="m 15382.5,6130.7 115.6,-1268.9 c 214.8,-272.3 782.2,-105 782.2,-105 0,0 43.1,1048.2 65.1,1089.5 l -82.2,24.2 -880.7,260.2"
         style="fill:#f99746;fill-opacity:1;fill-rule:nonzero;stroke:none"
         id="path356" /><path
         d="m 15382.5,6130.7 115.6,-1268.9 c 6,624.5 813.7,561.7 813.7,561.7 l -48.6,447 -880.7,260.2"
         style="fill:#ef7e29;fill-opacity:1;fill-rule:nonzero;stroke:none"
         id="path358" /><path
         d="m 16371.9,12091.2 -1185,469.6 -662.8,-639.1 1126.4,-439.4 721.4,608.9"
         style="fill:#233862;fill-opacity:1;fill-rule:nonzero;stroke:none"
         id="path360" /><path
         d="m 15816.9,11874.8 c 0,0 2.5,-141.2 106.2,-185.2 214.6,-91 10.4,-196.5 220.8,-345.3 48.4,-34.3 83.4,-247.2 -251.8,-278.9 -335.1,-31.7 -376.8,-60.2 -376.8,-60.2 0,0 -248.8,-159.5 -524.4,4.5 -159.6,95 41.5,359.8 -31.8,427.2 -98.7,90.6 -111.8,387.9 31.8,510.7 143.6,122.7 373.3,193.9 373.3,193.9 l 452.7,-266.7"
         style="fill:#132644;fill-opacity:1;fill-rule:nonzero;stroke:none"
         id="path362" /><path
         d="m 16757.3,11567.7 8.8,29.8 c -317,94 -385,423.3 -396.7,500 -1.5,9.9 -8.6,17.8 -18.3,20.4 v 0 c -9.6,2.6 -18.7,-5.6 -17.1,-15.5 14.7,-89.1 92.6,-436.7 423.3,-534.7"
         style="fill:#efcbab;fill-opacity:1;fill-rule:nonzero;stroke:none"
         id="path364" /><path
         d="m 16766.1,11597.5 h 42.2 l -16.2,-51.2 -34.8,21.4 8.8,29.8"
         style="fill:#d8a987;fill-opacity:1;fill-rule:nonzero;stroke:none"
         id="path366" /><path
         d="m 16808.3,11597.5 c 0,0 58.3,-16.2 70.6,0 0,0 1.3,-49.2 -19.4,-62.2 0,0 -46.8,-1.6 -67.4,11 l 16.2,51.2"
         style="fill:#efcbab;fill-opacity:1;fill-rule:nonzero;stroke:none"
         id="path368" /><path
         d="m 15889.5,10977.9 c -23.5,3 -94.7,59.8 -126.9,146.8 -38.8,104.6 -72.2,218.4 -72.2,218.4 l -102.9,-16.8 -275.2,-45 -22.5,-3.7 c 21.9,-58 38.5,-112.8 50.3,-163.2 21.7,-91.3 28.4,-168.5 25.8,-225.9 -2.8,-58.6 -33.5,-74.2 -50,-85.9 -7.7,-4.9 290.3,-981.7 434,-933.1 124.8,42.2 151.7,1111.7 139.6,1108.4"
         style="fill:#ffb27d;fill-opacity:1;fill-rule:nonzero;stroke:none"
         id="path370" /><path
         d="m 15365.8,10888.5 c 165.3,66.8 324.7,454.6 324.7,454.6 -32.9,4 -67.8,-2.6 -103,-16.8 -91.2,-36.6 -184,-124 -247.3,-211.9 21.6,-91.3 28.4,-168.5 25.6,-225.9"
         style="fill:#ed975d;fill-opacity:1;fill-rule:nonzero;stroke:none"
         id="path372" /><path
         d="m 15260.3,11046.3 c 0,0 491.3,79.6 437,384.8 -54.3,305.2 -27.5,521.1 -343.5,483.1 -316,-37.9 -356,-165.2 -362.7,-271.5 -6.6,-106.3 140,-609.3 269.2,-596.4"
         style="fill:#ffb27d;fill-opacity:1;fill-rule:nonzero;stroke:none"
         id="path374" /><path
         d="m 15216.6,10762.8 c 0,0 -829,249.5 -887.9,318.8 -59,69.4 -202.3,990.5 -202.4,1123.1 l -120.6,-17.3 c 0,0 -89.4,-1047.7 14.2,-1285.4 103.5,-237.6 1149,-612 1149,-612 l 47.7,472.8"
         style="fill:#ffb27d;fill-opacity:1;fill-rule:nonzero;stroke:none"
         id="path376" /><path
         d="m 15864.6,10989.7 c 0,0 -101.8,-317.4 -500.4,-117.7 l 418.6,-920.8 109.3,823.3 -27.5,215.2"
         style="fill:#f99746;fill-opacity:1;fill-rule:nonzero;stroke:none"
         id="path378" /><path
         d="m 16203.4,10896.2 c 0,0 -50.2,-165.1 909.7,-688.4 l 708.1,484.9 85,-71.2 c 0,0 -678.9,-818.3 -784.9,-800.9 -106,17.4 -834.9,497.5 -834.9,497.5 l -83,578.1"
         style="fill:#ffb27d;fill-opacity:1;fill-rule:nonzero;stroke:none"
         id="path380" /><path
         d="m 13593.7,6803.7 c 0,0 26.1,-82.2 85.4,-200.9 102.2,-204.3 302.8,-516.9 638.4,-704.4 380.6,-212.9 1613.7,-619.7 2460.6,-422.7 0,0 -80.2,2680.3 -258.1,3782.3 -4.1,25.6 -8.3,50.3 -12.5,74 51.6,-197.9 316.6,-263 425.3,-226.5 238.6,80.3 321.6,265.8 332.9,462.1 17.5,302.2 -135.1,630.3 -152.6,640.2 -391.3,222.2 -463.9,574.9 -654,700.8 -169.7,112.5 -574.7,83 -594.5,81 l -88.7,-880.7 -411.7,763 c -0.6,0.3 -664.4,58 -1035.6,209.8 0,0 -1110.2,-1536.1 264.6,-1515.9 0,-353.8 -165.3,-675.3 -324.8,-1153.5 -158.1,-474.2 -674.7,-1608.6 -674.7,-1608.6"
         style="fill:#1c468a;fill-opacity:1;fill-rule:nonzero;stroke:none"
         id="path382" /><path
         d="m 15367.1,11268.7 c 0,0 -5.5,-49.8 -36.8,-62.1 -31.4,-12.4 -114.9,-35.5 -123.5,-30.4 -8.6,5.1 -40.9,43 -40.9,43 0,0 131.2,53.6 201.2,49.5"
         style="fill:#ffffff;fill-opacity:1;fill-rule:nonzero;stroke:none"
         id="path384" /><path
         d="m 14129.1,12204.1 c 0,0 50.8,35.3 24,132.3 -17.9,64.9 -5.8,117.6 -19.6,116 -14.6,-1.7 -26,-85.9 -34.6,-106.6 -7.2,-17.6 -117.5,191.1 -145.8,174.7 -28.3,-16.3 -83.2,-98.8 48.6,-384 l 127.4,67.6"
         style="fill:#ffb27d;fill-opacity:1;fill-rule:nonzero;stroke:none"
         id="path386" /><path
         d="m 17821.2,10692.7 c 0,0 75.4,178.8 100.5,215.7 49.7,72.9 191.4,118.6 200.6,86.3 9.1,-32.2 -90.9,-79.9 -95.2,-154.2 -1.2,-20.6 41.1,19.4 67.2,35 15.7,9.3 25.1,1.6 16.9,-10.4 -41.6,-60.6 -64.3,-122.8 -104.1,-145.7 -39.8,-23 -100.9,-97.9 -100.9,-97.9 l -85,71.2"
         style="fill:#ffb27d;fill-opacity:1;fill-rule:nonzero;stroke:none"
         id="path388" /><path
         d="m 15864.6,10989.7 -88.7,-880.8 -410.1,779.6 -149.2,-0.6 603.3,-1097.6 154.8,1204 -110.1,-4.6"
         style="fill:#aa443e;fill-opacity:1;fill-rule:nonzero;stroke:none"
         id="path390" /><path
         d="m 15057.5,11903 c 0,0 -144.1,-169.6 309.6,-252.6 145.8,-26.7 219,-167.6 179.2,-286.6 -58.9,-176.5 90.1,-366.5 309.2,-298.1 174.5,54.5 -109.7,869.5 -264.5,881.9 -154.9,12.3 -533.5,-44.6 -533.5,-44.6"
         style="fill:#132644;fill-opacity:1;fill-rule:nonzero;stroke:none"
         id="path392" /><path
         d="m 15216.6,11864 c 0,0 -145.7,-104.7 -158.1,-188.5 -12.4,-83.9 -46.4,-203.7 -102.1,-119 -55.7,84.6 -65,199.2 0,276.5 65,77.4 210.4,112.2 241.4,85.5 31,-26.7 18.8,-54.5 18.8,-54.5"
         style="fill:#132644;fill-opacity:1;fill-rule:nonzero;stroke:none"
         id="path394" /><path
         d="m 14959.1,11912.6 c 0,0 278.5,239.8 869.9,-113.2 l 7.9,145.8 c -22.8,86.7 -50.5,86.1 -129.6,128.2 -89.2,47.6 -227,94.2 -423.3,92.6 -135,-1.1 -213.7,16.2 -275,-103.9 l -49.9,-149.5"
         style="fill:#1c468a;fill-opacity:1;fill-rule:nonzero;stroke:none"
         id="path396" /><path
         d="m 18645.2,10237.7 c 0,0 52.4,56.9 98.2,122.9 21,30.5 40.7,62.7 53.2,92.2 7.1,16.8 11.9,32.5 13.3,46.6 0,0 -738.8,447.7 -805.8,507.2 -66.9,59.6 -671.2,532.7 -671.2,532.7 0,0 -40.4,-39.4 -85.3,-96.8 -16.6,-21.4 -33.9,-45.4 -49.9,-70.7 -29.5,-46.9 -54.6,-98.7 -63.6,-148.3 0,0 773.9,-382.6 843.3,-452.4 69.5,-69.9 667.8,-533.4 667.8,-533.4"
         style="fill:#efcbab;fill-opacity:1;fill-rule:nonzero;stroke:none"
         id="path398" /><path
         d="m 18743.4,10360.6 c 21,30.5 40.7,62.7 53.2,92.2 7.1,16.8 11.9,32.5 13.3,46.6 0,0 -738.8,447.7 -805.8,507.2 -66.9,59.6 -671.2,532.7 -671.2,532.7 0,0 -40.4,-39.4 -85.3,-96.8 -16.6,-21.4 -33.9,-45.4 -49.9,-70.7 217.6,-108.6 806.8,-406.1 870.4,-470 61.8,-62.3 495.9,-401.6 675.3,-541.2"
         style="fill:#ddb08e;fill-opacity:1;fill-rule:nonzero;stroke:none"
         id="path400" /><path
         d="m 17885.9,11103 c 0,0 205.5,-96.1 258.4,-191.8 l -116.3,-184.7 c 0,0 -188.5,89.2 -268.4,175.8 l 126.3,200.7"
         style="fill:#c94c43;fill-opacity:1;fill-rule:nonzero;stroke:none"
         id="path402" /><path
         d="m 18007.1,10719.4 c 0,0 51.9,21.2 83,60 31.1,38.8 73.3,101.6 21.1,85.7 -52.2,-15.8 -145.1,-81.3 -180.2,-87.4 -35.1,-6.1 -22.4,-33.3 -24.8,-41 -2.5,-7.8 100.9,-17.3 100.9,-17.3"
         style="fill:#ffb27d;fill-opacity:1;fill-rule:nonzero;stroke:none"
         id="path404" /><path
         d="m 13593.7,6803.7 c 0,0 26.1,-82.2 85.4,-200.9 222.5,235.3 532.6,610.1 748.7,1060.9 372.8,777.7 165.4,1902.1 165.4,1902.1 0,-353.8 -165.3,-675.3 -324.8,-1153.5 -158.1,-474.2 -674.7,-1608.6 -674.7,-1608.6"
         style="fill:#233862;fill-opacity:1;fill-rule:nonzero;stroke:none"
         id="path406" /><path
         d="m 15892.1,9472.5 c 0,20.5 -16.6,37.1 -37.1,37.1 -20.4,0 -37.1,-16.6 -37.1,-37.1 0,-20.4 16.7,-37.1 37.1,-37.1 20.5,0 37.1,16.7 37.1,37.1"
         style="fill:#233862;fill-opacity:1;fill-rule:nonzero;stroke:none"
         id="path408" /><path
         d="m 15892.1,8798.2 c 0,20.5 -16.6,37.1 -37.1,37.1 -20.4,0 -37.1,-16.6 -37.1,-37.1 0,-20.5 16.7,-37.1 37.1,-37.1 20.5,0 37.1,16.6 37.1,37.1"
         style="fill:#233862;fill-opacity:1;fill-rule:nonzero;stroke:none"
         id="path410" /><path
         d="m 16520,9258 c -4.1,25.6 -8.3,50.3 -12.5,74 51.6,-197.9 316.6,-263 425.3,-226.5 238.6,80.3 321.6,265.8 332.9,462.1 -25.7,-13.4 -413,-211.3 -593.1,-95.1 -183.5,118.5 -297.1,386.7 -300.6,395 l 148,-609.5"
         style="fill:#233862;fill-opacity:1;fill-rule:nonzero;stroke:none"
         id="path412" /><path
         d="m 24323.3,12877.7 c 0,0 -109,-82 -234.7,-75.2 -93.3,5.1 -188.7,86.8 -192.5,92.3 l -68.1,-132.1 c 0,0 174.1,-94.8 317.8,-59.9 44.1,10.7 114.1,58.2 145.1,92.8 34.2,38.1 32.4,82.1 32.4,82.1"
         style="fill:#6bb7bf;fill-opacity:1;fill-rule:nonzero;stroke:none"
         id="path414" /><path
         d="m 24307.8,13145.6 182.3,85.7 c 0,0 -7.5,-387.8 -321.4,-520.7 0,0 189.5,273.9 139.1,435"
         style="fill:#86d1cd;fill-opacity:1;fill-rule:nonzero;stroke:none"
         id="path416" /><path
         d="m 4977.56,9349.9 c 0,0 -108.93,-81.9 -234.62,-75.1 -93.3,5.1 -188.78,86.8 -192.59,92.3 L 4482.3,9235 c 0,0 174.04,-94.8 317.81,-59.9 44.06,10.7 114.1,58.2 145.11,92.8 34.18,38.1 32.34,82 32.34,82"
         style="fill:#6bb7bf;fill-opacity:1;fill-rule:nonzero;stroke:none"
         id="path418" /><path
         d="m 4962.06,9617.8 182.38,85.7 c 0,0 -7.55,-387.7 -321.47,-520.6 0,0 189.49,273.9 139.09,434.9"
         style="fill:#86d1cd;fill-opacity:1;fill-rule:nonzero;stroke:none"
         id="path420" /><path
         d="m 19650.9,15400.3 c 0,0 265.1,184.1 464.1,-90.4 l 218.5,94 c 0,0 -107.9,170.4 -531.5,94.9 -277.1,-49.4 -151.1,-98.5 -151.1,-98.5"
         style="fill:#5685d8;fill-opacity:1;fill-rule:nonzero;stroke:none"
         id="path422" /><path
         d="m 19389.9,15220.2 c 0,0 72.2,297.9 615.8,297.9 0,0 -203.7,-19.3 -362.8,-283.7 l -253,-14.2"
         style="fill:#739af0;fill-opacity:1;fill-rule:nonzero;stroke:none"
         id="path424" /><path
         d="m 17913.3,14203.8 c 0,0 -146.4,92.5 -161.8,204.2 0,0 -142.6,-7.7 -173.4,-54 0,0 65.5,-184.9 142.6,-219.6 0,0 173.3,-11.5 192.6,69.4"
         style="fill:#ed7d2b;fill-opacity:1;fill-rule:nonzero;stroke:none"
         id="path426" /><path
         d="m 27618.6,6414 c 0,0 -146.4,92.5 -161.8,204.2 0,0 -142.5,-7.7 -173.3,-53.9 0,0 65.5,-184.9 142.5,-219.6 0,0 173.4,-11.6 192.6,69.3"
         style="fill:#ed7d2b;fill-opacity:1;fill-rule:nonzero;stroke:none"
         id="path428" /><path
         d="m 3722.32,6672.7 c 0,0 -146.39,92.5 -161.8,204.2 0,0 -142.54,-7.7 -173.36,-54 0,0 65.5,-184.9 142.54,-219.5 0,0 173.36,-11.6 192.62,69.3"
         style="fill:#ed7d2b;fill-opacity:1;fill-rule:nonzero;stroke:none"
         id="path430" /></g></g></svg>
