<svg width="616" height="376" viewBox="0 0 616 376" fill="none" xmlns="http://www.w3.org/2000/svg">
    <path d="M603.562 375.334L490.344 374.924L438.559 374.737L427.439 374.697L387.114 374.553L337.968 374.375L295.366 374.225L292.952 374.216L281.715 374.176L183.141 373.82L133.651 373.639L128.983 373.624L101.867 373.526L31.2082 373.272C31.2082 373.272 -56.4451 130.76 62.0457 40.9704C214.69 -74.6965 323.546 91.9445 382.017 85.6306C468.014 76.3436 636.311 6.0417 603.562 375.334" fill="#EBF3FA"/>
    <path d="M423.193 179.514C423.193 179.514 452.292 114.567 464.749 123.069C477.207 131.569 423.193 179.514 423.193 179.514Z" fill="#DFEBFD"/>
    <path d="M422.097 190.466C422.097 190.466 484.474 120.921 504.841 139.378C525.208 157.833 489.109 167.086 475.485 168.916C461.86 170.746 422.097 190.466 422.097 190.466" fill="#DFEBFD"/>
    <path d="M417.374 180.305C417.374 180.305 417.291 177.626 417.133 173.719C416.829 166.096 416.25 153.79 415.491 147.537C414.342 138.082 418.414 129.69 425.579 137.257C432.747 144.828 419.129 176.998 419.129 176.998L417.374 180.305Z" fill="#DFEBFD"/>
    <path d="M207.047 373.679L178.62 373.566C177.711 373.348 176.829 373.382 175.939 373.557L160.363 373.495C154.81 367.473 153.954 349.178 153.954 349.178C158.623 354.023 168.879 354.293 169.824 351.847C170.77 349.398 156.914 343.054 154.94 341.239C152.965 339.425 150.612 331.333 155.759 319.879C160.907 308.422 174.54 319.3 174.54 319.3C174.54 319.3 179.463 346.021 182.212 347.918C184.963 349.815 181.054 323.873 181.054 323.873C186.785 325.749 198.71 342.478 198.71 342.478C198.71 342.478 192.061 367.715 195.045 368.564C198.031 369.413 200.153 345.779 200.153 345.779C205.001 350.713 207.962 362.28 207.962 362.28C208.721 366.927 208.215 370.675 207.047 373.679" fill="#CDE0FB"/>
    <path d="M71.9528 87.4664C79.091 69.5423 100.298 84.3554 100.298 84.3554C100.298 84.3554 109.229 124.142 113.489 126.68C117.749 129.218 110.398 90.4854 110.398 90.4854C119.161 92.634 138.113 116.492 138.113 116.492C138.113 116.492 129.475 155.421 134.031 156.346C138.588 157.275 140.477 121.307 140.477 121.307C148.076 128.182 153.198 145.309 153.198 145.309C158.618 172.057 134.842 180.851 134.842 180.851C134.842 180.851 132.047 194.435 134.944 212.417H134.944C134.944 212.417 135.717 215.829 136.137 221.281L133.884 220.395C133.862 219.439 133.816 218.507 133.742 217.597C133.744 217.591 133.743 217.588 133.741 217.582C133.74 217.57 133.739 217.554 133.737 217.542C133.677 216.972 133.588 216.16 133.474 215.17C133.474 215.17 133.473 215.167 133.473 215.167C133.474 215.164 133.472 215.164 133.473 215.16C133.147 212.92 132.949 211.283 132.848 210.115C132.848 210.112 132.848 210.109 132.848 210.106C131.923 203.112 130.433 193.886 128.762 191.416C128.762 191.416 129.105 191.002 129.522 190.095C129.28 190.515 129.027 190.956 128.762 191.416C122.682 201.981 103.024 196.415 92.8711 188.97C82.718 181.525 88.217 178.935 95.3259 174.019C102.435 169.103 114.209 175.763 118.31 174.353C122.41 172.94 117.694 168.064 110.382 166.053C103.07 164.042 97.5618 173.106 85.6932 170.169C73.8245 167.233 70.8606 131.949 70.8606 131.949C78.1841 138.716 93.6972 137.904 94.9891 134.091C96.281 130.281 74.991 122.346 71.9069 119.836C68.8228 117.329 64.8149 105.391 71.9528 87.4664" fill="#DFEBFD"/>
    <path d="M236.039 178.377C244.328 161.685 264.298 179.441 264.298 179.441C264.298 179.441 270.415 220.11 274.458 223.246C278.501 226.378 273.873 186.978 273.873 186.978C282.397 190.386 299.518 216.76 299.518 216.76C299.518 216.76 288.31 254.015 292.755 255.6C297.2 257.182 301.528 221.87 301.528 221.87C308.578 229.781 312.474 247.478 312.474 247.478C316.009 274.735 291.883 279.961 291.883 279.961C291.883 279.961 288.19 292.996 289.826 311.211H289.828C289.828 311.211 290.358 314.699 290.402 320.155L288.232 318.951C288.276 318 288.295 317.072 288.285 316.161C288.285 316.155 288.285 316.152 288.282 316.146C288.282 316.131 288.282 316.119 288.282 316.106C288.262 315.533 288.23 314.718 288.184 313.722C288.184 313.719 288.184 313.719 288.184 313.716C288.184 313.716 288.182 313.712 288.184 313.712C288.014 311.447 287.93 309.798 287.911 308.628C287.909 308.625 287.909 308.622 287.911 308.618C287.473 301.563 286.63 292.215 285.146 289.53C285.146 289.53 285.513 289.168 285.988 288.331C285.718 288.714 285.439 289.113 285.146 289.53C278.406 299.096 259.337 290.716 249.801 281.867C240.262 273.018 245.882 271.259 253.25 267.434C260.62 263.606 271.816 271.915 275.97 271.118C280.124 270.321 275.789 264.807 268.693 261.752C261.596 258.693 255.525 266.858 243.982 262.217C232.441 257.577 231.918 222.234 231.918 222.234C238.702 229.998 254.108 231.46 255.647 227.877C257.186 224.294 236.662 213.334 233.783 210.404C230.901 207.47 227.752 195.072 236.039 178.377" fill="#DFEBFD"/>
    <path d="M291.289 352.718C291.289 352.718 288.282 368.125 288.861 374.111L277.479 374.065C277.242 370.688 277.8 367.016 279.723 363.255C279.723 363.255 285.542 354.416 291.289 352.718" fill="#DFEBFD"/>
    <path d="M334.462 374.286L291.306 374.121C293.015 367.767 293.493 350.538 293.493 350.538C293.493 350.538 308.867 342.162 314.594 343.756C314.594 343.756 304.04 365.143 307.056 364.996C310.073 364.855 321.763 343.345 321.763 343.345C321.763 343.345 337.116 341.282 338.718 354.685C340.157 366.719 336.817 372.797 334.462 374.286Z" fill="#DFEBFD"/>
    <path d="M425.095 374.639L384.246 374.479C386.894 372.824 390.35 371.267 394.061 369.413C403.357 364.769 416.024 371.172 425.095 374.639Z" fill="#DFEBFD"/>
    <path d="M445.852 374.887L408.876 374.743C409.647 372.349 404.929 367.451 398.1 364.377C389.406 360.466 381.862 370.369 367.718 364.417C353.577 358.461 353.294 315.003 353.294 315.003C361.553 324.694 380.478 326.828 382.405 322.454C384.334 318.083 359.215 304.165 355.705 300.499C352.195 296.833 348.448 281.521 358.804 261.181C369.163 240.839 393.533 263.097 393.533 263.097C393.533 263.097 400.641 313.228 405.577 317.17C410.513 321.108 405.225 272.574 405.225 272.574C415.672 276.945 436.45 309.74 436.45 309.74C436.45 309.74 422.294 355.295 427.743 357.337C433.193 359.378 438.869 316.066 438.869 316.066C447.456 325.945 452.065 347.78 452.065 347.78C453.579 360.273 450.417 368.935 445.852 374.887" fill="#DFEBFD"/>
    <path d="M97.0533 235.356C97.0537 235.242 95.9252 231.834 96.2841 231.574C96.6429 231.31 97.2858 231.35 97.3607 231.947C97.4355 232.545 97.0533 235.356 97.0533 235.356" fill="#FFB27D"/>
    <path d="M80.2133 192.979C80.2133 192.979 73.5982 181.36 70.0963 188.795C70.0963 188.795 67.4835 190.377 66.5387 196.878C65.5745 203.51 68.5917 208.552 70.1518 207.305C71.1524 206.508 71.9098 209.067 71.9098 209.067L80.2133 192.979" fill="#233862"/>
    <path d="M88.4177 254.806C93.6769 251.974 98.7421 238.822 98.7421 238.822L97.0835 237.124C95.702 240.079 89.4871 245.749 89.4871 245.749C89.3451 243.26 89.1392 241.001 88.8851 238.957C87.1596 225.054 83.2128 220.935 82.1533 220.061C81.9824 219.917 81.8859 219.862 81.8859 219.862C81.8859 219.862 81.8895 219.966 81.8977 220.159C81.913 220.576 81.9465 221.422 82.0017 222.575C82.4127 231.184 84.0233 257.175 88.4177 254.806" fill="#FFB27D"/>
    <path d="M70.8188 187.615C70.8188 187.615 69.9296 182.414 64.7041 184.042C64.7041 184.042 67.2057 183.579 67.8912 184.989C67.8912 184.989 65.9086 183.662 64.667 184.771C63.4257 185.884 63.2219 189.62 63.4072 190.757C63.5924 191.894 64.9635 195.281 65.8717 195.281C66.7794 195.281 67.8543 194.116 67.8543 194.116L70.8188 187.615" fill="#233862"/>
    <path d="M62.9998 269.003C65.598 260.486 66.8411 258.077 66.8845 255.398C66.9189 253.28 66.204 250.993 64.8153 245.387C64.4886 244.066 64.2628 242.706 64.1239 241.333C63.0256 230.525 67.3015 218.842 69.9593 218.045C70.6987 217.76 71.9522 213.855 71.9367 207.565L72.2697 207.66L77.8656 209.282C77.8656 209.282 77.7383 211.856 77.7346 214.281C77.7308 216.301 77.8145 218.216 78.1275 218.458C78.5303 218.511 78.7679 218.547 78.7679 218.547C78.7679 218.547 83.4341 228.018 83.8264 236.827C84.219 245.636 80.09 249.464 83.8577 267.069C87.7044 285.048 61.5647 273.708 62.9998 269.003" fill="#FFB27D"/>
    <path d="M77.8658 209.282C77.8658 209.282 77.7383 211.856 77.7345 214.281C74.6031 214.152 72.9478 209.974 72.2697 207.66L77.8658 209.282Z" fill="#E8945B"/>
    <path d="M71.6916 206.771C71.6916 206.771 70.0505 202.98 69.6567 199.74C69.3756 197.426 70.1818 188.851 76.078 190.083C76.078 190.083 77.7905 190.331 79.4001 191.922C80.6802 193.184 82.5278 195.912 80.4622 203.397L79.9254 205.926L71.6916 206.771Z" fill="#233862"/>
    <path d="M78.9115 211.577C78.9115 211.577 71.5024 211.755 71.4974 205.009C71.4921 198.263 70.5326 193.742 75.2628 193.344C79.9931 192.945 80.914 195.517 81.2904 197.77C81.6668 200.019 80.8386 211.357 78.9115 211.577Z" fill="#FFB27D"/>
    <path d="M78.6372 193.178C78.6372 193.178 76.6087 201.092 73.4955 202.263C70.3822 203.434 69.0319 202.214 69.0319 202.214C69.0319 202.214 71.4198 199.44 71.9153 194.6C71.9153 194.6 77.1071 189.411 78.6372 193.178Z" fill="#233862"/>
    <path d="M78.1344 193.822C78.1344 193.822 79.6494 195.587 80.0189 197.307C80.3881 199.023 80.5544 202.56 81.2594 202.441C81.2594 202.441 82.7878 197.062 81.07 194.018C79.2489 190.791 78.1344 193.822 78.1344 193.822" fill="#233862"/>
    <path d="M69.5603 350.728C71.4242 361.569 74.2303 369.878 74.2303 369.878L76.6735 369.63C76.6735 369.63 75.4754 361.3 75.5442 350.042C75.5926 342.171 76.2586 332.869 78.3861 323.989C85.6966 293.471 84.515 271.259 84.515 271.259L70.7673 273.61L70.1269 273.72C70.0696 282.949 69.9065 295.479 69.7639 305.278C69.6379 314.089 69.5272 320.688 69.5272 320.688C66.8841 329.01 67.844 340.755 69.5603 350.728" fill="#163560"/>
    <path d="M53.364 278.051L55.5884 279.026C55.5884 279.026 62.9255 261.23 63.5928 256.599C63.8104 255.091 64.3439 252.075 64.9666 248.695C66.255 241.697 67.9178 233.134 67.9178 233.134L68.4653 229.664L70.333 217.842C70.333 217.842 66.7565 218.376 64.6649 219.654C63.9721 220.077 63.4437 220.582 63.2592 221.174C61.7224 226.112 60.1883 238.577 59.1099 247.469C58.5089 252.425 58.0505 256.271 57.8113 257.087C57.144 259.361 55.1057 271.875 53.364 278.051" fill="#FFB27D"/>
    <path d="M61.6729 349C62.4634 361.33 65.944 369.305 65.944 369.305L67.1111 370.544C67.1111 370.544 68.2158 361.857 68.9975 351.519C69.7423 341.696 70.7635 331.302 71.918 328.127C76.5028 315.542 77.883 268.038 77.883 268.038L63.9442 267.026C62.5424 270.471 61.9312 276.12 61.7861 282.544C61.4194 298.758 64.0268 319.901 64.4166 322.956C64.4166 322.959 64.4166 322.963 64.4177 322.966C64.4483 323.202 64.4013 323.435 64.3261 323.649C61.5531 331.673 61.152 340.853 61.6729 349" fill="#1C468A"/>
    <path d="M78.4158 194.089C78.4158 194.089 76.9706 202.376 73.0424 205.031C73.0424 205.031 76.9706 199.94 77.3043 194.469C77.6377 188.998 78.4158 194.089 78.4158 194.089Z" fill="#233862"/>
    <path d="M61.2527 275.152C61.2284 275.838 61.2539 276.387 61.3393 276.779C61.6358 278.146 62.6544 278.765 65.1168 278.395C66.6217 278.165 67.2927 274.477 67.592 271.333C68.4959 275.832 69.7614 278.358 71.3974 278.888C73.7847 279.666 85.8264 281.806 86.6146 273.438C87.4817 264.234 84.8855 247.941 84.7429 239.153C85.0969 236.039 85.2179 233.336 85.1797 231.013C85.0791 224.754 83.8224 221.244 82.8562 219.835C82.5823 219.525 82.3087 219.335 81.2099 219.059C80.6484 218.918 79.8706 218.759 78.7679 218.547C78.7679 218.547 78.3181 218.471 78.3284 218.495C78.532 219.028 81.2596 225.063 81.047 226.617C80.8241 228.242 71.1518 226.78 70.4846 225.885C69.8174 224.993 68.762 218.149 68.762 218.149C68.762 218.149 65.337 218.694 63.6616 220.475C63.6616 220.475 63.6679 220.487 63.6794 220.506C63.4771 220.72 63.3255 220.944 63.2389 221.183C61.4513 226.161 59.6662 238.715 58.4108 247.668C61.4538 250.12 64.1122 249.39 64.9373 249.065C63.8589 259.379 61.4131 270.453 61.2527 275.152" fill="#F99746"/>
    <path d="M97.0834 237.124C97.0826 236.79 96.8916 231.951 97.4806 230.936C98.0696 229.918 99.2726 228.475 99.6509 228.518C100.029 228.564 101.509 231.436 101.064 233.639C100.619 235.84 98.7421 238.822 98.7421 238.822L97.0834 237.124" fill="#FFB27D"/>
    <path d="M94.3818 231.206L97.8115 232.708C97.9254 232.76 98.0453 232.665 98.0793 232.499L100.039 222.939C100.073 222.774 100.009 222.596 99.895 222.547L96.4655 221.045C96.3517 220.996 96.2317 221.091 96.1977 221.257L94.2376 230.813C94.2034 230.982 94.268 231.157 94.3818 231.206Z" fill="#F1A34F"/>
    <path d="M95.273 231.598L98.3837 232.959C98.5856 233.048 98.7983 232.879 98.8587 232.585L100.723 223.491C100.784 223.197 100.669 222.887 100.467 222.798L97.3565 221.435C97.1547 221.346 96.9421 221.514 96.8815 221.808L95.0172 230.902C94.9566 231.197 95.0711 231.509 95.273 231.598" fill="#D86713"/>
    <path d="M61.6729 349C62.4634 361.33 65.944 369.305 65.944 369.305L67.1323 370.887C67.1323 370.887 68.2157 361.858 68.9975 351.519C68.1738 351.608 64.5427 351.801 61.6729 349" fill="#FFB27D"/>
    <path d="M69.5603 350.728C71.4242 361.569 74.2303 369.878 74.2303 369.878L76.6735 369.63C76.6735 369.63 75.4754 361.3 75.5442 350.042C74.7153 350.652 73.0042 351.271 69.5603 350.728" fill="#D9935C"/>
    <path d="M72.8232 372.873H74.3831C74.9056 372.754 75.2912 372.53 75.8272 372.429C76.641 372.272 77.0157 372.76 77.0902 372.873C77.1002 372.888 77.1046 372.895 77.1046 372.895H83.7308C83.8975 372.548 83.7375 371.742 83.5806 371.147C83.4752 370.746 83.2449 370.439 82.9604 370.32C82.2577 370.023 80.8725 369.756 79.6039 368.079C78.8901 367.135 76.1575 364.613 76.1575 364.613L76.143 364.607C76.0828 364.61 75.7972 364.738 74.5542 366.271C73.9117 367.062 72.8165 365.152 72.8165 365.152C72.8165 365.152 72.6108 365.401 72.4575 365.866C72.334 366.231 72.2441 366.734 72.3151 367.353C72.4141 368.223 72.095 369.848 71.8404 370.942C71.6859 371.607 71.5559 372.079 71.5559 372.079C71.5559 372.079 71.4812 372.628 72.8232 372.873Z" fill="#233862"/>
    <path d="M72.4575 365.866C72.8299 366.25 73.6158 367.004 74.1373 367.105C74.8411 367.24 76.1575 364.613 76.1575 364.613L76.143 364.607C76.0828 364.61 75.7972 364.738 74.5542 366.271C73.9117 367.062 72.8165 365.152 72.8165 365.152C72.8165 365.152 72.6108 365.4 72.4575 365.866Z" fill="#466AA5"/>
    <path d="M72.8232 372.873H74.3831C74.9056 372.754 75.2912 372.53 75.8272 372.429C76.641 372.272 77.0157 372.76 77.0902 372.873C77.1002 372.888 77.1046 372.895 77.1046 372.895H83.7308C83.8975 372.548 83.7375 371.742 83.5806 371.148C83.3795 370.887 83.3227 372.285 83.2116 372.505C83.1005 372.729 77.8062 372.588 77.5005 372.263C77.1948 371.938 76.2776 371.368 74.9989 371.816C73.8861 372.205 72.2462 371.209 71.8404 370.942C71.6859 371.607 71.5559 372.079 71.5559 372.079C71.5559 372.079 71.4812 372.628 72.8232 372.873" fill="#466AA5"/>
    <path d="M64.4995 372.873H66.0594C66.5817 372.754 66.9677 372.53 67.5035 372.429C68.3173 372.272 68.692 372.76 68.7664 372.873C68.7765 372.888 68.7809 372.895 68.7809 372.895H75.407C75.5737 372.548 75.4135 371.742 75.2569 371.147C75.1512 370.746 74.9212 370.439 74.6364 370.32C73.934 370.023 72.5486 369.756 71.2802 368.079C70.5664 367.135 67.8335 364.613 67.8335 364.613L67.8193 364.607C67.7591 364.61 67.4735 364.738 66.2305 366.271C65.588 367.062 64.4928 365.152 64.4928 365.152C64.4928 365.152 64.2871 365.401 64.1336 365.866C64.0103 366.231 63.9201 366.734 63.9914 367.353C64.0904 368.223 63.7712 369.848 63.5167 370.942C63.3621 371.607 63.2321 372.079 63.2321 372.079C63.2321 372.079 63.1575 372.628 64.4995 372.873" fill="#233862"/>
    <path d="M64.1336 365.866C64.5062 366.25 65.2921 367.004 65.8136 367.105C66.5173 367.24 67.8335 364.613 67.8335 364.613L67.8193 364.607C67.7591 364.61 67.4735 364.738 66.2305 366.271C65.588 367.062 64.4928 365.152 64.4928 365.152C64.4928 365.152 64.2871 365.4 64.1336 365.866" fill="#466AA5"/>
    <path d="M64.4995 372.873H66.0594C66.5817 372.754 66.9677 372.53 67.5035 372.429C68.3173 372.272 68.692 372.76 68.7664 372.873C68.7765 372.888 68.7809 372.895 68.7809 372.895H75.407C75.5737 372.548 75.4135 371.742 75.2569 371.148C75.0556 370.887 74.999 372.285 74.8878 372.505C74.7765 372.729 69.4823 372.588 69.1766 372.263C68.8709 371.938 67.9537 371.368 66.6752 371.816C65.5622 372.205 63.9224 371.209 63.5167 370.942C63.3621 371.607 63.2321 372.079 63.2321 372.079C63.2321 372.079 63.1575 372.628 64.4995 372.873" fill="#466AA5"/>
    <path d="M82.4422 219.546C82.4422 219.546 87.0631 222.946 88.602 236.661C88.602 236.661 87.0887 239.696 84.957 240.591C84.6523 240.716 84.3353 240.802 84.0079 240.827C81.3906 241.029 82.4422 219.546 82.4422 219.546" fill="#F99746"/>
    <path d="M100.005 228.892C100.005 228.892 98.5766 225.679 98.2277 225.857C97.7295 226.112 99.5225 230.188 99.5225 230.188C99.5225 230.188 98.194 227.142 97.9864 227.371C97.5135 227.892 98.2663 229.808 99.0126 231.273C99.0126 231.273 97.6767 229.486 97.6333 229.808C97.4806 230.936 99.0998 233.67 99.0998 233.67L100.005 230.648V228.892" fill="#FFB27D"/>
    <path d="M101.076 231.871C101.007 231.478 100.658 223.81 100.509 224.536C100.36 225.266 100.005 229.287 100.005 229.287L101.076 231.871Z" fill="#FFB27D"/>
    <path d="M77.4641 207.572C77.4641 207.572 77.5922 208.368 78.9451 208.246C78.9451 208.246 80.0811 208.142 80.0463 207.268C80.0463 207.268 78.9449 206.646 77.4641 207.572" fill="white"/>
    <path d="M53.3641 278.051C53.3641 278.051 50.6805 280.656 50.2703 281.757C49.8602 282.854 48.9031 286.903 48.9031 286.903C48.9031 286.903 49.5867 287.053 50.2703 285.303C50.9539 283.556 53.2097 283.706 53.9617 282.756C54.7136 281.806 55.5884 279.026 55.5884 279.026L53.3641 278.051" fill="#FFB27D"/>
    <path d="M55.2965 279.884C55.2965 279.884 54.8503 282.955 54.3034 283.856C53.7566 284.754 53.0046 286.253 52.697 285.852C52.3894 285.453 53.0388 282.106 53.0388 282.106L55.2965 279.884" fill="#FFB27D"/>
    <path d="M50.6463 282.106C50.5779 282.256 48.2195 285.919 48.2195 285.919C48.2195 285.919 49.074 286.486 49.3133 285.919C49.5525 285.352 50.6463 282.106 50.6463 282.106Z" fill="#FFB27D"/>
    <path d="M244.818 101.421L266.687 106.384L252.271 91.6379L251.493 96.2661L246.154 97.5809L244.818 101.421" fill="#9EC3F6"/>
    <path d="M266.687 106.384L248.572 92.3153L230.717 90.6816L266.687 106.384Z" fill="white"/>
    <path d="M252.271 91.6379L266.687 106.384L255.624 83.5433L252.271 91.6379Z" fill="white"/>
    <path d="M564.982 193.184L547.075 196.917L558.958 185.081L559.561 188.875L563.917 190.027L564.982 193.184" fill="#9EC3F6"/>
    <path d="M547.075 196.917L561.977 185.687L576.58 184.615L547.075 196.917Z" fill="white"/>
    <path d="M558.958 185.081L547.075 196.917L556.274 178.417L558.958 185.081Z" fill="white"/>
    <path d="M116.502 164.183H225.322V205.962H147.943V250.426H216.133V292.205H147.943V373.078H116.502V164.183Z" fill="#699FF0"/>
    <path d="M304.869 288.006L286.385 222.063L267.903 288.006H304.869ZM272.671 168.321H300.893L360.515 373.121H328.517L315.798 327.514H256.972L244.252 373.121H213.051L272.671 168.321Z" fill="#699FF0"/>
    <path d="M451.409 325.948C451.409 325.948 465.294 315.506 471.084 296.027C473.6 287.562 474.858 278.309 474.858 267.56C474.858 232.698 457.37 203.651 432.726 203.651C408.083 203.651 390.991 232.119 390.991 267.56C390.991 302.418 408.479 331.468 433.124 331.468C439.88 331.468 446.043 329.436 451.409 325.948ZM474.063 355.289C462.338 366.329 448.228 372.72 432.726 372.72C389.798 372.72 358.993 325.948 358.993 267.56C358.993 209.751 390.197 162.4 433.124 162.4C476.051 162.4 506.856 209.168 506.856 267.56C506.856 288.766 502.484 309.1 494.533 325.948L508.844 343.67L489.366 375.334L474.063 355.289" fill="#699FF0"/>
    <path d="M434.407 264.513C434.407 264.513 432.061 269.589 430.723 280.255C429.553 289.594 428.526 293.045 426.833 294.961C425.141 296.876 415.714 302.531 415.714 302.531L416.418 304.947C416.418 304.947 430.237 302.194 431.788 298.82C433.34 295.442 439.257 275.498 438.798 270.904C438.339 266.312 434.407 264.513 434.407 264.513" fill="#F4A269"/>
    <path d="M396.039 371.151C395.898 373.118 393.994 373.054 391.841 372.588C389.689 372.125 390.245 372.95 387.219 372.876C384.193 372.799 383.183 371.291 383.049 370.651C382.931 370.087 384.397 369.679 385.967 369.195C386.164 369.137 386.364 369.072 386.561 369.008C388.333 368.435 389.538 366.565 391.077 364.956C392.535 363.43 394.493 357.759 394.493 357.759L398.63 357.674C398.63 357.674 396.781 362.752 396.081 364.947C395.667 366.237 395.797 367.853 395.938 369.094C396.013 369.768 396.089 370.458 396.039 371.151Z" fill="#FFB27D"/>
    <path d="M391.841 372.588C389.689 372.125 390.245 372.95 387.219 372.876C384.193 372.799 383.183 371.292 383.049 370.651C382.931 370.087 384.397 369.679 385.967 369.195L385.986 369.238C385.986 369.238 387.901 370.853 390.4 370.602C392.436 370.397 394.533 369.25 395.938 369.094C396.014 369.768 396.089 370.458 396.039 371.151C395.898 373.118 393.994 373.054 391.841 372.588" fill="#C65447"/>
    <path d="M440.868 305.792C440.868 305.792 413.747 305.986 408.683 310.657C403.621 315.328 392.096 363.433 392.096 363.433C392.096 363.433 392.994 365.159 394.107 365.382C395.896 365.744 396.911 364.723 396.911 364.723C396.911 364.723 412.354 342.269 413.176 336.139C413.998 330.006 413.797 324.535 415.67 324.388C417.54 324.241 440.872 328.535 444.401 319.447C447.93 310.359 445.013 301.364 445.013 301.364L440.868 305.792" fill="#EF7E29"/>
    <path d="M410.446 370.243C410.417 372.22 408.517 372.389 406.345 372.19C404.175 371.99 404.776 372.744 401.757 373.039C398.737 373.333 397.643 371.954 397.473 371.334C397.322 370.786 398.76 370.2 400.297 369.526C400.492 369.443 400.685 369.354 400.878 369.269C402.612 368.478 403.705 366.47 405.145 364.674C406.513 362.976 408.138 357.085 408.138 357.085L412.256 356.494C412.256 356.494 410.704 361.784 410.132 364.055C409.796 365.391 410.016 366.985 410.228 368.205C410.342 368.867 410.457 369.545 410.446 370.243" fill="#FFB27D"/>
    <path d="M406.345 372.19C404.175 371.99 404.776 372.744 401.757 373.039C398.737 373.333 397.643 371.954 397.473 371.334C397.322 370.786 398.76 370.2 400.297 369.526L400.318 369.566C400.318 369.566 402.319 370.942 404.795 370.384C406.812 369.931 408.838 368.533 410.228 368.205C410.341 368.867 410.457 369.544 410.446 370.243C410.417 372.22 408.517 372.389 406.345 372.19" fill="#C65447"/>
    <path d="M446.135 308.229C446.135 308.229 422.245 309.881 417.311 314.837C412.378 319.79 405.447 361.52 405.447 361.52C405.447 361.52 406.485 363.528 407.546 364.083C408.893 364.788 410.708 363.991 410.708 363.991C410.708 363.991 420.3 347.1 420.958 340.924C421.614 334.751 422.646 331.575 424.512 331.321C426.378 331.07 444.711 336.302 453.09 324.75C458.291 317.577 446.135 308.229 446.135 308.229Z" fill="#F99746"/>
    <path d="M437.957 261.721C437.494 260.532 436.938 258.392 436.538 254.524C436.59 254.907 437.274 259.769 438.691 262.42C444.223 266.993 452.965 284.16 452.91 287.397C452.91 287.397 458.28 277.006 458.339 276.945C458.339 276.945 464.38 264.032 456.236 257.764C452.097 254.58 451.908 249.991 451.891 245.994C451.876 241.995 449.842 224.972 442.082 230.234C442.082 230.234 440.765 229.526 440.199 229.707C440.199 229.707 440.671 229.793 440.927 230.13C440 230.139 438.683 230.366 437.622 231.39C434.812 234.099 433.193 256.118 437.957 261.721" fill="#B5453C"/>
    <path d="M447.14 258.668C447.14 258.668 444.915 258.362 442.69 258.668C441.178 258.88 439.681 259.566 438.83 260.087C436.724 261.371 436.944 266.821 441.363 265.813C445.781 264.804 447.45 260.286 447.14 258.668Z" fill="#FFB27D"/>
    <path d="M439.016 262.643C438.989 262.662 438.385 267.33 441.279 267.143C443.176 267.02 447.272 263.664 446.911 261.286C446.739 260.155 445.305 257.224 445.015 250.537L444.669 250.671L438.857 252.949C438.857 252.949 439.115 255.646 439.234 258.196C439.337 260.342 439.341 262.383 439.016 262.643" fill="#FFB27D"/>
    <path d="M438.857 252.949C438.857 252.949 439.115 255.646 439.234 258.196C442.524 257.739 444.068 253.176 444.67 250.671L438.857 252.949Z" fill="#F4A269"/>
    <path d="M445.235 249.672C445.235 249.672 446.781 245.516 447.039 242.065C447.223 239.601 445.963 230.657 439.817 232.561C439.817 232.561 438.026 232.996 436.41 234.835C435.122 236.297 433.309 239.356 435.842 247.021L436.527 249.63L445.235 249.672" fill="#B5453C"/>
    <path d="M437.867 255.474C437.867 255.474 445.674 254.901 445.355 247.8C445.036 240.698 445.829 235.843 440.832 235.907C435.833 235.972 434.988 238.776 434.699 241.182C434.412 243.591 435.827 255.438 437.867 255.474" fill="#FFB27D"/>
    <path d="M437.272 236.079C437.272 236.079 439.788 244.201 443.12 245.115C446.454 246.028 447.817 244.606 447.817 244.606C447.817 244.606 445.169 241.933 444.416 236.888C444.416 236.888 438.702 231.96 437.272 236.079Z" fill="#B5453C"/>
    <path d="M437.831 236.704C437.831 236.704 436.322 238.721 436.016 240.566C435.71 242.411 435.705 246.151 434.957 246.099C434.957 246.099 433.091 240.591 434.751 237.213C436.515 233.63 437.831 236.704 437.831 236.704" fill="#B5453C"/>
    <path d="M430.056 306.387C430.687 307.49 432.66 307.831 434.768 308.336C436.426 308.738 438.169 309.241 439.408 310.304C442.222 312.719 451.417 320.881 454.114 320.51C455.158 320.366 454.963 317.452 454.33 313.584C453.334 307.472 451.247 298.991 451.247 295.301C451.247 293.287 450.79 288.524 450.178 283.078C450.128 282.636 450.077 282.195 450.027 281.747C448.815 271.158 447.139 258.671 447.139 258.671C447.139 258.671 445.269 264.633 441.627 264.633C437.982 264.633 438.829 260.087 438.829 260.087C438.829 260.087 435.504 260.657 434.72 261.895C433.933 263.131 431.941 268.476 431.547 269.935C431.547 269.935 431.465 271.789 434.608 272.672C434.608 272.672 433.843 277.708 433.753 281.064C433.684 283.544 434.91 291.304 435.263 296.132C435.386 297.842 435.403 299.181 435.212 299.791C434.969 300.57 434.183 301.348 433.289 302.108C431.513 303.619 429.305 305.075 430.056 306.387" fill="#2B478B"/>
    <path d="M433.29 302.108C431.272 307.135 438.758 308.646 439.998 309.71C442.812 312.125 451.417 320.882 454.114 320.511C455.158 320.367 454.963 317.452 454.33 313.584C453.334 307.472 451.247 298.991 451.247 295.301C451.247 293.287 450.79 288.524 450.178 283.078L446.934 278.523C446.934 278.523 443.457 291.657 440.144 293.808C438.408 294.933 436.594 295.678 435.263 296.132C435.387 297.842 435.403 299.181 435.213 299.791C434.969 300.57 434.183 301.348 433.29 302.108" fill="#233862"/>
    <path d="M448.136 262.601C448.136 262.601 450.91 260.139 453.592 264.81C456.274 269.478 451.686 302.865 447.712 304.579C443.298 306.485 430.549 304.275 430.549 304.275L430.794 301.364C430.794 301.364 444.367 297.56 444.932 296.499C445.496 295.439 446.726 263.14 448.136 262.601" fill="#FFB27D"/>
    <path d="M447.139 258.668C447.139 258.668 452.834 259.422 454.489 262.159C456.143 264.896 456.628 272.317 456.628 272.317C456.628 272.317 451.61 278.238 445.567 275.939L447.139 258.668" fill="#2B478B"/>
    <path d="M431.901 301.189C431.901 301.189 427.481 299.938 426.982 300.251C426.485 300.564 423.705 304.211 423.99 304.94C424.275 305.67 425.416 306.191 426.697 305.566C427.98 304.94 430.761 304.628 431.26 303.69C431.759 302.752 431.901 301.189 431.901 301.189" fill="#FFB27D"/>
    <path d="M428.345 309.624H435.869V308.324H428.345V309.624Z" fill="#9E332E"/>
    <path d="M429.943 309.446C429.87 309.017 423.028 293.312 423.028 293.312H407.802L415.439 309.026L429.943 309.446" fill="#9E332E"/>
    <path d="M429.301 309.624C429.228 309.195 422.363 293.312 422.363 293.312H407.802L415.068 309.624H429.301" fill="#B5453C"/>
    <path d="M416.464 301.52C416.615 302.157 417.089 302.672 417.525 302.672C417.959 302.672 418.192 302.157 418.041 301.52C417.892 300.885 417.416 300.367 416.982 300.367C416.546 300.367 416.316 300.885 416.464 301.52" fill="#9E332E"/>
    <path d="M535.827 255.002C535.827 255.002 539.459 258.021 540.476 258.021C541.493 258.021 545.485 256.893 546.596 257.724C547.71 258.555 549.723 261.899 550.102 262.99C550.782 264.954 547.366 264.087 545.751 262.414C545.519 262.171 545.227 262.083 544.946 262.171C544.109 262.438 542.373 262.898 541.535 262.444C540.406 261.834 534.466 261.157 534.466 261.157L535.827 255.002" fill="#EA9963"/>
    <path d="M508.19 213.882C508.19 213.882 511.956 253.001 518.192 256.504C521.268 258.233 534.864 262.153 538.886 262.549C538.886 262.549 539.872 261.378 539.633 256.624C539.633 256.624 525.387 248.98 523.363 244.821C520.352 238.635 525.234 219.543 521.453 213.732C517.674 207.921 511.308 205.426 508.19 213.882Z" fill="#ED7D2B"/>
    <path d="M509.461 296.3C510.557 299.022 511.828 301.575 513.138 303.99C517.185 311.46 521.591 317.617 522.358 323.438C522.509 324.596 522.753 325.847 523.069 327.162C523.39 328.495 523.786 329.899 524.244 331.348C525.961 336.801 528.53 342.91 531.094 348.463C535.527 358.066 539.695 366.078 539.695 366.078L547.339 365.6C547.032 364.481 543.698 351.225 539.238 335.023C537.427 328.446 535.502 321.452 533.644 314.705C533.396 313.804 533.149 312.906 532.904 312.017C532.335 309.952 531.776 307.92 531.23 305.943C527.043 290.731 523.707 278.618 523.707 278.618C523.707 278.618 506.967 269.35 505.229 275.354C503.797 280.307 504.965 285.156 509.461 296.3" fill="#233862"/>
    <path d="M539.932 364.046C539.932 364.046 540.325 373.265 541.545 373.397C541.706 373.416 547.735 373.416 547.735 373.416L555.428 373.351C555.428 373.351 555.378 370.639 553.13 370.066C550.88 369.495 547.116 367.184 545.753 362.838C544.319 358.268 539.932 364.046 539.932 364.046" fill="#163560"/>
    <path d="M512.772 335.048C512.772 335.048 507.058 338.999 507.427 340.706C507.477 340.933 509.712 349.113 509.712 349.113L512.61 359.531C512.61 359.531 514.313 358.458 513.843 355.194C513.371 351.927 513.443 345.959 515.697 342.499C518.068 338.858 512.772 335.048 512.772 335.048Z" fill="#163560"/>
    <path d="M514.808 344.249C514.808 344.249 511.6 339.504 511.015 336.363C511.015 336.363 522.05 320.685 525.995 316.879C530.524 312.511 533.464 312.486 532.738 311.414C530.356 307.907 510.354 297.679 507.098 290.274C505.976 287.721 505.34 285.3 504.994 283.185C504.256 278.664 504.839 275.544 504.839 275.544L529.721 274.493C529.721 274.493 548.219 302.54 548.115 313.096C547.999 324.507 514.808 344.249 514.808 344.249Z" fill="#2B478B"/>
    <path d="M522.912 211.418C517.878 213.318 509.534 206.502 509.534 206.502C509.534 206.502 512.774 203.32 513.975 196.326C514.036 195.977 514.091 195.615 514.139 195.244C514.667 195.079 515.661 194.772 516.724 194.441L520.57 199.477C520.57 199.477 520.482 201.567 520 205.159C519.918 205.788 519.821 206.459 519.71 207.176C521.774 209.046 522.912 211.418 522.912 211.418" fill="#FFB27D"/>
    <path d="M504.204 241.915C504.925 256.087 503.977 277.644 504.795 281.377C505.502 284.598 513.543 282.682 516.754 281.607C517.943 281.208 519.381 280.641 520.868 279.97C525.013 278.091 529.532 275.412 530.017 273.423C530.035 273.346 530.052 273.27 530.061 273.193C530.107 272.905 530.096 272.635 530.052 272.36C529.891 271.348 529.268 270.251 529.195 267.741C529.113 264.936 529.125 261.635 529.054 258.086C529.05 257.684 529.046 257.249 529.016 256.851L529.014 256.707C529.014 256.63 529.012 256.556 529.01 256.48C528.941 252.52 528.8 248.357 528.635 244.232C528.532 241.639 528.41 239.071 528.272 236.612C527.909 230.262 527.423 224.616 526.777 221.048C525.724 215.228 523.399 211.433 521.285 208.65L519.754 206.735C518.048 207.277 516.028 206.916 514.202 205.653C512.227 204.28 511.543 203.299 511.199 203.67C506.636 208.816 503.355 224.585 504.204 241.915" fill="#F99746"/>
    <path d="M520.868 279.97C525.013 278.091 529.532 275.412 530.017 273.423C530.035 273.346 530.052 273.27 530.061 273.193C530.058 272.917 530.056 272.638 530.052 272.359C529.891 271.348 529.268 270.251 529.195 267.741C529.113 264.936 529.125 261.635 529.054 258.086C529.05 257.684 529.046 257.249 529.016 256.851L529.014 256.707C529.014 256.63 529.012 256.556 529.01 256.48L512.25 225.266C512.25 225.266 500.983 259.56 520.868 279.97Z" fill="#ED7D2B"/>
    <path d="M520.57 199.477C520.57 199.477 520.482 201.567 520 205.159C516.246 203.388 514.544 198.429 513.975 196.326C514.036 195.977 514.091 195.615 514.139 195.244C514.667 195.079 515.661 194.772 516.724 194.441L520.57 199.477" fill="#EA9963"/>
    <path d="M521.073 202.646C521.073 202.646 512.887 200.648 513.816 193.215C514.745 185.782 514.315 180.517 519.582 181.479C524.848 182.439 525.506 185.546 525.609 188.136C525.711 190.729 523.229 202.974 521.073 202.646" fill="#FFB27D"/>
    <path d="M553.3 266.248L554.024 266.591L560.165 238.957L559.444 238.614L553.3 266.248Z" fill="#4A75CB"/>
    <path d="M533.195 264.115L554.049 264.767L554.024 266.591L533.168 265.938L533.195 264.115Z" fill="#4A75CB"/>
    <path d="M533.585 267.394C533.585 267.394 540.287 269.978 542.799 269.705C545.313 269.436 547.402 267.688 547.718 266.775C548.035 265.865 548.7 264.246 546.989 264.547C545.278 264.844 542.942 265.374 542.87 264.896C542.797 264.415 544.265 264.461 544.265 264.461C544.265 264.461 544.707 263.517 544.149 263.483C543.592 263.45 541.962 262.803 541.356 263.247C540.752 263.689 540.193 265.319 539.752 265.252C539.31 265.184 534.143 261.853 534.143 261.853L533.585 267.394Z" fill="#FFB27D"/>
    <path d="M509.853 215.488C509.853 215.488 510.645 254.975 516.578 259.462C519.505 261.678 532.723 267.762 536.691 268.801C536.691 268.801 537.758 267.799 537.878 263.036C537.878 263.036 524.296 253.142 522.598 248.682C520.071 242.047 526.364 223.862 523.046 217.478C519.727 211.093 513.589 207.584 509.853 215.488Z" fill="#F99746"/>
    <path d="M513.975 196.326C513.975 196.326 513.881 193.776 514.957 192.317C514.957 192.317 514.583 189.758 515.275 189.338C515.967 188.915 516.112 191.067 516.429 190.729C516.745 190.392 518.159 188.789 518.765 186.429C519.371 184.069 524.913 186.929 525.558 187.352C526.204 187.778 528.28 186.218 528.683 184.955C528.683 184.955 527.53 183.606 527.012 182.592C526.492 181.58 522.858 174.754 517.783 176.692C512.709 178.632 512.017 182.172 512.304 185.206C512.593 188.241 511.897 195.309 513.975 196.326" fill="#2B478B"/>
    <path d="M357.314 223.344C356.756 225.532 355.791 228.073 354.778 228.705C353.629 229.419 353.151 230.43 353.151 230.43L352.222 229.646L351.115 228.705C351.115 228.705 351.142 228.524 351.195 228.23C351.249 227.938 351.333 227.534 351.444 227.083C351.444 227.083 351.784 226.446 351.577 225.643C351.369 224.843 351.409 223.605 351.765 222.847C352.12 222.093 352.464 220.236 352.677 220.291C353.195 220.42 352.422 222.976 352.644 223.451C352.845 223.877 353.095 223.73 353.141 223.7C353.145 223.696 353.147 223.693 353.151 223.69C354.604 222.759 356.366 217.723 357.146 218.403C357.437 218.658 357.551 222.412 357.314 223.344" fill="#FFB27D"/>
    <path d="M352.285 226.391L354.105 228.26C354.235 228.392 354.414 228.346 354.504 228.159L359.167 218.461C359.257 218.274 359.226 218.011 359.098 217.879L357.278 216.009C357.148 215.878 356.97 215.924 356.879 216.111L352.216 225.808C352.126 225.998 352.157 226.259 352.285 226.391Z" fill="#2B478B"/>
    <path d="M353.952 228.104L355.02 229.198C355.118 229.299 355.254 229.266 355.322 229.122L360.065 219.261C360.132 219.117 360.109 218.918 360.01 218.817L358.943 217.723C358.846 217.622 358.71 217.655 358.641 217.799L353.9 227.66C353.831 227.804 353.854 228.003 353.952 228.104" fill="#233862"/>
    <path d="M326.173 212.476C326.173 212.476 335.435 236.088 338.796 240.434L351.115 227.007C351.115 227.007 352.904 227.807 353.686 230.43C353.686 230.43 346.204 252.713 338.838 253.657C331.472 254.601 321.132 226.952 321.132 226.952L326.173 212.476" fill="#233862"/>
    <path d="M305.215 373.078H299.861C299.188 372.545 298.589 371.322 298.398 369.495C298.138 366.976 296.204 365.603 295.787 363.54C295.37 361.48 297.511 358.578 297.511 358.578L297.869 357.904L298.243 357.202L301.793 358.425C301.793 358.425 301.881 359.663 301.935 361.238C301.973 362.372 301.994 363.687 301.95 364.84C301.845 367.586 302.476 370.547 304.147 371.083C305.382 371.475 305.328 372.548 305.215 373.078Z" fill="#233862"/>
    <path d="M336.271 373.078H324.032C323.445 372.03 323.661 368.156 323.751 366.89C323.768 366.636 323.78 366.486 323.78 366.486C323.78 366.486 327.959 361.6 328.534 365.342C328.553 365.459 328.574 365.575 328.597 365.689C329.32 369.186 332.564 370.777 334.437 371.221C335.655 371.509 336.104 372.435 336.271 373.078Z" fill="#233862"/>
    <path d="M333.94 273.227C333.94 273.227 333.304 284.8 332.56 298.709C331.545 317.608 330.327 340.819 330.205 345.218C329.998 352.852 329.161 365.066 329.161 365.066C329.161 365.066 327.177 367.969 323.206 366.746C323.206 366.746 319.669 349.309 318.658 330.861C318.643 330.561 318.626 330.254 318.612 329.951C317.67 311.168 316.209 271.624 316.209 271.624L333.94 273.227" fill="#F99746"/>
    <path d="M333.94 273.227C333.94 273.227 333.304 284.8 332.56 298.709L318.658 330.861C318.643 330.561 318.626 330.254 318.612 329.951C317.67 311.169 316.209 271.624 316.209 271.624L333.94 273.227Z" fill="#ED7D2B"/>
    <path d="M331.042 274.6C331.042 274.6 319.603 316.514 312.082 336.209C304.562 355.905 302.212 361.404 302.212 361.404C302.212 361.404 297.903 358.884 297.511 357.165C297.511 357.165 300.386 319.14 305.422 309.872C308.27 304.634 311.612 288.917 311.769 283.418C311.927 277.922 312.786 267.042 312.786 267.042L331.042 274.6" fill="#F99746"/>
    <path d="M328.194 213.502C323.724 215.562 315.99 209.999 315.99 209.999C315.99 209.999 320.111 205.478 319.895 196.078L323.353 200.148L325.699 202.916C325.699 202.916 325.691 204.543 325.433 207.403C325.366 208.154 325.282 208.991 325.175 209.907C327.094 211.446 328.194 213.502 328.194 213.502" fill="#FFB27D"/>
    <path d="M325.699 202.916C325.699 202.916 325.691 204.543 325.433 207.403C322.833 206.75 319.88 200.605 319.88 200.605C321.205 200.044 322.365 199.946 323.353 200.148L325.699 202.916Z" fill="#ED975D"/>
    <path d="M327.066 202.759C327.066 202.759 319.683 204.553 318.991 197.816C318.297 191.079 316.877 186.772 321.562 185.341C326.246 183.913 327.429 186.282 328.035 188.449C328.641 190.613 328.968 202.119 327.066 202.759Z" fill="#FFB27D"/>
    <path d="M334.433 274.189C334.298 274.355 334.141 274.453 333.963 274.453C332.285 274.419 327.389 275.783 323.248 275.161C319.757 274.671 316.666 273.159 313.348 270.983C312.908 270.695 311.893 269.904 311.916 269.184C311.931 268.396 311.983 267.253 312.05 265.813C312.285 260.804 312.696 252.192 312.296 242.258C312.224 240.407 312.187 238.574 312.183 236.766C312.149 223.301 313.975 211.458 317.645 207.449C317.959 207.121 319.884 208.494 321.652 209.769C323.286 210.949 324.921 211.078 326.464 210.621L328.008 212.617C329.889 215.17 331.948 218.636 332.843 223.905C333.604 228.386 334.051 236.468 334.298 244.842C334.41 248.639 334.5 252.468 334.523 256.1V256.228C334.544 256.587 334.544 256.982 334.544 257.341C334.634 266.665 334.544 274.058 334.433 274.189" fill="#2B478B"/>
    <path d="M312.05 265.813C312.285 260.804 312.696 252.192 312.296 242.258C312.224 240.407 312.187 238.574 312.183 236.766C313.711 231.344 314.961 227.411 314.961 227.411H318.815C318.815 227.411 321.642 255.625 312.05 265.813" fill="#233862"/>
    <path d="M292.308 297.784L308.746 301.207C310.887 301.655 312.885 299.46 313.191 296.334L314.206 285.922C314.51 282.793 313.009 279.872 310.87 279.424L294.433 276.001C292.294 275.556 290.293 277.751 289.989 280.877L288.974 291.289C288.668 294.415 290.17 297.339 292.308 297.784Z" fill="#233862"/>
    <path d="M298.96 274.625C298.989 274.309 299.159 274.073 299.362 274.024C299.411 274.012 299.459 274.012 299.509 274.021L300.239 274.171L302.944 274.738L304.418 275.044C304.684 275.1 304.869 275.461 304.831 275.847L304.611 278.094L298.74 276.868L298.96 274.625ZM311.799 282.529C311.338 280.837 310.34 279.504 309.075 279.05C309.073 279.05 309.073 279.05 309.071 279.05C308.947 279.007 308.821 278.968 308.691 278.943L305.418 278.263L305.638 276.016C305.687 275.513 305.598 275.014 305.391 274.606C305.181 274.199 304.875 273.935 304.533 273.864L303.68 273.687L300.243 272.969L299.622 272.841C298.914 272.694 298.253 273.417 298.152 274.456L297.932 276.703L292.283 275.526C290.136 275.078 288.129 277.279 287.823 280.417L286.796 290.952C286.49 294.09 287.997 297.023 290.144 297.471L306.553 300.888C306.842 300.95 307.127 300.962 307.408 300.928C307.41 300.928 307.41 300.928 307.41 300.928C307.859 300.879 308.291 300.717 308.691 300.456C309.897 299.678 310.813 298.035 311.013 295.994L312.04 285.462C312.139 284.436 312.046 283.433 311.799 282.529" fill="#2B478B"/>
    <path d="M304.808 266.781C304.808 266.781 303.946 268.461 303.91 269.135C303.68 273.687 305.101 274.315 301.417 276.844C301.417 276.844 299.845 277.72 299.819 275.936C299.792 274.153 300.91 274.122 300.706 271.624C300.469 268.743 300.495 268.715 301.788 267.21L302.644 265.138L304.808 266.781Z" fill="#FFB27D"/>
    <path d="M302.615 268.068C304.001 268.464 305.506 268.304 305.506 268.304C305.506 268.304 309.626 249.7 310.157 248.002C310.687 246.301 322.394 226.185 322.394 226.185L317.517 208.344C317.517 208.344 304.854 239.264 303.569 243.607C301.442 250.788 300.706 266.885 300.706 266.885C300.706 266.885 301.524 267.759 302.615 268.068Z" fill="#2B478B"/>
    <path d="M318.985 197.166C318.985 197.166 319.742 196.982 319.62 195.456C319.497 193.929 319.499 191.937 320.348 192.308C321.197 192.679 321.239 193.672 321.587 193.092C321.935 192.513 321.941 190.07 324.466 189.899C326.991 189.73 328.016 191.014 329.19 190.26C330.365 189.506 330.428 186.907 330.428 186.907C330.428 186.907 330.092 187.836 329.589 188.13C329.589 188.13 331.547 184.216 329.278 181.531C327.012 178.846 324.699 180.603 323.388 180.719C320.497 180.973 318.628 181.228 317.685 184.005C316.739 186.782 317.129 194.493 318.985 197.166" fill="#2B478B"/>
    <path d="M303.447 268.783C303.447 268.783 304.277 270.048 304.33 270.576C304.5 272.267 304.886 273 304.693 273.184C304.29 273.564 303.757 272.313 303.501 271.189C303.248 270.067 303.447 268.783 303.447 268.783Z" fill="#FFB27D"/>
    <path d="M614.85 375.334H19.0921C18.709 375.334 18.3955 374.875 18.3955 374.314V373.897C18.3955 373.339 18.709 372.879 19.0921 372.879H614.85C615.233 372.879 615.546 373.339 615.546 373.897V374.314C615.546 374.875 615.233 375.334 614.85 375.334Z" fill="#2E3552"/>
    <path d="M164.259 154.167C166.718 160.836 169.97 164.183 169.97 164.183H183.506C183.506 164.183 162.383 149.079 164.259 154.167Z" fill="#233862"/>
    <path d="M173.686 205.392C174.027 205.996 174.06 206.655 173.872 207.354C173.872 207.357 173.871 207.36 173.869 207.363C173.522 208.65 172.431 210.06 171.168 211.464C171.006 211.645 170.862 211.807 170.737 211.961C170.704 212.001 170.671 212.04 170.64 212.08C170.615 212.111 170.59 212.145 170.566 212.172C169.384 213.68 169.811 214.054 167.681 217.122C165.252 220.622 163.625 220.622 163.169 220.276C162.783 219.982 163.613 218.109 164.534 216C164.579 215.899 164.623 215.798 164.668 215.694C164.791 215.415 164.913 215.13 165.035 214.848C166.115 212.313 165.872 211.093 165.699 207.25C165.559 204.123 162.707 189.706 162.707 189.706L167.254 188.746C167.254 188.746 168.405 200.185 169.874 201.996C170.66 202.962 171.558 203.011 172.317 203.734C172.371 203.783 172.423 203.835 172.475 203.887C172.906 204.332 173.344 204.785 173.686 205.392Z" fill="#FFB27D"/>
    <path d="M173.686 205.392C174.027 205.996 174.06 206.655 173.872 207.354C173.872 207.357 173.871 207.36 173.869 207.363C173.45 208.647 172.386 210.051 171.164 211.449C171.004 211.633 170.863 211.801 170.737 211.961C170.704 212.001 170.671 212.04 170.64 212.08C170.615 212.111 170.59 212.145 170.566 212.172C169.384 213.68 169.811 214.054 167.681 217.122C165.252 220.622 163.625 220.622 163.169 220.276C162.783 219.982 163.613 218.109 164.534 216C164.999 215.774 167.158 214.59 168.828 211.636C170.3 209.04 171.312 205.668 172.317 203.734C172.371 203.783 172.423 203.835 172.475 203.887C172.906 204.332 173.344 204.785 173.686 205.392Z" fill="#233862"/>
    <path d="M137.269 199.808C136.951 201.837 134.966 201.417 132.756 200.534C130.546 199.652 131.057 200.617 127.901 199.98C124.744 199.339 123.817 197.577 123.733 196.884C123.658 196.271 125.226 196.118 126.91 195.9C127.122 195.875 127.334 195.845 127.547 195.814C129.448 195.544 130.869 193.813 132.618 192.412C134.274 191.088 136.812 185.519 136.812 185.519L141.145 186.196C141.145 186.196 138.772 191.165 137.85 193.328C137.307 194.6 137.303 196.314 137.343 197.638C137.363 198.355 137.381 199.091 137.269 199.808" fill="#FFB27D"/>
    <path d="M132.756 200.534C130.546 199.652 131.057 200.617 127.901 199.98C124.744 199.339 123.817 197.577 123.733 196.884C123.658 196.271 125.226 196.118 126.91 195.9L126.925 195.949C126.925 195.949 128.787 197.993 131.421 198.19C133.568 198.352 135.86 197.543 137.343 197.638C137.363 198.355 137.381 199.091 137.269 199.808C136.951 201.837 134.966 201.417 132.756 200.534" fill="#233862"/>
    <path d="M154.667 159.883L158.429 176.011L163.34 197.071C163.34 197.071 164.774 197.331 166.162 196.807C167.44 196.32 168.921 194.978 168.921 194.978C168.921 194.978 167.867 172.536 165.361 159.574C164.719 156.248 163.981 153.548 163.139 152.012C159.02 144.491 154.667 159.883 154.667 159.883" fill="#233862"/>
    <path d="M159.267 134.689C161.949 133.543 169.505 135.455 177.084 137.938L178.751 134.156L195.244 132.933C195.244 132.933 200.346 150.753 197.165 161.851C196.697 163.481 195.871 164.205 194.389 164.183C194.389 164.183 194.269 164.183 194.095 164.183C194.095 164.183 184.296 164.309 181.117 164.183C172.932 163.855 163.943 155.031 162.767 154.639C160.843 153.995 159.964 159.623 157.918 165.483C155.873 171.346 139.242 191.057 139.242 191.057C139.242 191.057 136.744 190.996 135.723 190.389C134.624 189.736 134.233 188.93 134.233 188.93C134.233 188.93 153.216 137.279 159.267 134.689" fill="#2B478B"/>
    <path d="M179.465 101.029C185.238 105.979 196.945 116.231 197.008 116.17C197.008 116.17 201.333 118.751 203.856 116.443C208.064 112.596 210.48 101.89 203.097 92.2999C199.415 87.5154 196.758 86.2803 196.49 78.866C196.343 74.8447 192.837 61.4476 186.578 62.4253C186.053 62.505 185.527 62.5602 185.003 62.5142C184.275 62.4499 183.07 62.5571 181.816 63.5809C178.229 66.5141 170.713 98.8529 179.465 101.029" fill="#233862"/>
    <path d="M184.451 97.2101C184.426 97.2346 187.307 98.8008 189.276 97.6177C191.128 96.5113 192.598 92.1651 192.571 92.159C191.738 92.0701 190.845 90.9697 190.27 83.9632L189.914 84.1348L183.894 87.0312C183.894 87.0312 184.273 89.8449 184.504 92.5176C184.697 94.7612 184.783 96.9066 184.451 97.2101Z" fill="#FFB27D"/>
    <path d="M183.894 87.0312C183.894 87.0312 184.273 89.8449 184.504 92.5175C187.943 91.7513 189.381 86.8197 189.914 84.1348L183.894 87.0312Z" fill="#ED975D"/>
    <path d="M182.954 89.7713C182.954 89.7713 191.138 88.4962 190.518 81.0575C189.895 73.6187 190.534 68.445 185.282 68.9446C180.029 69.4442 179.253 72.4632 179.047 75.0194C178.842 77.5757 180.809 89.9092 182.954 89.7713Z" fill="#FFB27D"/>
    <path d="M179.421 70.9706C179.421 70.9706 184.519 77.7565 188.06 78.4278C191.6 79.099 192.975 77.4868 192.975 77.4868C192.975 77.4868 190.931 74.8632 189.746 70.7131C189.398 69.4902 188.628 68.6289 187.729 68.4787C185.2 68.0588 180.396 67.7217 179.421 70.9706" fill="#233862"/>
    <path d="M182.694 70.5109C182.694 70.5109 180.901 72.9107 180.318 74.7191C179.754 76.4661 179.515 80.6836 179.907 82.3785C179.907 82.3785 177.331 74.5383 178.941 70.8419C180.65 66.9217 182.694 70.5109 182.694 70.5109Z" fill="#233862"/>
    <path d="M177.257 114.497C177.054 138.637 176.969 133.586 178.732 135.949C179.157 136.516 180.375 136.893 181.981 137.113C187.035 137.806 195.955 136.942 196.32 135.587C197.576 130.904 196.779 129.399 197.886 122.196C198.004 121.43 198.144 120.599 198.308 119.698C199.213 114.754 200.035 113.093 197.303 104.986C194.825 97.6422 192.22 91.6594 191.971 91.8616C184.965 97.5687 184.504 92.5176 184.504 92.5176C184.504 92.5176 177.356 102.721 177.257 114.497" fill="white"/>
    <path d="M158.429 176.011L163.34 197.071C163.34 197.071 164.774 197.331 166.162 196.807C167.44 196.32 168.921 194.977 168.921 194.977C168.921 194.977 167.867 172.536 165.361 159.574L158.429 176.011Z" fill="#2B478B"/>
    <path d="M184.504 92.5176C184.504 92.5176 177.377 93.9918 176.46 98.4238C175.544 102.856 170.153 128.905 170.153 128.905C170.153 128.905 173.742 129.996 175.453 127.627C177.164 125.258 181.671 105.265 181.671 105.265L184.504 92.5176" fill="white"/>
    <path d="M181.981 137.113C187.035 137.806 195.955 136.942 196.32 135.587C197.576 130.904 196.779 129.399 197.886 122.196L195.632 112.048C195.632 112.048 195.827 123.256 193.516 126.11C191.205 128.963 184.166 131.422 183.021 133.84C182.47 134.998 182.101 136.166 181.981 137.113Z" fill="#EBF3FF"/>
    <path d="M187.869 132.638C187.869 132.638 182.906 130.815 182.088 131.431C181.27 132.044 179.255 134.327 178.994 135.136C178.732 135.949 180.801 134.585 181.468 134.352C181.902 134.198 183.021 134.821 183.577 135.115C185.913 136.356 187.368 135.823 187.368 135.823L187.869 132.638Z" fill="#FFB27D"/>
    <path d="M191.975 91.8555C191.975 91.8555 198.67 92.726 200.903 97.5503C204.047 104.342 210 132.991 206.215 136.629C201.95 140.727 187.152 136.988 187.152 136.988C187.152 136.988 186.72 133.589 187.439 131.983C188.159 130.376 199.385 128.182 199.916 127.449C200.446 126.714 193.741 112.486 193.782 110.224C193.824 107.962 191.975 91.8555 191.975 91.8555" fill="white"/>
    <path d="M181.807 133.451C181.807 133.451 180.725 135.382 180.377 135.605C180.029 135.826 179.809 135.759 179.809 135.759L180.549 133.932L181.807 133.451" fill="#FFB27D"/>
    <path d="M182.088 131.431L179.005 133.469C179.005 133.469 179.128 133.782 179.503 133.772C179.878 133.763 180.832 133.294 180.832 133.294L182.088 131.431" fill="#FFB27D"/>
    <path d="M180.321 138.627L156.256 137.668L149.507 111.067L173.535 112.023L180.321 138.627" fill="#F99746"/>
    <path d="M155.993 136.632L187.771 137.898L187.752 138.922L156.256 137.668L155.993 136.632" fill="#ED7D2B"/>
    <path d="M162.576 124.752C162.412 123.82 162.792 123.085 163.425 123.112C164.057 123.137 164.704 123.912 164.868 124.844C165.032 125.779 164.652 126.511 164.019 126.487C163.386 126.462 162.74 125.687 162.576 124.752Z" fill="white"/>
    </svg>
