<svg width="309" height="373" viewBox="0 0 309 373" fill="none" xmlns="http://www.w3.org/2000/svg">
<path d="M272.977 196.184H246.704V215.237H268.965L272.977 219.249V196.184Z" fill="#FFC755"/>
<path d="M37.9095 148.575H69.3899L75.062 154.249V121.633H37.9095V148.575Z" fill="#735BE3"/>
<path d="M118.002 365.304V295.203H174.358V365.304H118.002ZM116.987 265.339C116.987 230.356 119.692 215.45 125.111 202.244C130.521 189.037 141.69 177.527 158.618 167.701C163.697 164.653 169.956 161.185 177.404 157.288C184.845 153.399 192.128 148.739 199.236 143.319C206.345 137.905 212.351 131.556 217.259 124.269C222.161 116.992 224.624 108.61 224.624 99.1249C224.624 92.0129 223.265 85.7501 220.559 80.3293C217.845 74.9181 214.292 70.3442 209.897 66.6148C205.493 62.8925 200.331 60.0984 194.414 58.2324C188.486 56.3761 182.48 55.4383 176.39 55.4383C168.94 55.4383 162.171 56.7086 156.081 59.2491C149.987 61.7897 144.483 65.012 139.581 68.9017C134.67 72.7986 130.266 77.2027 126.381 82.1091C122.485 87.0203 119.184 91.6804 116.479 96.0773L72.3085 65.5981C76.7036 55.1058 82.5422 45.7881 89.8248 37.6594C97.0991 29.533 105.389 22.6746 114.703 17.0864C124.008 11.5005 134.074 7.26871 144.911 4.38849C155.739 1.51544 166.91 0.0705394 178.42 0.0705394C191.279 0.0705394 203.973 1.93646 216.499 5.65874C229.016 9.3882 240.272 15.3089 250.26 23.4377C260.242 31.564 268.364 41.9773 274.631 54.6776C280.89 67.3779 284.023 82.5373 284.023 100.142C284.023 110.983 282.755 120.547 280.216 128.841C277.677 137.144 274.035 144.675 269.301 151.446C264.558 158.224 258.97 164.32 252.545 169.733C246.111 175.154 238.838 180.401 230.713 185.48C223.94 189.545 217.171 193.441 210.404 197.163C203.631 200.894 197.457 205.038 191.874 209.609C186.289 214.182 181.72 219.436 178.167 225.357C174.611 231.284 172.835 238.484 172.835 265.339H116.987" fill="url(#paint0_linear)"/>
<path d="M89.6872 181.957H5.94214C5.70421 181.957 5.51118 181.764 5.51118 181.526V177.409C5.51118 177.17 5.70421 176.978 5.94214 176.978H89.6872C89.9252 176.978 90.1182 177.17 90.1182 177.409V181.526C90.1182 181.764 89.9252 181.957 89.6872 181.957Z" fill="#E3E3E3"/>
<path d="M63.9097 224.342H5.94214C5.70421 224.342 5.51118 224.149 5.51118 223.911V219.794C5.51118 219.556 5.70421 219.361 5.94214 219.361H63.9097C64.1476 219.361 64.3406 219.556 64.3406 219.794V223.911C64.3406 224.149 64.1476 224.342 63.9097 224.342Z" fill="#E3E3E3"/>
<path d="M54.0834 192.553H5.94214C5.70421 192.553 5.51118 192.361 5.51118 192.122V188.005C5.51118 187.767 5.70421 187.575 5.94214 187.575H54.0834C54.3215 187.575 54.5146 187.767 54.5146 188.005V192.122C54.5146 192.361 54.3215 192.553 54.0834 192.553Z" fill="#E3E3E3"/>
<path d="M71.8216 203.149H5.94214C5.70421 203.149 5.51118 202.957 5.51118 202.719V198.601C5.51118 198.363 5.70421 198.171 5.94214 198.171H71.8216C72.0595 198.171 72.2526 198.363 72.2526 198.601V202.719C72.2526 202.957 72.0595 203.149 71.8216 203.149Z" fill="#E3E3E3"/>
<path d="M33.5378 213.746H5.94214C5.70421 213.746 5.51118 213.553 5.51118 213.315V209.198C5.51118 208.96 5.70421 208.765 5.94214 208.765H33.5378C33.776 208.765 33.9688 208.96 33.9688 209.198V213.315C33.9688 213.553 33.776 213.746 33.5378 213.746Z" fill="#E3E3E3"/>
<path d="M33.5378 171.484H5.94214C5.70421 171.484 5.51118 171.291 5.51118 171.053V166.936C5.51118 166.698 5.70421 166.505 5.94214 166.505H33.5378C33.776 166.505 33.9688 166.698 33.9688 166.936V171.053C33.9688 171.291 33.776 171.484 33.5378 171.484Z" fill="#F2C138"/>
<path d="M184.27 208.217C184.27 208.217 180.773 203.598 180.261 202.875C179.75 202.154 179.743 199.519 180.441 196.764C181.12 194.089 181.659 190.243 182.087 189.999C182.515 189.756 182.781 189.345 184.042 189.456C185.304 189.568 186.307 190.35 186.307 190.35C186.307 190.35 187.928 189.763 189.094 190.818C189.094 190.818 190.641 190.335 191.767 191.75C191.767 191.75 193.294 191.318 194.023 192.415C194.023 192.415 194.08 194.885 194.368 195.792C194.654 196.699 194.011 203.229 193.019 208.127C193.019 208.127 190.911 211.058 184.27 208.217" fill="#EEA886"/>
<path d="M185.739 200.142C185.739 200.142 188.271 201.594 188.774 202.361C189.275 203.126 193.447 198.192 193.447 198.192C193.447 198.192 187.602 197.134 185.739 200.142Z" fill="#CF8C6C"/>
<path d="M181.956 190.774C181.956 190.774 181.657 197.968 182.818 198.16C183.98 198.351 184.523 197.721 184.523 197.721L185.753 200.739C185.753 200.739 187.704 202.28 188.826 199.72C188.826 199.72 190.497 201.348 191.283 198.748C191.283 198.748 192.868 199.333 193.447 198.192C194.023 197.053 194.023 192.415 194.023 192.415C194.023 192.415 193.616 191.272 191.803 191.585C191.803 191.585 190.8 190.222 189.123 190.712C189.123 190.712 187.487 189.418 185.678 189.961C185.678 189.961 183.784 188.797 182.033 190.032C182.033 190.032 181.966 190.471 181.956 190.774" fill="#DB9C7C"/>
<path d="M180.247 202.65C180.247 202.65 182.697 198.348 185.074 196.582C185.613 196.183 186.207 195.893 186.783 196.238C187.36 196.585 187.587 197.851 186.622 199.768C185.657 201.684 185.292 204.602 185.292 204.602C185.292 204.602 183.717 206.282 180.247 202.65" fill="#EEA886"/>
<path d="M185.678 189.961C185.678 189.961 184.416 197.684 184.717 198.417C185.02 199.149 182.173 198.708 181.958 198.064C181.743 197.418 181.766 190.898 181.918 190.258C182.071 189.619 184.404 188.396 185.678 189.961Z" fill="#EEA886"/>
<path d="M181.536 191.617C181.536 191.617 183.713 179.02 185.196 179.171C186.622 179.315 187.329 182.366 185.267 191.982C183.265 201.331 181.536 191.617 181.536 191.617Z" fill="#EEA886"/>
<path d="M193.019 208.128C193.019 208.128 191.669 211.403 190.397 212.845C189.127 214.287 184.803 210.863 184.27 208.218C183.738 205.574 193.019 208.128 193.019 208.128" fill="#EEA886"/>
<path d="M103.645 163.527H102.961V146.65H103.645V163.527Z" fill="#F08D29"/>
<path d="M159.304 146.234L122.912 157.886L86.5238 146.234L122.912 132.888L159.304 146.234Z" fill="#272A45"/>
<path d="M136.488 170.006C136.488 170.006 148.462 195.063 140.221 196.562C128.903 198.62 124.324 177.864 124.324 177.864L136.488 170.006Z" fill="#FCCCA2"/>
<path d="M151.604 237.197C154.758 241.889 161.461 248.132 164.791 248.086C166.938 248.057 201.577 218.093 201.566 216.36C201.554 214.404 181.425 205.877 181.425 205.877C181.425 205.877 175.599 212.999 172.336 217.468C168.603 222.58 165.702 226.058 164.609 226.816C163.517 227.575 158.524 219.065 158.524 219.065C156.132 215.008 153.469 210.47 149.818 203.419C146.289 196.607 132.35 192.254 132.35 192.254C115.716 199.667 146.749 229.04 146.749 229.04C146.749 229.04 150.1 235.055 151.604 237.197" fill="#272A45"/>
<path d="M157.334 296.28H88.2773C88.3903 294.806 88.4975 293.36 88.6105 291.943C89.8695 275.959 91.264 263.82 92.7434 259.859C98.6546 244.032 89.7905 198.292 89.7905 198.292C89.7905 198.292 94.008 194.48 109.907 190.973L142.908 197.793C142.908 197.793 151.524 204.372 152.349 216.27C153.173 228.167 150.695 260.363 152.512 269.498C152.907 271.498 154.432 279.955 156.561 291.943C156.816 293.337 157.068 294.789 157.334 296.28" fill="#272A45"/>
<path d="M129.992 181.727C129.992 181.727 128.55 194.871 128.851 199.149C128.851 199.149 121.352 206.61 112.821 190.44C112.821 190.44 116.41 183.775 113.709 174.694C111.006 165.613 129.992 181.727 129.992 181.727Z" fill="#EEA886"/>
<path d="M128.851 199.149V205.964L120.22 199.563L128.851 199.149Z" fill="#EEA886"/>
<path d="M109.694 158.682C109.694 158.682 108.119 156.803 107.53 158.695C106.943 160.586 108.867 166.206 109.08 167.021C109.08 167.021 110.034 170.175 110.414 169.772C110.797 169.371 109.694 158.682 109.694 158.682Z" fill="#EEA987"/>
<path d="M137.211 158.916C137.211 158.916 138.786 157.038 139.373 158.929C139.96 160.82 138.036 166.44 137.825 167.256C137.825 167.256 136.871 170.409 136.488 170.006C136.108 169.605 137.211 158.916 137.211 158.916Z" fill="#EEA987"/>
<path d="M125.925 140.708C125.925 140.708 140.382 142.92 138.266 165.523C136.15 188.13 123.389 186.335 122.536 186.316C121.684 186.298 109.733 186.787 108.701 159.203C108.701 159.203 108.219 138.804 125.925 140.708Z" fill="#EEA987"/>
<path d="M111.473 157.851C111.473 157.851 127.521 162.589 135.204 161.073C135.204 161.073 135.694 163.886 136.797 164.06C137.9 164.233 138.464 158.682 138.464 158.682C138.464 158.682 138.84 140.299 122.085 140.125C105.332 139.954 108.735 160.037 108.735 160.037L108.965 163.471C108.965 163.471 111.363 164.411 111.473 157.851" fill="#FCCCA2"/>
<path d="M132.35 192.254V217.351L143.662 197.458C143.662 197.458 139.411 193.521 132.35 192.254" fill="#F08D29"/>
<path d="M128.851 205.964L133.238 200.867L129.43 187.445C129.43 187.445 128.149 194.919 128.851 205.964Z" fill="#D6C5BE"/>
<path d="M133.238 200.867L139.122 203.4L129.43 187.445L133.238 200.867Z" fill="#FAE6DE"/>
<path d="M132.35 217.351V201.899L128.851 205.964L124.469 202.602L122.252 205.484L132.35 217.351Z" fill="#B8A9A1"/>
<path d="M128.851 205.964L125.267 201.563L113.195 189.619L111.112 192.35L128.851 205.964Z" fill="#D6C5BE"/>
<path d="M103.572 291.943C104.143 293.826 104.611 295.339 104.899 296.28H82.2151C82.0795 294.907 82.7212 293.456 82.6523 291.943C82.26 283.332 82.2861 278.956 82.027 272.596C81.4119 257.491 82.3715 247.125 82.5181 244.575C82.6706 242.021 82.4166 226.553 83.0435 222.793C83.6702 219.033 81.4399 211.258 85.5502 203.268C89.6606 195.282 101.246 193.236 101.246 193.236C111.273 196.52 101.534 215.94 100.196 225.343C98.8525 234.742 94.5445 256.519 96.9722 267.676C98.5759 275.035 101.658 285.604 103.572 291.943" fill="#272A45"/>
<path d="M109.907 190.973L132.35 217.351L90.8047 197.544C90.8047 197.544 99.0467 191.393 109.907 190.973Z" fill="#F08D29"/>
<path d="M125.267 201.563L120.22 208.13L109.907 190.973L113.195 189.619L125.267 201.563" fill="#FAE6DE"/>
<path d="M103.314 162.994V162.99C103.31 162.99 103.307 162.992 103.303 162.992C103.299 162.992 103.296 162.99 103.292 162.99V162.994C101.68 163.067 101.867 171.302 101.867 171.302H103.292H103.314H104.74C104.74 171.302 104.926 163.067 103.314 162.994Z" fill="#F08D29"/>
<path d="M137.593 148.632C137.593 148.632 135.701 136.773 122.912 138.035C110.124 139.298 109.259 143.603 108.286 149.651L137.593 148.632Z" fill="#272A45"/>
<path d="M138.03 154.356C138.03 154.356 128.663 149.84 108.48 154.709L108.286 149.651C108.286 149.651 108.603 149.528 109.197 149.334C112.677 148.188 125.528 144.5 136.914 148.389C137.14 148.464 137.368 148.548 137.593 148.631L138.03 154.356" fill="#51578F"/>
<path d="M115.95 183.357C115.95 183.357 120.671 189.219 128.642 185.15C128.642 185.15 126.017 189.435 121.899 189.134C117.782 188.833 115.95 183.357 115.95 183.357" fill="#A77860"/>
<path d="M183.222 291.943V296.28H61.7973V291.943H183.222Z" fill="url(#paint1_linear)"/>
<path d="M253.456 293.487C253.438 336.391 252.237 344.789 241.471 354.403C237.252 358.167 229.498 365.987 207.121 369.881C200.402 371.049 192.37 371.864 182.719 372.111C178.782 372.211 175.167 372.067 171.863 371.708C169.092 371.409 166.537 370.955 164.189 370.366C139.596 364.2 137.757 343.119 148.515 325.383C151.362 320.687 154.616 316.369 158.03 312.344C163.299 306.126 168.947 300.604 174.061 295.45C178.776 290.699 183.038 286.262 186.135 281.882C187.443 280.034 188.54 278.199 189.38 276.354C189.579 275.917 189.78 275.487 189.984 275.058C190.644 273.662 191.327 272.324 192.013 271.041C193.304 268.633 194.62 266.432 195.891 264.464C196.901 262.89 197.883 261.465 198.797 260.2C201.938 255.857 204.271 253.42 204.271 253.42C204.271 253.42 204.562 253.282 205.098 253.059C205.384 252.94 205.741 252.795 206.163 252.634C206.331 252.57 206.511 252.503 206.699 252.434C206.887 252.365 207.084 252.292 207.289 252.218C207.477 252.154 207.674 252.085 207.877 252.016C208.114 251.934 208.363 251.851 208.623 251.767C208.772 251.717 208.927 251.667 209.087 251.619C209.181 251.589 209.275 251.558 209.369 251.529C209.406 251.518 209.441 251.508 209.478 251.495C212.671 250.517 217.052 249.497 221.815 249.326C235.949 248.822 253.473 255.794 253.456 293.487" fill="url(#paint2_linear)"/>
<path d="M196.246 358.077C196.246 358.077 196.597 360.952 197.065 362.221C197.531 363.49 200.067 366.418 198.997 369.231C197.834 372.282 192.764 369.342 190.696 368.412C188.628 367.48 189.098 365.793 188.878 363.724C188.657 361.655 187.648 361.6 188.02 360.146C188.394 358.691 190.656 355.907 190.656 355.907L196.246 358.077" fill="#213A70"/>
<path d="M191.632 354.402C191.632 354.402 190.334 356.219 190.37 356.269C190.405 356.319 195.928 359.684 196.315 358.593C196.62 357.726 196.747 356.47 196.747 356.47L191.632 354.402" fill="#EEA886"/>
<path d="M172.904 360.11C172.904 360.11 171.221 361.588 169.706 363.86C168.194 366.132 164.177 366.253 164.004 369.352C163.832 372.452 169.466 372.548 172.424 371.538C175.382 370.529 175.829 367.5 177.617 366.744C179.407 365.987 180.335 365.375 180.197 363.895C180.059 362.418 179.071 360.018 179.071 360.018C179.071 360.018 177.96 360.374 177.306 360.447C176.652 360.518 174.452 360.543 172.904 360.11" fill="#213A70"/>
<path d="M193.182 276.113C193.182 276.113 192.047 282.858 191.132 287.314C190.763 289.121 190.428 290.551 190.219 291C189.958 291.567 187.832 293.853 185.227 296.537C180.656 301.243 174.619 307.171 174.619 307.171L172.259 302.688C172.259 302.688 177.623 296.397 181.258 292.2C182.94 290.258 184.253 288.764 184.494 288.549C185.254 287.87 186.136 281.167 187.376 275.643C188.615 270.119 191.101 267.068 191.101 267.068L193.182 276.113" fill="#FFCA55"/>
<path d="M185.227 296.537C180.656 301.243 174.619 307.171 174.619 307.171L172.259 302.688C172.259 302.688 177.623 296.397 181.258 292.2C182.371 292.748 184.419 294.052 185.227 296.537Z" fill="#EEA886"/>
<path d="M173.17 358.045L172.904 360.11C172.904 360.11 175.839 361.147 179.071 360.018L179.136 358.181L173.17 358.045" fill="#EEA886"/>
<path d="M214.806 306.257C214.975 306.859 183.74 306.257 183.74 306.257C183.74 306.257 192.381 299.966 192.941 298.286C193.501 296.603 190.74 286.519 190.38 283.236C190.092 280.611 189.371 268.863 191.101 267.068C192.908 265.193 199.421 263.226 199.421 263.226L208.913 263.577C208.913 263.577 210.482 263.905 211.602 264.426C212.721 264.946 219.126 267.228 220.166 270.43C221.206 273.632 213.776 283.928 213.776 283.928C213.776 283.928 213.761 284.389 213.739 285.148C213.709 286.16 213.667 287.696 213.628 289.362C213.578 291.521 213.536 293.897 213.536 295.634C213.536 299.715 214.637 305.657 214.806 306.257" fill="#FFCA55"/>
<path d="M214.806 306.257C214.806 306.257 219.055 312.502 219.115 316.764C219.174 321.025 211.576 335.3 210.425 337.344C206.968 343.482 197.487 356.725 197.487 356.725C197.487 356.725 195.853 356.683 190.752 354.703C190.752 354.703 197.061 337.21 197.859 335.394C201.251 327.692 203.143 322.229 202.003 320.908C200.862 319.587 197.756 318.264 196.856 317.485C195.956 316.703 180.276 320.448 178.634 320.875C174.379 321.978 176.32 329.383 177.26 332.704C178.835 338.257 180.211 358.317 180.211 358.317C180.211 358.317 177.18 359.609 172.104 358.518C172.104 358.518 162.14 322.298 161.818 318.697C161.499 315.094 161.342 309.154 185.902 304.639L214.806 306.257" fill="#E8E8E8"/>
<path d="M202.026 242.587C202.026 242.587 193.785 240.729 195.667 251.104C197.549 261.481 199.532 262.298 204.503 260.15C209.475 258.003 209.03 251.355 209.281 248.095C209.53 244.834 204.654 242.702 202.026 242.587" fill="#EEA886"/>
<path d="M199.845 265.889C199.845 265.889 203.494 269.76 209.262 266.242C209.262 266.242 207.973 257.853 208.652 253.767C209.331 249.679 201.126 260.098 201.126 260.098C201.234 260.154 201.305 260.545 201.322 261.099C201.337 261.569 201.312 262.158 201.236 262.762C201.067 264.121 200.643 265.555 199.845 265.889" fill="#EEA886"/>
<path d="M208.878 253.418C208.878 253.418 208.667 250.149 207.472 250.047C206.279 249.946 206.095 251.261 206.095 251.261L204.89 251.489C204.89 251.489 205.27 248.623 204.079 248.124C202.887 247.622 196.357 249.702 195.402 248.86C194.445 248.019 194.894 242.207 196.624 241.411C198.354 240.614 203.133 238.834 206.634 241.204C206.634 241.204 209.362 240.892 209.768 243.095C210.173 245.298 209.621 251.781 208.878 253.418" fill="#3A3F47"/>
<path d="M201.236 262.762C207.186 260.927 207.635 257.341 207.641 257.284C205.682 260.654 201.322 261.099 201.322 261.099C201.337 261.569 201.312 262.158 201.236 262.762Z" fill="#A77860"/>
<path d="M211.698 264.472C211.698 264.472 207.34 273.152 200.3 272.592C193.261 272.031 199.101 263.306 199.421 263.226C199.772 263.136 206.64 261.425 211.698 264.472Z" fill="#EEA886"/>
<path d="M180.168 305.818C180.168 305.818 201.738 308.479 214.806 306.257L189.835 303.137C189.835 303.137 189.689 303.774 180.168 305.818" fill="#FFCA55"/>
<path d="M196.3 302.155L194.694 302.968C194.694 302.968 195.059 305.522 195.939 306.297L197.744 305.835C197.744 305.835 197.368 303.034 196.3 302.155Z" fill="#EEA886"/>
<path d="M221.261 296.923C220.939 297.295 216.699 299.003 211.909 300.848V300.85C205.364 303.373 197.982 305.758 197.982 305.758L196.3 302.154C196.3 302.154 204.031 297.952 209.256 295.003C211.723 293.611 213.632 292.499 213.901 292.242C214.741 291.441 214.958 290.158 214.34 287.92C213.724 285.681 212.301 275.392 212.14 274.193C211.982 272.991 212.542 269.789 215.541 269.63C218.541 269.469 220.068 270.316 220.068 270.316C220.068 270.316 220.822 270.629 221.382 277.915C221.942 285.198 222.021 296.043 221.261 296.923" fill="#FFCA55"/>
<path d="M213.739 285.148C213.709 286.16 213.668 287.696 213.628 289.362C210.699 282.181 212.391 276.45 212.421 276.354C212.103 278.304 213.716 285.052 213.739 285.148" fill="#C9A043"/>
<path d="M191.132 287.313C190.763 289.121 190.428 290.551 190.22 291C189.221 286.158 190.119 279.959 190.119 279.959C190.257 282.92 191.132 287.313 191.132 287.313" fill="#C9A043"/>
<path d="M211.909 300.848V300.85C205.364 303.373 197.744 305.835 197.744 305.835L196.3 302.155C196.3 302.155 204.031 297.952 209.256 295.003C209.256 295.003 211.157 295.929 211.909 300.848Z" fill="#EEA886"/>
<path d="M195.834 306.048L165.175 305.599L180.656 313.462L195.834 306.048Z" fill="#444C94"/>
<path d="M180.656 313.462L195.834 307.578V306.048L179.455 311.961L180.656 313.462" fill="#303669"/>
<path d="M195.041 303.024C195.041 303.024 193.125 302.725 191.803 302.418C190.777 302.18 188.231 302.508 187.581 303.166C186.934 303.822 184.87 308.406 184.479 308.686C184.091 308.966 184.68 309.612 185.365 309.288C185.365 309.288 185.994 311.292 187.548 310.542C189.1 309.791 190.155 308.153 190.967 307.864C191.78 307.574 196.516 306.119 196.516 306.119C196.516 306.119 196.261 302.535 195.041 303.024Z" fill="#EEA886"/>
<path d="M188.049 302.865C188.049 302.865 186.819 303.459 186.499 303.724C186.177 303.99 184.876 304.964 184.561 305.193C184.245 305.423 185.035 306.075 187.362 305.066C189.691 304.059 188.049 302.865 188.049 302.865" fill="#EEA886"/>
<path d="M180.656 313.462L171.536 288.549L142.137 289.029L150.829 311.988L180.656 313.462Z" fill="#303669"/>
<path d="M162.13 299.571C163.026 301.365 162.754 303.319 161.524 303.935C160.292 304.552 158.566 303.597 157.67 301.801C156.772 300.008 157.043 298.054 158.276 297.437C159.506 296.821 161.232 297.776 162.13 299.571Z" fill="#518AFA"/>
<path d="M206.12 249.877C206.229 248.962 208.038 248.626 208.184 249.999C208.328 251.372 207.361 253.779 206.676 253.543C205.989 253.305 205.972 251.14 206.12 249.877" fill="#EEA886"/>
<path d="M119.766 268.309L109.758 290.864L109.489 291.471C108.965 291.527 108.534 291.408 108.376 291.354L108.597 290.858L118.509 268.52L104.066 252.981L101.898 252.509L102.125 251.468L104.618 252.011L119.766 268.309" fill="url(#paint3_linear)"/>
<path d="M104.354 295.224H113.617C113.617 295.224 113.602 295.003 113.516 294.662C113.237 293.561 112.221 291.232 108.618 291.232C105.012 291.232 104.427 293.563 104.352 294.662C104.329 295.003 104.354 295.224 104.354 295.224Z" fill="url(#paint4_linear)"/>
<path d="M94.9215 247.988L95.5473 249.762L99.3394 260.513C100.882 259.968 102.097 258.913 102.862 257.6C103.811 255.974 104.066 253.957 103.39 252.041C102.17 248.582 98.3787 246.767 94.9215 247.988Z" fill="url(#paint5_linear)"/>
<path d="M109.992 290.867V291.36C109.819 291.418 109.65 291.452 109.489 291.471C108.965 291.527 108.534 291.408 108.376 291.354C108.334 291.341 108.311 291.333 108.311 291.333V290.856L108.597 290.858L109.758 290.864L109.992 290.867" fill="#FFA855"/>
<path d="M104.354 295.224H113.617C113.617 295.224 113.602 295.003 113.516 294.662H104.352C104.329 295.003 104.354 295.224 104.354 295.224Z" fill="#FFA555"/>
<path d="M94.9215 247.988L95.5473 249.763C97.7606 251.508 101.195 254.526 102.862 257.6C103.811 255.974 104.066 253.957 103.39 252.041C102.17 248.582 98.3787 246.768 94.9215 247.988Z" fill="#FFA855"/>
<path d="M62.4583 267.02C62.4583 267.02 64.0726 264.978 64.3276 264.675C64.5827 264.37 65.5847 264.083 66.7572 263.862C67.9297 263.642 69.5793 263.918 69.7122 264.081C69.845 264.244 70.051 264.338 70.1041 264.909C70.1571 265.479 69.9158 266.008 69.9158 266.008C69.9158 266.008 70.2827 266.66 69.9418 267.289C69.9418 267.289 70.2605 267.923 69.7703 268.573C69.7703 268.573 70.0658 269.202 69.6748 269.643C69.6748 269.643 68.6702 269.931 68.3218 270.157C67.9736 270.38 65.8538 270.828 63.7751 270.913C63.7751 270.913 61.8168 270.263 62.4583 267.02" fill="#EEA886"/>
<path d="M15.895 330.031L6.69977 368.389H4.67458L12.4721 329.95L15.895 330.031Z" fill="#858585"/>
<path d="M25.9264 330.031L16.7312 368.389H14.706L22.5035 329.95L25.9264 330.031" fill="#858585"/>
<path d="M42.1506 330.031L51.3458 368.389H53.3712L45.5737 329.95L42.1506 330.031Z" fill="#858585"/>
<path d="M50.853 330.405H11.2323C11.2323 330.405 8.47286 330.34 6.62458 322.162C4.54569 312.96 0.34613 282.226 0.34613 282.226C0.34613 282.226 1.46015 279.367 18.8778 279.733L50.0678 320.223C50.0678 320.223 51.1317 326.605 50.853 330.405Z" fill="#E2D2CA"/>
<path d="M52.0727 292.05C52.0727 292.05 54.0913 291.172 55.6051 291.525C57.1187 291.88 60.6647 293.203 62.4163 293.423C64.1676 293.644 65.8361 294.662 65.8033 295.245C65.7707 295.826 52.2804 296.303 52.2156 294.975C52.1509 293.65 52.0727 292.05 52.0727 292.05" fill="#EEA886"/>
<path d="M62.4583 267.02C62.4583 267.02 59.8229 268.754 59.7654 269.285C59.6702 270.165 60.2133 272.897 60.2787 272.857C60.3441 272.819 64.2523 270.888 64.2523 270.888L62.4583 267.02" fill="#EEA886"/>
<path d="M62.4035 361.857C62.4035 361.857 65.7984 363.878 67.3359 364.629C68.8733 365.381 74.8543 365.611 75.444 366.173C76.0335 366.738 75.8125 368.525 74.8207 368.704C73.8289 368.886 66.5571 369.524 64.1327 368.951C61.7081 368.378 57.1693 369.321 56.1654 368.976C55.1616 368.633 55.8232 363.216 56.2149 361.999C56.6063 360.785 62.4035 361.857 62.4035 361.857Z" fill="#292C47"/>
<path d="M62.3509 359.567L62.4035 361.858C62.4035 361.858 57.8558 362.698 56.2149 362L56.3294 359.483L62.3509 359.567" fill="#1C1E30"/>
<path d="M70.3529 361.857C70.3529 361.857 73.7478 363.878 75.2852 364.629C76.8227 365.381 82.8039 365.611 83.3934 366.173C83.9829 366.738 83.7619 368.525 82.7701 368.704C81.7783 368.886 74.5065 369.524 72.0819 368.951C69.6575 368.378 65.1187 369.321 64.1147 368.976C63.1108 368.633 63.7728 363.216 64.1643 361.999C64.5557 360.785 70.3529 361.857 70.3529 361.857Z" fill="#323657"/>
<path d="M70.3003 359.567L70.3529 361.858C70.3529 361.858 65.8053 362.698 64.1643 362L64.2787 359.483L70.3003 359.567" fill="#1C1E30"/>
<path d="M43.5867 306.193L38.4221 305.29L41.8652 296.614L43.5867 306.193Z" fill="#24263D"/>
<path d="M28.112 307.971C28.112 307.971 54.0677 313.484 58.1183 315.207C62.169 316.929 64.5994 317.637 64.9031 318.5C65.2071 319.362 71.5361 360.547 71.5361 360.547H62.9285C62.9285 360.547 56.245 329.442 55.4349 327.517C54.6246 325.592 22.5233 325.489 20.1942 323.159C17.8653 320.831 15.8399 314.446 18.3714 308.721C20.9032 302.997 28.112 307.971 28.112 307.971" fill="#282B45"/>
<path d="M41.2576 305.074C41.2576 305.074 71.0239 313.453 73.4602 317.284C75.9412 321.184 63.5361 360.547 63.5361 360.547H55.0299C55.0299 360.547 63.2322 323.667 62.2197 322.045C61.207 320.425 16.3462 321.995 24.7006 308.721C33.0551 295.45 41.2576 305.074 41.2576 305.074" fill="#282B45"/>
<path d="M38.163 263.686C39.2829 263.103 43.0196 264.38 44.1229 266.1C46.6877 270.096 51.5361 275.035 51.5361 275.035L62.3463 265.941L64.5118 271.361L51.6811 282.181C50.5877 283.102 48.9747 283.048 47.9488 282.051C44.5775 278.776 37.6406 271.891 37.1056 270.171C36.3966 267.891 36.0225 264.8 38.163 263.686Z" fill="#323657"/>
<path d="M34.5051 240.535C34.5051 240.535 39.6698 241.396 39.7205 250.16C39.7711 258.925 36.448 259.753 31.4167 258.469C28.3874 257.696 25.5431 253.403 26.6571 245.854C27.7709 238.305 34.5051 240.535 34.5051 240.535" fill="#EEA987"/>
<path d="M35.1815 261.458C35.1815 261.458 42.2993 264.044 43.3628 265.665C44.426 267.285 43.7386 281.873 43.1309 287.09C42.5235 292.309 40.8525 303.555 41.2576 305.074L24.7006 308.721C24.7006 308.721 19.3841 289.37 19.2322 286.281C19.0804 283.19 15.1816 268.802 17.0552 267.638C18.9285 266.472 27.0803 261.914 27.0803 261.914L35.1815 261.458Z" fill="#EDDAD3"/>
<path d="M24.7006 308.721L23.8899 305.733L41.2952 302.343L41.2576 305.074L24.7006 308.721Z" fill="#1F2136"/>
<path d="M33.3588 303.732L37.4854 302.871V306.138L33.3588 307.102V303.732Z" fill="#4F558A"/>
<path d="M31.5084 295.226C31.4641 296.081 31.4086 296.948 31.3641 297.824L31.353 297.837C30.7648 307.451 29.8883 317.508 29.8883 317.508C28.679 318.519 13.344 314.956 13.344 314.956C13.344 314.956 15.2301 312.391 17.0502 305.285C18.8809 298.192 17.4494 291.374 15.552 279.829C13.6657 268.282 15.2301 268.349 15.2301 268.349L27.0812 261.91C27.8578 264.863 30.9979 275.576 31.7413 281.716C32.0077 283.959 31.8414 289.32 31.5084 295.226" fill="#323657"/>
<path d="M35.2963 261.479C35.2963 261.479 38.747 270.397 40.2113 279.493C41.704 288.766 41.6305 305.557 43.2492 305.967C44.8679 306.376 44.3687 306.103 44.3687 306.103C44.3687 306.103 44.0649 295.96 43.9168 292.595C43.5868 285.09 44.987 268.171 44.3386 266.462C43.6904 264.752 39.0432 262.154 35.2963 261.479Z" fill="#323657"/>
<path d="M35.0147 260.079C35.0147 260.622 35.0592 261.122 35.1812 261.454C35.1812 261.454 34.2714 265.007 27.0812 261.91C27.0812 261.91 28.5012 256.616 27.0812 252.174L35.1812 257.203C35.1812 257.203 35.0815 258.001 35.037 258.936C35.0147 259.312 35.0036 259.711 35.0147 260.079" fill="#EEA987"/>
<path d="M27.374 260.501C27.374 260.501 30.2005 261.87 33.0524 262.135L31.6626 265.093L27.0803 261.914L27.374 260.501" fill="#D6C5BF"/>
<path d="M33.0523 262.135C33.0523 262.135 35.0414 261.475 35.0265 260.501L35.2962 261.479L34.4855 264.597L33.0523 262.135Z" fill="#D6C5BF"/>
<path d="M39.1023 245.605C39.1023 245.605 40.5476 242.504 39.501 240.228C38.4547 237.952 35.7205 238.896 34.4716 239.168C33.2226 239.438 30.8596 236.669 26.674 240.046C22.4882 243.423 23.7372 246.968 25.5938 251.19C27.4503 255.412 27.6757 255.736 27.6757 255.736C27.6757 255.736 27.6892 251.451 28.1943 250.692C28.788 249.798 30.9609 249.332 30.9609 249.332C30.9609 249.332 29.3069 247.071 30.9271 246.226C32.5474 245.382 35.9016 246.945 39.1023 245.605" fill="#16202E"/>
<path d="M28.8344 248.454C28.614 247.808 27.524 247.073 26.9778 248.285C26.4315 249.499 27.8555 251.629 28.632 251.629C29.4082 251.629 29.3408 249.94 28.8344 248.454" fill="#EEA987"/>
<path d="M33.0523 262.135L34.0914 263.92C34.0914 263.92 33.6107 264.472 32.0669 264.232L33.0523 262.135" fill="#D44040"/>
<path d="M33.8691 264.077C33.8691 264.077 38.1184 276.588 38.1523 285.47C38.1859 294.353 37.4855 299.655 37.4855 299.655L36.5501 301.404L35.1816 299.805C35.1816 299.805 36.1475 274.015 32.3667 264.269C32.3667 264.269 33.7114 263.63 33.8691 264.077Z" fill="#D44040"/>
<path d="M16.5469 267.638C19.6555 266.369 22.8778 270.677 24.5993 274.982C26.321 279.29 29.6121 287.125 29.6121 287.125L52.6046 290.852L52.929 295.224H26.1014C26.1014 295.224 15.881 276.907 15.172 274.629C14.463 272.349 14.3133 268.549 16.5469 267.638Z" fill="#323657"/>
<path d="M120.594 297.839H44.7804V295.224H120.594V297.839Z" fill="#E2D2CA"/>
<path d="M89.2054 249.495V289.986H91.0313V249.495H89.2054" fill="#ABA095"/>
<path d="M93.6821 295.224H107.344V294.397H93.6821C92.97 294.397 92.4576 294.227 92.1589 293.893C91.7988 293.49 91.8548 292.948 91.8554 292.942L91.8587 292.917L91.8583 292.894V275.231H91.0303V292.873C91.0156 293.042 90.9837 293.811 91.5312 294.434C91.993 294.959 92.7169 295.224 93.6821 295.224" fill="#918880"/>
<path d="M75.0649 293.774H89.4859V295.224H74.1084V294.731C74.1084 294.202 74.5366 293.774 75.0649 293.774" fill="#6E6760"/>
<path d="M112.71 368.826H114.866V297.839H112.71V368.826Z" fill="#706865"/>
<path d="M50.5093 368.826H52.6637V297.839H50.5093V368.826Z" fill="#706865"/>
<path d="M31.5084 295.226C31.4641 296.081 31.4085 296.948 31.364 297.824L31.353 297.837C31.353 297.837 28.3646 298.232 25.8604 297.093C23.3453 295.951 21.5996 287.288 21.4776 286.835C21.7327 287.334 25.7495 295.226 26.7371 295.226C27.7577 295.226 31.5084 295.226 31.5084 295.226Z" fill="#1F2136"/>
<path d="M35.037 258.936C35.0147 259.312 35.0036 259.711 35.0147 260.079C29.3004 260.167 29.2114 256.904 29.2114 256.904C30.0992 259.268 35.037 258.936 35.037 258.936Z" fill="#A77860"/>
<path d="M66.3461 267.02L65.8362 266.491L72.0836 260.459L72.5937 260.988L66.3461 267.02" fill="#EB4747"/>
<path d="M72.0836 260.459L73.2577 259.834L72.5936 260.988L72.0836 260.459Z" fill="#EEA886"/>
<path d="M69.4033 264.127C69.4033 264.127 66.441 264.764 66.4535 265.299C66.4661 265.835 66.7656 266.008 66.7656 266.008L65.6292 266.875C65.6292 266.875 65.1521 267.904 66.2849 268.125C66.2849 268.125 65.751 269.039 66.874 269.108C66.874 269.108 66.7589 269.872 67.2697 270.006C67.7806 270.14 69.6749 269.643 69.6749 269.643C69.6749 269.643 70.093 269.352 69.8232 268.583C69.8232 268.583 70.3218 267.968 69.9913 267.279C69.9913 267.279 70.3289 266.74 69.9658 265.998C69.9658 265.998 70.5848 264.739 69.7122 264.081C69.7122 264.081 69.5278 264.098 69.4033 264.127" fill="#D69779"/>
<path d="M64.4189 264.643C64.4189 264.643 66.3674 265.266 67.274 266.129C67.4791 266.326 67.6437 266.556 67.5479 266.848C67.4518 267.141 66.9523 267.377 66.0938 267.155C65.2352 266.934 64.0155 267.084 64.0155 267.084C64.0155 267.084 63.2055 266.568 64.4189 264.643" fill="#EEA886"/>
<path d="M66.9152 330.781C66.9152 330.781 65.0955 319.42 64.9994 318.96C64.9031 318.5 63.0513 316.843 54.2017 313.942C54.2017 313.942 64.0387 315.857 66.6179 317.537C68.6062 318.833 66.9152 330.781 66.9152 330.781Z" fill="#12131F"/>
<path d="M103.953 295.224C104.924 294.821 106.493 290.231 107.248 287.855C107.515 287.012 107.682 286.446 107.682 286.446H98.7983C99.5662 291.932 101.431 295.224 101.431 295.224H103.953" fill="#9E633A"/>
<path d="M104.666 283.715C104.666 283.395 106.092 282.057 106.805 281.186C107.517 280.312 106.529 278.657 106.529 278.657C103.35 279.973 103.898 283.715 103.898 283.715C103.898 283.715 104.666 284.032 104.666 283.715" fill="#97A43C"/>
<path d="M102.856 283.857H103.24C103.24 283.857 103.514 277.394 101.156 276.517C98.7983 275.639 98.7983 273.883 98.7983 273.883C98.7983 273.883 98.0856 276.297 99.2372 277.559C100.389 278.822 101.705 280.302 101.485 281.51C101.266 282.716 102.856 283.857 102.856 283.857" fill="#97A43C"/>
<path d="M107.248 287.855C107.515 287.012 107.682 286.446 107.682 286.446H98.7983C99.5662 291.932 101.431 295.224 101.431 295.224H102.01C101.902 290.087 105.283 288.4 107.248 287.855" fill="#82522F"/>
<path d="M107.68 283.715H98.7311L98.2216 286.446H108.044L107.68 283.715Z" fill="#C67B47"/>
<path d="M260.133 365.314C260.133 365.314 256.378 370.594 256.894 371.43C257.411 372.268 261.357 372.387 263.761 371.43C266.168 370.475 266.223 364.288 267.312 361.63C267.767 360.516 266.794 357.232 265.424 356.994C264.053 356.756 262.563 357.456 262.563 357.456C262.563 357.456 263.984 361.199 260.133 365.314" fill="#363A5E"/>
<path d="M262.536 357.412C262.536 357.412 261.746 359.661 261.458 361.807C261.218 363.588 258.78 367.367 258.896 367.845C259.011 368.322 262.101 368.757 263.361 367.524C264.618 366.291 265.429 362.706 265.708 360.562C265.964 358.566 266.293 357.579 266.293 357.579C266.293 357.579 263.737 356.098 262.536 357.412Z" fill="#EEA886"/>
<path d="M292.821 365.402C292.821 365.402 289.201 370.594 289.718 371.43C290.231 372.268 294.183 372.387 296.587 371.43C298.991 370.475 299.048 364.288 300.135 361.63C300.591 360.516 299.615 357.233 298.246 356.994C296.877 356.756 295.27 357.506 295.27 357.506C295.27 357.506 296.671 361.287 292.821 365.402" fill="#363A5E"/>
<path d="M295.271 357.506C295.271 357.506 294.985 359.956 294.526 361.69C294.068 363.423 291.607 367.367 291.722 367.845C291.836 368.322 294.926 368.757 296.185 367.523C297.446 366.29 298.42 362.723 298.533 360.562C298.646 358.403 298.247 356.994 298.247 356.994C298.247 356.994 296.473 356.191 295.271 357.506Z" fill="#EEA886"/>
<path d="M277.177 271.568C277.177 271.568 273.956 287.22 273.215 291.161C272.477 295.101 270.404 314.189 270.181 317.435C269.96 320.68 266.82 332.909 266.968 334.069C267.114 335.227 262.308 358.511 262.308 358.511C262.308 358.511 263.951 359.891 265.679 358.637C266.571 357.991 276.222 336.838 276.222 331.043C276.222 323.032 281.897 312.573 282.628 310.78C289.43 294.131 288.091 289.04 288.978 287.957C289.865 286.877 289.943 288.626 290.46 291.021C290.98 293.419 292.091 314.128 292.756 316.755C293.422 319.382 292.904 328.269 293.276 332.75C293.646 337.233 295.271 357.506 295.271 357.506C295.271 357.506 296.527 359.565 298.293 357.561C298.672 357.128 301.342 334.976 301.415 329.645C301.488 324.313 301.568 316.958 301.712 314.653C303.083 292.557 306.454 289.402 301.144 273.764C291.206 244.486 277.177 271.568 277.177 271.568" fill="#EEA886"/>
<path d="M298.822 267.193C298.822 267.193 308.003 280.609 304.052 309.148C304.052 309.148 282.274 312.239 270.607 305.57C270.607 305.57 275.433 276.145 277.178 271.567C278.928 266.988 298.822 267.193 298.822 267.193" fill="#3F446E"/>
<path d="M267.41 361.166V366.692H266.723V362.42L267.41 361.166" fill="#363A5E"/>
<path d="M300.237 361.166V366.692H299.549V362.42L300.237 361.166Z" fill="#363A5E"/>
<path d="M287.937 207.703C287.937 207.703 281.789 213.9 283.883 221.88C285.977 229.859 289.344 229.905 293.051 226.471C296.762 223.04 298.945 219.428 299.432 215.417C299.923 211.405 293.553 202.177 287.937 207.703Z" fill="#EEA886"/>
<path d="M286.732 234.317C286.732 234.317 287.646 232.232 288.285 229.88C288.398 229.466 288.503 229.045 288.591 228.624C288.905 227.145 289.035 225.688 288.694 224.689C287.714 221.792 294.842 223.798 294.842 223.798C294.842 223.798 293.463 231.465 294.842 234.052C296.226 236.637 286.732 234.317 286.732 234.317Z" fill="#EEA886"/>
<path d="M301.483 254.795C301.291 254.768 300.879 254.766 300.447 254.727C300.978 253.243 301.569 251.926 301.569 251.926C301.91 252.875 303.199 255.055 301.483 254.795V254.795ZM304.802 237.971C303.68 235.731 302.841 235.009 300.672 234.324C299.459 233.941 294.035 232.529 294.035 232.529L287.523 232.288C287.523 232.288 283.044 233.034 279.569 234.238C276.094 235.442 271.54 242.03 271.54 242.03C271.54 242.03 277.82 256.787 279.026 261.022C280.229 265.256 279.425 271.81 279.425 271.81C286.957 275.911 299.029 271.409 299.029 271.409C298.115 268.1 298.077 264.236 298.559 261.496C298.615 261.172 298.681 260.865 298.751 260.576C298.815 260.311 298.903 259.935 299.007 259.512C299.012 259.494 299.017 259.475 299.019 259.456C303.811 259.945 308.302 260.146 308.421 259.185C308.946 254.856 306.346 241.052 304.802 237.971" fill="#EDDAD3"/>
<path d="M289.944 212.161C289.944 212.161 292.884 217.511 294.709 219.428C296.537 221.345 296.323 222.868 296.323 222.868C296.323 222.868 303.444 214.08 298.365 208.773C293.285 203.468 286.735 205.609 284.82 210.244C282.902 214.882 283.606 220.544 283.606 220.544C283.606 220.544 283.663 215.104 289.944 212.161Z" fill="#E8734D"/>
<path d="M291.883 206.56C291.883 206.56 291.173 202.646 297.309 201.087C303.445 199.53 306.207 206.606 305.449 210.922C304.693 215.24 299.443 226.188 302.29 227.611C305.137 229.034 306.25 225.964 306.25 225.964C306.25 225.964 305.361 231.35 301.401 230.102C297.442 228.857 297.974 220.106 298.572 216.62C299.169 213.131 291.883 206.56 291.883 206.56" fill="#E8734D"/>
<path d="M293.859 225.696C293.837 225.752 292.284 229.327 288.286 229.88C288.398 229.466 288.503 229.044 288.59 228.624C288.59 228.624 290.782 229.065 293.859 225.696Z" fill="#A77860"/>
<path d="M301.483 251.978C301.483 251.978 301.19 252.597 300.388 255.032C299.57 248.191 299.996 244.632 299.996 244.632C300.086 248.287 301.483 251.978 301.483 251.978Z" fill="#CFBEB8"/>
<path d="M292.839 205.741C292.839 205.741 297.194 206.577 299.368 210.128C299.368 210.128 298.926 206.914 296.759 205.986C294.592 205.06 292.839 205.741 292.839 205.741Z" fill="#EDDAD3"/>
<path d="M299.007 259.513C298.904 259.935 298.815 260.311 298.751 260.577C298.679 260.865 298.615 261.172 298.559 261.496C295.86 260.027 293.922 258.879 293.922 258.879C294.649 259.042 299.007 259.513 299.007 259.513" fill="#CFBEB8"/>
<path d="M294.404 232.622L286.736 238.875L287.526 232.287C287.526 232.287 291.997 231.322 294.404 232.622Z" fill="#EEA886"/>
<path d="M288.951 237.814L286.733 238.876L294.264 231.408L288.951 237.814Z" fill="#D6C5BE"/>
<path d="M299.46 258.971C298.404 263.345 302.308 273.193 302.308 273.193L294.573 275.614C293.459 275.961 292.288 275.279 292.04 274.138C291.004 269.318 288.577 257.46 288.286 250.866C287.913 242.451 294.037 232.528 294.037 232.528C304.919 234.394 301.935 250.866 301.935 250.866C301.935 250.866 301.54 251.902 301.012 253.524C301.012 253.524 301.012 253.524 301.012 253.526C300.882 253.932 300.739 254.377 300.592 254.851C300.221 256.068 299.818 257.483 299.46 258.971" fill="#494F80"/>
<path d="M286.753 232.65L286.887 232.288C286.887 232.288 281.315 233.137 278.482 234.552C275.648 235.967 270.228 243.28 270.228 243.28L277.321 252.645C277.328 259.845 276.16 272.642 276.16 272.642L279.403 274.512C280.274 275.014 281.366 274.398 281.385 273.392C281.476 268.525 281.693 256.967 281.808 251.37C281.957 244.17 287.09 232.529 287.09 232.529C286.975 232.566 286.865 232.608 286.753 232.65Z" fill="#494F80"/>
<path d="M276.65 266.401C276.65 266.401 281.996 266.61 282.828 266.401C283.662 266.194 289.21 263.786 289.54 261.408C289.875 259.03 276.65 263.54 276.65 263.54V266.401Z" fill="#EEA886"/>
<path d="M293.239 258.971L271.541 256.43L281.34 264.41L293.239 258.971Z" fill="#6A77BF"/>
<path d="M281.34 264.41L293.239 260.353V258.971L280.939 262.917L281.34 264.41Z" fill="#323657"/>
<path d="M286.937 254.985C286.937 254.985 285.144 254.985 284.139 254.78C283.36 254.621 281.427 254.839 280.933 255.275C280.441 255.712 278.876 258.755 278.578 258.941C278.283 259.127 278.729 259.556 279.25 259.341C279.25 259.341 279.729 260.672 280.907 260.175C282.084 259.675 282.887 258.588 283.503 258.396C284.122 258.204 287.717 257.236 287.717 257.236C287.717 257.236 287.863 254.659 286.937 254.985" fill="#EEA886"/>
<path d="M287.934 231.073L283.804 237.617L281.811 238.875L286.457 232.358L287.934 231.073Z" fill="#FAE6DE"/>
<path d="M283.805 237.617L286.735 238.875L287.524 232.287L287.935 231.073L283.805 237.617" fill="#D6C5BE"/>
<path d="M277.304 263.339C277.304 263.339 277.08 266.104 277.304 266.683C277.304 266.683 263.921 265.346 262.673 263.473C261.427 261.602 261.469 259.328 261.469 259.328L277.304 263.339Z" fill="#494F80"/>
<path d="M281.343 264.409L275.016 240.872L250.956 238.33L257.549 259.997L281.343 264.409" fill="#252740"/>
<path d="M294.266 231.408L288.951 237.814L291.859 240.409L294.996 232.739L294.266 231.408Z" fill="#FAE6DE"/>
<path d="M301.19 252.984C301.19 252.984 301.012 253.525 301.012 253.527C300.878 253.932 300.736 254.378 300.59 254.852C299.566 255.176 290.676 254.524 290.676 254.524C290.676 254.524 298.115 252.775 301.19 252.984" fill="#3D426B"/>
<path d="M300.676 254.679C299.245 254.57 296.9 254.417 294.979 254.409C291.994 254.396 286.889 254.729 286.889 254.729L287.495 257.922C287.495 257.922 296.544 259.391 301.482 259.738C301.482 259.738 308.006 260.487 308.488 259.513C308.974 258.541 308.329 252.29 307.268 246.659C306.209 241.029 305.117 237.785 303.82 236.046C302.524 234.307 295.674 232.951 295.674 232.951L301.485 251.978C301.485 251.978 302.319 253.675 302.273 254.409C302.263 254.63 302.106 254.737 301.899 254.777C301.753 254.764 301.432 254.737 300.987 254.702L300.676 254.679" fill="#494F80"/>
<path d="M39.0725 68.8876H56.6348V67.6566H39.0725V68.8876Z" fill="white"/>
<path d="M39.0725 75.1555H56.6348V69.9765H39.0725V75.1555Z" fill="white"/>
<path d="M59.5187 61.0166H60.2922V75.5255H59.5187V61.0166Z" fill="white"/>
<path d="M282.215 157.302H303.461V155.715H282.215V157.302Z" fill="#FFDC7D"/>
<path d="M282.215 162.293H303.461V157.996H282.215V162.293Z" fill="#FFDC7D"/>
<defs>
<linearGradient id="paint0_linear" x1="97.6577" y1="152.711" x2="339.985" y2="152.711" gradientUnits="userSpaceOnUse">
<stop stop-color="#FF9F55"/>
<stop offset="1" stop-color="#FFD255"/>
</linearGradient>
<linearGradient id="paint1_linear" x1="61.7973" y1="294.11" x2="183.221" y2="294.11" gradientUnits="userSpaceOnUse">
<stop stop-color="#9A5CFF"/>
<stop offset="0.994819" stop-color="#4059BF"/>
<stop offset="1" stop-color="#4059BF"/>
</linearGradient>
<linearGradient id="paint2_linear" x1="211.978" y1="231.473" x2="211.978" y2="366.149" gradientUnits="userSpaceOnUse">
<stop stop-color="#9A5CFF"/>
<stop offset="0.994819" stop-color="#4059BF"/>
<stop offset="1" stop-color="#4059BF"/>
</linearGradient>
<linearGradient id="paint3_linear" x1="110.832" y1="284.814" x2="110.832" y2="267.374" gradientUnits="userSpaceOnUse">
<stop stop-color="#FF9F55"/>
<stop offset="1" stop-color="#FFD255"/>
</linearGradient>
<linearGradient id="paint4_linear" x1="113.617" y1="293.228" x2="104.342" y2="293.228" gradientUnits="userSpaceOnUse">
<stop stop-color="#FF9F55"/>
<stop offset="1" stop-color="#FFD255"/>
</linearGradient>
<linearGradient id="paint5_linear" x1="103.77" y1="254.06" x2="94.9215" y2="254.06" gradientUnits="userSpaceOnUse">
<stop stop-color="#FF9F55"/>
<stop offset="1" stop-color="#FFD255"/>
</linearGradient>
</defs>
</svg>
