<svg width="956" height="641" viewBox="0 0 956 641" fill="none" xmlns="http://www.w3.org/2000/svg">
    <path d="M852.408 219.512C814.845 179.444 769.559 -62.2056 614.425 63.6526C534.277 128.677 399.125 7.82588 287.259 49.5676C184.525 87.9015 174.622 214.202 184.562 255.359C204.64 338.491 142.155 350.86 84.1893 386.58C-6.73688 442.605 60.1251 639.506 146.024 640.45C231.922 641.39 752.315 638.574 752.315 638.574C752.315 638.574 877.1 638.967 928.992 552.843C984.832 460.162 949.435 323.013 852.408 219.512" fill="#EBF2F9"/>
    <path d="M694.115 520.172H907.972V70.8392H694.115V520.172Z" fill="#AED3FF"/>
    <path d="M687.413 70.8392V520.172H901.27V70.8392H687.413Z" fill="#D2E4FF"/>
    <path d="M887.213 252.449H701.976V95.9382H887.213V252.449Z" fill="#F3F9FF"/>
    <path d="M884.021 482.883H784.604V399.321H884.021V482.883Z" fill="#F3F9FF"/>
    <path d="M709.613 175.819C709.613 175.819 741.24 170.891 760.568 193.158C779.893 215.422 815.896 195.128 830.394 193.158C855.597 189.728 875.357 200.038 881.217 211.374V245.379H709.613V175.819Z" fill="#EE9849"/>
    <path d="M735.455 174.194H734.128V121.097H735.455V174.194Z" fill="#A6C7F9"/>
    <path d="M787.464 196.978H786.14V143.882H787.464V196.978Z" fill="#A6C7F9"/>
    <path d="M841.13 184.964H839.806V131.868H841.13V184.964Z" fill="#A6C7F9"/>
    <path d="M750.252 129.242H740.09C739.482 129.242 738.988 128.621 738.988 127.861C738.988 127.104 739.482 126.482 740.09 126.482H750.252C750.857 126.482 751.354 127.104 751.354 127.861C751.354 128.621 750.857 129.242 750.252 129.242Z" fill="#A6C7F9"/>
    <path d="M750.252 134.216H740.09C739.482 134.216 738.988 133.594 738.988 132.834C738.988 132.074 739.482 131.452 740.09 131.452H750.252C750.857 131.452 751.354 132.074 751.354 132.834C751.354 133.594 750.857 134.216 750.252 134.216Z" fill="#A6C7F9"/>
    <path d="M801.488 156.308H791.33C790.722 156.308 790.225 155.686 790.225 154.929C790.225 154.169 790.722 153.548 791.33 153.548H801.488C802.096 153.548 802.593 154.169 802.593 154.929C802.593 155.686 802.096 156.308 801.488 156.308Z" fill="#A6C7F9"/>
    <path d="M801.488 161.18H791.33C790.722 161.18 790.225 160.558 790.225 159.798C790.225 159.038 790.722 158.416 791.33 158.416H801.488C802.096 158.416 802.593 159.038 802.593 159.798C802.593 160.558 802.096 161.18 801.488 161.18Z" fill="#A6C7F9"/>
    <path d="M856.038 136.287H845.88C845.272 136.287 844.774 135.665 844.774 134.905C844.774 134.145 845.272 133.523 845.88 133.523H856.038C856.646 133.523 857.143 134.145 857.143 134.905C857.143 135.665 856.646 136.287 856.038 136.287Z" fill="#A6C7F9"/>
    <path d="M856.038 141.155H845.88C845.272 141.155 844.774 140.534 844.774 139.773C844.774 139.013 845.272 138.392 845.88 138.392H856.038C856.646 138.392 857.143 139.013 857.143 139.773C857.143 140.534 856.646 141.155 856.038 141.155Z" fill="#A6C7F9"/>
    <path d="M850.632 292.483C850.632 279.852 858.823 269.613 868.924 269.613C879.025 269.613 887.213 279.852 887.213 292.483C887.213 305.115 879.025 315.354 868.924 315.354C858.823 315.354 850.632 305.115 850.632 292.483Z" fill="#F3F9FF"/>
    <path d="M885.662 292.483C885.662 304.044 878.169 313.418 868.924 313.418C864.558 313.418 860.583 311.328 857.607 307.909L868.924 292.483V271.549C878.169 271.549 885.662 280.923 885.662 292.483Z" fill="#C65447"/>
    <path d="M862.548 288.795H856.538C856.259 288.795 856.032 288.514 856.032 288.165C856.032 287.821 856.259 287.536 856.538 287.536H862.548C862.824 287.536 863.051 287.821 863.051 288.165C863.051 288.514 862.824 288.795 862.548 288.795Z" fill="#A6C7F9"/>
    <path d="M805.223 292.483C805.223 279.852 813.411 269.613 823.512 269.613C833.613 269.613 841.803 279.852 841.803 292.483C841.803 305.115 833.613 315.354 823.512 315.354C813.411 315.354 805.223 305.115 805.223 292.483Z" fill="#F3F9FF"/>
    <path d="M823.515 292.483L833.799 308.999C830.963 311.77 827.393 313.418 823.515 313.418C814.267 313.418 806.771 304.044 806.771 292.483C806.771 280.923 814.267 271.549 823.515 271.549C832.241 271.549 839.411 279.904 840.184 290.57L823.515 292.483Z" fill="#E57970"/>
    <path d="M836.404 297.659H832.22C831.942 297.659 831.717 297.374 831.717 297.03C831.717 296.681 831.942 296.401 832.22 296.401H836.404C836.679 296.401 836.907 296.681 836.907 297.03C836.907 297.374 836.679 297.659 836.404 297.659Z" fill="#A6C7F9"/>
    <path d="M850.632 355.478C850.632 342.846 858.823 332.607 868.924 332.607C879.025 332.607 887.213 342.846 887.213 355.478C887.213 368.11 879.025 378.352 868.924 378.352C858.823 378.352 850.632 368.11 850.632 355.478Z" fill="#F3F9FF"/>
    <path d="M885.662 355.478C885.662 367.039 878.169 376.412 868.924 376.412C864.558 376.412 860.583 374.327 857.607 370.904L868.924 355.478V334.547C878.169 334.547 885.662 343.917 885.662 355.478Z" fill="#EE9849"/>
    <path d="M862.548 351.793H856.538C856.259 351.793 856.032 351.508 856.032 351.16C856.032 350.815 856.259 350.531 856.538 350.531H862.548C862.824 350.531 863.051 350.815 863.051 351.16C863.051 351.508 862.824 351.793 862.548 351.793Z" fill="#A6C7F9"/>
    <path d="M805.223 355.478C805.223 342.846 813.411 332.607 823.512 332.607C833.613 332.607 841.803 342.846 841.803 355.478C841.803 368.11 833.613 378.352 823.512 378.352C813.411 378.352 805.223 368.11 805.223 355.478Z" fill="#F3F9FF"/>
    <path d="M840.184 353.568C839.411 342.902 832.241 334.547 823.515 334.547C814.267 334.547 806.771 343.917 806.771 355.478C806.771 367.039 814.267 376.412 823.515 376.412C827.393 376.412 830.963 374.765 833.799 371.993L823.515 355.478L840.184 353.568Z" fill="#C65447"/>
    <path d="M836.404 360.654H832.22C831.942 360.654 831.717 360.373 831.717 360.024C831.717 359.68 831.942 359.395 832.22 359.395H836.404C836.679 359.395 836.907 359.68 836.907 360.024C836.907 360.373 836.679 360.654 836.404 360.654Z" fill="#A6C7F9"/>
    <path d="M879.735 477.044H788.482V409.619H789.617V475.625H879.735V477.044Z" fill="#A6C7F9"/>
    <path d="M817.007 452.661C805.837 441.542 793.957 452.661 793.957 452.661V471.67H877.468V422.532C854.774 423.248 828.178 463.78 817.007 452.661" fill="#A6C7F9"/>
    <path d="M794.915 414.761H833.828C834.352 414.761 834.784 414.222 834.784 413.563C834.784 412.908 834.352 412.368 833.828 412.368H794.915C794.388 412.368 793.957 412.908 793.957 413.563C793.957 414.222 794.388 414.761 794.915 414.761Z" fill="#A6C7F9"/>
    <path d="M794.915 420.604H833.828C834.352 420.604 834.784 420.064 834.784 419.405C834.784 418.75 834.352 418.211 833.828 418.211H794.915C794.388 418.211 793.957 418.75 793.957 419.405C793.957 420.064 794.388 420.604 794.915 420.604Z" fill="#A6C7F9"/>
    <path d="M794.741 426.12H820.505C820.936 426.12 821.289 425.678 821.289 425.139V424.704C821.289 424.169 820.936 423.727 820.505 423.727H794.741C794.31 423.727 793.957 424.169 793.957 424.704V425.139C793.957 425.678 794.31 426.12 794.741 426.12Z" fill="#A6C7F9"/>
    <path d="M652.027 552.843H359.414V0.995102H652.027V552.843Z" fill="#D2E4FF"/>
    <path d="M623.274 360.238H387.688V31.865H623.274V360.238Z" fill="#F3F9FF"/>
    <path d="M392.695 465.154C392.695 435.891 411.666 412.17 435.064 412.17C458.465 412.17 477.434 435.891 477.434 465.154C477.434 494.414 458.465 518.135 435.064 518.135C411.666 518.135 392.695 494.414 392.695 465.154Z" fill="#F3F9FF"/>
    <path d="M470.878 465.154C470.878 440.418 454.845 420.364 435.067 420.364C415.284 420.364 399.25 440.418 399.25 465.154C399.25 489.886 415.284 509.94 435.067 509.94C443.237 509.94 450.766 506.521 456.788 500.761L435.067 465.154L468.534 481.126C470.049 476.164 470.878 470.779 470.878 465.154" fill="#EE9849"/>
    <path d="M537.053 465.154C537.053 435.891 556.022 412.17 579.423 412.17C602.824 412.17 621.792 435.891 621.792 465.154C621.792 494.414 602.824 518.135 579.423 518.135C556.022 518.135 537.053 494.414 537.053 465.154Z" fill="#F3F9FF"/>
    <path d="M579.423 420.364C559.639 420.364 543.608 440.418 543.608 465.154C543.608 477.396 547.531 488.485 553.898 496.567L579.423 465.154L612.892 481.126C614.404 476.164 615.237 470.779 615.237 465.154C615.237 440.418 599.203 420.364 579.423 420.364" fill="#EE9849"/>
    <path d="M574.188 442.414H558.945C558.346 442.414 557.855 443.029 557.855 443.778C557.855 444.527 558.346 445.137 558.945 445.137H574.188C574.787 445.137 575.278 444.527 575.278 443.778C575.278 443.029 574.787 442.414 574.188 442.414Z" fill="#DD7C2C"/>
    <path d="M574.188 446.729H558.945C558.346 446.729 557.855 447.339 557.855 448.088C557.855 448.837 558.346 449.451 558.945 449.451H574.188C574.787 449.451 575.278 448.837 575.278 448.088C575.278 447.339 574.787 446.729 574.188 446.729Z" fill="#DD7C2C"/>
    <path d="M565.24 451.039H558.945C558.346 451.039 557.855 451.653 557.855 452.402C557.855 453.151 558.346 453.762 558.945 453.762H565.24C565.839 453.762 566.327 453.151 566.327 452.402C566.327 451.653 565.839 451.039 565.24 451.039Z" fill="#DD7C2C"/>
    <path d="M429.539 442.414H414.293C413.694 442.414 413.203 443.029 413.203 443.778C413.203 444.527 413.694 445.137 414.293 445.137H429.539C430.138 445.137 430.626 444.527 430.626 443.778C430.626 443.029 430.138 442.414 429.539 442.414Z" fill="#DD7C2C"/>
    <path d="M429.539 446.729H414.293C413.694 446.729 413.203 447.339 413.203 448.088C413.203 448.837 413.694 449.451 414.293 449.451H429.539C430.138 449.451 430.626 448.837 430.626 448.088C430.626 447.339 430.138 446.729 429.539 446.729Z" fill="#DD7C2C"/>
    <path d="M420.588 451.039H414.293C413.694 451.039 413.203 451.653 413.203 452.402C413.203 453.151 413.694 453.762 414.293 453.762H420.588C421.187 453.762 421.678 453.151 421.678 452.402C421.678 451.653 421.187 451.039 420.588 451.039Z" fill="#DD7C2C"/>
    <path d="M408.666 342.88H433.525V149.218H408.666V342.88Z" fill="#A6C7F9"/>
    <path d="M449.394 342.88H474.253V95.238H449.394V342.88Z" fill="#A6C7F9"/>
    <path d="M493.833 342.88H518.695V196.05H493.833V342.88Z" fill="#A6C7F9"/>
    <path d="M537.077 342.88H561.936V128.299H537.077V342.88Z" fill="#A6C7F9"/>
    <path d="M580.546 224.789V342.88H605.405V224.789H580.546" fill="#A6C7F9"/>
    <path d="M560.759 100.38H539.706C538.509 100.38 537.526 101.608 537.526 103.106C537.526 104.604 538.509 105.829 539.706 105.829H560.759C561.957 105.829 562.937 104.604 562.937 103.106C562.937 101.608 561.957 100.38 560.759 100.38Z" fill="#A6C7F9"/>
    <path d="M544.501 110.293H539.706C538.509 110.293 537.526 111.517 537.526 113.015C537.526 114.513 538.509 115.738 539.706 115.738H544.501C545.699 115.738 546.678 114.513 546.678 113.015C546.678 111.517 545.699 110.293 544.501 110.293Z" fill="#A6C7F9"/>
    <path d="M474.005 58.2036H452.952C451.754 58.2036 450.772 59.4282 450.772 60.9262C450.772 62.4242 451.754 63.6526 452.952 63.6526H474.005C475.203 63.6526 476.182 62.4242 476.182 60.9262C476.182 59.4282 475.203 58.2036 474.005 58.2036Z" fill="#A6C7F9"/>
    <path d="M457.747 68.1166H452.952C451.754 68.1166 450.772 69.3413 450.772 70.8393C450.772 72.3373 451.754 73.5619 452.952 73.5619H457.747C458.944 73.5619 459.924 72.3373 459.924 70.8393C459.924 69.3413 458.944 68.1166 457.747 68.1166Z" fill="#A6C7F9"/>
    <path d="M516.791 167.146H495.738C494.54 167.146 493.561 168.37 493.561 169.868C493.561 171.366 494.54 172.595 495.738 172.595H516.791C517.989 172.595 518.968 171.366 518.968 169.868C518.968 168.37 517.989 167.146 516.791 167.146Z" fill="#A6C7F9"/>
    <path d="M500.532 177.059H495.738C494.54 177.059 493.561 178.283 493.561 179.781C493.561 181.279 494.54 182.504 495.738 182.504H500.532C501.73 182.504 502.709 181.279 502.709 179.781C502.709 178.283 501.73 177.059 500.532 177.059Z" fill="#A6C7F9"/>
    <path d="M603.503 196.05H582.45C581.252 196.05 580.27 197.278 580.27 198.776C580.27 200.274 581.252 201.499 582.45 201.499H603.503C604.701 201.499 605.681 200.274 605.681 198.776C605.681 197.278 604.701 196.05 603.503 196.05Z" fill="#A6C7F9"/>
    <path d="M587.245 205.963H582.45C581.252 205.963 580.27 207.187 580.27 208.685C580.27 210.183 581.252 211.408 582.45 211.408H587.245C588.443 211.408 589.422 210.183 589.422 208.685C589.422 207.187 588.443 205.963 587.245 205.963Z" fill="#A6C7F9"/>
    <path d="M106.071 210.176V360.736H319.929V210.176H106.071" fill="#AED3FF"/>
    <path d="M113.025 210.176V360.736H326.882V210.176H113.025" fill="#D2E4FF"/>
    <path d="M171.513 233.698C150.158 233.698 132.846 255.348 132.846 282.053C132.846 308.759 150.158 330.409 171.513 330.409C192.869 330.409 210.181 308.759 210.181 282.053C210.181 255.348 192.869 233.698 171.513 233.698Z" fill="#F3F9FF"/>
    <path d="M302.844 255.041H238.786C236.463 255.041 234.564 257.415 234.564 260.321C234.564 263.224 236.463 265.598 238.786 265.598H302.844C305.165 265.598 307.063 263.224 307.063 260.321C307.063 257.415 305.165 255.041 302.844 255.041Z" fill="#F3F9FF"/>
    <path d="M302.844 276.777H238.786C236.463 276.777 234.564 279.151 234.564 282.054C234.564 284.956 236.463 287.33 238.786 287.33H302.844C305.165 287.33 307.063 284.956 307.063 282.054C307.063 279.151 305.165 276.777 302.844 276.777Z" fill="#F3F9FF"/>
    <path d="M302.844 298.509H238.786C236.463 298.509 234.564 300.887 234.564 303.79C234.564 306.692 236.463 309.066 238.786 309.066H302.844C305.165 309.066 307.063 306.692 307.063 303.79C307.063 300.887 305.165 298.509 302.844 298.509Z" fill="#F3F9FF"/>
    <path d="M136.11 281.353H171.514V237.08C151.962 237.08 136.11 256.902 136.11 281.353" fill="#A8D29F"/>
    <path d="M206.916 282.776H136.11C136.11 307.227 151.962 327.05 171.513 327.05C171.514 327.05 171.514 327.05 171.514 327.05C191.066 327.05 206.916 307.227 206.916 282.776Z" fill="#F1A34F"/>
    <path d="M165.399 258.591H146.185C145.091 258.591 144.197 259.707 144.197 261.078C144.197 262.445 145.091 263.561 146.185 263.561H165.399C166.492 263.561 167.386 262.445 167.386 261.078C167.386 259.707 166.492 258.591 165.399 258.591Z" fill="#82B378"/>
    <path d="M150.561 267.635H146.185C145.091 267.635 144.197 268.755 144.197 270.122C144.197 271.489 145.091 272.605 146.185 272.605H150.561C151.654 272.605 152.548 271.489 152.548 270.122C152.548 268.755 151.654 267.635 150.561 267.635Z" fill="#82B378"/>
    <path d="M193.925 293.599H174.711C173.618 293.599 172.723 294.719 172.723 296.086C172.723 297.453 173.618 298.573 174.711 298.573H193.925C195.018 298.573 195.913 297.453 195.913 296.086C195.913 294.719 195.018 293.599 193.925 293.599Z" fill="#DD8936"/>
    <path d="M179.087 302.644H174.711C173.618 302.644 172.723 303.763 172.723 305.13C172.723 306.497 173.618 307.617 174.711 307.617H179.087C180.18 307.617 181.074 306.497 181.074 305.13C181.074 303.763 180.18 302.644 179.087 302.644Z" fill="#DD8936"/>
    <path d="M91.0089 387.696V541.672H304.865V387.696H91.0089Z" fill="#AED3FF"/>
    <path d="M97.963 387.696V541.672H311.822V387.696H97.963Z" fill="#D2E4FF"/>
    <path d="M117.781 459.93C117.781 433.224 135.093 411.574 156.449 411.574C177.804 411.574 195.116 433.224 195.116 459.93C195.116 486.635 177.804 508.285 156.449 508.285C135.093 508.285 117.781 486.635 117.781 459.93Z" fill="#F3F9FF"/>
    <path d="M223.72 443.474H287.777C290.098 443.474 292 441.096 292 438.194C292 435.291 290.098 432.917 287.777 432.917H223.72C221.399 432.917 219.5 435.291 219.5 438.194C219.5 441.096 221.399 443.474 223.72 443.474Z" fill="#F3F9FF"/>
    <path d="M287.777 454.649H223.72C221.399 454.649 219.5 457.027 219.5 459.93C219.5 462.832 221.399 465.206 223.72 465.206H287.777C290.098 465.206 292 462.832 292 459.93C292 457.027 290.098 454.649 287.777 454.649Z" fill="#F3F9FF"/>
    <path d="M287.777 476.385H223.72C221.399 476.385 219.5 478.76 219.5 481.662C219.5 484.564 221.399 486.942 223.72 486.942H287.777C290.098 486.942 292 484.564 292 481.662C292 478.76 290.098 476.385 287.777 476.385Z" fill="#F3F9FF"/>
    <path d="M156.449 460.713L121.049 460.151C121.046 460.338 121.046 460.529 121.046 460.713C121.046 485.164 136.897 504.986 156.449 504.986C163.439 504.986 169.956 502.45 175.445 498.076L156.449 460.713" fill="#F1A34F"/>
    <path d="M157.753 474.655H138.539C137.446 474.655 136.551 475.771 136.551 477.142C136.551 478.509 137.446 479.625 138.539 479.625H157.753C158.846 479.625 159.741 478.509 159.741 477.142C159.741 475.771 158.846 474.655 157.753 474.655Z" fill="#DD8936"/>
    <path d="M142.915 483.699H138.539C137.446 483.699 136.551 484.819 136.551 486.186C136.551 487.553 137.446 488.673 138.539 488.673H142.915C144.008 488.673 144.903 487.553 144.903 486.186C144.903 484.819 144.008 483.699 142.915 483.699Z" fill="#DD8936"/>
    <path d="M91.0089 45.9762V185.504H304.868V45.9762H91.0089Z" fill="#AED3FF"/>
    <path d="M97.963 45.9762V185.504H311.822V45.9762H97.963Z" fill="#D2E4FF"/>
    <path d="M117.781 117.79C117.781 91.0847 135.094 69.4349 156.449 69.4349C177.805 69.4349 195.117 91.0847 195.117 117.79C195.117 144.496 177.805 166.146 156.449 166.146C135.094 166.146 117.781 144.496 117.781 117.79" fill="#F3F9FF"/>
    <path d="M156.45 73.5207C136.898 73.5207 121.046 93.3392 121.046 117.79C121.046 134.538 128.487 149.117 139.459 156.637C145.13 143.5 156.45 117.79 156.45 117.79L173.213 156.791C184.31 149.316 191.85 134.654 191.85 117.79C191.85 93.3392 176.002 73.5207 156.45 73.5207Z" fill="#A8D29F"/>
    <path d="M287.777 90.7776H223.72C221.399 90.7776 219.5 93.1519 219.5 96.0543C219.5 98.9604 221.399 101.335 223.72 101.335H287.777C290.098 101.335 292 98.9604 292 96.0543C292 93.1519 290.098 90.7776 287.777 90.7776Z" fill="#F3F9FF"/>
    <path d="M287.777 112.514H223.72C221.399 112.514 219.5 114.888 219.5 117.79C219.5 120.693 221.399 123.067 223.72 123.067H287.777C290.098 123.067 292 120.693 292 117.79C292 114.888 290.098 112.514 287.777 112.514Z" fill="#F3F9FF"/>
    <path d="M287.777 134.246H223.72C221.399 134.246 219.5 136.62 219.5 139.523C219.5 142.429 221.399 144.803 223.72 144.803H287.777C290.098 144.803 292 142.429 292 139.523C292 136.62 290.098 134.246 287.777 134.246Z" fill="#F3F9FF"/>
    <path d="M157.754 96.6461H138.539C137.446 96.6461 136.552 97.7658 136.552 99.1327C136.552 100.5 137.446 101.616 138.539 101.616H157.754C158.847 101.616 159.741 100.5 159.741 99.1327C159.741 97.7658 158.847 96.6461 157.754 96.6461Z" fill="#82B378"/>
    <path d="M142.915 105.69H138.539C137.446 105.69 136.552 106.81 136.552 108.177C136.552 109.544 137.446 110.664 138.539 110.664H142.915C144.009 110.664 144.903 109.544 144.903 108.177C144.903 106.81 144.009 105.69 142.915 105.69Z" fill="#82B378"/>
    <path d="M361.424 286.937C361.424 286.937 386.37 319.144 387.568 331.285C388.766 343.43 375.7 362.425 375.7 362.425L361.424 286.937Z" fill="#E58638"/>
    <path d="M350.759 621.017C350.759 621.017 349.909 638.139 347.262 638.383C346.908 638.416 333.827 638.416 333.827 638.416L317.129 638.297C317.129 638.297 317.236 633.263 322.118 632.2C326.999 631.136 335.172 626.844 338.128 618.778C341.239 610.292 350.759 621.017 350.759 621.017Z" fill="#163560"/>
    <path d="M387.954 621.017C387.954 621.017 387.103 638.139 384.456 638.383C384.103 638.416 371.022 638.416 371.022 638.416L354.272 638.342C354.272 638.342 354.434 633.263 359.313 632.2C364.194 631.136 372.367 626.844 375.322 618.778C378.434 610.292 387.954 621.017 387.954 621.017Z" fill="#163560"/>
    <path d="M332.264 437.426C332.264 437.426 336.633 472.359 352.925 534.369C369.219 596.375 371.438 623.227 371.438 623.227C371.438 623.227 375.846 624.028 380.5 624.028C383.444 624.028 388.915 622.616 388.915 622.616C388.915 622.616 389.065 554.847 381.557 523.666C374.049 492.485 379.937 411.252 379.937 411.252L332.264 437.426Z" fill="#163560"/>
    <path d="M323.759 413.166C323.759 413.166 323.142 465.802 330.425 530.437C337.705 595.068 335.238 622.504 335.238 622.504C335.238 622.504 341.233 623.845 343.342 623.935C345.594 624.028 352.682 623.227 352.682 623.227C352.682 623.227 363.107 558.573 360.118 526.224C357.129 493.875 374.391 415.215 374.391 415.215L323.759 413.166" fill="#1C468A"/>
    <path d="M357.528 289.982L349.301 297.603L337.409 294.472C337.574 293.116 338.358 287.495 339.074 282.406C339.116 282.106 339.161 281.806 339.2 281.511C339.814 277.181 340.341 273.459 340.341 273.459L351.448 266.538L355.587 263.958C355.578 264.048 355.267 268.763 355.225 269.452C354.446 281.675 357.528 289.982 357.528 289.982" fill="#FFB27D"/>
    <path d="M338.242 286.136C338.502 286.001 354.416 280.129 356.144 280.84C357.875 281.555 358.896 285.739 358.896 285.739L332.869 293.098C332.869 293.098 334.917 287.888 338.242 286.136" fill="#E58638"/>
    <path d="M381.093 419.664C378.398 435.052 333.504 436.876 321.932 422.907C320.615 421.315 320.552 413.907 321.049 403.92C322.019 384.408 325.137 355.055 325.259 340.056C325.316 332.813 326.113 325.406 327.173 318.68C329.428 304.344 332.866 293.094 332.866 293.094C332.866 293.094 354.793 284.229 358.896 285.739C378.664 293 383.791 404.275 381.093 419.664" fill="#EE9849"/>
    <path d="M321.049 403.92C322.019 384.408 325.137 355.055 325.259 340.056C325.316 332.813 326.113 325.406 327.173 318.68L340.365 315.77C340.365 315.77 353.26 381.641 321.049 403.92Z" fill="#E58638"/>
    <path d="M328.191 376.72C328.191 376.72 329.09 379.408 327.2 381.214C325.313 383.019 324.089 385.94 324.52 388.078C324.954 390.213 329.096 393.699 330.53 393.138C331.968 392.576 334.887 389.76 334.573 388.632C334.259 387.509 336.541 378.746 333.04 375.371C329.539 371.997 328.191 376.72 328.191 376.72Z" fill="#FFB27D"/>
    <path d="M342.94 289.147C342.94 289.147 330.075 292.158 319.824 311.047C309.576 329.937 302.832 343.981 304.718 350.789C306.608 357.598 323.819 381.21 326.787 381.21C329.754 381.21 334.543 378.51 334.813 372.439C334.813 372.439 322.693 349.726 325.08 346.325C326.101 344.872 340.814 329.937 342.913 336.682C346.387 347.846 342.94 289.147 342.94 289.147Z" fill="#EE9849"/>
    <path d="M354.389 269.669C351.951 275.504 342.865 280.552 339.074 282.406C339.116 282.106 339.161 281.806 339.2 281.51C339.814 277.181 340.341 273.459 340.341 273.459L351.448 266.538C353.901 266.489 355.395 267.268 354.389 269.669" fill="#FCA56B"/>
    <path d="M336.765 273.777C336.765 273.777 353.203 280.188 356.24 267.324C359.274 254.46 363.442 246.626 353.074 241.986C342.707 237.349 339.499 241.503 337.652 245.487C335.801 249.472 332.567 271.777 336.765 273.777" fill="#FFB27D"/>
    <path d="M338.295 244.248C338.295 244.248 339.344 259.217 341.82 258.569C344.294 257.917 346.54 257.434 346.178 261.947C345.815 266.459 342.383 271.669 350.011 272.47C357.642 273.268 368.608 248.663 366.512 244.004C360.466 230.564 329.557 227.848 338.295 244.248Z" fill="#163560"/>
    <path d="M42.3196 592.098L47.3241 618.459L54.8209 618.407L55.0958 592.098H42.3196Z" fill="#FFB27D"/>
    <path d="M105.377 593.222L119.617 618.459L125.168 609.546L116.597 589.754L105.377 593.222Z" fill="#FFB27D"/>
    <path d="M68.355 245.712C65.7672 243.873 62.6656 243.675 60.4965 243.832C61.0553 243.113 62.1538 242.851 62.1538 242.851C60.8086 242.6 57.806 244.266 57.806 244.266C39.0949 235.252 36.1541 269.706 36.5473 277.709C36.9375 285.712 30.2595 288.326 20.5246 294.633C1.9506 306.666 0.319061 322.78 0.319061 322.78C0.463707 322.885 0.614642 323.009 0.775459 323.147C1.69694 321.192 3.59411 317.526 5.1939 316.976C5.1334 317.152 3.30332 322.02 2.62052 324.814C8.10029 330.027 18.351 341.576 25.4952 349.763C25.4635 348.164 25.5144 345.891 25.9819 344.692L26.8647 351.34C30.6875 355.733 33.3238 358.826 33.3238 358.826C32.8515 352.358 56.7171 318.223 69.1684 307.999C72.1993 302.419 73.2768 292.562 73.3574 291.787C72.8342 299.603 71.7648 303.988 70.8092 306.456C81.3527 294.318 75.2144 250.588 68.355 245.712" fill="#163560"/>
    <path d="M68.4313 308.508C68.4936 308.542 62.4194 312.489 57.8506 310.924C53.5529 309.459 50.7447 302.49 50.804 302.475C52.6242 302.022 53.1489 298.895 53.1102 285.454L53.9329 285.656L67.7674 289.083C67.7674 289.083 67.4526 294.528 67.4433 299.659C67.4341 303.965 67.6428 308.048 68.4313 308.508" fill="#FFB27D"/>
    <path d="M52.7865 251.356C52.7865 251.356 59.6113 242.27 68.1792 250.891C68.1792 250.891 63.1927 249.813 52.7865 251.356Z" fill="#E37970"/>
    <path d="M67.7674 289.083C67.7674 289.083 67.4526 294.528 67.4433 299.659C59.7017 299.385 55.6097 290.555 53.933 285.656L67.7674 289.083Z" fill="#D68D5D"/>
    <path d="M52.5042 283.776C52.5042 283.776 48.4472 275.758 47.4736 268.905C46.7782 264.01 48.7715 245.869 63.3478 248.483C63.3478 248.483 67.5814 249.004 71.5608 252.367C74.7256 255.041 79.2929 260.808 74.1863 276.638L72.8596 281.986L52.5042 283.776Z" fill="#163560"/>
    <path d="M122.908 602.629L115.575 602.91L107.637 603.213C107.637 603.213 89.302 577.687 79.0174 536.766C78.7773 535.815 78.5248 534.848 78.2568 533.875C72.6285 513.352 60.9601 487.59 54.811 464.274C53.8323 460.559 52.9533 457.065 52.1648 453.754C51.9127 452.694 51.6662 451.653 51.4326 450.627C46.901 430.94 45.589 418.012 44.3797 404.2L88.7815 404.642C88.7815 404.642 95.9497 498.96 122.908 602.629" fill="#80BDCC"/>
    <path d="M82.5656 372.739C82.4536 399.16 85.6649 410.496 85.6649 410.496C85.6649 410.496 66.654 422.577 44.059 413.683C43.7927 413.578 25.3499 408.316 25.3499 408.316C25.7285 407.245 29.091 389.441 29.4593 388.46C34.2296 375.649 37.8521 370.031 38.4181 366.091C39.4674 358.74 39.4905 351.13 38.9673 343.955C37.5888 324.96 33.4884 309.19 33.4884 309.19C39.645 307.441 45.5698 304.445 51.9777 301.438C53.4517 303.733 57.7979 306.051 61.7064 305.943C66.2071 305.819 67.6126 303.437 67.4476 300.756C72.2439 304.097 76.0565 307.269 76.0565 307.269C80.133 316.126 88.4003 324.724 88.9989 338.307C89.1471 341.648 82.5686 371.997 82.5656 372.739" fill="#E7F1FD"/>
    <path d="M44.3794 375.682C42.4382 379.12 38.7172 399.999 29.4593 402.624C34.2296 387.741 37.8521 381.217 38.4181 376.641C39.4674 368.102 39.4905 359.264 38.9673 350.928C42.0665 344.134 44.3794 339.479 44.3794 339.479C44.6228 338.378 49.3045 320.279 50.8046 336.457C52.3017 352.643 46.5476 371.84 44.3794 375.682" fill="#5F9AA8"/>
    <path d="M70.3528 293.94C70.3528 293.94 52.0363 294.318 52.0238 280.05C52.0112 265.781 49.6384 256.22 61.3326 255.378C73.0268 254.531 75.3037 259.973 76.2342 264.737C77.1646 269.496 75.1171 293.476 70.3528 293.94Z" fill="#FFB27D"/>
    <path d="M75.6896 256.801C72.8629 252.517 70.7256 253.449 69.5256 254.737C65.5674 247.341 53.0572 258.037 53.0572 258.037C51.8321 268.276 45.9286 274.137 45.9286 274.137C45.9286 274.137 49.2671 276.717 56.9636 274.241C63.0207 272.294 67.4161 261.512 69.0141 257.011C70.103 258.22 72.4017 261.018 73.0905 263.759C74.0033 267.392 74.4142 274.871 76.1574 274.616C76.1574 274.616 79.9356 263.239 75.6896 256.801" fill="#163560"/>
    <path d="M47.0726 616.984C47.0726 616.984 47.6763 622.204 46.1182 627.792C46.1182 627.792 44.8909 634.784 50.3967 634.915C55.9026 635.042 57.2532 634.394 56.63 630.106C56.0068 625.818 54.8209 618.407 54.8209 618.407L47.0726 616.984" fill="#FFB27D"/>
    <path d="M57.1496 638.345C57.1496 638.345 57.1436 638.349 57.1316 638.36H45.7397C45.7277 638.349 45.7217 638.345 45.7217 638.345C45.0988 634.686 46.117 627.799 46.117 627.799C52.352 635.252 56.2541 627.612 56.2541 627.612C57.2664 630.799 57.1496 638.345 57.1496 638.345" fill="#C45446"/>
    <path d="M138.436 631.132C138.436 631.132 128.284 616.718 125.167 609.546L117.619 614.385L134.492 634.2L138.44 633.548L138.436 631.132" fill="#FFB27D"/>
    <path d="M144.662 638.319H130.578C129.338 636.922 128.155 634.106 126.705 630.413C125.876 628.298 124.016 627.133 122.108 626.492V638.319H119.195L116.496 625.743C114.699 621.53 116.049 617.665 117.313 614.336C118.783 614.332 123.049 615.662 130.548 626.436C133.012 629.975 135.731 631.237 138.436 631.132C138.472 631.162 138.511 631.189 138.547 631.207C142.817 633.657 144.21 636.668 144.662 638.319" fill="#C45446"/>
    <path d="M143.979 317.62C143.979 317.62 131.955 326.027 127.661 328.45C126.133 329.312 123.366 330.922 120.539 332.574C118.832 333.57 117.104 334.585 115.61 335.465C113.085 336.948 110.082 336.135 108.267 333.484C101.756 323.979 84.9078 303.374 67.5077 300.79L67.4475 300.756C67.4475 300.756 67.4502 300.767 67.4553 300.782C67.4481 300.782 67.4407 300.778 67.4335 300.778L67.5296 301.014C68.5077 304.055 78.0462 333.858 78.3421 340.142C78.6535 346.767 79.5885 448.489 79.5885 448.489C79.5885 448.489 78.9653 453.166 86.1335 451.219C93.3014 449.268 95.1713 447.32 95.1713 447.32C95.1713 447.32 88.3149 384.573 90.1851 362.747C90.5519 358.466 90.2207 353.65 89.455 348.681C100.052 356.71 112.546 360.279 112.546 360.279C112.546 360.279 117.206 357.736 124.447 352.126C127.487 349.767 131.013 346.007 134.483 342.03C138.675 337.221 145.89 325.612 145.89 325.612L143.979 317.62" fill="#E37970"/>
    <path d="M115.575 602.91L107.637 603.213C107.637 603.213 89.3019 577.687 79.0174 536.766C78.7772 535.815 78.5247 534.848 78.2567 533.875C72.6284 513.352 60.96 487.59 54.8109 464.274C53.8323 460.559 52.9533 457.065 52.1648 453.754C51.9126 452.694 51.6662 451.653 51.4326 450.627L57.971 444.425C57.971 444.425 77.6024 484.179 83.6796 521.587C88.959 554.083 110.102 593.184 115.575 602.91" fill="#5F9AA8"/>
    <path d="M58.6535 525.07C58.7658 543.263 58.0303 585.091 56.1355 602.408H49.1045C45.2182 602.408 43.2797 602.337 43.2797 602.337C38.5268 572.231 35.1454 547.319 32.6831 525.853C30.6638 508.236 28.8685 493.133 27.4879 480.13C26.098 467.049 25.1319 456.091 24.786 446.837C24.7327 445.38 24.6926 443.961 24.6704 442.583C24.6489 441.201 24.6426 439.857 24.6519 438.55L63.0168 433.876C62.5337 465.749 58.5912 514.498 58.6535 525.07Z" fill="#80BDCC"/>
    <path d="M49.1045 602.408C45.2182 602.408 43.2797 602.337 43.2797 602.337C38.5268 572.231 35.1454 547.319 32.6831 525.853C30.6638 508.237 28.8684 493.133 27.4879 480.13C26.098 467.049 25.1319 456.091 24.786 446.837L38.8634 457.192C38.8634 457.192 29.8783 461.154 33.3066 491.167C36.735 521.175 44.333 598.158 49.1045 602.408" fill="#5F9AA8"/>
    <path d="M50.9163 446.542C50.9163 446.542 48.2142 458.75 38.8643 457.192C29.5147 455.634 16.2193 448.62 16.2193 448.62C16.2193 448.62 20.2149 432.831 25.1825 412.087C31.1978 386.977 38.6433 354.605 42.1522 334.188C43.1372 328.465 43.8104 323.69 44.0599 320.268L51.9777 301.438C51.9777 301.438 63.3825 333.907 64.0057 342.093C64.6292 350.276 50.9163 446.542 50.9163 446.542" fill="#E37970"/>
    <path d="M84.3079 351.227C79.808 351.969 78.0824 354.957 77.5266 358.991C77.2271 361.17 76.3299 363.32 75.5674 364.84C71.0849 365.14 60.4102 365.867 51.4416 366.578L50.7019 381.288C58.0692 380.143 67.1232 377.806 77.5425 373.345C78.343 373.173 79.3438 372.551 80.5971 371.267C87.0537 364.653 90.719 353.579 90.7304 351.995C90.7418 350.407 88.8075 350.49 84.3079 351.227Z" fill="#FFB27D"/>
    <path d="M50.5015 359.242C50.084 372.491 47.5909 398.212 25.3604 411.983C25.3011 412.016 25.2418 412.057 25.1825 412.087C31.1977 386.977 38.6433 354.605 42.1522 334.188C46.2352 341.82 50.7291 351.943 50.5015 359.242Z" fill="#C45446"/>
    <path d="M51.9777 301.438C51.9777 301.438 32.9617 303.123 28.3908 315.856C23.8199 328.585 22.3654 370.937 28.1829 383.408C28.1829 383.408 36.1924 386.262 50.3584 382.951C50.5321 382.91 50.7067 382.869 50.8819 382.824C50.8819 382.824 55.4012 368.99 51.3494 366.26C51.3494 366.26 39.4027 367.042 40.6492 362.103C41.8959 357.167 51.9777 301.438 51.9777 301.438" fill="#E37970"/>
    <path d="M156.87 307.628C146.639 305.984 144.057 317.62 144.057 317.62L145.967 325.611C149.121 326.158 151.881 325.128 154.423 320.578C156.966 316.028 157.666 317.777 159.282 314.392C161.475 309.8 158.044 308.089 156.87 307.628" fill="#FFB27D"/>
    <path d="M127.661 328.45C126.133 329.312 123.366 330.922 120.539 332.574C122.051 335.933 123.944 342.037 124.447 352.126C127.487 349.767 131.423 345.838 134.782 341.715C140.173 335.101 145.89 325.612 145.89 325.612L143.979 317.62C143.979 317.62 131.955 326.027 127.661 328.45" fill="#FFB27D"/>
    <path d="M670.376 421.15C670.376 421.15 663.102 423.487 658.478 421.746C653.851 420.001 645.894 422.862 644.612 424.97C643.33 427.082 643.801 427.918 646.089 428.648C648.373 429.374 656.477 433.696 661.805 431.194C667.13 428.693 674.074 428.603 674.074 428.603L670.376 421.15Z" fill="#E49963"/>
    <path d="M733.25 342.123C733.25 342.123 725.078 414.758 711.545 421.263C704.869 424.476 675.359 431.752 666.629 432.483C666.629 432.483 664.491 430.314 665.012 421.484C665.012 421.484 695.93 407.286 700.32 399.568C706.858 388.082 696.262 352.635 704.465 341.846C712.668 331.057 726.482 326.417 733.25 342.123" fill="#4A75CB"/>
    <path d="M732.205 621.995V606.157H752.144C752.683 606.157 753.123 605.606 753.123 604.936V602.397C753.123 601.727 752.683 601.172 752.144 601.172H732.205V511.023C732.205 508.495 730.552 506.424 728.528 506.424H724.584C722.559 506.424 720.906 508.495 720.906 511.023V601.172H700.967C700.428 601.172 699.988 601.727 699.988 602.397V604.936C699.988 605.606 700.428 606.157 700.967 606.157H720.906V621.995C706.48 623.358 694.921 629.852 691.677 638.244H761.434C758.19 629.852 746.631 623.358 732.205 621.995Z" fill="#2B478B"/>
    <path d="M730.495 495.151C728.111 500.211 725.356 504.948 722.514 509.435C713.73 523.303 704.168 534.736 702.503 545.544C702.171 547.698 701.647 550.016 700.958 552.461C700.263 554.937 699.404 557.539 698.409 560.228C694.684 570.355 689.108 581.698 683.544 592.012C673.922 609.838 664.877 624.713 664.877 624.713L648.287 623.83C648.951 621.751 656.187 597.135 665.866 567.055C669.798 554.843 673.975 541.855 678.009 529.328C678.545 527.654 679.084 525.992 679.615 524.34C680.848 520.505 682.061 516.73 683.247 513.056C692.336 484.812 699.574 462.319 699.574 462.319C699.574 462.319 735.903 445.111 739.677 456.263C742.785 465.457 740.252 474.464 730.495 495.151Z" fill="#163560"/>
    <path d="M664.359 620.942C664.359 620.942 663.509 638.061 660.862 638.308C660.508 638.341 647.427 638.341 647.427 638.341L630.728 638.218C630.728 638.218 630.836 633.188 635.718 632.125C640.599 631.061 648.769 626.769 651.728 618.703C654.836 610.217 664.359 620.942 664.359 620.942Z" fill="#163560"/>
    <path d="M702.776 572.033C702.776 572.033 714.314 581.305 713.194 584.316C713.045 584.717 706.669 599 706.669 599L698.442 617.175C698.442 617.175 694.984 614.602 696.619 608.756C698.257 602.906 699.245 591.896 695.052 584.732C690.644 577.201 702.776 572.033 702.776 572.033Z" fill="#163560"/>
    <path d="M687.161 454.151C687.161 454.151 641.563 489.673 636.472 513.539C631.384 537.41 697.131 588.331 697.131 588.331C697.131 588.331 704.342 580.376 705.612 574.542C705.612 574.542 675.895 530.017 669.447 520.037C665.488 513.907 727.989 498.818 735.622 483.965C743.259 469.113 740.525 456.616 740.525 456.616L687.161 454.151" fill="#1C468A"/>
    <path d="M773.218 499.761H679.893C678.027 499.761 676.5 501.671 676.5 504.005V527.347C676.5 529.68 678.027 531.59 679.893 531.59H773.218C775.084 531.59 776.611 529.68 776.611 527.347V504.005C776.611 501.671 775.084 499.761 773.218 499.761Z" fill="#EE9849"/>
    <path d="M708.247 329.671C703.767 333.139 701.299 337.543 701.299 337.543C712.224 341.078 730.334 328.417 730.334 328.417C730.334 328.417 723.302 322.511 720.696 309.527C720.565 308.871 720.445 308.201 720.34 307.512C719.999 305.329 719.786 302.958 719.747 300.404L714.731 306.025L706.385 315.376C706.385 315.376 706.573 319.256 707.618 325.926C707.801 327.091 708.008 328.342 708.247 329.671" fill="#E49963"/>
    <path d="M741.848 394.115C740.285 420.435 742.917 460.447 741.141 467.379C739.608 473.356 721.58 469.817 714.614 467.821C712.036 467.083 708.912 466.027 705.687 464.78C696.688 461.293 686.883 456.32 685.829 452.623C685.79 452.481 685.754 452.339 685.733 452.2C685.637 451.665 685.658 451.159 685.751 450.65C686.101 448.77 687.455 446.732 687.613 442.07C687.79 436.864 687.763 430.738 687.922 424.146C687.928 423.401 687.937 422.592 688 421.854L688.003 421.585C688.006 421.442 688.009 421.304 688.012 421.162C688.165 413.814 688.47 406.084 688.826 398.422C689.054 393.606 689.315 388.842 689.617 384.273C690.402 372.484 691.459 362.002 692.86 355.373C695.148 344.569 700.191 337.521 704.782 332.356L708.104 328.795C711.808 329.806 716.189 329.136 720.151 326.788C724.44 324.241 725.922 322.417 726.668 323.106C736.574 332.66 743.696 361.942 741.848 394.115Z" fill="#739AF0"/>
    <path d="M705.738 464.832C696.739 461.345 686.934 456.372 685.883 452.676C685.841 452.533 685.805 452.391 685.784 452.253C685.79 451.736 685.796 451.219 685.802 450.702C686.155 448.822 687.506 446.785 687.664 442.122C687.841 436.917 687.814 430.79 687.973 424.199C687.979 423.454 687.988 422.645 688.054 421.907L688.057 421.637C688.06 421.495 688.06 421.356 688.063 421.214L722.053 401.939C722.053 401.939 724.012 436.198 705.738 464.832" fill="#4A75CB"/>
    <path d="M706.384 315.377C706.384 315.377 706.573 319.256 707.618 325.926C715.767 322.634 719.462 313.433 720.696 309.527C721.047 308.426 721.199 307.744 721.199 307.744C721.199 307.744 720.885 307.658 720.34 307.512C719.193 307.209 717.037 306.636 714.731 306.025L706.384 315.377Z" fill="#D68D5D"/>
    <path d="M703.087 315.272C703.087 315.272 720.987 317.8 722.074 303.834C723.158 289.869 726.201 280.788 714.818 278.586C703.435 276.384 700.796 281.443 699.527 285.993C698.257 290.543 698.458 314.257 703.087 315.272" fill="#E49963"/>
    <path d="M721.996 304.797C721.996 304.797 720.861 286.259 704.567 284.338C693.405 283.024 699.628 271.01 700.817 269.096C700.817 269.096 709.37 270.56 718.133 272.373C736.533 276.174 723.802 301.91 721.996 304.797Z" fill="#2B478B"/>
    <path d="M635.346 439.351L633.78 439.988L620.448 388.677L622.014 388.041L635.346 439.351Z" fill="#4A75CB"/>
    <path d="M678.983 435.393L633.72 436.602L633.78 439.988L679.04 438.782L678.983 435.393" fill="#4A75CB"/>
    <path d="M674.119 432.318C674.119 432.318 667.097 435.643 662.347 434.546C657.594 433.453 649.937 437.396 648.85 439.669C647.763 441.939 648.302 442.707 650.64 443.115C652.976 443.523 661.413 446.702 666.486 443.482C671.559 440.261 678.453 439.212 678.453 439.212L674.119 432.318" fill="#E49963"/>
    <path d="M729.645 345.104C729.645 345.104 727.926 418.424 715.048 426.753C708.696 430.865 680.007 442.167 671.394 444.096C671.394 444.096 669.079 442.235 668.819 433.389C668.819 433.389 698.296 415.016 701.979 406.74C707.466 394.418 693.81 360.65 701.012 348.797C708.211 336.94 721.535 330.428 729.645 345.104" fill="#739AF0"/>
    <path d="M927.738 640.581H9.96419C9.47186 640.581 9.06906 640.075 9.06906 639.461C9.06906 638.843 9.47186 638.341 9.96419 638.341H927.738C928.229 638.341 928.633 638.843 928.633 639.461C928.633 640.075 928.229 640.581 927.738 640.581Z" fill="#202F4E"/>
    </svg>
