<svg width="963" height="660" viewBox="0 0 963 660" fill="none" xmlns="http://www.w3.org/2000/svg">
<path d="M796.074 139.14C796.581 137.131 798.102 137.733 798.102 137.733C798.102 137.733 812.199 142.555 825.6 147.085C823.75 140.928 821.083 135.617 819.309 132.453C818.928 132.701 818.496 132.854 818.035 132.854C816.555 132.854 815.356 131.427 815.356 129.667C815.356 129.204 815.443 128.766 815.593 128.369C814.711 127.553 813.634 126.487 812.608 125.315C810.782 123.216 812.678 120.728 811.698 119.096C810.719 117.464 809.607 116.453 808.495 114.51C807.383 112.567 805.949 110.469 804.641 107.748C803.333 105.027 803.984 100.675 803.984 100.675C804.837 105.493 806.795 107.359 806.795 107.359C805.684 105.883 804.641 100.286 804.641 100.286L805.62 99.1201C807.32 100.442 810.782 110.158 810.454 108.836C810.131 107.515 808.887 103.629 808.167 102.54C807.446 101.452 806.271 98.4203 806.271 98.4203L807.971 96.8659L809.215 99.1976C809.215 99.1976 808.495 96.7884 808.754 96.2442C809.019 95.7 809.734 95.3896 809.734 95.3896C809.734 95.3896 809.411 94.8454 810.258 96.0887C811.11 97.3326 811.761 102.54 811.761 102.54C812.482 99.6643 811.502 95.0784 811.502 95.0784C812.412 97.4882 812.873 99.8199 812.741 102.54C812.608 105.26 814.7 109.691 814.7 109.691C815.224 112.256 816.272 115.365 816.664 116.765C817.056 118.163 816.86 119.485 816.791 120.495C816.728 121.506 816.86 122.128 817.574 123.527C818.012 124.378 818.306 125.658 818.467 126.533C819.741 126.779 820.714 128.084 820.714 129.667C820.714 130.788 820.225 131.769 819.487 132.337C823.117 137.911 825.323 142.987 826.625 147.431C836.223 150.674 845.262 153.699 848.258 154.609C855.517 156.82 859.066 159.029 859.066 159.029C856.698 182.736 848.085 223.52 848.085 223.52C846.397 221.712 831.032 217.292 830.186 217.292C829.344 217.292 825.796 218.297 825.122 218.095C824.447 217.894 823.768 219.1 814.988 216.89C806.208 214.68 802.659 207.648 802.659 207.648C800.297 206.845 784.926 201.22 784.926 201.22C784.926 201.22 795.567 141.148 796.074 139.14" fill="#B8BABB"/>
<path d="M584.186 271.807C586.162 271.165 585.626 269.454 585.626 269.454L580.591 266.672C580.591 266.672 574.651 269.881 572.854 272.236C571.056 274.589 571.056 273.519 571.056 273.519C571.056 273.519 570.699 272.021 571.777 270.31C572.854 268.598 572.854 266.031 573.217 264.105C573.574 262.18 574.473 257.259 575.55 257.259C576.633 257.259 583.645 255.333 585.442 254.906C587.239 254.477 588.144 250.841 589.941 248.059C591.739 245.277 599.113 232.869 599.833 231.799C600.548 230.73 602.887 226.664 603.97 226.023C603.97 226.023 611.35 237.168 618.937 248.62C619.409 240.55 618.349 230.823 612.421 223.456C607.029 216.758 604.609 212.266 603.618 208.895C603.555 208.898 603.492 208.907 603.428 208.907C600.45 208.907 598.03 206.033 598.03 202.488C598.03 202.08 598.07 201.682 598.128 201.294C597.604 200.537 597.056 199.692 596.515 198.762C594.568 195.404 595.075 194.823 594.787 191.789C594.498 188.754 594.21 187.591 594.279 185.526C594.354 183.46 593.991 181.458 593.559 179.651C593.127 177.843 593.271 176.229 593.052 174.42C592.839 172.613 591.9 170.676 591.537 169.707C591.18 168.739 590.817 167.254 590.604 166.286C590.385 165.317 590.892 163.316 590.892 163.316C590.892 163.316 591.105 164.284 591.612 166.802C592.119 169.32 592.62 168.674 593.271 169.449C593.922 170.224 594.354 171.322 594.498 172.678C594.642 174.033 597.31 181.716 596.803 180.038C596.302 178.359 596.014 176.099 595.795 174.485C595.576 172.871 594.498 170.353 593.703 168.739C592.908 167.125 592.407 163.574 592.764 163.057C593.127 162.541 595.651 162.412 595.651 162.412C595.651 162.412 597.379 166.479 597.379 166.156C597.379 165.833 596.371 162.347 596.371 162.347L597.379 162.218C597.379 162.218 598.537 162.089 598.75 162.928C598.969 163.768 598.894 172.161 598.894 172.161L599.47 172.484C599.545 172.226 600.052 171.257 599.545 168.481C599.038 165.704 600.052 162.476 600.052 162.476C600.052 162.476 599.908 163.896 600.121 166.414C600.34 168.933 601.129 169.061 601.348 170.934C601.504 172.284 601.101 174.867 600.859 176.209C601.135 175.591 601.729 174.828 602.431 172.548C603.44 169.255 602.143 166.802 602.143 166.802C603.152 168.029 604.235 167.706 602.864 171.709C601.492 175.712 599.62 186.107 603.515 193.08C604.223 194.351 604.771 195.461 605.203 196.434C607.311 197.308 608.821 199.686 608.821 202.488C608.821 205.398 607.196 207.853 604.961 208.64C605.923 211.726 607.542 215.217 610.261 218.534C617.053 226.812 620.637 233.644 619.335 249.217C624.537 257.069 629.774 264.977 632.741 269.454C640.115 280.579 638.675 283.574 637.419 286.57C636.157 289.565 625.188 314.383 619.795 317.378L610.082 302.188C610.082 302.188 605.047 303.471 601.089 301.76C597.131 300.048 592.638 297.909 590.662 296.839C588.68 295.769 584.186 293.63 582.389 292.56C580.591 291.49 573.574 281.221 572.497 279.937C571.419 278.654 570.515 278.44 570.515 278.44C570.515 278.44 582.204 272.449 584.186 271.807" fill="#B8BABB"/>
<path d="M545.333 66.8124C546.376 52.3742 546.024 50.3118 546.024 50.3118C546.024 50.3118 552.097 47.4243 554.868 47.8369C554.868 47.8369 559.033 28.4488 559.551 25.9732C560.07 23.4983 560.94 22.0549 561.286 24.7361C561.286 24.7361 576.731 33.5364 589.849 41.43C599.372 28.9642 595.437 21.314 592.712 18.1612C592.384 18.6848 591.86 19.0282 591.272 19.0282C590.276 19.0282 589.463 18.0666 589.463 16.8802C589.463 16.7993 589.481 16.7226 589.486 16.6445C588.553 15.589 587.303 14.2401 586.076 13.6534C584.117 12.7192 579.675 4.44736 580.413 4.91411C581.156 5.38154 581.899 7.04908 581.951 7.31569C582.003 7.58231 587.453 12.3855 587.453 12.3855C587.453 12.3855 586.709 11.585 586.076 10.718C585.442 9.85097 585.016 8.91674 584.751 8.04974C584.491 7.18273 583.005 5.91476 582.106 5.31436C581.208 4.71396 581.259 2.71265 581.259 2.71265C581.524 2.8463 582.74 3.84699 583.27 4.44739C583.8 5.04779 584.543 5.98193 584.86 6.38219C585.177 6.78246 586.341 7.51582 586.341 7.51582C585.655 6.78246 585.759 6.64884 584.33 4.64752C582.901 2.6462 582.054 2.51253 582.106 2.31239C582.158 2.11226 583.114 0.444725 583.114 0.444725C583.114 0.444725 584.382 0.511197 584.86 0.844979C585.332 1.17876 585.332 2.51253 585.811 3.38023C586.289 4.24724 587.983 6.84898 587.983 6.84898C587.925 6.38223 588.403 5.04778 587.666 4.64752C586.923 4.24725 585.92 0.844979 585.92 0.844979C585.92 0.844979 588.034 3.78052 588.564 4.78118C589.089 5.78184 589.25 7.51586 589.463 9.05043C589.671 10.5843 590.362 12.0524 591.209 13.186C591.566 13.6658 591.768 14.297 591.889 14.87C592.58 15.1702 593.075 15.9529 593.075 16.8802C593.075 17.092 593.041 17.2921 592.995 17.4854C596.25 19.8472 596.607 24.9301 596.901 28.2473C597.085 30.3384 594.095 36.1244 590.656 41.9146C599.649 47.3414 607.363 52.2398 607.922 53.4056C609.31 56.2932 608.268 57.1184 608.268 57.1184L606.361 65.9872C606.361 65.9872 594.573 119.821 593.703 123.121C593.703 123.121 593.358 124.771 590.759 122.502C588.155 120.233 564.754 107.445 560.94 104.352C557.126 101.258 545.679 95.2764 545.679 95.2764L547.067 88.0566C547.067 88.0566 544.296 81.2507 545.333 66.8124" fill="#B8BABB"/>
<path d="M317.619 98.5046C316.786 96.4395 316.994 95.3662 316.994 93.3841C316.994 91.4019 316.23 89.0894 316.439 86.9421C316.647 84.7948 315.676 78.0219 315.676 78.0219C316.37 78.8477 317.133 80.8299 317.48 82.069C317.827 83.3082 318.383 85.6207 318.175 87.5199C317.966 89.4198 319.077 95.3662 319.077 95.3662C318.452 92.4752 319.077 90.4108 319.008 88.5939C318.938 86.7769 318.66 82.7298 318.105 81.1602C317.55 79.5914 316.855 78.1048 316.855 78.1048L318.73 76.8656C318.73 76.8656 320.188 76.9486 320.535 77.196C320.882 77.4441 321.16 79.4262 321.229 80.5002C321.298 81.5735 322.548 86.1163 322.548 86.1163C322.548 86.1163 322.27 84.0512 321.923 82.2342C321.576 80.4173 321.16 77.196 321.16 77.196C321.16 77.196 322.409 76.7011 322.34 76.9485C322.27 77.196 323.59 80.3344 323.728 81.9039C323.867 83.4727 325.533 85.2074 326.228 88.0155C326.922 90.8242 326.019 98.3394 326.019 98.3394C326.922 96.8528 327.616 90.7412 327.616 90.7412C327.546 91.8974 327.755 96.1092 326.714 98.5046C325.672 100.9 325.95 103.79 326.505 106.351C326.848 107.929 326.847 110.318 326.796 111.922C327.936 112.262 328.785 113.48 328.785 114.942C328.785 115.998 328.342 116.926 327.668 117.492C327.678 117.516 327.683 117.538 327.693 117.563C329.175 121.306 335.547 129.346 342.299 135.133C347.147 139.29 350.726 146.291 352.601 150.373C353.756 143.962 357.67 120.894 358.127 119.152L368.333 122.993L366.875 124.851L365.625 133.771C365.625 133.771 376.768 135.258 377.809 135.629C378.85 136.001 381.037 137.611 381.87 137.983C382.703 138.355 388.951 143.31 388.014 143.682C387.077 144.054 385.307 145.168 385.098 145.54C384.89 145.912 384.994 149.999 384.265 151.982C383.536 153.964 383.12 158.177 382.703 159.787C382.287 161.397 381.037 164.371 380.621 165.238C380.204 166.105 378.642 169.326 378.434 170.565C378.225 171.804 377.08 175.644 377.184 177.131C377.288 178.618 377.496 183.944 376.663 184.811C375.83 185.678 374.476 185.06 374.476 185.06L373.435 186.918C373.435 186.918 369.061 185.803 367.5 185.555C365.937 185.307 357.086 183.077 357.086 183.077C357.086 183.077 356.253 188.652 356.253 189.767C356.253 190.882 356.357 192.988 356.357 192.988L346.256 192.741C346.256 192.741 345.735 188.528 346.256 186.298C346.752 184.176 351.488 156.153 352.214 152.381C351.427 150.269 350.134 146.928 347.506 142.815C343.548 136.62 338.342 132.408 335.218 129.931C332.34 127.648 327.522 119.275 326.78 117.968C326.58 118.025 326.375 118.065 326.16 118.065C324.771 118.065 323.645 116.777 323.553 115.152C322.435 113.797 321.001 111.815 320.952 111.224C320.882 110.398 320.396 106.681 319.771 104.451C319.146 102.221 312.412 93.9625 312.412 93.9625C315.05 95.3662 318.452 100.57 317.619 98.5046" fill="#B8BABB"/>
<path d="M256.227 244.544L250.764 228.202L301.338 209.26C301.338 209.26 309.772 234.6 314.401 248.452C320.067 250.115 325.436 253.451 328.636 259.757C335.582 273.448 342.217 286.582 346.232 292.91C346.912 292.42 347.707 292.133 348.561 292.133C350.725 292.133 352.532 293.948 352.97 296.368C355.612 298.473 359.779 302.936 359.877 309.973C360.015 320.049 355.295 333.924 356.405 343.504C357.516 353.085 356.822 361.344 356.127 363.657C356.127 363.657 355.156 350.112 354.878 346.147C354.878 346.147 355.295 362.5 351.407 363.822L347.519 362.831C347.519 362.831 348.769 355.728 349.602 350.772C349.602 350.772 346.825 359.197 345.575 362.005L341.271 360.353C341.271 360.353 339.834 357.3 341.549 351.824C341.829 350.931 342.193 349.974 342.659 348.955C345.992 341.687 349.602 335.08 349.74 332.272C349.74 332.272 340.993 346.973 339.744 352.425C339.744 352.425 341.41 340.036 344.881 333.924C348.352 327.813 348.769 321.7 348.769 320.38C348.769 319.057 346.964 313.607 346.964 310.468C346.964 308.511 346.748 305.142 346.653 302.362C345.115 301.505 344.048 299.654 344.048 297.501C344.048 296.022 344.551 294.682 345.365 293.711C344.895 292.998 344.472 292.236 344.187 291.472C343.076 288.499 325.72 257.611 321.555 254.307C319.882 252.98 317.693 252.031 315.367 251.344C315.873 252.854 316.306 254.15 316.636 255.129C319.757 264.413 325.845 282.798 326.001 283.355C326.157 283.912 317.26 287.812 312.733 289.669C308.207 291.526 277.144 304.711 277.144 304.711L272.305 290.969C272.305 290.969 264.656 287.626 260.285 280.384C255.915 273.142 250.764 254.2 251.545 250.486L256.227 244.544" fill="#B8BABB"/>
<path d="M110.343 120.263C110.343 120.263 111.124 119.466 112.018 118.935C112.911 118.403 112.911 114.684 111.794 109.503C110.678 104.323 115.144 97.1496 115.144 97.1496L129.436 89.047L126.198 53.7135L145.807 76.8411C145.954 71.1702 145.082 65.8701 141.995 63.1252C135.77 57.5893 133.652 53.3578 132.762 50.5285C132.645 50.5484 132.528 50.5717 132.406 50.5717C130.995 50.5717 129.852 49.2105 129.852 47.5327C129.852 46.7918 130.083 46.1221 130.453 45.5951C130.182 44.0838 129.852 41.1072 129.852 40.2093C129.852 39.014 128.512 36.1245 127.339 33.8333C126.167 31.5413 125.999 29.8477 125.161 27.1576C124.324 24.4675 123.989 23.3716 124.324 21.2791C124.659 19.1873 123.821 17.1942 123.821 17.1942C124.91 17.8919 125.329 17.9913 125.413 20.0838C125.497 22.1756 128.595 28.453 128.595 28.453C128.512 28.1542 127.423 24.9658 127.088 23.8698C126.753 22.7739 126.25 18.0907 126.25 18.0907L128.763 17.8919L129.098 22.2757C129.098 22.1742 129.098 22.0234 129.098 21.7773C129.098 20.6814 129.517 17.7919 129.767 17.7919C130.019 17.7919 130.94 17.3936 130.94 18.0907C130.94 18.7884 131.024 24.6669 131.024 24.6669C131.024 24.6669 131.275 26.5599 131.192 24.268C131.107 21.9768 132.029 17.493 132.029 17.493L131.945 22.475C131.526 25.6628 133.955 32.139 135.211 37.7187C136.146 41.8721 135.225 44.9186 134.694 46.2058C134.859 46.6081 134.96 47.0543 134.96 47.5327C134.96 48.7554 134.35 49.802 133.474 50.2845C134.514 53.3481 136.845 58.5242 141.241 60.8332C146.035 63.352 147.031 69.674 146.574 77.7444L164.942 99.408L163.937 148.157C163.937 148.157 145.514 133.147 145.291 132.748C145.291 132.748 137.922 137.398 133.902 138.195C129.883 138.992 123.295 135.937 121.062 134.609C118.829 133.28 114.251 127.303 113.246 125.842C112.242 124.381 110.678 122.919 110.678 122.919L112.13 121.591L110.343 120.263" fill="#B8BABB"/>
<path d="M451.482 506.461C451.032 505.683 450.338 504.906 450.338 504.906C450.338 504.906 445.843 504.468 444.7 504.079L444.618 505.586C444.618 505.586 445.313 505.927 445.68 506.364C446.048 506.801 446.171 507.238 446.456 507.384C446.742 507.53 447.641 507.87 447.968 508.308C448.295 508.746 448.704 508.794 449.112 509.134C449.521 509.475 451.563 509.717 452.34 509.815C453.116 509.912 454.382 510.106 454.382 510.106C454.382 510.106 451.931 507.238 451.482 506.461" fill="#B8BABB"/>
<path d="M452.34 509.815C451.564 509.717 449.521 509.475 449.112 509.134C448.704 508.793 448.295 508.745 447.968 508.308C447.641 507.87 446.743 507.53 446.456 507.384C446.171 507.238 446.048 506.801 445.68 506.364C445.313 505.927 444.617 505.586 444.617 505.586L444.7 504.079C445.843 504.468 450.338 504.906 450.338 504.906C450.338 504.906 451.032 505.683 451.482 506.461C451.931 507.238 454.382 510.106 454.382 510.106C454.382 510.106 453.116 509.912 452.34 509.815V509.815ZM492.992 654.455C492.107 650.768 491.886 650.247 492.107 646.827C492.328 643.4 491.664 635.772 491.664 635.772L494.982 630.508C494.982 630.508 494.761 626.56 494.761 623.928C494.761 621.296 491.222 615.244 489.674 613.408C488.125 611.564 484.365 606.3 485.471 603.936C486.577 601.564 487.904 597.884 486.798 591.564C485.692 585.252 477.066 586.568 473.97 587.089C470.873 587.617 470.431 576.041 470.431 576.041C468.731 567.815 467.961 560.356 467.613 555.031L467.228 551.931C467.228 551.931 463.512 524.152 463.003 520.324C462.496 516.497 461.31 510.856 460.463 509.043C459.617 507.23 455.891 503.805 454.706 503.402C453.521 502.999 449.118 499.776 448.779 498.769C448.44 497.762 445.223 495.142 445.223 495.142C445.223 495.142 447.763 487.688 445.731 486.076C444.294 484.937 442.175 488.696 440.82 493.128C439.465 497.56 439.296 500.582 439.465 502.395C439.635 504.208 439.127 507.835 439.635 511.259C440.143 514.684 440.312 517.504 441.667 518.713C443.022 519.922 447.424 524.152 448.949 525.764C450.473 527.376 451.489 529.592 451.489 529.592C451.489 529.592 452.504 546.716 453.521 556.789C454.537 566.862 455.553 585.999 457.077 592.448C458.601 598.891 458.94 600.303 458.94 601.715C458.94 603.127 456.908 604.532 456.23 606.348C455.553 608.157 432.184 649.863 428.797 659.733C428.779 659.787 428.759 659.842 428.74 659.897H493.435C493.484 658.122 493.424 656.258 492.992 654.455Z" fill="#B8BABB"/>
<path d="M580.332 617.561C579.836 609.069 576.144 594.422 577.129 586.225C578.114 578.021 579.099 574.215 577.866 567.479C576.639 560.743 576.887 558.399 575.164 556.056C573.436 553.713 572.451 553.128 572.451 553.128C572.451 553.128 570.238 557.813 569.005 557.521C567.778 557.228 568.268 528.526 567.283 520.91C566.298 513.295 566.05 479.613 564.575 476.098C563.1 472.583 561.372 465.555 562.357 459.989C563.342 454.425 565.065 448.86 565.313 446.223C565.56 443.588 569.253 436.266 570.486 434.216C571.713 432.166 573.683 427.479 573.683 427.479C573.683 427.479 570.486 424.844 568.516 427.186L572.451 417.814C572.451 417.814 571.471 414.299 567.035 416.936C562.605 419.571 562.115 423.086 560.882 426.601C559.649 430.116 554.482 440.952 553.497 443.002C552.511 445.052 551.037 444.76 549.314 448.567C547.586 452.375 545.863 457.646 545.863 457.646C545.863 457.646 542.908 447.103 538.971 448.274C535.032 449.445 536.017 450.031 537.74 453.546C539.462 457.061 541.928 463.504 542.418 466.141C542.908 468.776 544.63 473.169 546.359 475.806C548.081 478.441 550.293 477.856 550.789 483.128C551.279 488.4 550.541 515.638 550.293 525.596C550.051 535.554 548.571 552.835 547.833 557.521C547.096 562.207 546.848 569.236 546.111 570.993C545.373 572.751 542.17 576.561 541.185 580.955C540.2 585.348 535.524 592.668 536.017 602.626C536.509 612.585 537.247 611.413 537.247 611.413C537.247 611.413 534.047 618.15 534.786 622.544C535.524 626.937 536.509 626.642 536.017 628.109C535.524 629.569 532.077 633.085 531.093 636.012C531.081 636.053 531.066 636.08 531.053 636.121C530.983 639.377 530.879 642.646 530.745 645.908C531.865 648.252 533.141 650.864 532.816 651.83C532.39 653.098 530.854 651.953 530.453 652.193C530.322 654.757 530.178 657.327 530.022 659.897H589.849C585.344 643.825 580.666 623.353 580.332 617.561Z" fill="#B8BABB"/>
<path d="M652.818 657.581C651.585 656.991 649.373 655.819 649.373 653.482C649.373 651.138 648.63 644.983 647.892 644.106C647.155 643.229 646.665 641.179 645.68 639.418C644.695 637.663 642.477 632.687 641.002 630.049C639.522 627.41 634.844 622.139 634.844 622.139L633.369 619.795C633.369 619.795 627.953 598.418 626.231 586.116C624.508 573.814 623.765 555.655 623.765 554.19C623.765 552.727 625.735 554.19 625.493 551.848C625.246 549.505 624.013 549.212 624.508 547.161C624.998 545.111 626.231 540.718 627.458 539.253C628.691 537.789 631.398 531.639 632.384 529.881C633.369 528.124 634.844 517.287 636.324 514.944C637.799 512.601 640.507 510.843 640.507 509.965C640.507 509.086 638.047 507.036 635.587 509.086C633.121 511.136 629.428 516.408 629.428 516.408C629.428 516.408 626.968 495.906 623.275 495.906C619.507 495.906 622.042 502.935 623.027 505.865C624.013 508.793 624.013 515.237 624.013 515.237L623.765 516.994L622.29 515.237C622.29 515.237 621.057 506.451 619.087 506.451C617.122 506.451 614.904 507.329 614.415 509.965C614.415 509.965 610.722 509.379 609.979 512.308C609.241 515.237 609.241 515.237 609.241 515.237C609.241 515.237 606.533 515.237 605.548 516.994C604.563 518.751 603.826 523.145 604.315 524.316C604.811 525.488 604.563 532.517 604.811 535.446C605.059 538.375 605.548 543.94 605.548 543.94L606.781 546.869C606.781 546.869 604.315 547.455 605.059 549.798C605.796 552.141 607.271 551.555 607.271 551.555C607.271 551.555 608.256 557.12 608.008 560.048C607.766 562.978 605.796 589.632 606.286 594.902C606.781 600.173 606.533 618.918 607.519 623.017C607.519 623.017 591.514 641.474 592.01 644.695C592.413 647.341 593.652 654.743 595.04 659.897H653.907C653.59 658.698 653.216 657.772 652.818 657.581" fill="#B8BABB"/>
<path d="M343.737 659.554C338.528 656.34 337.95 648.766 336.406 645.785C334.862 642.797 329.075 618.932 328.303 615.95C327.532 612.962 328.303 606.54 328.303 602.174C328.303 597.815 326.761 594.375 326.953 589.782C327.146 585.19 328.882 567.062 328.882 567.062C328.882 567.062 325.217 566.144 323.673 565.455C323.673 565.455 324.252 557.881 325.603 556.045C326.953 554.209 332.355 547.783 333.127 545.717C333.898 543.651 335.634 534.012 335.634 532.635C335.634 531.258 336.213 529.422 336.213 529.422C336.213 529.422 343.737 527.815 344.509 527.585C344.509 527.585 346.245 523.684 339.686 525.061L336.792 523.455C336.792 523.455 346.438 522.766 348.56 522.307C350.682 521.848 351.261 519.093 348.56 518.865C345.859 518.635 340.072 519.093 340.072 519.093C340.072 519.093 339.3 515.88 337.564 516.11C335.827 516.34 332.934 518.635 331.004 518.635C329.075 518.635 325.603 518.635 325.603 518.635C325.603 518.635 339.493 500.503 339.686 496.831C339.686 496.831 338.721 492.47 335.248 497.52C331.776 502.569 329.847 504.864 329.847 504.864C329.847 504.864 332.741 492.241 330.812 492.7C328.882 493.159 323.48 508.536 322.323 511.29C321.165 514.045 318.851 517.258 317.693 517.717C316.535 518.176 314.413 518.635 313.834 521.389C313.256 524.143 313.063 525.52 312.87 528.274C312.677 531.028 312.484 538.602 311.713 542.504C310.941 546.405 310.941 550.078 309.591 553.52C308.24 556.963 306.504 559.947 306.697 561.324C306.89 562.701 304.96 560.865 304.96 560.865C304.96 560.865 303.996 570.734 303.803 572.57C303.61 574.406 301.681 581.291 302.452 587.26C303.224 593.223 300.716 599.652 300.716 604.929C300.716 610.207 303.417 634.538 303.224 642.338C303.092 647.69 302.235 654.325 301.461 659.897H344.201C344.039 659.76 343.881 659.644 343.737 659.554" fill="#B8BABB"/>
<path d="M147.146 508.408C147.947 508.258 148.369 507.807 148.748 507.656C149.128 507.506 149.802 507.105 149.928 507.055C150.055 507.005 149.844 506.604 149.254 506.453C148.664 506.303 142.932 506.604 142.932 506.604C142.932 506.604 144.618 508.258 145.165 508.659C145.714 509.061 146.346 508.559 147.146 508.408" fill="#B8BABB"/>
<path d="M151.024 501.79C151.445 501.94 152.33 502.642 152.457 502.793C152.584 502.943 153.342 503.094 153.511 502.893C153.68 502.692 154.396 501.689 154.522 501.639C154.649 501.589 154.227 501.088 153.511 500.938C152.794 500.787 146.978 500.737 146.978 500.737C147.315 500.988 147.863 501.439 148.284 501.439C148.706 501.439 150.602 501.639 151.024 501.79" fill="#B8BABB"/>
<path d="M149.254 506.453C149.844 506.604 150.055 507.005 149.928 507.055C149.802 507.105 149.128 507.506 148.748 507.656C148.369 507.807 147.947 508.258 147.146 508.408C146.346 508.559 145.713 509.061 145.165 508.659C144.617 508.258 142.932 506.604 142.932 506.604C142.932 506.604 148.664 506.303 149.254 506.453V506.453ZM153.511 500.938C154.227 501.088 154.649 501.589 154.522 501.64C154.396 501.69 153.679 502.693 153.511 502.893C153.342 503.094 152.584 502.943 152.457 502.793C152.331 502.642 151.446 501.94 151.024 501.79C150.602 501.639 148.706 501.439 148.284 501.439C147.862 501.439 147.315 500.988 146.978 500.737C146.978 500.737 152.794 500.787 153.511 500.938V500.938ZM145.353 657.773C145.353 657.773 143.995 648.081 143.18 645.497C142.366 642.913 141.823 618.363 140.737 610.605C139.65 602.853 137.749 594.772 137.749 593.484C137.749 592.188 135.034 580.235 135.305 577.973C135.577 575.714 134.218 571.514 134.218 570.545C134.218 569.575 134.762 561.498 134.762 561.498C134.762 561.498 134.49 554.391 135.577 552.775C136.663 551.16 134.762 546.96 134.762 546.96C134.762 546.96 134.49 535.975 137.749 534.36C141.008 532.744 142.909 528.544 144.81 527.575C146.711 526.606 151.056 520.79 152.414 517.237C153.772 513.683 152.957 512.391 154.586 511.098C156.216 509.807 156.759 506.576 159.475 505.283C162.19 503.991 164.363 502.052 165.178 500.437C165.992 498.822 164.712 493.313 159.741 496.937C159.741 496.937 156.801 497.065 155.411 496.619C154.022 496.174 149.212 495.411 148.41 495.284C147.608 495.156 146.431 494.52 145.897 494.266C145.363 494.012 144.989 494.012 145.416 493.313C145.844 492.613 148.516 490.26 150.708 490.133C152.899 490.006 154.717 489.115 157.87 487.589C161.024 486.063 161.879 485.491 161.986 484.092C162.094 482.693 161.826 480.659 160.169 481.549C158.512 482.438 156.908 482.757 156.213 482.757C155.518 482.757 153.167 483.329 152.205 483.647C151.243 483.965 149.906 484.537 149.318 484.601C148.731 484.664 147.875 485.109 147.287 485.109C146.699 485.109 146.165 485.173 145.256 485.427C144.347 485.682 143.759 485.301 143.759 485.301C143.759 485.301 144.614 484.219 145.79 483.583C146.966 482.948 147.02 482.184 147.341 482.057C147.661 481.93 151.403 481.612 152.899 481.04C154.396 480.467 155.305 478.687 155.252 477.988C155.198 477.288 154.556 476.681 154.556 476.681C154.556 476.681 151.767 476.781 150.331 476.681C148.894 476.581 147.712 476.881 146.444 477.585C145.177 478.289 141.46 479.796 140.446 479.998C139.432 480.199 138.587 481.405 137.742 483.214C136.897 485.023 134.701 491.958 133.264 492.763C131.828 493.567 129.293 494.371 128.617 495.477C127.942 496.583 127.434 499.698 127.097 502.11C126.759 504.523 124.478 520.906 123.294 524.726C122.112 528.546 119.999 532.064 118.648 534.576C117.296 537.09 118.057 538.597 117.634 541.21C117.212 543.823 117.212 543.823 117.212 543.823C117.212 543.823 116.282 544.929 115.775 546.939C115.268 548.949 112.987 558.699 112.987 559.403C112.987 560.107 111.973 560.006 111.889 562.016C111.804 564.027 110.452 569.856 108.594 573.776C106.735 577.699 106.82 581.112 106.904 583.326C106.989 585.533 106.143 588.652 104.707 591.667C103.271 594.683 101.835 602.119 100.905 609.556C99.9761 616.999 98.7087 619.309 96.3432 625.642C93.9771 631.975 92.5408 632.777 93.3013 640.72C93.3013 640.72 94.7883 649.781 96.16 659.15H146.659C146.227 658.609 145.791 658.143 145.353 657.773" fill="#B8BABB"/>
<path d="M270.581 633.4C269.145 631.125 269.343 628.753 270.46 626.416C269.572 625.614 268.967 624.915 268.967 624.552C268.967 623.229 267.634 612.133 267.19 610.015C266.745 607.904 266.524 606.842 266.524 606.842C266.524 606.842 276.964 576.19 281.85 566.412C286.737 556.635 292.29 553.992 294.733 553.464C297.177 552.936 300.953 548.443 302.73 544.479C304.507 540.515 306.506 537.872 306.284 536.287C306.062 534.702 306.729 527.038 306.951 525.981C307.173 524.924 304.952 522.546 301.842 529.681C298.732 536.815 298.955 538.401 298.955 538.401C298.955 538.401 294.289 537.608 293.401 537.608C292.512 537.608 291.846 534.437 292.512 531.795C293.178 529.152 292.957 525.188 294.512 522.546C296.066 519.903 298.732 513.825 300.509 512.24C302.286 510.654 305.174 508.54 305.396 507.747C305.618 506.954 307.617 505.105 304.952 504.047C302.286 502.99 297.843 508.011 294.289 510.918C290.735 513.825 289.18 515.939 289.18 515.939C289.18 515.939 286.959 513.296 293.401 508.54C299.843 503.783 302.73 500.876 299.399 498.234C299.399 498.234 293.178 500.876 290.735 503.783C290.735 503.783 287.182 504.047 285.404 504.84C283.628 505.633 280.074 508.011 279.407 508.54C278.741 509.068 274.964 519.374 273.854 521.488C272.743 523.603 273.409 525.981 273.854 527.567C274.298 529.152 277.407 535.758 276.075 538.137C274.742 540.515 273.409 541.043 272.299 543.95C271.188 546.858 264.08 555.842 262.525 557.956C260.97 560.07 254.528 567.734 254.528 567.734C254.528 567.734 254.307 564.827 253.418 564.299C252.529 563.77 253.418 555.049 250.53 552.143C247.643 549.236 238.757 542.893 230.094 543.95C221.431 545.008 205.882 545.008 203.439 545.008C200.996 545.008 195.442 544.479 195.442 544.479C195.442 544.479 185.669 562.977 186.113 566.677C186.557 570.377 185.891 573.283 185.669 576.19C185.446 579.097 186.335 587.555 186.557 589.666C186.78 591.784 187.89 603.147 187.668 607.369C187.446 611.598 188.557 624.285 189.445 628.514C190.333 632.742 192.111 635.648 194.109 638.554C196.109 641.46 197.219 643.578 199.441 647.279C201.662 650.974 203.439 653.619 202.995 655.469C202.803 656.265 202.57 657.91 202.474 659.897H276.076C277.8 651.604 276.691 642.687 270.581 633.4Z" fill="#B8BABB"/>
<path d="M420.007 659.02C418.537 654.997 418.096 654.126 417.655 654.647C417.215 655.175 408.985 637.519 399.14 624.23C389.293 610.947 382.681 598.007 380.77 591.366C378.86 584.717 378.86 576.329 375.627 570.21C372.394 564.091 366.957 551.504 366.369 551.853C366.369 551.853 362.989 540.839 361.079 541.014C361.079 541.014 361.813 538.217 358.434 539.791C355.054 541.364 358.581 556.923 360.05 563.217C360.05 563.217 356.671 554.476 355.054 549.231C355.054 549.231 349.617 545.385 353.29 561.818C356.964 578.254 357.552 579.303 357.405 580.173C357.258 581.051 357.552 586.294 357.552 586.294L355.935 586.472C355.935 586.472 353.144 578.604 350.057 574.755C346.972 570.909 342.269 570.21 343.445 574.406C344.621 578.604 345.355 573.007 347.412 583.497C349.47 593.984 350.205 591.537 351.086 594.683C351.968 597.836 356.523 601.503 358.728 603.428C360.932 605.347 365.928 606.924 369.749 612.517C373.57 618.109 377.832 626.327 380.183 631.749C382.534 637.17 389 649.232 391.351 658.67C391.458 659.102 391.556 659.5 391.655 659.897H420.375C420.218 659.548 420.091 659.253 420.007 659.02" fill="#B8BABB"/>
<path d="M525.537 643.64C523.183 639.116 521.191 633.736 521.01 632.228C520.829 630.72 518.114 604.011 517.57 593.024C517.027 582.044 517.027 556.413 518.114 553.182C519.2 549.951 521.915 546.289 522.459 542.627C523.002 538.966 522.459 536.166 524.45 532.289C526.442 528.412 529.519 523.889 530.968 520.873C532.416 517.858 533.14 514.627 533.321 513.766C533.503 512.904 531.149 510.32 526.985 515.704C522.82 521.089 522.277 525.397 518.838 525.827C515.398 526.258 513.044 527.12 512.139 525.827C511.234 524.535 507.431 520.013 507.431 519.366C507.431 518.72 510.69 510.535 510.148 508.812C509.604 507.089 507.613 506.012 507.431 508.166C507.25 510.32 506.164 511.828 505.621 512.904C505.078 513.981 505.078 513.981 505.078 513.981C505.078 513.981 501.095 509.889 501.095 507.95C501.095 506.012 502.181 497.182 500.552 494.812C498.923 492.443 498.017 493.305 498.017 493.305L497.474 497.612C497.474 497.612 496.569 487.059 491.862 488.997C491.32 489.22 492.768 494.381 492.768 494.381C492.768 494.381 490.957 494.597 491.319 495.889C491.681 497.182 492.586 500.197 492.586 502.997C492.586 505.796 493.672 507.52 494.034 511.397C494.397 515.274 496.388 518.074 496.75 521.089C497.112 524.104 497.293 528.412 498.017 530.566C498.741 532.72 501.276 539.612 501.095 541.551C500.914 543.489 502.181 548.012 502.363 551.027C502.544 554.042 502.544 555.981 502.181 558.351C501.819 560.719 502.181 564.381 502.181 567.828C502.181 571.274 501.095 589.584 500.733 598.411C500.371 607.246 498.741 618.013 498.741 618.013C498.741 618.013 494.578 634.812 493.854 639.116C493.129 643.427 493.491 648.163 494.94 652.687C495.258 653.681 496.021 656.313 497.041 659.897H530.799C528.813 652.831 526.693 645.867 525.537 643.64" fill="#B8BABB"/>
<path d="M714.94 650.631C715.395 646.539 715.666 645.463 715.666 645.463C715.666 645.463 718.835 645.998 719.555 645.031C720.281 644.065 719.555 643.736 719.198 642.982C718.835 642.228 716.663 640.508 717.02 639.212C717.383 637.924 718.109 626.183 716.478 621.66C714.848 617.136 714.848 616.279 712.405 612.722C709.963 609.172 708.695 605.402 708.24 604.539C707.791 603.675 706.794 602.489 706.252 600.988C705.705 599.481 705.071 598.398 704.259 596.136C703.447 593.874 703.804 593.017 702.721 590.968C701.632 588.926 701.09 587.85 700.002 586.986C698.919 586.123 694.119 583.758 694.119 583.758C694.119 583.758 696.925 557.047 697.651 555.647C698.377 554.247 705.705 536.585 705.982 535.831C706.252 535.078 700.635 530.447 700.457 529.693C700.278 528.94 703.17 515.586 704.259 513.216C705.342 510.847 711.501 500.616 712.584 490.493C713.673 480.37 713.673 476.385 713.943 475.847C714.214 475.308 717.204 467.878 718.109 467.231C719.013 466.586 722.453 464.324 722.908 463.786C723.357 463.247 724.538 461.416 723.628 460.77C722.723 460.124 719.555 460.447 717.296 461.632C715.032 462.816 711.501 464.324 710.867 464.863C710.233 465.401 709.237 464.216 710.233 461.954C711.23 459.693 719.013 446.663 719.739 445.478C720.465 444.294 721.727 442.355 720.01 440.524C718.287 438.693 715.482 444.616 714.485 445.263C713.494 445.909 711.864 448.709 711.138 449.678C710.412 450.647 705.797 455.924 705.071 457.001C704.351 458.078 703.625 459.155 703.625 459.155C703.625 459.155 704.075 451.939 704.985 450.217C705.889 448.494 711.409 435.893 711.679 433.955C711.956 432.016 711.593 430.832 709.692 431.047C707.791 431.262 706.431 434.601 705.342 436.647C704.259 438.693 700.186 446.232 699.189 447.524C698.193 448.816 697.38 449.678 697.196 451.186C697.017 452.693 696.654 454.739 696.654 454.417C696.654 454.093 695.571 451.077 695.75 449.463C695.929 447.847 696.562 442.893 696.833 441.601C697.11 440.309 698.463 436.001 698.463 434.924C698.463 433.847 699.794 429.698 695.687 430.642C693.745 431.089 693.636 435.31 692.328 438.089C691.02 440.868 690.922 444.536 690.179 446.759C689.43 448.982 688.681 450.983 689.24 453.428C689.804 455.874 690.646 459.097 690.922 462.098C691.204 465.1 691.389 470.991 691.389 473.547C691.389 476.104 691.671 483.662 691.204 490.109C690.738 496.556 690.738 500.224 689.989 501.558C689.24 502.892 687.465 506.226 686.065 511.228C684.666 516.23 683.168 521.677 683.168 521.677C683.168 521.677 680.834 522.566 680.276 525.567C679.711 528.568 672.89 545.13 671.772 547.575C670.649 550.021 668.592 556.245 667.849 557.69C667.1 559.136 665.135 564.582 664.951 565.693C664.761 566.805 659.345 576.253 657.663 578.364C655.981 580.475 649.909 586.26 650.185 586.143C650.468 586.033 651.493 588.7 651.683 590.591C651.868 592.483 651.216 594.368 651.775 596.486C652.334 598.597 652.524 599.926 652.524 599.926C652.524 599.926 650.185 606.156 649.344 616.821C648.509 627.492 648.134 631.166 648.134 632.495C648.134 633.832 648.036 636.053 648.036 636.053C648.036 636.053 645.046 639.836 643.554 643.503C643.554 643.503 635.143 651.124 629.019 659.897H715.557C715.113 656.676 714.704 652.776 714.94 650.631" fill="#B8BABB"/>
<path d="M939.168 645.648C938.206 640.137 934.732 624.758 932.606 617.863C930.486 610.974 916.781 586.177 915.041 580.434C913.307 574.694 906.549 559.998 906.549 558.62C906.549 557.243 905.391 557.931 905.587 557.243C905.777 556.554 902.689 553.799 903.075 547.828C903.461 541.857 907.131 528.768 907.131 526.013C907.131 523.257 905.777 522.339 905.587 520.272C905.391 518.205 905.587 514.301 905.391 511.546C905.201 508.79 904.429 507.183 903.461 504.886C902.499 502.59 899.215 494.324 899.025 492.257C898.829 490.19 895.931 489.73 894.001 493.175L894.197 496.39C894.197 496.39 892.653 498.227 894.197 500.294L894.387 507.872C894.387 507.872 892.653 500.753 890.141 501.672C887.635 502.59 887.825 507.642 888.597 512.694C889.369 517.746 889.369 520.501 888.793 522.568C888.211 524.635 887.053 527.16 886.667 528.309C886.281 529.457 886.091 531.294 885.509 531.983C884.933 532.672 879.915 534.968 878.947 535.428C877.985 535.887 874.702 535.428 874.702 535.428C874.702 535.428 865.824 526.242 860.996 526.242C856.174 526.242 855.592 528.768 855.592 528.768C855.592 528.768 859.452 532.212 860.806 535.198C862.154 538.183 864.28 538.413 865.628 540.02C866.982 541.627 869.684 544.613 870.26 546.22C870.842 547.828 875.088 552.65 877.985 553.569C880.877 554.487 884.737 559.31 884.933 561.376C885.123 563.443 885.895 565.05 885.895 565.05L884.933 566.658C884.933 566.658 887.249 570.332 888.211 572.398C889.179 574.465 890.141 584.108 890.723 585.718C891.299 587.322 892.267 590.31 892.071 591.455C891.881 592.606 893.039 596.972 893.039 598.117C893.039 599.268 893.425 604.546 893.229 609.597C893.039 614.648 893.039 620.851 893.229 622.462C893.425 624.065 890.723 624.758 892.267 628.89C893.811 633.023 894.969 633.483 894.773 636.923C894.583 640.37 891.495 643.126 892.457 644.963C893.425 646.799 894.969 649.555 895.545 652.084C896.127 654.606 895.741 658.739 895.159 659.89C895.159 659.89 895.159 659.89 895.159 659.897H940.545C940.275 655.257 939.762 649.006 939.168 645.648" fill="#B8BABB"/>
<path d="M471.203 490.087C471.7 489.226 472.468 488.365 472.468 488.365C472.468 488.365 477.442 487.88 478.709 487.45L478.799 489.117C478.799 489.117 478.03 489.494 477.623 489.978C477.216 490.463 477.081 490.947 476.764 491.109C476.447 491.27 475.453 491.646 475.091 492.13C474.73 492.614 474.277 492.668 473.825 493.045C473.373 493.421 471.112 493.69 470.253 493.798C469.394 493.906 467.992 494.121 467.992 494.121C467.992 494.121 470.705 490.947 471.203 490.087" fill="#7F7F81"/>
<path d="M467.992 494.121C467.992 494.121 470.705 490.947 471.203 490.087C471.7 489.226 472.468 488.365 472.468 488.365C472.468 488.365 477.442 487.88 478.708 487.45L478.799 489.117C478.799 489.117 478.03 489.494 477.623 489.978C477.216 490.463 477.081 490.947 476.764 491.109C476.447 491.27 475.452 491.646 475.091 492.13C474.729 492.614 474.277 492.668 473.825 493.045C473.373 493.421 471.112 493.69 470.253 493.798C469.394 493.906 467.992 494.121 467.992 494.121V494.121ZM424.772 659.897H496.371C496.35 659.835 496.328 659.774 496.308 659.719C492.56 648.794 466.697 602.64 465.947 600.632C465.198 598.624 462.949 597.068 462.949 595.505C462.949 593.943 463.324 592.38 465.01 585.245C466.697 578.117 467.821 556.933 468.946 545.785C470.07 534.637 471.195 515.686 471.195 515.686C471.195 515.686 472.319 513.233 474.006 511.449C475.693 509.665 480.565 504.983 482.065 503.646C483.564 502.308 483.751 499.186 484.314 495.396C484.876 491.606 484.314 487.593 484.501 485.586C484.689 483.58 484.501 480.235 483.002 475.33C481.502 470.425 479.157 466.265 477.567 467.527C475.318 469.311 478.129 477.56 478.129 477.56C478.129 477.56 474.568 480.458 474.193 481.573C473.819 482.688 468.946 486.255 467.634 486.701C466.322 487.147 462.199 490.937 461.262 492.943C460.325 494.95 459.013 501.193 458.451 505.43C457.889 509.665 453.776 540.41 453.776 540.41L453.349 543.841C452.965 549.732 452.113 557.988 450.231 567.091C450.231 567.091 449.742 579.906 446.315 579.324C442.887 578.741 433.341 577.281 432.117 584.272C430.893 591.263 432.362 595.341 433.585 597.959C434.81 600.584 430.648 606.403 428.934 608.446C427.221 610.481 423.305 617.184 423.305 620.09C423.305 623.003 423.06 627.376 423.06 627.376L426.731 633.194C426.731 633.194 425.997 641.645 426.242 645.429C426.487 649.212 426.242 649.794 425.263 653.873C424.784 655.867 424.717 657.93 424.772 659.897" fill="#7F7F81"/>
<path d="M10.6056 613.044C11.1509 603.648 15.2377 587.438 14.1483 578.364C13.058 569.285 11.9681 565.072 13.3307 557.616C14.6925 550.16 14.4206 547.568 16.3274 544.975C18.2353 542.381 19.3247 541.734 19.3247 541.734C19.3247 541.734 21.7771 546.919 23.1396 546.595C24.5016 546.271 23.9571 514.505 25.0466 506.077C26.136 497.65 26.4091 460.373 28.0441 456.483C29.6785 452.593 31.5854 444.814 30.496 438.655C29.406 432.497 27.4985 426.338 27.2266 423.42C26.9535 420.503 22.8666 412.4 21.5046 410.13C20.1423 407.861 17.9621 402.675 17.9621 402.675C17.9621 402.675 21.5046 399.758 23.6841 402.351L19.3247 391.978C19.3247 391.978 20.4142 388.089 25.3191 391.006C30.2229 393.923 30.7679 397.813 32.131 401.703C33.4924 405.593 39.2143 417.586 40.3049 419.855C41.3943 422.124 43.0293 421.8 44.9362 426.014C46.8437 430.227 48.7512 436.062 48.7512 436.062C48.7512 436.062 52.0207 424.393 56.3801 425.689C60.7395 426.986 59.6495 427.634 57.7426 431.524C55.8357 435.414 53.1101 442.545 52.5657 445.463C52.0207 448.38 50.1137 453.242 48.2057 456.159C46.2987 459.076 43.8468 458.428 43.3012 464.263C42.7574 470.097 43.5743 500.243 43.8468 511.264C44.1187 522.285 45.7537 541.409 46.5712 546.595C47.3887 551.781 47.6612 559.561 48.4787 561.506C49.2962 563.451 52.8382 567.664 53.9276 572.527C55.0182 577.391 60.1945 585.492 59.6495 596.513C59.1051 607.534 58.2876 606.239 58.2876 606.239C58.2876 606.239 61.8295 613.695 61.012 618.555C60.1945 623.421 59.1051 623.092 59.6495 624.716C60.1945 626.334 64.0095 630.227 65.099 633.469C65.1128 633.51 65.1295 633.544 65.1433 633.585C65.2205 637.19 65.3352 640.802 65.4838 644.421C64.244 647.012 62.8325 649.904 63.192 650.967C63.6639 652.372 65.3634 651.104 65.8076 651.371C65.9522 654.208 66.1118 657.053 66.2834 659.897H0.0691528C5.05563 642.104 10.2343 619.453 10.6056 613.044Z" fill="#7F7F81"/>
<path d="M271.898 657.334C273.26 656.683 275.712 655.387 275.712 652.796C275.712 650.199 276.529 643.393 277.347 642.42C278.164 641.447 278.709 639.178 279.799 637.238C280.889 635.292 283.341 629.782 284.976 626.862C286.61 623.949 291.788 618.109 291.788 618.109L293.422 615.519C293.422 615.519 299.417 591.852 301.324 578.241C303.231 564.628 304.049 544.531 304.049 542.91C304.049 541.289 301.869 542.91 302.141 540.317C302.414 537.724 303.776 537.399 303.231 535.131C302.686 532.861 301.324 527.999 299.962 526.378C298.599 524.757 295.602 517.951 294.512 516.006C293.422 514.061 291.788 502.068 290.153 499.474C288.518 496.882 285.521 494.936 285.521 493.964C285.521 492.992 288.245 490.723 290.97 492.992C293.695 495.261 297.782 501.095 297.782 501.095C297.782 501.095 300.506 478.406 304.593 478.406C308.761 478.406 305.955 486.185 304.866 489.426C303.776 492.668 303.776 499.799 303.776 499.799L304.049 501.744L305.683 499.799C305.683 499.799 307.045 490.074 309.225 490.074C311.405 490.074 313.857 491.047 314.402 493.964C314.402 493.964 318.489 493.316 319.306 496.557C320.124 499.799 320.124 499.799 320.124 499.799C320.124 499.799 323.121 499.799 324.211 501.744C325.301 503.689 326.118 508.55 325.573 509.848C325.028 511.144 325.301 518.923 325.028 522.165C324.756 525.406 324.211 531.565 324.211 531.565L322.849 534.807C322.849 534.807 325.573 535.454 324.756 538.048C323.938 540.641 322.303 539.992 322.303 539.992C322.303 539.992 321.214 546.151 321.486 549.393C321.759 552.634 323.938 582.134 323.393 587.966C322.849 593.799 323.121 614.545 322.031 619.083C322.031 619.083 339.741 639.507 339.197 643.071C338.748 646.005 337.378 654.195 335.845 659.897H270.689C271.045 658.574 271.456 657.54 271.898 657.334" fill="#7F7F81"/>
<path d="M738.566 659.52C744.327 655.963 744.967 647.581 746.678 644.277C748.389 640.974 754.79 614.559 755.642 611.256C756.501 607.952 755.642 600.844 755.642 596.019C755.642 591.187 757.353 587.384 757.14 582.298C756.927 577.219 755.003 557.154 755.003 557.154C755.003 557.154 759.059 556.138 760.77 555.376C760.77 555.376 760.13 546.994 758.632 544.962C757.14 542.93 751.16 535.817 750.308 533.532C749.455 531.246 747.531 520.577 747.531 519.054C747.531 517.529 746.891 515.497 746.891 515.497C746.891 515.497 738.566 513.719 737.708 513.465C737.708 513.465 735.79 509.147 743.049 510.671L746.252 508.893C746.252 508.893 735.576 508.131 733.226 507.623C730.881 507.115 730.236 504.067 733.226 503.813C736.216 503.559 742.622 504.067 742.622 504.067C742.622 504.067 743.475 500.511 745.399 500.765C747.318 501.019 750.521 503.559 752.658 503.559C754.79 503.559 758.632 503.559 758.632 503.559C758.632 503.559 743.262 483.492 743.049 479.429C743.049 479.429 744.114 474.602 747.957 480.191C751.805 485.778 753.937 488.318 753.937 488.318C753.937 488.318 750.734 474.349 752.871 474.857C755.003 475.365 760.983 492.383 762.262 495.431C763.547 498.479 766.105 502.035 767.389 502.543C768.668 503.051 771.019 503.559 771.658 506.607C772.298 509.655 772.511 511.179 772.724 514.227C772.937 517.275 773.15 525.657 774.009 529.976C774.861 534.294 774.861 538.357 776.354 542.168C777.851 545.978 779.77 549.28 779.557 550.804C779.344 552.328 781.481 550.296 781.481 550.296C781.481 550.296 782.547 561.218 782.76 563.251C782.973 565.282 785.11 572.903 784.258 579.509C783.399 586.109 786.176 593.223 786.176 599.062C786.176 604.909 783.186 631.831 783.399 640.467C783.549 646.381 784.494 653.729 785.352 659.897H738.054C738.232 659.746 738.405 659.616 738.566 659.52" fill="#7F7F81"/>
<path d="M791.281 493.067C790.399 492.9 789.933 492.4 789.512 492.234C789.091 492.068 788.342 491.624 788.204 491.568C788.066 491.513 788.296 491.069 788.953 490.902C789.604 490.736 795.947 491.069 795.947 491.069C795.947 491.069 794.08 492.9 793.476 493.344C792.871 493.788 792.168 493.233 791.281 493.067" fill="#7F7F81"/>
<path d="M786.994 485.741C786.528 485.908 785.548 486.685 785.404 486.852C785.266 487.017 784.425 487.185 784.241 486.962C784.051 486.741 783.261 485.631 783.123 485.575C782.979 485.519 783.446 484.965 784.241 484.798C785.03 484.632 791.471 484.576 791.471 484.576C791.096 484.854 790.491 485.353 790.025 485.353C789.558 485.353 787.461 485.575 786.994 485.741" fill="#7F7F81"/>
<path d="M795.947 491.069C795.947 491.069 794.081 492.9 793.476 493.344C792.871 493.788 792.168 493.233 791.286 493.067C790.399 492.9 789.933 492.4 789.512 492.235C789.091 492.068 788.343 491.624 788.204 491.568C788.066 491.513 788.296 491.069 788.953 490.902C789.604 490.736 795.947 491.069 795.947 491.069ZM791.471 484.576C791.096 484.854 790.491 485.353 790.025 485.353C789.558 485.353 787.461 485.575 786.994 485.741C786.528 485.908 785.548 486.685 785.404 486.852C785.266 487.017 784.425 487.185 784.241 486.963C784.051 486.741 783.261 485.631 783.123 485.575C782.979 485.519 783.446 484.965 784.241 484.798C785.036 484.632 791.471 484.576 791.471 484.576V484.576ZM791.822 659.897H847.711C849.232 649.527 850.874 639.493 850.874 639.493C851.715 630.707 850.125 629.816 847.509 622.811C844.888 615.799 843.488 613.243 842.457 605.012C841.431 596.78 839.841 588.549 838.251 585.211C836.661 581.873 835.728 578.426 835.82 575.978C835.912 573.531 836.01 569.749 833.947 565.41C831.891 561.072 830.399 554.62 830.306 552.395C830.209 550.171 829.091 550.282 829.091 549.503C829.091 548.725 826.562 537.935 826.003 535.709C825.444 533.484 824.413 532.261 824.413 532.261C824.413 532.261 824.413 532.261 823.946 529.369C823.48 526.476 824.321 524.808 822.823 522.027C821.325 519.246 818.992 515.353 817.678 511.125C816.37 506.898 813.847 488.767 813.472 486.096C813.098 483.427 812.539 479.978 811.79 478.754C811.041 477.531 808.236 476.641 806.646 475.751C805.055 474.861 802.624 467.185 801.691 465.183C800.758 463.181 799.819 461.846 798.701 461.624C797.578 461.401 793.464 459.732 792.058 458.954C790.658 458.175 789.351 457.841 787.761 457.953C786.171 458.064 783.083 457.953 783.083 457.953C783.083 457.953 782.374 458.625 782.316 459.399C782.253 460.173 783.261 462.144 784.915 462.777C786.574 463.41 790.716 463.762 791.068 463.903C791.425 464.043 791.482 464.888 792.784 465.592C794.086 466.296 795.031 467.492 795.031 467.492C795.031 467.492 794.38 467.914 793.378 467.633C792.37 467.351 791.776 467.281 791.125 467.281C790.474 467.281 789.529 466.788 788.878 466.718C788.227 466.647 786.752 466.014 785.687 465.662C784.621 465.311 782.017 464.677 781.251 464.677C780.479 464.677 778.704 464.325 776.872 463.34C775.04 462.355 774.741 464.607 774.862 466.155C774.977 467.703 775.927 468.337 779.413 470.025C782.904 471.714 784.915 472.7 787.34 472.84C789.766 472.981 792.727 475.585 793.199 476.36C793.672 477.134 793.257 477.134 792.663 477.415C792.076 477.696 790.774 478.4 789.887 478.541C788.999 478.682 783.676 479.526 782.138 480.019C780.6 480.512 777.345 480.371 777.345 480.371C771.843 476.36 770.425 482.456 771.33 484.244C772.229 486.032 774.631 488.177 777.638 489.607C780.646 491.038 781.245 494.614 783.048 496.043C784.851 497.474 783.953 498.904 785.456 502.837C786.954 506.77 791.765 513.206 793.867 514.279C795.97 515.351 798.079 520 801.685 521.787C805.292 523.575 804.992 535.732 804.992 535.732C804.992 535.732 802.884 540.38 804.088 542.168C805.292 543.956 804.992 551.822 804.992 551.822C804.992 551.822 805.591 560.761 805.591 561.834C805.591 562.907 804.088 567.555 804.387 570.058C804.687 572.56 801.685 585.787 801.685 587.219C801.685 588.652 799.577 597.589 798.378 606.17C797.174 614.751 796.575 641.926 795.671 644.784C794.772 647.649 793.268 658.376 793.268 658.376C792.784 658.78 792.3 659.294 791.822 659.897" fill="#7F7F81"/>
<path d="M658.948 630.57C660.538 628.054 660.319 625.429 659.086 622.839C660.066 621.954 660.734 621.187 660.734 620.775C660.734 619.315 662.209 607.034 662.704 604.69C663.194 602.352 663.442 601.18 663.442 601.18C663.442 601.18 651.885 567.257 646.481 556.436C641.071 545.615 634.924 542.691 632.222 542.105C629.515 541.521 625.338 536.549 623.367 532.162C621.403 527.775 619.191 524.85 619.438 523.095C619.68 521.341 618.943 512.859 618.701 511.689C618.453 510.52 620.913 507.887 624.353 515.784C627.792 523.68 627.55 525.435 627.55 525.435C627.55 525.435 632.712 524.557 633.697 524.557C634.676 524.557 635.414 521.048 634.676 518.124C633.939 515.199 634.187 510.812 632.464 507.887C630.747 504.963 627.792 498.236 625.827 496.481C623.863 494.727 620.665 492.387 620.418 491.51C620.176 490.632 617.964 488.585 620.913 487.415C623.863 486.245 628.777 491.802 632.712 495.019C636.647 498.236 638.364 500.576 638.364 500.576C638.364 500.576 640.824 497.651 633.697 492.387C626.565 487.122 623.367 483.905 627.055 480.981C627.055 480.981 633.939 483.905 636.647 487.122C636.647 487.122 640.576 487.415 642.546 488.292C644.511 489.17 648.446 491.802 649.183 492.387C649.92 492.971 654.097 504.378 655.33 506.718C656.557 509.057 655.82 511.689 655.33 513.445C654.835 515.199 651.395 522.511 652.87 525.143C654.345 527.775 655.82 528.36 657.047 531.577C658.28 534.794 666.144 544.738 667.866 547.077C669.589 549.417 676.715 557.898 676.715 557.898C676.715 557.898 676.963 554.681 677.942 554.096C678.928 553.511 677.942 543.86 681.14 540.643C684.337 537.426 694.172 530.407 703.758 531.577C713.344 532.746 730.553 532.746 733.255 532.746C735.963 532.746 742.11 532.162 742.11 532.162C742.11 532.162 752.923 552.634 752.434 556.729C751.944 560.823 752.676 564.04 752.923 567.257C753.171 570.475 752.186 579.831 751.944 582.175C751.696 584.512 750.463 597.089 750.711 601.77C750.959 606.444 749.726 620.488 748.746 625.162C747.761 629.843 745.797 633.057 743.585 636.279C741.372 639.493 740.139 641.837 737.685 645.929C735.225 650.021 733.255 652.947 733.75 654.997C733.963 655.881 734.217 657.697 734.326 659.897H652.87C650.963 650.72 652.19 640.851 658.948 630.57" fill="#7F7F81"/>
<path d="M863.07 658.931C864.7 654.476 865.19 653.509 865.674 654.092C866.164 654.668 875.272 635.127 886.166 620.426C897.066 605.718 904.383 591.4 906.497 584.053C908.611 576.699 908.612 567.41 912.189 560.639C915.767 553.867 921.781 539.936 922.432 540.323C922.432 540.323 926.177 528.134 928.291 528.327C928.291 528.327 927.473 525.231 931.218 526.973C934.957 528.714 931.057 545.934 929.426 552.899C929.426 552.899 933.171 543.225 934.957 537.421C934.957 537.421 940.977 533.164 936.91 551.352C932.843 569.539 932.192 570.7 932.353 571.667C932.52 572.634 932.192 578.439 932.192 578.439L933.983 578.631C933.983 578.631 937.071 569.926 940.488 565.669C943.904 561.412 949.106 560.639 947.804 565.282C946.502 569.926 945.69 563.735 943.414 575.344C941.139 586.952 940.326 584.245 939.347 587.726C938.373 591.208 933.332 595.273 930.89 597.397C928.453 599.529 922.922 601.27 918.693 607.458C914.465 613.654 909.746 622.749 907.148 628.747C904.544 634.744 897.389 648.095 894.785 658.54C894.67 659.02 894.56 659.452 894.451 659.897H862.667C862.839 659.513 862.978 659.184 863.07 658.931" fill="#7F7F81"/>
<path d="M544.728 641.906C547.332 636.903 549.539 630.94 549.735 629.274C549.936 627.609 552.943 598.048 553.543 585.889C554.148 573.734 554.148 545.368 552.943 541.793C551.739 538.217 548.738 534.165 548.133 530.112C547.534 526.06 548.133 522.961 545.932 518.671C543.726 514.38 540.321 509.374 538.717 506.037C537.114 502.7 536.313 499.124 536.112 498.171C535.912 497.217 538.517 494.357 543.127 500.316C547.735 506.275 548.335 511.043 552.143 511.52C555.951 511.996 558.555 512.95 559.557 511.52C560.56 510.09 564.765 505.084 564.765 504.368C564.765 503.653 561.159 494.595 561.758 492.688C562.363 490.782 564.564 489.589 564.765 491.973C564.967 494.357 566.165 496.026 566.77 497.217C567.369 498.409 567.369 498.409 567.369 498.409C567.369 498.409 571.777 493.88 571.777 491.735C571.777 489.589 570.578 479.816 572.381 477.194C574.185 474.572 575.181 475.526 575.181 475.526L575.786 480.293C575.786 480.293 576.789 468.613 581.997 470.758C582.596 471.005 580.994 476.718 580.994 476.718C580.994 476.718 582.999 476.956 582.596 478.386C582.198 479.816 581.196 483.153 581.196 486.253C581.196 489.351 579.992 491.258 579.594 495.548C579.191 499.84 576.985 502.938 576.587 506.275C576.184 509.613 575.988 514.38 575.181 516.764C574.381 519.148 571.575 526.775 571.777 528.92C571.978 531.066 570.578 536.072 570.377 539.409C570.175 542.746 570.175 544.891 570.578 547.514C570.976 550.136 570.578 554.188 570.578 558.002C570.578 561.816 571.777 582.079 572.18 591.852C572.577 601.626 574.381 613.545 574.381 613.545C574.381 613.545 578.989 632.132 579.79 636.903C580.591 641.673 580.194 646.916 578.592 651.919C578.241 653.016 577.394 655.936 576.265 659.897H538.904C541.104 652.077 543.449 644.366 544.728 641.906" fill="#7F7F81"/>
<path d="M345.821 649.644C345.321 645.114 345.02 643.921 345.02 643.921C345.02 643.921 341.514 644.517 340.712 643.448C339.91 642.372 340.712 642.015 341.113 641.179C341.514 640.343 343.918 638.438 343.517 637.012C343.116 635.58 342.315 622.585 344.118 617.581C345.921 612.578 345.921 611.626 348.626 607.692C351.332 603.757 352.734 599.583 353.235 598.631C353.736 597.678 354.838 596.369 355.439 594.697C356.04 593.031 356.741 591.839 357.643 589.337C358.545 586.835 358.144 585.876 359.346 583.614C360.548 581.352 361.149 580.16 362.352 579.207C363.554 578.247 368.863 575.629 368.863 575.629C368.863 575.629 365.758 546.071 364.957 544.521C364.155 542.972 356.04 523.426 355.74 522.591C355.439 521.757 361.65 516.632 361.85 515.797C362.051 514.963 358.845 500.184 357.643 497.562C356.441 494.941 349.629 483.618 348.426 472.414C347.224 461.211 347.224 456.801 346.923 456.205C346.623 455.609 343.317 447.385 342.315 446.67C341.313 445.955 337.506 443.452 337.005 442.856C336.504 442.261 335.202 440.234 336.204 439.519C337.205 438.804 340.712 439.161 343.217 440.472C345.721 441.784 349.629 443.452 350.329 444.048C351.031 444.644 352.133 443.333 351.031 440.83C349.929 438.327 341.313 423.905 340.512 422.595C339.71 421.284 338.308 419.138 340.211 417.113C342.115 415.086 345.22 421.642 346.322 422.356C347.425 423.071 349.228 426.171 350.029 427.243C350.831 428.316 355.94 434.156 356.741 435.348C357.543 436.54 358.344 437.732 358.344 437.732C358.344 437.732 357.844 429.745 356.842 427.839C355.84 425.932 349.728 411.987 349.428 409.842C349.128 407.697 349.528 406.386 351.632 406.624C353.736 406.863 355.238 410.557 356.441 412.821C357.643 415.086 362.151 423.429 363.253 424.859C364.355 426.29 365.257 427.243 365.457 428.911C365.658 430.58 366.059 432.845 366.059 432.487C366.059 432.13 367.261 428.792 367.06 427.005C366.86 425.217 366.159 419.734 365.858 418.304C365.558 416.874 364.055 412.106 364.055 410.915C364.055 409.723 362.585 405.131 367.127 406.175C369.278 406.67 369.402 411.342 370.85 414.418C372.297 417.493 372.401 421.552 373.228 424.013C374.055 426.473 374.883 428.687 374.262 431.394C373.642 434.1 372.711 437.668 372.401 440.989C372.09 444.31 371.883 450.831 371.883 453.66C371.883 456.489 371.573 464.854 372.09 471.989C372.608 479.124 372.608 483.183 373.435 484.66C374.262 486.135 376.227 489.826 377.778 495.362C379.328 500.898 380.983 506.926 380.983 506.926C380.983 506.926 383.568 507.909 384.189 511.231C384.809 514.553 392.358 532.882 393.598 535.589C394.839 538.294 397.114 545.184 397.941 546.783C398.768 548.382 400.94 554.41 401.146 555.64C401.353 556.87 407.351 567.327 409.212 569.664C411.073 572.001 417.795 578.398 417.484 578.275C417.174 578.152 416.037 581.106 415.83 583.196C415.623 585.286 416.347 587.377 415.727 589.714C415.106 592.051 414.899 593.531 414.899 593.531C414.899 593.531 417.484 600.42 418.415 612.229C419.346 624.038 419.759 628.095 419.759 629.576C419.759 631.049 419.863 633.51 419.863 633.51C419.863 633.51 423.172 637.691 424.826 641.748C424.826 641.748 434.136 650.185 440.914 659.897H345.139C345.629 656.333 346.085 652.022 345.821 649.644" fill="#7F7F81"/>
<path d="M117.587 644.133C118.654 638.033 122.5 621.002 124.85 613.38C127.199 605.759 142.366 578.309 144.289 571.956C146.211 565.602 153.689 549.337 153.689 547.812C153.689 546.287 154.97 547.05 154.757 546.287C154.543 545.525 157.961 542.475 157.534 535.867C157.106 529.26 153.048 514.774 153.048 511.724C153.048 508.675 154.543 507.658 154.757 505.371C154.97 503.084 154.757 498.764 154.97 495.714C155.184 492.664 156.038 490.885 157.106 488.344C158.174 485.802 161.806 476.653 162.02 474.366C162.233 472.079 165.437 471.57 167.574 475.382L167.36 478.94C167.36 478.94 169.069 480.974 167.36 483.261L167.147 491.647C167.147 491.647 169.069 483.769 171.846 484.786C174.623 485.802 174.41 491.393 173.555 496.984C172.701 502.576 172.701 505.625 173.342 507.912C173.982 510.199 175.264 512.995 175.692 514.266C176.118 515.536 176.332 517.57 176.973 518.332C177.614 519.094 183.168 521.635 184.236 522.144C185.305 522.653 188.936 522.144 188.936 522.144C188.936 522.144 198.763 511.978 204.103 511.978C209.444 511.978 210.084 514.774 210.084 514.774C210.084 514.774 205.812 518.586 204.317 521.89C202.821 525.194 200.471 525.448 198.976 527.227C197.481 529.006 194.49 532.31 193.849 534.089C193.208 535.867 188.509 541.205 185.305 542.221C182.1 543.237 177.828 548.574 177.614 550.862C177.4 553.149 176.546 554.928 176.546 554.928L177.614 556.707C177.614 556.707 175.05 560.773 173.982 563.061C172.914 565.348 171.846 576.021 171.205 577.802C170.565 579.577 169.497 582.881 169.71 584.155C169.924 585.423 168.642 590.255 168.642 591.523C168.642 592.798 168.215 598.638 168.429 604.23C168.642 609.823 168.642 616.684 168.429 618.466C168.215 620.241 171.205 621.002 169.497 625.58C167.787 630.152 166.506 630.659 166.719 634.476C166.933 638.287 170.351 641.337 169.283 643.366C168.215 645.401 166.506 648.451 165.865 651.248C165.224 654.044 165.651 658.616 166.292 659.89C166.293 659.89 166.295 659.89 166.296 659.897H116.066C116.365 654.763 116.936 647.848 117.587 644.133" fill="#7F7F81"/>
<path d="M315.101 658.526C313.653 654.222 298.817 639.157 294.475 636.142C290.133 633.133 289.771 632.701 287.238 632.269C284.705 631.838 276.02 624.093 274.573 623.661C273.126 623.229 262.27 615.477 262.27 615.477C262.27 615.477 261.858 605.752 261.336 604.388C260.813 603.017 259.976 601.9 259.976 601.9C259.976 601.9 260.499 599.659 260.394 599.165C260.29 598.665 266.772 584.238 267.191 581.373C267.191 581.373 268.027 583.861 270.014 583.991C272 584.114 274.509 580.879 275.346 578.638C276.182 576.397 278.587 569.435 278.587 566.823C278.587 564.211 277.332 562.967 275.764 562.593C274.196 562.22 273.15 562.718 273.15 562.718C273.15 562.718 274.823 557.369 275.032 552.768C275.241 548.165 276.078 541.697 276.392 541.697C276.669 541.697 302.411 528.255 309.916 523.872C310.061 525.799 310.414 529.726 311.157 534.585C312.219 541.538 313.813 543.907 318.86 547.7C323.907 551.491 321.118 556.548 321.118 556.548C321.118 556.548 321.118 556.548 318.992 557.496C316.868 558.444 318.329 560.656 318.195 561.288C318.063 561.92 317.797 566.344 317.133 569.505C316.469 572.664 318.992 580.722 318.992 580.722C318.461 577.877 318.329 571.4 318.329 571.4C319.657 572.822 321.118 583.093 321.118 583.093C324.172 579.934 320.984 570.768 320.984 570.768C322.313 572.506 322.844 577.562 322.844 577.562C323.508 575.508 322.445 572.98 321.649 570.61C320.852 568.24 321.649 564.132 323.242 561.762C324.836 559.392 322.047 556.864 322.047 556.864C324.438 549.596 318.594 546.751 314.344 541.379C310.881 537.002 310.681 526.96 310.725 523.391C311.26 523.068 311.653 522.814 311.835 522.666C311.835 522.666 310.789 520.925 310.266 520.552C309.743 520.179 248.371 479.879 247.325 479.257C246.28 478.635 243.144 482.118 240.529 483.362C237.916 484.605 188.149 506.123 187.417 506.994C186.685 507.865 186.999 509.358 187.835 509.979C188.671 510.602 217.214 531 217.214 531C217.214 531 215.541 540.453 215.333 542.444C215.123 544.433 214.496 549.16 214.6 550.404C214.705 551.648 214.809 553.141 214.809 553.141C214.809 553.141 212.51 551.897 210.314 554.882C208.118 557.867 209.059 559.982 209.059 563.588C209.059 567.196 208.432 570.43 208.745 570.928C209.059 571.424 211.15 577.521 213.869 577.398C216.587 577.274 217.318 576.397 217.318 576.397C217.318 576.397 218.364 579.632 218.364 580.009C218.364 580.379 213.346 588.343 212.091 591.201C210.837 594.066 207.491 597.048 206.863 598.041C206.236 599.035 204.041 598.041 204.041 598.041C204.041 598.041 192.54 594.683 190.135 595.183C190.135 595.183 180.725 590.954 179.157 590.331C177.589 589.707 174.347 588.22 174.034 587.219C173.721 586.225 172.361 581.997 172.57 581.003C172.779 580.009 174.661 578.391 174.034 573.788C173.407 569.186 171.211 564.584 171.211 564.584C171.211 564.584 164.833 563.34 161.278 563.34C157.724 563.34 153.542 565.704 152.078 561.101C150.614 556.499 147.791 543.065 146.014 539.707C144.236 536.349 137.127 525.154 137.753 521.672C138.381 518.189 137.858 507.616 137.753 502.143C137.753 502.143 141.518 503.262 141.936 493.312C142.354 483.362 141.518 475.525 142.773 474.157C144.027 472.789 148.418 467.813 148.732 465.201C149.046 462.589 148.837 453.882 149.882 451.395C150.927 448.907 151.137 443.683 151.973 442.19C152.81 440.697 157.096 435.971 159.605 433.732C162.115 431.493 163.892 428.384 164.31 427.886C164.729 427.388 165.67 424.652 165.147 419.801C164.624 414.95 165.67 412.836 165.46 412.213C165.251 411.592 164.415 410.597 164.624 409.975C164.833 409.353 167.552 404.129 167.238 401.144C166.924 398.159 161.383 397.661 160.128 399.153C158.874 400.645 158.874 400.645 158.874 400.645C158.874 400.645 154.587 398.034 153.333 398.159C152.078 398.283 148.523 397.909 146.955 399.277C145.386 400.645 144.446 402.387 144.446 402.387C144.446 402.387 141.1 400.895 139.531 401.641C137.963 402.387 136.29 404.129 135.872 404.004C135.454 403.88 132.526 404.129 131.376 405.249C130.226 406.368 128.658 411.592 128.135 414.204C127.612 416.816 126.586 426.219 126.586 426.219C126.586 426.219 122.451 424.877 118.315 436.954C118.315 436.954 113.804 442.767 107.789 446.793C101.774 450.818 84.4805 458.868 78.4653 479.442C72.4501 500.015 68.691 510.302 66.0593 513.433C63.4276 516.564 53.2771 535.348 48.0144 552.791C42.751 570.233 37.8633 580.523 37.8633 580.523C37.8633 580.523 32.2243 581.414 31.4725 585.437C30.7207 589.467 32.2243 606.458 30.7207 613.168C29.217 619.877 26.2091 627.931 25.0817 631.509C23.9537 635.086 24.3293 644.922 25.0817 647.608C25.4902 649.068 25.5674 654.627 26.337 659.897H315.585C315.394 659.369 315.223 658.89 315.101 658.526" fill="#272425"/>
<path d="M563.429 641.365C551.123 638.458 544.607 636.416 544.607 636.416C544.607 636.416 544.607 633.832 541.26 633.942C537.915 634.051 534.025 634.051 534.025 634.051L532.758 635.45C532.758 635.45 524.798 634.476 523.712 634.798C522.626 635.127 522.445 628.884 522.355 628.13C522.264 627.376 523.169 627.698 523.169 627.698C523.169 627.698 518.103 616.937 517.289 616.183C516.474 615.429 515.571 614.244 515.571 614.244C515.571 614.244 515.389 608.109 516.203 607.143C517.018 606.177 519.55 597.027 519.28 596.486C519.008 595.951 520.908 598.213 522.536 597.349C524.164 596.486 525.069 592.291 525.159 591.427C525.25 590.571 525.159 587.665 525.702 586.589C526.245 585.513 526.426 583.573 526.154 582.387C525.884 581.208 524.345 576.794 523.893 576.685C523.441 576.575 524.074 574.533 524.074 573.348C524.074 572.165 524.707 569.905 524.888 569.367C525.069 568.829 524.798 566.138 524.707 565.6C524.617 565.062 524.526 563.017 524.798 562.156C525.069 561.295 524.345 558.282 524.345 558.282L523.803 556.344L525.884 558.927C525.884 558.927 525.521 557.312 525.34 556.559C525.159 555.807 526.154 555.807 526.154 555.807L525.25 553.869C525.25 553.869 522.445 547.089 521.993 546.551C521.541 546.012 520.546 543.215 519.641 542.676C518.736 542.138 515.118 538.909 514.665 538.048C514.213 537.188 514.394 535.896 513.309 535.142C512.223 534.389 511.409 533.851 509.328 532.99C507.247 532.129 504.624 531.268 502.724 530.945C500.824 530.623 497.206 530.945 496.12 530.837C495.034 530.73 496.754 527.824 500.915 528.578C500.915 528.578 497.387 526.855 492.411 530.299C492.411 530.299 488.069 530.837 487.797 530.837C487.526 530.837 488.612 529.546 491.235 528.578C491.235 528.578 486.893 528.578 483.636 533.313C483.636 533.313 481.104 538.264 480.56 538.264C480.018 538.264 480.379 535.68 480.379 535.68C480.379 535.68 478.118 539.124 477.665 539.232C477.213 539.34 475.133 541.385 474.409 542.138C473.685 542.891 473.142 542.568 472.6 544.29C472.057 546.012 471.424 544.614 470.428 546.228C469.433 547.842 468.166 548.811 467.805 550.21C467.443 551.609 467.262 551.501 467.081 553.331C466.9 555.16 466.9 554.837 466.086 556.559C465.272 558.282 464.368 560.111 464.82 561.08C465.272 562.048 465.724 563.34 465.996 564.739C466.267 566.138 465.996 565.384 466.719 567.429C467.443 569.475 467.896 572.595 467.986 574.21C468.077 575.824 468.438 576.472 468.438 576.472C468.438 576.472 466.538 578.727 466.448 581.633C466.357 584.539 467.352 586.691 467.263 589.385C467.171 592.078 466.719 593.477 467.624 594.553C468.529 595.629 470.066 596.273 470.88 596.595C471.695 596.917 472.871 597.137 472.871 597.137C472.871 597.137 474.137 601.763 474.771 602.839C475.404 603.915 475.766 608 476.58 609.405C477.394 610.803 477.484 616.293 477.756 617.15C478.028 618.013 478.209 619.09 478.209 619.09C478.209 619.09 477.213 620.488 477.032 620.81C476.851 621.132 474.59 631.68 474.319 634.051C474.047 636.416 474.771 636.416 474.771 636.416C474.771 636.416 473.504 638.033 472.781 637.814C472.057 637.602 463.01 628.993 460.025 628.13C457.039 627.266 454.416 625.655 454.507 624.36C454.597 623.071 454.326 617.794 454.235 616.718C454.145 615.642 449.079 603.052 448.265 600.577C447.451 598.103 447.36 596.383 446.274 595.732C445.189 595.087 443.018 594.23 441.57 594.765C440.123 595.306 438.313 596.054 437.228 595.629C436.143 595.197 432.162 591.427 429.267 590.571C426.372 589.707 424.925 589.275 424.201 588.631C423.477 587.987 412.622 569.044 410.36 565.923C408.098 562.802 401.494 548.273 400.228 546.443C398.961 544.614 395.162 537.618 394.348 537.187C393.534 536.757 392.539 534.281 391.453 533.743C390.367 533.205 385.935 523.52 385.392 519.968C384.849 516.416 384.216 512.219 384.306 510.066C384.397 507.914 383.673 502.425 383.673 501.134C383.673 499.842 383.401 497.798 383.401 497.798L376.978 497.259C376.978 497.259 375.26 487.896 374.446 485.098C373.632 482.3 371.551 480.04 370.465 478.964C369.897 478.399 368.832 477.129 367.751 476.092C368.045 475.301 368.324 474.489 368.575 473.642C372.194 461.444 370.787 437.528 368.174 432.985L358.323 429.397C358.323 429.397 358.122 407.872 355.71 403.089L344.194 411.605C345.173 396.138 343.339 381.416 334.225 376.656C314.848 366.535 320.457 393.028 313.093 402.542C312.605 402.031 311.972 401.711 311.271 401.711C310.086 401.711 309.082 402.599 308.684 403.842C307.958 403.608 306.298 403.704 303.145 406.758C298.575 411.185 297.792 414.446 296.095 416.465C294.398 418.484 293.745 421.512 292.57 421.357C291.395 421.202 290.417 422.6 290.155 425.861C290.155 425.861 291.2 422.6 293.223 422.211C293.223 422.211 291.395 423.92 291.721 426.327C292.048 428.734 292.57 428.656 291.46 430.598C291.46 430.598 293.615 429.277 293.028 426.404C292.439 423.532 294.398 422.444 295.573 421.59C296.748 420.736 298.771 420.193 299.228 419.416C299.685 418.639 296.552 423.92 296.291 427.491C296.03 431.063 296.16 433.471 295.442 433.937C295.442 433.937 297.139 432.695 297.27 429.2C297.4 425.706 299.097 422.833 299.815 421.746C300.448 420.787 301.283 419.529 301.472 419.084C301.258 419.961 300.234 425.163 300.469 427.88C300.469 427.88 300.795 432.151 300.076 432.772C300.076 432.772 301.447 431.685 301.447 428.889C301.447 426.094 302.1 421.28 302.687 420.115C303.275 418.95 303.667 418.794 305.037 417.086C306.408 415.378 306.995 414.446 307.713 413.048C308.256 411.991 309.692 409.562 310.418 408.136C310.688 408.241 310.971 408.311 311.271 408.311C312.803 408.311 314.045 406.834 314.045 405.011C314.045 404.559 313.967 404.128 313.829 403.735C314.178 403.388 314.533 403.01 314.894 402.58C317.53 399.445 319.991 377.074 325.087 376.447C330.183 375.82 337.212 378.538 338.618 382.3C340.024 386.065 343.89 389.827 343.187 402.998C343.003 406.451 342.697 409.825 342.347 412.971L311.081 436.093L314.498 509.995L337.616 495.406C337.616 495.406 349.276 496.363 350.684 502.102C350.684 502.102 353.675 497.914 355.049 495.221C355.778 495.358 356.511 495.383 357.116 495.167C359.127 494.449 360.333 497.319 360.937 498.993C361.539 500.668 361.138 507.364 361.138 507.364C361.138 507.364 364.153 519.801 363.751 520.04C363.349 520.278 365.56 535.107 365.359 536.063C365.158 537.02 365.963 542.52 365.963 542.52C365.963 542.52 361.941 542.52 359.127 542.76C356.313 542.999 353.498 545.39 353.498 545.39C353.498 545.39 355.106 547.543 357.921 553.522C360.735 559.502 363.349 560.936 362.947 565.959C362.545 570.981 362.746 572.176 362.746 572.176C362.746 572.176 368.776 581.023 371.591 584.615C374.405 588.199 378.225 591.311 379.633 592.503C381.039 593.703 382.648 608.528 387.874 621.92C393.101 635.313 397.725 644.64 400.137 647.752C402.55 650.864 404.158 653.256 408.38 658.273C408.779 658.753 409.215 659.308 409.668 659.897H585.839C580.24 652.605 571.967 643.386 563.429 641.365" fill="#272425"/>
<path d="M960.427 234.912L961.049 233.812C961.049 233.812 960.79 234.207 960.427 234.912Z" fill="#272425"/>
<path d="M858.398 658.67C858.046 654.798 856.537 648.157 857.349 644.976C858.161 641.796 862.35 634.051 862.58 632.53C862.811 631.008 864.09 621.468 862.35 618.98C860.604 616.492 866.181 615.663 865.95 614.559C865.72 613.449 862.926 609.994 863.162 607.507C863.392 605.012 864.205 600.865 864.671 598.514C865.138 596.163 866.181 591.599 865.95 589.666C865.72 587.726 866.532 586.76 867.229 584.827C867.926 582.888 868.157 582.476 868.854 579.57C869.551 576.664 869.787 575.699 870.951 574.317C872.109 572.934 876.413 564.084 877.225 561.042C878.037 557.999 878.273 552.607 879.668 550.394C881.062 548.181 885.596 542.788 885.596 538.917C885.596 535.045 884.547 528.96 884.899 528.131C885.244 527.301 886.759 520.525 887.457 517.621C888.154 514.718 890.009 507.942 889.663 505.452C889.312 502.964 888.269 499.507 888.851 497.571C889.433 495.635 891.057 490.518 891.985 490.242C892.918 489.965 896.404 486.923 897.216 484.849C898.034 482.775 899.889 477.796 900.125 474.755C900.356 471.712 901.986 465.905 903.029 464.798C904.077 463.692 905.702 463.277 906.866 461.341C908.03 459.405 912.327 446.683 912.327 442.259C912.327 437.834 914.073 431.473 914.303 430.505C914.534 429.537 922.905 406.997 923.256 405.338C923.602 403.678 924.414 401.743 925.814 400.636C927.208 399.53 933.713 394.137 934.761 392.478C935.81 390.818 936.622 389.021 936.271 388.191C935.925 387.361 936.04 384.043 935.458 383.074C934.876 382.107 935.112 379.064 934.646 378.512C934.179 377.958 934.531 376.16 933.482 376.022C932.439 375.884 932.439 375.055 932.203 374.639C931.973 374.225 930.227 373.395 929.766 372.703C929.3 372.012 929.997 370.768 929.997 369.661C929.997 368.555 928.602 364.545 929.415 363.439C930.227 362.333 932.318 360.12 932.318 360.12C932.318 360.12 938.972 337.206 942.642 323.961C947.81 318.344 959.47 301.621 961.458 297.484C963.624 292.97 962.944 285.878 962.27 282.976C961.631 280.25 958.842 273.401 957.834 271.379C959.678 270.849 961.049 268.889 961.049 266.534C961.049 264.645 960.156 263.02 958.86 262.171C958.791 262.077 958.745 262.021 958.745 262.021C958.745 262.021 958.745 259.603 959.015 257.508C959.286 255.412 959.015 254.606 958.07 247.191C957.362 241.673 959.355 236.963 960.427 234.912L957.932 239.293C957.8 238.325 956.849 236.391 955.899 233.167C954.954 229.943 952.511 225.43 948.991 223.979C945.471 222.529 943.841 218.821 943.841 218.821C942.354 220.917 943.708 223.817 943.708 223.817C941.133 221.239 938.419 223.495 938.419 223.495C940.591 223.173 942.757 227.848 942.757 227.848C939.508 223.495 937.745 226.397 937.745 226.397C939.911 225.752 941.536 230.265 941.536 230.265C939.508 230.588 937.745 228.17 937.745 228.17C937.475 230.427 941.404 232.2 941.404 232.2C937.204 232.845 936.524 230.265 936.524 230.265C935.85 233.006 939.911 233.489 939.911 233.489C943.818 233.025 947.153 237.908 948.714 240.678C947.136 238.916 944.382 238.809 944.382 238.809C948.72 239.131 950.345 248.642 950.345 248.642C948.449 244.29 946.145 243.645 946.145 243.645C947.908 244.129 950.345 250.738 951.295 252.51C952.24 254.284 953.329 259.119 953.732 261.538C953.796 261.921 953.911 262.366 954.049 262.836C953.197 263.75 952.649 265.062 952.649 266.534C952.649 269.169 954.366 271.304 956.544 271.495C956.745 272.595 957.114 273.78 957.8 274.595C959.424 276.529 961.049 282.009 961.458 286.684C961.861 291.358 959.828 299.096 954.412 306.833C950.892 311.855 946.416 317.064 943.702 320.114C944.255 318.07 944.67 316.481 944.872 315.594C946.266 309.509 957.31 273.972 957.31 273.972C957.31 273.972 944.175 294.713 942.314 295.405C940.459 296.096 935.228 293.469 933.713 293.33C932.203 293.192 918.371 287.108 917.789 287.108C917.213 287.108 903.841 308.127 902.447 311.86C901.053 315.594 895.706 333.294 895.706 333.294C895.706 333.294 890.706 339.24 891.173 341.452C891.639 343.665 895.937 347.674 895.937 347.674C895.937 347.674 902.332 348.781 905.587 350.164C908.842 351.547 913.14 355.557 916.279 355.695C919.419 355.834 924.996 359.014 924.996 359.014L921.977 370.076C921.977 370.076 921.159 368.002 919.886 369.247C918.607 370.491 917.789 373.948 917.213 374.225C916.631 374.501 912.442 378.096 911.515 378.373C910.587 378.649 908.49 379.479 907.678 382.245C906.866 385.011 906.514 391.233 906.399 393.999C906.284 396.764 906.514 398.009 905.356 401.189C904.193 404.37 896.058 426.356 896.058 426.356C896.058 426.356 828.06 448.343 821.204 452.63C814.342 456.916 802.837 468.947 802.716 475.999C802.601 483.051 804.692 492.455 805.274 494.529C805.856 496.603 807.832 502.964 807.487 504.623C807.135 506.282 806.323 507.251 806.208 508.633C806.092 510.016 806.323 502.134 803.535 495.635C800.746 489.135 799.467 484.71 798.534 485.264C797.606 485.817 796.443 482.913 796.091 481.669C795.745 480.424 794.933 478.35 792.957 478.765C790.981 479.179 789.933 479.318 788.654 478.35C787.375 477.382 786.914 476.414 785.283 476.967C783.659 477.52 782.962 477.935 781.446 478.212C779.937 478.488 773.663 478.073 771.918 479.041C770.172 480.009 769.36 480.7 767.965 481.392C766.571 482.083 763.679 483.504 763.679 483.504C763.679 483.504 759.704 483.933 757.895 485.222C756.092 486.512 751.033 491.671 749.225 493.82C747.421 495.969 746.332 495.109 744.529 497.688C742.72 500.268 742 504.136 741.637 506.715C741.274 509.294 742.363 511.444 740.917 515.313C739.471 519.181 738.745 514.453 739.471 519.181C740.191 523.91 739.471 525.199 738.388 528.208C737.305 531.217 738.745 531.217 739.471 535.085C740.191 538.954 739.828 542.393 741.637 544.113C743.446 545.832 745.612 548.841 745.612 548.841C745.612 548.841 743.446 551.42 745.975 556.578C748.504 561.737 750.308 566.035 752.117 567.325C753.92 568.614 762.233 570.764 762.233 570.764C762.233 570.764 760.424 572.483 754.646 573.773C748.862 575.062 732.604 576.352 730.438 577.644C728.271 578.933 717.429 577.644 715.983 582.798C714.537 587.959 710.562 591.4 712.008 596.986C712.008 596.986 705.503 596.554 700.445 593.977C697.496 592.469 693.198 589.508 689.77 587.473C687.131 577.144 679.82 570.592 677.188 564.038C673.944 555.979 672.181 549.322 672.769 547.57C673.356 545.818 678.951 541.612 678.069 537.057C677.977 536.575 677.844 535.183 677.706 533.569C677.804 533.506 677.896 533.427 678 533.312C680.304 530.733 680.218 524.967 679.763 523.963C679.175 522.672 677.873 522.3 676.957 522.204C676.681 520.83 676.139 519.427 675.125 518.487C673.938 517.39 661.869 516.385 659.806 521.64C659.806 521.64 657.45 531.452 658.043 535.656C658.631 539.861 656.862 543.365 658.337 547.57C659.806 551.775 662.456 578.755 664.519 584.711C665.873 588.61 666.973 595.8 668.972 601.194C667.077 604.121 665.856 606.711 665.677 609.302C665.331 614.415 662.543 627.972 662.076 630.042C661.61 632.119 660.452 633.914 661.264 635.71C662.076 637.512 664.865 642.626 664.98 644.01C665.101 645.394 661.61 646.087 662.658 647.608C663.701 649.123 668.235 655.49 669.98 657.978C670.361 658.513 670.891 659.219 671.49 660H858.495C858.455 659.438 858.426 658.979 858.398 658.67" fill="#272425"/>
<path d="M130.794 211.968C130.093 209.19 127.992 210.023 127.992 210.023C127.992 210.023 108.491 216.691 89.9581 222.956C92.5166 214.441 96.2083 207.096 98.6609 202.721C99.1874 203.063 99.7825 203.276 100.425 203.276C102.471 203.276 104.129 201.302 104.129 198.869C104.129 198.228 104.009 197.623 103.802 197.073C105.022 195.945 106.51 194.471 107.924 192.848C110.454 189.946 107.834 186.506 109.189 184.249C110.545 181.992 112.081 180.594 113.617 177.907C115.153 175.22 117.141 172.317 118.948 168.555C120.755 164.792 119.851 158.773 119.851 158.773C118.677 165.437 115.966 168.017 115.966 168.017C117.503 165.974 118.948 158.235 118.948 158.235L117.592 156.622C115.243 158.45 110.454 171.887 110.906 170.059C111.358 168.232 113.075 162.857 114.069 161.352C115.063 159.848 116.689 155.655 116.689 155.655L114.34 153.505L112.623 156.73C112.623 156.73 113.617 153.398 113.255 152.646C112.894 151.893 111.9 151.463 111.9 151.463C111.9 151.463 112.352 150.71 111.177 152.431C110.003 154.151 109.099 161.352 109.099 161.352C108.105 157.376 109.461 151.033 109.461 151.033C108.195 154.365 107.563 157.59 107.744 161.352C107.924 165.115 105.033 171.242 105.033 171.242C104.31 174.789 102.864 179.089 102.323 181.024C101.78 182.959 102.051 184.786 102.142 186.184C102.232 187.581 102.051 188.441 101.057 190.376C100.453 191.554 100.05 193.324 99.8263 194.533C98.0663 194.875 96.7199 196.678 96.7199 198.869C96.7199 200.418 97.3957 201.775 98.412 202.561C93.3987 210.269 90.3458 217.29 88.5409 223.435C75.269 227.919 62.7657 232.103 58.6281 233.363C48.5859 236.419 43.6808 239.475 43.6808 239.475C46.9509 272.261 58.8619 328.663 58.8619 328.663C61.1969 326.162 82.4497 320.05 83.6174 320.05C84.7852 320.05 89.6897 321.439 90.6241 321.161C91.558 320.883 92.4924 322.55 104.637 319.494C116.781 316.438 121.686 306.713 121.686 306.713C124.956 305.602 146.208 297.822 146.208 297.822C146.208 297.822 131.495 214.747 130.794 211.968" fill="#272425"/>
<path d="M505.269 272.665C502.495 273.445 502.197 270.929 502.197 270.929L506.793 263.552C506.793 263.552 515.832 262.779 519.343 264.232C522.853 265.683 522.256 264.378 522.256 264.378C522.256 264.378 521.859 262.265 519.585 261.027C517.312 259.79 515.878 256.655 514.363 254.588C512.849 252.521 509.002 247.223 507.684 248.076C506.367 248.929 496.727 252.122 494.291 253.021C491.856 253.92 488.727 250.189 484.977 248.215C481.228 246.24 465.293 236.916 463.817 236.179C462.341 235.441 457.216 232.326 455.54 232.395C455.54 232.395 452.749 251.841 449.881 271.823C444.794 262.343 440.657 249.626 443.784 235.941C446.627 223.5 447.072 216.104 446.398 211.205C446.478 211.158 446.559 211.119 446.638 211.067C450.277 208.712 451.622 203.294 449.642 198.965C449.414 198.466 449.147 198.007 448.856 197.583C449.076 196.242 449.273 194.777 449.412 193.215C449.915 187.576 448.974 187.265 447.631 183.332C446.288 179.398 445.991 177.751 444.749 175.285C443.507 172.819 442.83 170.089 442.349 167.54C441.868 164.99 440.789 163.133 440.044 160.755C439.299 158.376 439.362 155.269 439.261 153.802C439.16 152.334 438.772 150.236 438.494 148.882C438.218 147.528 436.483 145.483 436.483 145.483C436.483 145.483 436.76 146.837 437.55 150.311C438.34 153.785 437.363 153.396 437.003 154.855C436.643 156.314 436.728 157.997 437.309 159.766C437.89 161.536 438.923 173.028 438.602 170.579C438.28 168.13 437.371 165.142 436.733 163.001C436.096 160.858 436.011 156.928 436.078 154.33C436.145 151.731 434.778 146.996 434.049 146.65C433.32 146.305 430.166 148.143 430.166 148.143C430.166 148.143 430.324 154.478 430.143 154.084C429.963 153.69 429.249 148.634 429.249 148.634L427.944 149.274C427.944 149.274 426.462 150.029 426.667 151.225C426.871 152.421 431.647 162.613 431.647 162.613L431.124 163.464C430.891 163.205 429.734 162.422 428.8 158.633C427.865 154.843 424.829 151.699 424.829 151.699C424.829 151.699 425.799 153.32 426.941 156.565C428.083 159.811 427.187 160.597 427.968 163.054C428.531 164.826 430.469 167.66 431.51 169.109C430.828 168.573 429.675 168.111 427.548 165.88C424.477 162.658 424.691 158.635 424.691 158.635C424.144 160.931 422.642 161.393 426.551 165.198C430.461 169.002 438.556 180.213 437.695 191.807C437.538 193.92 437.486 195.712 437.502 197.241C435.42 199.973 434.9 204.071 436.465 207.495C438.091 211.048 441.451 212.757 444.615 211.955C445.167 216.482 445.142 222.023 443.671 228.226C440 243.703 439.442 254.879 449.732 272.865C447.765 286.566 445.784 300.363 444.662 308.176C441.872 327.591 445.301 330.111 448.512 332.773C451.722 335.435 478.98 357.069 487.24 356.462L490.615 330.235C490.615 330.235 497.481 327.823 501.356 322.605C505.231 317.387 509.526 311.22 511.345 308.35C513.163 305.48 517.458 299.314 519.056 296.586C520.655 293.857 523.484 275.773 524.084 273.352C524.685 270.932 525.664 269.96 525.664 269.96C525.664 269.96 508.043 271.885 505.269 272.665" fill="#272425"/>
<path d="M292.423 126.528C291.091 108.037 291.535 105.395 291.535 105.395C291.535 105.395 283.763 101.697 280.21 102.225C280.21 102.225 274.881 77.394 274.215 74.2241C273.549 71.0542 272.439 69.2051 271.995 72.6395C271.995 72.6395 252.214 83.9099 235.411 94.02C223.214 78.054 228.254 68.2558 231.744 64.2189C232.165 64.8892 232.832 65.3285 233.59 65.3285C234.866 65.3285 235.901 64.0969 235.901 62.5781C235.901 62.4746 235.885 62.3766 235.876 62.2759C237.067 60.9243 238.668 59.1964 240.242 58.4445C242.75 57.2485 248.441 46.6546 247.493 47.2529C246.544 47.8506 245.595 49.9862 245.528 50.3282C245.46 50.6702 238.481 56.8216 238.481 56.8216C238.481 56.8216 239.43 55.7962 240.242 54.6852C241.056 53.5749 241.598 52.3789 241.937 51.2686C242.276 50.1576 244.173 48.5339 245.324 47.7655C246.477 46.9965 246.409 44.4333 246.409 44.4333C246.07 44.6039 244.511 45.8855 243.834 46.6545C243.156 47.4235 242.208 48.6196 241.801 49.1322C241.395 49.6449 239.904 50.5846 239.904 50.5846C240.785 49.6449 240.65 49.4742 242.479 46.9109C244.308 44.3476 245.392 44.1769 245.324 43.9206C245.257 43.6642 244.037 41.5286 244.037 41.5286C244.037 41.5286 242.411 41.6143 241.801 42.0413C241.191 42.4682 241.191 44.1769 240.581 45.2879C239.972 46.3982 237.804 49.7299 237.804 49.7299C237.871 49.1322 237.262 47.4236 238.21 46.9109C239.159 46.3982 240.446 42.0413 240.446 42.0413C240.446 42.0413 237.736 45.8006 237.058 47.0816C236.38 48.3632 236.177 50.5846 235.906 52.5496C235.635 54.5146 234.754 56.3946 233.67 57.8469C233.212 58.461 232.954 59.2691 232.801 60.0031C231.914 60.3876 231.278 61.3903 231.278 62.5781C231.278 62.8495 231.321 63.1059 231.382 63.3526C227.214 66.3779 226.752 72.8883 226.377 77.1363C226.139 79.8141 229.975 87.2252 234.38 94.6403C222.858 101.59 212.981 107.865 212.264 109.358C210.488 113.056 211.82 114.113 211.82 114.113L214.262 125.472C214.262 125.472 229.361 194.418 230.472 198.645C230.472 198.645 230.916 200.758 234.246 197.853C237.577 194.947 267.554 178.568 272.439 174.606C277.324 170.644 291.979 162.983 291.979 162.983L290.203 153.737C290.203 153.737 293.755 145.02 292.423 126.528" fill="#272425"/>
<path d="M727.355 99.4491C728.692 96.1291 728.358 94.4026 728.358 91.2155C728.358 88.0278 729.585 84.3096 729.251 80.8567C728.917 77.4037 730.478 66.5136 730.478 66.5136C729.36 67.8419 728.133 71.029 727.574 73.0214C727.021 75.0131 726.128 78.7313 726.462 81.786C726.797 84.8408 725.011 94.4026 725.011 94.4026C726.013 89.7543 725.011 86.4343 725.12 83.5125C725.235 80.5908 725.679 74.0838 726.572 71.5602C727.465 69.0373 728.582 66.6466 728.582 66.6466L725.569 64.6542C725.569 64.6542 723.225 64.7872 722.666 65.1861C722.107 65.5843 721.663 68.7713 721.548 70.4978C721.439 72.2243 719.428 79.5284 719.428 79.5284C719.428 79.5284 719.877 76.2084 720.431 73.2866C720.989 70.3648 721.663 65.1861 721.663 65.1861C721.663 65.1861 719.653 64.389 719.762 64.7872C719.877 65.1861 717.752 70.2325 717.533 72.7554C717.308 75.279 714.629 78.0678 713.511 82.5831C712.394 87.0984 713.846 99.1838 713.846 99.1838C712.394 96.7932 711.282 86.9655 711.282 86.9655C711.391 88.8249 711.057 95.5979 712.728 99.4491C714.404 103.3 713.961 107.949 713.062 112.066C712.515 114.602 712.515 118.444 712.595 121.024C710.763 121.571 709.398 123.529 709.398 125.88C709.398 127.577 710.112 129.071 711.195 129.979C711.178 130.019 711.172 130.054 711.155 130.095C708.77 136.113 698.527 149.041 687.667 158.347C679.872 165.031 674.117 176.288 671.104 182.852C669.249 172.543 662.952 135.451 662.22 132.65L645.807 138.826L648.152 141.814L650.162 156.156C650.162 156.156 632.245 158.547 630.569 159.145C628.898 159.742 625.378 162.332 624.041 162.929C622.699 163.527 612.652 171.495 614.161 172.093C615.665 172.69 618.516 174.483 618.851 175.081C619.185 175.679 619.018 182.252 620.187 185.439C621.362 188.627 622.031 195.4 622.699 197.989C623.367 200.579 625.378 205.36 626.046 206.755C626.72 208.149 629.232 213.328 629.566 215.321C629.9 217.312 631.744 223.488 631.577 225.878C631.41 228.269 631.07 236.835 632.412 238.229C633.749 239.624 635.927 238.627 635.927 238.627L637.603 241.615C637.603 241.615 644.637 239.823 647.149 239.424C649.661 239.026 663.891 235.44 663.891 235.44C663.891 235.44 665.233 244.405 665.233 246.197C665.233 247.99 665.066 251.377 665.066 251.377L681.307 250.978C681.307 250.978 682.142 244.205 681.307 240.62C680.512 237.207 672.89 192.146 671.726 186.082C672.994 182.686 675.073 177.313 679.296 170.699C685.662 160.738 694.033 153.965 699.057 149.981C703.683 146.311 711.432 132.848 712.624 130.746C712.947 130.838 713.275 130.901 713.621 130.901C715.856 130.901 717.665 128.83 717.809 126.218C719.607 124.039 721.917 120.852 721.998 119.901C722.107 118.573 722.891 112.597 723.893 109.011C724.895 105.426 735.726 92.145 735.726 92.145C731.486 94.4026 726.013 102.769 727.355 99.4491" fill="#272425"/>
<path d="M783.042 255.017L776.463 237.008L724.049 269.75C724.049 269.75 734.28 297.641 739.857 312.903C736.504 319.552 734.499 327.236 736.182 335.215C739.828 352.534 743.348 369.123 744.397 377.887C743.538 378.143 742.72 378.667 742.052 379.47C740.347 381.51 740.134 384.641 741.395 386.958C740.721 391.104 740.41 398.544 745.019 404.173C751.615 412.235 764.572 418.708 770.074 427.295C775.576 435.883 781.619 441.729 783.705 442.895C783.705 442.895 775.455 431.319 773.035 427.936C773.035 427.936 783.595 441.2 787.53 438.577L789.933 434.134C789.933 434.134 784.223 429.721 780.265 426.606C780.265 426.606 788.06 430.62 790.912 431.653L793.199 426.297C793.199 426.297 792.3 422.54 787.306 419.846C786.487 419.407 785.566 418.996 784.523 418.635C777.062 416.054 769.821 414.255 767.839 412.175C767.839 412.175 784.511 415.505 789.126 418.618C789.126 418.618 779.568 410.437 772.765 408.897C765.966 407.356 761.571 402.939 760.689 401.898C759.808 400.859 757.601 394.867 755.51 392.397C754.208 390.857 752.134 388.002 750.36 385.723C750.999 383.601 750.607 381.138 749.173 379.444C748.188 378.279 746.903 377.699 745.612 377.702C745.509 376.698 745.336 375.699 745.054 374.829C743.947 371.443 737.046 330.778 738.123 324.253C738.555 321.633 739.65 318.822 741.021 316.09C741.632 317.755 742.15 319.184 742.542 320.265C746.269 330.514 753.713 350.72 753.96 351.306C754.208 351.892 763.806 346.578 768.605 343.775C773.41 340.971 806.634 322.081 806.634 322.081L801.294 306.706C801.294 306.706 805.09 296.869 803.707 287.051C802.325 277.232 793.769 257.47 790.687 255.282L783.042 255.017" fill="#272425"/>
<path d="M445.593 94.9817C443.435 92.7137 442.272 91.395 442.272 91.395C442.611 92.088 443.819 93.3539 445.593 94.9817Z" fill="#272425"/>
<path d="M543.719 220.453C543.691 220.437 543.662 220.424 543.628 220.411C543.685 220.441 543.719 220.453 543.719 220.453Z" fill="#272425"/>
<path d="M541.934 214.614C542.234 209.483 539.359 207.124 537.87 205.945C536.382 204.765 528.798 197.924 528.202 196.685C527.765 195.774 523.662 193.621 521.457 191.935C521.804 191.003 521.999 189.976 521.999 188.892C521.999 185.49 520.106 182.616 517.505 181.674C517.516 180.94 517.488 180.167 517.409 179.346C516.489 169.815 509.742 157.039 502.368 150.867C494.594 144.357 495.721 138.889 496.224 137.418C498.299 138.778 500.414 140.119 502.566 141.432C537.566 162.776 556.095 168.724 556.095 168.724L528.448 152.629L526.978 141.432L541.392 109.59L526.978 98.3936L521.095 104.342L521.389 95.2442C521.389 95.2442 506.978 79.8485 491.978 82.9978C491.978 82.9978 477.272 110.29 478.154 120.787C478.154 120.787 454.572 103.222 445.593 94.9817C452.696 102.45 470.668 120.296 494.085 135.994C493.44 137.689 492 143.895 501.479 151.832C508.942 158.079 514.912 172.292 515.656 180.015C515.703 180.492 515.699 180.928 515.674 181.348C515.669 181.348 515.662 181.347 515.662 181.347C512.154 181.347 509.314 184.724 509.314 188.892C509.314 191.46 510.395 193.725 512.042 195.087C512.377 196.84 513.043 198.808 514.322 200.755C518.04 206.416 524.583 213.317 528.202 218.271C531.822 223.225 529.392 226.941 528.301 229.535C528.301 229.535 529.938 227.943 530.483 224.994C531.028 222.046 530.185 217.563 530.037 217.563C530.037 217.563 533.011 221.514 532.02 227.235C531.028 232.956 532.069 230.951 533.209 233.37C533.209 233.37 531.871 230.302 532.615 228.12C533.358 225.938 533.507 220.984 532.714 218.448C531.921 215.911 530.829 212.255 530.781 212.078C530.731 211.901 538.117 216.678 538.811 222.458C539.503 228.238 540.995 228.886 541.784 229.594C541.784 229.594 538.811 221.397 538.861 217.74C538.911 214.083 538.266 212.196 536.432 210.014C536.432 210.014 540.597 210.899 541.093 215.735C541.56 220.311 543.052 220.188 543.628 220.411C543.23 220.203 541.675 219.098 541.934 214.614" fill="#272425"/>
</svg>
