<svg width="774" height="434" viewBox="0 0 774 434" fill="none" xmlns="http://www.w3.org/2000/svg">
<path d="M789 434H0V-30H789V434Z" fill="white"/>
<path d="M78.0574 398.286H711.063C772.607 284.954 753.557 159.055 732.052 123.619C695.692 63.7035 666.034 34.7178 589.674 52.4939C546.944 62.4414 489.799 93.4729 463.024 58.2726C431.565 16.9158 355.774 21.8209 290.364 58.2726C220.13 97.4115 142.52 9.25402 71.2419 88.3533C-6.12937 174.214 71.9207 241.909 52.2965 281.774C13.3692 360.848 76.4274 397.467 78.0574 398.286Z" fill="#EAFCFC"/>
<path d="M42.2908 399.253H749.231C749.797 399.253 750.257 398.819 750.257 398.286C750.257 397.75 749.797 397.318 749.231 397.318H42.2908C41.7228 397.318 41.2622 397.75 41.2622 398.286C41.2622 398.819 41.7228 399.253 42.2908 399.253" fill="#355389"/>
<path d="M567.072 334.583C566.249 334.583 548.166 334.572 547.351 334.551C501.917 333.323 482.75 298.285 482.75 255.239V178.071C482.75 166.715 492.533 157.51 504.602 157.51H629.547C641.615 157.51 651.398 166.715 651.398 178.071V255.239C651.398 299.059 613.645 334.583 567.072 334.583" fill="#2B4773"/>
<path d="M598.674 194.335H510.377V143.283C510.377 120.377 530.181 101.741 554.527 101.741C578.869 101.741 598.674 120.377 598.674 143.283V194.335ZM554.527 85.2685C520.613 85.2685 493.12 111.136 493.12 143.045V210.808H615.927V143.045C615.927 111.136 588.437 85.2685 554.527 85.2685Z" fill="#AFC2E3"/>
<path d="M547.351 334.583C500.778 334.583 463.024 299.059 463.024 255.239V178.071C463.024 166.715 472.81 157.51 484.873 157.51H609.821C621.888 157.51 631.673 166.715 631.673 178.071V255.239C631.673 299.059 593.92 334.583 547.351 334.583" fill="#36578F"/>
<path d="M165.157 177.786L174.351 172.97L182.706 179.582C194.611 173.016 209.128 161.469 209.128 161.469C209.128 161.469 210.508 160.402 212.165 158.906C213.69 157.528 215.84 155.584 216.676 154.82C218.033 153.579 218.927 152.268 219.625 151.145C220.324 150.023 221.533 148.095 222.428 147.552C222.991 147.211 224.476 146.236 225.268 145.717C226.061 145.197 226.968 144.554 227.422 144.327C227.699 144.188 228.147 143.68 228.455 143.304C228.914 142.745 229.872 143.007 229.932 143.712C229.988 144.376 229.39 145.151 229.017 145.629C227.962 146.979 225.577 148.426 225.802 148.568C226.026 148.709 230.704 147.661 231.247 147.573C231.79 147.485 237.234 146.294 238.371 146.394C239.508 146.492 239.632 147.174 239.125 147.568C238.689 147.909 231.298 150.078 231.298 150.078C231.298 150.078 230.356 150.357 230.807 150.617C231.257 150.876 237.972 148.921 239.031 148.805C240.09 148.689 240.855 149.081 240.323 149.883C239.677 150.86 232.373 152.533 232.373 152.533C232.373 152.533 231.462 152.758 231.697 153.071C231.932 153.387 237.615 151.63 238.211 151.709C238.806 151.788 239.282 152.401 238.636 153.039C237.875 153.79 231.341 155.231 231.341 155.231C231.341 155.231 230.878 155.472 231.136 155.623C231.394 155.774 236.352 154.605 236.983 154.878C237.513 155.108 237.302 155.56 237.302 155.56C237.077 156.614 232.089 157.124 229.895 158.013C227.7 158.901 224.796 158.927 222.306 160.256C220.799 161.061 218.765 162.922 217.009 164.694C215.869 165.935 214.617 167.29 213.28 168.722H213.279C201.122 181.732 184.575 198.622 180.337 194.499C178.182 192.407 169.255 182.677 165.157 177.786" fill="#F7A491"/>
<path d="M215.649 154.925C215.723 154.83 216.943 153.997 216.943 153.997L222.337 160.808L221.079 161.954L215.649 154.925" fill="#F4F4F4"/>
<path d="M182.077 177.389C176.782 173.522 163.247 162.903 155.73 162.036C151.847 161.588 143.989 173.223 150.917 177.958C156.628 181.86 178.778 198.177 182.274 197.471C189.178 196.079 221.841 161.451 221.841 161.451L215.894 154.391L182.077 177.389Z" fill="#042254"/>
<path d="M435.005 201.212C435.473 200.274 430.529 198.997 430.367 197.986C430.208 196.975 436.839 197.545 437.173 196.703C437.783 195.152 429.95 195.659 430.184 194.929C430.418 194.199 438.469 193.301 437.759 191.94C437.052 190.578 429.514 193.689 429.393 192.8C429.275 191.912 436.681 190.5 436.761 188.586C436.804 187.562 424.43 192.508 423.136 191.822C421.84 191.137 425.181 186.633 424.18 185.818C423.177 185.004 418.835 194.423 418.052 194.698C417.27 194.972 400.29 199.8 394.518 200.601C394.028 198.762 389.686 188.644 389.269 186.909C385.88 188.714 381.56 186.542 378.093 188.15C379.836 193.943 383.76 213.025 385.326 213.883C390.098 216.497 415.201 204.025 419.352 201.818C423.505 199.608 425.625 200.663 428.334 200.101C431.037 199.539 434.537 202.151 435.005 201.212" fill="#F38B80"/>
<path d="M396.857 396.191C395.062 394.947 393.617 394.126 387.887 391.514C387.515 391.344 386.154 390.528 385.663 390.247C384.421 389.53 383.171 388.403 382.096 387.275C381.07 386.199 380.579 382.744 380.347 379.99C380.939 373.842 390.412 275.231 392.409 264.556C394.471 253.536 391.329 236.728 391.329 236.728L384.016 234.134L370.135 279.388L371.229 313.838C371.229 313.838 367.965 323.768 367.553 329.7C367.139 335.634 372.272 383.798 372.272 383.798C372.272 385.521 372.201 387.078 371.996 388.05C371.619 389.853 369.962 393.138 370.926 394.831C371.888 396.527 372.857 396.534 372.857 396.534L396.69 397.151C398.048 397.172 397.952 396.95 396.857 396.191" fill="#F48C7F"/>
<path d="M358.997 233.192C358.997 233.192 350.336 245.484 348.274 255.655C346.211 265.828 349.788 297.087 345.819 310.416C343.671 317.631 335.532 328.774 334.294 338.098C333.057 347.422 328.752 374.334 328.752 374.334C328.101 377.16 327.08 380.654 325.756 382.278C324.945 383.273 323.463 384.531 322.491 386.329C320.978 389.124 321.816 393.291 322.93 395.583C323.505 396.762 322.99 396.251 324.294 396.629C328.157 397.755 332.169 396.367 333.814 392.88C334.733 390.931 335.54 388.333 335.702 385.057C335.872 381.586 336.452 378.828 337.066 376.786L364.755 312.905L384.798 257.773L389.934 229.378L358.997 233.192" fill="#F79C8D"/>
<path d="M334.563 391.045C328.572 392.075 324.582 388.771 322.509 386.296C320.985 389.099 320.243 393.282 321.362 395.583C322.348 397.611 325.233 397.553 327.504 397.632C329.906 397.717 331.762 396.46 332.953 394.488C333.51 393.569 334.082 392.423 334.563 391.045Z" fill="#001333"/>
<path d="M385.661 390.245C379.063 391.841 374.186 390.755 371.459 389.718C370.756 391.597 369.824 393.957 370.317 395.316C370.924 396.98 372.055 397.611 372.817 397.629C378.843 397.778 394.618 397.727 399.214 397.785C399.855 397.792 400.21 397.084 399.796 396.62C398.657 395.337 386.151 390.528 385.661 390.245" fill="#001333"/>
<path d="M364.585 311.478C365.102 311.511 365.623 311.543 366.148 311.571C366.175 311.574 366.202 311.576 366.227 311.578C366.742 311.606 367.257 311.634 367.775 311.659C367.807 311.659 367.839 311.662 367.871 311.664C368.389 311.687 368.909 311.713 369.429 311.734C369.457 311.734 369.484 311.736 369.508 311.736C370.041 311.757 370.571 311.775 371.101 311.792C377.016 311.975 384.319 311.905 389.004 311.156C391.393 288.661 392.283 268.132 393.168 263.587C395.314 252.569 391.3 235.176 391.3 235.176L389.384 234.851L390.594 228.411L358.423 232.225C358.423 232.225 349.416 244.516 347.271 254.687C345.126 264.86 348.846 296.12 344.719 309.448C344.719 309.448 353.903 310.794 364.585 311.478" fill="#13375B"/>
<path d="M390.333 145.004C391.595 139.606 392.833 134.172 389.505 128.242C386.81 123.442 382.152 120.679 376.762 120.078C361.49 118.373 364.755 131.783 343.41 134.687C336.775 135.59 330.613 136.455 325.075 139.559C315.077 145.162 311.302 154.148 317.935 168.789C334.171 204.638 373.027 173.485 378.954 167.144C384.835 160.852 389.522 148.48 390.333 145.004" fill="#F47458"/>
<path d="M327.674 303.716C327.674 303.716 352.567 317.677 395.176 312.796C395.176 312.796 397.109 260.527 391.058 226.063C379.546 218.263 367.469 214.646 360.785 224.847C339.046 258.023 327.674 303.716 327.674 303.716" fill="#001333"/>
<path d="M366.296 162.047C366.296 162.047 358.586 162.871 353.973 167.59C349.359 172.309 361.429 210.245 362.267 216.252C363.105 222.258 354.246 238.881 354.246 238.881C354.246 238.881 384.359 244.512 392.187 239.649C392.187 239.649 392.875 193.223 392.037 188.934C391.198 184.644 384.208 167.195 382.532 165.478C380.855 163.764 366.296 162.047 366.296 162.047Z" fill="#001333"/>
<path d="M370.177 147.424C370.177 147.424 370.117 147.744 370.009 148.294C369.489 150.925 367.487 159.653 366.135 162.054C364.501 164.954 371.73 174.202 378.688 173.074C380.759 172.738 376.937 164.576 377.122 163.711C377.472 162.056 377.951 159.799 378.436 157.484C378.713 156.178 378.991 154.853 379.253 153.609C379.997 150.071 380.604 147.178 380.604 147.178L370.177 147.424Z" fill="#F7A491"/>
<path d="M370.009 148.294C370.117 147.744 370.177 147.424 370.177 147.424L380.604 147.178C380.604 147.178 379.997 150.071 379.253 153.609C378.994 154.846 378.715 156.161 378.441 157.461C376.831 157.238 375.15 156.505 373.463 155.117C371.626 153.607 370.421 151.793 369.693 149.853C369.822 149.236 369.928 148.703 370.009 148.294Z" fill="#F47458"/>
<path d="M376.449 124.115C376.449 124.115 372.198 124.67 369.116 128.41C366.037 132.149 362.716 143.715 370.369 150.002C378.022 156.291 385.582 149.174 386.704 141.627C387.825 134.08 387.599 123.841 376.449 124.115" fill="#F7A491"/>
<path d="M388.935 139.764C388.452 141.582 387.185 142.812 386.105 142.508C385.025 142.207 384.539 140.485 385.022 138.666C385.503 136.845 386.77 135.618 387.853 135.919C388.933 136.223 389.418 137.945 388.935 139.764Z" fill="#F7A491"/>
<path d="M381.173 124.148C381.173 124.148 371.18 134.938 366.483 135.446C361.786 135.954 361.17 141.798 361.17 141.798C361.17 141.798 362.849 128.333 367.499 125.735C372.149 123.139 381.173 124.148 381.173 124.148" fill="#F47458"/>
<path d="M368.019 138.068C368.401 140.021 367.632 141.812 366.303 142.067C364.974 142.325 363.586 140.949 363.204 138.996C362.822 137.042 363.588 135.251 364.92 134.994C366.249 134.738 367.637 136.114 368.019 138.068Z" fill="#F7A491"/>
<path d="M511.846 221.527H281.715V211.326H511.846C514.842 211.326 517.269 213.611 517.269 216.428C517.269 219.244 514.842 221.527 511.846 221.527" fill="#F8D18A"/>
<path d="M381.992 145.564L374.741 145.134C374.741 145.134 374.736 147.735 377.919 148.011C381.8 148.345 381.992 145.564 381.992 145.564Z" fill="white"/>
<path d="M346.363 206.286L356.923 204.319C356.923 204.319 356.733 213.66 356.933 214.731C356.933 214.731 376.941 219.949 385.301 221.364C385.301 221.364 389.112 219.334 390.649 218.689C392.191 218.044 396.331 217.339 397.247 217.225C398.162 217.114 397.85 218.058 397.062 218.388C396.276 218.717 394.242 219.62 393.666 220.722C395.471 221.754 401.268 221.327 402.825 221.527C402.825 222.441 396.286 227.686 394.114 227.898C390.133 228.285 386.094 226.872 384.498 226.703C382.901 226.536 356.424 225.294 356.424 225.294C356.424 225.294 346.296 223.923 345.624 222.285C344.952 220.645 346.363 206.286 346.363 206.286" fill="#F7A491"/>
<path d="M355.385 166.219C355.385 166.219 351.692 167.866 348.447 174.979C345.363 181.739 343.814 215.356 343.814 215.356L357.538 213.479L362.913 197.826C367.346 188.412 366.202 177.45 359.745 169.137C358.021 166.919 356.433 165.581 355.385 166.219" fill="#001333"/>
<path d="M277.24 242.934C277.24 263.464 259.487 280.165 237.669 280.165C215.849 280.165 198.098 263.464 198.098 242.934V189.922C198.098 169.392 215.849 152.688 237.669 152.688C259.487 152.688 277.24 169.392 277.24 189.922V242.934ZM237.669 138.536C207.508 138.536 183.058 161.541 183.058 189.922V242.934C183.058 271.312 207.508 294.317 237.669 294.317C267.829 294.317 292.28 271.312 292.28 242.934V189.922C292.28 161.541 267.829 138.536 237.669 138.536Z" fill="#F8D18A"/>
<path d="M175.781 380.909C175.781 380.909 175.019 389.059 175.016 389.078C174.813 390.263 174.015 393.191 174.015 394.268C174.015 398.316 192.813 390.832 188.6 389.038C188.219 388.876 186.221 387.649 186.096 386.27C185.902 384.148 185.412 379.853 185.412 379.853L175.781 380.909" fill="#F7A491"/>
<path d="M188.553 388.999C188.553 388.999 184.14 390.238 181.88 390.548C179.619 390.857 176.639 388.252 175.04 388.955C173.28 389.73 173.458 397.36 173.458 397.36C173.458 397.36 198.22 398.242 203.336 397.318C206.061 396.824 197.576 391.882 188.553 388.999" fill="#001333"/>
<path d="M134.482 380.983C134.482 380.983 134.021 389.491 134.017 389.512C133.815 390.695 132.598 393.852 132.598 394.931C132.598 398.977 151.397 391.495 147.184 389.7C146.803 389.537 144.212 387.393 144.087 386.015C143.894 383.893 143.996 380.515 143.996 380.515L134.482 380.983" fill="#F7A491"/>
<path d="M147.137 389.662C147.137 389.662 142.724 390.899 140.463 391.21C138.203 391.518 135.223 388.913 133.624 389.616C131.864 390.391 131.794 397.367 131.794 397.367C131.794 397.367 158.95 398.01 162.902 397.474C165.648 397.1 156.16 392.546 147.137 389.662" fill="#001333"/>
<path d="M163.944 245.623L171.892 248.908L188.61 325.396L187.933 382.737L174.531 383.036C174.531 383.036 168.297 332.878 168.297 328.99C168.297 325.104 139.425 260.965 139.425 260.965L163.944 245.623" fill="#337AAB"/>
<path d="M157.81 249.831C157.81 249.831 151.955 308.764 151.955 318.698C151.955 328.632 147.207 384.231 147.207 384.231H133.393C133.393 384.231 132.804 367.209 131.364 342.276C131.139 338.372 131.655 330.493 131.364 326.452C129.274 297.377 125.141 270.008 127.115 259.16C127.433 257.413 128.03 252.847 129.193 251.694C137.99 242.973 157.81 249.831 157.81 249.831" fill="#6EA7CE"/>
<path d="M135.684 161.699C135.684 161.699 127.671 161.82 121.037 167.365C118.472 169.511 118.178 170.91 118.178 170.91C118.178 170.91 129.558 222.451 129.579 231.123C129.594 237.835 128.253 253.606 128.253 253.606C128.253 253.606 159.706 257.675 172.732 252.748C172.732 252.748 170.419 231.868 170.419 226.722C170.419 221.578 165.499 174.791 164.38 171.524C163.364 168.559 161.507 163.23 155.223 161.917C148.938 160.604 135.684 161.699 135.684 161.699" fill="#001333"/>
<path d="M138.215 147.823L135.921 162.214C135.921 162.214 144.3 179.352 149.302 177.865C153.5 176.619 150.917 161.456 150.917 161.456C150.917 161.456 148.63 153.312 149.316 149.236C150.002 145.162 138.215 147.823 138.215 147.823" fill="#F7A491"/>
<path d="M149.316 149.236C150.002 145.162 138.215 147.823 138.215 147.823L138.025 149.016C138.37 149.814 138.791 150.498 139.303 151.023C141.936 153.718 146.051 155.338 149.609 155.461C149.253 153.264 149.034 150.909 149.316 149.236Z" fill="#F47458"/>
<path d="M136.281 127.461C135.948 127.345 133.611 143.854 138.046 148.394C142.481 152.937 151.122 154.424 154.222 150.846C157.65 146.891 157.478 129.147 150.582 124.475C143.687 119.802 136.281 127.461 136.281 127.461Z" fill="#F7A491"/>
<path d="M147.957 115.645C142.628 116.68 132.198 122.644 128.801 127.997C124.625 134.578 127.709 141.87 132.57 145.448C137.432 149.025 137.377 153.178 137.377 153.178L138.133 151.018C138.701 149.399 138.932 147.682 138.742 145.984C138.628 144.965 138.399 143.863 137.956 142.958C136.786 140.569 140.468 138.982 141.5 136.994C142.294 135.465 142.333 131.961 143.585 129.433L145.081 127.5C145.081 127.5 147.465 125.735 150.208 125.554C150.765 125.516 151.337 125.547 151.906 125.667C155.281 126.389 154.796 114.318 147.957 115.645" fill="#010C1C"/>
<path d="M149.884 125.586C149.884 125.586 154.066 127.006 156.408 123.331C158.751 119.658 155.51 111.529 152.767 117.86C151.136 121.626 149.884 125.586 149.884 125.586Z" fill="#010C1C"/>
<path d="M141.273 139.931C141.308 141.944 140.346 143.594 139.124 143.615C137.902 143.633 136.883 142.019 136.848 140.003C136.813 137.989 137.775 136.342 138.997 136.321C140.219 136.3 141.238 137.917 141.273 139.931" fill="#F7A491"/>
<path d="M179.59 248.268C179.434 248.21 179.288 248.135 179.151 248.045C174.732 245.133 142.117 223.219 140.815 221.718C139.64 220.365 120.05 188.24 120.05 188.24L133.145 186.333L149.452 213.957C150.66 215.062 173.776 234.791 173.776 234.791C173.776 234.791 177.912 238.514 180.496 240.572C181.335 240.702 182.134 240.818 182.799 240.897C184.267 240.985 185.584 240.872 186.717 240.735C188.142 240.561 191.033 240.556 191.705 240.723C192.488 240.918 194.085 241.368 195.043 241.649C196.001 241.932 197.137 242.226 197.625 242.433C197.922 242.558 198.65 242.584 199.174 242.584C199.956 242.581 200.335 243.488 199.756 243.983C199.211 244.449 198.156 244.479 197.501 244.493C195.65 244.535 192.873 243.609 192.891 243.874C192.909 244.138 196.796 247.089 197.217 247.453C197.638 247.82 202.135 251.274 202.771 252.216C203.407 253.158 202.89 253.687 202.223 253.548C201.649 253.425 195.06 249.087 195.06 249.087C195.06 249.087 194.219 248.534 194.277 249.047C194.336 249.562 200.309 253.513 201.083 254.26C201.857 255.005 202 255.845 200.96 255.945C199.696 256.065 193.597 251.479 193.597 251.479C193.597 251.479 192.822 250.915 192.697 251.298C192.573 251.678 197.715 254.961 198.023 255.471C198.332 255.982 198.101 256.738 197.132 256.643C195.992 256.534 190.585 252.393 190.585 252.393C190.585 252.393 190.08 252.188 190.112 252.483C190.143 252.78 194.314 255.873 194.475 256.534C194.611 257.091 194.082 257.214 194.082 257.214C193.019 257.71 189.406 254.174 187.236 253.042C185.066 251.908 183.201 249.678 180.457 248.597C180.285 248.528 179.858 248.367 179.59 248.268" fill="#F8A492"/>
<path d="M178.216 248.133L179.61 248.516L182.785 240.63L180.99 240.322L178.216 248.133" fill="#F4F4F4"/>
<path d="M139.706 193.905L137.842 189.896C134.171 182.006 128.966 174.83 122.494 168.738L121.037 167.365C121.037 167.365 115.627 171.151 115.443 181.245C115.309 188.535 140.647 223.889 140.647 223.889L178.093 248.349C178.289 248.205 181.578 240.247 181.578 240.247L150.973 214.022L139.706 193.905Z" fill="#042254"/>
<path d="M134.152 164.288L135.684 161.699L150.917 161.456L153.432 172.183C153.432 172.183 151.477 178.498 150.917 179.25C150.357 179.999 144.54 181.64 142.213 180.389C139.887 179.139 133.321 176.09 133.321 173.276C133.321 170.462 134.152 164.288 134.152 164.288" fill="#001333"/>
<path d="M135.684 161.699L136.585 158.05L145.889 160.692L150.198 158.519L150.917 161.456L148.612 165.07L145.889 163.428L144.291 165.07L135.684 161.699" fill="#F4F4F4"/>
<path d="M133.681 122.964C133.681 122.964 125.766 124.025 126.841 131.813C127.917 139.599 133.321 127.389 133.321 127.389L133.681 122.964" fill="#010C1C"/>
<path d="M155.139 144.039L147.89 144.527C147.89 144.527 148.254 147.104 151.448 146.976C155.343 146.821 155.139 144.039 155.139 144.039Z" fill="white"/>
<path d="M694.631 206.394C694.328 207.378 684.228 218.632 684.228 218.632L679.766 209.176C679.766 209.176 680.491 206.206 681.756 201.964C686.065 203.021 691.456 203.693 694.631 206.394Z" fill="#001333"/>
<path d="M667.764 198.133C667.764 198.133 692.648 208.213 693.455 208.02C693.973 207.895 703.663 192.641 703.766 178.296C703.814 171.67 696.499 163.7 688.339 165.276C684.228 166.07 684.293 167.145 678.209 175.454C672.129 183.764 667.764 198.133 667.764 198.133" fill="#001333"/>
<path d="M646.521 380.86C646.521 380.86 647.114 390.052 647.114 390.071C647.332 391.237 648.187 394.121 648.187 395.182C648.187 399.17 628.062 391.799 632.571 390.033C632.981 389.874 635.12 388.662 635.255 387.308C635.462 385.217 635.987 380.988 635.987 380.988L646.521 380.86" fill="#F7A491"/>
<path d="M632.623 389.994C632.623 389.994 637.345 391.214 639.766 391.518C642.187 391.825 645.376 389.256 647.088 389.95C648.971 390.713 648.896 397.583 648.896 397.583C648.896 397.583 623.562 399.539 616.439 397.516C613.612 396.713 622.96 392.834 632.623 389.994" fill="#001333"/>
<path d="M687.687 380.86C687.687 380.86 688.279 390.052 688.279 390.071C688.499 391.238 689.354 394.121 689.354 395.182C689.354 399.17 669.231 391.799 673.739 390.033C674.149 389.873 676.92 387.76 677.055 386.405C677.262 384.315 677.152 380.988 677.152 380.988L687.687 380.86" fill="#F7A491"/>
<path d="M673.788 389.994C673.788 389.994 678.514 391.214 680.932 391.518C683.354 391.824 686.542 389.256 688.253 389.95C690.142 390.713 690.214 397.583 690.214 397.583C690.214 397.583 664.765 399.861 657.604 397.515C654.827 396.604 664.13 392.834 673.788 389.994Z" fill="#001333"/>
<path d="M685.82 150.278L688.1 163.849C688.1 163.849 679.408 170.415 674.338 169.03C670.087 167.868 673.004 162.639 673.004 162.639C673.004 162.639 675.266 155.394 674.574 151.597C673.878 147.799 685.82 150.278 685.82 150.278Z" fill="#F7A491"/>
<path d="M684.179 154.381C681.999 155.349 677.692 156.67 674.34 156.989C674.66 155.09 674.845 153.081 674.572 151.597C674.252 149.844 676.622 149.43 679.266 149.49C682.731 149.77 685.817 150.278 685.817 150.278L686.255 152.886C685.598 153.54 684.904 154.059 684.179 154.381Z" fill="#FE875E"/>
<path d="M696.787 134.625C697.146 134.626 693.353 149.786 687.476 152.394C681.604 155.002 672.845 153.643 671.202 149.56C669.385 145.043 676.014 129.576 684.277 127.612C692.536 125.647 696.787 134.625 696.787 134.625Z" fill="#F7A491"/>
<path d="M678.788 145.766L672.891 143.497C672.891 143.497 671.987 145.96 674.544 147.038C677.663 148.352 678.788 145.766 678.788 145.766" fill="white"/>
<path d="M689.994 120.693C694.684 123.239 696.839 127.013 697.562 128.559C699.764 129.542 702.429 131.668 703.706 137.395C705.281 144.438 699.69 149.867 693.763 151.499C687.835 153.133 686.917 156.822 686.917 156.822L686.247 152.852C686.247 152.852 687.566 149.395 689.548 147.665C691.53 145.935 688.609 143.413 688.35 141.357C688.155 139.774 689.392 136.699 689.124 134.1C689.124 134.1 685.831 129.405 682.586 128.245C677.048 126.268 683.971 117.428 689.994 120.693" fill="#13375B"/>
<path d="M687.495 143.996C686.731 145.748 687.041 147.486 688.196 147.88C689.352 148.273 690.911 147.173 691.679 145.421C692.444 143.671 692.13 141.932 690.979 141.539C689.819 141.145 688.264 142.246 687.495 143.996" fill="#F7A491"/>
<path d="M683.127 233.849C683.127 233.849 686.538 249.358 685.148 261.116C683.757 272.874 683.647 314.643 683.647 314.643L688.952 381.473L676.369 381.73C676.369 381.73 661.449 314.933 661.728 316.648C662.002 318.362 656.723 269.614 656.723 269.614L674.509 232.38L683.127 233.849" fill="#010C1C"/>
<path d="M679.789 233.116C679.789 233.116 682.015 247.078 679.237 253.203C676.454 259.325 655.396 319.413 655.119 324.313C654.839 329.213 647.835 383.364 647.835 383.364L633.203 382.976L630.035 322.77L636.663 247.103L643.103 227.97L679.789 233.116" fill="#001333"/>
<path d="M688.1 163.849C688.1 163.849 684.49 166.076 681.126 165.818C677.757 165.56 673.004 162.639 673.004 162.639L673.662 160.531C673.662 160.531 682.371 159.338 682.591 159.467C682.81 159.596 688.1 163.849 688.1 163.849" fill="#F7A491"/>
<path d="M640.88 211.069C642.799 201.239 656.721 170.65 657.831 165.016C658.373 162.276 665.883 162.216 673.039 162.573C680.592 162.951 688.097 163.85 688.097 163.85C688.097 163.85 694.789 164.883 697.728 167.476C700.671 170.07 701.455 177.243 697.224 190.859C693.885 201.607 689.745 207.508 687.697 215.338C687.279 217.964 686.926 220.555 686.453 223.581C685.7 235.287 686.462 250.753 686.462 250.753C686.462 250.753 650.051 257.857 636.43 247.078C636.43 247.078 638.909 221.14 640.88 211.069" fill="#010C1C"/>
<path d="M589.185 220.091C589.351 220.091 590.845 212.421 587.644 213.451C586.81 213.286 586.02 213.119 585.375 212.966C583.972 212.546 582.787 211.989 581.786 211.472C580.525 210.822 577.835 209.829 577.143 209.755C576.338 209.669 574.678 209.539 573.678 209.474C572.677 209.412 571.503 209.296 570.97 209.321C570.644 209.338 569.955 209.11 569.469 208.931C568.741 208.662 568.034 209.377 568.382 210.036C568.712 210.658 569.683 211.045 570.288 211.284C571.996 211.957 574.943 212.045 574.819 212.284C574.703 212.523 569.94 213.943 569.408 214.138C568.875 214.335 563.347 216.012 562.39 216.673C561.433 217.332 561.712 218.003 562.39 218.1C562.97 218.184 570.785 216.397 570.785 216.397C570.785 216.397 571.782 216.17 571.528 216.629C571.274 217.088 564.184 218.724 563.176 219.153C562.165 219.582 561.705 220.318 562.636 220.766C563.771 221.311 571.224 219.125 571.224 219.125C571.224 219.125 572.162 218.868 572.13 219.265C572.101 219.661 566.04 220.958 565.558 221.329C565.072 221.701 564.996 222.482 565.931 222.726C567.041 223.014 573.674 221.009 573.674 221.009C573.674 221.009 574.225 220.991 574.08 221.255C573.939 221.52 568.857 222.974 568.451 223.536C568.11 224.007 568.552 224.301 568.552 224.301C569.353 225.127 574.914 223.234 577.288 222.552C581.997 221.199 588.895 220.093 589.185 220.091" fill="#F8A492"/>
<path d="M658.426 163.425C665.779 160.511 677.534 165.075 669.777 179.918C666.361 186.461 639.658 208.137 634.3 210.809C628.947 213.479 585.88 222.451 585.88 222.451C585.755 222.249 585.36 212.238 585.36 212.238L625.264 198.013C625.264 198.013 648.396 167.401 658.426 163.425Z" fill="#001333"/>
<path d="M672.864 162.564L673.422 160.344C673.422 160.344 687.738 159.919 687.806 160.322C687.873 160.725 688.96 164.006 688.96 164.006L672.864 162.564Z" fill="#F4F4F4"/>
<path d="M438.398 218.11V231.905C457.468 231.905 453.939 251.064 442.598 251.064C449.666 260.188 453.192 266.519 453.192 266.519C448.755 267.612 443.014 271.468 443.014 271.468C442.635 276.616 441.358 281.676 441.358 281.676C452.303 279.769 459.625 276.869 459.625 276.869C459.647 275.001 463.548 261.724 463.548 261.724C472.397 265.684 476.588 270.677 478.572 274.688C480.661 278.922 485.237 281.576 490.197 281.532C498.012 281.465 501.519 281.774 501.519 281.774V211.327H438.398V218.11Z" fill="#F8D18A"/>
<path d="M442.598 251.064H501.519V231.905H438.398C457.468 231.905 453.939 251.064 442.598 251.064Z" fill="#E6AE5A"/>
<path d="M501.519 275.424H494.892C491.726 275.424 489.16 273.008 489.16 270.03C489.16 267.051 491.726 264.636 494.892 264.636H501.519V275.424Z" fill="#E6AE5A"/>
<path d="M549.535 229.379V222.305C551.011 221.17 551.949 219.447 551.949 217.514C551.949 214.097 549.007 211.327 545.377 211.327C541.743 211.327 538.8 214.097 538.8 217.514C538.8 219.609 539.908 221.458 541.601 222.579V231.144C541.601 231.564 541.885 231.905 542.234 231.905C546.274 231.968 546.254 251.129 542.234 251.064C541.885 251.064 541.601 251.405 541.601 251.824V281.773H549.535V275.424C548.597 275.424 547.835 274.512 547.835 273.389V266.672C547.835 265.547 548.597 264.635 549.535 264.635V253.59C549.535 253.242 549.596 252.91 549.701 252.606C550.872 249.286 551.641 245.783 551.641 242.178V240.791C551.641 237.185 550.872 233.682 549.701 230.362C549.596 230.058 549.535 229.727 549.535 229.379" fill="#001333"/>
</svg>
