<svg width="1104" height="946" viewBox="0 0 1104 946" fill="none" xmlns="http://www.w3.org/2000/svg">
    <path d="M956.841 439.008C1175.73 554.987 1175.73 743.026 956.839 859.007C737.95 974.988 383.057 974.988 164.167 859.01C-54.7228 743.028 -54.7221 554.989 164.168 439.008C383.059 323.029 737.952 323.029 956.841 439.008Z" fill="#E2E2E0"/>
    <path d="M560.502 945.993C417.056 945.993 273.611 916.999 164.167 859.01C54.722 801.018 0 725.013 0 649.007C0 617.175 9.59447 585.351 28.7925 554.842C31.6612 559.014 35.4755 563.138 40.2544 566.988C64.0615 586.165 100.243 610.771 108.651 641.223L119.708 662.266L119.709 672.333L80.2229 693.727C77.5707 695.165 77.5707 697.494 80.2229 698.931L124.671 723.012C125.997 723.73 127.735 724.089 129.472 724.089C131.21 724.089 132.948 723.73 134.274 723.012L192.735 691.337V764.782L170.649 776.75C167.997 778.185 167.997 780.514 170.649 781.952L197.081 796.272C198.408 796.99 200.146 797.35 201.883 797.35C203.621 797.35 205.359 796.99 206.685 796.272L345.183 721.234L367.513 750.167L367.511 819.55L350.082 829.044C347.514 830.438 347.514 832.697 350.085 834.09L492.558 911.303C493.845 911.999 495.529 912.348 497.213 912.348C498.899 912.348 500.583 911.999 501.867 911.303L622.492 845.575C625.064 844.181 625.064 841.923 622.492 840.529L609.196 833.324V758.084L618.827 718.208L609.079 723.49L609.041 711.953L571.382 691.427L570.075 671.308C570.075 671.302 570.075 671.295 570.075 671.286V671.284C569.974 669.919 568.915 668.282 567.699 667.614C567.074 667.272 566.256 667.101 565.442 667.101C564.658 667.101 563.877 667.259 563.281 667.579L545.347 677.24L530.87 669.348L529.57 649.339C529.481 647.971 528.417 646.317 527.193 645.645C526.569 645.303 525.75 645.131 524.937 645.131C524.153 645.131 523.372 645.292 522.776 645.612L504.942 655.218L490.264 647.219L490.035 643.696L588.9 590.032C591.552 588.597 591.552 586.266 588.9 584.829L579.304 579.629L579.299 481.9L657.707 439.418L703.402 464.184C704.464 464.756 705.853 465.044 707.242 465.044C708.631 465.044 710.023 464.756 711.082 464.181L806.785 412.307C808.906 411.156 808.906 409.293 806.785 408.143L794.733 401.612V379.109C822.158 385.787 848.75 393.695 874.259 402.845L777.022 466.352C777.022 466.354 777.019 466.359 777.019 466.361V466.359L750.46 500.114L720.837 484.035L622.22 537.46L622.225 612.924L609.844 619.631C608.517 620.348 608.517 621.514 609.841 622.234L764.757 706.321C765.419 706.681 766.289 706.861 767.159 706.861C768.027 706.861 768.895 706.681 769.556 706.323L875.47 648.939C876.796 648.222 876.796 647.056 875.47 646.336L863.091 639.616V561.248V561.251V561.248L775.82 513.879L805.754 505.783L805.733 505.752L922.887 429.237C923.797 430.295 924.842 431.317 926.03 432.296C926.03 432.296 924.989 446.294 924.447 454.134C923.633 465.843 922.77 477.547 921.851 489.254C921.851 489.254 922.045 489.421 922.463 489.711C920.934 506.452 918.719 530.594 917.365 544.911C914.827 571.75 914.205 584.629 913.092 597.023C912.278 606.118 912.739 612.259 913.485 626.112C914.231 639.939 916.848 700.219 916.848 700.219C916.848 700.219 920.824 702.66 926.945 702.91C927.253 702.923 927.56 702.928 927.864 702.928C931.924 702.928 935.617 701.852 937.256 700.794C937.256 700.794 940.102 679.442 945.131 657.152C948.003 644.449 949.002 632.448 948.976 625.284C948.948 619.894 948.33 611.688 947.266 607.046L966.049 542.409C966.121 542.892 969.597 563.107 971.257 572.758C973.596 586.424 976 600.036 976.704 602.525C978.168 607.816 1026.34 675.27 1026.34 675.27C1026.34 675.27 1035.2 667.476 1044.89 664.981C1042.26 657.319 1033.35 631.412 1029.9 623.076C1024.42 609.849 1020.9 602.843 1009.42 596.079C1009.42 596.079 1009.46 531.564 1008.84 508.054C1008.61 498.979 1007.85 491.585 1006.91 485.686C1007.05 485.442 1007.17 485.211 1007.26 484.994C1006.66 478.474 1004.85 472.107 1002.83 466.552C1081.61 520.033 1121.01 584.526 1121.01 649.007C1121.01 725.011 1066.28 801.018 956.839 859.007C847.396 916.996 703.949 945.993 560.502 945.993ZM957.082 743.822C965.46 743.822 973.832 744.334 982.203 744.845C990.573 745.356 998.946 745.87 1007.32 745.87C1008.88 745.87 1010.43 745.85 1011.99 745.813C1031.28 745.336 1051.41 741.184 1065.84 729.16C1068.01 727.342 1072.8 723.51 1072.73 720.563C1072.65 716.779 1067.48 713.746 1064.08 713.008C1063.63 712.912 1063.19 712.833 1062.74 712.771C1062.67 712.312 1062.6 711.823 1062.51 711.296C1062.34 710.166 1062.26 709.209 1062.26 708.316C1062.26 705.799 1062.9 703.81 1063.88 699.976C1064.57 697.268 1065.05 694.504 1065.05 692.373C1065.06 690.418 1064.66 688.993 1063.65 688.629C1063.65 688.629 1062.83 688.287 1061.52 688.186C1061.51 687.971 1061.48 687.756 1061.45 687.545C1061.41 687.325 1061.36 687.11 1061.29 686.897C1060.69 684.986 1058.92 683.614 1057.13 682.536C1055.34 681.461 1053.39 680.522 1052.04 678.983C1051.44 678.298 1050.9 677.462 1050 677.199C1049.78 677.135 1049.56 677.109 1049.34 677.109C1048.96 677.109 1048.58 677.179 1048.21 677.26C1045.3 677.899 1042.55 679.183 1040.24 680.954C1039.17 681.77 1038.17 682.642 1037.48 683.757C1036.77 684.905 1035.77 685.833 1035.71 687.253C1035.64 689.02 1036.95 690.692 1037.64 692.272C1038.39 693.997 1038.95 695.828 1039.14 697.698C1039.44 700.656 1039.48 703.676 1039.48 706.646C1039.6 710.761 1039.04 710.789 1039.02 710.789C1039.02 710.789 1037.07 712.348 1035.91 715.102C1034.06 715.177 1032.21 715.214 1030.35 715.214C1017.9 715.214 1005.42 713.603 993.202 711.45C988.536 710.629 983.887 709.723 979.247 708.79C975.161 707.969 971.959 707.947 967.868 707.894C967.024 707.884 966.18 707.879 965.336 707.879C956.918 707.879 948.501 708.441 940.25 710.056C937.876 710.519 935.521 711.068 933.191 711.705C921.652 714.865 910.716 720.26 898.776 721.601C891.245 722.448 883.469 721.656 876.158 723.561C872.545 724.502 868.667 726.661 868.237 730.163C867.755 734.056 871.742 737.071 875.47 738.841C886.884 744.246 899.925 745.817 912.729 745.817C913.085 745.817 913.44 745.817 913.796 745.815L914.296 745.81C927.602 745.681 940.849 744.045 954.152 743.845C955.129 743.829 956.104 743.822 957.082 743.822V743.822ZM359.615 725.742L348.251 719.573L356.224 715.253L359.615 725.742ZM365.425 702.015L356.923 697.408V602.382L394.767 581.877V656.325L377.002 665.968C374.35 667.404 374.35 669.732 377.002 671.17L385.431 675.737L384.724 676.119C384.116 676.444 383.583 677.019 383.214 677.682V677.679C383.204 677.697 383.195 677.715 383.186 677.732C382.835 678.382 382.641 679.113 382.683 679.78L383.492 692.226L365.425 702.015V702.015ZM119.702 574.43C116.595 568.114 113.103 562.082 109.27 556.672C96.1156 538.103 76.4296 522.443 57.7304 517.553C74.6608 499.379 95.3172 481.928 119.696 465.527L119.702 574.43Z" fill="#E2E2E0"/>
    <path d="M767.159 706.861C766.289 706.861 765.419 706.681 764.757 706.321L609.841 622.234C608.517 621.514 608.517 620.348 609.844 619.631L622.225 612.924V619.341L764.479 696.556V664.928V696.556L863.089 643.13L863.091 639.616L875.47 646.336C876.796 647.056 876.796 648.222 875.47 648.939L769.556 706.323C768.895 706.681 768.027 706.861 767.159 706.861" fill="#C6C7C6"/>
    <path d="M129.472 724.089C127.735 724.089 125.997 723.73 124.671 723.012L80.2229 698.931C77.5707 697.494 77.5707 695.165 80.2229 693.727L119.709 672.333L119.711 701.618C119.711 704.414 120.463 708.27 129.23 711.79C130.517 712.308 132.067 712.712 133.664 712.712C133.977 712.712 134.292 712.694 134.608 712.661C134.845 712.642 135.105 712.602 135.32 712.561L135.752 712.479C135.991 712.46 136.205 712.398 136.4 712.337L136.746 712.238L137.156 712.091C137.516 711.992 137.892 711.838 138.278 711.628L192.735 682.126V691.337L134.274 723.012C132.948 723.73 131.21 724.089 129.472 724.089ZM136.205 712.238C134.948 712.238 134.009 711.459 133.713 710.083C134.008 711.454 134.944 712.227 136.199 712.227C136.362 712.227 136.53 712.214 136.703 712.187C136.536 712.225 136.378 712.238 136.205 712.238V712.238ZM133.711 710.074C133.711 710.072 133.71 710.067 133.709 710.063C133.71 710.067 133.711 710.072 133.711 710.074ZM356.923 602.382V593.175L394.767 572.672V581.877L356.923 602.382ZM579.299 481.9V472.701L646.502 436.295C647.292 435.867 648.036 435.255 648.688 434.531L657.707 439.418L579.299 481.9Z" fill="#C6C7C6"/>
    <path d="M707.242 465.044C705.853 465.044 704.463 464.756 703.402 464.184L657.707 439.418L648.688 434.53C650.176 432.878 651.188 430.639 651.188 428.695V424.74L707.244 455.108L794.733 407.708V401.612L806.785 408.143C808.906 409.293 808.906 411.156 806.785 412.306L711.082 464.181C710.023 464.756 708.631 465.044 707.242 465.044" fill="#C6C7C6"/>
    <path d="M497.213 912.348C495.529 912.348 493.845 911.999 492.558 911.303L350.085 834.09C347.514 832.697 347.514 830.438 350.082 829.045L367.511 819.55V833.653L495.519 903.163L609.196 841.574V833.324L622.492 840.529C625.064 841.923 625.064 844.181 622.492 845.575L501.867 911.303C500.583 911.999 498.899 912.348 497.213 912.348" fill="#C6C7C6"/>
    <path d="M201.883 797.35C200.146 797.35 198.408 796.99 197.081 796.272L170.649 781.952C167.997 780.514 167.997 778.185 170.649 776.75L192.735 764.782V786.679C192.735 788.077 193.783 789.787 195.08 790.485L199.173 792.699C199.818 793.048 200.665 793.224 201.511 793.224C202.118 793.224 202.723 793.134 203.253 792.952C203.27 792.95 203.286 792.945 203.303 792.941L203.475 792.875L203.757 792.743L203.851 792.699L237.084 774.689L342.395 717.619L345.183 721.234L206.685 796.272C205.359 796.99 203.621 797.35 201.883 797.35V797.35ZM348.251 719.573L343.527 717.007L354.592 711.011C354.664 710.971 354.737 710.928 354.809 710.879L356.224 715.253L348.251 719.573V719.573ZM356.923 706.621V697.408L365.425 702.015L356.923 706.621Z" fill="#C6C7C6"/>
    <path d="M385.431 675.737L377.002 671.17C374.35 669.732 374.35 667.404 377.002 665.968L394.767 656.325V670C394.767 670.224 394.783 670.452 394.816 670.683L385.431 675.737ZM490.035 643.696L489.649 637.761L575.491 591.242C577.596 590.1 579.304 587.326 579.304 585.046V579.629L588.9 584.829C591.552 586.266 591.552 588.597 588.9 590.032L490.035 643.696Z" fill="#C6C7C6"/>
    <path d="M1007.32 745.87C998.946 745.87 990.573 745.356 982.203 744.845C973.832 744.334 965.459 743.822 957.082 743.822C956.104 743.822 955.129 743.829 954.151 743.845C940.848 744.045 927.602 745.681 914.296 745.81L913.796 745.815C913.44 745.817 913.085 745.817 912.729 745.817C899.925 745.817 886.884 744.246 875.47 738.841C871.742 737.071 867.755 734.056 868.236 730.163C868.667 726.661 872.544 724.502 876.158 723.561C883.469 721.656 891.245 722.448 898.776 721.601C910.716 720.26 921.652 714.865 933.191 711.705C935.521 711.068 937.876 710.519 940.25 710.056C948.501 708.441 956.918 707.879 965.335 707.879C966.18 707.879 967.024 707.884 967.868 707.895C971.959 707.947 975.161 707.969 979.247 708.79C983.887 709.723 988.536 710.629 993.202 711.45C1005.42 713.603 1017.9 715.214 1030.35 715.214C1032.21 715.214 1034.06 715.177 1035.91 715.102C1034.98 717.29 1034.54 720.231 1035.95 723.749C1035.95 723.749 1038.05 725.79 1041.03 725.79C1041.75 725.79 1042.52 725.672 1043.34 725.371C1043.63 725.248 1043.9 725.139 1044.16 725C1044.7 724.722 1045.34 724.39 1046.04 724.024C1045.41 726.089 1044.89 727.259 1044.89 727.259C1044.89 727.259 1059.82 720.718 1061.7 719.134C1062.72 718.273 1063.07 717.31 1063.07 715.918C1063.07 715.058 1062.93 714.035 1062.74 712.771C1063.19 712.833 1063.63 712.912 1064.08 713.008C1067.48 713.746 1072.65 716.779 1072.73 720.563C1072.8 723.51 1068.01 727.342 1065.84 729.16C1051.41 741.184 1031.28 745.336 1011.99 745.813C1010.43 745.85 1008.88 745.87 1007.32 745.87" fill="#C6C7C6"/>
    <path d="M135.987 639.039C137.689 620.833 127.188 581.971 109.27 556.672C91.3513 531.376 61.32 511.485 38.1605 516.849C16.5916 521.846 16.4473 547.812 40.2544 566.988C64.0615 586.165 100.243 610.771 108.651 641.223L128.702 679.385L135.987 639.039" fill="#26B6A6"/>
    <path d="M119.708 662.266L108.651 641.223C100.243 610.771 64.0615 586.165 40.2544 566.988C28.0955 557.193 22.1837 545.628 22.1837 535.989C22.1837 526.758 27.6076 519.294 38.1604 516.849C40.7331 516.254 43.3881 515.969 46.1041 515.969C67.8393 515.969 93.3418 534.187 109.27 556.672C113.103 562.082 116.595 568.114 119.702 574.43L119.708 662.266" fill="#1DB3A0"/>
    <path d="M135.087 664.068C134.473 663.971 133.979 663.499 133.911 662.894C126.735 599.678 77.8933 544.753 46.8724 530.95C46.1635 530.634 45.8611 529.837 46.1963 529.17C46.5298 528.507 47.365 528.206 48.0921 528.536C79.7021 542.602 129.457 598.436 136.739 662.61C136.824 663.343 136.258 664 135.477 664.079L135.087 664.068Z" fill="white"/>
    <path d="M121.489 703.031C119.329 692.542 107.59 674.559 87.3534 658.833C64.9659 641.438 35.4709 631.855 29.6421 619.273C22.6405 604.156 36.8769 591.591 61.0896 596.459C85.3023 601.324 125.41 636.214 127.875 683.972L121.489 703.031" fill="#26B6A6"/>
    <path d="M127.23 692.683C126.696 692.599 126.239 692.231 126.091 691.704C110.766 636.794 69.2316 614.539 49.4114 610.444C48.6447 610.285 48.1596 609.572 48.3269 608.852C48.495 608.13 49.225 607.672 50.0234 607.836C71.9394 612.364 113.201 634.979 128.845 691.028C129.044 691.739 128.587 692.472 127.829 692.659L127.23 692.683" fill="white"/>
    <path d="M707.244 455.108V391.906L794.733 344.504V407.708L707.244 455.108Z" fill="#26B6A6"/>
    <path d="M707.244 391.906L597.878 332.653V395.857L707.244 455.108V391.906" fill="#26B6A6"/>
    <path d="M707.244 455.108L651.188 424.74L651.186 380.81L707.242 411.183L707.244 407.708V455.108ZM707.244 407.708L651.186 377.335L707.244 407.708" fill="#19B19D"/>
    <path d="M707.244 391.906L797.325 343.078L685.37 282.408L595.287 331.237L707.244 391.906" fill="#26B6A6"/>
    <path d="M707.244 391.906L651.184 361.529V353.591L707.244 383.964L790.016 339.116L797.325 343.078L707.244 391.906Z" fill="#67CBC0"/>
    <path d="M707.244 391.906V407.709L797.325 358.902V343.078L707.244 391.906Z" fill="#26B6A6"/>
    <path d="M707.244 411.183V407.709L794.733 360.306L794.731 363.779L707.244 411.183" fill="#14B099"/>
    <path d="M707.244 407.709L794.733 360.304V360.306L707.244 407.709Z" fill="#14B099"/>
    <path d="M595.287 331.237L707.244 391.906V407.709L595.287 347.05V331.237" fill="#26B6A6"/>
    <path d="M707.244 407.709L651.186 377.336L651.184 361.529L707.244 391.906V407.709Z" fill="#14B099"/>
    <path d="M707.242 411.183L651.186 380.81V377.335L707.244 407.709L707.242 411.183Z" fill="#05A88F"/>
    <path d="M736.044 401.511L765.934 385.32C767.218 384.622 768.263 385.188 768.263 386.584V403.165C768.263 404.561 767.218 406.258 765.934 406.956L736.044 423.146C734.755 423.844 733.712 423.278 733.712 421.884V405.301C733.712 403.907 734.755 402.209 736.044 401.511" fill="#33535F"/>
    <path d="M737.962 403.391L764.016 389.275C764.874 388.81 765.571 389.187 765.571 390.118V402.549C765.571 403.479 764.874 404.61 764.016 405.075L737.959 419.191C737.101 419.657 736.406 419.279 736.406 418.349V405.92C736.406 404.987 737.101 403.857 737.962 403.391" fill="#F3F2F1"/>
    <path d="M738.687 406.675L738.359 406.497L738.497 406.012L763.101 392.683L763.616 392.813L763.48 393.298L738.876 406.627L738.687 406.675Z" fill="#8CA0A4"/>
    <path d="M738.687 409.728L738.359 409.55L738.497 409.065L763.101 395.736L763.616 395.866L763.48 396.351L738.876 409.679L738.687 409.728Z" fill="#8CA0A4"/>
    <path d="M738.687 412.781L738.359 412.603L738.497 412.116L763.101 398.787L763.616 398.919L763.48 399.404L738.876 412.732L738.687 412.781Z" fill="#8CA0A4"/>
    <path d="M738.687 415.833L738.359 415.656L738.497 415.171L763.101 401.84L763.616 401.969L763.48 402.456L738.876 415.785L738.687 415.833Z" fill="#8CA0A4"/>
    <path d="M707.244 383.964V320.759L794.733 273.36V336.562L707.244 383.964Z" fill="#26B6A6"/>
    <path d="M707.244 320.759L597.878 261.508V324.71L707.244 383.964V320.759" fill="#26B6A6"/>
    <path d="M707.244 383.964L651.184 353.591L651.181 309.663L707.242 340.036L707.244 336.562V383.964ZM707.244 336.562L651.181 306.189L707.244 336.562Z" fill="#19B19D"/>
    <path d="M707.244 320.759L797.325 271.933L685.37 211.262L595.287 260.09L707.244 320.759" fill="#26B6A6"/>
    <path d="M707.244 320.759L651.181 290.38L651.177 229.796L685.37 211.262L797.325 271.933L707.244 320.759Z" fill="#87D6CB"/>
    <path d="M707.244 320.759V336.562L797.325 287.755V271.933L707.244 320.759" fill="#26B6A6"/>
    <path d="M707.244 340.036V336.562L794.733 289.159L794.731 292.632L707.244 340.036" fill="#14B099"/>
    <path d="M595.287 260.09L707.244 320.759V336.562L595.287 275.903V260.09" fill="#26B6A6"/>
    <path d="M707.244 336.562L651.181 306.189V290.38L707.244 320.759V336.562Z" fill="#14B099"/>
    <path d="M707.242 340.036L651.181 309.663V306.189L707.244 336.562L707.242 340.036Z" fill="#05A88F"/>
    <path d="M736.044 330.366L765.934 314.173C767.218 313.477 768.263 314.041 768.263 315.437V332.018C768.263 333.416 767.218 335.113 765.934 335.809L736.044 352.002C734.755 352.699 733.712 352.133 733.712 350.737V334.156C733.712 332.76 734.755 331.064 736.044 330.366Z" fill="#33535F"/>
    <path d="M737.962 332.247L764.016 318.13C764.874 317.665 765.571 318.04 765.571 318.973V331.404C765.571 332.332 764.874 333.465 764.016 333.93L737.959 348.047C737.101 348.51 736.406 348.134 736.406 347.204V334.773C736.406 333.842 737.101 332.712 737.962 332.247" fill="#F3F2F1"/>
    <path d="M738.687 335.53L738.359 335.352L738.497 334.865L763.101 321.536L763.616 321.668L763.48 322.153L738.876 335.482L738.687 335.53Z" fill="#8CA0A4"/>
    <path d="M738.687 338.583L738.359 338.405L738.497 337.918L763.101 324.589L763.616 324.719L763.48 325.204L738.876 338.535L738.687 338.583Z" fill="#8CA0A4"/>
    <path d="M738.687 341.634L738.359 341.456L738.497 340.971L763.101 327.642L763.616 327.772L763.48 328.257L738.876 341.585L738.687 341.634Z" fill="#8CA0A4"/>
    <path d="M738.687 344.686L738.359 344.509L738.497 344.024L763.101 330.693L763.616 330.824L763.48 331.31L738.876 344.638L738.687 344.686Z" fill="#8CA0A4"/>
    <path d="M129.221 320.683C126.798 319.37 119.7 313.302 119.7 310.503L119.698 284.066C119.698 281.265 121.791 277.863 124.374 276.465L632.593 1.13247C635.175 -0.265585 638.458 -1.24444 646.789 3.71129C649.154 5.11812 651.177 8.35529 651.177 11.1536L651.179 37.5937C651.179 40.392 649.088 43.796 646.504 45.1941L138.281 320.525C135.699 321.925 131.641 321.995 129.221 320.683" fill="#26B6A6"/>
    <path d="M650.768 8.8338C650.492 8.01955 650.089 7.21848 649.6 6.48324C650.092 7.21628 650.494 8.01736 650.768 8.8338ZM646.237 3.38649C644.556 2.41422 643.089 1.69207 641.794 1.16753C643.099 1.68768 644.57 2.40983 646.237 3.38649Z" fill="white"/>
    <path d="M134.974 287.233L121.072 279.735C121.934 278.357 123.079 277.181 124.376 276.472L632.6 1.13688C633.699 0.539911 634.981 0.0372596 636.716 0.0372596C638.084 0.0372596 639.733 0.348892 641.794 1.16753C643.089 1.69207 644.556 2.41422 646.237 3.38649C646.417 3.49184 646.6 3.59938 646.782 3.71131C647.839 4.34779 648.829 5.3332 649.6 6.48325C650.089 7.21848 650.492 8.01956 650.767 8.83381C650.945 9.36493 651.067 9.90485 651.125 10.4382C650.903 8.89308 649.923 8.01517 648.581 8.01517C647.954 8.01517 647.245 8.2083 646.502 8.61433L138.278 283.949C137.005 284.658 135.838 285.854 134.974 287.233" fill="#70CEC3"/>
    <path d="M137.394 712.014L137.2 712.075L136.746 712.238L136.4 712.337C136.205 712.398 135.991 712.46 135.752 712.479L135.32 712.561C135.105 712.602 134.845 712.642 134.608 712.661C132.685 712.866 130.77 712.409 129.23 711.79C120.463 708.27 119.711 704.414 119.711 701.618L119.689 342.279L133.614 349.778V709.095C133.614 711.081 134.672 712.238 136.205 712.238C136.422 712.238 136.617 712.216 136.832 712.155L136.94 712.135L137.394 712.014" fill="#E2E2E0"/>
    <path d="M119.689 342.279V284.072L119.711 283.543C119.733 283.354 119.761 283.163 119.796 282.975C119.732 283.343 119.698 283.71 119.698 284.066L119.7 307.525L119.689 307.521V342.279V342.279ZM119.879 282.562C119.888 282.525 119.896 282.487 119.905 282.45C119.912 282.426 119.918 282.402 119.925 282.378C119.908 282.439 119.894 282.501 119.879 282.562Z" fill="#E4E7E5"/>
    <path d="M133.614 314.998L119.7 307.525L119.698 284.066C119.698 283.71 119.732 283.343 119.796 282.975C119.82 282.836 119.849 282.7 119.879 282.562C119.893 282.501 119.908 282.439 119.925 282.378C120.165 281.489 120.567 280.563 121.072 279.735L134.974 287.233C134.133 288.591 133.614 290.152 133.614 291.55V314.998Z" fill="#21B4A2"/>
    <path d="M651.188 428.695C651.188 431.491 649.095 434.895 646.502 436.295L138.278 711.628C135.709 713.026 133.614 711.891 133.614 709.095V314.998L146.486 308.026C149.056 306.627 153.246 285.347 155.837 283.949L267.388 223.508C268.684 222.81 270.854 226.388 273.02 229.965C275.188 233.545 277.351 237.122 278.637 236.424L651.167 34.5979V69.3758L651.188 428.695" fill="#EDEDEB"/>
    <path d="M155.833 417.036L251.748 365.065C254.333 363.667 256.424 364.801 256.424 367.6V623.634C256.424 626.432 254.333 629.834 251.748 631.232L155.833 683.201C153.25 684.599 151.157 683.465 151.157 680.666L151.158 424.637C151.158 421.836 153.251 418.434 155.833 417.036" fill="#FAFAF9"/>
    <path d="M278.647 436.045L442.247 347.241C444.831 345.843 446.924 346.978 446.924 349.776V520.255C446.924 523.053 444.831 526.457 442.247 527.855L278.651 616.661C276.069 618.059 273.976 616.925 273.976 614.126L273.972 443.645C273.972 440.847 276.065 437.443 278.647 436.045Z" fill="#FAFAF9"/>
    <path d="M465.377 334.079L628.977 245.278C631.559 243.878 633.652 245.012 633.652 247.811V418.292C633.652 421.09 631.559 424.492 628.977 425.89L465.382 514.696C462.8 516.094 460.707 514.961 460.704 512.163L460.7 341.68C460.7 338.881 462.793 335.48 465.377 334.079" fill="#FAFAF9"/>
    <path d="M155.832 350.492L628.977 94.1413C631.559 92.741 633.652 93.8757 633.652 96.674L633.65 143.58C633.65 146.376 631.557 149.78 628.975 151.178L155.832 407.526C153.25 408.927 151.155 407.792 151.155 404.994L151.157 358.092C151.157 355.294 153.25 351.892 155.832 350.492Z" fill="#33535F"/>
    <path d="M458.197 211.099L458.199 219.279C458.199 220.951 459.462 221.636 461.006 220.8L598.561 146.273L598.559 132.014L461.004 206.541C459.46 207.377 458.197 209.429 458.197 211.099" fill="#FAFAF9"/>
    <path d="M613.303 124.027C614.851 123.189 616.107 123.867 616.107 125.548V133.726C616.107 135.405 614.851 137.446 613.303 138.286L598.561 146.273L598.559 132.014L613.303 124.027" fill="#26B6A6"/>
    <path d="M606.934 138.198C606.48 138.446 606.083 138.484 605.758 138.306C605.21 138.01 604.869 137.127 604.869 136.004C604.869 133.848 606.095 131.364 607.545 130.578C607.813 130.433 608.061 130.359 608.284 130.359L608.723 130.469C609.268 130.767 609.612 131.647 609.612 132.773C609.612 134.926 608.384 137.413 606.934 138.198ZM612.21 135.242L610.566 134.759C610.735 134.107 610.831 133.434 610.831 132.773C610.831 131.193 610.286 129.992 609.331 129.477C608.623 129.095 607.774 129.132 606.934 129.589C605.094 130.585 603.651 133.403 603.651 136.004C603.651 137.582 604.195 138.782 605.147 139.298C605.472 139.471 605.826 139.559 606.193 139.559C606.628 139.559 607.091 139.436 607.545 139.191C608.653 138.587 609.61 137.325 610.201 135.855L611.848 136.335L612.03 136.362C612.29 136.362 612.531 136.203 612.613 135.958C612.713 135.655 612.533 135.337 612.21 135.242" fill="#FAFAF9"/>
    <path d="M273.972 358.094V414.499C273.972 417.297 276.065 418.432 278.647 417.034L628.977 227.228C631.559 225.83 633.652 222.426 633.652 219.628V163.221C633.652 160.423 631.557 159.288 628.977 160.686L278.647 350.494C276.065 351.892 273.972 355.294 273.972 358.094Z" fill="#FAFAF9"/>
    <path d="M651.167 34.5979V69.3757L133.614 349.778V314.998L143.227 309.775C145.796 308.374 146.66 306.25 147.892 302.174L151.15 291.55C152.179 287.86 153.246 285.347 155.837 283.949L267.388 223.508C269.979 222.11 272 221.956 273.972 225.014L277.971 231.826C279.437 234.203 280.172 235.603 282.742 234.203L651.167 34.5979" fill="#DADBD8"/>
    <path d="M629.246 26.8109C632.008 25.3141 634.246 26.5256 634.246 29.5192C634.246 32.5128 632.008 36.1517 629.246 37.6485C626.484 39.1454 624.246 37.9317 624.246 34.9403C624.246 31.9466 626.484 28.3056 629.246 26.8109Z" fill="white"/>
    <path d="M608.064 38.2719C610.823 36.7751 613.062 37.9889 613.062 40.9803C613.062 43.9739 610.823 47.615 608.064 49.1096C605.299 50.6064 603.061 49.3949 603.061 46.3991C603.061 43.4077 605.299 39.7687 608.064 38.2719Z" fill="white"/>
    <path d="M586.879 49.7328C589.641 48.236 591.882 49.4497 591.882 52.4433C591.882 55.4347 589.641 59.0736 586.879 60.5704C584.117 62.0672 581.876 60.8536 581.876 57.8621C581.876 54.8685 584.117 51.2296 586.879 49.7328Z" fill="white"/>
    <path d="M195.015 303.823V297.025C195.015 294.227 197.108 290.823 199.69 289.425L620.183 61.7227C622.768 60.3247 624.858 61.4572 624.858 64.2554V71.0548C624.858 73.8531 622.765 77.2549 620.181 78.6552L199.69 306.355C197.108 307.756 195.015 306.623 195.015 303.823" fill="#FAFAF9"/>
    <path d="M616.748 66.6872L616.75 66.6894L616.748 66.6872ZM612.767 73.1902L612.769 73.1924L612.767 73.1902ZM613.705 75.5144L613.712 75.5188L613.705 75.5144ZM619.5 75.6637H619.505H619.5ZM617.112 76.7654H617.117H617.112ZM612.942 73.3087L614.561 74.4061C614.891 74.6256 615.057 75.036 614.994 75.5013L614.72 77.6609L616.182 75.9073C616.488 75.5386 616.897 75.3608 617.295 75.4069L619.316 75.6417L619.388 75.4332L618.967 72.5757C618.918 72.2552 618.995 71.8821 619.182 71.5529L620.749 68.7941L619.138 69.3736C618.621 69.5491 618.085 69.3538 617.856 68.8951L617.126 67.4378L616.144 70.4643C616.027 70.8199 615.803 71.1359 615.527 71.3334L613.052 73.1221L612.942 73.3087ZM614.135 79.9127L613.756 79.8425C613.396 79.702 613.041 79.3157 613.125 78.6463L613.536 75.4025L611.916 74.3007C611.633 74.112 611.476 73.7981 611.469 73.4207C611.46 72.8983 611.738 72.3452 612.164 72.0358L614.638 70.2471L614.746 70.0671L615.852 66.6608C616.055 66.0375 616.556 65.5942 617.101 65.5591C617.522 65.5218 617.889 65.7412 618.071 66.1056L619 67.9558L621.091 67.2051C621.5 67.0581 621.928 67.1503 622.204 67.4466C622.566 67.8284 622.588 68.4715 622.26 69.0443L620.471 72.1982L620.41 72.3869L620.833 75.2423C620.918 75.7976 620.63 76.3572 620.305 76.6667C620.022 76.9388 619.666 77.0683 619.323 77.0222L617.304 76.7896L615.12 79.4057C614.804 79.7788 614.446 79.9127 614.135 79.9127" fill="#33535F"/>
    <path d="M150.131 330.627H149.743L145.761 327.754L145.75 327.736L145.644 327.587L145.61 327.535L145.559 327.219L145.61 326.848L145.644 326.76L145.75 326.496L145.761 326.468L149.743 319.28C149.912 318.975 150.142 318.799 150.34 318.799C150.427 318.799 150.51 318.835 150.575 318.909C150.792 319.148 150.766 319.702 150.521 320.143L147.722 325.195L155.063 321.218C155.136 321.179 155.205 321.159 155.27 321.159C155.494 321.159 155.653 321.385 155.653 321.751C155.653 322.221 155.389 322.748 155.063 322.923L147.722 326.9L150.521 328.919C150.766 329.097 150.792 329.622 150.575 330.094C150.459 330.35 150.296 330.537 150.131 330.627" fill="#8F9192"/>
    <path d="M166.126 321.962L165.68 321.909C165.465 321.672 165.49 321.119 165.735 320.676L168.535 315.626L161.194 319.603C161.121 319.642 161.05 319.66 160.987 319.66C160.763 319.66 160.604 319.434 160.604 319.069C160.604 318.598 160.867 318.073 161.194 317.895L168.535 313.918L165.735 311.899C165.49 311.724 165.465 311.199 165.68 310.727C165.846 310.359 166.109 310.135 166.332 310.135C166.397 310.135 166.458 310.154 166.514 310.194L170.495 313.067L170.507 313.082L170.613 313.234L170.646 313.284L170.697 313.6L170.646 313.971L170.613 314.059L170.507 314.324L170.495 314.351L166.514 321.541C166.401 321.743 166.263 321.887 166.126 321.962" fill="#8F9192"/>
    <path d="M180.1 314.81C179.497 314.81 178.931 314.603 178.447 314.166C176.629 312.523 176.629 308.249 178.447 304.639C179.778 301.992 181.718 300.44 183.378 300.44C183.467 300.44 183.555 300.445 183.642 300.456L184.648 298.147C184.753 297.903 184.914 297.776 185.048 297.776C185.16 297.776 185.253 297.868 185.273 298.059L185.713 302.087C185.743 302.37 185.587 302.727 185.377 302.857L182.384 304.69C182.332 304.722 182.284 304.736 182.24 304.736C182.026 304.736 181.929 304.382 182.092 304.007L182.85 302.269C181.637 302.339 180.248 303.474 179.282 305.392C177.924 308.089 177.924 311.28 179.282 312.507C179.643 312.832 180.065 312.988 180.515 312.988C181.755 312.988 183.209 311.814 184.204 309.838C184.374 309.503 184.62 309.305 184.83 309.305C184.907 309.305 184.979 309.331 185.04 309.386C185.271 309.595 185.271 310.135 185.04 310.593C184.132 312.397 182.938 313.701 181.744 314.349C181.186 314.651 180.629 314.81 180.1 314.81" fill="#8F9192"/>
    <path d="M262.121 245.87L261.55 245.84C261.235 245.552 261.235 244.813 261.55 244.185L264.226 238.869L261.55 236.453C261.235 236.165 261.235 235.426 261.55 234.798C261.782 234.337 262.119 234.065 262.409 234.065C262.514 234.065 262.612 234.1 262.696 234.177L265.372 236.593L268.047 231.278C268.279 230.817 268.616 230.544 268.903 230.544C269.009 230.544 269.107 230.582 269.191 230.656C269.507 230.944 269.507 231.684 269.191 232.311L266.516 237.627L269.191 240.043C269.507 240.331 269.507 241.071 269.191 241.698C269.034 242.014 268.826 242.24 268.618 242.352L268.047 242.319L265.372 239.903L262.696 245.219C262.537 245.532 262.329 245.758 262.121 245.87Z" fill="#8F9192"/>
    <path d="M630.373 59.3304C629.812 59.3304 629.267 59.0583 628.968 58.5711C628.521 57.8424 628.788 56.914 629.562 56.4948L642.72 49.3641C642.975 49.2258 643.255 49.16 643.529 49.16C644.09 49.16 644.633 49.4321 644.932 49.9194C645.379 50.648 645.112 51.5764 644.338 51.9956L631.18 59.1263C630.925 59.2646 630.647 59.3304 630.373 59.3304Z" fill="#8F9192"/>
    <path d="M630.373 66.4611C629.812 66.4611 629.267 66.189 628.968 65.7017C628.521 64.9731 628.788 64.0447 629.562 63.6255L642.72 56.497C642.977 56.3565 643.255 56.2907 643.529 56.2907C644.09 56.2907 644.633 56.565 644.932 57.0522C645.379 57.7787 645.112 58.7093 644.338 59.1284L631.18 66.257C630.925 66.3953 630.647 66.4611 630.373 66.4611" fill="#8F9192"/>
    <path d="M630.373 73.5941C629.812 73.5941 629.267 73.322 628.968 72.8347C628.521 72.1061 628.788 71.1777 629.562 70.7585L642.72 63.6278C642.977 63.4873 643.255 63.4215 643.529 63.4215C644.09 63.4215 644.633 63.698 644.932 64.1852C645.379 64.9117 645.112 65.8401 644.338 66.2614L631.18 73.39C630.925 73.5283 630.647 73.5941 630.373 73.5941Z" fill="#8F9192"/>
    <path d="M133.614 314.998V349.778L119.689 342.279V307.521L133.614 314.998Z" fill="#DADBD8"/>
    <path d="M133.614 349.778L119.689 342.279V307.521L133.614 314.998V349.778Z" fill="#B4B6B4"/>
    <path d="M223.501 484.046C223.153 484.046 222.805 484.132 222.492 484.301L183.072 505.66C182.448 505.996 182.062 506.623 182.062 507.299V562.326C182.062 563.002 182.448 563.627 183.072 563.965C183.384 564.134 183.733 564.22 184.082 564.22C184.43 564.22 184.778 564.134 185.09 563.965L224.511 542.606C225.136 542.27 225.52 541.645 225.52 540.967V485.94C225.52 485.264 225.136 484.639 224.511 484.301C224.198 484.132 223.85 484.046 223.501 484.046V484.046ZM223.501 485.94V540.967L184.082 562.326L184.08 507.299L223.501 485.94Z" fill="#26B6A6"/>
    <path d="M217.589 496.55C217.24 496.55 216.892 496.635 216.58 496.804L188.985 511.755C188.36 512.093 187.976 512.718 187.976 513.394V529.337C187.976 530.019 188.368 530.649 189 530.985C189.309 531.15 189.651 531.231 189.994 531.231C190.355 531.231 190.714 531.141 191.034 530.959L192.269 530.263C192.876 529.921 193.247 529.304 193.247 528.639V523.756C193.247 521.736 194.738 519.158 196.44 518.236L199.241 516.719V537.133C199.241 539.749 197.841 542.461 196.588 543.14L192.927 545.124C192.302 545.462 191.918 546.087 191.918 546.765V548.457C191.918 549.133 192.302 549.759 192.927 550.097C193.239 550.266 193.587 550.349 193.936 550.349C194.285 550.349 194.632 550.266 194.945 550.097L214.656 539.417C215.28 539.079 215.666 538.454 215.666 537.778V536.086C215.666 535.41 215.28 534.784 214.656 534.446C214.343 534.277 213.994 534.192 213.646 534.192C213.298 534.192 212.95 534.277 212.637 534.446L208.975 536.43L208.842 536.492C208.678 536.301 208.341 535.682 208.341 534.389V511.788L213.161 509.178C213.582 508.95 213.835 508.924 213.925 508.924C214.147 508.924 214.335 509.483 214.335 510.144V515.027C214.335 515.699 214.714 516.318 215.329 516.66C215.644 516.833 216 516.921 216.353 516.921C216.691 516.921 217.028 516.842 217.333 516.684L218.567 516.043C219.208 515.71 219.608 515.075 219.608 514.386V498.444C219.608 497.768 219.223 497.142 218.598 496.804C218.287 496.635 217.937 496.55 217.589 496.55V496.55ZM217.589 498.444V514.386L216.353 515.027C216.353 515.027 216.353 512.841 216.353 510.144C216.353 508.182 215.359 507.032 213.925 507.032C213.386 507.032 212.785 507.194 212.151 507.536L206.322 510.695V534.389C206.322 536.86 207.347 538.408 208.774 538.408C209.153 538.408 209.56 538.3 209.985 538.07C212.007 536.975 213.646 536.086 213.646 536.086V537.778L193.936 548.457V546.765L197.598 544.781C199.62 543.684 201.259 540.26 201.259 537.133V513.438L195.43 516.594C193.11 517.852 191.229 521.058 191.229 523.756V528.639L189.994 529.337V513.394L217.589 498.444" fill="#26B6A6"/>
    <path d="M333.695 507.554L333.248 507.457C332.747 507.225 332.542 506.659 332.789 506.189L344.5 483.91C344.909 483.315 345.463 482.99 346.083 482.914C346.717 482.837 347.33 483.012 347.8 483.394L357.772 489.542L359.082 489.794L358.149 489.432L370.004 462.347C370.446 461.677 371.021 461.344 371.667 461.273C372.322 461.201 372.956 461.41 373.423 461.831L388.204 476.13C388.595 476.503 388.583 477.102 388.183 477.466C387.786 477.833 387.147 477.824 386.759 477.446L372.001 463.174L360.015 490.152C359.756 490.747 359.232 491.192 358.579 491.383C357.927 491.574 357.232 491.475 356.661 491.124L346.352 484.79L334.6 507.027C334.424 507.361 334.064 507.554 333.695 507.554" fill="#26B6A6"/>
    <path d="M388.544 439.686L388.132 439.804L386.111 440.897L332.754 469.826C332.5 469.967 332.27 470.206 332.109 470.478C331.941 470.744 331.84 471.049 331.84 471.325V523.602C331.84 523.993 332.046 524.219 332.347 524.219L332.754 524.1L388.132 494.078C388.644 493.799 389.054 493.13 389.054 492.581V440.305C389.054 439.914 388.848 439.686 388.544 439.686V439.686ZM387.037 442.583V492.485L333.858 521.315V471.417L333.861 471.415L387.037 442.583ZM389.145 441.444H389.154H389.145Z" fill="#26B6A6"/>
    <path d="M353.838 469.008C353.511 469.008 353.111 469.128 352.685 469.359C350.945 470.3 349.474 472.693 349.474 474.58C349.474 475.293 349.685 475.818 350.057 476.02C350.431 476.215 351.018 476.13 351.677 475.774C353.418 474.83 354.891 472.44 354.891 470.553C354.891 469.84 354.678 469.315 354.306 469.113L353.838 469.008ZM350.52 478.022C349.991 478.022 349.495 477.901 349.046 477.659C348.02 477.102 347.454 476.009 347.454 474.58C347.454 472.012 349.308 468.999 351.677 467.717C352.992 467.006 354.283 466.914 355.314 467.474C356.343 468.031 356.907 469.124 356.907 470.553C356.907 473.116 355.052 476.132 352.685 477.416C351.939 477.817 351.203 478.022 350.52 478.022Z" fill="#26B6A6"/>
    <path d="M556.37 350.129C553.809 350.129 550.983 350.889 548.018 352.495C542.632 355.414 537.351 360.783 533.15 367.608C528.19 375.67 525.346 384.826 525.346 392.725C525.346 403.44 530.552 409.844 537.985 409.844C540.543 409.844 543.368 409.082 546.336 407.476C549.379 405.825 552.387 403.396 555.189 400.361C557.343 398.028 559.375 395.332 561.202 392.363C566.162 384.302 569.006 375.145 569.006 367.248C569.006 356.534 563.8 350.127 556.37 350.129V350.129ZM556.37 352.023C562.82 352.023 566.988 358 566.988 367.248C566.988 374.823 564.242 383.632 559.455 391.417C557.703 394.264 555.755 396.856 553.664 399.123C550.972 402.037 548.168 404.296 545.326 405.836C542.737 407.239 540.267 407.95 537.985 407.95C531.532 407.95 527.364 401.974 527.364 392.725C527.364 385.149 530.11 376.339 534.9 368.554C538.925 362.012 543.944 356.891 549.026 354.137C551.615 352.735 554.085 352.023 556.37 352.023Z" fill="#26B6A6"/>
    <path d="M541.677 371.827C540.244 371.827 539.107 373.398 539.107 375.435V395.58C539.107 396.761 539.491 397.373 540.092 397.373C540.567 397.373 541.177 396.992 541.846 396.215L558.591 376.664C560.105 374.897 560.105 373.365 558.591 373.238L541.846 371.833L541.677 371.827ZM541.715 373.725L557.359 375.035L557.017 375.477L541.126 394.031V375.435C541.126 374.447 541.521 373.846 541.715 373.725ZM541.743 373.71H541.752H541.743Z" fill="#26B6A6"/>
    <path d="M622.225 619.341L764.479 696.556V614.677L622.22 537.46L622.225 619.341Z" fill="#E7E8E5"/>
    <path d="M863.089 643.13L764.479 696.556V614.677L863.091 561.248L863.089 643.13" fill="#F3F2F1"/>
    <path d="M622.22 537.46L720.837 484.035L863.091 561.251L764.479 614.677L622.22 537.46Z" fill="#FAFAF9"/>
    <path d="M764.479 644.354L696.357 605.159L764.479 642.068V644.354" fill="#CCCDCB"/>
    <path d="M764.479 644.354V642.068L805.351 619.923L764.479 644.354" fill="#D5D7D4"/>
    <path d="M764.479 664.928L655.482 603.644L764.479 662.696V664.928Z" fill="#CCCDCB"/>
    <path d="M764.479 664.928V662.696L846.226 618.408L764.479 664.928Z" fill="#D5D7D4"/>
    <path d="M682.732 593.21C655.501 586.161 638.306 585.825 635.271 585.825C634.95 585.825 634.787 585.829 634.787 585.829C633.655 579.785 635.909 567.841 635.909 567.841L682.732 593.21" fill="#CCCDCB"/>
    <path d="M635.909 567.841L682.732 593.21L630.925 579.175L635.909 567.841Z" fill="#FAFAF9"/>
    <path d="M747.691 682.905L696.357 638.615L758.969 672.539C749.115 676.817 747.691 682.905 747.691 682.905Z" fill="#CCCDCB"/>
    <path d="M696.357 638.615L744.567 676.709L758.969 672.539L696.357 638.615Z" fill="#FAFAF9"/>
    <path d="M813.785 610.786L846.226 593.21C846.226 593.21 846.392 593.421 846.661 593.81C847.945 595.673 851.556 601.612 850.298 607.972L813.785 610.786" fill="#D5D7D4"/>
    <path d="M813.785 610.786L846.226 593.21L857.027 598.557L813.785 610.786Z" fill="#FAFAF9"/>
    <path d="M647.287 543.155C646.855 543.155 646.434 542.942 646.195 542.565C645.849 542.001 646.057 541.278 646.661 540.951L728.405 496.659C728.602 496.554 728.817 496.506 729.03 496.506C729.465 496.506 729.888 496.714 730.125 497.092C730.468 497.658 730.265 498.38 729.661 498.705L647.917 542.995C647.72 543.104 647.5 543.155 647.287 543.155" fill="#B6C5C5"/>
    <path d="M660.908 550.536C660.478 550.536 660.055 550.323 659.818 549.945C659.472 549.381 659.678 548.659 660.282 548.332L742.027 504.045C742.223 503.937 742.438 503.887 742.651 503.887C743.086 503.887 743.512 504.097 743.746 504.475C744.094 505.039 743.888 505.761 743.285 506.088L661.54 550.378C661.343 550.485 661.124 550.536 660.908 550.536" fill="#B6C5C5"/>
    <path d="M674.534 557.917C674.104 557.917 673.681 557.704 673.447 557.326C673.098 556.762 673.304 556.04 673.907 555.715L735.029 522.599C735.508 523.38 736.329 523.973 737.337 524.074L675.166 557.759C674.969 557.866 674.747 557.917 674.534 557.917Z" fill="#B6C5C5"/>
    <path d="M688.162 565.3C687.729 565.3 687.306 565.089 687.072 564.709C686.724 564.145 686.93 563.423 687.533 563.096L769.273 518.806C769.468 518.701 769.683 518.648 769.898 518.648C770.328 518.648 770.756 518.859 770.995 519.239C771.341 519.803 771.135 520.525 770.532 520.85L688.789 565.142C688.595 565.249 688.373 565.3 688.162 565.3Z" fill="#B6C5C5"/>
    <path d="M701.786 572.683C701.351 572.683 700.93 572.47 700.693 572.093C700.347 571.529 700.551 570.806 701.154 570.479L782.899 526.19C783.096 526.084 783.311 526.034 783.524 526.034C783.959 526.034 784.384 526.244 784.62 526.622C784.967 527.186 784.761 527.908 784.16 528.235L702.412 572.523C702.216 572.63 701.998 572.683 701.786 572.683Z" fill="#B6C5C5"/>
    <path d="M715.411 580.064C714.976 580.064 714.555 579.851 714.319 579.473C713.973 578.909 714.179 578.187 714.78 577.86L796.525 533.57C796.721 533.465 796.936 533.415 797.147 533.415C797.582 533.415 798.008 533.625 798.244 534.003C798.59 534.567 798.384 535.291 797.783 535.616L716.04 579.906C715.844 580.011 715.624 580.064 715.411 580.064" fill="#B6C5C5"/>
    <path d="M729.032 587.447C728.602 587.447 728.179 587.234 727.94 586.857C727.594 586.293 727.802 585.57 728.406 585.243L810.151 540.954C810.347 540.846 810.562 540.796 810.775 540.796C811.21 540.796 811.633 541.006 811.87 541.384C812.218 541.95 812.01 542.672 811.406 542.997L729.662 587.287C729.465 587.396 729.245 587.447 729.032 587.447" fill="#B6C5C5"/>
    <path d="M742.658 594.828C742.228 594.828 741.804 594.615 741.568 594.238C741.22 593.674 741.428 592.951 742.031 592.624L823.776 548.337C823.973 548.231 824.188 548.181 824.401 548.181C824.833 548.181 825.259 548.389 825.495 548.769C825.844 549.331 825.636 550.055 825.032 550.38L743.287 594.67C743.091 594.777 742.871 594.828 742.658 594.828Z" fill="#B6C5C5"/>
    <path d="M756.281 602.209C755.849 602.209 755.426 601.998 755.192 601.618C754.843 601.054 755.049 600.332 755.652 600.008L837.397 555.718C837.594 555.612 837.809 555.562 838.022 555.562C838.457 555.562 838.88 555.772 839.116 556.15C839.465 556.714 839.259 557.436 838.656 557.761L756.911 602.051C756.714 602.158 756.494 602.209 756.281 602.209Z" fill="#B6C5C5"/>
    <path d="M561.604 429.704L398.579 518.051C396.474 519.193 394.767 521.965 394.767 524.245V670C394.767 672.28 396.474 675.055 398.579 676.194L404.845 679.591C406.95 680.73 410.362 680.73 412.467 679.589L575.491 591.242C577.596 590.1 579.304 587.326 579.304 585.046L579.299 439.293C579.299 437.013 577.592 434.239 575.489 433.1L569.226 429.704C567.121 428.563 563.709 428.563 561.604 429.704" fill="#26B6A6"/>
    <path d="M394.816 670.683C394.783 670.452 394.767 670.224 394.767 670V524.245C394.767 522.408 395.876 520.253 397.405 518.885C396.83 519.403 396.318 520.031 395.906 520.72L409.77 528.248C409.083 529.37 408.657 530.632 408.657 531.769V663.227L394.816 670.683V670.683ZM456.958 486.414L561.604 429.704C562.656 429.134 564.036 428.848 565.414 428.848C566.499 428.848 567.584 429.024 568.508 429.377C567.582 429.031 566.497 428.857 565.414 428.857C564.032 428.857 562.654 429.14 561.611 429.704L456.958 486.414V486.414ZM579.299 439.269C579.299 439.267 579.299 439.265 579.299 439.262C579.299 439.265 579.299 439.267 579.299 439.269ZM579.299 439.245C579.299 439.243 579.299 439.24 579.299 439.236C579.299 439.24 579.299 439.243 579.299 439.245ZM579.297 439.216C579.292 438.85 579.241 438.518 579.149 438.226C578.768 436.216 577.271 434.072 575.485 433.106L571.541 430.957L575.489 433.1C577.568 434.225 579.262 436.951 579.297 439.216ZM578.59 437.278C578.23 436.927 577.748 436.741 577.189 436.741C576.825 436.741 576.427 436.82 576.006 436.986C576.427 436.815 576.827 436.734 577.192 436.734C577.748 436.734 578.23 436.923 578.59 437.278" fill="#06AB91"/>
    <path d="M579.149 438.229C578.682 436.743 577.213 436.273 575.485 437.237L412.476 525.584C411.422 526.135 410.481 527.124 409.777 528.253L395.906 520.72C396.58 519.592 397.52 518.629 398.575 518.051L561.611 429.704C563.695 428.574 567.128 428.574 569.24 429.704L575.485 433.106C577.274 434.072 578.768 436.218 579.149 438.229Z" fill="#26B6A6"/>
    <path d="M409.77 528.248L395.906 520.72C396.58 519.592 397.52 518.629 398.575 518.051L561.611 429.704C562.654 429.14 564.032 428.857 565.414 428.857C566.798 428.857 568.183 429.14 569.24 429.704L575.485 433.106C577.271 434.072 578.768 436.216 579.149 438.226C579.028 437.838 578.838 437.52 578.59 437.278C578.23 436.923 577.748 436.734 577.192 436.734C576.827 436.734 576.427 436.815 576.006 436.986C575.838 437.052 575.665 437.133 575.489 437.228L412.467 525.575C411.415 526.146 410.46 527.127 409.77 528.248" fill="#14B099"/>
    <path d="M575.489 437.228L412.467 525.575C410.362 526.716 408.657 529.488 408.657 531.769V677.524C408.657 679.804 410.362 680.73 412.467 679.589L575.491 591.242C577.596 590.1 579.304 587.326 579.304 585.046L579.299 439.293C579.299 437.013 577.592 436.089 575.489 437.228" fill="#26B6A6"/>
    <path d="M479.487 524.364C476.297 527.82 473.371 531.703 470.787 535.904C462.938 548.659 458.436 563.755 458.436 577.314C458.436 591.038 463.013 601.39 470.995 605.714C477.354 609.157 485.629 608.466 494.303 603.769C502.819 599.16 510.941 591.042 517.174 580.913C525.023 568.153 529.525 553.06 529.525 539.503C529.525 525.781 524.946 515.429 516.964 511.105C510.607 507.659 502.328 508.349 493.653 513.05C488.711 515.725 483.945 519.531 479.487 524.364V524.364ZM479.88 613.229C475.677 613.229 471.715 612.27 468.151 610.338C458.361 605.034 452.745 592.998 452.745 577.314C452.745 562.846 457.526 546.778 465.859 533.235C468.623 528.742 471.762 524.581 475.184 520.872C480.062 515.585 485.318 511.399 490.809 508.425C501.313 502.737 511.612 502.043 519.808 506.483C529.598 511.788 535.213 523.821 535.213 539.503C535.213 553.968 530.435 570.034 522.102 583.58C515.376 594.51 506.514 603.324 497.147 608.394C491.214 611.609 485.341 613.229 479.88 613.229Z" fill="white"/>
    <path d="M515.794 550.128L483.79 587.487C480.902 590.86 478.559 590.318 478.559 586.275V547.779C478.559 543.736 480.902 540.655 483.79 540.899L515.794 543.581C518.683 543.822 518.683 546.754 515.794 550.128Z" fill="white"/>
    <path d="M351.238 548.92V681.705C351.238 683.103 350.192 684.804 348.892 685.51L208.231 761.771C206.947 762.462 205.904 761.901 205.904 760.502V753.565L343.758 678.829V550.428L348.892 547.65C350.192 546.945 351.238 547.522 351.238 548.92" fill="#17282F"/>
    <path d="M343.758 550.428V678.83L205.904 753.565V627.716C205.904 627.012 206.161 626.239 206.587 625.565C206.998 624.874 207.581 624.266 208.231 623.91L343.758 550.428" fill="#26B6A6"/>
    <path d="M205.904 753.565V753.559L205.91 753.561L205.904 753.565Z" fill="#BEE9E1"/>
    <path d="M205.904 704.853V627.716C205.904 627.196 206.046 626.639 206.293 626.101C206.379 625.919 206.478 625.739 206.587 625.565C206.757 625.28 206.955 625.01 207.176 624.764C207.494 624.415 207.854 624.119 208.236 623.915L343.758 550.444V638.222L309.755 605.334C309.537 605.139 309.301 604.981 309.049 604.86L300.439 600.192L300.379 600.159L300.374 600.166C299.923 599.924 299.42 599.808 298.922 599.808C297.965 599.808 297.018 600.24 296.443 601.068L265.386 672.921L244.763 660.187C244.578 660.038 244.379 659.913 244.171 659.812L235.585 655.159L235.576 655.168C235.101 654.896 234.565 654.764 234.037 654.764C233.091 654.764 232.158 655.186 231.585 655.993L205.904 704.853ZM243.958 637.937L244.009 637.966L244.045 637.985L250.808 641.668L254.057 636.491C257.404 633.809 260.053 629.577 260.954 625.504L264.361 620.081L257.383 616.273H257.38L257.376 616.271C256.66 615.884 255.832 615.685 254.92 615.685C253.652 615.685 252.219 616.073 250.703 616.894C245.49 619.719 241.261 626.59 241.261 632.242C241.261 635.027 242.293 636.991 243.96 637.935L243.958 637.937" fill="#BEE9E1"/>
    <path d="M309.755 605.334L309.282 604.994L309.285 604.99L309.238 604.965L309.182 604.933L300.439 600.192L300.379 600.159L300.374 600.166C299.053 599.465 297.315 599.808 296.442 601.068L265.386 672.921L244.763 660.187L244.335 659.911L244.339 659.904L244.246 659.852L244.213 659.836L235.585 655.159L235.576 655.168C234.25 654.409 232.479 654.733 231.585 655.993L201.51 713.212L201.515 751.179L210.287 755.935L345.636 682.574C347.189 681.731 348.148 680.173 348.148 678.489V642.465L309.755 605.334" fill="#26B6A6"/>
    <path d="M210.287 755.935L205.91 753.561L205.904 753.558V704.853L231.585 655.993C232.158 655.186 233.091 654.764 234.037 654.764C234.565 654.764 235.101 654.896 235.576 655.168L235.585 655.159L244.171 659.812C243.748 659.608 243.284 659.509 242.826 659.509C241.876 659.509 240.936 659.937 240.361 660.747L210.286 717.966L210.287 755.935ZM273.623 678.006L244.763 660.187L265.386 672.921L296.443 601.068C297.018 600.24 297.965 599.808 298.922 599.808C299.42 599.808 299.923 599.924 300.374 600.166L300.379 600.159L300.439 600.192L309.049 604.86C308.625 604.658 308.164 604.557 307.704 604.557C306.745 604.557 305.793 604.992 305.22 605.824L273.623 678.006Z" fill="#19B19D"/>
    <path d="M210.287 755.935L210.286 717.966L240.361 660.747C241.348 659.356 243.415 659.092 244.763 660.187L273.623 678.006L305.22 605.824C306.23 604.36 308.415 604.125 309.755 605.334L348.148 642.465V678.489C348.148 680.173 347.192 681.731 345.636 682.574L210.287 755.935Z" fill="#26B6A6"/>
    <path d="M264.528 698.786L270.3 675.957L273.623 678.006L264.528 698.786Z" fill="#19B19D"/>
    <path d="M351.242 681.707C351.242 683.107 350.195 684.808 348.899 685.508L208.236 761.767C206.952 762.467 205.904 761.898 205.904 760.5V627.716C205.904 627.016 206.163 626.246 206.585 625.557C207.006 624.867 207.589 624.259 208.236 623.915L348.899 547.656C350.195 546.947 351.242 547.516 351.242 548.923V681.707V681.707ZM356.9 540.752L356.846 540.477C356.608 539.231 355.679 537.903 354.589 537.304L350.485 535.085C349.198 534.385 347.103 534.385 345.807 535.085L195.08 616.78C194.433 617.135 193.849 617.732 193.417 618.421C192.996 619.111 192.735 619.879 192.735 620.579V786.679C192.735 788.077 193.783 789.787 195.08 790.485L199.173 792.699C200.298 793.307 202.037 793.389 203.311 792.932L203.474 792.871L203.851 792.699L354.589 711.004C355.873 710.307 356.923 708.603 356.923 707.205V541.105L356.9 540.752" fill="#273E47"/>
    <path d="M203.311 792.934C202.035 793.384 200.294 793.307 199.175 792.699L195.08 790.485C193.776 789.791 192.735 788.077 192.735 786.679V620.579C192.735 619.883 192.993 619.111 193.42 618.424C195.991 619.815 198.962 621.422 202.192 623.175C201.766 623.86 201.507 624.641 201.507 625.346V791.431C201.507 792.629 202.285 793.22 203.311 792.934" fill="#17282F"/>
    <path d="M351.238 681.705C351.238 683.103 350.192 684.804 348.892 685.51L208.231 761.771C206.947 762.462 205.904 761.901 205.904 760.502V627.716C205.904 627.012 206.16 626.239 206.587 625.565C206.998 624.874 207.581 624.266 208.231 623.91L343.758 550.428L348.892 547.65C350.192 546.945 351.238 547.522 351.238 548.921V681.705V681.705ZM356.9 540.745L356.848 540.473C356.558 539.558 355.651 539.253 354.592 539.847L203.85 621.551C203.201 621.889 202.619 622.497 202.191 623.173C201.763 623.862 201.506 624.65 201.506 625.339V791.431C201.506 792.633 202.292 793.213 203.303 792.941L203.475 792.875L203.85 792.699L354.592 711.011C355.873 710.304 356.919 708.601 356.919 707.205V541.098L356.9 540.745" fill="#33535F"/>
    <path d="M260.954 625.504L264.361 620.081L257.383 616.273H257.38L257.376 616.271C255.666 615.349 253.308 615.483 250.703 616.894C245.49 619.719 241.261 626.59 241.261 632.242C241.261 635.027 242.293 636.991 243.96 637.935L243.958 637.937L244.009 637.966L244.045 637.985L250.808 641.668L254.057 636.491C257.404 633.809 260.053 629.577 260.954 625.504" fill="#26B6A6"/>
    <path d="M250.808 641.668L244.045 637.985L244.009 637.966L243.958 637.937L243.96 637.935C242.293 636.991 241.261 635.027 241.261 632.242C241.261 626.59 245.49 619.719 250.703 616.894C252.219 616.073 253.652 615.685 254.92 615.685C255.832 615.685 256.66 615.884 257.376 616.271L257.38 616.273H257.383L264.361 620.081L260.954 625.504C260.053 629.577 257.404 633.809 254.057 636.491L250.808 641.668" fill="#19B19D"/>
    <path d="M257.574 620.638C262.787 617.811 267.016 620.103 267.016 625.752C267.016 631.403 262.79 638.275 257.574 641.1C252.359 643.927 248.133 641.635 248.133 635.984C248.133 630.334 252.359 623.463 257.574 620.638Z" fill="#26B6A6"/>
    <path d="M609.196 841.574L495.519 903.163L367.511 833.654L481.187 772.064L609.196 841.574Z" fill="#26B6A6"/>
    <path d="M481.187 688.581V772.064L367.511 833.653L367.513 750.167L481.187 688.581" fill="#26B6A6"/>
    <path d="M386.619 740.403L386.079 740.108L386.581 739.837L386.619 740.403" fill="#10AE97"/>
    <path d="M609.196 758.084V841.574L481.187 772.064V688.581L609.196 758.084" fill="#26B6A6"/>
    <path d="M574.673 742.13L574.486 739.237L577.246 740.737L574.673 742.13Z" fill="#08917E"/>
    <path d="M481.187 688.581L481.346 642.359L609.041 711.953L609.196 758.084L481.187 688.581" fill="#26B6A6"/>
    <path d="M577.246 740.737L574.486 739.237L571.382 691.427L609.041 711.953L609.079 723.49L577.246 740.737V740.737ZM531.855 684.507L530.87 669.348L545.347 677.24L531.855 684.507ZM491.26 662.586L490.264 647.219L504.942 655.218L491.26 662.586Z" fill="#14B099"/>
    <path d="M367.513 750.167L353.953 708.23L467.627 646.641L481.187 688.581L367.513 750.167" fill="#26B6A6"/>
    <path d="M386.079 740.109L359.615 725.742L354.809 710.879L353.953 708.23L383.492 692.226L386.581 739.837L386.079 740.109" fill="#1DB3A0"/>
    <path d="M394.601 830.42C393.378 829.751 392.314 828.096 392.223 826.726L382.683 679.78C382.594 678.41 383.508 676.771 384.724 676.119L482.179 623.625C483.395 622.971 485.374 622.986 486.597 623.656C487.82 624.327 488.887 625.982 488.973 627.352L498.515 774.298C498.604 775.668 497.692 777.305 496.476 777.959L399.019 830.453C397.803 831.107 395.824 831.092 394.601 830.42" fill="#EDEDEB"/>
    <path d="M398.055 830.177C397.358 830.177 397.251 829.371 397.237 829.126L387.695 682.176C387.62 681.015 388.42 679.571 389.444 679.023L486.899 626.527C487.14 626.399 487.371 626.331 487.575 626.331C488.271 626.331 488.377 627.137 488.393 627.385L497.935 774.332C498.01 775.493 497.21 776.936 496.186 777.488L398.729 829.981C398.49 830.111 398.259 830.177 398.058 830.177H398.055Z" fill="#FAFAF9"/>
    <path d="M487.575 625.787C487.278 625.787 486.95 625.873 486.611 626.055L389.154 678.549C387.938 679.203 387.026 680.842 387.115 682.209L396.657 829.158C396.72 830.146 397.288 830.723 398.055 830.723C398.352 830.723 398.68 830.636 399.019 830.453L496.476 777.959C497.692 777.305 498.604 775.668 498.515 774.298L488.973 627.352C488.91 626.364 488.342 625.787 487.575 625.787V625.787ZM487.575 626.876C487.724 626.876 487.799 627.2 487.815 627.418L497.355 774.364C497.418 775.326 496.736 776.564 495.896 777.014L398.441 829.507L398.055 829.632C397.906 829.632 397.829 829.31 397.817 829.092L388.275 682.144C388.212 681.184 388.894 679.947 389.732 679.495L487.189 627.001L487.575 626.876" fill="#E7E8E5"/>
    <path d="M398.729 830.587C397.51 831.103 395.733 831.048 394.603 830.42C393.376 829.747 392.316 828.094 392.23 826.729L382.687 679.784C382.643 679.095 382.851 678.349 383.214 677.679L387.65 680.113C387.276 680.77 387.07 681.529 387.112 682.205L396.655 829.16C396.736 830.418 397.644 831.009 398.729 830.587" fill="#DADBD8"/>
    <path d="M438.36 666.598L472.707 647.857C473.778 647.28 474.709 647.794 474.788 649.001L474.838 649.754C474.915 650.961 474.11 652.405 473.039 652.982L438.689 671.723C437.618 672.298 436.685 671.787 436.608 670.582L436.559 669.827C436.482 668.62 437.288 667.173 438.36 666.598" fill="#DADBD8"/>
    <path d="M439.19 679.396L473.537 660.653C474.608 660.078 475.542 660.589 475.619 661.796L475.668 662.549C475.747 663.756 474.943 665.202 473.869 665.777L439.52 684.521C438.448 685.096 437.518 684.584 437.438 683.377L437.389 682.622C437.312 681.415 438.116 679.971 439.19 679.396Z" fill="#DADBD8"/>
    <path d="M440.02 692.191L474.367 673.45C475.441 672.875 476.372 673.384 476.451 674.591L476.5 675.346C476.578 676.554 475.773 677.998 474.7 678.575L440.352 697.316C439.279 697.891 438.348 697.38 438.268 696.172L438.219 695.417C438.142 694.213 438.949 692.766 440.02 692.191" fill="#DADBD8"/>
    <path d="M405.371 737.21L476.028 699.043C477.101 698.466 478.032 698.979 478.112 700.184L478.161 700.939C478.238 702.146 477.434 703.591 476.362 704.166L405.701 742.334C404.63 742.912 403.697 742.4 403.619 741.191L403.57 740.438C403.493 739.231 404.3 737.787 405.371 737.21Z" fill="#DADBD8"/>
    <path d="M404.541 724.414L475.198 686.246C476.269 685.671 477.202 686.182 477.282 687.389L477.331 688.144C477.408 689.349 476.603 690.795 475.532 691.37L404.871 729.539C403.799 730.114 402.866 729.603 402.789 728.396L402.74 727.643C402.663 726.436 403.467 724.989 404.541 724.414" fill="#DADBD8"/>
    <path d="M406.208 750.101L476.865 711.931C477.939 711.356 478.87 711.867 478.949 713.074L478.998 713.829C479.075 715.036 478.271 716.48 477.197 717.055L406.538 755.224C405.467 755.801 404.534 755.29 404.457 754.083L404.408 753.327C404.33 752.12 405.135 750.677 406.208 750.101" fill="#DADBD8"/>
    <path d="M407.039 762.897L477.695 724.728C478.769 724.153 479.702 724.664 479.779 725.869L479.828 726.624C479.908 727.831 479.101 729.278 478.03 729.853L407.368 768.022C406.297 768.596 405.366 768.086 405.287 766.878L405.238 766.123C405.161 764.919 405.965 763.472 407.039 762.897" fill="#DADBD8"/>
    <path d="M407.869 775.692L478.528 737.524C479.599 736.948 480.532 737.46 480.61 738.667L480.659 739.422C480.738 740.629 479.931 742.073 478.86 742.648L408.199 780.817C407.127 781.392 406.197 780.881 406.117 779.675L406.068 778.921C405.991 777.714 406.798 776.269 407.869 775.692" fill="#DADBD8"/>
    <path d="M408.699 788.49L479.358 750.321C480.43 749.744 481.363 750.255 481.44 751.465L481.489 752.217C481.569 753.424 480.762 754.868 479.691 755.446L409.031 793.615C407.958 794.189 407.027 793.678 406.947 792.471L406.901 791.716C406.821 790.511 407.628 789.065 408.699 788.49" fill="#DADBD8"/>
    <path d="M409.529 801.285L480.189 763.116C481.262 762.541 482.193 763.053 482.273 764.26L482.322 765.013C482.399 766.22 481.594 767.666 480.521 768.242L409.862 806.41C408.788 806.985 407.857 806.474 407.78 805.267L407.731 804.511C407.654 803.307 408.458 801.86 409.529 801.285Z" fill="#DADBD8"/>
    <path d="M400.497 684.891L429.03 669.563L431.116 701.686L402.583 717.014L400.497 684.891Z" fill="#26B6A6"/>
    <path d="M405.142 688.214L405.766 697.849L406.66 697.353L406.468 694.401C406.363 692.771 407.64 690.716 409.319 689.814L413.538 687.549L414.467 701.872C414.591 703.764 413.503 705.932 412.039 706.72L409.389 708.145L409.455 709.167L423.723 701.503L423.656 700.481C423.656 700.481 422.47 701.117 421.006 701.905C419.542 702.689 418.255 701.795 418.134 699.903L417.203 685.581L421.422 683.313C423.101 682.411 424.549 683.002 424.657 684.63C424.762 686.263 424.848 687.584 424.848 687.584L425.742 687.121L425.115 677.484L405.142 688.214" fill="#FAFAF9"/>
    <path d="M435.198 852.41C433.974 851.738 432.908 850.086 432.819 848.716L423.279 701.767C423.19 700.399 424.105 698.76 425.321 698.106L522.775 645.612C523.992 644.958 525.968 644.973 527.193 645.645C528.417 646.317 529.481 647.971 529.57 649.339L539.112 796.288C539.201 797.657 538.289 799.297 537.072 799.949L439.616 852.442C438.399 853.096 436.421 853.081 435.198 852.41" fill="#EDEDEB"/>
    <path d="M438.652 852.165C437.955 852.165 437.85 851.36 437.833 851.113L428.291 704.166C428.216 703.007 429.016 701.561 430.041 701.012L527.497 648.516C527.736 648.388 527.968 648.32 528.171 648.32C528.868 648.32 528.976 649.126 528.99 649.372L538.532 796.32C538.607 797.481 537.807 798.926 536.782 799.475L439.328 851.971C439.089 852.098 438.855 852.165 438.652 852.165Z" fill="#FAFAF9"/>
    <path d="M528.169 647.774C527.874 647.774 527.547 647.862 527.207 648.044L429.751 700.538C428.534 701.19 427.622 702.829 427.711 704.199L437.253 851.148C437.317 852.136 437.885 852.71 438.652 852.71C438.949 852.71 439.276 852.624 439.616 852.442L537.072 799.949C538.289 799.297 539.201 797.657 539.112 796.288L529.57 649.339C529.507 648.353 528.938 647.774 528.169 647.774V647.774ZM528.169 648.867C528.321 648.867 528.396 649.19 528.41 649.407L537.952 796.354C538.015 797.313 537.332 798.55 536.492 799.003L439.038 851.497L438.652 851.622C438.502 851.622 438.427 851.297 438.413 851.082L428.871 704.133C428.808 703.171 429.491 701.934 430.331 701.484L527.785 648.99L528.169 648.867" fill="#E7E8E5"/>
    <path d="M439.328 852.576C438.107 853.092 436.33 853.035 435.198 852.41C433.972 851.736 432.913 850.083 432.826 848.718L423.286 701.771C423.242 701.084 423.448 700.336 423.81 699.669L428.247 702.103C427.872 702.759 427.667 703.516 427.709 704.194L437.251 851.152C437.333 852.407 438.24 852.995 439.328 852.576" fill="#DADBD8"/>
    <path d="M478.954 688.587L513.301 669.846C514.375 669.269 515.305 669.781 515.385 670.988L515.434 671.743C515.514 672.95 514.707 674.394 513.635 674.971L479.286 693.712C478.215 694.287 477.282 693.776 477.204 692.569L477.155 691.814C477.078 690.609 477.883 689.162 478.954 688.587Z" fill="#DADBD8"/>
    <path d="M479.786 701.383L514.134 682.642C515.205 682.065 516.138 682.578 516.218 683.785L516.267 684.538C516.344 685.745 515.539 687.189 514.466 687.767L480.118 706.507C479.045 707.082 478.114 706.573 478.035 705.366L477.985 704.611C477.908 703.404 478.713 701.958 479.786 701.383Z" fill="#DADBD8"/>
    <path d="M480.617 714.18L514.964 695.437C516.035 694.862 516.968 695.373 517.048 696.581L517.097 697.336C517.174 698.541 516.37 699.987 515.296 700.562L480.946 719.303C479.875 719.88 478.944 719.369 478.865 718.162L478.816 717.409C478.739 716.199 479.545 714.755 480.617 714.18Z" fill="#DADBD8"/>
    <path d="M445.968 759.198L516.625 721.03C517.698 720.455 518.629 720.966 518.708 722.173L518.758 722.928C518.837 724.133 518.03 725.58 516.959 726.155L446.3 764.324C445.226 764.899 444.293 764.387 444.216 763.18L444.167 762.427C444.09 761.22 444.894 759.774 445.968 759.198Z" fill="#DADBD8"/>
    <path d="M445.135 746.401L515.794 708.235C516.865 707.66 517.799 708.171 517.878 709.376L517.927 710.131C518.004 711.338 517.2 712.784 516.126 713.359L445.467 751.526C444.396 752.103 443.463 751.591 443.386 750.384L443.337 749.63C443.259 748.423 444.064 746.978 445.135 746.401Z" fill="#DADBD8"/>
    <path d="M446.805 772.088L517.462 733.92C518.535 733.345 519.466 733.856 519.546 735.063L519.595 735.818C519.672 737.023 518.867 738.469 517.794 739.044L447.135 777.213C446.064 777.789 445.13 777.277 445.053 776.072L445.004 775.317C444.927 774.11 445.731 772.664 446.805 772.088" fill="#DADBD8"/>
    <path d="M447.635 784.886L518.292 746.718C519.366 746.14 520.299 746.651 520.376 747.859L520.425 748.613C520.505 749.821 519.698 751.265 518.627 751.84L447.965 790.009C446.894 790.586 445.963 790.072 445.883 788.867L445.834 788.113C445.757 786.905 446.562 785.461 447.635 784.886" fill="#DADBD8"/>
    <path d="M448.465 797.681L519.125 759.512C520.196 758.938 521.129 759.449 521.206 760.656L521.255 761.409C521.335 762.616 520.528 764.062 519.457 764.637L448.795 802.806C447.724 803.381 446.793 802.87 446.714 801.662L446.665 800.908C446.587 799.703 447.394 798.256 448.465 797.681Z" fill="#DADBD8"/>
    <path d="M449.296 810.477L519.955 772.31C521.026 771.733 521.959 772.244 522.036 773.451L522.086 774.207C522.165 775.414 521.358 776.857 520.287 777.434L449.628 815.602C448.554 816.176 447.624 815.665 447.546 814.46L447.497 813.705C447.42 812.498 448.225 811.052 449.296 810.477" fill="#DADBD8"/>
    <path d="M450.128 823.275L520.785 785.106C521.859 784.53 522.789 785.041 522.869 786.248L522.918 787.001C522.995 788.208 522.191 789.653 521.117 790.23L450.458 828.399C449.387 828.974 448.454 828.462 448.377 827.255L448.327 826.503C448.248 825.295 449.055 823.849 450.128 823.275" fill="#DADBD8"/>
    <path d="M441.094 706.881L469.629 691.55L471.713 723.675L443.18 739.003L441.094 706.881" fill="#26B6A6"/>
    <path d="M445.738 710.201L446.365 719.838L447.256 719.342L447.065 716.39C446.959 714.757 448.236 712.705 449.915 711.803L454.135 709.536L455.065 723.859C455.187 725.751 454.1 727.923 452.635 728.707L449.986 730.132L450.053 731.155L464.32 723.49L464.252 722.468C464.252 722.468 463.066 723.106 461.602 723.892C460.138 724.68 458.852 723.782 458.728 721.89L457.8 707.567L462.019 705.3C463.698 704.398 465.146 704.989 465.253 706.619C465.358 708.25 465.445 709.573 465.445 709.573L466.338 709.108L465.712 699.471L445.738 710.201" fill="#FAFAF9"/>
    <path d="M475.703 874.379C474.477 873.708 473.413 872.053 473.324 870.683L463.784 723.736C463.696 722.367 464.61 720.727 465.826 720.075L563.281 667.579C564.497 666.927 566.473 666.943 567.699 667.614C568.922 668.286 569.986 669.939 570.075 671.308L579.615 818.255C579.706 819.624 578.792 821.264 577.575 821.918L480.121 874.412C478.905 875.065 476.926 875.051 475.703 874.379" fill="#EDEDEB"/>
    <path d="M479.157 874.135C478.458 874.135 478.355 873.329 478.339 873.082L468.796 726.135C468.722 724.974 469.521 723.53 470.546 722.981L568.003 670.485C568.239 670.356 568.473 670.29 568.676 670.29C569.373 670.29 569.479 671.095 569.495 671.341L579.035 818.288C579.112 819.448 578.312 820.893 577.285 821.444L479.831 873.938C479.592 874.067 479.358 874.135 479.157 874.135Z" fill="#FAFAF9"/>
    <path d="M568.676 669.743C568.379 669.743 568.052 669.829 567.713 670.011L470.256 722.507C469.04 723.159 468.128 724.798 468.216 726.168L477.756 873.115C477.822 874.103 478.39 874.68 479.157 874.68C479.454 874.68 479.782 874.594 480.121 874.412L577.575 821.918C578.792 821.264 579.706 819.624 579.615 818.255L570.075 671.308C570.012 670.32 569.443 669.743 568.676 669.743V669.743ZM568.676 670.834C568.826 670.834 568.901 671.157 568.915 671.374L578.457 818.323C578.52 819.282 577.84 820.52 576.998 820.972L479.543 873.464L479.157 873.589C479.008 873.589 478.933 873.266 478.916 873.049L469.376 726.102C469.313 725.141 469.994 723.903 470.836 723.451L568.29 670.957L568.676 670.834" fill="#E7E8E5"/>
    <path d="M479.831 874.546C478.612 875.059 476.835 875.005 475.703 874.377C474.477 873.703 473.418 872.05 473.331 870.685L463.791 723.741C463.745 723.051 463.951 722.305 464.315 721.638L468.752 724.072C468.378 724.726 468.172 725.485 468.214 726.164L477.756 873.119C477.836 874.377 478.746 874.965 479.831 874.546" fill="#DADBD8"/>
    <path d="M519.459 710.555L553.806 691.814C554.88 691.239 555.811 691.75 555.89 692.957L555.939 693.712C556.019 694.917 555.212 696.363 554.139 696.938L519.791 715.679C518.718 716.256 517.787 715.745 517.71 714.538L517.661 713.783C517.583 712.576 518.388 711.132 519.459 710.555Z" fill="#DADBD8"/>
    <path d="M520.292 723.352L554.637 704.609C555.71 704.034 556.643 704.545 556.72 705.752L556.77 706.507C556.849 707.714 556.042 709.159 554.971 709.734L520.621 728.475C519.55 729.052 518.617 728.541 518.54 727.334L518.491 726.581C518.414 725.373 519.218 723.927 520.292 723.352" fill="#DADBD8"/>
    <path d="M521.122 736.148L555.469 717.407C556.54 716.832 557.474 717.343 557.551 718.55L557.6 719.303C557.679 720.51 556.873 721.956 555.801 722.531L521.452 741.272C520.381 741.85 519.447 741.336 519.37 740.131L519.321 739.375C519.244 738.168 520.051 736.725 521.122 736.148" fill="#DADBD8"/>
    <path d="M486.471 781.168L557.13 742.999C558.203 742.422 559.134 742.936 559.214 744.143L559.263 744.896C559.342 746.103 558.535 747.547 557.462 748.124L486.803 786.293C485.732 786.868 484.798 786.357 484.721 785.15L484.672 784.394C484.595 783.19 485.399 781.743 486.471 781.168Z" fill="#DADBD8"/>
    <path d="M485.64 768.371L556.3 730.204C557.371 729.627 558.304 730.138 558.383 731.345L558.43 732.1C558.51 733.307 557.705 734.752 556.632 735.329L485.972 773.495C484.899 774.07 483.968 773.559 483.891 772.354L483.842 771.599C483.765 770.392 484.569 768.945 485.64 768.371Z" fill="#DADBD8"/>
    <path d="M487.308 794.058L557.967 755.889C559.041 755.314 559.971 755.823 560.051 757.033L560.1 757.786C560.177 758.993 559.373 760.439 558.299 761.013L487.64 799.18C486.566 799.757 485.636 799.246 485.558 798.039L485.509 797.287C485.43 796.079 486.237 794.633 487.308 794.058" fill="#DADBD8"/>
    <path d="M488.14 806.853L558.797 768.685C559.871 768.109 560.804 768.62 560.881 769.828L560.93 770.583C561.007 771.788 560.203 773.235 559.132 773.809L488.47 811.978C487.399 812.556 486.466 812.041 486.389 810.834L486.34 810.081C486.262 808.874 487.067 807.43 488.14 806.853" fill="#DADBD8"/>
    <path d="M488.971 819.648L559.63 781.482C560.701 780.907 561.634 781.416 561.711 782.623L561.761 783.378C561.838 784.585 561.033 786.029 559.962 786.607L489.301 824.773C488.229 825.35 487.296 824.839 487.219 823.632L487.17 822.877C487.093 821.67 487.9 820.226 488.971 819.648" fill="#DADBD8"/>
    <path d="M489.801 832.446L560.46 794.277C561.531 793.702 562.465 794.214 562.542 795.421L562.591 796.176C562.67 797.381 561.864 798.827 560.792 799.402L490.133 837.57C489.06 838.146 488.129 837.635 488.049 836.429L488.002 835.675C487.923 834.468 488.73 833.022 489.801 832.446" fill="#DADBD8"/>
    <path d="M490.631 845.242L561.29 807.073C562.364 806.498 563.295 807.009 563.374 808.216L563.423 808.971C563.501 810.178 562.696 811.623 561.623 812.197L490.963 850.369C489.89 850.943 488.959 850.429 488.882 849.225L488.833 848.47C488.753 847.262 489.56 845.819 490.631 845.242Z" fill="#DADBD8"/>
    <path d="M481.599 728.848L510.132 713.52L512.218 745.644L483.683 760.972L481.599 728.848Z" fill="#26B6A6"/>
    <path d="M486.244 732.171L486.868 741.808L487.762 741.311L487.57 738.358C487.465 736.727 488.742 734.675 490.421 733.773L494.64 731.505L495.568 745.828C495.692 747.721 494.605 749.89 493.141 750.677L490.491 752.101L490.556 753.124L504.823 745.46L504.758 744.437C504.758 744.437 503.572 745.073 502.108 745.861C500.644 746.647 499.357 745.751 499.233 743.86L498.305 729.537L502.524 727.269C504.203 726.368 505.651 726.958 505.756 728.589C505.861 730.219 505.948 731.54 505.948 731.54L506.844 731.078L506.217 721.44L486.244 732.171" fill="#FAFAF9"/>
    <path d="M495.519 819.671V903.163L367.511 833.653L367.513 750.167L495.519 819.671" fill="#26B6A6"/>
    <path d="M495.519 903.163L367.511 833.653L367.513 750.167L495.519 819.671V903.163Z" fill="#069782"/>
    <path d="M609.196 841.574V758.084L495.519 819.671V903.163L609.196 841.574Z" fill="#26B6A6"/>
    <path d="M495.519 903.163L497.641 821.349L609.196 758.084V841.574L495.519 903.163ZM509.461 884.089C509.075 884.089 508.764 884.383 508.764 884.745V886.542C508.764 887.26 509.066 887.833 509.599 888.118C509.83 888.239 510.088 888.303 510.361 888.303C510.712 888.303 511.091 888.199 511.458 887.997C512.592 887.371 513.446 885.614 513.446 883.902V876.587L521.576 872.184V871.804C521.576 869.074 520.558 867.02 518.711 866.019C517.937 865.6 517.064 865.391 516.129 865.391C514.828 865.391 513.404 865.791 511.94 866.583C507.012 869.252 503.006 875.768 503.006 881.108V882.243L512.047 877.344V883.902C512.047 885.227 511.365 886.527 510.749 886.865C510.579 886.959 510.448 886.994 510.366 886.994C510.333 886.994 510.307 886.987 510.293 886.977C510.24 886.95 510.16 886.81 510.16 886.542V884.745C510.16 884.383 509.847 884.089 509.461 884.089V884.089ZM528.29 866.148V877.675C528.29 878.038 528.604 878.332 528.99 878.332C529.376 878.332 529.687 878.038 529.687 877.675V864.744L530.505 865.633C530.643 865.782 530.837 865.857 531.031 865.857C531.195 865.857 531.359 865.804 531.492 865.698C531.784 865.462 531.815 865.047 531.562 864.773L528.791 861.766L526.302 867.156C526.15 867.489 526.312 867.876 526.667 868.018L526.943 868.073C527.214 868.073 527.472 867.927 527.584 867.678L528.29 866.148V866.148ZM534.752 862.694V874.218C534.752 874.581 535.063 874.875 535.449 874.875C535.835 874.875 536.149 874.581 536.149 874.218V861.287L536.967 862.177C537.105 862.323 537.299 862.4 537.496 862.4C537.657 862.4 537.821 862.347 537.954 862.24C538.244 862.003 538.277 861.588 538.024 861.316L535.251 858.313L534.82 859.248C534.813 859.262 534.806 859.277 534.799 859.292L532.764 863.699C532.612 864.033 532.774 864.419 533.129 864.562L533.408 864.616C533.677 864.616 533.934 864.467 534.048 864.222L534.752 862.694V862.694ZM504.47 879.938C504.984 875.27 508.453 869.987 512.637 867.72C513.883 867.046 515.069 866.704 516.122 866.704C516.816 866.704 517.455 866.855 518.011 867.154C519.33 867.869 520.088 869.379 520.17 871.431L504.47 879.938" fill="#10AE97"/>
    <path d="M495.519 903.163V819.671L609.196 758.084L497.641 821.349L495.519 903.163" fill="#A0DFCF"/>
    <path d="M495.519 819.671L506.18 779.239L618.827 718.208L609.196 758.084L495.519 819.671" fill="#26B6A6"/>
    <path d="M495.519 819.671L506.18 779.239L618.827 718.208L609.196 758.084L495.519 819.671" fill="#06AB91"/>
    <path d="M367.513 750.167L340.765 715.508L468.785 785.012L495.519 819.671L367.513 750.167Z" fill="#26B6A6"/>
    <path d="M495.519 819.671L468.785 785.012L340.765 715.508L467.363 786.233L495.519 819.671L367.513 750.167L342.395 717.619L340.765 715.508L468.785 785.012L495.519 819.671" fill="#0A8372"/>
    <path d="M495.519 819.671L467.363 786.233L340.765 715.508L468.785 785.012L495.519 819.671Z" fill="#9EDCCA"/>
    <path d="M528.99 878.332C528.604 878.332 528.29 878.038 528.29 877.675V866.148L529.188 864.204L529.687 864.744V877.675C529.687 878.038 529.376 878.332 528.99 878.332" fill="#A0DFCF"/>
    <path d="M526.943 868.073L526.667 868.018C526.312 867.876 526.15 867.489 526.302 867.156L528.791 861.766L531.562 864.772C531.815 865.047 531.784 865.462 531.492 865.698C531.359 865.804 531.195 865.857 531.031 865.857C530.837 865.857 530.643 865.782 530.505 865.633L529.687 864.744L529.188 864.204L528.29 866.148L527.584 867.678C527.472 867.927 527.214 868.073 526.943 868.073" fill="#A0DFCF"/>
    <path d="M535.449 874.875C535.063 874.875 534.752 874.581 534.752 874.218V862.694L535.65 860.747L536.149 861.287V874.218C536.149 874.581 535.835 874.875 535.449 874.875V874.875ZM534.799 859.292C534.806 859.277 534.813 859.261 534.82 859.248L534.799 859.292Z" fill="#A0DFCF"/>
    <path d="M533.408 864.617L533.129 864.562C532.774 864.419 532.612 864.033 532.764 863.699L534.799 859.292L534.82 859.248L535.251 858.313L538.024 861.316C538.277 861.588 538.244 862.003 537.954 862.24C537.821 862.347 537.657 862.4 537.496 862.4C537.299 862.4 537.105 862.323 536.967 862.177L536.149 861.288L535.65 860.747L534.752 862.694L534.048 864.222C533.934 864.467 533.677 864.617 533.408 864.617" fill="#A0DFCF"/>
    <path d="M510.361 888.303C510.088 888.303 509.83 888.239 509.599 888.118C509.066 887.833 508.764 887.26 508.764 886.542V884.745C508.764 884.383 509.075 884.089 509.461 884.089C509.847 884.089 510.16 884.383 510.16 884.745V886.542C510.16 886.81 510.24 886.95 510.293 886.977C510.307 886.987 510.333 886.994 510.366 886.994C510.448 886.994 510.579 886.959 510.749 886.865C511.365 886.527 512.047 885.227 512.047 883.902V877.344L513.446 876.587V883.902C513.446 885.614 512.592 887.371 511.458 887.997C511.091 888.199 510.712 888.303 510.361 888.303" fill="#A0DFCF"/>
    <path d="M503.006 882.243V881.108C503.006 875.768 507.012 869.252 511.94 866.583C513.404 865.791 514.828 865.391 516.129 865.391C517.064 865.391 517.937 865.6 518.711 866.019C520.558 867.019 521.576 869.074 521.576 871.804V872.184L513.446 876.587L512.047 877.344L503.006 882.243V882.243ZM516.122 866.704C515.069 866.704 513.883 867.046 512.637 867.72C508.453 869.987 504.984 875.27 504.47 879.938L520.17 871.431C520.088 869.379 519.33 867.869 518.011 867.154C517.455 866.855 516.816 866.704 516.122 866.704Z" fill="#A0DFCF"/>
    <path d="M880.204 725.573C879.278 725.466 879.299 728.055 879.584 729.175C879.87 730.296 883.532 734.128 890.219 735.64C896.908 737.151 906.244 736.242 910.239 736.204C914.231 736.169 921.055 738.188 925.015 738.852C928.977 739.512 936.18 738.456 938.61 736.419C939.562 735.619 939.689 734.407 939.689 733.361C939.691 730.876 939.466 730.368 939.158 730.382L880.204 725.573" fill="#273E47"/>
    <path d="M938.451 722.955C938.552 723.449 938.643 723.945 938.72 724.443C939.106 726.903 939.415 729.624 938.959 732.092C938.068 733.918 935.801 734.852 933.996 735.313C929.222 736.529 925.637 736.163 920.457 735.028C917.353 734.347 913.969 733.617 910.217 733.707C906.092 733.805 900.404 734.322 896.306 733.804C892.808 733.362 889.372 732.879 886.18 731.444C883.481 730.232 881.804 728.67 880.195 726.032C880.152 721.195 882.854 718.963 885.749 717.523C888.806 716.002 892.714 715.706 896.168 715.846C900.058 716.004 902.974 716.588 906.433 716.48C908.777 716.406 911.225 716.156 913.354 715.17C914.369 714.703 915.136 713.289 915.629 712.363C916.23 711.237 916.471 710.219 917.58 710.151C917.58 710.151 933.881 710.418 935.523 710.612C937.422 710.835 937.49 717.018 937.67 718.232C937.815 719.182 937.803 720.192 938.03 721.113C938.182 721.726 938.325 722.34 938.451 722.955" fill="#33535F"/>
    <path d="M903.449 715.745C903.194 715.594 902.913 715.479 902.614 715.427C901.045 715.148 899.78 716.564 899.064 717.681C898.624 718.368 898.395 719.105 898.152 719.869C897.855 720.8 897.693 721.805 897.981 722.757C898.054 722.996 898.238 723.28 898.5 723.231C898.739 723.185 898.811 722.904 898.844 722.678C899.036 721.333 899.492 720.02 900.184 718.829C900.49 718.3 900.713 717.85 901.204 717.444C901.674 717.055 902.216 716.748 902.813 716.568C903.054 716.496 904.113 716.533 903.877 716.092L903.671 715.888L903.449 715.745" fill="#FAFAF9"/>
    <path d="M908.017 715.905C907.289 715.813 906.508 715.975 905.9 716.384C905.187 716.864 904.913 717.567 904.586 718.295C903.943 719.718 903.409 721.833 904.27 723.271C904.546 723.734 904.976 723.512 905.159 723.111C905.362 722.665 905.327 722.053 905.407 721.577C905.603 720.453 906.033 719.36 906.515 718.317C906.705 717.905 906.913 717.494 907.21 717.141C907.411 716.906 907.652 716.695 907.935 716.551L908.372 716.395L908.805 716.357C908.817 716.147 908.566 716.019 908.349 715.967L908.017 715.905" fill="#FAFAF9"/>
    <path d="M912.666 714.832C912.135 714.984 911.646 715.243 911.293 715.635C910.959 716.006 910.767 716.469 910.615 716.932C910.271 717.975 909.93 719.066 909.867 720.163C909.82 720.938 909.944 721.741 910.36 722.411C910.529 722.676 910.842 722.946 911.141 722.828C911.473 722.698 911.459 722.211 911.499 721.932C911.569 721.414 911.539 720.876 911.565 720.354C911.649 718.434 912.395 716.608 913.658 715.087L913.763 714.828L913.368 714.689C913.132 714.718 912.893 714.764 912.666 714.832" fill="#FAFAF9"/>
    <path d="M898.582 715.998C896.982 715.923 893.523 717.87 891.711 722.446C889.893 727.021 890.611 732.881 890.611 732.881C890.611 732.881 885.875 732.442 881.825 728.641C880.7 727.584 880.036 726.703 879.682 725.922C879.371 722.878 880.223 720.367 881.612 718.912C884.047 716.366 887.709 714.762 893.409 714.659C899.803 714.54 900.296 716.153 900.296 716.153L898.582 715.998" fill="#FAFAF9"/>
    <path d="M936.377 700.303C936.377 700.303 935.869 708.169 935.217 711.808C934.849 713.86 932.702 717.027 925.92 716.9C921.156 716.807 918.56 714.233 917.942 711.972C917.32 709.712 917.561 697.599 917.561 697.599L936.377 700.303" fill="#F6879F"/>
    <path d="M1051.42 680.996L1041.31 657.369L1019.25 664.472C1019.25 664.472 1034.64 685.317 1036.47 687.587C1039.48 691.322 1051.42 680.996 1051.42 680.996" fill="#F6879F"/>
    <path d="M1061.45 687.545C1061.61 688.478 1061.53 689.45 1061.46 690.4C1061.19 693.701 1060.93 697.004 1060.66 700.305C1060.56 701.655 1060.42 702.897 1060.09 704.199C1059.73 705.658 1059.94 707.396 1059.9 708.893C1059.85 710.535 1059.82 712.179 1059.79 713.82C1059.78 714.463 1059.63 715.291 1059.8 715.925C1059.98 716.605 1048.71 722.665 1044.16 725C1043.9 725.139 1043.63 725.248 1043.34 725.371C1039.18 726.903 1035.96 723.749 1035.96 723.749C1032.76 715.8 1039.02 710.789 1039.02 710.789C1039.02 710.789 1039.6 710.822 1039.48 706.646C1039.48 703.676 1039.44 700.656 1039.14 697.698C1038.95 695.828 1038.39 693.997 1037.64 692.272C1036.95 690.692 1035.64 689.02 1035.71 687.253C1035.77 685.833 1036.77 684.905 1037.48 683.757C1038.17 682.642 1039.17 681.77 1040.24 680.954C1042.55 679.183 1045.3 677.899 1048.21 677.26C1048.8 677.131 1049.42 677.03 1050 677.199C1050.9 677.462 1051.44 678.298 1052.04 678.983C1053.39 680.522 1055.34 681.461 1057.13 682.536C1058.92 683.614 1060.69 684.986 1061.29 686.897C1061.36 687.11 1061.41 687.325 1061.45 687.545" fill="#33535F"/>
    <path d="M1039.02 710.789C1038.46 711.439 1037.97 712.106 1037.55 712.787H1037.54C1035.53 716.017 1035.03 719.682 1035.95 723.749C1028 723.069 1025.91 718.754 1025.91 718.754C1025.91 718.754 1025.46 715.027 1030.04 712.321C1030.62 711.981 1031.19 711.687 1031.77 711.47L1031.85 711.424C1035.71 709.894 1039.02 710.789 1039.02 710.789" fill="#FAFAF9"/>
    <path d="M1063.65 688.629C1065.75 689.388 1065.21 694.783 1063.88 699.976C1062.56 705.169 1061.84 706.979 1062.51 711.296C1063.19 715.616 1063.57 717.549 1061.7 719.134C1059.82 720.718 1044.89 727.259 1044.89 727.259C1044.89 727.259 1047.84 720.611 1048.23 711.037C1048.62 701.466 1049.3 695.303 1054.03 690.951C1058.77 686.601 1063.65 688.629 1063.65 688.629" fill="#26B6A6"/>
    <path d="M1044.89 727.259C1044.89 727.259 1047.84 720.611 1048.23 711.037C1048.62 701.466 1049.3 695.303 1054.03 690.951C1056.48 688.701 1058.97 688.157 1060.81 688.157C1062.52 688.157 1063.65 688.629 1063.65 688.629C1064.66 688.993 1065.06 690.418 1065.05 692.373C1065.05 694.504 1064.57 697.268 1063.88 699.976C1062.9 703.81 1062.26 705.799 1062.26 708.316C1062.26 709.209 1062.34 710.166 1062.51 711.296C1062.82 713.269 1063.07 714.746 1063.07 715.918C1063.07 717.31 1062.72 718.273 1061.7 719.134C1059.82 720.718 1044.89 727.259 1044.89 727.259" fill="#06AB91"/>
    <path d="M1025.9 718.75C1025.9 718.75 1031.7 723.144 1038.36 723.855C1045.02 724.564 1045.35 722.163 1046.05 714.755C1046.75 707.348 1047.02 697.105 1050.13 692.593C1053.24 688.083 1058.47 686.083 1060.53 686.542C1060.95 686.336 1062.99 687.767 1063.65 688.629C1063.65 688.629 1059.09 688.094 1054.93 691.91C1050.77 695.727 1050.01 703.784 1049.82 711.108C1049.63 718.431 1049.29 726.92 1043.07 727.812C1036.86 728.703 1030.25 726.201 1026.13 722.977C1023.76 721.12 1025.9 718.75 1025.9 718.75Z" fill="#273E47"/>
    <path d="M1039.49 708.068C1039.49 708.068 1038.66 708.579 1038.57 709.422C1038.48 710.267 1038.85 712.205 1040.83 713.267C1041.67 713.717 1042.39 713.539 1041.04 711.997C1039.68 710.456 1039.49 708.068 1039.49 708.068" fill="#FAFAF9"/>
    <path d="M1039.36 702.91C1039.36 702.91 1038.83 703.362 1038.8 704.032C1038.76 704.699 1040.07 707.456 1041.54 708.068C1043 708.678 1042.21 707.166 1041.54 706.461C1040.86 705.757 1039.36 702.91 1039.36 702.91Z" fill="#FAFAF9"/>
    <path d="M1039 697.235C1039 697.235 1038.35 697.553 1038.31 698.152C1038.27 698.749 1041.27 700.863 1042.21 700.792C1043.15 700.72 1043.38 700.441 1042.21 699.702C1041.05 698.962 1039 697.235 1039 697.235" fill="#FAFAF9"/>
    <path d="M1026.34 675.27C1026.34 675.27 978.168 607.816 976.704 602.525C975.214 597.26 966.114 542.18 966.114 542.18L947.266 607.046C948.33 611.688 948.948 619.894 948.976 625.284C949.001 632.448 948.003 644.449 945.131 657.152C940.102 679.442 937.256 700.795 937.256 700.795C935.495 701.931 931.36 703.09 926.944 702.91C920.824 702.66 916.848 700.219 916.848 700.219C916.848 700.219 914.231 639.939 913.485 626.112C912.739 612.259 912.278 606.118 913.092 597.023C914.205 584.629 914.827 571.75 917.365 544.911C919.594 521.35 924.152 471.176 924.152 471.176L1001.55 466.359C1001.55 466.359 1008.07 477.953 1008.84 508.054C1009.46 531.564 1009.42 596.079 1009.42 596.079C1020.9 602.843 1024.42 609.849 1029.9 623.076C1033.35 631.412 1042.26 657.319 1044.89 664.981C1035.2 667.476 1026.34 675.27 1026.34 675.27" fill="#33535F"/>
    <path d="M805.754 505.783L749.724 520.938L738.539 523.971H738.516C736.919 524.401 735.583 523.611 734.954 522.469C734.465 521.6 734.463 520.512 735.155 519.555L735.223 519.469L742.969 509.635L777.019 466.359L788.561 482.198L805.754 505.783Z" fill="#F47089"/>
    <path d="M788.561 482.198L743.537 516.034L734.954 522.469C734.465 521.6 734.463 520.512 735.155 519.555L735.223 519.469L742.969 509.635L777.019 466.359L788.561 482.198" fill="#F6879F"/>
    <path d="M749.724 520.938L738.539 523.971H738.516C736.919 524.401 735.583 523.611 734.954 522.469C734.465 521.6 734.463 520.512 735.155 519.555L735.223 519.469L742.969 509.635C742.536 512.156 742.74 514.29 743.537 516.034C744.573 518.339 746.685 519.974 749.724 520.938" fill="#273E47"/>
    <path d="M1028.07 302.418L1022.56 306.02L1015.9 310.337L777.022 466.352C775.069 473.794 777.083 481.601 781.051 488.251C787.062 498.4 797.605 505.93 805.733 505.752L1042.85 350.887L1055.55 342.586C1047.01 347.531 1019.57 307.49 1028.07 302.418Z" fill="#26B6A6"/>
    <path d="M805.45 505.754C797.36 505.754 786.992 498.281 781.052 488.251L929.007 390.412C925.712 395.712 923.551 402.378 920.316 409.129C918.976 411.927 918.298 414.756 918.298 417.53C918.3 421.654 919.807 425.653 922.887 429.237L805.733 505.752C805.639 505.754 805.545 505.754 805.45 505.754ZM943.505 380.825L950.386 376.275L950.725 379.759L943.505 380.825Z" fill="#14B099"/>
    <path d="M996.404 381.22C994.39 378.646 992.077 377.465 989.799 377.052C988.714 376.855 987.079 376.787 985.327 376.787C981.574 376.787 977.282 377.101 976.686 377.147L975.865 364.413L965.831 366.061L999.512 343.787C1005.81 354.161 1015.31 364.661 1020.7 364.661C1021.33 364.661 1021.91 364.516 1022.42 364.206L1031.29 358.364C1031.42 358.309 1031.54 358.243 1031.66 358.169L1042.85 350.887H1042.85L996.404 381.22Z" fill="#14B099"/>
    <path d="M1027.87 302.552C1027.87 302.55 1027.87 302.547 1027.87 302.545L1028.07 302.419L1027.87 302.552Z" fill="#14B099"/>
    <path d="M1022.56 306.02L1015.9 310.337L777.022 466.352C775.069 473.794 777.083 481.601 781.051 488.251L1026.82 325.731L1022.56 306.02" fill="#26B6A6"/>
    <path d="M1007.05 316.052L994.767 324.106C991.125 326.33 994.135 334.953 999.456 343.694C1006.49 355.322 1017.58 367.145 1022.42 364.206L1031.46 358.248L1034.71 356.123C1029.87 359.062 1018.75 347.235 1011.71 335.607C1006.63 327.225 1003.67 318.907 1006.69 316.335L1006.73 316.308L1007.05 316.052Z" fill="#DADBD8"/>
    <path d="M1011.71 335.607C1006.63 327.225 1003.67 318.907 1006.69 316.335L1006.73 316.308L1007.05 316.052L994.767 324.106C991.123 326.33 994.135 334.953 999.456 343.694L1011.71 335.607Z" fill="#FAFAF9"/>
    <path d="M1004 318.088C995.531 323.235 1023.19 363.318 1031.66 358.169L1043.99 350.145C1035.51 355.291 1007.86 315.215 1016.33 310.067L1004 318.088Z" fill="#26B6A6"/>
    <path d="M1028.07 302.418L1015.9 310.336C1007.54 315.336 1033.83 354.273 1042.85 350.887L1043.36 350.654L1055.55 342.586C1047.01 347.531 1019.57 307.49 1028.07 302.418" fill="#DADBD8"/>
    <path d="M1079.68 268.784L1028.07 302.418C1024.43 304.584 1027.36 313.135 1032.59 321.835C1039.59 333.489 1050.67 345.428 1055.55 342.586L1055.62 342.566L1105.26 310.203C1117.5 303.55 1107.27 279.742 1094.27 270.877C1089.44 267.53 1084.26 266.292 1079.68 268.784" fill="#F47089"/>
    <path d="M1079.68 268.783L1028.07 302.418C1024.43 304.584 1027.36 313.135 1032.59 321.835L1084.64 289.506C1084.64 289.506 1078.13 277.446 1080.76 272.517C1083.4 267.559 1088.61 267.932 1094.27 270.877C1089.44 267.53 1084.26 266.292 1079.68 268.783" fill="#F6879F"/>
    <path d="M1003.9 318.154C1003.9 318.154 1003.9 318.154 1003.9 318.152C1003.9 318.154 1003.9 318.154 1003.9 318.154ZM1003.92 318.141C1003.92 318.141 1003.92 318.139 1003.93 318.139C1003.92 318.139 1003.92 318.141 1003.92 318.141ZM1003.94 318.128C1003.94 318.126 1003.95 318.126 1003.95 318.124C1003.95 318.126 1003.94 318.128 1003.94 318.128ZM1003.96 318.115C1003.97 318.113 1003.97 318.111 1003.97 318.108C1003.97 318.111 1003.97 318.113 1003.96 318.115ZM1003.98 318.102C1003.99 318.097 1004 318.093 1004 318.089C1004 318.093 1003.99 318.097 1003.98 318.102Z" fill="#FCFDFC"/>
    <path d="M1008.66 337.622C1003.45 329.005 1000.45 320.496 1003.88 318.167C1003.89 318.163 1003.89 318.159 1003.9 318.154C1003.9 318.154 1003.9 318.154 1003.9 318.152C1003.91 318.15 1003.91 318.145 1003.92 318.141C1003.92 318.141 1003.92 318.139 1003.93 318.139C1003.93 318.134 1003.94 318.132 1003.94 318.128C1003.94 318.128 1003.95 318.126 1003.95 318.123C1003.95 318.121 1003.96 318.117 1003.96 318.115C1003.97 318.112 1003.97 318.11 1003.97 318.108C1003.98 318.106 1003.98 318.104 1003.98 318.102C1003.99 318.097 1004 318.093 1004 318.088L1015.58 310.558C1012.44 313.047 1015.35 321.396 1020.4 329.874L1008.66 337.622" fill="#5CC8BC"/>
    <path d="M1020.4 329.874C1015.35 321.396 1012.44 313.047 1015.58 310.558L1016.18 310.168C1012.81 312.516 1015.77 320.957 1020.94 329.521L1020.4 329.874V329.874ZM1016.18 310.168C1016.23 310.132 1016.28 310.1 1016.33 310.067L1016.18 310.168Z" fill="#E8E9E6"/>
    <path d="M1028.07 302.418L1015.9 310.337C1012.26 312.514 1015.19 321.126 1020.4 329.874L1032.59 321.837C1027.38 313.137 1024.44 304.584 1028.07 302.418" fill="#FAFAF9"/>
    <path d="M949.645 368.719L952.266 395.506L977.778 394.117L975.865 364.413L949.645 368.719Z" fill="#F6879F"/>
    <path d="M930.853 339.263C930.853 339.263 925.172 347.116 925.906 347.952C926.638 348.786 930.226 349.688 930.226 349.688L930.853 339.263" fill="#F47089"/>
    <path d="M992.685 319.502C991.883 318.797 991.01 318.15 990.255 317.412C989.916 317.083 989.603 316.734 989.331 316.355C987.512 313.817 986.791 310.901 984.565 308.535C982.376 306.208 979.541 304.424 976.484 303.263C970.981 301.171 964.898 300.904 958.965 301.051C953.029 301.198 947.074 301.733 941.171 301.141C938.5 300.875 935.682 300.397 933.217 301.404C930.247 302.62 928.589 305.846 928.743 308.882C928.897 311.919 930.584 314.735 932.752 316.993C930.331 317.445 928.848 319.987 929.007 322.298C929.164 324.609 930.572 326.679 932.146 328.463C934.892 331.575 936.999 333.73 937.81 337.786C938.921 343.354 945.315 346.319 949.355 350.255C950.837 351.699 952.437 353.145 953.749 354.727L953.995 355.052C952.189 355.384 950.402 354.769 950.402 354.769C950.402 354.769 949.647 366.632 958.59 370.495C958.59 370.495 967.029 372.349 976.199 369.612C982.018 365.613 987.397 359.563 991.883 352.645C997.973 343.251 1002.51 328.151 992.685 319.502Z" fill="#17282F"/>
    <path d="M958.583 352.445C957.419 354.04 955.777 354.73 954.009 355.05C952.194 355.392 950.407 354.771 950.407 354.771C950.407 354.771 949.841 363.763 955.585 368.6C954.404 369.046 953.333 369.39 952.416 369.654C947.28 371.089 937.413 370.435 935.518 368.75C932.693 366.217 928.093 359.562 930.689 340.415C931.748 332.593 934.022 327.212 936.723 323.411C937.125 326.139 939.101 328.606 941.761 329.701C940.268 331.579 939.733 334.099 940.357 336.353C941.085 339.061 943.26 341.201 945.346 343.174L945.783 343.464C946.09 343.567 947.397 343.471 947.596 343.225C949.42 340.734 951.92 337.832 956.806 339.366C962.452 341.131 962.141 347.603 958.583 352.445" fill="#F6879F"/>
    <path d="M936.04 369.088C938.344 370.29 944.899 370.811 949.787 370.159L949.652 366.719C949.652 366.719 946.915 367.896 943.138 368.684C939.382 369.467 936.082 369.092 936.04 369.088" fill="#F47089"/>
    <path d="M944.93 349.93C942.423 349.085 941.136 346.528 942.053 344.217C942.97 341.906 945.741 340.718 948.248 341.563L944.93 349.93" fill="#17282F"/>
    <path d="M971.257 572.758C969.597 563.107 966.121 542.892 966.049 542.409L966.114 542.18C966.114 542.18 968.647 557.504 971.257 572.758" fill="#BABCBA"/>
    <path d="M972.123 577.781C972.123 577.781 971.779 575.793 971.257 572.758C968.647 557.504 966.114 542.18 966.114 542.18L966.049 542.409V542.407L972.593 516.076C972.593 516.076 972.773 516.087 973.117 516.087C975.469 516.087 985.489 515.517 997.452 506.536C997.452 506.536 995.871 515.734 976.522 520.011L970.104 545.808L972.123 577.781" fill="#29444E"/>
    <path d="M999.524 387.185C997.073 380.268 993.391 377.702 989.799 377.052C986.209 376.403 976.615 377.151 976.615 377.151C975.813 380.996 962.618 383.74 950.746 379.756L938.823 381.516C928.285 386.075 925.899 397.474 920.316 409.129C916.397 417.315 918.125 425.773 926.03 432.296C926.03 432.296 924.989 446.294 924.447 454.134C923.633 465.843 922.77 477.547 921.851 489.254C921.851 489.254 933.526 499.293 969.737 498.033C996.233 497.111 1005.7 488.8 1007.26 484.994C1005.83 469.372 997.452 454.643 995.826 449.812C993.688 443.452 993.345 438.136 994.252 434.805C1000.66 411.282 1002.92 396.785 999.524 387.185" fill="#26B6A6"/>
    <path d="M963.579 498.143C932.188 498.143 921.851 489.254 921.851 489.254C922.77 477.547 923.633 465.843 924.447 454.134C924.989 446.294 926.03 432.296 926.03 432.296C924.842 431.317 923.796 430.295 922.887 429.237C919.807 425.653 918.3 421.654 918.298 417.53C918.298 414.756 918.976 411.927 920.316 409.129C925.899 397.475 928.285 386.075 938.823 381.517L950.746 379.756C954.858 381.135 959.124 381.707 962.983 381.707C970.268 381.707 976.089 379.664 976.615 377.151C976.615 377.151 981.284 376.787 985.327 376.787C987.079 376.787 988.714 376.855 989.799 377.052C993.391 377.702 997.073 380.268 999.524 387.186C1000.59 390.186 1001.1 393.664 1001.1 397.747C1001.1 406.728 998.656 418.634 994.252 434.805C993.946 435.924 993.782 437.267 993.782 438.799C993.777 441.826 994.407 445.59 995.826 449.813C997.452 454.643 1005.83 469.372 1007.26 484.994C1005.7 488.8 996.233 497.111 969.737 498.033C967.599 498.108 965.548 498.143 963.579 498.143" fill="#5CC8BC"/>
    <path d="M943.253 380.992C922.756 382.023 921.427 386.248 912.025 404.182C907.048 413.672 899.228 432.74 894.529 441.892C884.194 446.272 860.329 449.874 850.93 447.967C849.089 447.594 847.421 446.637 846.329 445.197C843.331 441.246 840.377 440.696 836.749 437.86C833.938 435.661 833.134 433.688 832.315 434.054C831.265 434.522 829.64 436.324 830.793 439.164C831.373 440.592 832.198 441.604 833.966 443.854C833.966 443.854 829.188 442.429 823.463 438.624C815.703 433.464 811.168 433.506 811.886 444.874C812.333 451.998 817.424 457.382 834.535 461.673C839.462 462.911 847.241 464.84 853.671 465.479C869.216 467.026 891.772 464.871 902.659 462.544C904.132 462.23 907.535 461.313 911.754 457.235C918.326 450.881 933.439 422.936 933.439 422.936C944.96 405.981 945.949 390.535 943.253 380.992Z" fill="#F6879F"/>
    <path d="M954.28 247.183C954.028 247.049 953.81 246.849 953.644 246.584L945.704 233.674V226.563L969.089 217.986V225.095L966.252 232.774L980.152 225.242L980.996 229.649L972.719 255.012C972.338 256.041 971.091 256.372 970.207 255.892C969.962 255.756 955.162 247.659 954.28 247.183" fill="#26B6A6"/>
    <path d="M971.075 256.107C970.776 256.107 970.476 256.036 970.207 255.892C969.962 255.756 955.162 247.659 954.28 247.183C954.028 247.049 953.81 246.849 953.644 246.584L952.753 245.133L960.691 240.851L969.578 255.292C969.917 255.843 970.497 256.107 971.075 256.107C971.767 256.107 972.452 255.729 972.719 255.012C972.452 255.729 971.767 256.107 971.075 256.107Z" fill="#06AB91"/>
    <path d="M980.152 225.242L980.996 229.649L972.719 255.011C972.233 256.33 970.322 256.502 969.578 255.292L960.599 240.7L961.636 235.276L980.152 225.242" fill="#26B6A6"/>
    <path d="M971.075 256.107C970.497 256.107 969.917 255.843 969.578 255.292L960.691 240.851L980.895 229.952L972.719 255.012C972.452 255.729 971.767 256.107 971.075 256.107" fill="#14B099"/>
    <path d="M1009.13 151.802C1009.13 147.272 1005.74 141.763 1001.56 139.498L1001.57 139.507C997.384 137.242 990.606 137.242 986.427 139.507L915.503 177.662C911.324 179.927 907.933 185.436 907.933 189.968V244.769C907.933 249.299 911.324 254.81 915.503 257.075L915.498 257.061C919.678 259.329 926.456 259.329 930.637 257.061L1002.26 218.425C1009.07 214.786 1009.13 211.134 1009.13 206.602L1009.13 151.802" fill="#26B6A6"/>
    <path d="M927.139 258.328C927.91 258.154 928.649 257.933 929.344 257.658C928.61 257.92 927.91 258.045 927.265 258.045C924.779 258.045 923.067 256.179 923.067 252.959V198.161C923.067 195.894 923.913 193.385 925.284 191.158L910.152 182.967C908.922 184.962 908.115 187.185 907.961 189.257C908.286 184.874 911.539 179.811 915.503 177.662L986.427 139.507C988.515 138.374 991.256 137.808 993.995 137.808C996.736 137.808 999.475 138.374 1001.57 139.507L1001.56 139.498C1005.74 141.763 1009.13 147.272 1009.13 151.802L1009.13 206.602C1009.13 211.134 1009.07 214.786 1002.26 218.425L980.895 229.952L960.691 240.851L952.753 245.133L930.637 257.061C929.604 257.623 928.411 258.045 927.139 258.328ZM916.364 257.485C916.064 257.353 915.777 257.213 915.499 257.061C915.777 257.213 916.064 257.353 916.364 257.485Z" fill="#14B099"/>
    <path d="M923.067 258.765C920.693 258.765 918.317 258.337 916.364 257.485C918.317 258.337 920.691 258.762 923.067 258.762C924.451 258.762 925.838 258.618 927.139 258.328C925.838 258.618 924.451 258.765 923.067 258.765ZM907.933 189.968C907.933 189.733 907.942 189.496 907.961 189.257C907.942 189.496 907.933 189.733 907.933 189.968Z" fill="#C3C5C2"/>
    <path d="M923.067 258.762C920.691 258.762 918.317 258.337 916.364 257.485C916.064 257.353 915.777 257.213 915.498 257.061L915.503 257.075C911.324 254.81 907.933 249.299 907.933 244.769V189.968C907.933 189.733 907.942 189.496 907.961 189.257C908.115 187.185 908.922 184.962 910.152 182.967L925.284 191.158C923.913 193.385 923.067 195.894 923.067 198.161V252.96C923.067 256.179 924.779 258.045 927.265 258.045C927.91 258.045 928.61 257.92 929.344 257.658C928.649 257.933 927.91 258.154 927.139 258.328C925.838 258.618 924.451 258.762 923.067 258.762" fill="#069C86"/>
    <path d="M1008.88 149.782C1008 146.767 1005.07 145.805 1001.57 147.695L930.633 185.86C928.551 186.988 926.643 188.91 925.3 191.164L910.173 182.982C911.551 180.728 913.424 178.806 915.508 177.68L986.41 139.511C990.613 137.257 997.393 137.257 1001.56 139.511L1001.57 139.509C1005.14 141.431 1008.14 145.74 1008.88 149.782" fill="#26B6A6"/>
    <path d="M981.251 195.576C981.251 198.929 983.76 200.29 986.855 198.613C989.953 196.936 992.461 192.859 992.461 189.503C992.461 186.149 989.953 184.789 986.855 186.468C983.76 188.144 981.251 192.222 981.251 195.576Z" fill="#FAFAF9"/>
    <path d="M960.494 206.822C960.494 210.177 963.004 211.536 966.098 209.859C969.194 208.182 971.704 204.104 971.704 200.749C971.704 197.395 969.194 196.037 966.098 197.713C963.004 199.39 960.494 203.468 960.494 206.822Z" fill="#FAFAF9"/>
    <path d="M939.738 218.067C939.738 221.423 942.245 222.782 945.341 221.105C948.438 219.428 950.945 215.35 950.945 211.997C950.945 208.641 948.438 207.282 945.341 208.959C942.245 210.636 939.738 214.716 939.738 218.067Z" fill="#FAFAF9"/>
    </svg>
