<svg width="547" height="326" viewBox="0 0 547 326" fill="none" xmlns="http://www.w3.org/2000/svg">
    <path d="M15.9147 324.706C15.9147 324.706 -23.7295 210.672 22.1233 139.606C59.8179 81.1815 111.05 69.6979 150.853 104.886C167.806 119.873 215.148 116.317 272.185 45.0197C346.262 -47.5737 531.95 3.76004 496.093 188.883C478.742 278.47 553.05 235.345 517.3 324.896L15.9147 324.706" fill="#EBF3FA"/>
    <path d="M545.647 325.492H4.44479C4.1066 325.492 3.83008 325.124 3.83008 324.673V324.394C3.83008 323.946 4.1066 323.576 4.44479 323.576H545.647C545.984 323.576 546.262 323.946 546.262 324.394V324.673C546.262 325.124 545.984 325.492 545.647 325.492Z" fill="#2E3552"/>
    <path d="M77.0926 191.642L75.278 218.077L77.9754 218.634L85.6085 195.115L77.0926 191.642" fill="#FFB27D"/>
    <path d="M78.326 215.914C78.326 215.914 77.6993 218.68 78.0904 220.741C78.3513 222.117 76.7464 224.006 74.9725 226.614C74.7938 226.878 74.4617 226.612 74.5002 226.262C74.5201 226.077 74.5637 225.862 74.6444 225.611C74.9659 224.617 75.8872 222.893 75.8872 222.893C75.8133 222.508 73.9228 223.867 72.8561 224.807C72.2366 225.352 70.4425 227.933 69.9647 227.55C69.4868 227.165 70.2594 224.68 71.0892 222.853C71.9192 221.022 74.9044 219.478 75.278 218.077C75.6517 216.672 78.326 215.914 78.326 215.914Z" fill="#FFB27D"/>
    <path d="M87.041 95.7679L106.801 84.5455L125.019 96.1177L106.801 108.435L87.041 95.7679" fill="#233862"/>
    <path d="M90.2377 108.666L90.5191 108.169C86.5401 104.181 87.3128 97.5145 87.5522 95.9909C87.583 95.7957 87.5234 95.5955 87.4011 95.4789C87.2785 95.3623 87.1072 95.456 87.0781 95.6512C86.8162 97.4283 86.0877 104.506 90.2377 108.666" fill="#EFCBAB"/>
    <path d="M90.5192 108.169L91.1143 108.463L90.6168 109.312L90.2377 108.666L90.5192 108.169Z" fill="#D8A987"/>
    <path d="M91.1142 108.463C91.1142 108.463 91.8513 109.178 92.1101 108.957C92.1101 108.957 91.8696 109.893 91.5091 109.992C91.5091 109.992 90.8402 109.693 90.6168 109.312L91.1142 108.463Z" fill="#EFCBAB"/>
    <path d="M99.811 296.38L98.4706 303.891L96.6915 313.854H91.1325L90.8016 304.31L90.5456 296.951L99.811 296.38Z" fill="#FFB27D"/>
    <path d="M88.9344 324.797C88.9344 324.797 88.9344 321.172 89.3223 319.966C89.7101 318.762 91.1321 313.854 91.1321 313.854H96.6913C96.6913 313.854 97.7255 318.331 97.79 319.793C97.8547 321.258 97.79 324.797 97.79 324.797H88.9344" fill="#233862"/>
    <path d="M124.231 324.797C124.231 324.797 124.231 321.172 123.843 319.966C123.455 318.762 122.033 313.854 122.033 313.854H116.474C116.474 313.854 115.439 318.331 115.375 319.793C115.31 321.258 115.375 324.797 115.375 324.797H124.231" fill="#233862"/>
    <path d="M101.959 121.331C101.959 121.331 101.764 129.402 100.988 133.017L94.849 150.643L108.434 175.699L117.958 143.329L112.447 133.187C112.447 133.187 110.783 122.363 111.655 118.36C112.528 114.354 101.959 121.331 101.959 121.331Z" fill="#FFB27D"/>
    <path d="M101.926 122.444C101.926 122.441 103.753 128.305 107.195 128.175C110.637 128.046 111.421 122.862 111.421 122.862L101.926 122.444Z" fill="#ED985F"/>
    <path d="M99.8713 117.701C99.8713 117.701 98.7597 110.309 97.9842 108.07C97.2083 105.832 96.562 95.8439 105.159 95.3267C105.159 95.3267 108.456 95.8439 110.266 94.3786C110.266 94.3786 110.266 95.8439 109.813 96.361C109.813 96.361 112.052 94.4851 114.379 97.9277C116.706 101.373 113.563 114.354 113.756 117.196L99.8713 117.701Z" fill="#132644"/>
    <path d="M106.801 125.911C104.307 125.851 99.7162 121.427 99.7162 115.949V107.401C99.7162 105.401 100.763 103.766 102.043 103.766H111.558C112.838 103.766 113.886 105.401 113.886 107.401V115.467C113.886 121.212 109.661 125.977 106.801 125.911" fill="#FFB27D"/>
    <path d="M99.7163 111.966C99.7163 111.966 99.7294 106.831 102.784 106.04C105.838 105.251 112.674 108.544 113.643 104.798C114.613 101.053 100.43 101.117 99.7163 103.507C99.0022 105.895 99.7163 111.966 99.7163 111.966" fill="#132644"/>
    <path d="M100.989 133.017C100.988 133.017 106.673 134.718 106.673 134.718L112.419 132.873L113.886 144.62L107.437 173.861L100.382 138.822L100.989 133.017Z" fill="white"/>
    <path d="M100.709 135.42L105.226 139.91L106.704 136.685L108.074 139.91L112.885 134.33L111.936 132.873L106.673 134.718L100.989 134.373L100.709 135.42" fill="#D2E3FC"/>
    <path d="M124.363 199.188L110.836 200.314C110.758 200.144 110.671 200.144 110.574 200.337L106.594 200.666L89.6313 199.257C89.6313 199.257 85.3651 225.195 87.0412 259.76C87.5758 270.787 88.7707 303.443 89.909 314.992L101.536 315.154C103.043 302.094 104.786 269.502 105.723 263.904C106.149 261.364 106.544 258.842 106.913 256.35C107.249 259.189 107.465 261.493 107.46 262.931C107.453 265.227 107.956 268.883 108.652 273.289C109.63 279.494 112.507 308.104 113.365 315.575H125.564C125.71 305.283 126.373 270.328 126.512 259.76C126.881 231.573 124.363 199.188 124.363 199.188" fill="#EE9849"/>
    <path d="M133.701 290.316C127.482 294.659 85.1299 299.805 77.5379 287.875C76.2459 285.845 94.2927 134.718 94.2927 134.718C94.2927 134.718 95.4551 134.269 97.417 133.778C98.4185 133.527 99.6243 133.265 100.991 133.045C101.007 133.61 103.931 158.154 107.909 167.726C107.909 167.726 112.42 154.516 112.448 133.184C112.448 133.078 112.43 132.974 112.42 132.873C113.272 132.997 114.138 133.151 115.006 133.352C115.373 133.435 115.741 133.527 116.108 133.628C117.502 134.001 118.906 134.485 120.302 135.098C120.302 135.098 134.997 289.411 133.701 290.316" fill="#1C468A"/>
    <path d="M99.2041 133.329C99.2041 133.329 92.7236 199.637 90.2375 204.608C89.1967 206.687 87.675 207.026 85.882 206.56C85.5402 206.474 85.1868 206.357 84.8275 206.215L79.8571 203.678L79.8356 203.668C79.0304 203.239 78.2174 202.834 77.4064 202.499C72.3007 200.392 72.6973 194.668 74.072 186.863C75.4466 179.058 84.4484 141.474 87.4864 138.822C92.8553 134.138 99.2041 133.329 99.2041 133.329" fill="#1C468A"/>
    <path d="M112.419 132.873C108.151 132.264 104.146 132.541 100.99 133.045C100.989 133.027 100.989 133.017 100.989 133.017C100.989 133.017 111.567 124.302 112.419 132.873" fill="#FFB27D"/>
    <path d="M108.695 173.859C102.15 167.44 97.417 133.778 97.417 133.778C98.4184 133.527 99.6243 133.265 100.991 133.045C101.007 133.61 103.768 156.803 107.746 166.375C107.746 166.375 112.42 154.516 112.448 133.184C112.448 133.078 112.43 132.974 112.42 132.873C113.272 132.997 114.138 133.151 115.006 133.352C115.373 133.435 115.741 133.527 116.108 133.628C116.118 151.594 108.695 173.859 108.695 173.859Z" fill="#BC3F3F"/>
    <path d="M104.592 119.574C104.592 119.574 107.576 119.176 108.961 119.625C108.961 119.625 108.212 121.229 107.002 121.214C105.792 121.201 104.881 120.601 104.592 119.574Z" fill="#FFF0E6"/>
    <path d="M97.3854 99.6818L97.563 103.553C97.563 103.553 104.259 97.593 115.241 103.066L115.088 97.4662C114.926 96.3762 114.421 95.4307 113.697 94.8755C111.637 93.2962 106.814 90.3657 99.1923 95.2684C98.124 95.9554 97.4553 98.1051 97.3854 99.6818Z" fill="#1C468A"/>
    <path d="M101.487 129.458L99.2041 133.329L105.242 138.822L106.673 134.718L101.487 129.458" fill="white"/>
    <path d="M111.955 129.458L106.673 134.718L108.188 138.822L113.386 133.027L111.955 129.458" fill="white"/>
    <path d="M106.503 143.791C106.665 143.575 106.929 143.575 107.092 143.791C107.254 144.009 107.254 144.359 107.092 144.577C106.929 144.792 106.665 144.792 106.503 144.577C106.34 144.359 106.34 144.009 106.503 143.791Z" fill="#D2E3FC"/>
    <path d="M106.503 149.763C106.665 149.548 106.929 149.548 107.092 149.763C107.254 149.981 107.254 150.334 107.092 150.549C106.929 150.765 106.665 150.765 106.503 150.549C106.34 150.334 106.34 149.981 106.503 149.763Z" fill="#D2E3FC"/>
    <path d="M106.503 155.911C106.665 155.695 106.929 155.695 107.092 155.911C107.254 156.129 107.254 156.479 107.092 156.697C106.929 156.912 106.665 156.912 106.503 156.697C106.34 156.479 106.34 156.129 106.503 155.911Z" fill="#D2E3FC"/>
    <path d="M120.302 135.098C120.302 135.098 124.372 137.352 126.549 143.994C128.726 150.635 137.759 168.776 137.497 177.273C137.235 185.768 136.009 193.5 129.937 193.763C125.769 193.941 121.525 188.508 121.525 180.384C121.525 172.259 120.302 135.098 120.302 135.098Z" fill="#1C468A"/>
    <path d="M133.232 189C133.069 191.292 132.425 193.14 130.885 193.652C126.017 195.274 123.863 189.015 124.888 182.883C124.921 182.68 124.96 182.483 125.005 182.295C126.044 177.813 129.783 177.126 131.164 177.027C131.488 177.002 131.682 177.012 131.682 177.012C131.682 177.012 131.71 177.113 131.759 177.301C132.109 178.675 133.544 184.637 133.232 189Z" fill="#233862"/>
    <path d="M133.232 189C133.232 189 119.038 180.49 113.419 170.72C113.004 169.998 114.067 169.116 114.067 169.116L131.164 177.027L131.759 177.301C132.109 178.675 133.544 184.637 133.232 189Z" fill="#FFB27D"/>
    <path d="M116.535 202.499H97.7809V169.579H116.535V202.499Z" fill="#FCECDB"/>
    <path d="M105.487 192.785L103.378 197.477L104.712 197.224L105.283 198.636L107.074 194.321L105.487 192.785" fill="#932424"/>
    <path d="M108.281 192.493L110.39 197.186L109.056 196.932L108.485 198.347L106.693 194.032L108.281 192.493" fill="#932424"/>
    <path d="M104.744 191.748C104.981 189.695 105.807 188.891 107.085 188.633C108.755 188.293 109.425 190.027 109.425 191.748C109.425 193.472 108.377 194.866 107.085 194.866C105.792 194.866 104.548 193.452 104.744 191.748Z" fill="#BC3F3F"/>
    <path d="M107.388 189.515C107.295 189.515 107.199 189.525 107.098 189.545C106.085 189.75 105.586 190.415 105.431 191.766C105.375 192.247 105.487 192.732 105.745 193.132C106.067 193.632 106.579 193.943 107.082 193.943C107.992 193.943 108.732 192.957 108.732 191.743C108.732 190.949 108.54 190.273 108.205 189.89C107.987 189.639 107.713 189.515 107.388 189.515V189.515ZM107.082 194.232C106.518 194.232 105.942 193.882 105.58 193.32C105.28 192.856 105.15 192.288 105.216 191.723C105.386 190.242 105.957 189.482 107.066 189.259C107.586 189.152 108.016 189.292 108.347 189.669C108.73 190.108 108.95 190.863 108.95 191.743C108.95 193.117 108.112 194.232 107.082 194.232Z" fill="#932424"/>
    <path d="M109.768 173.542H104.548C104.461 173.542 104.391 173.448 104.391 173.334C104.391 173.217 104.461 173.123 104.548 173.123H109.768C109.854 173.123 109.925 173.217 109.925 173.334C109.925 173.448 109.854 173.542 109.768 173.542Z" fill="#1C468A"/>
    <path d="M110.78 174.419H103.535C103.449 174.419 103.378 174.325 103.378 174.208C103.378 174.094 103.449 174 103.535 174H110.78C110.867 174 110.937 174.094 110.937 174.208C110.937 174.325 110.867 174.419 110.78 174.419Z" fill="#1C468A"/>
    <path d="M112.502 181.687H101.814C101.715 181.687 101.634 181.578 101.634 181.446C101.634 181.314 101.715 181.207 101.814 181.207H112.502C112.6 181.207 112.681 181.314 112.681 181.446C112.681 181.578 112.6 181.687 112.502 181.687Z" fill="#1C468A"/>
    <path d="M112.502 182.883H101.814C101.715 182.883 101.634 182.774 101.634 182.642C101.634 182.51 101.715 182.404 101.814 182.404H112.502C112.6 182.404 112.681 182.51 112.681 182.642C112.681 182.774 112.6 182.883 112.502 182.883Z" fill="#1C468A"/>
    <path d="M112.502 183.928H101.814C101.715 183.928 101.634 183.821 101.634 183.689C101.634 183.557 101.715 183.451 101.814 183.451H112.502C112.6 183.451 112.681 183.557 112.681 183.689C112.681 183.821 112.6 183.928 112.502 183.928Z" fill="#1C468A"/>
    <path d="M112.502 185.073H101.814C101.715 185.073 101.634 184.967 101.634 184.835C101.634 184.703 101.715 184.597 101.814 184.597H112.502C112.6 184.597 112.681 184.703 112.681 184.835C112.681 184.967 112.6 185.073 112.502 185.073Z" fill="#1C468A"/>
    <path d="M111.973 193.652C111.918 193.515 111.997 193.345 112.088 193.233C112.052 193.373 112.014 193.515 111.973 193.652ZM111.807 191.634C111.806 191.563 111.833 191.436 111.894 191.436C111.867 191.515 111.838 191.593 111.809 191.672C111.808 191.659 111.807 191.647 111.807 191.634ZM113.401 191.867C113.064 192.24 112.703 192.549 112.324 192.833C112.356 192.699 112.383 192.559 112.378 192.435C112.371 192.265 112.269 192.189 112.166 192.118C112.141 192.1 112.117 192.083 112.094 192.065C112.133 192.012 112.154 191.941 112.128 191.862C112.084 191.733 111.963 191.753 111.922 191.872C111.914 191.895 111.91 191.918 111.908 191.938C111.892 191.925 111.879 191.913 111.868 191.895C111.931 191.74 111.989 191.583 112.043 191.421C112.056 191.385 112.04 191.342 112.018 191.32C111.928 191.228 111.806 191.259 111.733 191.373C111.647 191.507 111.669 191.712 111.71 191.865C111.713 191.875 111.716 191.885 111.72 191.897C111.64 192.088 111.554 192.275 111.461 192.455C111.452 192.443 111.443 192.432 111.435 192.42C111.41 192.389 111.385 192.349 111.362 192.303C111.405 192.156 111.432 192.001 111.442 191.842C111.447 191.768 111.393 191.733 111.348 191.756C111.223 191.816 111.155 191.986 111.172 192.159C111.177 192.219 111.192 192.275 111.212 192.328C111.184 192.41 111.151 192.488 111.112 192.562C111.087 192.612 111.105 192.661 111.135 192.683C111.094 192.866 111.039 193.051 110.945 193.183C110.868 193.289 110.725 193.37 110.632 193.244C110.572 193.162 110.565 193.028 110.557 192.922C110.537 192.661 110.522 192.389 110.529 192.128C110.533 192.004 110.542 191.877 110.574 191.758C110.594 191.685 110.622 191.576 110.649 191.7C110.662 191.763 110.644 191.859 110.639 191.92C110.631 192.034 110.762 192.047 110.77 191.936C110.78 191.804 110.824 191.527 110.712 191.444C110.62 191.375 110.534 191.474 110.491 191.576C110.337 191.946 110.398 192.453 110.422 192.856C110.44 193.175 110.53 193.568 110.837 193.467C111.126 193.37 111.232 192.886 111.298 192.552C111.303 192.531 111.301 192.511 111.296 192.496C111.298 192.493 111.299 192.491 111.3 192.488C111.312 192.503 111.324 192.519 111.336 192.536C111.353 192.557 111.369 192.577 111.385 192.6C111.355 192.655 111.324 192.711 111.292 192.765C111.274 192.797 111.28 192.843 111.297 192.871C111.395 193.028 111.569 192.912 111.566 192.721C111.565 192.676 111.557 192.638 111.544 192.6C111.635 192.425 111.721 192.245 111.799 192.062C111.841 192.116 111.893 192.148 111.957 192.146C111.961 192.146 111.966 192.143 111.97 192.143C112.004 192.192 112.046 192.23 112.085 192.26C112.122 192.288 112.165 192.306 112.198 192.341C112.261 192.41 112.242 192.486 112.228 192.582C112.21 192.709 112.18 192.835 112.152 192.96C112.02 193.061 111.89 193.188 111.846 193.391C111.805 193.576 111.841 193.771 111.96 193.885C111.996 193.92 112.043 193.893 112.058 193.842C112.133 193.599 112.2 193.35 112.258 193.097C112.26 193.089 112.262 193.081 112.264 193.074C112.38 192.985 112.502 192.906 112.618 192.818C112.924 192.574 113.214 192.301 113.488 191.996C113.553 191.925 113.466 191.794 113.401 191.867" fill="#1C468A"/>
    <path d="M98.844 201.297H115.601V170.981H98.844V201.297ZM115.798 201.558H98.6476V170.72H115.798V201.558Z" fill="#1C468A"/>
    <path d="M109.925 167.075C109.925 167.075 106.47 171.029 107.714 171.623C108.957 172.218 112.296 169.579 112.95 169.579C113.605 169.579 115.11 169.579 115.11 169.579C115.11 169.579 112.976 166.289 111.85 166.378C110.725 166.464 109.925 167.075 109.925 167.075" fill="#FFB27D"/>
    <path d="M90.2375 160.053L85.882 206.56C85.5402 206.474 85.1868 206.357 84.8275 206.215L79.8571 203.678L79.8356 203.668C79.8356 203.668 81.3674 201.558 83.445 194.232C85.5227 186.906 90.2375 160.053 90.2375 160.053Z" fill="#233862"/>
    <path d="M197.855 212.543C197.855 212.543 199.687 217.815 199.588 219.255C199.491 220.695 197.855 225.271 197.855 225.271L195.875 213.156L197.855 212.543" fill="#FFB27D"/>
    <path d="M196.414 189.867L197.855 212.543L195.875 213.156L190.655 192.592L196.414 189.867" fill="#FFB27D"/>
    <path d="M153.86 117.034L173.519 101.575L187.024 114.182L168.316 128.71L153.86 117.034Z" fill="#233862"/>
    <path d="M163.96 124.157C163.96 124.157 163.456 127.965 160.708 129.927C157.957 131.889 155.601 132.464 156.191 138.782C156.779 145.099 153.539 146.536 152.95 150.722C152.361 154.909 152.434 162.557 160.314 160.271C168.194 157.984 186.242 159.617 188.202 156.215C190.164 152.815 188.79 145.753 185.45 140.391C182.112 135.027 186.531 131.519 184.959 126.801C183.389 122.081 180.374 117.224 180.374 117.224C180.374 117.224 167.408 113.941 163.96 124.157" fill="#132644"/>
    <path d="M167.682 298.091L170.341 313.01L174.324 312.979L174.471 298.091H167.682Z" fill="#FFB27D"/>
    <path d="M201.187 298.728L208.752 313.01L211.702 307.968L207.148 296.765L201.187 298.728Z" fill="#FFB27D"/>
    <path d="M178.144 147.753C178.173 147.768 177.659 164.36 175.523 164.39C175.074 164.395 171.774 152.772 171.354 152.62C169.07 151.789 168.748 144.346 168.779 144.338C169.745 144.082 170.025 142.313 170.004 134.705L170.442 134.819L177.792 136.759C177.792 136.759 177.624 139.841 177.621 142.744C177.615 145.18 177.725 147.492 178.144 147.753Z" fill="#FFB27D"/>
    <path d="M148.452 131.106L148.213 130.436C153.561 127.047 153.849 119.034 153.841 117.181C153.839 116.945 153.946 116.73 154.107 116.633C154.271 116.537 154.456 116.697 154.454 116.938C154.442 119.09 154.029 127.569 148.452 131.106Z" fill="#EFCBAB"/>
    <path d="M148.213 130.437L147.467 130.594L147.896 131.74L148.452 131.106L148.213 130.437" fill="#D8A987"/>
    <path d="M147.467 130.594C147.467 130.594 146.481 131.189 146.218 130.855C146.218 130.855 146.332 132.018 146.735 132.246C146.735 132.246 147.567 132.112 147.896 131.739L147.467 130.594" fill="#EFCBAB"/>
    <path d="M177.792 136.759C177.792 136.759 177.624 139.841 177.621 142.744C173.506 142.589 171.333 137.59 170.442 134.819L177.792 136.759Z" fill="#EF9E67"/>
    <path d="M168.929 135.164C168.929 135.164 166.143 131.283 165.06 127.618C164.287 124.999 163.802 114.656 171.614 114.068C171.614 114.068 173.862 113.766 176.218 115.074C178.091 116.114 180.953 118.677 179.623 128.173L179.381 131.324L168.929 135.164" fill="#132644"/>
    <path d="M210.992 304.705C210.992 304.705 209.039 305.154 207.435 305.316C207.079 305.352 206.74 305.374 206.445 305.374C205.673 305.374 204.281 304.986 203.347 304.695L203.277 304.675C202.866 304.545 202.553 304.439 202.437 304.398L202.388 304.383C202.388 304.383 192.644 289.936 187.182 266.776C187.054 266.236 186.919 265.691 186.777 265.141C183.785 253.526 177.586 238.947 174.319 225.75C173.799 223.648 173.333 221.669 172.914 219.798C172.779 219.197 172.648 218.609 172.524 218.028C170.117 206.884 169.42 199.568 168.777 191.751L188.421 198.407C188.421 198.407 196.669 246.033 210.992 304.705" fill="#A53D38"/>
    <path d="M179.078 138.308C179.078 138.308 169.57 141.078 168.366 133.164C167.161 125.25 165.123 120.279 171.142 118.175C177.164 116.071 178.806 118.77 179.689 121.283C180.574 123.795 181.52 137.382 179.078 138.308" fill="#FFB27D"/>
    <path d="M175.459 116.813C175.459 116.813 174.252 126.801 170.452 129.253C166.651 131.701 164.695 130.738 164.695 130.738C164.695 130.738 167.277 126.657 167.056 120.806C167.056 120.806 172.819 112.925 175.459 116.813" fill="#132644"/>
    <path d="M174.926 117.741C174.926 117.741 177.191 119.293 177.971 121.179C178.751 123.067 180.375 123.736 180.479 126.776C180.479 126.776 181.492 119.934 178.74 116.958C175.822 113.802 174.926 117.741 174.926 117.741Z" fill="#132644"/>
    <path d="M170.208 312.176C170.208 312.176 170.53 315.131 169.7 318.293C169.7 318.293 169.049 322.25 171.974 322.323C174.899 322.397 175.617 322.029 175.285 319.603C174.954 317.177 174.324 312.979 174.324 312.979L170.208 312.176Z" fill="#FFB27D"/>
    <path d="M169.7 318.293C169.7 318.293 169.159 322.029 169.49 324.014C169.49 324.014 170.374 324.896 172.499 324.896C174.513 324.896 175.561 324.014 175.561 324.014C175.561 324.014 175.624 319.92 175.086 318.191C175.086 318.191 173.013 322.336 169.7 318.293Z" fill="#C45446"/>
    <path d="M218.751 319.999C218.751 319.999 213.357 312.024 211.702 307.968L207.69 310.703L216.656 321.918L218.753 321.55L218.751 319.999" fill="#FFB27D"/>
    <path d="M222.177 324.673C222.177 324.673 216.382 324.673 215.388 324.524C214.395 324.379 213.593 322.468 212.518 319.598C212.077 318.427 211.089 317.781 210.075 317.426V324.065H208.544L207.094 317.007C206.139 314.67 207.018 312.551 207.69 310.703C208.472 310.703 210.575 311.415 214.56 317.393C215.87 319.357 217.314 320.057 218.751 319.999C218.77 320.016 218.791 320.029 218.81 320.039C222.121 322.027 222.177 324.673 222.177 324.673" fill="#C45446"/>
    <path d="M207.435 305.316C207.079 305.352 206.74 305.374 206.445 305.374C205.673 305.374 204.282 304.986 203.347 304.695L203.277 304.675L202.437 304.398L202.388 304.383C202.388 304.383 192.644 289.936 187.182 266.776C187.054 266.236 186.919 265.691 186.777 265.141C183.785 253.526 177.586 238.947 174.319 225.75C173.799 223.648 173.333 221.669 172.914 219.798C172.779 219.197 172.648 218.609 172.524 218.028L175.997 214.515C175.997 214.515 186.428 237.013 189.658 258.185C192.336 275.735 203.859 298.487 207.435 305.316" fill="#912F2F"/>
    <path d="M176.363 260.16C176.422 270.455 176.03 294.127 175.023 303.927C175.023 303.927 174.069 305.052 171.702 305.065C169.277 305.078 168.193 303.886 168.193 303.886C165.667 286.849 163.871 272.749 162.563 260.601C161.49 250.631 160.536 242.083 159.802 234.724C159.153 228.206 163.26 210.548 163.26 210.548L178.679 208.545C178.422 226.587 176.328 254.175 176.363 260.16" fill="#A53D38"/>
    <path d="M171.702 305.065C169.639 305.225 168.192 303.886 168.192 303.886C165.667 286.849 163.87 272.749 162.563 260.601C161.49 250.631 160.536 242.083 159.802 234.724C159.153 228.206 163.26 210.548 163.26 210.548L168.487 215.002C168.487 215.002 161.073 223.986 162.894 240.97C164.715 257.952 169.165 302.659 171.702 305.065" fill="#912F2F"/>
    <path d="M195.988 196.326C195.025 196.757 193.938 197.011 192.865 197.219C191.158 197.551 189.489 197.764 188.421 198.407C185.271 200.311 177.63 144.118 177.63 144.118C177.63 144.118 183.191 144.189 185.745 149.548C188.297 154.909 198.231 181.382 199.116 189.867C199.512 193.682 198.028 195.409 195.988 196.326Z" fill="#1C468A"/>
    <path d="M207.435 272.113C207.435 272.113 206.923 273.811 205.522 276.196C204.824 277.385 203.905 278.742 202.719 280.143C199.596 283.827 194.616 287.814 186.925 289.792C186.516 289.896 186.103 289.994 185.678 290.091C183.36 290.6 181.134 290.965 179.014 291.214C174.701 291.718 170.823 291.746 167.525 291.541C165.267 291.404 163.281 291.155 161.613 290.877C157.847 290.253 155.7 289.48 155.7 289.48C155.7 289.48 155.7 238.699 158.841 208.545C160.582 191.844 166.415 144.349 166.415 144.349L169.315 143.755L176.269 164.39L177.63 144.118L180.793 145.469C182.346 146.136 183.532 147.819 183.929 149.926L207.435 272.113" fill="#1C468A"/>
    <path d="M185.02 194.111L168.885 191.931L171.5 160.793L187.635 162.971L185.02 194.111Z" fill="#BC3F3F"/>
    <path d="M171.5 160.793L170.465 160.689L168.035 191.801L168.885 191.931L171.5 160.793Z" fill="#9B2323"/>
    <path d="M157.967 176.84C157.967 176.84 169.296 181.451 180.121 183.514C180.121 183.514 183.695 185.57 182.017 186.136C181.587 186.28 159.906 192.577 156.692 188.491L157.967 176.84" fill="#FFB27D"/>
    <path d="M169.289 143.755C169.289 143.755 160.812 145.122 159.387 147.401C154.878 154.608 150.79 185.383 154.324 192.488C158.547 200.975 165.05 187.654 167.089 179.808C168.147 175.739 169.869 151.155 169.289 143.755" fill="#1C468A"/>
    <path d="M179.056 183.301C179.056 183.301 180.386 183.137 180.639 182.571C181.143 181.438 181.943 181.451 182.609 181.301C183.275 181.152 184.023 180.181 184.154 180.378C184.287 180.574 183.663 181.643 183.315 182.041C183.315 182.041 184.03 182.1 184.502 181.801C184.976 181.499 186.636 178.977 186.643 180.062C186.662 182.678 186.51 183.096 184.828 184.947C183.446 186.465 178.759 187.028 178.759 187.028L179.056 183.301" fill="#FFB27D"/>
    <path d="M169.266 176.16L168.935 180.581C168.411 180.432 167.801 180.186 167.089 179.808C162.441 177.329 164.276 165.024 164.276 165.024C164.999 169.947 167.329 173.749 169.266 176.16" fill="#233862"/>
    <path d="M180.374 117.224C180.374 117.224 173.502 113.746 163.96 124.157L164.154 121.779C164.329 119.653 165.151 117.711 166.442 116.436C167.896 115.001 170.214 113.416 173.696 112.762C176.089 112.314 178.471 113.672 179.876 116.291L180.374 117.224" fill="#1C468A"/>
    <path d="M195.988 196.326C195.025 196.757 193.938 197.011 192.865 197.219L188.406 171.004C188.406 171.004 195.91 191.155 195.988 196.326Z" fill="#233862"/>
    <path d="M175.674 133.958C175.674 133.958 176.111 135.083 176.755 135.091C177.398 135.096 179.038 134.878 179.158 134.678C179.276 134.477 179.588 133.283 179.588 133.283C179.588 133.283 176.888 133.217 175.674 133.958" fill="white"/>
    <path d="M396.781 167.29C396.781 167.29 396.069 165.957 395.256 165.123C394.446 164.289 393.589 162.725 393.84 162.218C394.092 161.711 396.529 159.325 396.529 159.325L397.829 163.607L396.781 167.29" fill="#FFB27D"/>
    <path d="M417.814 117.343L439.038 106.141L450.91 121.387L430.734 131.869L417.814 117.343Z" fill="#233862"/>
    <path d="M406.235 177.747L397.786 163.295L396.781 167.29C396.781 167.29 405.434 193.507 409.398 191.069C411.246 189.933 406.235 177.747 406.235 177.747Z" fill="#FFB27D"/>
    <path d="M432.647 130.606C432.647 130.606 428.525 133.841 431.054 140.11C431.054 140.11 427.446 139.23 426.666 137.793C426.666 137.793 426.757 138.391 426.89 138.693C426.89 138.693 422.659 137.978 421.879 135.877C420.273 131.547 424.172 131.818 425.859 127.324C428.062 121.45 431.519 116.834 436.406 120.076C436.406 120.076 443.24 119.579 440.149 131.243C437.06 142.909 439.98 143.938 439.98 143.938C439.98 143.938 439.063 144.186 438.671 144.047C438.671 144.047 438.155 143.555 438.126 143.091C438.126 143.091 438.107 143.796 438.212 144.057C438.212 144.057 434.98 143.345 433.722 141.205C432.464 139.066 431.709 132.906 432.647 130.606" fill="#C94C43"/>
    <path d="M426.694 149.386C426.688 149.388 426.684 149.391 426.681 149.393C426.654 149.388 426.66 149.386 426.694 149.386Z" fill="#FFB27D"/>
    <path d="M436.716 145.543C436.836 146.99 436.98 148.285 437.045 148.904C437.093 149.348 437.844 157.237 436.466 157.315C435.091 157.394 431.69 166.743 430.158 166.667C428.443 166.581 426.92 149.386 426.694 149.386C427.134 149.132 428.471 143.477 428.896 141.319C429.41 138.703 429.811 135.877 429.811 135.877L436.779 136.462L437.193 136.498C436.937 137.763 436.754 138.957 436.626 140.067C436.611 140.214 436.594 140.366 436.579 140.513C436.453 141.745 436.565 143.758 436.716 145.543" fill="#FFB27D"/>
    <path d="M428.852 134.941C428.852 134.941 427.722 130.17 427.95 126.51C428.114 123.899 431.239 116.489 437.951 120.281C437.951 120.281 439.591 119.759 441.156 122.144C442.399 124.041 444.001 127.754 439.953 134.961L438.775 137.464L428.852 134.941" fill="#C94C43"/>
    <path d="M436.716 145.543C431.842 143.641 429.773 136.143 429.773 136.143C431.834 136.224 434.52 138.128 436.626 140.067C436.611 140.214 436.594 140.366 436.579 140.513C436.453 141.745 436.565 143.758 436.716 145.543Z" fill="#ED975D"/>
    <path d="M437.06 142.909C437.06 142.909 428.255 140.009 429.695 132.733C431.134 125.458 430.967 120.182 436.649 121.726C442.334 123.27 442.871 126.429 442.835 129.012C442.796 131.595 439.388 143.477 437.06 142.909Z" fill="#FFB27D"/>
    <path d="M440.678 122.956C440.678 122.956 436.583 130.644 432.647 130.606C428.713 130.568 427.377 128.69 427.377 128.69C427.377 128.69 430.795 126.697 432.421 121.686C432.421 121.686 439.675 118.256 440.678 122.956Z" fill="#C94C43"/>
    <path d="M439.945 123.44C439.945 123.44 441.359 125.977 441.428 127.983C441.498 129.99 440.937 133.871 441.797 134.036C441.797 134.036 444.758 128.872 443.377 124.875C441.913 120.636 439.945 123.44 439.945 123.44" fill="#C94C43"/>
    <path d="M440.221 123.846C440.221 123.846 436.735 132.178 431.518 133.4C431.518 133.4 437.258 129.549 438.825 123.79C440.393 118.03 440.221 123.846 440.221 123.846" fill="#C94C43"/>
    <path d="M435.686 138.244C435.686 138.244 435.797 139.352 436.326 139.613C436.857 139.877 438.265 140.351 438.408 140.232C438.551 140.115 439.078 139.251 439.078 139.251C439.078 139.251 436.859 138.118 435.686 138.244" fill="white"/>
    <path d="M432.399 249.548C432.285 250.17 432.175 250.786 432.065 251.396C431.4 255.07 430.782 258.477 430.394 261.331C429.887 265.04 429.767 267.8 430.432 268.959C432.146 271.953 431.711 287.969 431.145 299.501C430.812 306.363 430.432 311.636 430.432 311.636L427.32 315.905C427.32 315.905 426.334 309.093 425.092 300.829C423.421 289.721 421.283 275.989 420.442 272.625C419.774 269.958 418.804 258.576 417.943 246.955C417.902 246.375 417.858 245.794 417.816 245.211C417.668 243.178 417.525 241.153 417.388 239.175C416.617 228.184 417.732 217.831 417.732 217.831C417.732 217.831 421.78 213.392 426.993 212.794C430.064 212.439 432.953 213.739 434.381 218.769C436.459 226.082 434.352 238.709 432.399 249.548" fill="#FFB27D"/>
    <path d="M432.398 249.546C428.135 245.444 422.136 238.146 419.959 226.181C419.542 220.231 423.063 214.581 426.993 212.794C430.064 212.436 432.953 213.739 434.381 218.766C436.459 226.08 434.354 238.711 432.398 249.546Z" fill="#ED975D"/>
    <path d="M447.948 177.276L468.901 184.488V187.745C468.901 187.745 448.049 187.421 446.703 184.326C445.36 181.23 447.948 177.276 447.948 177.276Z" fill="#FFB27D"/>
    <path d="M468.901 284.704L467.923 290.088C467.923 290.088 463.594 287.11 458.099 283.259C449.537 277.254 438.143 269.124 435.909 266.842C434.438 265.337 432.491 257.166 430.691 247.924C428.005 234.143 425.64 217.985 425.64 217.985C425.64 217.985 429.611 197.627 440.25 210.086C446.614 217.542 445.626 231.91 444.928 243.084C444.463 250.58 444.13 256.641 446.241 258.211C449.273 260.464 456.619 268.698 461.81 276.757C463.672 279.647 465.255 282.514 466.266 285.074L468.901 284.704" fill="#FFB27D"/>
    <path d="M468.902 184.488C468.902 184.488 472.748 181.965 474.276 181.72C475.804 181.476 478.371 181.395 478.371 181.72C478.371 182.047 475.62 184.323 474.887 184.488C474.152 184.653 472.748 186.037 473.174 186.199C473.602 186.361 475.865 185.669 475.895 186.199C475.926 186.729 474.52 187.053 474.276 187.461C474.03 187.867 473.174 188.356 471.8 188.113C470.424 187.867 468.902 187.745 468.902 187.745V184.488" fill="#FFB27D"/>
    <path d="M468.902 261.227C455.37 287.178 420.461 290.088 420.461 290.088C414.794 262.533 417.116 192.861 418.414 166.963C418.334 162.441 418.465 158.615 419.023 157.145C419.89 154.851 424.608 150.876 426.304 148.901C426.304 148.901 426.696 148.688 427.035 148.653C427.288 149.839 430.434 164.058 430.746 163.762C431.054 163.47 436.362 149.961 436.921 148.364C437.49 148.387 437.881 148.402 437.993 148.412C438.929 148.473 443.978 149.819 444.401 150.904C444.549 151.282 445.999 156.4 447.819 163.173C447.819 163.173 447.819 163.178 447.821 163.191C451.235 175.899 456.242 173.514 458.231 177.278C459.481 179.641 458.942 184.052 456.624 187.864C456.427 188.189 456.219 188.506 455.996 188.818C454.232 191.304 451.84 192.775 447.946 192.012C446.978 191.821 445.019 190.574 443.421 188.734C447.254 207.906 468.902 261.227 468.902 261.227" fill="#1C468A"/>
    <path d="M427.267 147.991L425.434 149.386C425.434 149.386 430.436 168.233 430.683 168.15C430.93 168.066 438.444 148.478 438.444 148.478L436.912 147.626L430.746 163.762L427.267 147.991Z" fill="#F99746"/>
    <path d="M442.863 123.691C442.863 123.691 436.451 118.902 425.859 127.324L426.315 125.009C426.725 122.941 427.752 121.181 429.17 120.175C430.767 119.039 433.235 117.929 436.752 117.967C439.167 117.992 441.375 119.805 442.473 122.672L442.863 123.691Z" fill="#1C468A"/>
    <path d="M410.911 129.833L410.753 129.121C416.432 126.88 417.65 119.024 417.858 117.191C417.884 116.958 418.014 116.768 418.185 116.707C418.358 116.644 418.522 116.841 418.492 117.077C418.229 119.201 416.834 127.493 410.911 129.833Z" fill="#EFCBAB"/>
    <path d="M410.754 129.121H409.998L410.287 130.343L410.911 129.833L410.754 129.121Z" fill="#D8A987"/>
    <path d="M409.998 129.121C409.998 129.121 408.955 129.509 408.734 129.121C408.734 129.121 408.711 130.295 409.082 130.604C409.082 130.604 409.92 130.642 410.287 130.343L409.998 129.121" fill="#EFCBAB"/>
    <path d="M427.642 149.687C427.642 149.687 429.317 153.789 435.985 150.052L430.746 163.762L427.642 149.687" fill="white"/>
    <path d="M425.434 149.386C425.434 149.386 424.564 188.399 417.34 195.961C416.832 196.496 416.29 196.874 415.715 197.069C412.065 198.309 409.414 195.414 407.619 191.401C405.124 185.826 404.279 178.1 404.703 176.317C405.508 172.928 407.366 178.923 411.262 177.278C415.159 175.63 416.21 154.722 418.931 151.67C419.641 150.879 425.434 149.386 425.434 149.386" fill="#1C468A"/>
    <path d="M390.183 177.149C390.183 177.149 389.094 176.366 388.057 175.359C387.581 174.89 387.115 174.381 386.772 173.874C386.578 173.585 386.422 173.303 386.327 173.03C386.327 173.03 395.148 158.887 395.848 157.224C396.548 155.561 403.204 141.841 403.204 141.841C403.204 141.841 404.018 142.353 404.994 143.195C405.358 143.509 405.746 143.872 406.119 144.27C406.808 145.01 407.459 145.877 407.853 146.813C407.853 146.813 398.164 159.891 397.481 161.774C396.796 163.663 390.183 177.149 390.183 177.149" fill="#EFCBAB"/>
    <path d="M388.057 175.359C387.581 174.89 387.115 174.381 386.772 173.874C386.578 173.585 386.422 173.303 386.327 173.029C386.327 173.029 395.148 158.887 395.848 157.224C396.549 155.561 403.204 141.841 403.204 141.841C403.204 141.841 404.018 142.354 404.995 143.195C405.358 143.509 405.746 143.872 406.12 144.27C403.4 147.969 396.056 158.05 395.428 159.779C394.821 161.46 390.038 171.303 388.057 175.359" fill="#DDB08E"/>
    <path d="M397.129 154.463C397.129 154.463 394.528 157.825 394.229 160.116L396.95 163.024C396.95 163.024 399.329 159.919 400.084 157.622L397.129 154.463Z" fill="#C94C43"/>
    <path d="M397.786 163.295C397.786 163.295 397.97 161.014 397.576 160.21C397.182 159.406 397.146 157.193 396.781 157.429C396.413 157.665 396.649 159.477 396.417 160.352C396.185 161.229 395.844 165.303 396.781 166.076C397.715 166.852 397.786 163.295 397.786 163.295" fill="#FFB27D"/>
    <path d="M395.148 157.569C395.148 157.569 394.065 157.346 393.669 158.304C393.275 159.262 392.786 160.818 393.53 161.435C394.276 162.051 395.148 157.569 395.148 157.569Z" fill="#FFB27D"/>
    <path d="M431.145 299.501C430.812 306.363 430.432 311.636 430.432 311.636L427.32 315.905C427.32 315.905 426.334 309.093 425.092 300.829C425.092 300.829 428.58 302.444 431.145 299.501Z" fill="white"/>
    <path d="M433.561 317.806L431.882 319.015C431.271 319.304 430.767 319.385 430.15 319.702C429.212 320.181 428.552 321.122 428.519 321.292C428.045 323.857 427.373 323.692 427.373 323.692L420.629 323.778C420.311 323.565 420.85 321.753 421.108 321.413C421.746 320.577 423.653 320.997 424.349 318.366C424.743 316.888 426.679 312.29 426.679 312.29L426.692 312.275C426.757 312.229 427.117 312.135 429.065 312.675C430.072 312.951 430.491 310.229 430.491 310.229C430.491 310.229 430.811 310.312 431.161 310.647C431.439 310.911 431.735 311.334 431.907 311.996C432.148 312.929 433.138 314.272 433.85 315.152C434.28 315.682 434.607 316.044 434.607 316.044C434.607 316.044 434.906 316.523 433.561 317.806" fill="#233862"/>
    <path d="M468.902 284.704L467.923 290.088C467.923 290.088 463.594 287.11 458.099 283.259C460.237 281.454 461.293 278.777 461.81 276.757C463.672 279.647 465.255 282.514 466.266 285.074L468.902 284.704" fill="white"/>
    <path d="M474.504 286.793C474.504 286.793 474.497 286.793 474.479 286.785C474.352 286.745 473.77 286.488 473.383 285.251C473.128 284.44 473.052 283.771 472.818 282.967L471.861 280.767C470.86 279.01 470.51 279.421 470.51 279.421C470.51 279.421 470.247 279.87 469.861 280.458C469.223 281.431 468.243 282.787 467.55 283.137C467.057 283.383 466.749 283.789 466.561 284.169C466.319 284.643 466.264 285.074 466.264 285.074C466.264 285.074 468.319 285.551 468.14 286.899C467.792 289.51 467.874 289.987 467.91 290.07L467.921 290.088C467.921 290.088 471.427 292.532 472.548 293.014C474.544 293.863 475.585 295.67 476.232 296.494C476.493 296.829 476.856 296.983 477.212 296.907C477.739 296.796 478.421 296.57 478.571 296.142L474.504 286.793" fill="#233862"/>
    <path d="M429.362 175.8C429.362 175.058 429.815 174.452 430.375 174.452C430.934 174.452 431.387 175.058 431.387 175.8C431.387 176.546 430.934 177.149 430.375 177.149C429.815 177.149 429.362 176.546 429.362 175.8Z" fill="#233862"/>
    <path d="M429.362 185.811C429.362 185.066 429.815 184.462 430.375 184.462C430.934 184.462 431.387 185.066 431.387 185.811C431.387 186.556 430.934 187.16 430.375 187.16C429.815 187.16 429.362 186.556 429.362 185.811Z" fill="#233862"/>
    <path d="M456.624 187.864C456.426 188.189 456.219 188.506 455.996 188.818C454.232 191.304 451.84 192.775 447.946 192.012C446.977 191.822 445.019 190.574 443.421 188.734C443.421 188.734 440.21 177.048 440.642 175.4C441.076 173.752 447.261 186.564 452.394 187.16C454.4 187.395 455.76 187.611 456.624 187.864Z" fill="#233862"/>
    <path d="M418.87 178.779L417.34 195.961C416.832 196.496 416.29 196.874 415.715 197.069C412.065 198.309 409.414 195.414 407.619 191.401C409.49 191.748 414.027 192.285 415.016 189.654C416.272 186.318 418.87 178.779 418.87 178.779" fill="#233862"/>
    <path d="M330.276 85.1868C330.276 85.1868 332.095 83.0041 332.539 81.4704C332.982 79.9393 332.929 77.3663 332.929 75.6982C332.929 75.6982 332.381 75.4422 332.248 76.2382C332.113 77.0342 331.869 78.8746 331.363 79.2447C330.858 79.6148 329.728 79.5717 329.467 81.4704C329.206 83.3717 330.276 85.1868 330.276 85.1868" fill="#B56F40"/>
    <path d="M326.116 85.5568C326.116 85.5568 324.462 81.0471 324.797 79.5793C325.13 78.1115 330.211 76.5018 330.881 77.1939C331.551 77.8859 330.881 86.3123 330.881 86.3123L326.116 85.5568" fill="#B56F40"/>
    <path d="M379.578 221.402C379.578 221.402 379.335 225.126 380.307 226.906C381.28 228.685 381.807 230.305 382.13 229.494C382.454 228.685 381.603 225.882 381.887 225.935C382.17 225.988 382.956 229.279 383.354 230.305C383.75 231.329 384.601 232.949 385.168 232.138C385.735 231.329 384.641 223.669 384.195 222.698C383.75 221.727 382.819 219.57 382.819 219.57L379.578 221.402" fill="#B56F40"/>
    <path d="M344.645 109.191L363.982 94.7031L376.977 116.147L359.27 127.59L344.645 109.191" fill="#233862"/>
    <path d="M352.765 116.023C352.765 116.023 352.362 118.335 351.227 119.156C350.093 119.977 351.875 122.2 351.429 123.84C350.984 125.481 352.782 127.59 352.782 127.59L365.273 129.504C365.273 129.504 367.103 128.447 367.265 125.587C367.427 122.728 367.619 119.156 367.619 119.156L362.163 113.612L354.305 114.106L352.765 116.023" fill="#C94C43"/>
    <path d="M310.799 88.282C310.799 88.282 310.223 86.4745 309.819 84.5099C309.639 83.6049 309.49 82.6695 309.452 81.8557C309.433 81.3969 309.446 80.9787 309.511 80.6288C309.511 80.6288 325.611 76.2002 327.191 75.3433C328.771 74.489 342.62 68.3087 342.62 68.3087C342.62 68.3087 343.093 69.5914 343.533 71.3431C343.695 71.9946 343.853 72.7171 343.978 73.4548C344.209 74.8262 344.33 76.2787 344.174 77.5386C344.174 77.5386 327.861 80.1193 326.171 81.1992C324.481 82.2766 310.799 88.282 310.799 88.282Z" fill="#EFCBAB"/>
    <path d="M309.819 84.5098C309.639 83.6048 309.49 82.6694 309.452 81.8557C309.433 81.3969 309.446 80.9786 309.511 80.6288C309.511 80.6288 325.611 76.2001 327.191 75.3433C328.771 74.489 342.62 68.3087 342.62 68.3087C342.62 68.3087 343.094 69.5914 343.533 71.3431C343.695 71.9946 343.853 72.7171 343.979 73.4548C339.384 74.2051 326.925 76.3193 325.375 77.3079C323.872 78.2687 313.926 82.6973 309.819 84.5098Z" fill="#DDB08E"/>
    <path d="M329.924 74.043C329.924 74.043 325.627 74.5981 324.07 76.436L324.98 81.8355C324.98 81.8355 328.929 81.3006 330.912 79.9089L329.924 74.043Z" fill="#C94C43"/>
    <path d="M333.827 323.778C333.827 323.778 333.827 320.333 334.196 319.188C334.566 318.042 335.917 313.38 335.917 313.38H341.198C341.198 313.38 342.18 317.634 342.241 319.025C342.304 320.414 342.241 323.778 342.241 323.778H333.827" fill="#233862"/>
    <path d="M367.362 323.778C367.362 323.778 367.362 320.333 366.993 319.188C366.626 318.042 365.274 313.38 365.274 313.38H359.993C359.993 313.38 359.009 317.634 358.948 319.025C358.888 320.414 358.948 323.778 358.948 323.778H367.362" fill="#233862"/>
    <path d="M354.151 129.899C354.151 129.899 353.091 137.441 351.97 140.688L345.587 144.863L354.522 168.388L366.787 153.637L362.713 143.051C362.713 143.051 362.325 132.568 363.577 128.976C364.831 125.384 354.151 129.899 354.151 129.899" fill="#B56F40"/>
    <path d="M353.998 130.941C353.998 130.938 355.079 136.794 358.324 137.334C361.571 137.877 362.869 133.159 362.869 133.159L353.998 130.941Z" fill="#99592E"/>
    <path d="M358.201 135.134C355.864 134.599 352.034 129.559 352.628 124.416L353.555 116.39C353.772 114.512 354.933 113.176 356.134 113.422L365.069 115.252C366.272 115.5 367.077 117.237 366.86 119.115L365.986 126.69C365.362 132.082 360.878 135.747 358.201 135.134Z" fill="#B56F40"/>
    <path d="M334.49 204.504C334.472 203.566 335.409 241.817 334.033 263.534C332.672 284.983 334.042 314.825 334.042 314.825C334.042 314.825 338.461 318.072 343.252 314.825C343.252 314.825 348.504 273.395 348.472 263.534C348.436 253.034 354.189 206.142 354.189 206.142L334.49 204.504Z" fill="#F99746"/>
    <path d="M367.17 314.825C367.17 314.825 362.753 318.072 357.963 314.825C357.963 314.825 352.71 273.395 352.742 263.534C352.758 259.1 351.741 248.172 350.559 237.031C348.944 221.788 347.023 206.142 347.023 206.142L367.488 204.441C367.488 204.441 365.8 242.091 367.181 263.534C368.563 284.98 367.17 314.825 367.17 314.825" fill="#F99746"/>
    <path d="M355.388 120.337C354.912 120.241 354.468 120.388 354.173 120.74C353.911 121.055 353.781 121.516 353.8 122.074C353.839 123.141 354.347 123.922 355.312 124.396C356.044 124.758 356.781 124.794 356.788 124.794L356.798 124.796C357.538 124.946 358.128 124.479 358.657 123.326C358.777 123.067 359.146 122.177 358.927 121.549C358.806 121.202 358.516 120.978 358.069 120.887L355.388 120.337ZM356.282 124.961C355.41 124.781 353.696 124.165 353.623 122.084C353.601 121.453 353.751 120.928 354.055 120.563C354.39 120.162 354.885 119.995 355.414 120.104L358.098 120.651C358.608 120.758 358.941 121.024 359.089 121.45C359.338 122.165 358.977 123.088 358.809 123.45C358.238 124.692 357.593 125.197 356.777 125.032C356.741 125.029 356.552 125.014 356.282 124.961Z" fill="#2C3A64"/>
    <path d="M361.683 121.627C361.236 121.536 360.911 121.632 360.716 121.916C360.366 122.428 360.519 123.425 360.572 123.719C360.817 125.032 361.276 125.711 362.014 125.863L362.026 125.866C362.032 125.871 362.741 126.13 363.524 126.079C364.551 126.013 365.212 125.47 365.488 124.467C365.632 123.944 365.613 123.453 365.432 123.047C365.231 122.593 364.842 122.274 364.367 122.178L361.683 121.627ZM362.469 126.228C362.199 126.173 362.016 126.109 361.982 126.099C361.168 125.927 360.663 125.189 360.401 123.775C360.323 123.361 360.186 122.34 360.585 121.757C360.823 121.412 361.202 121.288 361.712 121.394L364.393 121.942C364.922 122.051 365.358 122.411 365.587 122.928C365.794 123.397 365.819 123.957 365.655 124.55C365.116 126.507 363.341 126.406 362.469 126.228" fill="#2C3A64"/>
    <path d="M358.752 122.477C358.712 122.469 358.678 122.431 358.667 122.375C358.65 122.299 358.684 122.221 358.739 122.2C358.787 122.183 359.912 121.769 360.768 122.619C360.816 122.667 360.825 122.755 360.789 122.819C360.755 122.882 360.688 122.895 360.64 122.847C359.866 122.081 358.81 122.469 358.798 122.474C358.783 122.479 358.768 122.479 358.752 122.477" fill="#2C3A64"/>
    <path d="M356.391 144.848L350.344 141.36C350.344 141.36 347.219 174.467 351.391 176.515C351.391 176.515 363.297 148.354 362.486 144.739L356.391 144.848" fill="white"/>
    <path d="M352.565 139.261C352.565 139.261 350.862 139.651 349.971 140.784C349.971 140.784 351.267 146.394 354.71 148.067L356.187 144.848C356.187 144.848 353.378 143.079 352.565 139.261Z" fill="#D2E3FC"/>
    <path d="M356.187 144.848C356.187 144.848 361.818 144.559 362.658 140.944C362.658 140.944 363.782 142.511 363.742 145.046C363.742 145.046 361.959 148.63 357.504 148.671L356.187 144.848Z" fill="#D2E3FC"/>
    <path d="M356.657 129.504C356.657 129.504 359.653 129.681 360.975 130.391C360.975 130.391 360.062 131.833 358.865 131.587C357.67 131.344 356.832 130.576 356.657 129.504Z" fill="#FFF0E6"/>
    <path d="M335.441 117.746C332.723 120.028 329.012 123.118 325.983 125.562C325.832 124.88 325.724 124.261 325.661 123.721C324.656 115.188 326.116 85.5568 326.116 85.5568C326.116 85.5568 327.124 84.88 328.167 84.7634C330.139 84.5504 330.881 86.3123 330.881 86.3123C330.881 86.3123 334.316 112.38 335.441 117.746" fill="#B56F40"/>
    <path d="M383.567 220.804L381.518 221.94C378.239 223.494 374.703 221.397 373.631 216.986C372.187 211.044 372.038 204.644 371.503 199.376C371.241 196.785 370.936 191.444 369.758 187.284C369.756 187.281 369.756 187.279 369.756 187.279L371.816 279.38C340.956 282.293 325.899 258.664 325.899 258.664C325.103 233.73 332.583 177.547 335.308 158.076C333.993 154.121 324.658 142.767 323.097 131.618C322.372 126.441 324.643 122.778 327.4 120.307C330.87 117.191 335.11 115.962 335.11 115.962L345.084 133.722C345.507 134.361 345.805 134.863 345.922 135.179C346.692 137.268 350.685 140.731 350.685 140.731C350.674 140.84 351.115 170.672 351.93 171.625C353.104 171.032 360.973 150.045 362.713 143.051C365.217 143.968 367.922 145.213 370.775 146.889C370.775 146.889 376.176 150.727 376.941 167.465C377.59 181.659 384.1 199.776 385.577 216.236C385.752 218.185 384.93 220.054 383.567 220.804" fill="#1C468A"/>
    <path d="M349.568 139.702C349.568 139.702 350.297 168.629 351.228 175.869L365.077 143.994L363.168 143.051L352.221 169.468L351.142 140.729L349.568 139.702Z" fill="#C94C43"/>
    <path d="M352.565 138.576C352.565 138.576 350.862 138.967 349.971 140.1C349.971 140.1 351.267 145.71 354.71 147.383L356.187 144.848C356.187 144.848 353.378 142.397 352.565 138.576Z" fill="white"/>
    <path d="M356.187 144.848C356.187 144.848 361.818 143.877 362.658 140.262C362.658 140.262 363.782 141.826 363.742 144.361C363.742 144.361 361.959 147.946 357.504 147.989L356.187 144.848" fill="white"/>
    <path d="M347.926 178.959C347.926 178.206 348.384 177.595 348.948 177.595C349.513 177.595 349.972 178.206 349.972 178.959C349.972 179.709 349.513 180.32 348.948 180.32C348.384 180.32 347.926 179.709 347.926 178.959Z" fill="#233862"/>
    <path d="M346.002 191.228C346.002 190.478 346.46 189.867 347.023 189.867C347.589 189.867 348.047 190.478 348.047 191.228C348.047 191.981 347.589 192.592 347.023 192.592C346.46 192.592 346.002 191.981 346.002 191.228Z" fill="#233862"/>
    <path d="M346.043 122.768L346.384 122.337C342.957 117.526 344.549 111.122 344.976 109.672C345.031 109.487 344.997 109.277 344.892 109.135C344.785 108.993 344.605 109.046 344.551 109.234C344.072 110.927 342.469 117.746 346.043 122.768" fill="#EFCBAB"/>
    <path d="M346.384 122.337L346.934 122.761L346.336 123.488L346.043 122.768L346.384 122.337" fill="#D8A987"/>
    <path d="M346.934 122.761C346.934 122.761 347.571 123.628 347.853 123.47C347.853 123.47 347.499 124.337 347.132 124.355C347.132 124.355 346.51 123.911 346.336 123.488L346.934 122.761" fill="#EFCBAB"/>
    <path d="M353.079 117.764C353.079 117.764 355.477 117.98 356.187 116.362C356.187 116.362 358.136 117.009 358.994 116.038C358.994 116.038 362.001 116.846 362.081 115.229C362.081 115.229 364.378 121.351 366.896 120.071C369.412 118.791 362.869 112.585 362.869 112.585L354.305 114.106L353.079 117.764" fill="#C94C43"/>
    <path d="M353.256 113.178L352.765 116.022C352.765 116.022 359.455 112.859 367.619 119.156L367.524 114.575C367.505 113.68 367.199 112.839 366.681 112.268C365.204 110.648 361.672 107.467 355.133 109.999C354.215 110.354 353.469 111.941 353.256 113.178" fill="#1C468A"/>
    <path d="M324.024 78.104C323.999 77.9291 323.56 76.7021 324.163 75.5639C324.766 74.4257 328.729 72.6842 329.098 73.6044C329.467 74.522 329.233 77.7187 327.96 78.4259C326.687 79.1332 324.121 78.8138 324.024 78.104Z" fill="#B56F40"/>
    <path d="M335.308 158.076C333.993 154.121 324.658 142.767 323.097 131.618C322.372 126.441 324.643 122.778 327.4 120.307C327.4 120.307 326.108 128.135 329.774 135.2C333.441 142.265 335.308 158.076 335.308 158.076" fill="#233862"/>
    <path d="M381.518 221.94C378.239 223.494 374.703 221.397 373.631 216.986C372.187 211.044 372.038 204.644 371.503 199.376C371.241 196.785 370.936 191.444 369.758 187.284C369.869 187.512 373.42 194.99 376.609 207.092C379.851 219.387 378.838 221.179 381.518 221.94Z" fill="#233862"/>
    <path d="M506.776 323.576H489.371C488.439 322.521 490.017 320.128 491.665 319.968C492.382 319.897 493.286 320.095 494.322 320.387C494.561 316.151 495.93 297.1 501.083 297.866C506.88 298.722 501.083 306.254 499.445 310.713C498.232 314.016 496.952 318.754 496.366 320.99C496.837 321.124 497.325 321.259 497.821 321.38C498.59 318.237 501.449 307.668 505.084 308.284C509.352 309.007 507.636 313.243 504.612 315.758C502.391 317.608 499.666 320.237 498.371 321.507C499.468 321.745 500.613 321.908 501.776 321.87C504.756 321.776 506.212 322.947 506.776 323.576" fill="#82B378"/>
    <path d="M65.3058 323.576C65.3058 323.576 57.2792 294.213 51.6434 296.717C46.0077 299.22 65.3058 323.576 65.3058 323.576" fill="#82B378"/>
    <path d="M62.2317 323.576C61.5486 323.576 48.7402 305.871 47.8862 310.505C47.0323 315.142 62.2317 323.576 62.2317 323.576Z" fill="#82B378"/>
    <path d="M75.894 323.576C75.894 323.576 70.5968 317.106 63.89 318.792C57.1832 320.475 54.319 322.321 50.1065 321.043C45.8939 319.768 43.7419 323.576 43.7419 323.576H75.894" fill="#82B378"/>
    <path d="M260.555 250.423C261.79 247.845 251.384 219.339 256.97 203.467C257.666 201.49 270.636 204.443 270.636 204.443C270.636 204.443 273.289 244.529 271.799 255.136C270.746 262.629 268.683 284.745 267.566 297.08C267.562 297.12 267.558 297.158 267.555 297.199C267.29 300.132 267.077 302.502 266.946 303.975C266.845 305.09 266.944 306.216 267.233 307.271C268.061 310.287 269.856 316.533 270.754 317.393C270.754 317.393 265.846 319.264 264.904 318.528C263.962 317.798 261.566 306.274 261.566 306.274C261.982 305.202 262.129 303.983 261.988 302.789C261.803 301.22 261.52 298.761 261.202 295.731C261.202 295.731 261.202 295.731 261.202 295.734V295.731C256.97 272.919 257.607 256.581 260.555 250.423" fill="#FFB27D"/>
    <path d="M232.834 301.577C233.51 300.771 233.972 299.701 234.155 298.517C234.398 296.961 234.787 294.527 235.293 291.543C237.386 268.211 242.315 253.229 246.708 248.857C248.546 247.026 246.375 215.458 255.81 203.239C256.987 201.718 268.337 210.588 268.337 210.588C268.337 210.588 260.182 249.333 255.976 258.555C253.003 265.07 245.206 284.788 240.888 295.802L240.89 295.805C239.841 298.469 239 300.626 238.479 301.962C238.09 302.956 237.883 304.059 237.874 305.179C237.847 308.391 237.523 316.995 238.475 317.745C239.065 318.212 239.579 318.726 240.005 319.251C240.005 319.251 235.529 318.739 234.983 318.698C234.442 318.66 231.011 304.355 230.944 304.082C230.944 304.079 230.944 304.079 230.944 304.079C231.631 303.085 232.328 302.183 232.834 301.577" fill="#FFB27D"/>
    <path d="M228.721 309.342L227.597 318.113L228.192 318.701L231.713 311.927L228.721 309.342" fill="#233862"/>
    <path d="M228.843 310.011C232.688 312.695 233.255 321.646 233.867 323.573L240.89 323.601C241.95 323.124 241.533 321.124 240.005 319.251C240.005 319.251 235.529 318.739 234.983 318.698C234.442 318.66 231.011 304.355 230.944 304.082C229.33 306.414 227.768 309.261 228.843 310.011" fill="#1C468A"/>
    <path d="M234.983 280.346C235.293 291.546 252.019 289.394 252.019 289.394L254.231 275.15L255.696 265.694L256.185 262.561L255.451 262.097L244.81 255.369L241.478 253.26L241.343 253.82L235.605 277.75L235.603 277.761L234.983 280.346Z" fill="#F99746"/>
    <path d="M235.603 277.76C240.435 271.142 254.231 275.149 254.231 275.149L255.696 265.694L255.451 262.097L244.81 255.369L241.343 253.82L235.605 277.75L235.603 277.76" fill="#EF7E29"/>
    <path d="M260.296 315.21L261.212 323.57H262.226L262.704 317.091L260.296 315.21" fill="#233862"/>
    <path d="M260.294 315.213C262.428 316.523 264.763 322.06 265.846 323.573L274.706 323.657C275.818 322.448 271.941 318.539 270.754 317.393C270.754 317.393 265.846 319.264 264.904 318.528C263.962 317.798 261.566 306.274 261.566 306.274C260.517 308.977 258.722 314.244 260.294 315.213" fill="#1C468A"/>
    <path d="M256.185 258.431L258.385 290.598C262.473 297.501 273.272 293.26 273.272 293.26C273.272 293.26 274.092 266.688 274.511 265.641L272.946 265.027L256.185 258.431" fill="#F99746"/>
    <path d="M256.185 258.431L258.385 290.598C258.5 274.767 273.871 276.359 273.871 276.359L272.946 265.027L256.185 258.431" fill="#EF7E29"/>
    <path d="M275.015 107.332L252.463 95.4281L239.849 111.629L261.286 122.768L275.015 107.332Z" fill="#233862"/>
    <path d="M264.453 112.818C264.453 112.818 264.5 116.398 266.474 117.513C270.558 119.82 266.672 122.494 270.676 126.266C271.597 127.136 272.263 132.533 265.884 133.337C259.506 134.14 258.713 134.863 258.713 134.863C258.713 134.863 253.978 138.906 248.733 134.749C245.695 132.34 249.523 125.628 248.128 123.919C246.249 121.622 246 114.086 248.733 110.973C251.466 107.862 255.837 106.057 255.837 106.057L264.453 112.818" fill="#132644"/>
    <path d="M282.349 120.603L282.517 119.848C276.484 117.465 275.19 109.117 274.967 107.173C274.939 106.922 274.804 106.722 274.619 106.656C274.436 106.59 274.263 106.798 274.294 107.049C274.573 109.307 276.056 118.119 282.349 120.603" fill="#EFCBAB"/>
    <path d="M282.517 119.848H283.32L283.012 121.146L282.35 120.603L282.517 119.848" fill="#D8A987"/>
    <path d="M283.32 119.848C283.32 119.848 284.43 120.258 284.664 119.848C284.664 119.848 284.689 121.095 284.295 121.425C284.295 121.425 283.404 121.465 283.012 121.146L283.32 119.848" fill="#EFCBAB"/>
    <path d="M265.834 135.555C265.387 135.479 264.032 134.039 263.419 131.833C262.681 129.182 262.045 126.297 262.045 126.297L260.087 126.723L254.849 127.863L254.421 127.957C254.838 129.428 255.154 130.817 255.379 132.094C255.791 134.409 255.919 136.366 255.87 137.821C255.816 139.306 255.232 139.702 254.918 139.999C254.771 140.123 260.443 164.885 263.178 163.653C265.553 162.583 266.065 135.471 265.834 135.555" fill="#FFB27D"/>
    <path d="M255.868 137.821C259.013 136.128 262.047 126.297 262.047 126.297C261.421 126.195 260.757 126.363 260.087 126.723C258.351 127.651 256.585 129.866 255.38 132.094C255.791 134.409 255.921 136.366 255.868 137.821" fill="#ED975D"/>
    <path d="M253.86 133.821C253.86 133.821 263.21 131.803 262.177 124.066C261.143 116.329 261.653 110.856 255.639 111.819C249.625 112.78 248.864 116.007 248.737 118.702C248.611 121.397 251.401 134.148 253.86 133.821Z" fill="#FFB27D"/>
    <path d="M253.028 141.007C253.028 141.007 237.251 134.683 236.13 132.926C235.007 131.167 232.28 107.817 232.278 104.455L229.983 104.894C229.983 104.894 228.282 131.453 230.253 137.479C232.223 143.502 252.12 152.993 252.12 152.993L253.028 141.007" fill="#FFB27D"/>
    <path d="M265.361 135.256C265.361 135.256 263.423 143.302 255.837 138.239L263.804 161.582L265.884 140.711L265.361 135.256Z" fill="#F99746"/>
    <path d="M271.808 137.626C271.808 137.626 270.853 141.811 289.121 155.077L302.597 142.784L304.215 144.589C304.215 144.589 291.294 165.333 289.277 164.892C287.26 164.451 273.388 152.281 273.388 152.281L271.808 137.626" fill="#FFB27D"/>
    <path d="M222.142 241.371C222.142 241.371 222.639 243.454 223.768 246.463C225.713 251.642 229.53 259.567 235.917 264.32C243.16 269.717 266.628 280.029 282.746 275.035C282.746 275.035 281.219 207.09 277.834 179.154C277.756 178.505 277.676 177.879 277.596 177.278C278.578 182.295 283.621 183.945 285.69 183.02C290.231 180.984 291.81 176.282 292.025 171.306C292.358 163.645 289.454 155.328 289.121 155.077C281.674 149.444 280.292 140.503 276.675 137.311C273.445 134.46 265.737 135.207 265.36 135.258L263.672 157.584L255.837 138.242C255.826 138.234 243.193 136.771 236.128 132.923C236.128 132.923 215 171.863 241.164 171.351C241.164 180.32 238.018 188.47 234.983 200.593C231.974 212.614 222.142 241.371 222.142 241.371" fill="#1C468A"/>
    <path d="M255.892 128.183C255.892 128.183 255.788 129.445 255.192 129.757C254.594 130.071 253.005 130.657 252.842 130.528C252.678 130.398 252.063 129.438 252.063 129.438C252.063 129.438 254.56 128.079 255.892 128.183" fill="white"/>
    <path d="M232.332 104.47C232.332 104.47 233.298 103.576 232.788 101.117C232.448 99.4715 232.678 98.1355 232.415 98.1761C232.138 98.2192 231.921 100.354 231.757 100.878C231.62 101.325 229.521 96.034 228.982 96.4498C228.444 96.863 227.399 98.9543 229.907 106.184L232.332 104.47Z" fill="#FFB27D"/>
    <path d="M302.597 142.784C302.597 142.784 304.032 138.252 304.51 137.317C305.455 135.468 308.152 134.31 308.327 135.129C308.5 135.945 306.597 137.154 306.515 139.038C306.493 139.56 307.298 138.546 307.794 138.151C308.093 137.915 308.272 138.11 308.116 138.414C307.324 139.95 306.892 141.527 306.135 142.108C305.377 142.691 304.215 144.589 304.215 144.589L302.597 142.784Z" fill="#FFB27D"/>
    <path d="M265.36 135.256L263.672 157.584L255.868 137.821L253.028 137.836L264.51 165.66L267.456 135.139L265.36 135.256" fill="#AA443E"/>
    <path d="M250 112.103C250 112.103 247.258 116.403 255.892 118.507C258.667 119.184 260.06 122.755 259.303 125.772C258.182 130.246 261.018 135.063 265.187 133.329C268.508 131.947 263.1 111.287 260.153 110.973C257.206 110.661 250 112.103 250 112.103" fill="#132644"/>
    <path d="M253.028 113.092C253.028 113.092 250.255 115.746 250.019 117.871C249.783 119.997 249.136 123.034 248.076 120.887C247.016 118.743 246.839 115.837 248.076 113.878C249.313 111.916 252.08 111.034 252.67 111.71C253.26 112.387 253.028 113.092 253.028 113.092" fill="#132644"/>
    <path d="M248.128 111.86C248.128 111.86 253.428 105.781 264.683 114.73L264.833 111.034C264.399 108.836 263.872 108.851 262.367 107.784C260.669 106.577 258.047 105.396 254.311 105.436C251.742 105.464 250.244 105.026 249.077 108.07L248.128 111.86Z" fill="#1C468A"/>
    <path d="M318.279 154.319C318.279 154.319 319.276 152.876 320.148 151.203C320.547 150.43 320.922 149.614 321.16 148.866C321.295 148.44 321.387 148.042 321.413 147.685C321.413 147.685 307.353 136.335 306.078 134.827C304.805 133.316 293.304 121.323 293.304 121.323C293.304 121.323 292.535 122.322 291.681 123.777C291.365 124.32 291.035 124.928 290.731 125.569C290.169 126.758 289.692 128.071 289.521 129.329C289.521 129.329 304.249 139.028 305.57 140.797C306.892 142.569 318.279 154.319 318.279 154.319" fill="#EFCBAB"/>
    <path d="M320.148 151.203C320.547 150.43 320.922 149.614 321.16 148.866C321.295 148.44 321.386 148.042 321.413 147.685C321.413 147.685 307.353 136.335 306.078 134.827C304.805 133.316 293.304 121.323 293.304 121.323C293.304 121.323 292.535 122.322 291.681 123.777C291.365 124.32 291.035 124.928 290.731 125.569C294.872 128.322 306.085 135.864 307.296 137.484C308.472 139.063 316.733 147.664 320.148 151.203" fill="#DDB08E"/>
    <path d="M303.828 132.383C303.828 132.383 307.739 134.819 308.746 137.245L306.533 141.928C306.533 141.928 302.945 139.666 301.425 137.471L303.828 132.383Z" fill="#C94C43"/>
    <path d="M306.135 142.108C306.135 142.108 307.123 141.57 307.715 140.587C308.306 139.603 309.11 138.011 308.116 138.414C307.123 138.815 305.355 140.475 304.687 140.63C304.019 140.784 304.26 141.474 304.215 141.669C304.167 141.867 306.135 142.108 306.135 142.108" fill="#FFB27D"/>
    <path d="M222.142 241.371C222.142 241.371 222.639 243.454 223.768 246.463C228.002 240.499 233.904 230.997 238.016 219.57C245.111 199.855 241.164 171.351 241.164 171.351C241.164 180.32 238.018 188.47 234.983 200.593C231.974 212.614 222.142 241.371 222.142 241.371" fill="#233862"/>
    <path d="M265.884 173.717C265.884 173.197 265.568 172.776 265.178 172.776C264.789 172.776 264.472 173.197 264.472 173.717C264.472 174.234 264.789 174.657 265.178 174.657C265.568 174.657 265.884 174.234 265.884 173.717Z" fill="#233862"/>
    <path d="M265.884 190.81C265.884 190.29 265.568 189.87 265.178 189.87C264.789 189.87 264.472 190.29 264.472 190.81C264.472 191.33 264.789 191.751 265.178 191.751C265.568 191.751 265.884 191.33 265.884 190.81Z" fill="#233862"/>
    <path d="M277.833 179.154C277.755 178.505 277.676 177.879 277.596 177.278C278.578 182.295 283.621 183.945 285.69 183.02C290.23 180.984 291.81 176.282 292.025 171.306C291.536 171.645 284.165 176.662 280.738 173.717C277.245 170.713 275.083 163.914 275.017 163.703L277.833 179.154Z" fill="#233862"/>
    <path d="M426.34 87.3947C426.34 87.3947 424.266 89.4734 421.873 89.3011C420.098 89.1718 418.282 87.1007 418.21 86.9612L416.914 90.31C416.914 90.31 420.227 92.7132 422.962 91.8285C423.801 91.5572 425.134 90.3531 425.723 89.476C426.374 88.5101 426.34 87.3947 426.34 87.3947" fill="#6BB7BF"/>
    <path d="M426.045 80.6034L429.514 78.4309C429.514 78.4309 429.372 88.2617 423.398 91.6307C423.398 91.6307 427.004 84.6873 426.045 80.6034" fill="#86D1CD"/>
    <path d="M58.1664 176.824C58.1664 176.824 56.0933 178.901 53.7013 178.728C51.9257 178.599 50.1086 176.528 50.0361 176.388L48.741 179.737C48.741 179.737 52.0532 182.14 54.7893 181.256C55.6278 180.984 56.9608 179.78 57.5509 178.903C58.2014 177.937 58.1664 176.824 58.1664 176.824Z" fill="#6BB7BF"/>
    <path d="M57.8714 170.033L61.3423 167.861C61.3423 167.861 61.1986 177.689 55.2244 181.058C55.2244 181.058 58.8306 174.115 57.8714 170.033Z" fill="#86D1CD"/>
    <path d="M337.418 23.4468C337.418 23.4468 342.464 18.7799 346.251 25.7385L350.409 23.3556C350.409 23.3556 348.356 19.036 340.294 20.9499C335.021 22.2022 337.418 23.4468 337.418 23.4468Z" fill="#5685D8"/>
    <path d="M332.451 28.0124C332.451 28.0124 333.825 20.4606 344.171 20.4606C344.171 20.4606 340.294 20.9498 337.266 27.6524L332.451 28.0124" fill="#739AF0"/>
    <path d="M304.35 53.7781C304.35 53.7781 301.563 51.4332 301.27 48.6016C301.27 48.6016 298.557 48.7968 297.97 49.9705C297.97 49.9705 299.217 54.6577 300.684 55.5374C300.684 55.5374 303.982 55.8289 304.35 53.7781" fill="#ED7D2B"/>
    <path d="M489.054 251.249C489.054 251.249 486.268 248.905 485.974 246.073C485.974 246.073 483.263 246.268 482.676 247.439C482.676 247.439 483.923 252.127 485.388 253.006C485.388 253.006 488.688 253.3 489.054 251.249Z" fill="#ED7D2B"/>
    <path d="M34.2776 244.691C34.2776 244.691 31.4916 242.347 31.1984 239.515C31.1984 239.515 28.4857 239.71 27.8991 240.884C27.8991 240.884 29.1457 245.571 30.6118 246.448C30.6118 246.448 33.9111 246.742 34.2776 244.691" fill="#ED7D2B"/>
    </svg>
