<svg width="1068" height="663" viewBox="0 0 1068 663" fill="none" xmlns="http://www.w3.org/2000/svg">
    <path d="M1005.68 661.507C944.667 661.507 55.8845 661.724 55.3709 660.146L55.284 659.943C55.284 659.943 55.1971 659.75 55.1971 659.651C54.8576 658.86 -81.744 436.864 130.62 282.324C213.711 221.857 125.42 181.94 191.494 114.624C235.123 70.1762 281.04 79.5162 328.229 88.8561C363.174 95.7704 398.816 102.689 434.738 87.7634C449.658 81.5697 464.631 71.6034 479.615 56.31C488.05 47.7095 497.298 40.1924 507.194 33.6973C508.712 32.6987 510.245 31.7191 511.794 30.7724C517.719 27.141 523.864 23.8581 530.193 20.9096C534.445 18.9267 538.777 17.0946 543.188 15.4131H543.192C550.194 12.7425 557.384 10.4346 564.73 8.48939C575.163 5.7152 585.9 3.65687 596.853 2.26271C601.629 1.65041 606.445 1.17007 611.297 0.807399C705.647 -6.19637 811.824 33.2074 866.618 90.806C877.651 102.402 927.813 162.412 888.272 244.894C863.303 296.972 967.898 346.714 1005.06 406.178C1099.56 557.374 1006.53 659.538 1005.68 661.507" fill="#EBF3FA"/>
    <path d="M266.875 562.315C266.875 562.315 272.242 527.932 249.352 524.098C249.352 524.098 233.862 523.782 224.849 530.838C224.849 530.838 250.999 547.888 248.002 553.418C245.005 558.947 220.028 531.949 220.028 531.949C220.028 531.949 192.488 546.824 186.448 557.303C186.448 557.303 219.345 563.506 215.284 567.995C211.222 572.484 176.736 567.906 176.736 567.906C176.736 567.906 154.876 589.374 164.782 605.901C174.689 622.428 185.708 622.085 189.153 619.103C192.599 616.127 209.318 591.757 211.538 594.979C213.758 598.2 206.545 618.632 197.753 625.377C197.753 625.377 225.836 635.861 234.036 621.675C242.236 607.484 238.185 596.665 243.388 588.008C248.591 579.346 254.645 575.215 253.64 581.103C252.635 586.99 241.677 599.543 241.796 610.752C241.914 621.962 241.092 630.139 251.824 620.003C262.555 609.872 276.666 586.656 271.771 574.485C266.875 562.315 266.875 562.315 266.875 562.315" fill="#82B378"/>
    <path d="M176.936 598.21C176.936 598.21 241.356 550.106 266.875 562.315C266.875 562.315 275.703 571.452 290.714 574.999L294.706 578.894C294.706 578.894 276.281 572.545 271.771 574.485C271.771 574.485 264.574 542.641 176.936 598.21" fill="#82B378"/>
    <path d="M290.714 574.999C290.714 574.999 310.946 577.622 322.804 598.94L320.371 600.97C320.371 600.97 304.607 581.324 292.044 578.022C279.481 574.721 290.714 574.999 290.714 574.999" fill="#82B378"/>
    <path d="M278.085 290.981C276.927 286.897 275.656 283.511 274.377 282.089C274.377 282.089 274.882 281.566 275.48 280.435C275.128 280.963 274.761 281.514 274.377 282.089C270.582 287.788 262.877 290.001 254.084 290.001C242.448 290.001 228.909 286.125 220.011 281.316C204.391 272.876 212.615 269.386 223.19 262.966C226.539 260.931 230.636 260.286 234.868 260.286C238.602 260.286 242.442 260.79 245.962 261.294C249.484 261.803 252.686 262.307 255.149 262.307C256.246 262.307 257.196 262.208 257.961 261.963C264.112 259.989 256.805 254.342 245.675 252.345C244.767 252.185 243.88 252.109 243.006 252.109C238.691 252.109 234.708 253.913 230.195 255.722C225.683 257.526 220.641 259.335 214.207 259.335C212.414 259.335 210.512 259.193 208.485 258.873C190.43 256.023 184.688 213.261 184.688 213.261C190.164 217.025 198.474 218.518 205.802 218.518C213.619 218.518 220.317 216.822 221.255 214.387C223.072 209.668 190.592 201.312 185.838 198.453C181.084 195.589 174.597 181.299 184.751 159.045C188.808 150.152 196.447 147.481 204.158 147.481C215.75 147.481 227.507 153.515 227.507 153.515C227.507 153.515 242.435 201.397 248.968 204.228C249.16 204.308 249.336 204.35 249.496 204.35C254.776 204.345 243 160.354 243 160.354C253.309 161.965 273.296 179.001 281.827 186.64L280.822 214.679C279.065 225.093 277.974 235.521 279.973 238.347L278.085 290.981" fill="#CCDBFD"/>
    <path d="M866.578 616.72C853.146 616.725 837.397 614.322 828.298 604.691L804.037 410.304C807.176 409.339 810.639 408.783 814.454 408.722C814.454 408.722 843.727 412.532 859.267 428.4C859.267 428.4 806.459 453.109 810.975 464.389C811.488 465.675 812.629 466.245 814.246 466.245C826.808 466.245 868.135 431.862 868.135 431.862C868.135 431.862 917.004 467.738 926.235 489.225C926.235 489.225 862.934 491.556 869.668 501.179C876.406 510.801 942.373 511.974 942.373 511.974C942.373 511.974 979.175 558.674 957.101 587.019C943.594 604.361 930.599 609.678 921.199 609.678C915.234 609.678 910.718 607.54 908.436 604.983C902.852 598.718 878.676 552.716 872.086 552.716C871.734 552.716 871.434 552.848 871.185 553.125C866.337 558.565 875.737 599.147 890.93 614.365C890.93 614.365 879.897 616.72 866.578 616.72" fill="#BBCFF7"/>
    <path d="M290.712 659.378H704.162L741.73 127.078L304.965 127.544C301.179 127.544 284.255 127.073 283.311 145.277L266.32 619.009C265.664 640.99 276.774 659.378 290.712 659.378" fill="#6C7AFF"/>
    <path d="M598.466 127.228C604.335 101.785 614.76 68.7491 632.463 44.4926C633.952 42.4532 635.901 41.5489 637.823 41.5489C641.57 41.5489 645.209 44.9966 645.117 50.2341C645.113 50.3707 645.109 50.5025 645.105 50.6391C644.797 60.4406 625.297 93.0951 608.507 127.219L598.466 127.228" fill="#DBE7FB"/>
    <path d="M598.462 127.243C598.466 127.238 598.466 127.233 598.466 127.229L608.507 127.219C608.507 127.219 608.503 127.229 608.503 127.233L598.462 127.243Z" fill="#7C8CFF"/>
    <path d="M615.24 127.21C630.289 100.033 651.138 69.7758 676.868 50.592C678.157 49.6265 679.622 49.1602 681.067 49.1602C683.461 49.1602 685.807 50.4413 687.24 52.8952C688.737 55.4622 689.41 59.4657 687.729 65.7205C685.074 75.6021 661.975 99.3358 636.762 127.191L615.24 127.21" fill="#DBE7FB"/>
    <path d="M615.232 127.224C615.236 127.219 615.24 127.214 615.24 127.21L636.762 127.191C636.758 127.196 636.758 127.196 636.75 127.2L615.232 127.224" fill="#7C8CFF"/>
    <path d="M254.183 482.005C254.183 482.005 294.731 455.289 275.809 419.037C275.809 419.037 260.671 396.772 244.452 391.05C244.452 391.05 253.102 445.116 244.452 446.388C235.802 447.659 238.505 385.322 238.505 385.322C238.505 385.322 195.795 361.151 179.035 363.063C179.035 363.063 205.526 415.853 196.876 414.581C188.226 413.309 158.491 359.879 158.491 359.879C158.491 359.879 114.699 350.341 107.672 380.871C100.643 411.402 111.996 426.667 118.484 428.574C124.972 430.487 166.601 429.846 165.519 436.209C164.438 442.568 136.325 452.746 120.647 447.023C120.647 447.023 137.947 497.27 160.653 494.726C183.36 492.183 190.388 475.646 204.445 474.374C218.501 473.103 228.774 477.554 221.745 482.005C214.717 486.46 190.929 483.465 179.576 494.82C168.222 506.176 159.032 513.171 180.116 518.262C201.201 523.349 239.045 520.17 246.614 501.089C254.183 482.005 254.183 482.005 254.183 482.005" fill="#A8D29F"/>
    <path d="M127.675 390.414C127.675 390.414 241.208 433.666 254.183 482.004C254.183 482.004 253.643 503.633 264.996 528.44V537.978C264.996 537.978 253.102 505.54 246.614 501.089C246.614 501.089 272.024 459.109 127.675 390.414" fill="#82B378"/>
    <path d="M264.996 528.44C264.996 528.44 282.505 559.72 272.523 597.795L268.019 596.373C268.019 596.373 272.391 554.435 263.231 533.339C254.07 512.247 264.996 528.44 264.996 528.44Z" fill="#82B378"/>
    <path d="M816.648 659.053L377.658 659.529C369.46 659.534 362.202 650.665 360.728 638.838L311.087 241.064L308.058 216.794L300.245 154.165C298.482 140.044 305.571 127.563 315.357 127.549L754.348 127.078C762.543 127.068 769.801 135.933 771.278 147.764L779.893 216.794L782.856 240.56L831.761 632.432C833.522 646.553 826.432 659.044 816.648 659.053" fill="#CCDBFD"/>
    <path d="M779.893 216.794H308.058L300.245 154.165C298.482 140.044 305.571 127.563 315.357 127.549L754.348 127.078C762.543 127.068 769.801 135.933 771.278 147.764L779.893 216.794" fill="#739AF0"/>
    <path d="M571.888 190.47C570.899 183.975 574.406 178.643 580.547 178.624C584.282 178.61 586.765 180.075 589.022 182.156L587.185 185.133C585.307 183.442 583.394 182.302 581.076 182.312C577.197 182.321 574.935 185.92 575.623 190.455C576.304 194.925 579.671 198.571 583.55 198.561C586.04 198.552 587.461 197.407 588.918 195.575L591.605 198.175C589.867 200.662 587.789 202.235 583.994 202.249C578.089 202.268 572.897 197.092 571.888 190.47" fill="#F0F5FF"/>
    <path d="M612.314 190.342C611.637 185.906 608.21 182.227 604.187 182.241C600.16 182.251 597.902 185.882 598.59 190.385C599.263 194.822 602.69 198.5 606.717 198.491C610.741 198.477 612.998 194.845 612.314 190.342ZM594.855 190.399C593.875 183.97 597.458 178.572 603.683 178.553C609.908 178.534 615.06 183.838 616.049 190.333C617.03 196.757 613.447 202.155 607.222 202.179C600.992 202.198 595.84 196.889 594.855 190.399Z" fill="#F0F5FF"/>
    <path d="M620.801 178.892L624.1 178.883L637.363 194.643L634.961 178.85L638.464 178.836L641.939 201.679L638.956 201.689L625.305 185.472L627.779 201.722L624.276 201.731L620.801 178.892" fill="#F0F5FF"/>
    <path d="M651.394 182.519L644.965 182.538L644.401 178.822L660.846 178.77L661.415 182.491L654.985 182.51L657.896 201.628L654.305 201.642L651.394 182.519" fill="#F0F5FF"/>
    <path d="M666.783 178.751L681.816 178.704L682.36 182.293L670.895 182.331L671.795 188.265L681.96 188.237L682.508 191.826L672.344 191.859L673.277 197.992L684.886 197.959L685.435 201.543L670.262 201.59L666.783 178.751" fill="#F0F5FF"/>
    <path d="M688.361 178.685L691.66 178.676L704.923 194.435L702.521 178.643L706.024 178.629L709.499 201.472L706.516 201.482L692.865 185.265L695.339 201.515L691.836 201.524L688.361 178.685" fill="#F0F5FF"/>
    <path d="M718.955 182.312L712.525 182.331L711.961 178.615L728.406 178.563L728.975 182.284L722.545 182.302L725.456 201.42L721.865 201.434L718.955 182.312" fill="#F0F5FF"/>
    <path d="M459.655 576.6H411.374C407.331 576.6 403.54 572.743 402.911 567.986L395.405 511.178C394.777 506.421 397.547 502.564 401.594 502.564H449.874C453.918 502.564 457.709 506.421 458.338 511.178L465.844 567.986C466.472 572.743 463.702 576.6 459.655 576.6" fill="#B1C7F9"/>
    <path d="M540.622 576.6H492.342C488.294 576.6 484.503 572.743 483.875 567.986L476.373 511.178C475.74 506.421 478.51 502.564 482.558 502.564H530.838C534.885 502.564 538.672 506.421 539.301 511.178L546.807 567.986C547.436 572.743 544.665 576.6 540.622 576.6" fill="#B1C7F9"/>
    <path d="M445.767 469.966H397.487C393.444 469.966 389.652 466.108 389.024 461.347L381.518 404.544C380.889 399.782 383.659 395.925 387.707 395.925H435.987C440.03 395.925 443.821 399.782 444.45 404.544L451.956 461.347C452.585 466.108 449.814 469.966 445.767 469.966" fill="#B1C7F9"/>
    <path d="M422.776 420.709L437.464 423.021L428.885 434.702L433.853 451.093L419.849 443.42L408.232 451.243L408.156 434.82L396.01 423.261L409.965 420.784L414.077 405.82L422.776 420.709" fill="#F77D48"/>
    <path d="M755.741 366.388H707.461C703.414 366.388 699.627 362.531 698.998 357.769L691.492 300.966C690.863 296.209 693.634 292.347 697.677 292.347H745.961C750.004 292.347 753.796 296.209 754.424 300.966L761.93 357.769C762.559 362.531 759.789 366.388 755.741 366.388" fill="#B1C7F9"/>
    <path d="M410.161 559.889L421.247 526.57L435.839 545.086L440.631 537.667L456.46 559.847L410.161 559.889Z" fill="#6C7AFF"/>
    <path d="M428.188 521.78C427.792 519.143 429.333 517 431.631 516.995C433.929 516.995 436.111 519.133 436.507 521.776C436.904 524.413 435.362 526.556 433.065 526.556C430.767 526.561 428.585 524.423 428.188 521.78Z" fill="#6C7AFF"/>
    <path d="M621.585 576.6H573.305C569.258 576.6 565.471 572.743 564.842 567.986L557.336 511.178C556.707 506.421 559.478 502.564 563.521 502.564H611.805C615.849 502.564 619.64 506.421 620.268 511.178L627.775 567.986C628.403 572.743 625.633 576.6 621.585 576.6" fill="#B1C7F9"/>
    <path d="M572.368 559.889L583.45 526.57L598.046 545.086L602.838 537.667L618.667 559.847L572.368 559.889Z" fill="#6C7AFF"/>
    <path d="M590.396 521.78C589.999 519.143 591.54 517 593.838 516.995C596.132 516.995 598.318 519.133 598.715 521.776C599.107 524.413 597.566 526.556 595.272 526.556C592.974 526.561 590.788 524.423 590.396 521.78Z" fill="#6C7AFF"/>
    <path d="M688.665 469.966H640.381C636.338 469.966 632.547 466.108 631.918 461.347L624.412 404.544C623.783 399.782 626.554 395.925 630.601 395.925H678.881C682.929 395.925 686.716 399.782 687.344 404.544L694.85 461.347C695.479 466.108 692.709 469.966 688.665 469.966" fill="#B1C7F9"/>
    <path d="M637.231 449.977L648.312 416.658L662.908 435.173L667.696 427.755L683.529 449.934L637.231 449.977" fill="#6C7AFF"/>
    <path d="M655.253 411.868C654.861 409.23 656.402 407.087 658.696 407.087C660.994 407.082 663.18 409.221 663.572 411.863C663.969 414.501 662.427 416.644 660.13 416.648C657.832 416.648 655.65 414.51 655.253 411.868Z" fill="#6C7AFF"/>
    <path d="M512.847 366.388H464.567C460.519 366.388 456.732 362.531 456.1 357.769L448.597 300.966C447.969 296.209 450.735 292.347 454.783 292.347H503.063C507.11 292.347 510.901 296.209 511.53 300.966L519.032 357.769C519.661 362.531 516.894 366.388 512.847 366.388Z" fill="#B1C7F9"/>
    <path d="M468.342 307.419L474.919 351.321L500.661 329.344L468.342 307.419Z" fill="#F77D48"/>
    <path d="M607.698 469.966H559.418C555.374 469.966 551.583 466.108 550.955 461.347L543.448 404.544C542.82 399.782 545.59 395.925 549.634 395.925H597.918C601.961 395.925 605.752 399.782 606.381 404.544L613.887 461.347C614.516 466.108 611.745 469.966 607.698 469.966" fill="#F77D48"/>
    <path d="M564.778 410.997L571.356 454.894L597.097 432.922L564.778 410.997Z" fill="#FFE6C2"/>
    <path d="M769.629 469.966H721.349C717.301 469.966 713.514 466.108 712.886 461.347L705.379 404.544C704.751 399.782 707.521 395.925 711.564 395.925H759.845C763.892 395.925 767.683 399.782 768.312 404.544L775.814 461.347C776.447 466.108 773.676 469.966 769.629 469.966" fill="#B1C7F9"/>
    <path d="M702.553 576.6H654.269C650.225 576.6 646.434 572.743 645.806 567.986L638.299 511.178C637.671 506.421 640.441 502.564 644.489 502.564H692.769C696.816 502.564 700.603 506.421 701.232 511.178L708.738 567.986C709.366 572.743 706.596 576.6 702.553 576.6" fill="#B1C7F9"/>
    <path d="M593.811 366.388H545.53C541.487 366.388 537.696 362.531 537.067 357.769L529.561 300.966C528.932 296.209 531.703 292.347 535.75 292.347H584.03C588.074 292.347 591.865 296.209 592.493 300.966L600 357.769C600.628 362.531 597.858 366.388 593.811 366.388" fill="#B1C7F9"/>
    <path d="M579.559 319.137L547.408 319.166C546.775 319.166 546.235 318.633 546.127 317.899C545.983 316.961 546.599 316.104 547.408 316.099L579.559 316.071C580.191 316.071 580.732 316.603 580.844 317.338C580.984 318.275 580.367 319.137 579.559 319.137Z" fill="#6C7AFF"/>
    <path d="M580.856 327.79L548.705 327.823C548.072 327.823 547.532 327.286 547.42 326.556C547.28 325.618 547.892 324.756 548.705 324.756L580.856 324.728C581.488 324.728 582.029 325.26 582.137 325.995C582.281 326.932 581.664 327.79 580.856 327.79Z" fill="#6C7AFF"/>
    <path d="M582.153 336.447L550.002 336.475C549.369 336.475 548.829 335.943 548.717 335.208C548.577 334.271 549.189 333.409 550.002 333.409L582.153 333.38C582.785 333.38 583.326 333.913 583.434 334.647C583.574 335.585 582.961 336.447 582.153 336.447Z" fill="#6C7AFF"/>
    <path d="M755.377 422.715L723.226 422.743C722.594 422.743 722.053 422.211 721.941 421.476C721.801 420.539 722.413 419.677 723.222 419.677L755.373 419.649C756.005 419.649 756.55 420.181 756.658 420.916C756.798 421.853 756.186 422.715 755.377 422.715Z" fill="#6C7AFF"/>
    <path d="M756.674 431.367L724.523 431.4C723.891 431.4 723.35 430.863 723.238 430.133C723.098 429.191 723.711 428.334 724.519 428.334L756.67 428.301C757.307 428.301 757.847 428.838 757.955 429.568C758.095 430.505 757.483 431.367 756.674 431.367" fill="#6C7AFF"/>
    <path d="M757.971 440.024L725.82 440.052C725.188 440.052 724.647 439.52 724.535 438.786C724.395 437.848 725.008 436.986 725.816 436.986L757.967 436.958C758.599 436.958 759.144 437.49 759.252 438.225C759.392 439.162 758.78 440.024 757.971 440.024Z" fill="#6C7AFF"/>
    <path d="M526.37 532.444L494.219 532.477C493.587 532.477 493.042 531.94 492.934 531.21C492.794 530.268 493.407 529.411 494.215 529.411L526.366 529.378C526.999 529.378 527.543 529.915 527.651 530.645C527.791 531.587 527.179 532.444 526.37 532.444Z" fill="#6C7AFF"/>
    <path d="M527.667 541.101L495.516 541.129C494.884 541.129 494.339 540.597 494.231 539.862C494.091 538.925 494.704 538.063 495.512 538.063L527.663 538.035C528.296 538.035 528.836 538.567 528.948 539.302C529.088 540.239 528.476 541.101 527.667 541.101Z" fill="#6C7AFF"/>
    <path d="M528.964 549.753L496.814 549.786C496.181 549.786 495.637 549.249 495.529 548.519C495.388 547.577 496.001 546.72 496.81 546.72L528.96 546.687C529.593 546.687 530.133 547.224 530.245 547.954C530.386 548.891 529.773 549.753 528.964 549.753Z" fill="#6C7AFF"/>
    <path d="M688.301 532.444L656.15 532.477C655.514 532.477 654.973 531.94 654.865 531.21C654.725 530.268 655.338 529.411 656.146 529.411L688.297 529.378C688.93 529.378 689.47 529.915 689.582 530.645C689.722 531.587 689.11 532.444 688.301 532.444Z" fill="#6C7AFF"/>
    <path d="M689.594 541.101L657.443 541.129C656.811 541.129 656.27 540.597 656.162 539.862C656.022 538.925 656.635 538.063 657.443 538.063L689.594 538.035C690.227 538.035 690.767 538.567 690.879 539.302C691.019 540.239 690.407 541.101 689.594 541.101Z" fill="#6C7AFF"/>
    <path d="M690.891 549.753L658.741 549.786C658.108 549.786 657.568 549.249 657.459 548.519C657.319 547.577 657.932 546.72 658.741 546.72L690.891 546.687C691.524 546.687 692.064 547.224 692.176 547.954C692.316 548.891 691.704 549.753 690.891 549.753Z" fill="#6C7AFF"/>
    <path d="M526.735 469.966H478.454C474.407 469.966 470.62 466.108 469.987 461.347L462.485 404.544C461.857 399.782 464.623 395.925 468.67 395.925H516.95C520.998 395.925 524.785 399.782 525.417 404.544L532.92 461.347C533.548 466.108 530.778 469.966 526.735 469.966" fill="#B1C7F9"/>
    <path d="M498.943 454.315C498.903 454.315 498.855 454.315 498.811 454.31C497.911 454.253 496.946 453.632 496.365 452.723C491.205 444.65 484.976 437.09 477.85 430.261C476.777 429.234 476.465 427.736 477.153 426.921C477.842 426.111 479.275 426.285 480.348 427.317C486.409 433.124 491.862 439.436 496.61 446.124C499.244 431.311 505.333 418.038 514.364 407.492C515.053 406.687 516.486 406.866 517.559 407.897C518.632 408.934 518.94 410.427 518.248 411.237C508.64 422.451 502.494 436.883 500.477 452.967C500.377 453.792 499.776 454.31 498.943 454.315" fill="#F77D48"/>
    <path d="M414.737 264.374H366.777C363.835 264.374 360.992 261.61 360.424 258.19C359.86 254.775 361.785 252.006 364.728 252.006H412.688C415.63 252.006 418.476 254.775 419.041 258.19C419.609 261.61 417.68 264.374 414.737 264.374Z" fill="#F99746"/>
    <path d="M493.323 264.374H445.363C442.42 264.374 439.574 261.61 439.009 258.19C438.445 254.775 440.371 252.006 443.313 252.006H491.273C494.215 252.006 497.062 254.775 497.626 258.19C498.195 261.61 496.265 264.374 493.323 264.374Z" fill="#F99746"/>
    <path d="M578.482 264.374H530.522C527.579 264.374 524.733 261.61 524.168 258.19C523.6 254.775 525.53 252.006 528.472 252.006H576.432C579.374 252.006 582.221 254.775 582.785 258.19C583.35 261.61 581.424 264.374 578.482 264.374Z" fill="#F99746"/>
    <path d="M660.094 264.374H612.134C609.187 264.374 606.345 261.61 605.776 258.19C605.212 254.775 607.138 252.006 610.084 252.006H658.044C660.986 252.006 663.829 254.775 664.397 258.19C664.962 261.61 663.036 264.374 660.094 264.374Z" fill="#F99746"/>
    <path d="M741.79 264.374H693.83C690.887 264.374 688.041 261.61 687.476 258.19C686.908 254.775 688.833 252.006 691.78 252.006H739.74C742.682 252.006 745.525 254.775 746.093 258.19C746.658 261.61 744.732 264.374 741.79 264.374Z" fill="#F99746"/>
    <path d="M674.778 366.388H626.498C622.45 366.388 618.659 362.531 618.031 357.774L610.528 300.966C609.896 296.209 612.666 292.347 616.713 292.347H664.994C669.041 292.347 672.828 296.209 673.457 300.966L680.963 357.774C681.592 362.531 678.821 366.388 674.778 366.388Z" fill="#F77D48"/>
    <path d="M646.987 351.019C646.946 351.019 646.898 351.019 646.854 351.015C645.954 350.963 644.989 350.336 644.408 349.427C639.248 341.355 633.019 333.795 625.893 326.965C624.82 325.939 624.508 324.441 625.196 323.626C625.885 322.816 627.314 322.99 628.391 324.022C634.452 329.829 639.905 336.141 644.649 342.829C647.287 328.016 653.376 314.743 662.403 304.197C663.096 303.392 664.529 303.571 665.602 304.602C666.675 305.639 666.983 307.132 666.287 307.942C656.679 319.156 650.538 333.588 648.52 349.672C648.42 350.497 647.819 351.015 646.987 351.019" fill="#FFE6C2"/>
    <path d="M890.001 406.334C890.001 406.334 893.376 418.561 893.083 421.358C892.795 424.152 890.677 433.708 889.164 436.153C887.651 438.602 886.902 426.196 885.705 424.326C884.508 422.461 885.461 428.998 884.616 429.606C883.772 430.209 882.01 424.792 881.254 422.884C880.497 420.972 883.103 413.931 883.111 409.023C883.119 404.11 890.001 406.334 890.001 406.334" fill="#FFB27D"/>
    <path d="M810.643 309.214C809.706 295.192 822.649 285.579 832.873 292.875C833.082 293.021 833.29 293.176 833.494 293.331C848.799 304.918 881.814 358.993 884.088 364.41C886.358 369.826 893.068 412.918 893.068 412.918C893.068 412.918 884.777 416.484 880.901 412.786C880.901 412.786 867.458 371.918 865.473 369.874C863.487 367.829 811.708 333.649 811.268 320.833C811.151 317.447 810.919 313.372 810.643 309.214" fill="#233862"/>
    <path d="M764.641 276.648L768.836 290.821L686.095 324.714L681.904 310.542L764.641 276.648Z" fill="#F99746"/>
    <path d="M664.765 325.51L686.095 324.714L681.904 310.542L664.765 325.51Z" fill="#F9DDBF"/>
    <path d="M775.902 278.255L776.715 280.996C777.675 284.246 776.214 287.802 773.452 288.932L768.836 290.821L764.641 276.648L769.549 274.642C772.151 273.573 774.997 275.193 775.902 278.255" fill="#F9DDBF"/>
    <path d="M903.036 625.707C903.036 625.707 909.209 632.334 908.004 637.039C906.799 641.744 901.23 644.886 900.478 650.637C899.725 656.392 896.718 659.529 894.008 659.529C891.302 659.529 881.094 659.529 881.094 659.529C881.094 659.529 879.1 655.478 883.916 654.259C888.732 653.039 890.549 646.28 890.245 640.001C889.945 633.728 890.698 625.358 890.698 625.358L900.93 622.57L903.036 625.707" fill="#1C3051"/>
    <path d="M827.345 642.842C827.345 642.842 828.454 657.918 825.743 659.487L791.079 659.402C791.079 659.402 791.079 654.697 796.647 653.651C802.216 652.605 811.996 648.767 813.653 640.227C815.307 631.683 827.345 642.842 827.345 642.842" fill="#1C3051"/>
    <path d="M798.081 429.883C798.081 429.883 799.906 456.307 802.056 488.076C804.978 531.224 808.489 584.23 808.837 594.272C809.438 611.708 811.848 639.596 811.848 639.596C811.848 639.596 817.565 646.223 829.002 643.43C829.002 643.43 839.195 603.617 842.109 561.49C842.153 560.798 842.197 560.106 842.245 559.409C844.951 516.524 849.163 426.219 849.163 426.219L798.081 429.883" fill="#F99746"/>
    <path d="M798.081 429.884C798.081 429.884 799.906 456.307 802.056 488.076L842.109 561.49C842.153 560.798 842.197 560.106 842.245 559.409C844.951 516.524 849.163 426.219 849.163 426.219L798.081 429.884Z" fill="#EF7E29"/>
    <path d="M806.427 433.021C806.427 433.021 839.383 528.728 861.053 573.704C882.723 618.679 889.493 631.232 889.493 631.232C889.493 631.232 901.911 625.476 903.036 621.557C903.036 621.557 894.753 534.728 880.241 513.562C872.038 501.598 862.406 465.708 861.958 453.156C861.505 440.604 859.023 415.763 859.023 415.763L806.427 433.021" fill="#F99746"/>
    <path d="M834.843 289.455C834.843 289.455 812.765 302.633 799.834 298.234C799.834 298.234 807.44 291.607 807.272 281.966C807.184 276.771 806.592 273.902 806.592 273.902L815.059 265.745L823.089 257.936C822.805 279.366 834.843 289.455 834.843 289.455" fill="#FFB27D"/>
    <path d="M856.777 423.337C847.862 429.681 839.423 434.457 829.547 437.137C817.893 440.387 803.577 439.431 798.785 440.288C798.293 440.368 797.828 440.213 797.388 439.869C797.012 439.643 794.898 422.927 792.78 401.821C792.688 400.974 792.588 400.116 792.548 399.255L792.516 398.972C791.691 390.725 790.971 382.058 790.346 373.368C789.834 366.614 789.413 359.926 789.121 353.648C788.757 345.796 788.605 338.576 788.757 332.641C788.825 329.928 788.957 327.488 789.165 325.369C790.426 313.043 795.422 304.235 800.13 297.679L804.033 292.451C808.561 292.79 813.181 291.782 817.541 288.395C822.309 284.703 827.453 280.732 828.426 281.396C835.732 286.102 841.685 298.291 845.932 314.39C848.366 323.654 850.24 334.167 851.437 345.306C851.821 348.759 852.145 352.305 852.398 355.833C852.446 356.488 852.486 357.142 852.534 357.783C853.106 367.434 854.039 376.477 855.08 384.555C856.477 395.449 858.066 404.572 859.191 410.997C859.756 414.27 860.184 416.799 860.44 418.613C860.668 420.19 857.978 422.456 856.777 423.337" fill="#2B478B"/>
    <path d="M823.374 266.122C823.374 266.122 817.941 278.335 807.272 281.966C806.704 276.135 806.591 273.903 806.591 273.903L815.059 265.745L823.374 266.122" fill="#ED985F"/>
    <path d="M802.664 273.648C802.664 273.648 824.002 277.242 825.74 261.812C827.477 246.387 831.4 236.458 817.849 233.51C804.302 230.561 800.987 236.048 799.326 241.036C797.664 246.024 797.16 272.311 802.664 273.648" fill="#FFB27D"/>
    <path d="M832.957 231.315C833.146 231.051 833.586 230.83 834.579 230.74C834.579 230.74 833.774 230.18 832.717 230.17C832.481 228.555 831.7 225.7 829.318 225.06C829.318 225.06 830.603 225.832 830.8 227.552C827.997 224.297 822.068 222.017 805.799 223.911C784.349 226.407 791.703 242.421 794.517 244.286C797.328 246.151 804.242 240.697 809.43 241.06C814.618 241.422 815.751 250.211 817.529 251.379C819.31 252.547 818.581 250.423 820.939 249.104C823.293 247.786 823.598 252.416 822.965 255.444C822.329 258.477 825.663 262.377 825.663 262.377C825.663 262.377 825.663 262.377 828.894 258.115C832.125 253.852 834.939 236.058 833.374 232.318C833.234 231.988 833.097 231.649 832.957 231.315" fill="#2C3A64"/>
    <path d="M826.184 334.016C826.184 334.016 808.193 350.12 789.121 353.648C788.757 345.796 788.605 338.576 788.757 332.641L826.184 334.016" fill="#233862"/>
    <path d="M715.704 313.236C715.42 312.878 711.753 298.446 705.407 299.501C701.272 300.189 694.506 303.006 696.3 309.421C697.008 311.945 709.619 320.635 709.619 320.635L715.704 313.236Z" fill="#FFB27D"/>
    <path d="M828.406 302.897C838.666 310.118 837.834 328.101 826.861 333.687C826.636 333.8 826.412 333.913 826.184 334.016C809.294 341.99 752.703 342.358 747.634 341.402C742.566 340.445 708.818 321.93 708.818 321.93C708.818 321.93 711.144 311.917 715.952 310.339C715.952 310.339 752.058 321.106 754.624 320.381C757.19 319.66 810.855 289.775 819.991 296.77C822.409 298.621 825.363 300.754 828.406 302.897" fill="#2B478B"/>
    <path d="M340.071 348.905C340.071 348.905 342.057 345.052 343.27 342.918C344.483 340.789 346.901 338.133 347.517 338.816C348.138 339.499 345.66 342.32 345.772 343.262C345.884 344.204 350.031 341.039 350.48 340.328C351.377 338.901 353.75 337.365 354.043 339.16C354.335 340.954 352.57 346.597 351.769 348.217C350.968 349.842 347.621 352.409 345.772 353.177C343.922 353.944 340.752 355.739 340.752 355.739L340.071 348.905" fill="#FFB27D"/>
    <path d="M243.812 315.873C242.443 312.765 273.682 301.578 274.177 332.241C274.177 332.241 332.697 330.545 304.756 292.173C295.082 278.886 296.078 267.902 296.367 257.677C296.661 247.451 290.342 217.731 268.681 220.722C268.681 220.722 263.008 218.004 255.929 222.328C239.83 232.153 203.766 327.182 243.812 315.873" fill="#163560"/>
    <path d="M284.396 352.357C284.396 352.357 286.466 357.185 290.222 362.724C294.748 369.393 301.728 377.099 310.491 378.62C314.676 379.35 318.77 378.29 322.532 376.322L322.546 376.317C333.189 370.759 341.192 357.976 341.192 357.976C343.066 351.957 340.439 348.193 340.439 348.193C340.439 348.193 318.507 353.563 316.46 352.357C314.414 351.156 302.475 310.688 299.633 305.606C296.788 300.519 287.101 297.877 287.101 297.877L284.396 352.357" fill="#F99746"/>
    <path d="M290.222 362.724C294.748 369.393 301.728 377.099 310.491 378.62C314.676 379.35 318.77 378.29 322.532 376.322C322.116 376.388 311.487 377.932 307.25 369.012C302.929 359.917 298.255 345.466 291.835 350.285C289.065 352.362 289.188 357.529 290.222 362.724" fill="#ED7D2B"/>
    <path d="M204.219 625.283C204.219 625.283 197.661 632.324 198.941 637.326C200.22 642.328 206.138 645.663 206.938 651.781C207.738 657.895 210.936 661.229 213.815 661.229C216.694 661.229 227.541 661.229 227.541 661.229C227.541 661.229 229.66 656.924 224.542 655.629C219.423 654.334 217.494 647.146 217.814 640.477C218.134 633.808 217.334 624.915 217.334 624.915L206.458 621.948L204.219 625.283Z" fill="#2358A5"/>
    <path d="M259.721 628.274C259.721 628.274 257.362 658.102 260.241 659.769L297.085 659.68C297.085 659.68 297.085 654.678 291.167 653.566C285.249 652.455 274.853 648.376 273.094 639.295C271.335 630.219 259.721 628.274 259.721 628.274" fill="#2358A5"/>
    <path d="M233.466 414.289C241.048 394.281 245.687 388.539 244.802 382.331C244.142 377.711 246.809 296.171 246.809 296.171C247.708 295.842 249.511 295.55 250.498 295.291C253.607 294.481 256.182 291.909 257.253 288.381C258.543 284.128 259.569 277.85 259.545 269.979L260.516 270.205L276.846 274.011C276.846 274.011 276.474 280.059 276.464 285.753C276.464 285.8 276.464 285.847 276.463 285.894C276.443 290.84 279.202 295.206 283.241 296.581C285.304 297.278 287.099 297.881 287.099 297.881C287.099 297.881 293.096 318.021 294.24 338.712C295.386 359.403 283.337 368.395 294.331 409.739C305.556 451.973 229.278 425.338 233.466 414.289" fill="#FFB27D"/>
    <path d="M276.847 274.011C276.847 274.011 276.475 280.059 276.464 285.753C267.326 285.451 262.495 275.641 260.516 270.205L276.847 274.011" fill="#E8945B"/>
    <path d="M279.898 279.404C279.898 279.404 258.277 279.823 258.263 263.979C258.248 248.134 255.447 237.518 269.251 236.58C283.054 235.643 285.742 241.686 286.84 246.971C287.939 252.26 285.522 278.886 279.898 279.404Z" fill="#FFB27D"/>
    <path d="M279.098 236.19C279.098 236.19 273.178 254.78 264.093 257.531C255.009 260.277 251.068 257.413 251.068 257.413C251.068 257.413 258.036 250.899 259.483 239.534C259.483 239.534 274.633 227.344 279.098 236.19Z" fill="#163560"/>
    <path d="M277.631 237.702C277.631 237.702 282.02 239.633 283.827 243.396C285.594 247.079 287.099 251.959 286.75 257.945C286.75 257.945 291.21 245.308 286.197 238.163C280.883 230.585 277.631 237.702 277.631 237.702Z" fill="#163560"/>
    <path d="M275.194 269.574C275.194 269.574 276.686 271.882 279.67 271.717C282.074 271.585 283.002 269.131 283.002 269.131C283.002 269.131 278.586 267.878 275.194 269.574" fill="#EBF3FA"/>
    <path d="M231.379 332.241C231.379 332.241 230.831 341.345 231.379 352.277C231.745 359.521 237.973 369.223 238.856 371.621C241.074 377.64 243.574 378.62 243.574 378.62L262.919 384.201L269.721 386.161L291.17 378.62C291.17 378.62 300.94 346.54 297.017 328.477C293.094 310.419 287.101 297.876 287.101 297.876C287.101 297.876 269.598 318.04 246.808 296.167L231.379 332.241" fill="#F99746"/>
    <path d="M289.806 383.49C289.806 383.49 300.428 422.39 301.11 435.635C301.792 448.879 280.805 623.776 279.961 629.88C279.165 635.631 273.094 639.295 273.094 639.295C273.094 639.295 270.301 641.235 266.316 639.912C260.787 638.075 259.039 635.875 259.039 635.875C259.039 635.875 250.772 511.141 255.888 466.579C261.004 422.023 261.065 383.49 261.065 383.49H289.806Z" fill="#163560"/>
    <path d="M244.802 382.332C244.802 382.332 228.599 407.912 227.088 425.202C225.577 442.492 224.718 503.223 221.5 520.08C218.282 536.937 206.458 569.375 206.458 621.948C206.458 621.948 207.687 624.962 211.482 626.569C212.695 627.082 214.322 627.577 215.9 628.005C219.03 628.848 222.241 627.049 223.669 623.667C231.662 604.728 257.126 543.658 258.432 530.979C259.355 522.007 267.395 462.632 284.933 427.788C289.143 419.423 282.349 386.161 282.349 386.161L244.802 382.332" fill="#1C468A"/>
    <path d="M275.674 269.998C275.674 269.998 276.048 271.868 279.996 271.576C279.996 271.576 283.311 271.336 283.21 269.287C283.21 269.287 279.995 267.827 275.674 269.998Z" fill="white"/>
    <path d="M291.503 377.485C291.503 377.485 287.238 381.455 278.767 381.658C268.648 381.893 243.575 378.62 243.575 378.62C243.575 378.62 242.461 382.284 242.507 386.151C242.507 386.151 273.129 395.237 290.872 387.475C290.872 387.475 293.16 382.412 291.503 377.485Z" fill="#233862"/>
    <path d="M278.108 385.765C278.108 388.162 279.493 390.112 281.194 390.112C282.897 390.112 284.281 388.162 284.281 385.765C284.281 383.368 282.897 381.418 281.194 381.418C279.493 381.418 278.108 383.368 278.108 385.765ZM276.577 385.765C276.577 382.379 278.648 379.619 281.194 379.619C283.741 379.619 285.812 382.379 285.812 385.765C285.812 389.156 283.741 391.916 281.194 391.916C278.648 391.916 276.577 389.156 276.577 385.765Z" fill="white"/>
    <path d="M210.609 384.522L241.983 416.663L279.378 366.138L248.004 333.997L210.609 384.522Z" fill="#F77D48"/>
    <path d="M250.651 384.639C250.651 384.639 262.849 386.844 262.814 390.056C262.778 393.268 260.291 399.071 257.827 399.532C254.696 400.116 248.471 390.612 248.471 390.612L250.651 384.639" fill="#FFB27D"/>
    <path d="M250.908 385.402C250.908 385.402 254.994 383.646 257.992 384.371C260.991 385.096 263.762 384.559 263.08 385.84C262.399 387.126 258.343 386.651 257.699 387.15C257.056 387.654 257.046 387.338 257.046 387.338L250.908 385.402Z" fill="#FFB27D"/>
    <path d="M246.808 296.167C246.808 296.167 231.461 297.434 225.577 314.258C219.694 331.087 208.532 359.337 208.532 364.09C208.532 368.842 214.768 383.49 248.253 391.916C248.253 391.916 251.717 387.63 251.507 384.239C251.507 384.239 230.604 363.115 230.66 360.647C230.766 355.974 234.087 349.814 252.439 328.214C257.429 322.34 246.808 296.167 246.808 296.167" fill="#F99746"/>
    <path d="M415.154 361.819L366.849 380.344C362.802 381.893 358.314 379.345 356.829 374.645L339.09 318.582C337.605 313.881 339.679 308.818 343.726 307.263L392.03 288.744C396.078 287.194 400.566 289.742 402.051 294.443L419.79 350.506C421.279 355.202 419.201 360.27 415.154 361.819Z" fill="#F77D48"/>
    <path d="M362.174 361.979L367.262 323.155L385.197 336.772L388.652 327.234L408.484 344.18L362.174 361.979Z" fill="#FFE6C2"/>
    <path d="M373.343 315.525C372.47 312.939 373.627 310.127 375.925 309.242C378.223 308.361 380.793 309.741 381.666 312.327C382.534 314.917 381.377 317.729 379.084 318.615C376.786 319.495 374.216 318.115 373.343 315.525Z" fill="#FFE6C2"/>
    <path d="M343.27 342.918C343.27 342.918 345.243 339.475 347.517 338.816C349.791 338.156 352.041 337.021 352.041 337.021C353.006 338.236 348.967 340.478 348.918 342.532C348.874 344.585 349.511 347.958 346.917 348.353C344.327 348.744 343.27 342.918 343.27 342.918Z" fill="#FFB27D"/>
    <path d="M1066.46 662.619H1.41794C0.752583 662.619 0.208527 661.978 0.208527 661.196V660.706C0.208527 659.925 0.752583 659.284 1.41794 659.284H1066.46C1067.12 659.284 1067.66 659.925 1067.66 660.706V661.196C1067.66 661.978 1067.12 662.619 1066.46 662.619Z" fill="#233862"/>
    <path d="M456.9 185.708L520.317 199.15L479.067 163.401L476.577 174.187L460.972 176.82L456.9 185.708Z" fill="#9EC3F6"/>
    <path d="M520.317 199.15L468.266 164.687L416.367 159.37L520.317 199.15Z" fill="white"/>
    <path d="M479.067 163.401L520.317 199.15L489.215 144.717L479.067 163.401Z" fill="white"/>
    <path d="M105.698 569.403L54.545 580.246L87.8183 551.416L89.8264 560.11L102.414 562.239L105.698 569.403" fill="#9EC3F6"/>
    <path d="M54.545 580.246L96.5291 552.447L138.392 548.161L54.545 580.246Z" fill="white"/>
    <path d="M87.8183 551.416L54.545 580.246L79.6319 536.344L87.8183 551.416Z" fill="white"/>
    <path d="M310.196 638.885C310.196 639.724 310.238 640.557 310.327 641.367C310.595 643.972 311.28 646.421 312.298 648.63C313.095 650.354 314.099 651.918 315.267 653.293C318.405 656.981 322.729 659.261 327.514 659.261H571.084C580.647 659.261 588.406 650.137 588.406 638.885C588.406 633.257 586.468 628.161 583.33 624.477C580.199 620.785 575.867 618.505 571.084 618.505H327.514C317.95 618.505 310.196 627.628 310.196 638.885" fill="#F78248"/>
    <path d="M328.774 614.817H412.287C413.748 614.817 414.945 613.409 414.945 611.69C414.945 609.971 413.748 608.562 412.287 608.562H328.774C327.312 608.562 326.116 609.971 326.116 611.69C326.116 613.409 327.312 614.817 328.774 614.817Z" fill="#F78248"/>
    <path d="M333.385 618.505H342.437V614.817H333.385V618.505Z" fill="#EA642F"/>
    <path d="M312.298 648.63C313.095 650.354 314.099 651.918 315.267 653.293C318.405 656.981 322.729 659.261 327.514 659.261H379.108V648.63H312.298Z" fill="#EA642F"/>
    <path d="M620.645 632.913V644.853C620.645 646.157 620.497 647.429 620.22 648.63C618.811 654.758 614.055 659.261 608.403 659.261H354.683C349.031 659.261 344.275 654.758 342.865 648.63C342.589 647.429 342.441 646.157 342.441 644.853V632.913C342.441 624.958 347.918 618.505 354.683 618.505H608.403C615.168 618.505 620.645 624.958 620.645 632.913" fill="#F99746"/>
    <path d="M620.22 648.63C618.811 654.758 614.055 659.261 608.403 659.261H354.683C349.031 659.261 344.275 654.758 342.865 648.63H620.22Z" fill="#EF873A"/>
    <path d="M595.448 638.956C595.448 645.286 597.401 650.943 600.484 654.692C600.556 654.772 600.62 654.857 600.692 654.937C603.074 657.73 606.097 659.402 609.383 659.402C614.52 659.402 627.25 650.288 635.141 644.231C639.072 641.212 641.802 638.956 641.802 638.956C641.802 638.956 639.072 636.7 635.141 633.681C627.25 627.619 614.52 618.505 609.383 618.505C607.898 618.505 606.465 618.844 605.12 619.475C602.854 620.544 600.836 622.443 599.247 624.929C597.493 627.657 596.244 631.085 595.72 634.9C595.716 634.943 595.704 634.99 595.704 635.032C595.536 636.295 595.448 637.609 595.448 638.956" fill="#6C7AFF"/>
    <path d="M600.484 654.692C597.401 650.943 595.448 645.286 595.448 638.956C595.448 637.609 595.536 636.295 595.704 635.032L639.536 638.885L600.484 654.692" fill="#7190F5"/>
    <path d="M599.247 624.93L638.203 637.444L605.12 619.475C602.854 620.545 600.836 622.443 599.247 624.93" fill="#ABC3EF"/>
    <path d="M632.599 638.956C632.599 641.391 633.656 643.463 635.141 644.231C639.072 641.212 641.802 638.956 641.802 638.956C641.802 638.956 639.072 636.7 635.141 633.681C633.656 634.444 632.599 636.516 632.599 638.956Z" fill="#F99746"/>
    <path d="M664.765 325.51L668.777 322.001C668.777 322.001 670.07 323.367 670.166 325.51H664.765Z" fill="#2B478B"/>
    </svg>
