<svg width="1042" height="916" viewBox="0 0 1042 916" fill="none" xmlns="http://www.w3.org/2000/svg">
    <path d="M209.917 490.525H17.8094V69.7656H209.917V490.525Z" fill="#FAFAF9"/>
    <path d="M77.6518 494.56C77.6518 494.56 56.6107 305.258 45.58 284.458C45.58 284.458 108.52 225.298 110.447 64.969H14.9402V494.56H77.6518Z" fill="#F3F2F1"/>
    <path d="M150.048 493.722C150.048 493.722 171.09 304.423 182.119 283.619C182.119 283.619 119.18 224.461 117.253 64.1318H212.76V493.722H150.048Z" fill="#F3F2F1"/>
    <path d="M165.216 490.561V396.99H206.072V490.561H165.216ZM17.8094 396.99H56.423V490.561H17.8094V396.99ZM56.423 69.7656V167.302H17.8094V69.7656H56.423ZM206.072 167.302H165.216V69.7656H206.072V167.302ZM165.216 280.144V169.221H206.072V280.144H165.216ZM165.216 287.896H206.072V395.071H165.216V287.896ZM115.197 167.302V69.7656H163.497V167.302H115.197ZM115.197 396.99H163.497V490.561H115.197V396.99ZM109.007 396.99V490.561H58.1425V396.99H109.007ZM58.1425 167.302V69.7656H109.007V167.302H58.1425ZM109.007 287.896V395.071H58.1425V287.896H109.007ZM58.1425 280.144V169.221H109.007V280.144H58.1425ZM163.497 287.896V395.071H115.197V287.896H163.497ZM115.197 280.144V169.221H163.497V280.144H115.197ZM17.8094 280.144V169.221H56.423V280.144H17.8094ZM56.423 287.896V395.071H17.8094V287.896H56.423ZM214.976 53.7359H0V504.436H223.881V497.5V490.561V53.7359H214.976" fill="#E7E8E5"/>
    <path d="M864.038 643.201H279.52V153.116H864.038V643.201Z" fill="#F3F2F1"/>
    <path d="M864.038 202.07H279.52V153.116H864.038V202.07Z" fill="#E7E8E5"/>
    <path d="M304.839 177.594C304.839 180.63 302.724 183.092 300.114 183.092C297.506 183.092 295.391 180.63 295.391 177.594C295.391 174.557 297.506 172.097 300.114 172.097C302.724 172.097 304.839 174.557 304.839 177.594Z" fill="#FAFAF9"/>
    <path d="M320.084 177.594C320.084 180.63 317.969 183.092 315.361 183.092C312.751 183.092 310.636 180.63 310.636 177.594C310.636 174.557 312.751 172.097 315.361 172.097C317.969 172.097 320.084 174.557 320.084 177.594Z" fill="#FAFAF9"/>
    <path d="M335.331 177.594C335.331 180.63 333.216 183.092 330.606 183.092C327.998 183.092 325.883 180.63 325.883 177.594C325.883 174.557 327.998 172.097 330.606 172.097C333.216 172.097 335.331 174.557 335.331 177.594Z" fill="#FAFAF9"/>
    <path d="M1042.99 249.969H925.558V441.678L1042.99 445.369V249.969Z" fill="#E7E8E5"/>
    <path d="M1035.27 256.789H932.508V430.662L1035.27 435.004V256.789Z" fill="#FAFAF9"/>
    <path d="M1017.27 288.383L949.08 285.133V406.661H1017.27V288.383Z" fill="#E7E8E5"/>
    <path d="M949.08 406.661L1017.27 344.226L949.08 285.133V406.661Z" fill="#F3F2F1"/>
    <path d="M1030.05 115.068L964.69 112.519V219.214L1030.05 221.268V115.068Z" fill="#E7E8E5"/>
    <path d="M1025.75 119.711L968.556 116.316V213.083L1025.75 215.5V119.711Z" fill="#FAFAF9"/>
    <path d="M1015.73 133.9L977.78 132.091V199.725H1015.73V133.9Z" fill="#E7E8E5"/>
    <path d="M977.78 199.725L1015.73 164.979L977.78 132.091V199.725Z" fill="#F3F2F1"/>
    <path d="M580.36 24.6968L574.099 97.4351H654.322L660.974 24.6968H580.36" fill="#E7E8E5"/>
    <path d="M583.658 29.4826L577.567 93.1319H649.967L655.825 29.4826H583.658Z" fill="#FAFAF9"/>
    <path d="M595.842 40.627L592.093 82.8658H637.782L640.128 40.627H595.842Z" fill="#E7E8E5"/>
    <path d="M685.021 2.20008e-05L676.636 97.4351H784.097L793.008 2.20008e-05H685.021Z" fill="#E7E8E5"/>
    <path d="M689.44 6.41061L681.28 91.6715H778.264L786.11 6.41061H689.44Z" fill="#FAFAF9"/>
    <path d="M705.761 21.3412L700.74 77.92H761.942L765.082 21.3412H705.761Z" fill="#E7E8E5"/>
    <path d="M833.111 108.651H520.161V97.4351H833.111V108.651Z" fill="#E7E8E5"/>
    <path d="M573.708 135.901L560.01 108.651H580.36V135.901H573.708Z" fill="#E7E8E5"/>
    <path d="M566.624 108.651L578.737 135.901H580.36V108.651H566.624Z" fill="#DADBD8"/>
    <path d="M754.282 135.901L740.584 108.651H760.932V135.901H754.282Z" fill="#E7E8E5"/>
    <path d="M747.196 108.651L759.311 135.901H760.933V108.651H747.196" fill="#DADBD8"/>
    <path d="M145.81 763.704C174.606 740.107 181.921 694.927 181.599 654.112C181.545 647.297 182.292 640.138 179.786 634.086C177.282 628.035 171.248 623.773 166.257 626.492C162.119 628.749 160.22 634.577 157.835 639.372C154.663 645.752 150.02 650.973 144.613 654.235C141.061 656.382 136.694 657.626 133.276 655.161C128.585 651.78 128.184 643.651 128.352 636.879C128.662 624.262 128.973 611.644 129.284 599.028C129.451 592.259 129.603 585.346 128.024 578.871C126.445 572.391 122.796 566.309 117.618 564.351C112.44 562.389 105.919 565.909 104.689 572.505C104.177 575.249 104.577 578.126 104.369 580.932C104.162 583.739 103.041 586.815 100.865 587.533C98.6618 588.26 96.5075 586.276 94.9077 584.247C89.3846 577.241 85.7187 568.319 82.3026 559.453C78.8865 550.589 75.5812 541.519 70.5949 533.908C65.6085 526.299 58.6238 520.178 50.7864 519.393C42.9499 518.61 34.469 524.343 32.3 533.806C30.1234 543.289 34.4421 553.109 39.1962 560.985C46.2478 572.663 54.6576 583.061 64.0774 591.742C65.7759 593.306 67.6162 595 68.2279 597.529C69.3296 602.077 65.7787 606.46 62.1438 607.832C58.025 609.392 53.6037 608.734 49.3181 609.229C45.0331 609.723 40.3574 611.912 38.6426 616.854C36.2635 623.708 40.8063 631.101 45.3228 635.99C54.3665 645.78 64.7599 653.612 75.904 659.036C79.9 660.981 84.1113 662.708 87.2923 666.304C90.4748 669.899 92.3172 676.044 90.2615 680.752C88.2025 685.47 83.1317 686.844 78.9271 685.75C74.7238 684.657 70.9979 681.712 67.012 679.715C59.5502 675.975 49.8103 676.329 44.8301 684.226C41.5563 689.415 41.1324 696.771 42.6123 703.118C44.0921 709.466 47.2374 714.992 50.5927 720.1C62.3201 737.958 77.4971 752.504 94.8218 760.513C112.146 768.52 128.294 771.027 145.81 763.704" fill="#F03D5F"/>
    <path d="M40.3986 524.754C40.3878 524.771 40.564 524.992 40.9184 525.414C41.314 525.873 41.8406 526.48 42.511 527.255C43.9165 528.865 45.9871 531.242 48.5849 534.39C53.7907 540.665 61.0933 550.093 68.9705 562.927C72.926 569.325 77.0239 576.558 81.3109 584.42C85.5864 592.295 90.111 600.746 94.599 609.848C99.0872 618.946 103.568 628.688 107.553 639.188C109.565 644.426 111.342 649.902 113.156 655.484C114.96 661.059 116.789 666.719 118.641 672.446C125.984 695.384 132.403 717.538 136.895 738.185C141.417 758.817 143.975 777.892 144.941 794.018C145.939 810.151 145.413 823.277 144.706 832.275C144.331 836.773 143.983 840.263 143.68 842.614C143.551 843.744 143.449 844.636 143.373 845.302C143.31 845.905 143.285 846.219 143.302 846.224C143.319 846.228 143.377 845.923 143.474 845.324C143.575 844.661 143.709 843.779 143.879 842.656C144.249 840.313 144.66 836.83 145.097 832.327C145.925 823.325 146.562 810.155 145.652 793.953C144.773 777.758 142.277 758.594 137.791 737.882C133.334 717.155 126.925 694.936 119.576 671.979C117.722 666.247 115.889 660.588 114.083 655.008C112.271 649.443 110.474 643.924 108.445 638.658C104.425 628.104 99.9095 618.342 95.3883 609.236C90.8664 600.127 86.3088 591.683 82.0009 583.829C77.6774 575.984 73.5363 568.765 69.5336 562.382C61.5593 549.578 54.1519 540.208 48.855 534.036C46.2106 530.935 44.0955 528.614 42.646 527.065C41.9473 526.329 41.3984 525.751 40.9865 525.316C40.6085 524.929 40.41 524.737 40.3986 524.754" fill="#17282F"/>
    <path d="M108.157 638.602C108.225 638.617 108.433 637.593 108.75 635.731C109.074 633.868 109.47 631.155 109.923 627.795C110.83 621.073 111.826 611.746 112.892 601.451C113.958 591.153 115.06 581.867 116.048 575.184C116.533 571.843 116.949 569.143 117.256 567.278C117.553 565.415 117.686 564.37 117.618 564.351C117.551 564.327 117.289 565.331 116.874 567.166C116.45 568.998 115.926 571.679 115.349 575.011C114.178 581.674 112.961 590.98 111.893 601.287C110.863 611.447 109.931 620.638 109.219 627.661C108.879 630.83 108.593 633.504 108.364 635.646C108.165 637.535 108.088 638.586 108.157 638.602" fill="#17282F"/>
    <path d="M38.0182 620.227C38.0134 620.313 39.0125 620.486 40.8192 620.726C42.6237 620.98 45.2364 621.328 48.4513 621.886C54.8871 622.94 63.7371 624.779 73.4283 627.336C83.1201 629.917 91.8109 632.712 98.0488 634.958C101.175 636.055 103.686 637.027 105.424 637.684C107.161 638.353 108.133 638.684 108.157 638.602C108.18 638.519 107.252 638.033 105.55 637.219C103.846 636.419 101.362 635.315 98.2541 634.106C92.0491 631.633 83.3572 628.69 73.6376 626.103C63.916 623.537 55.0146 621.83 48.535 620.999C45.2998 620.553 42.6676 620.339 40.8488 620.238C39.0287 620.147 38.0222 620.138 38.0182 620.227" fill="#17282F"/>
    <path d="M136.955 736.255C136.986 736.275 137.159 735.913 137.458 735.206C137.801 734.366 138.219 733.336 138.726 732.095C139.816 729.383 141.311 725.414 143.105 720.476C146.699 710.605 151.317 696.779 156.247 681.433C161.179 666.083 165.686 652.221 169.109 642.271C170.787 637.435 172.166 633.457 173.191 630.501C173.63 629.218 173.991 628.158 174.287 627.291C174.527 626.551 174.639 626.153 174.606 626.133C174.575 626.116 174.404 626.477 174.104 627.182C173.761 628.022 173.343 629.05 172.837 630.294C171.746 633.005 170.252 636.975 168.457 641.912C164.864 651.784 160.245 665.611 155.313 680.962C150.383 696.305 145.876 710.165 142.453 720.117C140.776 724.952 139.396 728.93 138.37 731.887C137.932 733.17 137.571 734.23 137.275 735.097C137.034 735.838 136.923 736.236 136.955 736.255" fill="#17282F"/>
    <path d="M44.057 696.171C44.0468 696.215 44.3629 696.385 44.9764 696.675C45.7016 696.998 46.5927 697.398 47.6736 697.88C50.1647 698.96 53.5295 700.421 57.6212 702.195C66.0189 705.838 77.5735 711.037 90.3331 716.805C103.097 722.575 114.701 727.644 123.164 731.078C127.394 732.795 130.829 734.142 133.219 735.013C134.323 735.405 135.233 735.731 135.974 735.993C136.607 736.203 136.944 736.297 136.955 736.255C136.966 736.212 136.648 736.041 136.035 735.751C135.309 735.426 134.42 735.028 133.338 734.546C130.847 733.466 127.484 732.006 123.391 730.234C114.993 726.586 103.438 721.389 90.6739 715.62C77.9143 709.853 66.312 704.782 57.8488 701.349C53.6178 699.631 50.1822 698.285 47.7937 697.415C46.6891 697.019 45.7792 696.697 45.0386 696.433C44.4047 696.221 44.0672 696.13 44.057 696.171" fill="#17282F"/>
    <path d="M930.392 845.661C930.392 845.973 736.576 846.224 497.55 846.224C258.438 846.224 64.6653 845.973 64.6653 845.661C64.6653 845.352 258.438 845.096 497.55 845.096C736.576 845.096 930.392 845.352 930.392 845.661Z" fill="#17282F"/>
    <path d="M770.751 194.799H182.396C172.251 194.799 164.03 205.091 164.03 217.789V738.017C164.03 750.714 172.251 761.008 182.396 761.008H408.204C408.204 761.008 422.568 816.611 378.041 845.382H589.185C589.185 845.382 538.911 823.807 551.838 761.008H770.753C780.894 761.008 789.117 750.714 789.117 738.018V217.791C789.117 205.091 780.894 194.799 770.751 194.799" fill="#17282F"/>
    <path d="M485.042 706.104C493.046 720.422 480.519 736.104 469.078 726.088C468.701 725.755 468.359 725.327 468.094 724.854C460.113 710.537 472.624 694.877 484.059 704.873C484.435 705.202 484.779 705.63 485.042 706.104Z" fill="#33535F"/>
    <path d="M769.571 664.603H183.576C180.451 664.603 177.92 661.431 177.92 657.52V228.154C177.92 224.242 180.451 221.073 183.576 221.073H769.571C772.695 221.073 775.227 224.242 775.227 228.152V657.522C775.227 661.433 772.695 664.603 769.571 664.603" fill="#DADBD8"/>
    <path d="M775.227 664.603H177.92V253.569H775.227V664.603Z" fill="#FAFAF9"/>
    <path d="M226.908 238.202C226.908 241.499 224.772 244.173 222.138 244.173C219.502 244.173 217.368 241.499 217.368 238.202C217.368 234.902 219.502 232.23 222.138 232.23C224.772 232.23 226.908 234.902 226.908 238.202Z" fill="#F03D5F"/>
    <path d="M197.997 238.202C197.997 241.499 195.861 244.173 193.225 244.173C190.591 244.173 188.455 241.499 188.455 238.202C188.455 234.902 190.591 232.23 193.225 232.23C195.861 232.23 197.997 234.902 197.997 238.202Z" fill="#F03D5F"/>
    <path d="M211.873 238.202C211.873 241.499 209.739 244.173 207.103 244.173C204.469 244.173 202.333 241.499 202.333 238.202C202.333 234.902 204.469 232.23 207.103 232.23C209.739 232.23 211.873 234.902 211.873 238.202Z" fill="#F03D5F"/>
    <path d="M472.232 444.96C472.232 445.296 450.35 445.568 423.363 445.568C396.367 445.568 374.491 445.296 374.491 444.96C374.491 444.623 396.367 444.35 423.363 444.35C450.35 444.35 472.232 444.623 472.232 444.96Z" fill="#33535F"/>
    <path d="M472.232 461.332C472.232 461.672 450.35 461.944 423.363 461.944C396.367 461.944 374.491 461.672 374.491 461.332C374.491 460.997 396.367 460.724 423.363 460.724C450.35 460.724 472.232 460.997 472.232 461.332Z" fill="#33535F"/>
    <path d="M433.071 477.708C433.071 478.043 419.955 478.316 403.782 478.316C387.603 478.316 374.491 478.043 374.491 477.708C374.491 477.372 387.603 477.1 403.782 477.1C419.955 477.1 433.071 477.372 433.071 477.708Z" fill="#33535F"/>
    <path d="M420.957 285.023H374.491V277.645H420.957V285.023Z" fill="#33535F"/>
    <path d="M476.615 425.09H374.491V301.403H476.615V425.09Z" fill="#DADBD8"/>
    <path d="M382.408 414.502L410.658 350.855L433.766 391.536L447.806 369.933L468.696 414.502H382.408" fill="#F03D5F"/>
    <path d="M443.61 338.475C443.61 343.557 440.319 347.677 436.259 347.677C432.201 347.677 428.911 343.557 428.911 338.475C428.911 333.395 432.201 329.276 436.259 329.276C440.319 329.276 443.61 333.395 443.61 338.475Z" fill="#F03D5F"/>
    <path d="M468.696 414.848C468.689 414.837 468.682 414.667 468.673 414.34C468.668 413.97 468.66 413.498 468.651 412.899C468.639 411.581 468.622 409.725 468.601 407.332C468.577 402.427 468.54 395.333 468.494 386.326C468.44 368.261 468.367 342.534 468.279 311.645L468.696 312.167C443.705 312.193 414.08 312.223 382.417 312.253C382.301 312.381 383.329 311.109 382.894 311.662V311.688V311.745V311.855V312.076V312.517V313.4V315.161V318.675C382.894 321.013 382.894 323.339 382.894 325.656C382.892 330.293 382.892 334.884 382.89 339.429C382.887 348.518 382.883 357.417 382.878 366.082C382.863 383.403 382.847 399.781 382.831 414.846L382.408 414.316C408.163 414.428 429.673 414.522 444.797 414.586C452.338 414.645 458.283 414.692 462.393 414.725C464.403 414.751 465.96 414.773 467.063 414.788C467.567 414.801 467.963 414.809 468.271 414.816C468.545 414.827 468.689 414.837 468.696 414.848C468.704 414.857 468.578 414.868 468.319 414.876C468.022 414.885 467.642 414.896 467.156 414.907C466.072 414.922 464.543 414.943 462.569 414.969C458.482 415.002 452.568 415.047 445.069 415.108C429.879 415.173 408.273 415.266 382.408 415.378L381.985 415.38V414.846C381.971 399.781 381.953 383.403 381.938 366.082C381.934 357.417 381.929 348.518 381.926 339.429C381.924 334.884 381.924 330.293 381.922 325.656C381.922 323.339 381.922 321.013 381.922 318.675V315.161L381.921 313.4V312.517V312.076V311.855V311.745V311.688V311.662C381.487 312.197 382.512 310.899 382.417 311.035C414.08 311.068 443.705 311.098 468.696 311.122H469.116L469.114 311.645C469.026 342.67 468.952 368.512 468.902 386.659C468.855 395.614 468.817 402.67 468.793 407.546C468.77 409.898 468.755 411.72 468.744 413.011C468.734 413.589 468.725 414.043 468.72 414.398C468.713 414.705 468.704 414.857 468.696 414.848" fill="#33535F"/>
    <path d="M596.729 444.96C596.729 445.296 574.847 445.568 547.86 445.568C520.864 445.568 498.987 445.296 498.987 444.96C498.987 444.623 520.864 444.35 547.86 444.35C574.847 444.35 596.729 444.623 596.729 444.96" fill="#33535F"/>
    <path d="M596.729 461.332C596.729 461.672 574.847 461.944 547.86 461.944C520.864 461.944 498.987 461.672 498.987 461.332C498.987 460.997 520.864 460.724 547.86 460.724C574.847 460.724 596.729 460.997 596.729 461.332" fill="#33535F"/>
    <path d="M557.566 477.708C557.566 478.043 544.452 478.316 528.278 478.316C512.1 478.316 498.987 478.043 498.987 477.708C498.987 477.372 512.1 477.1 528.278 477.1C544.452 477.1 557.566 477.372 557.566 477.708Z" fill="#33535F"/>
    <path d="M545.454 285.023H498.987V277.645H545.454V285.023Z" fill="#33535F"/>
    <path d="M601.112 425.09H498.987V301.403H601.112V425.09Z" fill="#DADBD8"/>
    <path d="M506.905 414.502L535.155 350.855L558.264 391.536L572.304 369.933L593.194 414.502H506.905" fill="#F03D5F"/>
    <path d="M568.107 338.475C568.107 343.557 564.818 347.677 560.758 347.677C556.698 347.677 553.407 343.557 553.407 338.475C553.407 333.395 556.698 329.276 560.758 329.276C564.818 329.276 568.107 333.395 568.107 338.475Z" fill="#F03D5F"/>
    <path d="M593.194 414.848C593.187 414.837 593.179 414.667 593.17 414.34C593.165 413.97 593.156 413.498 593.148 412.899C593.136 411.581 593.12 409.725 593.099 407.332C593.073 402.427 593.037 395.333 592.989 386.326C592.939 368.261 592.864 342.534 592.776 311.645L593.194 312.167C568.203 312.193 538.579 312.223 506.913 312.253C506.798 312.381 507.826 311.109 507.392 311.662V311.688V311.745V311.855V312.076V312.517V313.4V315.161V318.675C507.392 321.013 507.392 323.339 507.39 325.656C507.39 330.293 507.389 334.884 507.389 339.429C507.383 348.518 507.38 357.417 507.375 366.082C507.359 383.403 507.344 399.781 507.328 414.846L506.906 414.316C532.658 414.428 554.17 414.522 569.294 414.586C576.836 414.645 582.781 414.692 586.891 414.725C588.9 414.751 590.458 414.773 591.559 414.788C592.064 414.801 592.46 414.809 592.767 414.816C593.044 414.827 593.186 414.837 593.194 414.848C593.201 414.857 593.075 414.868 592.818 414.876C592.519 414.885 592.138 414.896 591.653 414.907C590.571 414.922 589.04 414.943 587.068 414.969C582.978 415.002 577.066 415.047 569.567 415.108C554.377 415.173 532.772 415.266 506.906 415.378L506.483 415.38L506.481 414.846C506.467 399.781 506.452 383.403 506.435 366.082C506.431 357.417 506.428 348.518 506.422 339.429C506.422 334.884 506.421 330.293 506.421 325.656C506.421 323.339 506.419 321.013 506.419 318.675V315.161V313.4V312.517V312.076V311.855V311.745V311.688V311.662C505.985 312.197 507.008 310.899 506.913 311.035C538.579 311.068 568.203 311.098 593.194 311.122H593.614L593.613 311.645C593.523 342.67 593.45 368.512 593.398 386.659C593.35 395.614 593.315 402.67 593.289 407.546C593.269 409.898 593.253 411.72 593.241 413.011C593.231 413.589 593.224 414.043 593.217 414.398C593.208 414.705 593.201 414.857 593.194 414.848" fill="#33535F"/>
    <path d="M424.229 507.902H377.761V500.524H424.229V507.902Z" fill="#33535F"/>
    <path d="M479.886 647.968H377.761V524.28H479.886V647.968Z" fill="#DADBD8"/>
    <path d="M385.68 637.381L413.93 573.734L437.037 614.413L451.078 592.81L471.967 637.381H385.68" fill="#F03D5F"/>
    <path d="M446.88 561.355C446.88 566.437 443.591 570.554 439.531 570.554C435.471 570.554 432.181 566.437 432.181 561.355C432.181 556.272 435.471 552.155 439.531 552.155C443.591 552.155 446.88 556.272 446.88 561.355Z" fill="#F03D5F"/>
    <path d="M471.967 637.725C471.961 637.717 471.952 637.546 471.943 637.217C471.938 636.847 471.929 636.377 471.921 635.776C471.909 634.461 471.893 632.604 471.872 630.209C471.846 625.307 471.81 618.21 471.764 609.206C471.712 591.14 471.639 565.411 471.549 534.524L471.967 535.046C446.977 535.07 417.352 535.1 385.687 535.132C385.571 535.26 386.601 533.988 386.165 534.54V534.568V534.622V534.732V534.955V535.396V536.277V538.04V541.554C386.165 543.89 386.164 546.218 386.164 548.536C386.164 553.17 386.164 557.763 386.162 562.307C386.157 571.398 386.153 580.296 386.15 588.959C386.132 606.283 386.117 622.658 386.103 637.725L385.68 637.195C411.433 637.306 432.945 637.399 448.067 637.466C455.609 637.524 461.555 637.57 465.664 637.602C467.673 637.63 469.23 637.652 470.332 637.665C470.837 637.678 471.233 637.686 471.542 637.695C471.817 637.706 471.961 637.715 471.967 637.725C471.976 637.736 471.848 637.747 471.591 637.753C471.293 637.762 470.911 637.773 470.426 637.786C469.344 637.799 467.813 637.821 465.841 637.847C461.753 637.879 455.839 637.927 448.34 637.987C433.15 638.052 411.545 638.145 385.68 638.255L385.256 638.258V637.725C385.241 622.658 385.225 606.283 385.21 588.959C385.204 580.296 385.201 571.398 385.196 562.307C385.196 557.763 385.194 553.17 385.194 548.536C385.192 546.218 385.192 543.89 385.192 541.554V538.04V536.277V535.396V534.955V534.732V534.622V534.568V534.54C384.758 535.074 385.783 533.778 385.687 533.912C417.352 533.945 446.977 533.975 471.967 533.999H472.387L472.386 534.524C472.296 565.547 472.223 591.391 472.171 609.537C472.125 618.494 472.088 625.549 472.063 630.426C472.042 632.775 472.026 634.597 472.014 635.891C472.004 636.468 471.997 636.921 471.992 637.278C471.983 637.583 471.976 637.736 471.967 637.725" fill="#33535F"/>
    <path d="M548.814 507.902H502.347V500.524H548.814V507.902Z" fill="#33535F"/>
    <path d="M604.47 647.968H502.347V524.28H604.47V647.968Z" fill="#DADBD8"/>
    <path d="M510.264 637.381L538.515 573.734L561.622 614.413L575.663 592.81L596.552 637.381H510.264" fill="#F03D5F"/>
    <path d="M571.465 561.355C571.465 566.437 568.176 570.554 564.116 570.554C560.058 570.554 556.766 566.437 556.766 561.355C556.766 556.272 560.058 552.155 564.116 552.155C568.176 552.155 571.465 556.272 571.465 561.355Z" fill="#F03D5F"/>
    <path d="M596.552 637.725C596.545 637.717 596.537 637.546 596.528 637.217C596.523 636.847 596.514 636.377 596.506 635.776C596.495 634.461 596.478 632.604 596.457 630.209C596.433 625.307 596.395 618.21 596.348 609.206C596.297 591.14 596.222 565.411 596.136 534.524L596.552 535.046C571.561 535.07 541.935 535.1 510.273 535.132C510.156 535.26 511.186 533.988 510.75 534.54V534.568V534.622V534.732V534.955V535.396V536.277V538.04V541.554C510.75 543.89 510.75 546.218 510.748 548.536C510.748 553.17 510.747 557.763 510.745 562.307C510.743 571.398 510.738 580.296 510.735 588.959C510.717 606.283 510.702 622.658 510.688 637.725L510.264 637.195C536.018 637.306 557.529 637.399 572.654 637.466C580.194 637.524 586.139 637.57 590.249 637.602C592.259 637.63 593.816 637.652 594.919 637.665C595.424 637.678 595.818 637.686 596.127 637.695C596.402 637.706 596.544 637.715 596.552 637.725C596.561 637.736 596.435 637.747 596.174 637.753C595.877 637.762 595.498 637.773 595.011 637.786C593.927 637.799 592.399 637.821 590.426 637.847C586.338 637.879 580.424 637.927 572.923 637.987C557.735 638.052 536.13 638.145 510.264 638.255L509.841 638.258V637.725C509.825 622.658 509.81 606.283 509.794 588.959C509.789 580.296 509.786 571.398 509.782 562.307C509.781 557.763 509.779 553.17 509.779 548.536C509.777 546.218 509.777 543.89 509.777 541.554V538.04V536.277V535.396V534.955V534.732V534.622V534.568V534.54C509.343 535.074 510.368 533.778 510.273 533.912C541.935 533.945 571.561 533.975 596.552 533.999H596.971L596.969 534.524C596.881 565.547 596.808 591.391 596.756 609.537C596.71 618.494 596.673 625.549 596.649 630.426C596.627 632.775 596.611 634.597 596.599 635.891C596.589 636.468 596.582 636.921 596.577 637.278C596.568 637.583 596.561 637.736 596.552 637.725" fill="#33535F"/>
    <path d="M677.37 507.902H630.902V500.524H677.37V507.902Z" fill="#33535F"/>
    <path d="M733.026 647.968H630.902V524.28H733.026V647.968Z" fill="#DADBD8"/>
    <path d="M638.819 637.381L667.071 573.734L690.178 614.413L704.219 592.81L725.109 637.381H638.819" fill="#F03D5F"/>
    <path d="M700.021 561.355C700.021 566.437 696.73 570.554 692.672 570.554C688.613 570.554 685.322 566.437 685.322 561.355C685.322 556.272 688.613 552.155 692.672 552.155C696.73 552.155 700.021 556.272 700.021 561.355Z" fill="#F03D5F"/>
    <path d="M725.109 637.725C725.1 637.717 725.093 637.546 725.085 637.217C725.079 636.847 725.071 636.377 725.06 635.776C725.05 634.461 725.034 632.604 725.014 630.209C724.988 625.307 724.951 618.21 724.905 609.206C724.853 591.14 724.779 565.411 724.69 534.524L725.109 535.046C700.118 535.07 670.492 535.1 638.828 535.132C638.71 535.26 639.74 533.988 639.306 534.54V534.568V534.622V534.732V534.955V535.396V536.277L639.305 538.04V541.554C639.305 543.89 639.305 546.218 639.305 548.536C639.303 553.17 639.303 557.763 639.301 562.307C639.298 571.398 639.293 580.296 639.289 588.959C639.274 606.283 639.258 622.658 639.244 637.725L638.819 637.195C664.572 637.306 686.086 637.399 701.21 637.466C708.751 637.524 714.696 637.57 718.806 637.602C720.812 637.63 722.371 637.652 723.474 637.665C723.978 637.678 724.374 637.686 724.684 637.695C724.958 637.706 725.1 637.715 725.109 637.725C725.117 637.736 724.988 637.747 724.73 637.753C724.433 637.762 724.053 637.773 723.567 637.786C722.483 637.799 720.954 637.821 718.982 637.847C714.895 637.879 708.98 637.927 701.48 637.987C686.292 638.052 664.686 638.145 638.819 638.255L638.397 638.258L638.396 637.725C638.382 622.658 638.366 606.283 638.349 588.959C638.346 580.296 638.342 571.398 638.339 562.307C638.337 557.763 638.335 553.17 638.335 548.536C638.335 546.218 638.333 543.89 638.333 541.554V538.04V536.277V535.396V534.955V534.732V534.622V534.568V534.54C637.9 535.074 638.925 533.778 638.828 533.912C670.492 533.945 700.118 533.975 725.109 533.999H725.527L725.525 534.524C725.437 565.547 725.363 591.391 725.313 609.537C725.266 618.494 725.23 625.549 725.202 630.426C725.183 632.775 725.167 634.597 725.155 635.891C725.145 636.468 725.138 636.921 725.131 637.278C725.123 637.583 725.117 637.736 725.109 637.725" fill="#33535F"/>
    <path d="M723.463 425.09C723.463 424.753 728.482 424.48 734.671 424.48C733.7 425.696 734.403 424.813 734.186 425.084V425.08L734.187 425.067V425.045V425V424.909V424.729V424.368L734.189 423.654C734.191 423.187 734.194 422.721 734.196 422.261C734.205 421.365 734.215 420.491 734.224 419.627C734.26 418.091 734.294 416.609 734.329 415.166C734.415 412.628 734.538 411.058 734.673 411.058C734.806 411.058 734.927 412.628 735.017 415.166C735.051 416.609 735.084 418.091 735.121 419.627C735.131 420.491 735.138 421.365 735.148 422.261C735.152 422.721 735.153 423.187 735.155 423.654L735.159 424.368V424.729V424.909V425V425.045V425.067V425.08V425.084C734.941 425.359 735.644 424.48 734.671 425.698C728.482 425.698 723.463 425.426 723.463 425.09Z" fill="#33535F"/>
    <path d="M672.536 425.09C672.536 424.753 678.236 424.48 685.267 424.48C692.299 424.48 697.999 424.753 697.999 425.09C697.999 425.426 692.299 425.698 685.267 425.698C678.236 425.698 672.536 425.426 672.536 425.09Z" fill="#33535F"/>
    <path d="M635.862 411.058C636.13 411.058 636.348 417.338 636.348 425.088C635.376 423.872 636.082 424.751 635.865 424.48H635.871H635.879H635.898H635.933H636.005H636.151H636.438L637.008 424.482C637.383 424.487 637.754 424.489 638.121 424.493C638.836 424.504 639.535 424.517 640.224 424.528C641.451 424.573 642.635 424.617 643.788 424.658C645.817 424.77 647.07 424.922 647.07 425.09C647.07 425.257 645.817 425.408 643.788 425.521C642.635 425.562 641.451 425.605 640.224 425.651C639.535 425.662 638.836 425.675 638.121 425.685C637.754 425.69 637.383 425.692 637.008 425.694L636.438 425.698H636.151H636.005H635.933H635.898H635.879H635.871H635.865C635.648 425.426 636.348 426.306 635.376 425.088C635.376 417.338 635.594 411.058 635.862 411.058" fill="#33535F"/>
    <path d="M635.862 347.302C636.13 347.302 636.348 354.44 636.348 363.241C636.348 372.045 636.13 379.18 635.862 379.18C635.594 379.18 635.376 372.045 635.376 363.241C635.376 354.44 635.594 347.302 635.862 347.302Z" fill="#33535F"/>
    <path d="M647.07 301.394C647.07 301.73 642.053 302.002 635.862 302.002C636.835 300.786 636.132 301.669 636.348 301.399V301.405V301.416V301.438V301.483V301.574V301.756V302.115L636.346 302.829C636.343 303.298 636.341 303.761 636.337 304.222C636.329 305.118 636.32 305.992 636.31 306.855C636.273 308.391 636.241 309.873 636.206 311.316C636.116 313.854 635.995 315.425 635.862 315.425C635.727 315.425 635.606 313.854 635.518 311.316C635.484 309.873 635.449 308.391 635.413 306.855C635.404 305.992 635.395 305.118 635.385 304.222C635.383 303.761 635.382 303.298 635.378 302.829L635.376 302.115V301.756V301.574V301.483V301.438V301.416V301.405V301.399C635.592 301.126 634.889 302.002 635.862 300.784C642.053 300.784 647.07 301.057 647.07 301.394Z" fill="#33535F"/>
    <path d="M697.999 301.394C697.999 301.73 692.297 302.002 685.268 302.002C678.236 302.002 672.536 301.73 672.536 301.394C672.536 301.057 678.236 300.784 685.268 300.784C692.297 300.784 697.999 301.057 697.999 301.394Z" fill="#33535F"/>
    <path d="M734.673 315.425C734.405 315.425 734.186 309.142 734.186 301.394C735.157 302.61 734.453 301.732 734.668 302.002H734.664H734.654H734.637H734.6H734.528H734.384H734.096L733.527 302C733.152 301.996 732.781 301.994 732.412 301.991C731.697 301.978 730.999 301.965 730.309 301.955C729.082 301.909 727.9 301.866 726.745 301.825C724.718 301.714 723.463 301.561 723.463 301.394C723.463 301.226 724.718 301.074 726.745 300.962C727.9 300.92 729.082 300.877 730.309 300.832C730.999 300.821 731.697 300.81 732.412 300.797C732.781 300.793 733.152 300.791 733.527 300.788L734.096 300.784H734.384H734.528H734.6H734.637H734.654H734.664H734.668C734.887 301.057 734.187 300.176 735.159 301.394C735.159 309.142 734.941 315.425 734.673 315.425" fill="#33535F"/>
    <path d="M734.673 379.18C734.405 379.18 734.186 372.043 734.186 363.243C734.186 354.438 734.405 347.302 734.673 347.302C734.941 347.302 735.159 354.438 735.159 363.243C735.159 372.043 734.941 379.18 734.673 379.18Z" fill="#33535F"/>
    <path d="M733.239 444.787C733.239 445.123 711.357 445.395 684.368 445.395C657.374 445.395 635.496 445.123 635.496 444.787C635.496 444.452 657.374 444.179 684.368 444.179C711.357 444.179 733.239 444.452 733.239 444.787Z" fill="#33535F"/>
    <path d="M733.239 461.161C733.239 461.498 711.357 461.771 684.368 461.771C657.374 461.771 635.496 461.498 635.496 461.161C635.496 460.823 657.374 460.551 684.368 460.551C711.357 460.551 733.239 460.823 733.239 461.161Z" fill="#33535F"/>
    <path d="M681.964 284.85H635.496V277.472H681.964V284.85Z" fill="#33535F"/>
    <path d="M326.973 373.713C326.973 408.336 304.554 436.404 276.896 436.404C249.241 436.404 226.82 408.336 226.82 373.713C226.82 339.092 249.241 311.024 276.896 311.024C304.554 311.024 326.973 339.092 326.973 373.713" fill="#DADBD8"/>
    <path d="M336.89 510.36C336.89 510.695 311.17 510.968 279.451 510.968C247.72 510.968 222.005 510.695 222.005 510.36C222.005 510.022 247.72 509.75 279.451 509.75C311.17 509.75 336.89 510.022 336.89 510.36" fill="#33535F"/>
    <path d="M336.89 526.268C336.89 526.604 311.17 526.876 279.451 526.876C247.72 526.876 222.005 526.604 222.005 526.268C222.005 525.933 247.72 525.66 279.451 525.66C311.17 525.66 336.89 525.933 336.89 526.268" fill="#33535F"/>
    <path d="M336.89 542.179C336.89 542.514 311.17 542.787 279.451 542.787C247.72 542.787 222.005 542.514 222.005 542.179C222.005 541.839 247.72 541.567 279.451 541.567C311.17 541.567 336.89 541.839 336.89 542.179" fill="#33535F"/>
    <path d="M288.009 558.425C288.009 558.763 273.096 559.035 254.702 559.035C236.303 559.035 221.391 558.763 221.391 558.425C221.391 558.09 236.303 557.817 254.702 557.817C273.096 557.817 288.009 558.09 288.009 558.425Z" fill="#33535F"/>
    <path d="M222.005 477.905H301.16V485.146H222.005V477.905Z" fill="#33535F"/>
    <path d="M245.514 421.605C254.028 430.817 265.115 436.404 277.251 436.404C289.411 436.404 300.515 430.798 309.036 421.553C306.384 410.22 299.919 396.752 284.211 393.784C291.039 390.199 295.901 381.378 295.937 370.985C295.984 357.372 287.755 346.288 277.558 346.229C267.362 346.169 259.059 357.157 259.014 370.77C258.978 381.259 263.874 390.186 270.777 393.786C254.806 396.798 248.221 410.331 245.514 421.605" fill="#F03D5F"/>
    <path d="M266.38 590.017H222.005V583.256H266.38V590.017Z" fill="#F03D5F"/>
    <path d="M886.411 348.237C888.934 358.83 891.457 369.423 893.981 380.017C894.326 381.465 894.674 382.945 894.651 384.455C894.587 388.931 891.202 392.447 887.686 393.276C884.173 394.104 880.578 392.903 877.132 391.713C876.197 396.274 871.93 398.195 868.233 399.067C851.812 402.942 834.441 400.236 819.281 391.443C825.802 379.764 831.121 367.034 835.065 353.668C847.936 354.379 860.806 355.091 873.679 355.803C875.955 355.928 878.298 356.041 880.447 355.083C882.591 354.124 884.517 351.816 884.667 348.968" fill="#F03D5F"/>
    <path d="M842.163 410.296C842.649 406.744 841.496 391.826 841.496 391.826C841.496 391.826 830.619 390.383 829.958 376.878C829.296 363.371 829.958 332.225 829.958 332.225L849.775 320.096L871.574 340.769L868.271 408.301L844.735 434.645L842.163 410.296" fill="#F8A58D"/>
    <path d="M832.115 354.927C832.115 355.883 832.734 356.655 833.498 356.655C834.258 356.655 834.877 355.883 834.877 354.927C834.877 353.973 834.258 353.198 833.498 353.198C832.734 353.198 832.115 353.973 832.115 354.927Z" fill="#17282F"/>
    <path d="M830.778 353.042C830.957 353.267 831.977 352.181 833.463 352.082C834.948 351.954 836.066 352.878 836.222 352.627C836.298 352.517 836.113 352.106 835.624 351.686C835.145 351.268 834.334 350.887 833.408 350.957C832.483 351.028 831.714 351.53 831.279 352.017C830.835 352.508 830.691 352.945 830.778 353.042" fill="#17282F"/>
    <path d="M848.117 354.927C848.117 355.883 848.736 356.655 849.498 356.655C850.262 356.655 850.879 355.883 850.879 354.927C850.879 353.973 850.262 353.198 849.498 353.198C848.736 353.198 848.117 353.973 848.117 354.927Z" fill="#17282F"/>
    <path d="M847.258 353.042C847.438 353.267 848.458 352.181 849.944 352.082C851.43 351.954 852.547 352.878 852.702 352.627C852.778 352.517 852.594 352.106 852.104 351.686C851.626 351.268 850.815 350.887 849.889 350.957C848.964 351.028 848.195 351.53 847.76 352.017C847.317 352.508 847.174 352.945 847.258 353.042" fill="#17282F"/>
    <path d="M846.807 370.524C844.956 371.673 841.68 373.323 839.619 373.622C839.619 373.622 841.451 376.9 844.547 375.372C847.754 373.795 846.807 370.524 846.807 370.524" fill="#FAFAF9"/>
    <path d="M841.491 391.826C841.491 391.826 848.757 391.928 855.786 385.783C855.786 385.783 852.545 395.699 841.726 395.141L841.491 391.826Z" fill="#F68260"/>
    <path d="M902.962 379.598C902.005 379.665 900.581 379.47 899.051 378.49C897.513 377.547 895.991 375.762 894.788 373.315C893.566 370.892 892.619 367.891 891.601 364.758C889.586 358.479 888.065 352.653 887.035 348.408C886.872 347.735 886.725 347.121 886.585 346.532C886.495 345.81 886.402 345.165 886.302 344.691C880.415 316.524 860.64 311.273 856.728 311.273C852.531 311.273 845.191 308.385 834.493 322.303C832.699 324.637 831.403 326.998 830.434 329.315C827.675 333.648 826.22 338.434 825.665 342.036C825.014 346.149 825.29 348.75 825.416 348.739C825.619 348.75 825.651 346.188 826.491 342.281C826.903 340.321 827.571 338.012 828.56 335.63C826.999 344.351 829.658 351.186 829.658 351.186L833.496 349.864L847.236 344.012C845.986 338.683 847.825 332.069 848.864 328.986L848.968 328.867C852.113 349.085 869.907 351.186 869.907 351.186L869.016 389.563C887.284 384.675 887.522 359.7 887.406 353.484C888.232 356.989 889.311 361.011 890.666 365.227C891.689 368.371 892.672 371.413 894.007 373.944C895.31 376.482 897.04 378.388 898.746 379.295C900.441 380.249 902.003 380.312 903.006 380.084C904.02 379.84 904.502 379.433 904.478 379.377C904.449 379.275 903.925 379.515 902.962 379.598" fill="#F03D5F"/>
    <path d="M841.897 368.763C841.899 368.659 840.969 368.523 839.464 368.382C839.085 368.358 838.712 368.289 838.633 367.938C838.531 367.575 838.678 367.025 838.843 366.437C839.167 365.214 839.505 363.927 839.863 362.579C840.57 359.834 841.178 357.339 841.59 355.52C842.001 353.7 842.215 352.56 842.138 352.527C842.06 352.497 841.702 353.579 841.187 355.357C840.672 357.134 840 359.604 839.293 362.348C838.952 363.704 838.626 364.998 838.318 366.225C838.188 366.8 837.962 367.452 838.171 368.17C838.282 368.527 838.562 368.771 838.804 368.838C839.046 368.918 839.26 368.91 839.448 368.912C840.957 368.916 841.894 368.867 841.897 368.763" fill="#17282F"/>
    <path d="M866.985 357.776C863.622 356.945 860.792 356.359 859.823 356.277C859.94 355.556 860.025 354.825 860.03 354.079C860.013 351.705 859.401 349.395 858.321 347.608C857.269 345.795 855.793 344.494 854.249 343.815C852.706 343.094 851.092 343.055 849.669 343.378C848.237 343.713 847.001 344.518 846.03 345.457C844.073 347.378 843.25 349.821 842.97 351.461C842.822 352.292 842.779 352.956 842.787 353.402C842.789 353.849 842.798 354.081 842.82 354.081C842.888 354.087 842.855 353.138 843.197 351.532C843.537 349.957 844.391 347.653 846.287 345.879C847.227 345.011 848.406 344.278 849.761 343.99C851.105 343.711 852.623 343.772 854.061 344.464C855.501 345.117 856.873 346.346 857.847 348.042C858.85 349.717 859.415 351.865 859.431 354.079C859.415 356.296 858.85 358.445 857.847 360.119C856.874 361.818 855.501 363.047 854.061 363.698C852.623 364.39 851.105 364.453 849.761 364.172C848.406 363.882 847.226 363.15 846.287 362.283C844.391 360.509 843.537 358.205 843.197 356.63C843.012 355.766 842.938 355.111 842.898 354.676C843.167 354.607 843.339 354.516 843.339 354.414C843.339 354.306 843.14 354.209 842.834 354.141C842.829 354.126 842.825 354.081 842.82 354.081C842.817 354.081 842.815 354.126 842.811 354.137C842.538 354.079 842.186 354.04 841.788 354.04C841.256 354.04 840.808 354.109 840.53 354.209C840.532 354.165 840.539 354.122 840.539 354.079C840.523 351.705 839.91 349.395 838.829 347.608C837.777 345.795 836.303 344.494 834.758 343.815C833.214 343.094 831.602 343.055 830.178 343.378C828.745 343.713 827.511 344.518 826.54 345.457C824.58 347.378 823.759 349.821 823.481 351.461C823.332 352.292 823.287 352.956 823.296 353.402C823.297 353.849 823.308 354.081 823.329 354.081C823.396 354.087 823.361 353.138 823.705 351.532C824.046 349.957 824.901 347.653 826.797 345.879C827.736 345.011 828.914 344.278 830.269 343.99C831.616 343.711 833.131 343.772 834.571 344.464C836.011 345.117 837.383 346.346 838.356 348.042C839.358 349.717 839.922 351.865 839.939 354.079C839.924 356.296 839.36 358.445 838.358 360.119C837.383 361.818 836.011 363.047 834.571 363.698C833.131 364.39 831.616 364.453 830.268 364.172C828.913 363.882 827.736 363.15 826.797 362.283C824.901 360.509 824.046 358.205 823.705 356.63C823.361 355.024 823.396 354.077 823.329 354.081C823.308 354.081 823.297 354.315 823.296 354.76C823.287 355.206 823.332 355.87 823.481 356.701C823.759 358.339 824.58 360.784 826.54 362.707C827.509 363.644 828.745 364.449 830.178 364.784C831.602 365.108 833.214 365.067 834.758 364.347C836.303 363.67 837.779 362.367 838.829 360.554C839.83 358.901 840.406 356.796 840.502 354.611C840.777 354.717 841.239 354.788 841.788 354.788C842.174 354.788 842.516 354.752 842.789 354.695C842.789 354.723 842.787 354.732 842.787 354.76C842.779 355.206 842.822 355.87 842.97 356.701C843.25 358.339 844.073 360.784 846.03 362.707C847.001 363.644 848.235 364.449 849.669 364.784C851.092 365.108 852.706 365.067 854.249 364.347C855.793 363.67 857.269 362.367 858.321 360.554C859.03 359.384 859.51 357.98 859.781 356.489C860.696 356.872 863.497 357.679 866.869 358.514C871.008 359.535 874.387 360.199 874.417 359.996C874.449 359.793 871.122 358.8 866.985 357.776" fill="#17282F"/>
    <path d="M872.719 368.2C872.655 365.95 872.65 363.633 873.298 361.532C873.946 359.431 875.39 357.569 877.178 357.337C879.237 357.069 881.231 359.211 881.56 361.77C881.888 364.33 880.695 366.993 878.891 368.265C877.087 369.537 874.8 369.5 872.897 368.475" fill="#F8A58D"/>
    <path d="M875.865 366.233C875.931 366.084 876.449 366.415 877.211 366.125C877.977 365.894 878.763 364.801 878.827 363.254C878.871 362.497 878.739 361.794 878.442 361.454C878.141 361.093 877.652 360.989 877.267 361.015C876.458 361.104 875.889 361.374 875.843 361.201C875.808 361.089 876.205 360.571 877.172 360.227C877.652 360.093 878.349 360.057 878.983 360.667C879.617 361.318 879.778 362.398 879.726 363.33C879.676 364.293 879.384 365.206 878.921 365.853C878.463 366.513 877.837 366.846 877.332 366.906C876.268 367.038 875.777 366.316 875.865 366.233" fill="#F68260"/>
    <path d="M917.658 880.401L904.648 869.345L921.033 838.703L940.205 854.625L939.286 856.607C935.14 865.376 917.708 900.831 913.317 905.336C908.419 910.359 917.658 880.401 917.658 880.401Z" fill="#F03D5F"/>
    <path d="M911.735 905.044C911.504 904.851 917.506 893.278 925.137 879.204C932.77 865.125 939.142 853.874 939.374 854.068C939.604 854.265 933.603 865.832 925.97 879.912C918.339 893.988 911.965 905.24 911.735 905.044" fill="#17282F"/>
    <path d="M920.022 883.194C919.998 883.545 919.205 883.739 918.254 883.815C917.302 883.882 916.497 883.809 916.44 883.465C916.381 883.128 917.159 882.632 918.192 882.556C919.229 882.476 920.05 882.852 920.022 883.194" fill="#17282F"/>
    <path d="M919.826 885.868C919.765 886.212 918.878 886.258 917.824 886.178C916.77 886.091 915.894 885.906 915.869 885.552C915.844 885.208 916.747 884.825 917.888 884.921C919.027 885.01 919.886 885.533 919.826 885.868Z" fill="#17282F"/>
    <path d="M934.303 863.188C934.174 863.244 933.845 862.61 933.451 861.501C933.068 860.395 932.591 858.763 932.532 856.816C932.477 854.859 932.995 853.099 933.638 852.089C934.279 851.057 934.908 850.773 934.972 850.903C935.065 851.055 934.639 851.572 934.238 852.568C933.828 853.554 933.493 855.07 933.539 856.777C933.589 858.495 933.92 860.061 934.127 861.219C934.341 862.377 934.438 863.125 934.303 863.188" fill="#17282F"/>
    <path d="M917.527 881.208C917.404 880.89 917.883 880.29 918.51 879.705C919.141 879.127 919.739 878.731 919.946 878.971C920.15 879.203 919.825 880.061 919.108 880.719C918.394 881.383 917.644 881.519 917.527 881.208" fill="#17282F"/>
    <path d="M916.53 879.661C916.314 879.439 916.58 878.469 917.122 877.493C917.667 876.52 918.304 875.873 918.545 876.048C918.783 876.225 918.519 877.195 917.95 878.216C917.38 879.237 916.746 879.882 916.53 879.661Z" fill="#17282F"/>
    <path d="M764.273 905.587V885.903L793.728 885.665L793.97 914.464L792.147 914.626C784.021 915.256 750.798 917.114 745.354 915.093C739.282 912.843 764.273 905.587 764.273 905.587Z" fill="#F03D5F"/>
    <path d="M744.656 913.294C744.656 912.945 755.675 912.662 769.265 912.662C782.858 912.662 793.872 912.945 793.872 913.294C793.872 913.639 782.858 913.923 769.265 913.923C755.675 913.923 744.656 913.639 744.656 913.294" fill="#17282F"/>
    <path d="M763.755 909.605C763.508 909.776 762.934 909.066 762.351 908.121C761.771 907.175 761.368 906.296 761.562 906.043C761.752 905.795 762.516 906.321 763.148 907.353C763.784 908.378 763.997 909.44 763.755 909.605" fill="#17282F"/>
    <path d="M761.874 910.9C761.613 911.032 761.085 910.139 760.547 909C760.013 907.86 759.645 906.848 759.863 906.627C760.074 906.407 760.837 907.129 761.416 908.362C761.995 909.591 762.132 910.777 761.874 910.9" fill="#17282F"/>
    <path d="M784.999 913.159C784.888 913.057 785.122 912.363 785.633 911.331C786.15 910.31 786.96 908.903 788.214 907.748C789.477 906.591 790.932 906.139 791.959 906.238C793.001 906.322 793.542 906.818 793.492 906.954C793.443 907.138 792.863 906.985 791.978 907.128C791.098 907.26 789.907 907.763 788.805 908.77C787.698 909.784 786.846 911.007 786.198 911.872C785.555 912.746 785.111 913.265 784.999 913.159" fill="#17282F"/>
    <path d="M763.665 905.905C763.807 905.6 764.47 905.755 765.21 906.078C765.948 906.407 766.544 906.805 766.503 907.153C766.463 907.493 765.715 907.64 764.875 907.268C764.037 906.9 763.525 906.201 763.665 905.905" fill="#17282F"/>
    <path d="M764.128 904.001C764.152 903.655 764.944 903.385 765.893 903.401C766.843 903.415 767.628 903.711 767.647 904.059C767.664 904.405 766.874 904.676 765.881 904.663C764.885 904.646 764.1 904.35 764.128 904.001" fill="#17282F"/>
    <path d="M838.588 450.988L806.706 437.641C806.706 437.641 792.615 488.456 788.296 488.947C764.372 491.68 738.774 481.749 729.799 477.825C728.887 476.544 727.848 475.005 726.688 473.123C725.696 471.507 724.941 469.681 724.436 467.74C723.826 465.391 723.114 462.228 723.156 460.341C723.206 458.011 720.966 456.817 719.931 458.491C718.894 460.166 718.631 466.585 720.992 473.491C723.353 480.393 714.995 474.902 711.92 472.967C708.846 471.035 699.108 465.614 697.885 466.325C696.091 467.37 696.654 469.971 699.762 471.81C702.905 473.675 711.872 479.992 710.978 481.976C710.099 483.932 694.553 473.824 694.553 473.824C694.553 473.824 691.509 470.99 690.415 473.238C688.443 477.295 705.602 486.518 707.252 487.344C708.398 487.92 707.487 490.118 706.283 489.419C705.042 488.699 690.965 478.885 688.924 482.991C687.36 486.141 702.982 490.741 704.998 494.806C707.015 498.874 693.435 489.813 692.038 492.898C691.518 494.049 691.257 494.994 699.656 498.789C703.733 500.633 711.419 502.898 718.377 504.774L718.348 504.88C718.348 504.88 802.25 551.85 820.347 506.574C839.548 458.528 838.588 450.988 838.588 450.988" fill="#F8A58D"/>
    <path d="M819.055 562.618C819.055 562.618 798.709 731.841 801.639 739.935C804.568 748.031 909.169 887.09 909.169 887.09L933.648 834.603C933.648 834.603 851.112 719.287 851.731 716.177C852.353 713.071 880.975 548.585 880.975 548.585L819.055 562.618" fill="#33535F"/>
    <path d="M823.503 771.638L840.696 724.362L857.886 677.085L828.92 739.935L823.503 771.638" fill="#17282F"/>
    <path d="M833.738 729.479C833.776 729.479 833.812 730.11 833.847 731.329C833.871 732.679 833.906 734.458 833.945 736.692L833.897 736.523C840.449 745.788 854.972 766.837 871.729 791.393C883.07 808.126 893.336 823.268 900.859 834.365C904.49 839.817 907.456 844.27 909.599 847.482C910.56 848.967 911.338 850.166 911.936 851.092C912.461 851.924 912.724 852.377 912.7 852.403C912.672 852.433 912.356 852.035 911.78 851.256C911.144 850.369 910.322 849.224 909.3 847.801C907.098 844.65 904.051 840.289 900.318 834.945C892.735 823.907 882.393 808.85 870.962 792.213C854.206 767.654 839.867 746.409 833.581 736.861L833.529 736.784L833.531 736.692C833.572 734.458 833.607 732.679 833.631 731.329C833.666 730.11 833.702 729.479 833.738 729.479" fill="#17282F"/>
    <path d="M925.797 823.798C926.03 823.989 920.32 835.343 913.047 849.153C905.773 862.969 899.688 874.01 899.456 873.819C899.224 873.628 904.931 862.275 912.207 848.459C919.48 834.649 925.565 823.606 925.797 823.798" fill="#17282F"/>
    <path d="M811.689 626.176C811.891 624.402 828.137 578.659 828.137 578.659L820.249 564.728L818.847 564.351L811.689 626.176" fill="#17282F"/>
    <path d="M834.986 560.978L818.847 564.351L828.137 578.659C813.142 621.101 782.19 710.981 778.471 739.935C773.54 778.328 754.923 898.205 756.785 900.029C758.646 901.851 801.571 900.029 801.571 900.029L828.92 739.935L889.363 608.782C896.888 592.451 899.088 573.113 895.503 554.801L894.287 548.585" fill="#33535F"/>
    <path d="M786.635 882.286C786.62 882.282 786.646 881.976 786.712 881.388C786.793 880.737 786.898 879.873 787.033 878.776C787.348 876.411 787.795 873.049 788.365 868.754C789.582 859.99 791.326 847.435 793.476 831.949C795.695 816.402 798.334 797.92 801.262 777.408C802.772 767.151 804.357 756.385 806.001 745.227C806.429 742.441 806.863 739.63 807.301 736.796C807.536 735.377 807.729 733.964 808.002 732.521C808.142 731.805 808.237 731.074 808.414 730.366L809.053 728.274C810.824 722.794 812.755 717.389 814.687 711.868C830.326 667.877 844.88 628.288 855.407 599.628C860.689 585.37 864.97 573.808 867.96 565.738C869.443 561.802 870.606 558.722 871.423 556.554C871.81 555.556 872.116 554.771 872.348 554.18C872.56 553.646 872.678 553.38 872.693 553.388C872.709 553.397 872.623 553.685 872.441 554.234C872.234 554.838 871.957 555.641 871.606 556.66C870.83 558.851 869.726 561.965 868.316 565.943C865.397 574.052 861.214 585.668 856.055 600C845.696 628.751 831.242 668.402 815.608 712.38C813.681 717.88 811.735 723.332 809.991 728.709L809.376 730.712C809.205 731.396 809.11 732.11 808.975 732.805C808.713 734.191 808.512 735.637 808.279 737.04C807.838 739.871 807.402 742.679 806.97 745.461C805.308 756.609 803.702 767.367 802.174 777.618C799.165 798.111 796.457 816.574 794.178 832.107C791.895 847.563 790.044 860.096 788.753 868.841C788.101 873.119 787.591 876.465 787.233 878.82C787.055 879.908 786.917 880.765 786.813 881.411C786.713 881.992 786.654 882.288 786.635 882.286" fill="#17282F"/>
    <path d="M804.127 884.662C804.122 885.007 793.822 885.057 781.119 884.771C768.411 884.486 758.119 883.973 758.124 883.625C758.129 883.276 768.43 883.225 781.138 883.512C793.837 883.798 804.133 884.311 804.127 884.662" fill="#17282F"/>
    <path d="M818.847 564.351L819.464 566.188L897.012 558.33L894.287 548.585L818.847 564.351" fill="#17282F"/>
    <path d="M850.879 406.201L845.668 432.414L845.487 413.559L845.872 409.361L846.344 406.201L839.467 403.28L835.914 410.21L834.877 410.296C834.877 410.296 806.951 406.819 797.185 452.996L788.265 480.352L815.297 497.238L815.337 499.428L816.982 564.727L895.099 548.89C895.407 534.232 883.459 507.662 886.091 494.378L895.099 448.911L883.291 406.558L875.123 406.878L870.516 400.082L850.879 406.201" fill="#17282F"/>
    <path d="M815.766 496.756C815.74 496.823 815.102 496.509 814.088 495.648C813.097 494.765 811.682 493.331 810.476 490.988C809.247 488.69 808.393 485.319 808.637 481.648C808.747 478.006 809.682 473.952 811.671 470.495C813.191 467.799 815.126 465.707 817.211 464.296L816.972 464.703C817.618 458.708 818.204 453.554 818.655 449.904C819.103 446.256 819.418 444.11 819.518 444.127C819.616 444.147 819.485 446.323 819.184 449.997C818.882 453.671 818.408 458.844 817.821 464.852L817.796 465.114L817.586 465.261C815.712 466.566 813.821 468.61 812.403 471.148C810.526 474.419 809.616 478.225 809.463 481.71C809.191 485.209 809.919 488.313 811.016 490.566C812.095 492.848 813.395 494.33 814.298 495.297C815.225 496.245 815.795 496.682 815.766 496.756" fill="#33535F"/>
    <path d="M818.712 452.704C818.489 452.84 817.72 451.444 816.993 449.588C816.267 447.73 815.857 446.114 816.082 445.977C816.305 445.841 817.076 447.236 817.802 449.093C818.527 450.951 818.935 452.567 818.712 452.704Z" fill="#33535F"/>
    <path d="M738.845 434.251L984.581 493.339C1002.1 497.554 1013.13 517.599 1011.14 540.429C1011.11 540.749 1011.05 541.061 1011 541.379C1007.67 564.091 989.911 578.81 971.829 574.245L731.011 513.447L677.904 460.25L738.845 434.251" fill="#F03D5F"/>
    <path d="M738.845 434.251C738.845 434.251 752.26 440.545 749.495 456.65C746.73 472.758 733.757 472.078 733.757 472.078C733.757 472.078 746.367 475.579 742.869 498.153C740.615 512.688 731.011 513.447 731.011 513.447L677.904 460.25L738.845 434.251Z" fill="#DADBD8"/>
    <path d="M689.456 471.823C694.639 468.58 696.461 459.997 694.584 453.134L677.904 460.25L689.456 471.823" fill="#33535F"/>
    <path d="M981.274 534.851C981.271 534.871 981.052 534.836 980.625 534.754C980.156 534.657 979.532 534.527 978.737 534.36C977.03 533.977 974.6 533.434 971.494 532.735C965.207 531.309 956.119 529.165 944.899 526.459C922.458 521.054 891.504 513.287 857.358 504.466C823.235 495.581 792.348 487.537 769.932 481.702C758.788 478.779 749.751 476.41 743.448 474.757C740.363 473.93 737.948 473.281 736.253 472.827C735.468 472.602 734.849 472.427 734.386 472.297C733.968 472.171 733.754 472.098 733.757 472.078C733.761 472.059 733.98 472.096 734.405 472.184C734.874 472.288 735.496 472.427 736.289 472.602C737.993 473.011 740.418 473.588 743.517 474.326C749.835 475.897 758.891 478.145 770.06 480.918C792.489 486.673 823.396 494.603 857.542 503.363C891.686 512.184 922.615 520.074 945.022 525.678C956.189 528.467 965.243 530.727 971.56 532.305C974.652 533.09 977.071 533.707 978.772 534.137C979.558 534.349 980.179 534.516 980.642 534.641C981.064 534.76 981.276 534.832 981.274 534.851" fill="#33535F"/>
    <path d="M971.829 574.245C989.911 578.81 1007.67 564.091 1011 541.379C1011.05 541.061 1011.11 540.749 1011.14 540.429C1013.13 517.599 1002.1 497.554 984.581 493.339L971.829 574.245" fill="#33535F"/>
    <path d="M874.168 446.564C874.168 446.564 859.218 505.617 855.015 506.959C831.73 514.395 805.19 509.648 795.839 507.549C794.783 506.47 793.552 505.141 792.183 503.523C790.999 502.125 790.023 500.473 789.281 498.657C788.381 496.459 787.278 493.473 787.081 491.606C786.836 489.294 784.473 488.556 783.663 490.416C782.851 492.275 783.4 498.666 786.604 505.016C786.604 505.016 767.858 519.901 763.76 519.782C759.662 519.663 747.943 519.287 749.163 521.31C750.383 523.335 763.76 526.141 763.76 526.141L787.975 536.422C787.975 536.422 876.739 566.309 888.887 518.021C896.335 488.424 901.473 471.003 902.631 463.935L874.168 446.564" fill="#F8A58D"/>
    <path d="M883.455 406.577C883.455 406.577 902.982 410.978 903.744 450.93C904.506 490.882 891.513 521.342 891.513 521.342L857.149 498.753C864.864 479.194 870.779 458.961 874.479 437.89L883.4 406.566L883.455 406.577Z" fill="#17282F"/>
    <path d="M873.423 440.125C873.485 440.14 873.406 441.01 873.209 442.574C873.02 444.136 872.678 446.386 872.203 449.153C871.252 454.683 869.666 462.26 867.41 470.427C865.146 478.593 862.647 485.776 860.658 490.856C859.667 493.398 858.824 495.429 858.2 496.805C857.58 498.186 857.213 498.93 857.158 498.895C857.103 498.859 857.365 498.045 857.886 496.608C858.485 494.951 859.216 492.917 860.082 490.52C861.916 485.371 864.308 478.182 866.558 470.06C868.803 461.936 870.478 454.435 871.584 448.969C872.089 446.416 872.517 444.251 872.866 442.485C873.167 440.954 873.362 440.11 873.423 440.125" fill="#33535F"/>
    </svg>
