<svg width="455" height="437" viewBox="0 0 455 437" fill="none" xmlns="http://www.w3.org/2000/svg">
    <path d="M136.062 258.675L130.731 259.59L129.366 264.473L123.311 265.112L123.617 270.721L116.805 271.722L116.388 276.916L110.006 278.853L109.201 276.654L113.973 275.206L114.412 269.722L120.961 268.763L120.649 263.059L127.331 262.354L128.665 257.586L133.605 256.738L133.762 253.439L136.306 253.54L136.062 258.675" fill="#F7CC7F"/>
    <path d="M282.873 226.932L289.005 221.526C287.087 211.755 277.017 207.052 270.388 206.41C252.538 204.686 243.437 215.863 239.608 233.79C232.619 266.511 241.418 403.903 241.418 403.903C242.078 400.255 290.561 262.281 289.319 224.373L282.873 226.932" fill="#96D9C9"/>
    <path d="M54.899 345.978L54.2389 350.424L52.6587 345.281C48.2174 344.007 44.3595 343.57 41.3023 344.204C13.9803 349.859 61.1937 384.078 61.1937 384.078C61.1937 384.078 46.1464 375.475 31.5742 370.028L31.3892 374.536L29.5252 369.443C18.2017 365.405 7.6964 363.541 5.59741 369.367C3.62089 374.856 7.5979 380.051 14.4416 384.673L22.3083 384.926L17.6712 386.696C33.4756 395.916 59.6203 402.509 68.6449 404.01C60.012 402.775 38.907 400.273 26.3995 402.733L28.362 405.707L23.4232 403.458C19.0456 404.743 16.3265 406.872 16.6194 410.226C17.179 416.635 47.7189 418.944 47.7189 418.944L159.284 418L159.905 418.284C159.905 418.284 90.8651 357.977 54.899 345.978" fill="#3C8F7C"/>
    <path d="M442.325 403.188C439.844 392.697 414.654 389.614 382.547 395.365C393.981 391.808 409.686 383.709 417.82 380.009L412.256 376.785L423.43 377.258C432.572 372.386 437.14 367.599 434.154 363.268C431.924 360.036 427.033 358.689 420.404 358.705L416.909 364.396L417.635 358.785C400.91 359.664 397.116 357.179 374.553 365.483C388.653 358.819 390.689 356.75 391.617 354.074L383.98 351.032H392.927C400.159 343.945 411.636 329.928 406.877 323.467C402.948 318.134 385.704 325.537 374.701 329.379L370.019 338.971L370.967 330.776C335.976 344.657 347.836 333.521 347.836 333.521C347.836 333.521 384.362 264.704 362.844 266.251C354.348 266.862 345.215 271.527 336.241 278.997L336.016 285.837L333.346 281.495C326.811 287.33 320.339 294.396 314.164 301.981C322.537 285.959 328.89 270.224 329.521 258.509L323.128 257.804L329.438 253.808C328.844 247.888 326.269 243.41 321.053 241.044C313.053 237.415 304.657 242.906 296.388 253.821L298.43 263.67L293.302 258.152C263.702 302.085 236.636 410.25 236.636 410.25L234.489 416.115L321.452 420.026C321.452 420.026 447.335 424.376 442.325 403.188" fill="#50BFA5"/>
    <path d="M453.099 420.546H1.90105C1.15133 420.546 0.543213 419.958 0.543213 419.233C0.543213 418.51 1.15133 417.922 1.90105 417.922H453.099C453.85 417.922 454.455 418.51 454.455 419.233C454.455 419.958 453.85 420.546 453.099 420.546Z" fill="#184655"/>
    <path d="M314.435 373.943H110.476C102.685 373.943 96.3701 368.725 96.3701 362.29V355.359C96.3701 348.924 102.685 343.705 110.476 343.705H314.435C305.105 352.132 304.945 365.007 314.061 373.592L314.435 373.943" fill="#86B1F2"/>
    <path d="M311.58 347.169H208.942C201.874 347.169 196.144 352.387 196.144 358.824C196.144 365.262 201.874 370.48 208.942 370.48H311.588C306.792 363.33 306.8 354.3 311.58 347.169Z" fill="#FAE0B2"/>
    <path d="M331.833 310.649C332.281 309.95 331.602 309.141 330.568 309.141H141.555C128.824 309.141 118.503 316.897 118.503 326.465C118.503 336.033 128.824 343.788 141.555 343.788H330.614C331.65 343.788 332.333 342.975 331.882 342.273C325.449 332.257 325.464 320.617 331.833 310.649Z" fill="#100062"/>
    <path d="M330.54 312.869H194.974C186.924 312.869 180.398 318.81 180.398 326.142V327.138C180.398 334.47 186.924 340.414 194.974 340.414H330.771C325.889 331.587 325.835 321.691 330.54 312.869Z" fill="#FAE0B2"/>
    <path d="M235.277 326.751H224.059C221.646 326.751 219.691 327.432 219.691 328.272V328.407H235.277V326.751Z" fill="#FF4C16"/>
    <path d="M244.847 330.565C244.847 328.459 241.915 326.751 238.303 326.751H223.906C226.647 326.751 228.868 328.045 228.868 329.644L228.802 370.553L236.756 365.293L244.861 370.553L244.847 330.565Z" fill="#F47458"/>
    <path d="M398.298 373.881H95.2333C85.8223 373.881 78.1929 380.831 78.1929 389.4V402.452C78.1929 411.025 85.8223 417.972 95.2333 417.972H398.298L398.138 417.821C385.173 405.531 385.244 386.093 398.298 373.881Z" fill="#FF3B3B"/>
    <path d="M392.933 380.41H230.92C221.508 380.41 213.879 387.357 213.879 395.926C213.879 404.499 221.508 411.446 230.92 411.446H392.927C386.972 401.836 386.983 390.011 392.933 380.41" fill="#FAE0B2"/>
    <path d="M313.384 396.007H300.245C297.419 396.007 295.129 398.092 295.129 400.666V401.085H313.384V396.007" fill="#13375B"/>
    <path d="M300.782 396.025C303.923 396.023 308.613 398.443 311.257 401.431L342.419 436.627L360.726 436.619L331.088 403.144C327.599 399.205 321.415 396.015 317.275 396.017L300.782 396.025" fill="#355389"/>
    <path d="M128.161 18.7599C121.699 22.8264 123.965 32.0954 131.735 33.3356C133.13 33.5566 134.38 34.256 135.276 35.257L138.358 38.6942C139.207 39.6432 140.714 39.8382 141.819 39.1414L144.267 37.6022C145.372 36.9054 145.705 35.5534 145.032 34.4952C142.576 30.6315 141.364 29.3706 141.868 26.9578C143.343 19.9014 134.624 14.6909 128.161 18.7599Z" fill="#F7CC7F"/>
    <path d="M139.52 36.4061C139.518 36.4087 139.516 36.4088 139.516 36.4088C139.186 36.6116 138.742 36.5335 138.521 36.2345L132.676 28.3461L129.587 27.6155C129.204 27.5271 128.975 27.1709 129.074 26.8225C129.173 26.4741 129.564 26.2661 129.945 26.3571L133.559 27.2099L139.706 35.5065C139.925 35.8029 139.842 36.2033 139.52 36.4061" fill="#FAE0B2"/>
    <path d="M142.71 34.8825C142.712 34.8825 142.715 34.88 142.717 34.8774C143.039 34.672 143.116 34.2637 142.888 33.9725L136.851 26.2011L137.195 23.3126C137.237 22.9538 136.953 22.634 136.561 22.595C136.169 22.556 135.816 22.8159 135.773 23.1721L135.372 26.5521L141.721 34.724C141.947 35.0152 142.389 35.0853 142.71 34.8825" fill="#FAE0B2"/>
    <path d="M135.194 35.1738C135.221 35.2024 135.25 35.2284 135.276 35.257L138.358 38.6942C139.207 39.6432 140.714 39.8382 141.819 39.1414L144.267 37.6021C145.372 36.9053 145.705 35.5533 145.032 34.4951C143.94 32.7765 143.094 31.5727 142.535 30.5535L135.194 35.1738" fill="#96D9C9"/>
    <path d="M387.306 194.627L384.231 190.573L378.821 190.584C378.204 190.586 377.853 189.941 378.227 189.497L381.507 185.579L379.826 180.896C379.632 180.363 380.197 179.861 380.776 180.046L385.881 181.678L390.252 178.774C390.749 178.442 391.448 178.774 391.434 179.336L391.308 184.26L395.691 187.149C396.19 187.477 396.059 188.186 395.468 188.348L390.286 189.759L388.625 194.447C388.436 194.983 387.657 195.087 387.306 194.627" fill="#F47458"/>
    <path d="M56.9497 209.462L51.7039 210.666L49.8205 215.286C49.6061 215.811 48.8221 215.884 48.4944 215.411L45.6142 211.241L40.2089 211.035C39.593 211.012 39.2739 210.357 39.6687 209.925L43.1344 206.142L41.6772 201.397C41.511 200.856 42.0975 200.378 42.6696 200.586L47.6915 202.419L52.1964 199.691C52.7092 199.379 53.3912 199.741 53.3498 200.3L52.9878 205.216L57.2292 208.274C57.7123 208.622 57.547 209.324 56.9497 209.462" fill="#F47458"/>
    <path d="M371.686 228.554L369.428 225.577L365.454 225.587C365 225.587 364.743 225.114 365.017 224.787L367.426 221.908L366.19 218.471C366.05 218.079 366.464 217.709 366.89 217.847L370.641 219.043L373.85 216.911C374.216 216.667 374.729 216.911 374.718 217.325L374.627 220.941L377.847 223.063C378.212 223.305 378.115 223.825 377.684 223.942L373.876 224.979L372.657 228.424C372.517 228.817 371.946 228.895 371.686 228.554" fill="#9BC1F9"/>
    <path d="M389.824 131.967L386.369 130.18L382.792 131.759C382.384 131.941 381.927 131.616 382.018 131.213L382.818 127.666L380.066 125.056C379.752 124.759 379.949 124.263 380.397 124.219L384.345 123.816L386.221 120.623C386.435 120.259 387.012 120.277 387.2 120.651L388.842 123.948L392.753 124.585C393.199 124.658 393.359 125.162 393.025 125.441L390.092 127.882L390.635 131.467C390.698 131.876 390.218 132.172 389.824 131.967Z" fill="#F7CC7F"/>
    <path d="M131.782 84.0173L128.257 82.3455L124.747 84.0407C124.347 84.2357 123.877 83.9263 123.952 83.5207L124.609 79.9509L121.752 77.4341C121.427 77.1481 121.604 76.6463 122.051 76.5839L125.982 76.0509L127.727 72.7983C127.926 72.4291 128.505 72.4265 128.707 72.7957L130.479 76.0353L134.414 76.5423C134.862 76.5995 135.043 77.1013 134.72 77.3899L131.885 79.9249L132.572 83.4895C132.65 83.8951 132.183 84.2071 131.782 84.0173" fill="#9BC1F9"/>
    <path d="M188.453 24.3967L184.928 22.7249L181.417 24.4227C181.017 24.6151 180.548 24.3056 180.622 23.9L181.279 20.3303L178.423 17.8135C178.097 17.5275 178.274 17.0257 178.722 16.9659L182.652 16.4303L184.398 13.1803C184.596 12.8085 185.175 12.8085 185.377 13.1751L187.15 16.4147L191.085 16.9217C191.533 16.9789 191.714 17.4807 191.391 17.7693L188.556 20.3043L189.243 23.8715C189.321 24.2771 188.854 24.5891 188.453 24.3967" fill="#9BC1F9"/>
    <path d="M41.6526 152.803L38.1276 151.131L34.6168 152.829C34.2171 153.021 33.7477 152.715 33.8222 152.306L34.4792 148.737L31.6227 146.22C31.2973 145.934 31.4743 145.432 31.922 145.372L35.8524 144.837L37.5977 141.587C37.7964 141.215 38.3754 141.212 38.5772 141.581L40.3496 144.821L44.2849 145.328C44.7329 145.385 44.9139 145.887 44.591 146.176L41.7557 148.711L42.4426 152.278C42.5208 152.683 42.0535 152.995 41.6526 152.803" fill="#9BC1F9"/>
    <path d="M288.36 101.567L286.099 98.5903L282.125 98.5981C281.674 98.6007 281.417 98.1275 281.691 97.7999L284.1 94.9217L282.864 91.4819C282.724 91.0919 283.135 90.7227 283.564 90.8579L287.312 92.0565L290.524 89.9245C290.89 89.6801 291.403 89.9245 291.392 90.3379L291.298 93.9545L294.518 96.0761C294.887 96.3179 294.79 96.8379 294.356 96.9549L290.55 97.9923L289.328 101.437C289.191 101.83 288.617 101.908 288.36 101.567" fill="#9BC1F9"/>
    <path d="M364.477 102.867L362.216 99.8904L358.242 99.8981C357.791 99.9007 357.534 99.4275 357.808 99.0999L360.217 96.2217L358.981 92.7845C358.841 92.3919 359.252 92.0227 359.681 92.1605L363.429 93.3565L366.641 91.2245C367.007 90.9801 367.521 91.2246 367.509 91.638L367.415 95.2545L370.635 97.3762C371.004 97.618 370.907 98.1379 370.473 98.2549L366.667 99.2924L365.445 102.737C365.308 103.13 364.734 103.208 364.477 102.867" fill="#9BC1F9"/>
    <path d="M314.763 164.989L309.764 164.222L306.838 168.101L301.302 166.882L299.583 171.89L293.256 170.761L291.049 175.194L284.768 175.015L284.843 172.852L289.539 172.984L291.869 168.307L297.95 169.391L299.697 164.3L305.804 165.644L308.665 161.859L313.296 162.569L314.603 159.724L316.796 160.559L314.763 164.989" fill="#F48C7F"/>
    <path d="M286.738 18.0528L285.211 22.4519L289.02 25.6318L286.921 30.4548L292.126 32.7011L290.019 38.2496L294.53 40.8574L293.462 46.4968L291.118 46.1302L291.917 41.913L287.158 39.1596L289.182 33.827L283.892 31.5415L286.205 26.2219L282.484 23.1149L283.901 19.0381L280.991 17.4625L282.205 15.6009L286.738 18.0528" fill="#466EB6"/>
    <path d="M158.55 195.914L154.891 196.935L152.433 191.756L146.881 192.651L144.346 189.047L142.343 190.217L145.734 195.035L150.996 194.187L153.552 199.577L159.059 198.038L158.55 195.914" fill="#50BFA5"/>
    <path d="M78.626 253.262L77.5765 248.993L81.2643 251.801L78.626 253.262ZM74.9214 239.258L69.4446 242.292L75.1255 265.534C75.6163 267.541 78.1287 268.516 80.0587 267.447C81.2743 266.774 81.8785 265.466 81.5576 264.203L80.1692 258.748L85.916 255.563L90.6676 259.185C91.751 260.009 93.2913 260.115 94.4984 259.447L94.6023 259.39C96.534 258.319 96.7373 255.836 95.0015 254.518L74.9214 239.258" fill="#F48C7F"/>
    <path d="M338.137 45.9975L340.21 42.0507L341.203 46.3355L338.137 45.9975ZM344.726 32.9065L338.362 32.2071L327.054 53.6753C326.077 55.5317 327.391 57.7105 329.635 57.9575C331.048 58.1109 332.41 57.4245 333.015 56.2493L335.627 51.1793L342.305 51.9099L343.581 57.4323C343.873 58.6907 345.012 59.6423 346.416 59.7957L346.536 59.8087C348.78 60.0531 350.628 58.2175 350.156 56.2025L344.726 32.9065" fill="#F48C7F"/>
    <path d="M92.8773 169.807C93.3472 168.12 94.9774 167.21 96.7952 167.628C98.6832 168.065 99.5697 169.557 99.1352 171.253C98.6744 172.909 97.0702 173.858 95.1821 173.424C93.3295 172.995 92.4165 171.463 92.8773 169.807ZM95.0094 165.624C95.2744 164.961 95.1188 162.605 98.6587 160.265C100.114 159.313 101.307 158.505 101.608 157.423C102.128 155.556 99.9614 154.709 97.8253 154.761C96.7204 154.789 95.7971 154.002 95.7372 152.995C95.6763 151.974 96.5263 151.1 97.6466 151.027C98.87 150.947 100.316 151.025 101.84 151.378C106.455 152.444 107.906 155.252 107.17 157.894C106.496 160.314 104.41 161.526 102.709 162.556C99.8464 164.295 99.8943 166.167 99.6591 166.697L95.0094 165.624Z" fill="#466EB6"/>
    <path d="M115.299 229.061C115.778 229.251 116.375 229.407 117.239 229.63C119.53 230.228 121.802 229.968 122.476 227.821C123.121 225.764 121.352 224.423 118.828 223.765L117.102 223.315L115.299 229.061ZM118.136 220.021L119.797 220.452C122.453 221.144 124.194 220.517 124.668 219.004C125.152 217.462 124.113 216.311 121.822 215.713C120.727 215.429 120.077 215.325 119.626 215.273L118.136 220.021ZM115.571 210.913C116.975 211.017 119.721 211.537 122.245 212.192C125.333 212.996 127.14 213.76 128.492 215.063C129.815 216.225 130.507 217.91 129.929 219.753C129.359 221.568 127.666 222.959 124.876 223.149L124.857 223.208C127.215 224.508 128.557 226.755 127.731 229.386C127.152 231.229 125.767 232.441 124.05 233.104C122.053 233.861 119.122 233.816 114.672 232.659C112.182 232.012 110.37 231.375 109.288 230.93L115.571 210.913" fill="#96D9C9"/>
    <path d="M84.0654 76.0822C84.5724 75.9678 85.1505 75.7598 85.9856 75.4582C88.2014 74.6626 89.8302 73.1962 88.9283 71.1187C88.0646 69.1297 85.7629 69.0466 83.3222 69.9254L81.6526 70.526L84.0654 76.0822ZM80.2682 67.3384L81.8739 66.7612C84.4428 65.8356 85.4046 64.3743 84.7697 62.9105C84.1219 61.4207 82.5268 61.0802 80.3107 61.8784C79.251 62.2606 78.6663 62.5387 78.2743 62.7467L80.2682 67.3384ZM72.1426 61.5404C73.3254 60.8436 75.8507 59.7307 78.2911 58.8519C81.2775 57.7781 83.2223 57.3803 85.1642 57.6611C86.9909 57.8509 88.667 58.8025 89.4416 60.5861C90.2036 62.3411 89.791 64.3821 87.7058 66.0799L87.7312 66.1397C90.4708 65.8641 93.0378 66.899 94.1426 69.4444C94.9172 71.228 94.6277 72.957 93.7107 74.4364C92.6326 76.142 90.2787 77.7358 85.9756 79.2854C83.5672 80.1512 81.7051 80.653 80.55 80.9L72.1426 61.5404" fill="#F47458"/>
    <path d="M332.276 219.73C332.561 220.863 331.799 222.002 330.557 222.275C329.398 222.53 327.922 222.73 326.229 222.782C317.41 223.052 312.682 218.193 312.436 211.573C312.142 203.646 318.186 199.041 325.909 198.805C327.442 198.758 328.79 198.862 329.88 199.034C331.194 199.242 332.047 200.412 331.759 201.595L331.742 201.67C331.47 202.78 330.291 203.513 329.061 203.313C328.253 203.183 327.342 203.11 326.334 203.142C321.755 203.282 318.289 205.905 318.48 211.077C318.654 215.731 321.789 218.57 326.937 218.411C327.793 218.385 328.693 218.274 329.521 218.115C330.765 217.873 331.993 218.599 332.276 219.73" fill="#F7CC7F"/>
    <path d="M60.8705 125.456C60.6786 126.605 59.5101 127.411 58.2447 127.25C57.0642 127.099 55.6127 126.793 54.0156 126.275C45.7008 123.584 43.258 117.485 45.6948 111.245C48.6134 103.77 56.0904 101.505 63.3706 103.863C64.8149 104.331 66.0283 104.877 66.9739 105.402C68.1113 106.034 68.4334 107.404 67.6896 108.411L67.6428 108.476C66.9453 109.419 65.5518 109.705 64.4878 109.11C63.7897 108.717 62.9717 108.346 62.0208 108.039C57.7029 106.64 53.4221 107.927 51.5184 112.802C49.8054 117.188 51.5818 120.875 56.435 122.448C57.2424 122.708 58.124 122.906 58.9565 123.033C60.213 123.225 61.0615 124.307 60.8705 125.456" fill="#F7CC7F"/>
    <path d="M331.59 137.419L326.14 124.323C325.689 123.238 326.329 122.029 327.539 121.676L329.004 121.247C330.211 120.893 331.502 121.53 331.833 122.648L335.83 136.176L331.59 137.419ZM332.024 142.473C331.47 140.791 332.567 138.953 334.42 138.461C336.344 137.947 338.048 138.851 338.708 140.604C339.33 142.364 338.497 144.067 336.487 144.655C334.448 145.253 332.618 144.285 332.024 142.473" fill="#466EB6"/>
    <path d="M207.371 158.468C207.699 158.593 203.034 164.069 198.49 167.94C194.826 172.129 191.389 177.084 190.206 182.49C188.407 190.708 189.904 231.307 188.338 234.196C174.892 246.169 165.155 276.215 162.421 285.38C161.889 287.166 160.809 288.775 159.313 290.028L159.911 300.387L166.593 305.992C166.593 305.992 165.106 297.553 168.076 291.289C168.076 291.289 201.931 244.599 203.941 241.029C207.781 230.868 221.762 178.792 221.762 178.792L225.008 166.822C225.008 166.822 207.399 158.479 207.371 158.468" fill="#F7A491"/>
    <path d="M151.995 293.362C151.995 293.362 156.223 299.297 156.584 301.609C156.945 303.92 159.198 309.167 161.689 309.5C162.255 309.575 171.943 310.223 171.872 309.12C171.818 308.278 168.312 307.074 166.683 306.05C163.869 304.279 159.5 289.859 159.5 289.859C159.5 289.859 152.177 291.513 151.995 293.362" fill="#FF3B3B"/>
    <path d="M236.308 176.463C236.308 176.463 258.114 218.924 258.251 226.388C258.371 232.787 254.44 268.69 255.539 298.588C255.576 299.667 257.078 301.102 259.262 302.014C260.492 302.527 266.431 304.942 266.431 304.942L267.247 306.876L246.797 305.55L246.506 300.465C246.506 300.465 238.366 255.74 239.194 243.091C239.325 241.104 240.388 229.207 240.388 229.207L215.794 185.969L231.26 167.459L236.308 176.463Z" fill="#F7A491"/>
    <path d="M165.66 82.6497C165.498 77.8891 167.59 70.3049 173.953 63.2902L174.679 63.8362C168.484 70.6663 166.445 78.0191 166.602 82.6211L165.66 82.6497Z" fill="#F7CC7F"/>
    <path d="M165.911 81.5292C167.739 81.6644 166.818 83.4844 166.611 83.9082C167.658 85.1952 167.029 91.2037 166.715 91.6327C165.825 92.0617 165.842 90.7747 165.842 90.7747C165.406 92.2515 164.778 90.7747 164.621 90.9645C164.045 92.0149 163.574 90.5069 163.574 90.5069C162.527 92.0617 162.684 90.2495 162.684 90.2495C163.207 84.8623 164.933 83.4792 164.933 83.4792C164.629 82.2234 164.853 81.6488 165.773 81.5318C165.817 81.5266 165.867 81.5266 165.911 81.5292" fill="#F7CC7F"/>
    <path d="M196.649 88.752C191.204 91.9318 173.574 94.446 173.574 94.446C180.485 74.2309 171.852 63.1679 171.852 63.1679C187.521 62.8039 203.501 58.0199 213.363 53.2515C208.966 74.7431 214.398 78.0452 214.398 78.0452C204.987 83.7652 196.649 88.752 196.649 88.752Z" fill="#100062"/>
    <path d="M238.352 81.1625C235.049 73.1441 226.417 68.2899 217.428 69.7901C214.67 65.7367 210.072 62.7259 205.069 61.7509C195.199 59.8243 181.852 63.3759 182.212 72.8919C178.383 79.2853 178.237 88.4269 184.094 93.2889C182.057 101.885 190.899 110.199 202.391 109.895C206.394 115.906 214.02 119.773 221.602 118.948C223.422 118.748 226.198 118.337 226.657 118.441C226.079 118.343 238.837 127.25 249.649 113.551C260.681 99.5731 252.929 82.6523 238.352 81.1625" fill="#FF3B3B"/>
    <path d="M237.047 33.0781C237.581 31.9263 238.238 30.8291 239.011 29.8021L239.862 28.6685C239.968 28.4683 240.051 28.2993 240.091 28.1875C240.465 27.1839 238.6 20.8321 238.6 20.8321L232.719 25.6031L233.033 28.0861C231.371 27.3867 229.944 21.7266 229.296 23.1878C227.29 27.7248 228.559 29.3523 229.301 34.5341C229.556 36.2995 225.338 63.4487 224.089 68.8437C222.839 74.2387 214.398 89.3031 214.398 89.3031L221.151 97.1057C221.151 97.1057 234.495 75.2605 235.308 68.2509C235.394 67.5125 235.491 66.4101 235.594 65.0425L237.047 33.0781" fill="#F7A491"/>
    <path d="M226.452 74.7068C223.043 73.7084 223.52 68.4122 223.52 68.4122C225.981 52.1076 228.337 37.3734 228.337 37.3734C230.535 36.2294 238.155 38.3744 238.155 38.3744C236.819 58.2566 236.296 69.2884 235.771 70.6066C235.248 71.9248 232.205 76.3916 226.452 74.7068Z" fill="#100062"/>
    <path d="M185.627 118.147L176.459 111.07C176.459 111.07 169.036 122.341 163.091 131.532C157.193 129.59 141.951 120.54 141.199 120.126C140.445 119.708 138.775 109.482 137.484 110.025C136.192 110.568 138.476 115.423 136.909 115.784C135.342 116.148 123.608 109.006 123.367 109.96C122.916 111.744 130.373 114.588 129.996 115.384C129.62 116.179 122.5 111.741 121.366 112.849C120.232 113.959 128.519 116.463 128.562 117.185C128.604 117.908 120.44 115.81 120.654 117.367C120.771 118.215 127.962 119.071 127.51 119.97C127.057 120.87 121.454 121.02 121.688 121.982C121.922 122.947 126.364 121.265 129.076 122.346C131.787 123.428 134.332 122.895 138.117 125.802C141.899 128.704 160.493 145.281 166.285 143.859C171.345 142.616 185.627 118.147 185.627 118.147" fill="#F7A491"/>
    <path d="M186.324 227.467C186.327 227.475 186.33 227.475 186.332 227.465C186.331 227.467 186.324 227.467 186.324 227.467Z" fill="#F47458"/>
    <path d="M218.015 106.019C218.601 102.753 225.008 97.8779 235.771 70.6065C235.771 70.6065 228.742 67.8505 223.52 68.4121C223.52 68.4121 205.856 97.8935 201.868 98.2497C197.879 98.6033 183.848 99.1597 181.389 100.517C178.928 101.877 162.151 131.194 162.151 131.194C162.151 131.194 162.746 146.67 165.616 145.471C171.584 142.983 183.649 121.577 184.448 120.789C185.017 122.461 193.755 148.243 193.742 154.082L193.809 154.132C201.977 160.164 213.895 158.77 220.194 151.043C220.194 151.043 218.761 143.076 220.519 135.83C223.48 123.621 227.269 120.043 218.015 106.019" fill="#100062"/>
    <path d="M265.152 232.23C265.152 232.23 256.407 195.95 251.419 180.225C246.432 164.5 223.081 115.945 223.081 115.945C217.178 107.605 184.437 120.633 184.448 120.789C186.514 149.186 184.391 167.896 182.998 181.983C181.416 197.975 171.337 233.107 171.873 234.932C200.327 231.781 257.078 239.947 265.152 232.23" fill="#100062"/>
    <path d="M236.939 28.8584C236.939 28.8584 236.179 30.7876 234.124 30.1272C231.9 29.4122 230.572 28.445 230.572 28.445C230.572 28.445 231.705 30.8059 233.698 31.4559C237.598 32.7273 236.939 28.8584 236.939 28.8584" fill="#F47458"/>
    <path d="M232.759 2.91815C233.647 14.5323 237.749 30.7616 244.693 45.4464C245.632 48.3506 236.913 50.6958 235.971 47.7942C234.849 36.96 230.064 18.292 222.87 5.27379C221.803 1.55579 231.691 -0.799855 232.759 2.91815Z" fill="#C98C53"/>
    <path d="M240.687 43.0154C239.425 35.6028 233.156 10.7026 230.746 1.2308C227.586 0.409204 222.058 2.4476 222.87 5.2738C230.064 18.292 234.849 36.96 235.971 47.7942C236.368 44.7314 238.489 43.3742 240.687 43.0154Z" fill="#E8B16B"/>
    <path d="M239.274 46.0184C239.437 43.6342 243.802 43.2546 244.616 45.4464C243.985 42.7762 240.139 32.9196 237.204 23.5128C234.269 14.106 233.096 4.58737 232.782 2.53597C232.125 1.04877 229.912 0.614565 227.153 0.819965C227.409 1.43357 239.274 46.0184 239.274 46.0184Z" fill="#F7CC7F"/>
    <path d="M229.236 20.9725C230.875 23.8325 233.122 32.9872 233.122 32.9872C237.447 32.9872 239.968 31.0501 239.968 31.0501C237.787 25.7201 236.348 20.1379 236.151 18.9575C233.678 18.2789 230.692 18.8743 229.236 20.9725" fill="#FF3B3B"/>
    <path d="M194.65 88.8612C194.65 88.8612 196.154 96.2452 195.853 99.1572C195.553 102.069 205.877 118.618 206.806 118.285C207.695 117.966 205.629 100.741 204.123 96.6976C203.097 93.9442 203.366 85.0105 203.366 85.0105L194.65 88.8612" fill="#F7A491"/>
    <path d="M203.501 89.4435C203.4 87.0255 203.366 85.0105 203.366 85.0105L194.65 88.8611C194.65 88.8611 194.958 90.3691 195.266 92.2957C199.083 93.0211 201.847 91.6821 203.501 89.4435Z" fill="#F47458"/>
    <path d="M191.464 68.4876C191.464 68.4876 188.105 70.253 186.877 74.0828C185.648 77.9126 187.046 87.7952 195.723 90.1794C204.4 92.5662 208.159 84.7402 206.372 78.6224C204.584 72.5046 200.697 64.7566 191.464 68.4876" fill="#F7A491"/>
    <path d="M207.457 76.2511C207.287 77.8943 206.33 79.1501 205.321 79.0565C204.312 78.9629 203.632 77.5537 203.802 75.9105C203.971 74.2673 204.928 73.0115 205.936 73.1051C206.945 73.1987 207.627 74.6079 207.457 76.2511" fill="#F7A491"/>
    <path d="M189.375 82.5822C190.394 84.02 190.39 85.7125 189.367 86.3677C188.343 87.0203 186.686 86.3859 185.667 84.9481C184.648 83.513 184.652 81.8178 185.676 81.1652C186.7 80.5126 188.357 81.147 189.375 82.5822Z" fill="#F7A491"/>
    <path d="M237.889 20.0756C236.208 19.7766 230.335 24.7113 230.398 25.4731C230.464 26.2609 236.162 23.1617 236.359 23.6791C236.516 24.0873 229.83 25.8241 230.247 26.5495C230.529 27.0461 236.396 25.8346 236.585 26.1517C236.882 26.6509 231.897 26.7055 232.299 27.2541C232.765 27.8911 239.542 28.4449 239.542 28.4449C239.542 28.4449 238.649 26.0347 238.772 25.3795C238.823 25.1013 238.826 24.7087 238.8 24.2589C238.774 23.9001 238.951 23.5881 238.894 23.1825C238.672 21.5445 238.82 20.2394 237.889 20.0756" fill="#F7A491"/>
    <path d="M232.516 22.2517L230.144 24.9479L229.239 23.8533C229.239 23.8533 229.207 23.5101 229.356 23.0785C229.45 22.8003 232.222 21.3651 232.516 22.2517" fill="#F7A491"/>
    <path d="M246.728 309.094H272.563C273.52 309.016 273.751 308.314 273.42 307.883C272.738 306.991 269.723 306.336 266.337 304.916C260.395 305.48 247.454 301.783 246.517 300.543C245.975 303.026 246.197 308.988 246.728 309.094" fill="#FF3B3B"/>
    <path d="M229.321 26.131C229.236 25.5044 230.535 26.1648 232.516 29.2692C233.967 31.5468 232.516 36.1826 232.516 36.1826L229.053 27.7976L229.321 26.131" fill="#F7A491"/>
    <path d="M162.151 131.194C154.202 126.772 142.875 120.698 142.037 120.412C141.199 120.126 137.135 126.389 137.658 126.961C138.182 127.533 163.419 147.171 165.616 145.471C167.813 143.773 162.151 131.194 162.151 131.194" fill="#100062"/>
    <path d="M196.036 100.325C197.422 105.049 205.965 118.587 206.806 118.285C207.603 117.999 206.025 104.121 204.605 98.3434C203.439 99.8696 199.968 101.274 196.036 100.325" fill="white"/>
    <path d="M195.742 95.8058C192.566 98.3434 191.584 101.651 189.49 112.469C187.942 120.462 185.929 170.54 178.076 181.983C190.641 189.421 203.501 185.989 203.501 185.989C199.123 145.081 196.649 99.6304 195.742 95.8058Z" fill="#F7CC7F"/>
    <path d="M203.715 94.901C212.876 100.122 230.535 141.36 250.64 137.356C251.582 144.509 240.142 158.468 240.142 158.468C215.772 140.502 204.605 98.3434 204.605 98.3434C203.963 97.0304 203.715 94.901 203.715 94.901Z" fill="#F7CC7F"/>
    </svg>
