<svg width="438" height="396" viewBox="0 0 438 396" fill="none" xmlns="http://www.w3.org/2000/svg">
    <path d="M167.008 75.4752L163.579 76.7738L161.278 70.1932L156.076 71.3317L153.701 66.7534L151.823 68.2392L155 74.3608L159.93 73.2826L162.324 80.129L167.485 78.1721L167.008 75.4752" fill="#50BFA5"/>
    <path d="M386.856 312.156L383.427 313.454L381.125 306.874L375.923 308.012L373.549 303.434L371.673 304.92L374.847 311.038L379.778 309.963L382.172 316.809L387.333 314.852L386.856 312.156" fill="#50BFA5"/>
    <path d="M145.884 390.062C145.884 390.062 127.59 313.499 126.123 296.612C124.656 279.721 134.886 284.954 134.886 284.954C134.886 284.954 126.28 252.773 132.501 245.136C138.726 237.498 144.339 251.734 144.339 251.734C144.339 251.734 146.222 212.668 152.857 212.656C165.213 212.628 164.971 255.259 164.971 255.259C164.971 255.259 168.123 238.57 174.741 243.146C184.72 250.046 170.41 283.496 170.41 283.496C170.41 283.496 183.125 283.505 187.591 291.423C195.606 305.626 145.884 390.062 145.884 390.062Z" fill="#50BFA5"/>
    <path d="M151.864 379.93C151.864 379.93 99.1272 369.04 87.6568 357.501C76.1864 345.961 87.5394 340.761 87.5394 340.761C87.5394 340.761 61.0474 323.991 61.3531 312.587C61.6613 301.184 74.8217 306.982 74.8217 306.982C74.8217 306.982 52.4996 275.55 57.7848 269.58C67.6264 258.463 93.4336 291.136 93.4336 291.136C93.4336 291.136 85.7711 275.598 93.8395 273.137C106.012 269.432 114.993 307.743 114.993 307.743C114.993 307.743 112.711 292.613 121.102 294.631C136.16 298.245 151.864 379.93 151.864 379.93" fill="#50BFA5"/>
    <path d="M121.102 294.63C112.691 292.752 114.993 307.743 114.993 307.743C114.993 307.743 106.012 269.432 93.8396 273.137C85.7711 275.598 93.4336 291.136 93.4336 291.136C93.4336 291.136 67.6264 258.463 57.7848 269.58L151.688 379.949C150.015 369.406 135.206 297.777 121.102 294.63" fill="#3C8F7C"/>
    <path d="M166.868 388.912C166.868 388.912 139.095 354.037 125.11 350.404C111.123 346.774 113.64 359.059 113.64 359.059C113.64 359.059 85.8909 329.095 79.4587 336.355C73.0289 343.615 79.9845 350.624 79.9845 350.624C79.9845 350.624 56.8701 345.569 53.5635 354.934C48.4789 369.324 86.4926 377.158 86.4926 377.158C86.4926 377.158 70.5612 378.523 74.2567 387.547C79.828 401.155 166.868 388.912 166.868 388.912Z" fill="#355389"/>
    <path d="M53.5635 354.934C56.8701 345.569 79.9846 350.624 79.9846 350.624C79.9846 350.624 73.0289 343.615 79.4587 336.355C85.891 329.095 112.777 354.985 112.777 354.985C112.777 354.985 106.437 340.021 120.422 343.654C134.409 347.287 166.869 388.912 166.869 388.912L53.5635 354.934Z" fill="#466EB6"/>
    <path d="M211.085 29.2209C201.735 31.1174 198.959 46.2688 206.731 53.0456C208.128 54.2627 209.094 56.0928 209.505 58.1434L210.918 65.189C211.31 67.1309 212.841 68.3782 214.44 68.055L217.981 67.3332C219.581 67.0101 220.711 65.2223 220.574 63.2291C220.082 55.9509 219.476 53.3114 221.391 50.0679C226.994 40.5761 220.435 27.3183 211.085 29.2209Z" fill="#F7CC7F"/>
    <path d="M216.404 39.4012C216.113 40.2287 216.223 41.2857 216.292 42.5028C217.057 41.9652 217.945 41.2918 218.234 40.3072C218.437 39.6157 218.209 38.6402 217.639 38.459C217.576 38.4409 216.61 38.8214 216.404 39.4012V39.4012ZM207.739 43.8708C208.216 44.502 209.013 44.7829 210.177 44.7164C209.977 43.6564 209.679 42.7051 209.089 42.0286C207.759 40.5005 206.942 42.8078 207.739 43.8708ZM212.039 60.0218C211.43 53.7885 210.576 47.2049 210.285 45.3385C204.927 45.704 206.964 38.7308 209.436 41.5666C210.141 42.3729 210.473 43.4692 210.694 44.6711C212.472 44.4718 214.213 43.8467 215.798 42.835C215.712 41.2978 215.59 40.1321 215.937 39.1476C216.463 37.6617 217.987 37.257 218.608 38.7066C218.84 39.2502 218.882 39.9448 218.713 40.5216C218.353 41.7508 217.272 42.5632 216.328 43.1974C216.612 48.1532 217.001 53.1483 217.493 58.0648L216.989 58.1433C216.504 53.3053 216.118 48.3918 215.837 43.5145C214.262 44.4809 212.55 45.0879 210.796 45.2902C211.163 47.679 211.973 54.0935 212.545 59.9463L212.039 60.0218" fill="#FAE0B2"/>
    <path d="M209.463 57.9682C209.475 58.0256 209.492 58.083 209.505 58.1434L210.918 65.189C211.31 67.1309 212.841 68.3782 214.44 68.055L217.982 67.3332C219.581 67.0101 220.711 65.2223 220.574 63.2291C220.356 59.9916 220.114 57.6722 220.083 55.8119L209.463 57.9682" fill="#96D9C9"/>
    <path d="M204.153 23.957L201.358 17.6542C201.089 17.0472 201.27 16.2801 201.764 15.9479C202.258 15.6127 202.877 15.8362 203.148 16.4462L205.944 22.746C206.213 23.356 206.032 24.1231 205.538 24.4553C205.041 24.7905 204.422 24.564 204.153 23.957Z" fill="#FAE0B2"/>
    <path d="M198.044 39.1989L191.949 38.5406C191.389 38.4802 190.973 37.8701 191.025 37.1756C191.074 36.484 191.568 35.9706 192.128 36.031L198.223 36.6893C198.783 36.7497 199.199 37.3598 199.15 38.0544C199.101 38.7459 198.607 39.2593 198.044 39.1989Z" fill="#FAE0B2"/>
    <path d="M192.003 62.2657C191.607 61.7704 191.609 60.9762 192.011 60.4869C193.51 58.6598 195.156 56.9988 196.907 55.5552C197.374 55.1687 198.007 55.3227 198.32 55.9025C198.634 56.4793 198.509 57.2615 198.039 57.6481C196.396 59.0041 194.85 60.5624 193.444 62.2778C193.045 62.764 192.399 62.764 192.003 62.2657" fill="#FAE0B2"/>
    <path d="M219.209 23.6157C218.666 23.4375 218.344 22.746 218.488 22.0755C219.177 18.8864 219.601 15.5946 219.745 12.2998C219.777 11.6052 220.256 11.0707 220.819 11.1099C221.381 11.1462 221.811 11.7381 221.782 12.4327C221.63 15.9057 221.185 19.3666 220.459 22.7248C220.312 23.4013 219.75 23.7939 219.209 23.6157" fill="#FAE0B2"/>
    <path d="M225.485 33.2888C225.324 32.6214 225.627 31.9207 226.167 31.7184L232.502 29.3628C233.042 29.1604 233.61 29.5379 233.774 30.2054C233.935 30.8698 233.629 31.5734 233.091 31.7728L226.757 34.1314C226.219 34.3308 225.649 33.9563 225.485 33.2888Z" fill="#FAE0B2"/>
    <path d="M235.891 54.1026C235.801 54.1026 235.708 54.0875 235.615 54.0573C233.419 53.2932 231.286 52.2362 229.271 50.9165C228.775 50.5903 228.586 49.8263 228.85 49.2132C229.114 48.6002 229.731 48.3676 230.227 48.6938C232.113 49.929 234.111 50.9195 236.168 51.6322C236.708 51.8195 237.024 52.514 236.872 53.1845C236.745 53.7402 236.337 54.1026 235.891 54.1026" fill="#FAE0B2"/>
    <path d="M328.679 109.761L325.483 100.426L317.446 98.3879C316.532 98.1553 316.228 96.7269 316.935 95.9719L323.135 89.3339L322.22 79.2652C322.118 78.1176 323.123 77.3234 323.925 77.9183L330.952 83.149L338.426 78.9632C339.277 78.4891 340.201 79.4223 339.988 80.5487L338.132 90.4181L343.664 97.9016C344.295 98.7533 343.86 100.127 342.928 100.227L334.752 101.097L330.7 109.906C330.237 110.909 329.044 110.821 328.679 109.761Z" fill="#F7CC7F"/>
    <path d="M379.558 77.7401L378.244 84.2724L369.496 82.8228L366.622 92.0821L359.933 92.3207L360.031 96.5004L368.975 96.1833L371.702 87.4102L380.8 88.9171L382.776 79.084L379.558 77.7401" fill="#F48C7F"/>
    <path d="M301.63 390.92H147.88C142.008 390.92 137.248 384.823 137.248 377.303V369.203C137.248 361.684 142.008 355.586 147.88 355.586H301.63C294.598 365.431 294.476 380.477 301.349 390.509L301.63 390.92Z" fill="#B75742"/>
    <path d="M299.258 359.636H213.978C208.106 359.636 203.346 365.733 203.346 373.253C203.346 380.776 208.106 386.87 213.978 386.87H299.265C295.278 378.517 295.286 367.968 299.258 359.636Z" fill="#FAE0B2"/>
    <path d="M247.616 331.046C247.839 330.529 247.499 329.928 246.983 329.928H165.629C159.25 329.928 154.082 335.672 154.082 342.76C154.082 349.845 159.25 355.592 165.629 355.592H247.005C247.523 355.592 247.866 354.988 247.638 354.469C244.417 347.052 244.424 338.43 247.616 331.046Z" fill="#86B1F2"/>
    <path d="M247.103 332.317H206.783C199.299 332.317 193.233 337.131 193.233 343.068C193.233 349.009 199.299 353.822 206.783 353.822H247.367C244.593 346.979 244.518 339.188 247.103 332.317" fill="#F7CC7F"/>
    <path d="M236.689 337.415H231.438C230.31 337.415 229.393 337.883 229.393 338.46V338.553H236.689V337.415" fill="#B75742"/>
    <path d="M241.169 340.036C241.169 338.587 239.797 337.415 238.105 337.415H231.367C232.651 337.415 233.69 338.306 233.69 339.402L233.659 367.515L237.381 363.9L241.177 367.515L241.169 340.036" fill="#F47458"/>
    <path d="M232.658 329.004H185.321C181.125 329.004 177.723 324.015 177.723 317.863C177.723 311.712 181.125 306.726 185.321 306.726H232.658C229.041 312.902 228.899 321.958 232.321 328.37L232.658 329.004Z" fill="#FAE0B2"/>
    <path d="M177.728 317.863C177.728 311.712 181.21 306.726 185.507 306.726H233.561C233.786 306.726 233.967 306.463 233.964 306.143C233.962 305.826 233.781 305.572 233.561 305.572H157.328C152.588 305.572 148.743 311.074 148.743 317.863C148.743 324.655 152.588 330.158 157.328 330.158H233.561C233.781 330.158 233.962 329.901 233.964 329.587C233.967 329.264 233.783 329.004 233.561 329.004H185.507C181.21 329.004 177.728 324.015 177.728 317.863" fill="#466EB6"/>
    <path d="M224.392 312.198H219.141C218.013 312.198 217.096 312.66 217.096 313.225V313.318H224.392V312.198Z" fill="#184655"/>
    <path d="M228.872 314.771C228.872 313.351 227.5 312.198 225.808 312.198H219.07C220.354 312.198 221.393 313.074 221.393 314.149L221.362 341.718L225.084 338.173L228.88 341.718L228.872 314.771" fill="#3C8F7C"/>
    <path d="M308.079 141.909L315.066 139.638L310.332 217.645L301.948 217.989L306.176 144.742C306.255 143.392 307.02 142.253 308.079 141.909" fill="#184655"/>
    <path d="M310.958 219.868C310.801 219.886 310.642 219.883 310.478 219.858C309.092 219.656 308.065 217.953 308.184 216.053L312.836 142.703C312.956 140.804 314.179 139.427 315.568 139.629C316.955 139.831 317.982 141.535 317.862 143.437L313.21 216.787C313.103 218.463 312.137 219.735 310.958 219.868" fill="#F7CC7F"/>
    <path d="M246.643 223.775C246.645 223.83 246.648 223.881 246.653 223.935C246.87 226.919 248.744 229.154 250.832 228.921L309.85 222.398C311.941 222.169 313.457 219.562 313.24 216.579C313.23 216.452 313.217 216.328 313.2 216.204L246.643 223.775Z" fill="#F7CC7F"/>
    <path d="M287.738 302.561C283.874 305.206 272.061 300.568 272.061 300.148C271.892 304.134 258.835 343.153 258.835 343.153L258.845 355.157C258.845 355.157 285.75 356.74 285.363 353.804C284.977 350.869 283.529 352.778 278.163 347.233C277.686 346.741 270.151 344.581 272.188 339.073C276.297 327.98 285.019 309.486 287.738 302.561Z" fill="#F7A491"/>
    <path d="M257.959 355.586L287.413 355.595C288.474 355.462 288.724 354.393 288.347 353.744C287.574 352.409 281.93 349.256 278.136 347.166C271.528 348.118 259.911 344.98 258.847 343.12C256.049 347.746 257.367 355.435 257.959 355.586" fill="#3C8F7C"/>
    <path d="M251.5 274.547C251.101 273.071 276.857 259.574 278.009 261.118C280.049 263.845 264.073 315.046 264.073 315.046L282.429 321.971C282.429 321.971 301.507 262.818 300.71 251.997C299.915 241.179 290.358 228.885 269.647 236.752C248.937 244.622 251.5 274.547 251.5 274.547" fill="#355389"/>
    <path d="M304.826 309.29C300.478 308.314 294.843 308.036 290.331 307.94C290.864 312.898 293.444 338.33 292.972 339.894C291.062 346.224 286.821 349.187 286.821 349.187C286.821 349.187 306.82 371.468 308.025 368.895C309.233 366.322 307.135 366.666 305.829 358.177C305.714 357.422 302.821 345.572 302.642 339.181C302.3 326.993 304.677 316.06 304.826 309.29" fill="#F7A491"/>
    <path d="M298.409 226.089C295.618 224.253 288.377 224.186 280.413 224.823C264.886 226.068 249.558 229.84 234.789 235.883L224.905 239.923L224.937 227.411C224.937 227.411 193.495 220.915 192.399 230.537C190.753 245.027 192.798 274.448 203.273 281.013C235.813 301.41 281.414 248.521 281.58 255.44C281.8 264.733 288.144 299.315 289.768 314.454C294.278 314.55 302.029 314.547 305.391 313.593C306.044 283.934 306.35 231.322 298.409 226.089" fill="#466EB6"/>
    <path d="M286.21 349.709L308.693 371.882C309.583 372.613 310.322 371.982 310.366 371.184C310.454 369.545 307.705 362.689 305.844 358.105C300.243 353.669 292.855 342.105 292.989 339.834C290.617 342.304 285.831 349.127 286.21 349.709Z" fill="#3C8F7C"/>
    <path d="M235.324 105.141C234.571 96.6151 233.774 88.0595 228.053 81.8111C223.421 76.7556 217.534 75.8979 211.711 78.6038C195.214 86.2686 203.713 104.358 182.68 122.599C176.143 128.268 168.94 132.145 164.019 139.777C157.13 150.462 159.732 163.309 166.008 171.889C196.046 212.936 229.579 157.501 231.988 144.192C233.778 134.293 235.811 110.628 235.324 105.141" fill="#13375B"/>
    <path d="M229.224 153.074C226.771 147.49 224.245 143.057 224.245 143.057C221.699 137.47 215.125 134.646 215.125 134.646C215.125 134.646 212.926 134.7 210.4 134.854C210.243 135.371 210.084 135.739 209.923 135.887C208.974 136.766 203.535 135.633 200.023 138.578C188.247 151.042 191.504 211.457 192.429 230.537L228.293 230.957C228.293 230.957 223.771 189.9 231.056 179.351C236.131 172.006 232.866 161.361 229.224 153.074Z" fill="#50BFA5"/>
    <path d="M213.061 114.207C213.061 114.207 211.09 131.59 209.713 135.815C208.336 140.04 217.282 149.073 224.727 151.818C232.171 154.56 222.452 142.486 222.76 137.968C223.069 133.453 224.423 112.071 224.423 112.071L213.061 114.207Z" fill="#F7A491"/>
    <path d="M224.047 118.202C224.264 114.666 224.423 112.071 224.423 112.071L213.061 114.207C213.061 114.207 212.775 116.248 212.457 119.135C217.064 122.436 221.205 121.394 224.047 118.202" fill="#F47458"/>
    <path d="M216.624 82.4543C216.624 82.4543 212.146 83.7016 209.38 88.9111C206.616 94.1206 204.718 109.462 213.826 116.623C222.932 123.783 230.014 113.654 230.132 103.776C230.249 93.8941 228.535 80.7118 216.624 82.4543Z" fill="#F7A491"/>
    <path d="M232.218 100.683C231.44 103.066 229.899 104.546 228.774 103.987C227.649 103.428 227.368 101.042 228.146 98.6597C228.921 96.2739 230.462 94.7941 231.587 95.3558C232.712 95.9145 232.993 98.3003 232.218 100.683Z" fill="#F7A491"/>
    <path d="M217.967 82.1312C217.967 82.1312 212.259 97.944 207.242 99.3543C202.226 100.768 202.3 108.725 202.3 108.725C202.3 108.725 202.41 90.3487 207.113 86.1358C211.814 81.9198 217.967 82.1312 217.967 82.1312" fill="#13375B"/>
    <path d="M209.236 102.643C209.896 105.21 209.292 107.738 207.886 108.29C206.479 108.84 204.804 107.206 204.144 104.639C203.483 102.069 204.087 99.5415 205.494 98.9888C206.9 98.4391 208.575 100.073 209.236 102.643Z" fill="#F7A491"/>
    <path d="M273.379 216.805C271.227 215.845 268.026 215.724 268.08 215.374C268.295 213.954 277.801 218.508 276.517 216.437C275.801 215.283 268.689 211.197 266.957 211.87C265.279 212.526 254.264 216.343 254.264 216.343L224.155 207.63C224.155 207.63 216.556 186.306 215.812 167.984C209.532 169.035 205.254 170.949 199.795 174.691C202.427 192.213 208.827 220.613 215.903 225.944C218.877 228.184 254.413 223.259 254.413 223.259C254.413 223.259 262.244 222.576 263.523 221.969C264.494 221.507 266.994 219.771 268.351 219.294C271.442 218.215 276.945 220.927 276.962 220.178C276.975 219.635 275.578 217.787 273.379 216.805" fill="#F7A491"/>
    <path d="M215.998 148.408C215.707 142.773 213.978 137.328 209.121 135.576C206.11 134.489 202.733 135.528 200.326 137.956C197.464 140.843 196.665 145.473 196.679 149.855C196.709 159.809 197.259 170.125 198.731 179.925C204.19 176.183 210.564 173.933 216.847 172.882C216.844 172.825 216.38 155.858 215.998 148.408" fill="#96D9C9"/>
    <path d="M122.711 159.048L76.0323 148.314C75.0956 148.097 74.4769 146.986 74.6505 145.826L80.4982 107.052C80.6743 105.896 81.5743 105.132 82.5135 105.346L129.19 116.079C130.129 116.293 130.748 117.408 130.572 118.565L124.724 157.341C124.55 158.498 123.648 159.262 122.711 159.048Z" fill="#F7CC7F"/>
    <path d="M100.492 114.72L86.2823 111.452C85.3456 111.235 84.7268 110.124 84.9005 108.964L85.7907 103.066C85.9668 101.906 86.8668 101.142 87.806 101.36L102.013 104.627C102.952 104.842 103.569 105.956 103.395 107.113L102.505 113.014C102.331 114.17 101.429 114.934 100.492 114.72Z" fill="#F7CC7F"/>
    <path d="M124.837 157.565C124.594 158.625 123.736 159.283 122.858 159.081L75.8758 148.278C75.0027 148.076 74.3937 147.088 74.4719 145.995L76.9299 111.238C76.9739 110.64 77.2185 110.09 77.6049 109.725C77.9938 109.363 78.4878 109.218 78.9672 109.326L131.161 121.328C131.638 121.44 132.056 121.79 132.311 122.3C132.567 122.811 132.638 123.427 132.506 124.003L124.837 157.565Z" fill="#FAE0B2"/>
    <path d="M338.934 30.5617L330.942 33.2585L329.22 21.2963L331.834 20.7225L333.047 29.1453L338.235 27.3967L338.934 30.5617" fill="#50BFA5"/>
    <path d="M84.2794 194.829C86.2824 194.626 89.3541 195.716 90.7335 196.87C90.9389 197.109 92.5237 197.888 94.1721 201.258L93.8004 201.575C92.064 199.328 90.8949 198.824 89.5009 198.308C87.2068 197.58 84.8932 198.123 84.7049 198.25L84.2794 194.829Z" fill="#355389"/>
    <path d="M93.9863 201.415C93.9863 201.415 81.7895 203.928 82.9268 215.694C84.064 227.46 96.9309 236.61 108.416 229.335C123.863 219.547 117.761 194.659 106.765 192.736C95.7717 190.812 93.9863 201.415 93.9863 201.415" fill="#F47458"/>
    <path d="M99.1614 196.236C99.1614 196.236 102.343 192.201 109.314 195.87C116.286 199.54 116.79 216.654 110.573 215.661C104.354 214.667 94.1892 198.703 99.1614 196.236" fill="#F48C7F"/>
    <path d="M183.062 39.9358L132.9 62.0301C131.283 62.7428 129.505 61.7009 128.928 59.7047L119.671 27.6565C119.094 25.6602 119.938 23.4617 121.554 22.752L171.716 0.654637C173.333 -0.0550627 175.111 0.983818 175.688 2.98004L184.945 35.0313C185.522 37.0275 184.681 39.2231 183.062 39.9358" fill="#86B1F2"/>
    <path d="M149.815 31.6973C151.659 38.0815 148.963 45.1061 143.791 47.3831C138.621 49.6602 132.934 46.3322 131.088 39.9449C129.244 33.5606 131.941 26.5391 137.112 24.259C142.282 21.9819 147.97 25.313 149.815 31.6973Z" fill="white"/>
    <path d="M141.876 29.9789C142.421 31.8634 141.624 33.9321 140.1 34.6055C138.574 35.276 136.899 34.2945 136.353 32.413C135.81 30.5285 136.605 28.4568 138.131 27.7864C139.655 27.1159 141.333 28.0975 141.876 29.9789Z" fill="#86B1F2"/>
    <path d="M146.652 40.0717L137.831 43.9584L137.476 42.7353C136.833 40.5066 137.774 38.0513 139.582 37.257L141.861 36.2514C143.669 35.4571 145.655 36.6198 146.3 38.8516L146.652 40.0717" fill="#86B1F2"/>
    <path d="M151.05 24.9958C150.517 24.9958 150.037 24.5791 149.856 23.957C149.621 23.1446 149.966 22.2476 150.624 21.9577L172.553 12.2998C172.69 12.2394 172.834 12.2062 172.978 12.2062C173.514 12.2062 173.993 12.6259 174.172 13.2481C174.406 14.0604 174.064 14.9574 173.404 15.2473L151.478 24.9052C151.338 24.9656 151.196 24.9958 151.05 24.9958Z" fill="white"/>
    <path d="M156.971 31.7486C156.435 31.7486 155.956 31.3288 155.775 30.7067C155.54 29.8943 155.885 28.9974 156.545 28.7075L173.67 21.1635C173.807 21.1031 173.951 21.0729 174.096 21.0729C174.631 21.0729 175.111 21.4897 175.289 22.1118C175.404 22.5044 175.387 22.9302 175.243 23.3077C175.096 23.6852 174.842 23.9721 174.521 24.1111L157.396 31.655C157.259 31.7154 157.115 31.7486 156.971 31.7486Z" fill="white"/>
    <path d="M261.002 281.681H139.88C136.119 281.681 133.071 285.447 133.071 290.091V297.164C133.071 301.809 136.119 305.575 139.88 305.575H261.002L260.938 305.493C255.758 298.834 255.785 288.301 261.002 281.681Z" fill="#F47458"/>
    <path d="M258.859 285.217H194.109C190.347 285.217 187.298 288.983 187.298 293.628C187.298 298.273 190.347 302.039 194.109 302.039H258.857C256.477 296.829 256.48 290.421 258.859 285.217Z" fill="#FAE0B2"/>
    <path d="M360.134 282.369L350.953 253.927C350.49 252.496 351.055 250.874 352.215 250.303L385.251 234.043C386.411 233.473 387.724 234.17 388.186 235.602L397.367 264.044C397.83 265.476 397.265 267.097 396.105 267.668L363.069 283.928C361.909 284.499 360.596 283.801 360.134 282.369Z" fill="#FAE0B2"/>
    <path d="M391.299 265.922L383.048 240.364C382.916 239.953 383.077 239.488 383.41 239.325C383.742 239.162 384.119 239.361 384.253 239.772L392.503 265.33C392.635 265.741 392.473 266.206 392.141 266.369C391.808 266.532 391.432 266.333 391.299 265.922" fill="#466EB6"/>
    <path d="M387.367 262.555L380.595 241.572C380.463 241.161 380.624 240.696 380.957 240.533C381.289 240.367 381.666 240.569 381.798 240.98L388.573 261.963C388.705 262.374 388.543 262.839 388.211 263.005C387.878 263.168 387.501 262.969 387.367 262.555" fill="#466EB6"/>
    <path d="M386.391 268.338L378.139 242.78C378.007 242.369 378.168 241.904 378.501 241.741C378.834 241.575 379.213 241.777 379.345 242.188L387.594 267.746C387.726 268.157 387.565 268.622 387.232 268.785C386.9 268.948 386.523 268.749 386.391 268.338" fill="#466EB6"/>
    <path d="M382.055 263.715L375.686 243.988C375.554 243.577 375.716 243.112 376.048 242.949C376.381 242.783 376.757 242.985 376.889 243.396L383.258 263.123C383.39 263.533 383.229 263.999 382.896 264.162C382.564 264.325 382.187 264.125 382.055 263.715Z" fill="#466EB6"/>
    <path d="M391.077 237.637L390.911 237.124C390.85 236.933 390.683 236.837 390.539 236.909L387.403 238.452C387.259 238.522 387.191 238.736 387.252 238.924L387.418 239.44C387.479 239.627 387.646 239.724 387.79 239.654L390.925 238.111C391.07 238.039 391.138 237.827 391.077 237.637" fill="#355389"/>
    <path d="M391.789 239.839L391.622 239.325C391.561 239.135 391.395 239.038 391.248 239.111L388.113 240.654C387.968 240.724 387.902 240.935 387.963 241.125L388.13 241.642C388.191 241.829 388.357 241.926 388.501 241.856L391.637 240.313C391.781 240.24 391.85 240.029 391.789 239.839" fill="#355389"/>
    <path d="M392.498 242.04L392.332 241.527C392.27 241.337 392.104 241.24 391.96 241.312L388.824 242.856C388.68 242.925 388.612 243.137 388.673 243.327L388.839 243.843C388.9 244.03 389.067 244.127 389.211 244.058L392.349 242.511C392.491 242.442 392.559 242.231 392.498 242.04" fill="#355389"/>
    <path d="M393.21 244.242L393.043 243.728C392.982 243.538 392.816 243.442 392.672 243.514L389.536 245.057C389.392 245.127 389.323 245.338 389.385 245.528L389.551 246.045C389.612 246.232 389.778 246.329 389.923 246.256L393.058 244.713C393.202 244.644 393.271 244.432 393.21 244.242Z" fill="#355389"/>
    <path d="M393.919 246.443L393.753 245.93C393.692 245.74 393.525 245.643 393.381 245.716L390.245 247.259C390.101 247.328 390.035 247.54 390.094 247.73L390.26 248.243C390.321 248.434 390.49 248.53 390.634 248.458L393.77 246.915C393.914 246.845 393.98 246.634 393.919 246.443" fill="#355389"/>
    <path d="M394.631 248.645L394.465 248.132C394.403 247.941 394.237 247.845 394.093 247.917L390.957 249.46C390.813 249.53 390.744 249.741 390.806 249.931L390.972 250.445C391.033 250.635 391.199 250.732 391.344 250.659L394.479 249.116C394.623 249.047 394.692 248.835 394.631 248.645Z" fill="#355389"/>
    <path d="M395.34 250.847L395.174 250.333C395.112 250.143 394.946 250.046 394.802 250.119L391.666 251.662C391.522 251.731 391.456 251.943 391.517 252.133L391.684 252.646C391.745 252.837 391.911 252.933 392.055 252.861L395.191 251.318C395.335 251.248 395.401 251.037 395.34 250.847Z" fill="#355389"/>
    <path d="M396.052 253.048L395.885 252.535C395.824 252.345 395.658 252.248 395.514 252.32L392.378 253.864C392.234 253.933 392.165 254.144 392.226 254.335L392.393 254.848C392.454 255.038 392.62 255.135 392.765 255.062L395.9 253.519C396.044 253.45 396.113 253.238 396.052 253.048Z" fill="#355389"/>
    <path d="M396.761 255.25L396.595 254.736C396.533 254.546 396.367 254.449 396.223 254.522L393.087 256.065C392.943 256.135 392.877 256.346 392.938 256.536L393.104 257.05C393.165 257.24 393.332 257.337 393.476 257.264L396.612 255.721C396.756 255.651 396.822 255.44 396.761 255.25Z" fill="#355389"/>
    <path d="M397.472 257.451L397.306 256.938C397.245 256.748 397.079 256.651 396.934 256.723L393.799 258.267C393.655 258.336 393.586 258.548 393.647 258.738L393.814 259.251C393.875 259.442 394.041 259.538 394.185 259.466L397.321 257.922C397.465 257.853 397.534 257.642 397.472 257.451Z" fill="#355389"/>
    <path d="M398.182 259.653L398.015 259.136C397.957 258.949 397.79 258.853 397.644 258.925L394.508 260.468C394.364 260.538 394.298 260.749 394.359 260.939L394.525 261.453C394.587 261.643 394.753 261.74 394.897 261.667L398.033 260.124C398.177 260.055 398.243 259.843 398.182 259.653Z" fill="#355389"/>
    <path d="M398.893 261.855L398.727 261.338C398.666 261.151 398.5 261.054 398.355 261.124L395.22 262.67C395.076 262.739 395.007 262.951 395.068 263.141L395.235 263.654C395.296 263.845 395.462 263.941 395.606 263.869L398.742 262.326C398.886 262.253 398.954 262.045 398.893 261.855" fill="#355389"/>
    <path d="M407.556 259.589L394.445 282.644C394.415 282.695 394.391 282.753 394.376 282.813L393.038 287.878C392.884 288.467 393.435 288.956 393.836 288.581L397.345 285.314C397.389 285.275 397.426 285.226 397.458 285.172L410.604 262.057C410.772 261.761 410.706 261.353 410.459 261.16L408.253 259.417C408.021 259.236 407.715 259.312 407.556 259.589" fill="#B75742"/>
    <path d="M397.443 285.196L397.412 285.253L394.024 288.406L393.102 287.642L394.369 282.84C395.36 283.511 396.548 284.199 397.443 285.196" fill="#F7CC7F"/>
    <path d="M274.717 9.99554C276.605 11.8559 279.89 17.8415 284.077 22.0423C286.528 24.5006 288.416 23.8754 291.544 24.3435C306.384 26.5572 302.364 30.302 304.144 30.6704C303.638 32.1079 299.013 44.2453 298.15 46.6975C297.352 48.9595 295.975 49.9712 293.98 49.633C290.91 49.1075 287.814 48.7179 284.791 47.9086C277.046 45.8338 272.736 41.0502 267.184 35.2427C265.712 33.6995 265.35 31.7788 266.113 29.5983C269.667 19.4602 274.333 10.9287 274.717 9.99554" fill="#466EB6"/>
    <path d="M305.751 45.2721C305.685 49.2645 305.932 50.0648 304.543 49.4608C303.706 49.0954 302.897 48.6212 302.107 48.1169C301.552 47.7636 301.53 47.2955 301.982 46.7338C302.64 45.9153 303.317 45.1211 303.975 44.3268C303.494 42.7594 304.046 40.9384 305.232 40.0807C305.475 39.9055 305.298 40.277 307.365 34.4031C300.529 33.3612 295.706 32.6636 287.369 31.3982C285.141 31.06 283.157 29.9879 281.433 28.2061C275.475 22.0543 269.52 15.8996 263.57 9.7418C262.763 8.90526 262.66 7.67915 263.301 6.73691C263.792 6.01815 264.44 5.98192 265.14 6.09064C267.043 6.3866 285.701 9.24653 287.596 9.52135C290.086 9.88073 292.277 11.0374 294.202 13.0276C300.052 19.0797 305.92 25.1076 311.777 31.1445C312.582 31.975 312.799 32.7361 312.516 33.6572C312.205 34.6689 311.528 35.1521 310.505 34.8803C309.764 34.6809 309.439 34.9588 309.185 35.8044C308.035 39.6216 307.233 40.4673 307.509 41.8625C307.725 42.9406 306.688 44.804 305.751 45.2721" fill="#86B1F2"/>
    <path d="M336.706 316.568L340.106 320.572C348.15 330.046 354.709 341.268 359.454 353.677L359.975 355.039C359.975 355.039 368.88 356.012 370.122 346.07C362.31 335.18 355.881 323.55 350.573 310.615L348.964 305.968L336.706 316.568Z" fill="#466EB6"/>
    <path d="M348.954 305.955C349.392 306.729 347.005 309.718 343.62 312.63C340.238 315.544 337.125 317.314 336.689 316.541C336.251 315.767 338.656 312.741 342.038 309.83C345.42 306.916 348.519 305.179 348.954 305.955Z" fill="#86B1F2"/>
    <path d="M348.969 305.983L348.959 305.968C348.959 305.968 342.18 313.053 339.387 313.774L340.25 315.224C341.27 314.544 342.429 313.66 343.62 312.63C346.966 309.752 349.336 306.798 348.969 305.983" fill="#355389"/>
    <path d="M358.026 326.552C358.038 327.772 357.659 333.045 350.556 335.243C351.024 336.029 351.483 336.823 351.933 337.623C356.429 335.98 358.451 333.132 359.361 330.961C359.503 330.62 359.676 330.158 359.791 329.801C359.192 328.726 358.603 327.645 358.026 326.552" fill="#B75742"/>
    <path d="M351.195 333.685L340.742 333.223L343.219 335.82L341.74 339.136L351.632 336.023L351.195 333.685" fill="#B75742"/>
    <path d="M352.146 336.687L348.434 344.675L351.046 343.449L352.051 345.986L353.797 337.584L352.146 336.687Z" fill="#B75742"/>
    <path d="M353.565 338.852C351.73 339.012 350.133 337.249 349.999 334.914C349.864 332.58 351.244 330.556 353.08 330.396C354.915 330.236 356.512 332 356.646 334.334C356.781 336.669 355.401 338.692 353.565 338.852Z" fill="#F47458"/>
    <path d="M375.752 157.601L353.741 133.347C352.31 131.771 352.904 128.527 354.878 127.147L372.445 114.865C373.57 114.08 374.837 114.152 375.652 115.052L397.663 139.306C399.094 140.882 398.5 144.123 396.526 145.503L378.958 157.785C377.833 158.573 376.567 158.501 375.752 157.601" fill="#9BC1F9"/>
    <path d="M374.708 138.306L372.874 119.673C372.803 118.96 373.224 118.196 373.813 117.97C374.402 117.743 374.938 118.139 375.009 118.851L376.696 135.999L393.388 140.982C393.931 141.145 394.183 141.87 393.948 142.601C393.713 143.332 393.08 143.794 392.535 143.63L374.708 138.306" fill="white"/>
    <path d="M3.10794 390.697C1.92984 390.697 0.974792 392.062 0.974792 393.747C0.974792 395.429 1.92984 396.794 3.36278 394.747H436.895C437.45 394.747 437.9 393.85 437.902 392.735C437.907 391.612 437.455 390.697 436.895 390.697H3.10794Z" fill="#184655"/>
    <path d="M87.2728 52.952L89.5473 58.5118L94.6882 58.3064L96.882 64.7571L102.302 62.4559L105.043 69.6163L110.245 68.2543L113.794 74.6144L111.845 76.2724L109.191 71.5189L103.701 72.9564L101.067 66.0708L95.5564 68.4113L93.1352 61.2932L88.1166 61.4925L86.0059 56.3404L82.7336 57.3249L82.1735 54.4831L87.2728 52.952" fill="#F7CC7F"/>
    <path d="M362.55 195.128L367.221 197.471L370.988 193.146L376.075 196.233L378.936 190.099L384.814 193.276L388.012 188.031L394.071 189.945L393.484 192.775L388.954 191.347L385.579 196.882L379.929 193.829L377.019 200.065L371.406 196.659L367.728 200.881L363.399 198.709L361.452 202.107L359.52 200.419L362.55 195.128Z" fill="#50BFA5"/>
    </svg>
