<svg width="567" height="451" viewBox="0 0 567 451" fill="none" xmlns="http://www.w3.org/2000/svg">
    <path d="M527.186 397.669C527.186 409.576 409.225 419.23 263.714 419.23C118.202 419.23 0.242706 409.576 0.242706 397.669C0.242706 385.761 118.202 376.111 263.714 376.111C409.225 376.111 527.186 385.761 527.186 397.669Z" fill="#E9CCC5"/>
    <path d="M406.141 430.956C406.141 441.794 342.377 450.581 263.714 450.581C185.055 450.581 121.287 441.794 121.287 430.956C121.287 420.119 185.055 411.334 263.714 411.334C342.377 411.334 406.141 420.119 406.141 430.956Z" fill="#E9CCC5"/>
    <path d="M468.793 36.6375C470.272 39.9326 468.511 44.2685 470.071 47.1995C471.652 50.171 475.873 50.322 477.436 53.0697C482.75 62.3994 476.732 64.3463 477.4 71.4326C478.151 79.3494 487.305 83.4156 479.531 91.6938C473.131 98.5131 460.172 97.4237 457.262 88.4041C457.472 88.1452 457.478 88.1479 457.277 88.4149C442.214 97.3132 430.481 73.5061 448.553 68.7577C441.934 64.5539 439.018 55.5693 446.533 50.3679C439.382 45.9403 439.83 37.1687 446.918 33.1025C448.06 32.4472 443.338 23.9884 452.795 23.255C459.607 22.7292 466.719 32.0239 468.793 36.6375Z" fill="#2451AA"/>
    <path d="M467.879 80.0262C475.214 79.8429 481.331 85.0281 481.536 91.6102C481.737 98.1922 477.742 115.172 472.151 110.903C461.167 102.512 455.687 97.4642 455.479 90.8821C455.275 84.3001 460.542 80.2096 467.879 80.0262Z" fill="#E68368"/>
    <path d="M477.391 86.8941L464.669 90.6853L462.372 102.865C462.372 102.865 490.359 133.389 499.476 137.641C509.192 142.171 506.585 134.238 505.951 130.965C505.951 130.965 484.584 91.052 477.391 86.8941" fill="#E68368"/>
    <path d="M505.115 138.655C505.115 138.655 528.848 128.053 544.146 116.175C544.146 116.175 545.592 112.025 541.549 112.95C537.68 113.837 499.362 122.762 496.903 125.596C494.441 128.433 505.115 138.655 505.115 138.655" fill="#E68368"/>
    <path d="M560.866 113.349L557.186 114.87C557.186 114.87 564.65 113.457 565.724 110.582C565.724 110.582 566.102 110.032 564.873 109.717C564.873 109.717 558.915 112.138 555.969 112.618C555.969 112.618 562.462 111.3 566.385 109.099C566.385 109.099 567.479 107.428 565.258 107.336C566.322 106.298 564.771 106.017 564.771 106.017C564.771 106.017 563.262 105.95 560.069 106.403C560.069 106.403 555.154 107.069 549.277 107.25C549.277 107.25 551.866 103.31 549.44 102.134L545.075 107.538L541.435 112.985L542.511 116.539L549.972 117.539C549.972 117.539 556.441 117.094 559.549 115.83C559.549 115.83 568.162 111.664 560.866 113.349" fill="#E68368"/>
    <path d="M470.891 80.0208C470.891 80.0208 481.133 81.6602 482.474 90.6313C482.474 90.6313 512.231 128.209 506.748 138.86C504.415 139.68 492.848 145.701 456.961 99.7022C456.961 99.7022 447.345 76.75 470.891 80.0208Z" fill="#57A1C4"/>
    <path d="M496.407 122.867C496.407 122.867 511.879 116.911 540.046 111.583C540.046 111.583 544.88 115.921 544.399 118.804C544.399 118.804 510.553 139.378 505.584 139.006C505.584 139.006 494.318 131.849 496.407 122.867Z" fill="#57A1C4"/>
    <path d="M443.744 386.02C450.05 388.649 456.976 388.285 456.976 388.285L451.214 382.987C451.214 382.987 446.233 373.037 445.713 369.828C445.379 367.768 446.942 361.736 446.942 361.736L438.321 360.115L437.007 364.373L431.951 370.095C431.951 370.095 430.737 373.077 436.719 375.202C436.719 375.202 439.734 380.616 443.744 386.02" fill="#E68368"/>
    <path d="M451.214 382.987C448.638 383.386 444.537 382.655 443.025 380.26C436.929 370.615 437.007 364.373 437.007 364.373C431.479 367.525 431.536 371.303 431.536 371.303L431.413 372.826L430.451 384.572L431.338 384.739L436.553 376.116L439.854 386.101C453.45 391.208 457.857 388.601 457.857 388.601L451.214 382.987Z" fill="#231F20"/>
    <path d="M483.087 276.66C483.087 276.66 448.271 363.157 446.194 366.708C446.194 366.708 435.919 365.249 436.658 363.111C438.432 357.942 441.778 319.531 443.708 311.22C446.81 297.878 449.569 289.616 462.541 273.831C462.541 273.831 482.254 265.941 483.087 276.66" fill="#111215"/>
    <path d="M468.072 172.992C468.072 172.992 473.42 189.88 475.809 200.569C480.036 219.478 481.737 268.188 481.737 268.188C481.737 268.188 464.047 276.781 461.588 272.761C449.699 253.357 448.307 258.68 431.801 192.965L468.072 172.992Z" fill="#F69575"/>
    <path d="M432.796 195.057C432.796 195.057 439.496 244.842 460.923 273.055C460.923 273.055 467.395 288.406 483.087 276.66C483.087 276.66 485.041 195.588 469.797 170.511C469.797 170.511 426.246 168.581 432.796 195.057Z" fill="#111215"/>
    <path d="M453.219 140.111C454.899 139.839 461.843 143.053 461.843 143.053C461.843 143.053 470.516 168.052 470.888 171.857C471.264 175.653 442.117 195.332 409.562 184.128C409.562 184.128 424.634 148.923 425.554 140.252C426.477 131.58 453.219 140.111 453.219 140.111" fill="#E88767"/>
    <path d="M461.843 143.053C461.843 143.053 470.155 165.598 470.888 171.857C473.483 194.003 440.073 203.292 407.515 192.086C407.515 192.086 405.401 161.637 425.554 140.252C425.554 140.252 430.911 144.633 461.843 143.053" fill="#141519"/>
    <path d="M431.061 208.518L407.515 196.923C407.515 196.923 411.336 263.747 414.318 282.517C414.318 282.517 427.49 285.804 431.569 283.374C443.786 257.677 450.859 201.882 450.859 201.882L431.061 208.518" fill="#141519"/>
    <path d="M416.797 177.368C416.797 177.368 405.498 180.294 407.833 199.075C410.118 217.416 447.724 219.157 451.235 200.35C455.013 180.116 436.713 169.392 416.797 177.368" fill="#141519"/>
    <path d="M432.675 78.7103H455.335C454.307 75.7496 452.173 68.089 455.476 62.8767L432.579 49.3918C432.579 49.3918 436.649 72.0204 432.675 78.7103" fill="#F69575"/>
    <path d="M453.712 69.8228C453.646 67.5578 454.06 65.1094 455.476 62.8768L432.579 49.3918C432.579 49.3918 434.239 58.6137 434.407 67.0239C442.674 69.3833 446.076 70.2947 453.712 69.8228" fill="#E27462"/>
    <path d="M417.107 80.4657C406.905 84.9391 412.574 95.6899 412.574 95.6899L426.363 140.696C426.363 140.696 439.241 145.418 461.843 143.053C464.985 139.022 471.433 122.139 473.597 109.248C475.377 98.6318 480.905 88.1695 474.884 82.2481C472.575 79.9777 454.986 77.7153 454.896 77.3432H433.728L417.107 80.4657Z" fill="#F69575"/>
    <path d="M458.999 64.7211L460.37 61.7227L463.812 52.8756C464.299 51.4653 464.6 49.5266 464.131 48.1056C463.572 46.4041 463.22 43.651 464.089 40.631C466.418 32.5416 462.613 28.0898 462.613 28.0898C457.722 20.3321 445.166 19.7955 445.166 19.7955C429.606 19.8117 427.577 33.2319 427.577 33.2319C424.571 42.0898 432.125 49.8987 432.137 49.9122C433.093 50.8991 433.114 52.4307 433.535 53.6198C433.986 54.8872 434.705 56.0844 435.621 57.1279C437.678 59.4711 440.401 61.7523 443.251 63.2219C445.953 64.616 451.253 66.1611 455.071 66.2986C456.658 66.3552 458.212 66.4415 458.999 64.7211" fill="#F69575"/>
    <path d="M433.583 55.1864C433.863 48.8255 434.016 49.2246 434.016 49.2246C434.29 47.3748 438.122 51.5624 438.177 49.141C438.42 38.0477 443.206 32.9784 445.009 32.2072C449.903 30.1121 454.968 29.6753 458.915 30.4923C465.108 31.7704 464.443 39.218 464.443 39.218C471.309 12.1591 436.875 19.3371 436.875 19.3371C420.125 22.4757 421.039 36.527 421.039 36.527C418.162 51.4357 434.142 60.8301 434.142 60.8301L433.583 55.1864" fill="#2451AA"/>
    <path d="M434.789 53.0725C434.212 53.4311 433.487 53.6171 432.6 53.5632C430.201 53.423 428.317 51.3144 428.401 48.8579C428.482 46.4041 430.493 44.5274 432.895 44.6676C434.034 44.735 435.05 45.2447 435.802 46.0212C436.896 47.1591 436.818 49.1572 436.466 50.5216C436.187 51.611 435.649 52.5359 434.789 53.0725" fill="#F7906E"/>
    <path d="M433.734 46.9946C433.668 45.7003 430.691 46.7978 431.088 47.5447C431.323 47.9734 431.813 48.3051 432.195 48.6125C432.721 49.0385 432.97 49.4187 433.006 50.0605C433.015 50.136 433.018 50.3598 432.931 50.4083C432.543 50.624 431.38 49.3109 431.127 49.0331C430.625 48.4884 430.604 47.5932 430.896 46.9596C431.203 46.2855 431.726 45.9834 432.54 46.067C433.193 46.1317 433.857 46.2019 433.776 46.9272C433.773 46.9434 433.74 47.0593 433.734 46.9946" fill="#EB7963"/>
    <path d="M432.727 48.2916C433.048 48.0327 433.325 48.2727 433.619 48.483C433.896 48.688 434.04 48.9603 434.097 49.2677C434.227 49.9445 434.076 50.8344 433.613 51.4006C433.241 51.8536 432.642 52.1179 432.014 52.072C431.139 52.01 430.917 51.3062 430.923 50.6402C430.923 50.4649 430.932 50.0443 431.13 49.9418C431.35 49.8313 431.479 50.1306 431.611 50.26C431.798 50.4353 432.083 50.5162 432.339 50.5458C432.835 50.6078 433.337 50.4002 433.667 50.0847C433.728 50.0281 433.782 49.9607 433.815 49.8879C433.788 50.3247 433.758 50.4164 433.722 50.1791C433.691 50.0658 433.637 49.9607 433.571 49.8609C433.388 49.5535 433.057 49.3324 432.847 49.0358C432.745 48.8983 432.567 48.421 432.727 48.2916" fill="#EB7963"/>
    <path d="M434.879 53.5281C434.837 54.2562 434.142 54.8197 433.331 54.7793C432.519 54.7442 431.897 54.1213 431.936 53.3933C431.978 52.6653 432.666 52.1017 433.481 52.1394C434.296 52.1772 434.918 52.8001 434.879 53.5281Z" fill="white"/>
    <path d="M461.113 78.4461L470.891 80.0208C470.891 80.0208 478.019 81.423 478.256 86.8941C478.256 86.8941 478.653 97.262 472.364 116.008C472.364 116.008 461.957 87.2419 461.113 78.4461Z" fill="#5BA8CD"/>
    <path d="M458.618 78.1036L463.025 78.7103C463.025 78.7103 471.577 93.5408 473.597 109.248C471.433 122.139 467.101 141.659 461.843 143.053C444.026 147.78 425.428 140.349 425.428 140.349L416.906 109.83C439.794 101.84 428.226 78.3759 428.226 78.3759L433.036 77.3432L453.261 95.6845L458.618 78.1036" fill="#5BA8CD"/>
    <path d="M467.657 88.2261C467.657 88.2261 476.6 99.3355 478.157 105.06C479.182 108.819 471.871 117.291 465.968 118.788C462.742 119.602 462.667 88.9757 467.657 88.2261Z" fill="#5BA8CD"/>
    <path d="M450.216 82.453L449.96 92.7454L445.737 89.0405L450.216 82.453Z" fill="#4F92B2"/>
    <path d="M450.216 82.2211C450.216 82.2211 437.398 77.5131 434.221 72.8267L428.227 78.376L443.777 91.9068L450.216 82.453" fill="#84D7E3"/>
    <path d="M461.627 82.7442C461.627 82.7442 460.385 78.4326 454.292 74.7924L455.089 89.6499C455.089 89.6499 458.467 82.0486 461.627 82.7442Z" fill="#84D7E3"/>
    <path d="M462.18 89.6499L461.627 82.7443C459.766 82.3344 458.104 84.6722 456.748 86.584L462.18 89.6499Z" fill="#4F92B2"/>
    <path d="M426.808 390.173C433.583 391.583 440.275 389.957 440.275 389.957L433.421 385.831C433.421 385.831 426.27 377.011 425.025 373.964C424.231 372.012 424.382 365.818 424.382 365.818H415.574L415.261 370.227L411.621 376.758C411.621 376.758 411.116 379.905 417.453 380.878C417.453 380.878 421.646 385.624 426.808 390.173" fill="#F69575"/>
    <path d="M433.421 385.831C430.995 386.694 426.814 386.735 424.785 384.669C416.611 376.351 415.261 370.227 415.261 370.227C410.569 374.334 411.495 378.02 411.495 378.02L411.72 379.535L413.467 391.205H414.372L417.501 381.803L423.017 390.971C437.491 393.465 441.21 390.103 441.21 390.103L433.421 385.831" fill="#231F20"/>
    <path d="M413.401 275.543L432.643 280.651C432.643 280.651 426.026 363.445 425.172 367.382C425.172 367.382 414.865 368.628 414.889 366.39C414.934 360.983 407.857 327.2 407.178 318.735C406.012 304.183 401.602 294.424 413.401 275.543" fill="#141519"/>
    <path d="M422.019 80.0262C414.684 79.8429 408.567 85.0281 408.366 91.6102C408.161 98.1922 412.156 115.172 417.747 110.903C428.732 102.512 434.212 97.4642 434.419 90.8821C434.623 84.3001 429.357 80.2096 422.019 80.0262Z" fill="#E68368"/>
    <path d="M412.508 86.8941L425.227 90.6853L427.526 102.865C427.526 102.865 399.54 133.389 390.422 137.641C380.707 142.171 383.313 134.238 383.947 130.965C383.947 130.965 405.314 91.052 412.508 86.8941" fill="#E68368"/>
    <path d="M384.783 138.655C384.783 138.655 361.05 128.053 345.752 116.175C345.752 116.175 344.306 112.025 348.35 112.95C352.218 113.837 390.537 122.762 392.996 125.596C395.457 128.433 384.783 138.655 384.783 138.655" fill="#E68368"/>
    <path d="M329.033 113.349L332.712 114.87C332.712 114.87 325.248 113.457 324.172 110.582C324.172 110.582 323.796 110.032 325.026 109.717C325.026 109.717 330.984 112.138 333.929 112.618C333.929 112.618 327.436 111.3 323.513 109.099C323.513 109.099 322.419 107.428 324.641 107.336C323.577 106.298 325.128 106.017 325.128 106.017C325.128 106.017 326.637 105.95 329.829 106.403C329.829 106.403 334.744 107.069 340.621 107.25C340.621 107.25 338.033 103.31 340.459 102.134L344.823 107.538L348.464 112.985L347.388 116.539L339.927 117.539C339.927 117.539 333.458 117.094 330.349 115.83C330.349 115.83 321.737 111.664 329.033 113.349" fill="#E68368"/>
    <path d="M432.94 99.7023C397.051 145.701 385.483 139.68 383.151 138.86C377.668 128.209 406.381 89.6499 406.381 89.6499C411.005 80.703 419.007 80.0208 419.007 80.0208L428.226 78.376L434.142 85.1387C434.142 85.1387 437.882 92.2762 432.94 99.7023Z" fill="#5BA8CD"/>
    <path d="M393.492 122.867C393.492 122.867 378.019 116.911 349.853 111.583C349.853 111.583 345.019 115.921 345.5 118.804C345.5 118.804 379.345 139.378 384.314 139.006C384.314 139.006 395.581 131.849 393.492 122.867Z" fill="#57A1C4"/>
    <path d="M414.841 36.6375C413.362 39.9326 415.123 44.2685 413.563 47.1995C411.982 50.171 407.761 50.322 406.195 53.0697C400.88 62.3994 406.902 64.3463 406.234 71.4326C405.483 79.3494 396.329 83.4156 404.103 91.6938C410.503 98.5131 423.462 97.4237 426.372 88.4041C426.158 88.1452 426.155 88.1479 426.357 88.4149C441.42 97.3132 453.156 73.5061 435.08 68.7577C441.7 64.5539 444.616 55.5693 437.097 50.3679C444.252 45.9403 443.804 37.1687 436.716 33.1025C435.573 32.4472 440.296 23.9884 430.839 23.255C424.027 22.7292 416.915 32.0239 414.841 36.6375" fill="#2451AA"/>
    <path d="M469.367 125.737C469.367 125.737 467.341 159.445 482.474 177.15C482.474 177.15 440.93 193.45 401.881 177.63C405.519 167.362 404.695 167.375 416.906 143.722C416.906 143.722 423.026 131.739 421.346 125.737H469.367Z" fill="#5BA8CD"/>
    <path d="M92.0955 26.0836C92.0955 26.0836 78.7302 26.0944 81.0551 12.4557C81.0551 12.4557 89.1044 19.2751 97.7222 16.4519C97.7222 16.4519 98.3751 25.6063 92.0955 26.0836Z" fill="#932420"/>
    <path d="M67.8789 90.3806L63.6293 91.2111C63.6293 91.2111 52.0103 136.059 56.382 146.704C60.7549 157.353 67.7803 146.812 69.975 145.849C72.1674 144.884 91.594 95.5335 91.594 95.5335L67.8789 90.3806" fill="#E68368"/>
    <path d="M53.2373 141.093L60.8757 89.0081C65.4236 75.302 82.213 80.3632 82.213 80.3632C94.8042 84.5508 92.8009 93.441 92.8009 93.441L75.5573 146.958C75.5573 146.958 72.2906 155.082 60.3262 154.001C60.3262 154.001 51.6168 152.135 53.2373 141.093" fill="#0C1B34"/>
    <path d="M73.8111 369.914C73.8111 369.914 71.5554 377.788 68.7832 379.926C66.0119 382.062 55.4354 385.203 55.4354 385.203L49.576 385.958C49.576 385.958 45.5036 388.579 56.6826 391.332C67.8591 394.088 87.477 385.772 87.477 385.772L83.0535 369.674L73.8111 369.914Z" fill="#281112"/>
    <path d="M132.758 387.055C134.731 384.3 138.866 369.272 138.866 369.272L147.998 369.024L153.715 385.57C153.715 385.57 154.632 388.339 152.765 389.377C152.765 389.377 141.377 392.923 131.65 389.207C131.65 389.207 131.753 388.468 132.758 387.055" fill="#281112"/>
    <path d="M76.1396 158.868L64.4773 94.9349C64.4773 94.9349 60.46 85.3247 68.4967 80.5223L99.1242 67.6063H120.726L157.547 87.1287L133.411 158.868H76.1396Z" fill="#F69575"/>
    <path d="M133.411 158.868C133.411 158.868 140.026 172.412 141.621 203.556C141.621 203.556 91.8417 217.562 76.2277 203.556L76.1396 158.868H133.411Z" fill="#102444"/>
    <path d="M100.776 203.419C100.692 213.87 109.765 222.403 121.043 222.477C132.323 222.551 141.535 214.14 141.621 203.688C141.705 193.24 132.632 184.708 121.355 184.633C110.075 184.56 100.862 192.973 100.776 203.419" fill="#102444"/>
    <path d="M141.601 205.994L147.016 294.99C147.016 294.99 137.43 306.27 120.46 293.545L102.034 211.681C102.034 211.681 110.978 184.169 141.601 205.994Z" fill="#102444"/>
    <path d="M142.793 284.598C142.793 284.598 152.121 300.515 150.604 326.533L152.121 375.178L136.729 375.59L120.552 293.796C120.552 293.796 129.121 266.338 142.793 284.598" fill="#102444"/>
    <path d="M76.3205 203.605C75.1392 214.002 79.2785 222.896 90.5007 223.922C101.722 224.95 111.777 217.354 112.959 206.956C114.14 196.559 106.003 187.302 94.7819 186.275C83.5609 185.247 77.5031 193.21 76.3205 203.605" fill="#102444"/>
    <path d="M108.171 217.292L96.6571 298.639C96.6571 298.639 76.2854 301.068 72.3165 288.629C72.3165 288.629 72.0616 231.21 76.3206 203.605C76.3206 203.605 103.92 191.546 108.171 217.292" fill="#102444"/>
    <path d="M95.3738 291.428C95.3738 291.428 99.0562 303.614 95.6684 323.249L87.308 378.192L70.8321 377.149L72.3165 288.63C72.3165 288.63 81.3827 276.328 95.3738 291.428Z" fill="#102444"/>
    <path d="M154.329 94.9888L158.526 95.9946C158.526 95.9946 165.077 141.074 160.16 151.528C155.249 161.982 150.627 151.612 148.486 150.56C146.343 149.506 130.372 99.1549 130.372 99.1549L154.329 94.9888Z" fill="#F69575"/>
    <path d="M143.053 150.156L129.293 97.0624C132.133 82.7065 147.369 83.7149 147.369 83.7149C160.745 84.807 161.402 93.8536 161.402 93.8536L162.288 147.85C162.288 147.85 163.17 157.08 155.415 156.589C155.415 156.589 144.317 155.036 143.053 150.156Z" fill="#0C1B34"/>
    <path d="M120.834 53.4877V74.1965H96.4175C96.4175 74.1965 102.423 65.9858 99.4191 53.4877H120.834Z" fill="#F69575"/>
    <path d="M108.448 71.074C106.245 72.344 101.571 75.0459 98.8999 73.4658C98.1836 73.0397 97.8514 72.4815 97.7435 71.8587C99.3133 68.5798 101.473 62.0382 99.4191 53.4877H120.834V55.3645C118.16 61.4261 114.732 67.4392 108.448 71.074" fill="#E27462"/>
    <path d="M121.416 53.7762C121.416 53.7762 125.572 52.1584 130.276 42.9338C130.276 42.9338 140.492 32.0239 133.25 19.6391C133.25 19.6391 128.973 9.16607 108.243 12.0971C108.243 12.0971 106.379 40.1672 121.416 53.7762Z" fill="#F7906E"/>
    <path d="M95.8882 59.3768L94.5048 56.1329C94.5048 56.1329 90.6898 44.0501 90.6898 44.0474C90.2106 42.5293 90.1824 40.4935 90.4902 38.9322C90.826 37.2362 91.0397 35.4592 90.5464 33.666C88.1392 24.9781 93.104 20.0463 93.104 20.0463C98.5747 11.849 112.038 11.5794 112.038 11.5794C128.712 11.9677 130.488 26.3937 130.488 26.3937C133.439 35.95 125.12 44.1337 125.102 44.1526C124.437 44.8051 124.871 47.9627 124.689 48.866C123.908 52.7192 119.876 55.1649 116.293 56.8664C112.353 58.7323 107.584 60.7304 103.135 61.1888C101.449 61.3668 96.6797 61.24 95.8882 59.3768" fill="#F69575"/>
    <path d="M137.375 157.131C137.324 159.259 140.931 181.542 139.416 181.828C139.405 181.831 98.2037 190.349 76.2276 181.828L76.1396 158.868L64.4773 94.9349C64.4773 94.9349 60.46 85.3247 68.4967 80.5223L99.1242 67.6063L97.0554 73.1772L101.486 84.4753L120.726 67.6063L157.547 87.1287C155.489 93.2469 153.444 99.3652 151.386 105.481C147.589 116.757 143.897 128.066 139.985 139.31C139.985 139.31 136.749 151.507 137.375 157.131" fill="white"/>
    <path d="M104.141 71.6294L104.398 81.9218L108.624 78.2142L104.141 71.6294Z" fill="#A7C9C4"/>
    <path d="M98.7614 88.2261C98.7614 89.0377 99.4942 89.6957 100.4 89.6957C101.301 89.6957 102.034 89.0377 102.034 88.2261C102.034 87.4172 101.301 86.7565 100.4 86.7565C99.4942 86.7565 98.7614 87.4172 98.7614 88.2261Z" fill="#D1EFE4"/>
    <path d="M98.7614 114.897C98.7614 115.706 99.4942 116.364 100.4 116.364C101.301 116.364 102.034 115.706 102.034 114.897C102.034 114.082 101.301 113.427 100.4 113.427C99.4942 113.427 98.7614 114.082 98.7614 114.897Z" fill="#D1EFE4"/>
    <path d="M98.7614 141.562C98.7614 142.376 99.4942 143.034 100.4 143.034C101.301 143.034 102.034 142.376 102.034 141.562C102.034 140.753 101.301 140.095 100.4 140.095C99.4942 140.095 98.7614 140.753 98.7614 141.562Z" fill="#D1EFE4"/>
    <path d="M98.7614 168.233C98.7614 169.042 99.4942 169.702 100.4 169.702C101.301 169.702 102.034 169.042 102.034 168.233C102.034 167.421 101.301 166.766 100.4 166.766C99.4942 166.766 98.7614 167.421 98.7614 168.233Z" fill="#D1EFE4"/>
    <path d="M104.141 83.0948V184.309" stroke="#D1EFE4" stroke-width="3.93083" stroke-miterlimit="10"/>
    <path d="M76.479 183.937C76.479 183.937 97.5262 192.781 140.597 183.743C141.307 183.592 141.008 181.944 141.008 181.944L140.597 178.223C140.412 177.031 139.668 177.088 139.668 177.088C139.66 177.091 98.4563 185.609 76.479 177.088C76.479 177.088 75.5925 176.948 75.5573 178.142V182.78C75.5573 182.78 75.5573 183.705 76.479 183.937" fill="#411C12"/>
    <path d="M97.8584 186.744C97.8584 187.332 98.3811 187.812 99.0232 187.812H107.405C108.045 187.812 108.566 187.332 108.566 186.744V181.329C108.566 180.739 108.045 180.262 107.405 180.262H99.0232C98.3811 180.262 97.8584 180.739 97.8584 181.329V186.744Z" stroke="#BDBCBC" stroke-width="6.43079" stroke-miterlimit="10"/>
    <path d="M108.566 183.694H104.129" stroke="#BDBCBC" stroke-width="6.43079" stroke-miterlimit="10"/>
    <path d="M104.141 71.3975C104.141 71.3975 117.654 66.6895 120.834 62.0031L124.825 68.8278L110.583 81.0805L104.141 71.6294" fill="#C2EAE4"/>
    <path d="M92.5719 20.6691C93.1791 16.7215 107.515 18.8302 111.268 19.4449C113.525 19.8171 116.174 20.4345 117.404 22.4272C117.857 23.1607 119.669 28.3028 117.439 30.8779C119.409 36.411 119.873 40.693 119.873 40.693L121.012 40.7496C123.255 45.9349 123.694 52.1691 123.694 52.1691C123.694 52.1691 132.057 48.9334 137.863 35.2408C143.743 17.8001 129.293 10.1179 129.293 10.1179C116.04 4.95957 102.814 6.36982 102.814 6.36982C102.814 6.36982 89.4826 7.46189 86.4708 0.327068C86.4708 0.327068 78.0268 16.708 92.5719 20.6691" fill="#932420"/>
    <path d="M122.606 45.5601C123.195 46.0077 123.971 46.2855 124.952 46.3124C127.61 46.3879 129.928 44.2496 130.132 41.5397C130.337 38.8351 128.351 36.5782 125.695 36.5027C124.437 36.4677 123.25 36.9288 122.335 37.7135C121 38.8568 120.844 41.0624 121.065 42.5967C121.245 43.8209 121.72 44.8887 122.606 45.5601Z" fill="#F69575"/>
    <path d="M124.493 38.9807C124.722 37.5651 127.859 39.0589 127.333 39.8382C127.028 40.2912 126.448 40.6013 125.99 40.9087C125.362 41.3294 125.045 41.7176 124.924 42.4214C124.906 42.5023 124.878 42.7504 124.966 42.8124C125.367 43.0901 126.801 41.7527 127.116 41.475C127.731 40.9222 127.864 39.9407 127.617 39.2126C127.355 38.4441 126.821 38.0612 125.911 38.0747C125.19 38.0801 124.453 38.0963 124.455 38.8999C124.455 38.9187 124.48 39.0535 124.493 38.9807" fill="#EB7963"/>
    <path d="M125.44 40.5015C125.125 40.186 124.792 40.4207 124.437 40.6283C124.112 40.8224 123.918 41.1109 123.82 41.4453C123.598 42.176 123.659 43.1711 124.097 43.8344C124.453 44.3737 125.077 44.7188 125.778 44.7323C126.746 44.7431 127.07 43.9908 127.149 43.2573C127.169 43.0632 127.209 42.5967 127 42.4699C126.779 42.3324 126.594 42.6425 126.432 42.7773C126.208 42.9526 125.889 43.0065 125.601 43.0173C125.047 43.0389 124.523 42.7666 124.193 42.3837C124.137 42.3163 124.087 42.2354 124.059 42.1545C124.037 42.6344 124.057 42.745 124.127 42.4807C124.178 42.3594 124.244 42.2516 124.329 42.1491C124.568 41.8255 124.959 41.6152 125.223 41.3105C125.352 41.1675 125.599 40.6633 125.44 40.5015" fill="#EB7963"/>
    <path d="M126.843 70.8528L110.464 122.46L112.896 216.227C112.896 216.227 141.001 218.106 152.121 209.081L141.624 151.035L157.548 87.1287L126.843 70.8528" fill="#0C1B34"/>
    <path d="M90.5687 71.2142L71.9182 79.077C71.9182 79.077 61.302 81.5928 63.4709 91.4565L69.6074 146.108L59.4398 209.081C59.4398 209.081 68.163 218.474 85.5314 212.956L93.1791 121.066L90.5687 71.2142Z" fill="#0C1B34"/>
    <path d="M92.733 71.9207C92.733 71.9207 93.9751 67.6063 100.066 63.9661L99.27 78.8263C99.27 78.8263 95.8882 71.225 92.733 71.9207Z" fill="#C2EAE4"/>
    <path d="M92.1787 78.8263L92.733 71.9207C94.5929 71.5108 96.2555 73.8459 97.6094 75.7604L92.1787 78.8263Z" fill="#A7C9C4"/>
    <path d="M105.472 75.3479L105.971 74.5147L109.367 79.1903L106.447 80.1233L105.472 75.3479" fill="#D82930"/>
    <path d="M97.6094 75.7604L96.6571 74.4527C96.6571 74.4527 93.0276 77.1869 96.8381 80.1233C96.8381 80.1233 96.8381 77.7046 97.6094 75.7604Z" fill="#D82930"/>
    <path d="M105.472 75.3478C105.472 75.3478 102.592 77.6452 97.6095 75.7604C96.521 77.0035 96.5234 78.5863 96.8381 80.1233L99.4191 84.8987H103.025L106.447 80.1233C106.447 80.1233 106.801 79.0717 105.472 75.3478" fill="#D82930"/>
    <path d="M103.025 84.8987L105.935 153.208L99.8571 163.821L94.8959 153.265L99.4191 84.8987H103.025" fill="#A61E23"/>
    <path d="M123.162 128.19L130.649 122.884C130.649 122.884 141.923 121.401 147.554 122.04C147.554 122.04 149.412 124.361 135.195 124.717C135.195 124.717 145.166 127.573 148.37 129.7C148.37 129.7 148.882 132.346 139.764 128.503L135.614 128.228L145.26 132.548C145.26 132.548 144.884 134.195 136.1 132.054L127.29 132.92L123.162 128.19" fill="#F69575"/>
    <path d="M75.2119 129.175L123.464 124C125.878 126.64 128.202 131.442 127.169 136.466L65.5327 154.001C65.5327 154.001 49.2483 156.589 53.5428 139C53.5428 139 60.4224 130.029 75.2119 129.175" fill="#0B192F"/>
    <path d="M75.2119 129.175C75.2119 129.175 83.8826 133.368 87.1342 133.702L92.1787 125.89L85.287 121.881L80.5618 120.904C80.5618 120.904 72.7872 119.106 70.7395 128.673L75.2119 129.175" fill="#F69575"/>
    <path d="M161.481 144.321C164.394 160.135 151.573 156.142 151.573 156.142L86.1912 135.034C88.0336 125.947 92.1787 124.523 92.1787 124.523L148.099 134.096C148.099 134.096 158.621 137.062 161.481 144.321" fill="#112749"/>
    <path d="M195.42 50.4704C195.42 50.4704 203.213 56.9149 202.378 77.8501V141.193C202.378 141.193 202.839 147.68 208.831 151.973C208.831 151.973 157.633 165.466 153.264 144.873V79.1714C153.264 79.1714 150.887 51.5274 162.754 46.5605C162.754 46.5605 183.755 38.7974 195.42 50.4704Z" fill="#31110D"/>
    <path d="M201.126 104.78C211.729 109.331 206.06 120.082 206.06 120.082L192.273 165.083C192.273 165.083 179.393 169.807 156.791 167.443C153.651 163.414 147.2 146.532 145.038 133.64C143.259 123.021 137.73 112.562 143.752 106.64C146.061 104.37 163.651 102.105 163.739 101.733L184.503 101.657L201.126 104.78Z" fill="#F69575"/>
    <path d="M185.842 219.448C185.842 219.448 179.138 269.234 157.713 297.447C157.713 297.447 147.721 312.509 135.548 301.052C135.548 301.052 133.598 219.978 148.838 194.903C148.838 194.903 192.388 192.973 185.842 219.448Z" fill="#E68368"/>
    <path d="M154.39 103.103C147.052 102.919 137.305 109.418 137.1 116.002C136.896 122.582 140.895 139.564 146.482 135.293C157.469 126.901 162.95 121.854 163.154 115.272C163.361 108.69 161.728 103.286 154.39 103.103" fill="#E68368"/>
    <path d="M140.946 113.198L154.339 112.67L161.33 123.31C161.33 123.31 147.326 160.782 140.5 167.672C133.227 175.014 132.506 166.769 131.795 163.506C131.795 163.506 135.88 119.384 140.946 113.198Z" fill="#E68368"/>
    <path d="M141.498 413.041C134.64 414.087 128.066 412.108 128.066 412.108L135.179 408.352C135.179 408.352 142.903 399.928 144.345 396.951C145.27 395.045 145.529 388.857 145.529 388.857L154.322 389.323L154.342 393.743L157.543 400.454C157.543 400.454 157.84 403.62 151.446 404.256C151.446 404.256 146.949 408.773 141.498 413.041" fill="#E68368"/>
    <path d="M135.179 408.352C137.547 409.344 141.716 409.606 143.879 407.651C152.591 399.783 154.342 393.743 154.342 393.743C158.755 398.089 157.587 401.719 157.587 401.719L157.26 403.221L154.748 414.778L153.843 414.729L151.34 405.181L145.227 414.036C130.611 415.757 127.126 412.203 127.126 412.203L135.179 408.352" fill="#141519"/>
    <path d="M135.548 301.052C135.548 301.052 144.567 384.939 145.529 388.857C145.529 388.857 154.408 391.561 154.322 389.323C154.126 383.92 162.88 349.354 163.454 340.879C164.369 327.275 161.901 318.22 154.012 299.933C154.012 299.933 139.497 290.905 135.548 301.052" fill="#E68368"/>
    <path d="M165.417 164.501C163.733 164.228 156.791 167.443 156.791 167.443C156.791 167.443 148.117 192.444 147.747 196.246C147.371 200.043 176.517 219.724 209.075 208.518C209.075 208.518 194.002 173.313 193.079 164.644C192.157 155.972 165.417 164.501 165.417 164.501" fill="#E88767"/>
    <path d="M156.791 167.443C156.791 167.443 148.478 189.99 147.747 196.246C145.151 218.394 178.562 227.683 211.12 216.478C211.12 216.478 213.231 186.027 193.079 164.644C193.079 164.644 187.726 169.023 156.791 167.443" fill="#161B21"/>
    <path d="M187.575 232.91L211.12 221.314C211.12 221.314 207.299 288.136 204.316 306.906C204.316 306.906 191.144 310.196 187.064 307.766C174.852 282.069 167.779 226.274 167.779 226.274L187.575 232.91" fill="#F69575"/>
    <path d="M201.839 201.76C201.839 201.76 213.138 204.686 210.799 223.464C208.517 241.805 170.91 243.547 167.4 224.742C163.621 204.505 181.924 193.782 201.839 201.76" fill="#F69575"/>
    <path d="M185.96 103.102H163.298C164.329 100.142 166.463 92.4811 163.162 87.2662L186.056 73.7812C186.056 73.7812 181.986 96.4126 185.96 103.102Z" fill="#F69575"/>
    <path d="M164.926 94.215C164.989 91.9473 164.573 89.4962 163.162 87.2662L186.056 73.7812C186.056 73.7812 184.398 83.0031 184.229 91.4161C175.961 93.7728 172.559 94.6869 164.926 94.215" fill="#E27462"/>
    <path d="M159.639 89.1133L158.265 86.1148L154.823 77.265C154.337 75.8575 154.036 73.9161 154.503 72.4977C155.063 70.7936 155.415 68.0432 154.546 65.0231C152.217 56.9338 156.02 52.4819 156.02 52.4819C160.916 44.7215 173.469 44.1877 173.469 44.1877C189.03 44.2011 191.06 57.6241 191.06 57.6241C194.062 66.4792 186.512 74.2882 186.497 74.3017C185.539 75.2886 185.519 76.8228 185.098 78.0093C184.65 79.2793 183.929 80.4765 183.014 81.5201C180.961 83.8633 178.234 86.1418 175.384 87.6113C172.682 89.0081 167.381 90.5505 163.562 90.688C161.98 90.7446 160.425 90.8336 159.639 89.1133" fill="#F69575"/>
    <path d="M185.055 79.5786C184.776 73.2177 184.617 73.614 184.617 73.614C184.347 71.7643 180.512 75.9546 180.457 73.5304C180.215 62.4372 175.429 57.3706 173.627 56.5967C168.731 54.5015 163.669 54.0647 159.72 54.8818C153.53 56.1599 154.19 63.6075 154.19 63.6075C147.323 36.5512 181.759 43.7265 181.759 43.7265C198.51 46.8679 197.597 60.9191 197.597 60.9191C200.473 75.8278 184.494 85.2196 184.494 85.2196L185.055 79.5786" fill="#31110D"/>
    <path d="M183.846 77.4646C184.423 77.8205 185.146 78.0093 186.036 77.9526C188.437 77.8151 190.317 75.7038 190.233 73.2473C190.151 70.7963 188.142 68.9195 185.743 69.0571C184.604 69.1245 183.586 69.6341 182.836 70.4134C181.741 71.5486 181.82 73.5493 182.168 74.911C182.447 76.0004 182.984 76.9253 183.846 77.4646Z" fill="#F7906E"/>
    <path d="M184.901 71.3868C184.967 70.0924 187.946 71.1899 187.546 71.9368C187.315 72.3656 186.823 72.6945 186.442 73.0046C185.915 73.428 185.666 73.8082 185.627 74.4526C185.62 74.5254 185.615 74.752 185.706 74.8005C186.093 75.0162 187.256 73.703 187.509 73.4253C188.012 72.8779 188.034 71.9854 187.739 71.349C187.432 70.6749 186.911 70.3756 186.093 70.4592C185.442 70.5212 184.781 70.594 184.859 71.3193C184.861 71.3328 184.897 71.4515 184.901 71.3868Z" fill="#EB7963"/>
    <path d="M185.908 72.6811C185.587 72.4249 185.31 72.6622 185.015 72.8752C184.738 73.0775 184.594 73.3498 184.536 73.6572C184.41 74.334 184.562 75.2265 185.022 75.7928C185.393 76.2458 185.99 76.5073 186.621 76.4615C187.498 76.4022 187.716 75.6957 187.711 75.0324C187.711 74.8544 187.702 74.4338 187.505 74.3313C187.285 74.2207 187.155 74.5228 187.023 74.6522C186.837 74.8275 186.552 74.9056 186.295 74.938C185.798 74.9973 185.297 74.7924 184.967 74.4769C184.91 74.4203 184.851 74.3529 184.821 74.2801C184.846 74.7142 184.877 74.8086 184.914 74.5686C184.945 74.4553 184.998 74.3529 185.063 74.2531C185.246 73.943 185.577 73.7219 185.789 73.4253C185.89 73.2905 186.066 72.8132 185.908 72.6811Z" fill="#EB7963"/>
    <path d="M183.758 77.9176C183.798 78.6456 184.49 79.2092 185.305 79.1714C186.117 79.1337 186.741 78.5135 186.698 77.7855C186.658 77.0547 185.968 76.4938 185.154 76.5316C184.343 76.5693 183.715 77.1895 183.758 77.9176" fill="white"/>
    <path d="M160.017 102.493L155.61 103.103C155.61 103.103 147.059 117.93 145.038 133.64C147.2 146.532 151.534 166.049 156.791 167.443C174.608 172.17 193.208 164.741 193.208 164.741L201.728 134.222C178.841 126.233 190.407 102.768 190.407 102.768L185.602 101.733C185.602 101.733 168.6 112.915 160.017 102.493" fill="#3BBEC5"/>
    <path d="M150.977 112.616C150.977 112.616 142.037 123.728 140.476 129.45C139.451 133.211 146.764 141.683 152.666 143.177C155.892 143.994 155.967 113.365 150.977 112.616Z" fill="#3BBEC5"/>
    <path d="M191.827 414.565C185.053 415.975 178.36 414.349 178.36 414.349L185.214 410.221C185.214 410.221 192.366 401.401 193.608 398.356C194.404 396.401 194.253 390.21 194.253 390.21H203.063L203.376 394.619L207.015 401.147C207.015 401.147 207.521 404.294 201.181 405.27C201.181 405.27 196.988 410.016 191.827 414.565Z" fill="#F69575"/>
    <path d="M185.214 410.221C187.641 411.086 191.819 411.127 193.85 409.061C202.023 400.743 203.376 394.619 203.376 394.619C208.066 398.723 207.14 402.409 207.14 402.409L206.914 403.925L205.17 415.595H204.262L201.135 406.195L195.616 415.36C181.141 417.857 177.427 414.492 177.427 414.492L185.214 410.221" fill="#141519"/>
    <path d="M205.233 299.933L185.993 305.043C185.993 305.043 193.4 386.274 194.253 390.21C194.253 390.21 203.086 392.448 203.063 390.21C203.015 384.804 210.777 351.592 211.455 343.125C212.624 328.575 217.032 318.816 205.233 299.933Z" fill="#F69575"/>
    <path d="M210.77 207.881L214.57 288.206C214.57 288.206 165.793 298.331 131.925 284.444C131.925 284.444 135.021 215.731 148.792 192.94C148.792 192.94 208.007 188.027 210.77 207.881Z" fill="#161B21"/>
    <path d="M188.507 109.485C184.369 114.921 186.698 120.193 190.048 125.933C193.452 131.769 214.196 135.802 213.211 129.28C211.276 116.453 209.814 109.148 203.444 105.877C198.041 103.102 192.643 104.044 188.507 109.485Z" fill="#F69575"/>
    <path d="M187.861 120.26L198.296 112.707L210.961 117.553C210.961 117.553 224.465 155.171 223.528 164.352C222.528 174.133 216.494 167.879 213.766 165.628C213.766 165.628 187.876 127.937 187.861 120.26" fill="#F69575"/>
    <path d="M223.281 163.606C223.281 163.606 224.929 190.082 220.418 207.776C220.418 207.776 214.708 210.821 214.252 207.102C213.486 200.784 207.571 169.678 209.075 158.644C209.559 155.082 223.281 163.606 223.281 163.606Z" fill="#F69575"/>
    <path d="M217.758 229.443C217.758 229.443 216.22 230.117 217.259 226.884L218.475 221.839C218.475 221.839 217.253 230.244 214.051 231.842C214.051 231.842 213.475 232.312 212.856 231.197C212.856 231.197 215.572 224.035 215.557 221.123C215.557 221.123 214.852 229.882 211.241 232.399C211.241 232.399 209.411 233.096 209.436 231.369C209.436 231.369 212.208 225.171 212.463 220.241C212.463 220.241 210.306 228.8 208.31 231.173C208.31 231.173 206.276 231.552 206.712 229.52C206.712 229.52 208.264 224.391 209.444 218.485C209.444 218.485 205.717 221.314 202.879 219.992L211.304 208.965L214.252 207.102L220.418 207.776L221.134 214.321C221.134 214.321 221.573 221.174 219.304 227.606C219.304 227.606 218.71 229.238 217.758 229.443" fill="#F69575"/>
    <path d="M149.1 140.923L167.392 177.037L130.155 173.952L113.367 138.512L149.1 140.923" fill="#D9EDF4"/>
    <path d="M119.266 149.695C119.974 150.865 120.733 151.925 121.874 152.733C123.173 153.658 125.344 153.378 126.181 154.052C127.637 155.222 126.604 158.393 123.53 161.57C120.864 164.328 118.899 160.72 117.999 158.499C116.673 155.22 116.761 153.755 118.274 151.107L119.266 149.695" fill="#E68368"/>
    <path d="M391.405 109.671L392.731 65.042C393.675 54.6095 389.109 50.8236 389.109 50.8236C369.705 44.2955 359.914 53.1102 359.914 53.1102V98.7046C368.346 105.767 380.31 110.445 391.405 109.671Z" fill="#C39A6F"/>
    <path d="M338.944 104.858C328.741 109.331 334.413 120.082 334.413 120.082L348.199 165.083C348.199 165.083 361.077 169.807 383.68 167.443C386.821 163.414 393.272 146.532 395.433 133.64C397.213 123.021 402.741 112.562 396.72 106.64C394.411 104.37 376.823 102.105 376.733 101.733H355.564L338.944 104.858" fill="#F69575"/>
    <path d="M385.688 65.042L384.365 109.477C386.725 109.765 389.085 109.833 391.405 109.671L392.731 65.042C393.675 54.6094 389.109 50.8235 389.109 50.8235C382.195 48.4965 376.51 48.1244 372.046 48.6017C375.037 48.8983 378.377 49.5832 382.066 50.8235C382.066 50.8235 386.629 54.6094 385.688 65.042Z" fill="#D7AB7B"/>
    <path d="M395.121 105.761C401.677 108.727 402.717 115.568 401.635 121.786C400.505 128.29 387.531 141.95 384.347 136.015C378.092 124.353 375.167 115.509 377.95 109.418C380.734 103.324 384.618 101.013 395.121 105.761" fill="#E68368"/>
    <path d="M401.869 115.436L386.635 114.816L379.032 125.116C379.032 125.116 390.843 163.19 397.264 170.39C404.1 178.061 405.296 169.861 406.195 166.636C406.195 166.636 404.247 124.062 401.869 115.436" fill="#E68368"/>
    <path d="M405.48 227.228L406.415 232.883L402.744 240.382C402.744 240.382 404.295 241.628 406.012 239.168L409.282 232.985L408.822 226.614L405.48 227.228" fill="#CB735B"/>
    <path d="M407.16 229.139L408.444 234.738L405.251 242.412C405.251 242.412 406.874 243.577 408.435 241.034L411.314 234.695L410.458 228.361L407.16 229.139" fill="#CB735B"/>
    <path d="M414.206 230.394L413.064 223.82L411.807 215.661L406.117 214.954L404.16 223.558L403.688 228.073L403.114 234.242L402.81 236.235C402.81 236.235 404.59 236.75 405.979 233.579L407.431 227.762L409.896 232.335L407.806 240.366C407.806 240.366 408.341 244.553 409.742 242.973L414.45 231.705L414.206 230.394" fill="#E68368"/>
    <path d="M392.085 161.13C392.085 161.13 399.459 192.404 406.117 214.954C406.117 214.954 411.008 220.164 411.807 215.661C413.407 206.673 408.104 157.962 405.54 154.235C402.982 150.512 392.085 161.13 392.085 161.13" fill="#E68368"/>
    <path d="M379.123 414.209C385.979 415.258 392.554 413.276 392.554 413.276L385.438 409.522C385.438 409.522 377.716 401.099 376.276 398.122C375.35 396.215 375.088 390.027 375.088 390.027L366.299 390.494L366.278 394.913L363.076 401.624C363.076 401.624 362.779 404.79 369.173 405.429C369.173 405.429 373.67 409.943 379.123 414.209" fill="#E68368"/>
    <path d="M385.438 409.522C383.073 410.515 378.903 410.776 376.742 408.821C368.03 400.956 366.278 394.913 366.278 394.913C361.865 399.26 363.031 402.889 363.031 402.889L363.359 404.391L365.872 415.948L366.777 415.902L369.281 406.351L375.392 415.206C390.008 416.927 393.495 413.37 393.495 413.37L385.438 409.522" fill="#CB232F"/>
    <path d="M385.072 302.22C385.072 302.22 376.053 386.112 375.088 390.027C375.088 390.027 366.212 392.731 366.299 390.493C366.494 385.09 357.741 350.521 357.166 342.049C356.253 328.445 358.718 319.391 366.608 301.103C366.608 301.103 381.122 292.076 385.072 302.22" fill="#E68368"/>
    <path d="M351.734 216.141C351.734 216.141 348.368 266.198 363.801 297.401C363.801 297.401 370.615 313.828 384.882 304.517C384.882 304.517 403.024 225.074 393.047 197.95C393.047 197.95 350.589 189.041 351.734 216.141Z" fill="#E68368"/>
    <path d="M375.055 164.501C376.739 164.228 383.68 167.443 383.68 167.443C383.68 167.443 392.355 192.444 392.725 196.246C393.101 200.043 363.954 219.724 331.395 208.518C331.395 208.518 346.471 173.313 347.394 164.644C348.317 155.972 375.055 164.501 375.055 164.501" fill="#E88767"/>
    <path d="M383.68 167.443C383.68 167.443 391.995 189.99 392.725 196.246C395.319 218.394 361.91 227.683 329.354 216.478C329.354 216.478 327.241 186.027 347.394 164.644C347.394 164.644 352.744 169.023 383.68 167.443Z" fill="#25335D"/>
    <path d="M352.898 232.91L329.354 221.314C329.354 221.314 333.172 288.136 336.157 306.906C336.157 306.906 349.327 310.196 353.409 307.766C365.619 282.069 372.693 226.274 372.693 226.274L352.898 232.91" fill="#F69575"/>
    <path d="M338.634 201.76C338.634 201.76 327.334 204.686 329.673 223.464C331.955 241.805 369.56 243.547 373.071 224.742C376.853 204.505 358.549 193.782 338.634 201.76" fill="#F69575"/>
    <path d="M354.512 103.102H377.175C376.144 100.142 374.009 92.4811 377.31 87.2662L354.416 73.7812C354.416 73.7812 358.486 96.4126 354.512 103.102Z" fill="#F69575"/>
    <path d="M375.545 94.215C375.482 91.9473 375.9 89.4962 377.31 87.2662L354.416 73.7812C354.416 73.7812 356.075 83.0031 356.244 91.4161C364.51 93.7728 367.913 94.6869 375.545 94.215" fill="#E27462"/>
    <path d="M380.833 89.1133L382.207 86.1148L385.649 77.265C386.136 75.8575 386.436 73.9161 385.97 72.4977C385.411 70.7936 385.057 68.0432 385.925 65.0231C388.255 56.9338 384.452 52.4819 384.452 52.4819C379.555 44.7215 367.005 44.1877 367.005 44.1877C351.443 44.2011 349.411 57.6241 349.411 57.6241C346.411 66.4792 353.959 74.2882 353.977 74.3017C354.933 75.2886 354.954 76.8228 355.375 78.0093C355.823 79.2793 356.541 80.4765 357.458 81.5201C359.511 83.8633 362.238 86.1418 365.087 87.6113C367.79 89.0081 373.092 90.5505 376.91 90.688C378.491 90.7446 380.048 90.8336 380.833 89.1133" fill="#F69575"/>
    <path d="M355.417 79.5786C355.696 73.2177 355.856 73.614 355.856 73.614C356.123 71.7643 359.962 75.9546 360.016 73.5304C360.257 62.4372 365.042 57.3706 366.846 56.5967C371.74 54.5015 376.805 54.0647 380.752 54.8818C386.941 56.1599 386.28 63.6075 386.28 63.6075C393.149 36.5512 358.711 43.7265 358.711 43.7265C341.962 46.8679 342.876 60.9191 342.876 60.9191C339.999 75.8278 355.979 85.2196 355.979 85.2196L355.417 79.5786Z" fill="#C39A6F"/>
    <path d="M356.625 77.4646C356.048 77.8205 355.327 78.0093 354.437 77.9526C352.035 77.8151 350.153 75.7038 350.237 73.2473C350.322 70.7963 352.33 68.9195 354.728 69.0571C355.868 69.1245 356.887 69.6341 357.638 70.4134C358.729 71.5486 358.651 73.5493 358.306 74.911C358.023 76.0004 357.488 76.9253 356.625 77.4646Z" fill="#F7906E"/>
    <path d="M355.57 71.3868C355.504 70.0924 352.528 71.1899 352.928 71.9368C353.156 72.3656 353.649 72.6945 354.031 73.0046C354.557 73.428 354.807 73.8082 354.846 74.4526C354.852 74.5254 354.858 74.752 354.768 74.8005C354.38 75.0162 353.216 73.703 352.961 73.4253C352.462 72.8779 352.438 71.9854 352.732 71.349C353.039 70.6749 353.562 70.3756 354.38 70.4592C355.032 70.5212 355.69 70.594 355.612 71.3193C355.609 71.3328 355.576 71.4515 355.57 71.3868Z" fill="#EB7963"/>
    <path d="M354.566 72.6811C354.885 72.4249 355.161 72.6622 355.459 72.8752C355.736 73.0775 355.877 73.3498 355.934 73.6572C356.063 74.334 355.91 75.2265 355.45 75.7928C355.08 76.2458 354.482 76.5073 353.854 76.4615C352.976 76.4022 352.757 75.6957 352.76 75.0324C352.76 74.8544 352.772 74.4338 352.967 74.3313C353.186 74.2207 353.319 74.5228 353.448 74.6522C353.634 74.8275 353.92 74.9056 354.175 74.938C354.674 74.9973 355.173 74.7924 355.504 74.4769C355.564 74.4203 355.621 74.3529 355.651 74.2801C355.624 74.7142 355.597 74.8086 355.558 74.5686C355.528 74.4553 355.474 74.3529 355.408 74.2531C355.225 73.943 354.894 73.7219 354.683 73.4253C354.581 73.2905 354.407 72.8132 354.566 72.6811Z" fill="#EB7963"/>
    <path d="M356.712 77.9176C356.673 78.6456 355.982 79.2092 355.167 79.1714C354.356 79.1337 353.73 78.5135 353.772 77.7855C353.815 77.0547 354.503 76.4938 355.318 76.5316C356.129 76.5693 356.758 77.1895 356.712 77.9176Z" fill="white"/>
    <path d="M389.493 112.616C389.493 112.616 398.436 123.728 399.997 129.45C401.022 133.211 393.708 141.683 387.804 143.177C384.582 143.994 384.503 113.365 389.493 112.616Z" fill="#5BA8CD"/>
    <path d="M389.493 112.616C389.493 112.616 398.436 123.728 399.997 129.45C401.022 133.211 393.708 141.683 387.804 143.177C384.582 143.994 384.503 113.365 389.493 112.616Z" fill="#25335D"/>
    <path d="M380.454 102.493L385.54 103.103C385.54 103.103 393.684 118.025 395.707 133.732C393.543 146.623 388.937 166.049 383.68 167.443C365.866 172.17 347.264 164.741 347.264 164.741L338.745 134.222C361.63 126.233 350.063 102.768 350.063 102.768L354.87 101.733C354.87 101.733 370.579 114.398 380.454 102.493" fill="#25335D"/>
    <path d="M348.644 414.565C355.42 415.975 362.111 414.349 362.111 414.349L355.258 410.221C355.258 410.221 348.106 401.401 346.865 398.356C346.068 396.401 346.218 390.21 346.218 390.21H337.408L337.095 394.619L333.458 401.147C333.458 401.147 332.95 404.294 339.292 405.27C339.292 405.27 343.486 410.016 348.644 414.565Z" fill="#F69575"/>
    <path d="M355.258 410.221C352.832 411.086 348.653 411.127 346.621 409.061C338.451 400.743 337.095 394.619 337.095 394.619C332.408 398.723 333.331 402.409 333.331 402.409L333.557 403.925L335.3 415.595H336.208L339.337 406.195L344.857 415.36C359.331 417.857 363.043 414.492 363.043 414.492L355.258 410.221" fill="#CB232F"/>
    <path d="M335.24 299.933L354.479 305.043C354.479 305.043 347.072 386.274 346.218 390.21C346.218 390.21 337.386 392.448 337.408 390.21C337.456 384.804 329.694 351.592 329.018 343.125C327.848 328.575 323.441 318.816 335.24 299.933Z" fill="#F69575"/>
    <path d="M352.426 114.428C352.88 120.999 349.053 127.452 341.724 127.856C334.398 128.266 315.343 125.259 319.912 120.106C328.885 109.97 334.323 104.885 341.649 104.478C348.978 104.068 351.975 107.854 352.426 114.428Z" fill="#F69575"/>
    <path d="M346.838 123.984L342.178 112.707L328.531 111.062C328.531 111.062 295.479 137.191 291.051 145.512C286.335 154.376 295.082 151.771 298.714 151.086C298.714 151.086 342.452 130.574 346.838 123.984Z" fill="#F69575"/>
    <path d="M290.297 151.215C290.297 151.215 306.764 171.997 322.101 183.834C322.101 183.834 328.711 183.244 326.619 180.011C323.057 174.518 308.402 148.802 304.801 143.29C302.775 140.195 290.297 151.215 290.297 151.215" fill="#F69575"/>
    <path d="M326.619 180.011L330.226 179.941L338.745 176.487C338.703 180.774 339.193 185.14 339.193 185.14C343.519 189.262 346.122 192.49 346.122 192.49C347.818 193.892 345.93 194.671 345.93 194.671C342.752 193.825 336.755 189.632 336.755 189.632C339.755 192.415 345.473 196.384 345.473 196.384C346.633 197.762 344.7 198.174 344.7 198.174C340.131 198.072 334.846 191.989 334.846 191.989C336.761 194.34 342.208 198.414 342.208 198.414C342.443 199.641 341.673 199.571 341.673 199.571C338.036 199.986 332.971 194.119 332.971 194.119L334.931 196.273C337.907 199.005 335.165 199.29 335.165 199.29L333.358 198.077C327.923 194.297 325.858 189.483 325.858 189.483L322.101 183.834L326.619 180.011" fill="#F69575"/>
    <path d="M378.954 54.6094L366.987 42.8772C381.203 38.5466 389.704 51.4519 389.704 51.4519L387.011 54.6094C387.011 54.6094 381.888 44.1876 378.954 54.6094Z" fill="#D7AB7B"/>
    <path d="M395.094 254.258C397.111 232.829 397.757 206.927 391.523 192.94C391.523 192.94 334.931 196.273 329.547 207.881C329.547 207.881 326.811 221.302 329.084 254.258C329.084 254.258 368.481 262.746 395.094 254.258Z" fill="#25335D"/>
    <path d="M336.379 93.7215C336.379 101.029 352.309 107.244 362.815 109.418C362.355 100.816 362.343 94.3336 362.343 94.3336C361.327 77.8501 361.886 71.74 363.554 60.3366C364.856 51.4329 372.052 47.8467 378.954 54.6094C378.675 54.3317 378.609 53.3879 378.47 53.0158C378.266 52.4441 378.02 51.8887 377.731 51.3467C375.317 46.8004 370.408 43.5728 365.081 42.1976C363.173 41.7014 361.312 41.5558 359.343 41.7473C352.781 42.389 344.661 46.5335 341.367 51.6945C338.138 56.7558 337.414 63.1302 336.887 68.8359C336.59 72.0662 336.349 75.3667 336.416 78.6079C336.416 78.6106 336.545 84.772 336.379 93.7215" fill="#DEBB81"/>
    <path d="M240.546 86.9992C242.062 88.3529 242.63 90.3914 243.363 92.1953C249.018 85.5054 253.178 72.3629 245.125 66.339C233.018 57.287 232.776 80.0586 240.546 86.9992" fill="#351F17"/>
    <path d="M214.587 266.953L213.653 272.607L217.321 280.106C217.321 280.106 215.769 281.352 214.053 278.893L210.784 272.71L211.243 266.341L214.587 266.953" fill="#CB735B"/>
    <path d="M212.906 268.864L211.624 274.465L214.814 282.136C214.814 282.136 213.191 283.301 211.632 280.758L208.751 274.422L209.608 268.085L212.906 268.864" fill="#CB735B"/>
    <path d="M205.861 270.118L207.002 263.544L208.259 255.388L213.95 254.681L215.905 263.283L216.379 267.799L216.951 273.969L217.256 275.962C217.256 275.962 215.474 276.474 214.088 273.306L212.637 267.487L210.17 272.06L212.259 280.09C212.259 280.09 211.724 284.28 210.324 282.7L205.616 271.431L205.861 270.118Z" fill="#E68368"/>
    <path d="M227.754 199.822C227.754 199.822 215.159 244.343 213.95 254.681C213.95 254.681 209.058 259.891 208.259 255.387C206.659 246.397 208.932 199.336 211.496 195.612C214.055 191.886 227.754 199.822 227.754 199.822" fill="#E68368"/>
    <path d="M217.534 146.184L213.4 147.394C213.4 147.394 206.854 193.059 212.393 203.26C217.932 213.46 224.307 203.208 226.384 202.054C228.458 200.898 241.704 149.18 241.704 149.18L217.534 146.184Z" fill="#E68368"/>
    <path d="M208.635 197.958L211.278 140.748C214.273 126.707 230.3 130.887 230.3 130.887C243.297 133.92 242.675 146.987 242.675 146.987L231.496 201.785C231.496 201.785 229.155 210.163 217.13 210.163C217.13 210.163 208.257 209.089 208.635 197.958" fill="#101317"/>
    <path d="M216.313 256.105L216.114 261.309L206.017 260.996L206.216 255.792L216.313 256.105Z" fill="white"/>
    <path d="M230.395 203.71C230.395 203.71 224.818 237.34 216.82 257.938C216.82 257.938 209.958 258.515 206.05 257.604C206.05 257.604 205.455 209.383 209.88 193.782C209.88 193.782 231.985 194.197 230.395 203.71" fill="#101317"/>
    <path d="M222.268 416.442C222.268 416.442 220.012 424.318 217.241 426.454C214.469 428.592 203.892 431.73 203.892 431.73L198.033 432.485C198.033 432.485 193.961 435.106 205.139 437.862C216.316 440.618 235.934 432.302 235.934 432.302L231.512 416.202L222.268 416.442" fill="#281112"/>
    <path d="M281.991 438.102C283.966 435.344 288.096 420.316 288.096 420.316L297.232 420.068L302.946 436.614C302.946 436.614 303.863 439.383 301.999 440.421C301.999 440.421 290.606 443.967 280.882 440.251C280.882 440.251 280.984 439.512 281.991 438.102" fill="#281112"/>
    <path d="M225.37 209.912L213.71 145.982C213.71 145.982 209.691 136.369 217.727 131.566L248.356 118.653H269.958L306.779 138.173L282.643 209.912H225.37Z" fill="#F69575"/>
    <path d="M282.643 209.912C282.643 209.912 289.257 223.459 290.853 254.6C290.853 254.6 241.073 268.605 225.458 254.6L225.37 209.912H282.643Z" fill="#0D1013"/>
    <path d="M250.01 254.465C249.925 264.914 258.998 273.448 270.273 273.521C281.552 273.597 290.766 265.186 290.853 254.735C290.937 244.284 281.862 235.755 270.586 235.679C259.307 235.604 250.094 244.017 250.01 254.465Z" fill="#0D1013"/>
    <path d="M290.832 257.038L296.249 336.618C296.249 336.618 286.662 357.314 269.693 344.592L251.269 262.727C251.269 262.727 260.212 235.215 290.832 257.038" fill="#0D1013"/>
    <path d="M296.249 336.618C296.249 336.618 301.353 351.559 299.835 377.58L301.353 426.222L282.562 426.556L269.783 344.842C269.783 344.842 282.577 318.355 296.249 336.618" fill="#0D1013"/>
    <path d="M225.551 254.651C224.37 265.046 228.513 273.939 239.732 274.966C250.953 275.997 261.009 268.398 262.19 258.003C263.371 247.606 255.234 238.346 244.015 237.319C232.794 236.291 226.734 244.254 225.551 254.651" fill="#0D1013"/>
    <path d="M257.401 268.339L247.094 341.655C247.094 341.655 224.742 350.545 220.773 338.107C220.773 338.107 221.294 282.255 225.551 254.651C225.551 254.651 253.151 242.593 257.401 268.339" fill="#0D1013"/>
    <path d="M247.094 338.659C247.094 338.659 250.229 349.416 246.841 369.048L239.085 424.62L219.289 423.679L220.773 335.159C220.773 335.159 233.099 323.559 247.094 338.659" fill="#0D1013"/>
    <path d="M302.032 204.214C306.241 242.078 304.515 244.583 304.076 259.769C304.076 259.769 306.325 265.114 310.152 262.113C313.978 259.114 320.081 208.69 318.16 204.67C315.298 198.7 302.032 204.214 302.032 204.214Z" fill="#F69575"/>
    <path d="M304.699 258.259L298.762 263.582L293.718 270.213C296.216 271.72 298.831 268.01 298.831 268.01C297.199 273.853 294.033 279.011 294.033 279.011C293.267 281.106 295.47 280.95 295.47 280.95C297.935 278.682 301.085 271.992 301.085 271.992C299.901 275.978 296.889 282.328 296.889 282.328C296.606 284.151 298.641 283.633 298.641 283.633C302.829 281.408 304.221 273.295 304.221 273.295C303.803 276.371 301.097 282.695 301.097 282.695C301.584 283.948 302.267 283.52 302.267 283.52C305.883 282.217 307.197 274.403 307.197 274.403L306.619 277.315C305.438 281.241 308.15 280.227 308.15 280.227L309.127 278.259C311.988 272.219 311.126 266.78 311.126 266.78L311.108 259.713L304.699 258.259" fill="#F69575"/>
    <path d="M292.69 139.348C306.905 136.444 311.76 148.23 311.76 148.23C311.76 148.23 318.899 187.461 318.812 204.273C318.752 215.62 303.322 206.482 302.309 204.487C300.072 200.086 283.855 152.83 283.855 152.83C283.855 152.83 283.01 141.729 292.69 139.348" fill="#F69575"/>
    <path d="M299.904 205.147L281.468 151.531C281.88 138.202 296.42 136.212 296.42 136.212C310.095 135.039 313.089 145.593 313.089 145.593L319.702 199.266C319.702 199.266 321.944 211.333 314.174 211.508C314.174 211.508 301.137 212.775 299.904 205.147Z" fill="#13171D"/>
    <path d="M313.077 256.593L311.94 261.7L302.032 259.923L303.169 254.816L313.077 256.593Z" fill="white"/>
    <path d="M298.786 201.893C298.786 201.893 301.173 246.934 302.032 256.145L313.242 258.259C313.242 258.259 323.378 213.121 319.702 199.266C319.702 199.266 305.056 192.099 298.786 201.893" fill="#13171D"/>
    <path d="M270.063 104.532V125.243H245.648C245.648 125.243 251.654 117.032 248.651 104.532H270.063" fill="#F69575"/>
    <path d="M257.678 122.121C255.481 123.388 250.803 126.092 248.134 124.512C247.415 124.084 247.082 123.525 246.973 122.905C248.543 119.624 250.704 113.082 248.651 104.532H270.063V106.408C267.393 112.473 263.967 118.483 257.678 122.121" fill="#E27462"/>
    <path d="M270.646 104.823C270.646 104.823 274.803 103.202 279.508 93.9777C279.508 93.9777 289.722 83.0678 282.484 70.6857C282.484 70.6857 278.203 60.2099 257.477 63.1437C257.477 63.1437 255.61 91.2111 270.646 104.823Z" fill="#F7906E"/>
    <path d="M245.119 110.423L243.736 107.177C243.736 107.177 239.921 95.094 239.921 95.0913C239.44 93.5732 239.413 91.5401 239.723 89.9788C240.056 88.28 240.27 86.5031 239.777 84.7126C237.369 76.022 242.335 71.0901 242.335 71.0901C247.806 62.8956 261.273 62.6233 261.273 62.6233C277.945 63.0116 279.718 77.4376 279.718 77.4376C282.673 86.9965 274.353 95.1803 274.334 95.1992C273.67 95.849 274.1 99.0066 273.92 99.9099C273.141 103.766 269.11 106.211 265.524 107.91C261.586 109.779 256.815 111.777 252.366 112.235C250.68 112.411 245.909 112.287 245.119 110.423Z" fill="#F69575"/>
    <path d="M286.608 208.175C286.557 210.305 290.161 232.588 288.649 232.875C288.64 232.875 247.436 241.393 225.458 232.875L225.37 209.912L213.71 145.982C213.71 145.982 209.691 136.369 217.727 131.566L248.356 118.653L246.288 124.221L250.716 135.519L269.958 118.653L306.779 138.173C304.723 144.291 302.676 150.409 300.617 156.525C296.823 167.801 293.128 179.11 289.218 190.354C289.218 190.354 285.98 202.55 286.608 208.175Z" fill="white"/>
    <path d="M253.376 122.673L253.629 132.966L257.855 129.261L253.376 122.673Z" fill="#D3D2D2"/>
    <path d="M247.992 139.27C247.992 140.082 248.726 140.74 249.631 140.74C250.533 140.74 251.269 140.082 251.269 139.27C251.269 138.461 250.533 137.803 249.631 137.803C248.726 137.803 247.992 138.461 247.992 139.27Z" fill="#E9E9E9"/>
    <path d="M247.992 165.941C247.992 166.75 248.726 167.408 249.631 167.408C250.533 167.408 251.269 166.75 251.269 165.941C251.269 165.129 250.533 164.471 249.631 164.471C248.726 164.471 247.992 165.129 247.992 165.941Z" fill="#E9E9E9"/>
    <path d="M247.992 192.609C247.992 193.42 248.726 194.078 249.631 194.078C250.533 194.078 251.269 193.42 251.269 192.609C251.269 191.797 250.533 191.139 249.631 191.139C248.726 191.139 247.992 191.797 247.992 192.609Z" fill="#E9E9E9"/>
    <path d="M247.992 219.278C247.992 220.088 248.726 220.747 249.631 220.747C250.533 220.747 251.269 220.088 251.269 219.278C251.269 218.468 250.533 217.81 249.631 217.81C248.726 217.81 247.992 218.468 247.992 219.278Z" fill="#E9E9E9"/>
    <path d="M253.376 134.139V235.353" stroke="#E9E9E9" stroke-width="3.93083" stroke-miterlimit="10"/>
    <path d="M225.713 234.981C225.713 234.981 246.757 243.825 289.831 234.787C290.54 234.636 290.239 232.988 290.239 232.988L289.831 229.27C289.641 228.078 288.902 228.133 288.902 228.133C288.89 228.134 247.686 236.653 225.713 228.133C225.713 228.133 224.826 227.994 224.788 229.188V233.824C224.788 233.824 224.788 234.752 225.713 234.981Z" fill="#411C12"/>
    <path d="M247.094 237.788C247.094 238.378 247.611 238.856 248.254 238.856H256.635C257.275 238.856 257.798 238.378 257.798 237.788V232.373C257.798 231.785 257.275 231.306 256.635 231.306H248.254C247.611 231.306 247.094 231.785 247.094 232.373V237.788Z" stroke="#BDBCBC" stroke-width="6.43079" stroke-miterlimit="10"/>
    <path d="M257.798 234.741H253.358" stroke="#BDBCBC" stroke-width="6.43079" stroke-miterlimit="10"/>
    <path d="M253.376 122.441C253.376 122.441 266.885 117.733 270.063 113.047L274.058 119.872L259.812 132.124L253.376 122.673" fill="#E9E9E9"/>
    <path d="M266.633 73.4711C267.09 74.2072 268.903 79.3467 266.672 81.9218C271.377 85.1656 269.104 91.7369 269.104 91.7369L270.246 91.7935C276.848 90.2619 274.632 101.466 274.632 101.468C274.68 101.212 275.78 100.584 276 100.398C277.289 99.287 280.01 95.3016 280.867 93.8968C285.514 86.2523 285.075 85.8613 286.323 81.3501C287.176 78.2681 286.807 69.9226 281.808 65.7269C281.808 65.7269 275.979 65.7242 266.633 73.4711" fill="#351F17"/>
    <path d="M271.836 96.604C272.429 97.0516 273.201 97.3294 274.184 97.3563C276.842 97.4318 279.159 95.2962 279.364 92.5836C279.568 89.8818 277.581 87.6222 274.927 87.5493C273.667 87.5143 272.48 87.9754 271.566 88.7574C270.231 89.9006 270.075 92.1064 270.297 93.6406C270.475 94.8675 270.953 95.9326 271.836 96.604" fill="#F69575"/>
    <path d="M273.724 90.0274C273.956 88.609 277.091 90.1029 276.565 90.8848C276.258 91.3351 275.678 91.6479 275.221 91.9526C274.593 92.3733 274.277 92.7643 274.154 93.4653C274.139 93.5489 274.109 93.7943 274.196 93.859C274.599 94.134 276.033 92.7993 276.346 92.5189C276.962 91.9688 277.097 90.9846 276.851 90.2593C276.589 89.4881 276.051 89.1052 275.143 89.1187C274.422 89.1267 273.682 89.1402 273.685 89.9438C273.685 89.9653 273.712 90.1002 273.724 90.0274" fill="#EB7963"/>
    <path d="M274.674 91.5455C274.356 91.23 274.025 91.4673 273.67 91.6749C273.343 91.869 273.15 92.1549 273.051 92.4892C272.828 93.2227 272.892 94.215 273.331 94.881C273.682 95.4176 274.307 95.7627 275.008 95.7762C275.976 95.7897 276.301 95.0347 276.379 94.3012C276.4 94.1098 276.442 93.6433 276.231 93.5139C276.009 93.3764 275.829 93.6891 275.666 93.8213C275.444 93.9965 275.119 94.0532 274.837 94.0639C274.28 94.0855 273.754 93.8105 273.424 93.4276C273.37 93.3602 273.318 93.2793 273.291 93.2011C273.267 93.6783 273.288 93.7889 273.358 93.5247C273.409 93.4033 273.475 93.2955 273.559 93.1957C273.799 92.8721 274.19 92.6591 274.455 92.3544C274.584 92.2115 274.834 91.7073 274.674 91.5455" fill="#EB7963"/>
    <path d="M276.075 121.897L259.698 173.504L262.127 267.274C262.127 267.274 287.576 265.874 298.696 256.849L290.853 202.079L306.779 138.173L276.075 121.897" fill="#13171D"/>
    <path d="M276.075 121.897L259.698 173.504L259.764 175.955L280.395 157.015C280.395 157.015 282.562 153.731 279.625 151.784L274.752 147.602L278.227 145.367C278.227 145.367 283.103 143.245 282.511 139.27L281.116 124.326L276.075 121.897" fill="#202B33"/>
    <path d="M239.801 122.258L221.149 130.121C221.149 130.121 210.535 132.637 212.705 142.5L218.838 197.152L215.766 255.061C215.766 255.061 213.138 265.823 234.762 264L242.413 172.113L239.801 122.258" fill="#13171D"/>
    <path d="M241.965 122.965C241.965 122.965 243.207 118.653 249.297 115.01L248.501 129.87C248.501 129.87 245.122 122.269 241.965 122.965Z" fill="#E9E9E9"/>
    <path d="M241.409 129.87L241.965 122.965C243.823 122.555 245.488 124.89 246.841 126.804L241.409 129.87Z" fill="#D3D2D2"/>
    <path d="M239.801 122.258L234.991 124.286L231.519 138.677C231.519 138.677 229.777 142.401 232.297 143.374L236.831 145.747L230.443 149.374C230.443 149.374 227.081 151.261 229.15 154.044L241.965 176.484L242.368 172.647L239.801 122.258" fill="#202B33"/>
    <path d="M243.3 98.2974C243.553 97.1352 243.607 96.4018 244.713 96.2185C246.91 95.8544 249.309 96.1888 251.495 96.4396C253.265 96.6418 255.453 96.8467 256.178 98.5805C256.815 100.104 256.346 102.326 255.453 103.717C253.941 106.066 249.051 107.277 246.574 105.756C244.463 104.459 242.828 100.492 243.3 98.2974ZM272.029 98.7774L270.246 91.7936L269.104 91.737C269.104 91.737 267.953 96.3641 261.784 97.1811C261.784 97.1811 259.115 97.5424 257.979 97.6772C257.831 97.6961 256.187 96.24 255.977 96.116C254.152 95.0509 251.957 94.7624 249.826 94.6114C247.653 94.4631 245.323 94.2743 243.24 94.9862C242.96 95.0805 240.297 96.2912 240.207 95.9515C240.207 95.9515 243.029 107.139 245.013 110.337C245.013 110.337 245.882 112.799 252.294 112.198C252.294 112.198 263.299 111.321 271.845 104.176C273.264 103.218 272.029 98.7774 272.029 98.7774" fill="#B06952"/>
    <path d="M254.702 126.394L255.201 125.559L258.598 130.234L255.679 131.167L254.702 126.394Z" fill="#0E87D2"/>
    <path d="M246.841 126.804L245.888 125.497C245.888 125.497 242.26 128.231 246.072 131.167C246.072 131.167 246.069 128.748 246.841 126.804Z" fill="#0E87D2"/>
    <path d="M254.702 126.394C254.702 126.394 251.822 128.689 246.841 126.804C245.753 128.05 245.756 129.633 246.072 131.167L248.651 135.943H252.255L255.679 131.167C255.679 131.167 256.031 130.116 254.702 126.394" fill="#0E87D2"/>
    <path d="M252.255 135.943L255.168 204.255L249.09 214.865L244.127 204.309L248.651 135.943H252.255" fill="#0B6CAB"/>
    <path d="M265.677 72.5382L271.238 70.0574L281.808 65.7269C281.808 65.7269 281.805 59.2285 268.473 56.7208C268.473 56.7208 252.126 54.4045 239.119 60.5767C239.119 60.5767 235.571 62.3132 232.776 60.7708C232.776 60.7708 237.294 77.745 265.677 72.5382Z" fill="#351F17"/>
    </svg>
