<svg width="658" height="472" viewBox="0 0 658 472" fill="none" xmlns="http://www.w3.org/2000/svg">
    <path d="M95.7686 44.4597C185.511 1.96662 276.721 39.5338 338.582 121.36C369.521 162.286 417.463 148.144 466.274 134.005C515.056 119.872 564.705 105.742 599.121 146.574C646.109 202.324 624.587 345.661 560.157 407.742C472.584 492.128 206.258 449.31 148.648 434.951C82.2761 418.404 33.7532 368.208 14.0385 307.284C-33.4643 160.487 56.1097 63.2378 95.7686 44.4597" fill="#E7F3FE"/>
    <path d="M329.305 129.799C313.346 129.799 300.41 113.299 300.41 92.9449C300.41 72.591 313.346 56.0885 329.305 56.0885C345.265 56.0885 358.201 72.591 358.201 92.9449C358.201 113.299 345.265 129.799 329.305 129.799ZM402.511 103.494C402.816 100.031 402.978 96.5126 402.978 92.9449C402.978 91.0633 402.928 89.1954 402.842 87.3385L389.175 81.699C388.333 74.3487 386.681 67.3372 384.335 60.8134L393.398 46.5893C391.303 41.8837 388.899 37.4317 386.22 33.2771L372.55 38.9662C368.565 33.7758 364.014 29.2989 359.017 25.7009L359.795 7.38289C355.98 5.16787 351.993 3.35511 347.863 1.98863L339.422 16.8463C336.132 16.1383 332.754 15.7664 329.305 15.7664C326.957 15.7664 324.639 15.9427 322.358 16.276L314.543 0.867311C310.355 1.95554 306.298 3.49282 302.402 5.44336L302.419 23.7889C297.274 27.0508 292.543 31.2164 288.355 36.1286L274.946 29.5276C272.095 33.5003 269.509 37.7816 267.222 42.3356L275.685 57.1547C273.067 63.5243 271.123 70.42 269.98 77.6822L256.1 82.3933C255.795 85.8591 255.633 89.3772 255.633 92.9449C255.633 94.8266 255.683 96.6945 255.767 98.5486L269.436 104.191C270.278 111.538 271.931 118.553 274.276 125.076L265.213 139.301C267.308 144.006 269.712 148.458 272.391 152.613L286.061 146.924C290.047 152.114 294.598 156.591 299.594 160.189L298.816 178.507C302.631 180.722 306.618 182.535 310.748 183.901L319.189 169.044C322.479 169.752 325.857 170.123 329.305 170.123C331.657 170.123 333.972 169.947 336.253 169.614L344.068 185.023C348.256 183.934 352.313 182.397 356.209 180.446L356.192 162.101C361.337 158.839 366.07 154.673 370.256 149.761L383.665 156.362C386.516 152.39 389.102 148.108 391.389 143.554L382.926 128.735C385.544 122.366 387.488 115.47 388.631 108.205L402.511 103.494" fill="#9EC8FF"/>
    <path d="M368.716 134.978C368.472 134.978 368.228 134.873 368.027 134.658C367.567 134.173 367.504 133.306 367.886 132.719C375.148 121.583 379.149 107.455 379.149 92.9449C379.149 85.9968 378.257 79.1726 376.501 72.6653C376.306 71.9463 376.604 71.1611 377.168 70.9131C377.734 70.6652 378.347 71.0481 378.542 71.7672C380.378 78.5638 381.309 85.691 381.309 92.9449C381.309 108.097 377.131 122.85 369.547 134.482C369.334 134.81 369.027 134.978 368.716 134.978Z" fill="white"/>
    <path d="M364.532 47.9916C364.266 47.9916 364.001 47.8676 363.793 47.6169C358.912 41.757 353.259 37.3132 346.991 34.4122C346.431 34.1532 346.142 33.3625 346.345 32.649C346.548 31.9327 347.168 31.5635 347.729 31.8225C354.274 34.853 360.177 39.4924 365.273 45.6112C365.707 46.1319 365.729 47.0026 365.32 47.5591C365.106 47.8456 364.819 47.9916 364.532 47.9916" fill="white"/>
    <path d="M318.098 32.6297C317.615 32.6297 317.174 32.2137 317.051 31.5911C316.906 30.8527 317.256 30.1034 317.835 29.916C321.902 28.6074 326.112 27.9434 330.346 27.9434C330.942 27.9434 331.426 28.5606 331.426 29.3209C331.426 30.0813 330.942 30.6985 330.346 30.6985C326.289 30.6985 322.259 31.3348 318.362 32.5884C318.273 32.6159 318.185 32.6297 318.098 32.6297Z" fill="white"/>
    <path d="M119.565 355.075C108.511 355.075 99.5505 343.644 99.5505 329.547C99.5505 315.447 108.511 304.019 119.565 304.019C130.618 304.019 139.579 315.447 139.579 329.547C139.579 343.644 130.618 355.075 119.565 355.075ZM170.27 336.853C170.482 334.454 170.592 332.018 170.592 329.547C170.592 328.244 170.56 326.949 170.499 325.665L161.033 321.759C160.45 316.667 159.306 311.81 157.681 307.289L163.958 297.438C162.506 294.178 160.842 291.096 158.986 288.219L149.518 292.159C146.758 288.564 143.604 285.462 140.145 282.971L140.683 270.282C138.041 268.747 135.278 267.493 132.418 266.546L126.572 276.836C124.293 276.348 121.953 276.089 119.565 276.089C117.937 276.089 116.332 276.21 114.752 276.442L109.34 265.769C106.44 266.524 103.629 267.59 100.93 268.94L100.943 281.646C97.378 283.905 94.1011 286.792 91.2013 290.192L81.9126 285.621C79.9388 288.374 78.1469 291.338 76.5634 294.492L82.4252 304.755C80.611 309.168 79.2647 313.943 78.4735 318.976L68.8591 322.238C68.6487 324.638 68.5368 327.076 68.5368 329.547C68.5368 330.85 68.5705 332.145 68.6299 333.429L78.0967 337.335C78.6793 342.427 79.8239 347.284 81.4489 351.802L75.1715 361.654C76.6234 364.913 78.2881 367.999 80.144 370.875L89.6121 366.932C92.3718 370.53 95.5254 373.63 98.9848 376.123L98.4466 388.81C101.089 390.344 103.851 391.601 106.712 392.546L112.558 382.256C114.837 382.746 117.177 383.005 119.565 383.005C121.193 383.005 122.798 382.881 124.377 382.652L129.79 393.323C132.69 392.57 135.501 391.504 138.199 390.154L138.187 377.445C141.752 375.186 145.029 372.302 147.928 368.899L157.217 373.47C159.191 370.721 160.983 367.753 162.566 364.602L156.704 354.337C158.519 349.923 159.865 345.149 160.656 340.118L170.27 336.853" fill="#9EC8FF"/>
    <path d="M146.862 359.083C146.619 359.083 146.374 358.979 146.172 358.767C145.713 358.279 145.651 357.411 146.032 356.824C151.013 349.187 153.756 339.498 153.756 329.547C153.756 324.781 153.145 320.1 151.939 315.637C151.745 314.918 152.045 314.133 152.609 313.888C153.173 313.64 153.787 314.02 153.982 314.739C155.265 319.494 155.916 324.475 155.916 329.547C155.916 340.14 152.996 350.455 147.693 358.588C147.479 358.915 147.172 359.083 146.862 359.083" fill="white"/>
    <path d="M143.964 298.834C143.699 298.834 143.433 298.71 143.224 298.46C139.877 294.44 136 291.393 131.702 289.404C131.141 289.142 130.852 288.354 131.055 287.638C131.258 286.922 131.878 286.553 132.438 286.814C137.015 288.93 141.142 292.175 144.705 296.451C145.139 296.975 145.16 297.845 144.751 298.399C144.539 298.688 144.252 298.834 143.964 298.834" fill="white"/>
    <path d="M111.801 288.194C111.319 288.194 110.879 287.778 110.755 287.153C110.609 286.415 110.96 285.665 111.538 285.481C114.382 284.566 117.325 284.101 120.285 284.101C120.881 284.101 121.365 284.718 121.365 285.478C121.365 286.238 120.881 286.856 120.285 286.856C117.503 286.856 114.737 287.291 112.067 288.15C111.978 288.181 111.889 288.194 111.801 288.194" fill="white"/>
    <path d="M415.985 190.717C408.935 190.717 403.218 183.427 403.218 174.432C403.218 165.44 408.935 158.15 415.985 158.15C423.038 158.15 428.753 165.44 428.753 174.432C428.753 183.427 423.038 190.717 415.985 190.717ZM446.629 173.683C446.629 172.972 446.614 172.264 446.584 171.562L453.677 164.297C453.12 160.671 452.249 157.191 451.1 153.905L441.942 153.02C439.86 148.83 437.162 145.185 434.013 142.292L433.982 130.65C431.431 128.944 428.712 127.592 425.863 126.655L419.603 135.248C418.523 135.099 417.428 135.019 416.318 135.019C413.56 135.019 410.888 135.493 408.348 136.372L401.17 129.124C398.461 130.622 395.917 132.512 393.578 134.738L394.936 146.279C392.26 149.676 390.08 153.706 388.543 158.178L379.613 160.82C378.859 164.335 378.406 168.01 378.293 171.798L386.158 177.598C386.56 182.678 387.733 187.466 389.523 191.772L385.586 202.291C387.275 205.236 389.216 207.933 391.372 210.322L399.805 206.109C403.12 208.862 406.883 210.809 410.924 211.735L414.899 222.174C415.372 222.196 415.847 222.212 416.327 222.212C418.707 222.212 421.038 221.928 423.299 221.394L425.98 210.338C429.883 208.666 433.432 206.005 436.443 202.591L445.307 205.131C447.126 202.409 448.711 199.428 450.029 196.238L444.89 186.612C446.016 182.571 446.629 178.218 446.629 173.683" fill="#9EC8FF"/>
    <path d="M564.65 79.8697H553.677C549.439 79.8697 545.991 75.4727 545.991 70.0674V56.072C545.991 50.6694 549.439 46.2724 553.677 46.2724H564.65C568.887 46.2724 572.335 50.6694 572.335 56.072V70.0674C572.335 75.4727 568.887 79.8697 564.65 79.8697ZM553.677 50.1294C551.106 50.1294 549.015 52.7963 549.015 56.072V70.0674C549.015 73.3459 551.106 76.0127 553.677 76.0127H564.65C567.22 76.0127 569.311 73.3459 569.311 70.0674V56.072C569.311 52.7963 567.22 50.1294 564.65 50.1294H553.677Z" fill="#B1D3FF"/>
    <path d="M513.019 79.8697H502.044C497.808 79.8697 494.361 75.4727 494.361 70.0674V56.072C494.361 50.6694 497.808 46.2724 502.044 46.2724H513.019C517.255 46.2724 520.702 50.6694 520.702 56.072V70.0674C520.702 75.4727 517.255 79.8697 513.019 79.8697ZM502.044 50.1294C499.476 50.1294 497.385 52.7963 497.385 56.072V70.0674C497.385 73.3459 499.476 76.0127 502.044 76.0127H513.019C515.587 76.0127 517.678 73.3459 517.678 70.0674V56.072C517.678 52.7963 515.587 50.1294 513.019 50.1294H502.044Z" fill="#B1D3FF"/>
    <path d="M508.217 71.7204C508.196 71.7204 508.176 71.7204 508.155 71.7204C507.774 71.6956 507.42 71.4586 507.189 71.0729L499.303 57.9536C498.867 57.229 498.975 56.1904 499.543 55.6367C500.111 55.0801 500.923 55.2179 501.359 55.9424L508.314 67.5135L526.474 42.6992C526.962 42.0297 527.782 41.9939 528.305 42.6193C528.828 43.2419 528.856 44.2861 528.368 44.9528L509.166 71.1969C508.919 71.533 508.576 71.7204 508.217 71.7204" fill="#F37168"/>
    <path d="M600.92 441.309C555.999 438.507 403.181 443.254 356.704 445.103C310.227 446.954 256.279 442.662 228.255 436.353C200.232 430.044 38.2467 436.89 45.5976 453.855C52.9483 470.821 117.77 461.443 191.278 468.261C264.788 475.08 430.11 467.41 467.4 468.261C504.692 469.115 538.887 466.559 586.945 463.148C635.003 459.74 626.961 442.932 600.92 441.309" fill="#CCE2FF"/>
    <path d="M47.855 282.872H141.76V86.558H47.855V282.872Z" fill="#99BBEB"/>
    <path d="M52.7729 275.389H138.673V90.558H52.7729V275.389Z" fill="white"/>
    <path d="M78.4664 164.677C81.6995 155.803 87.1714 152.963 96.1572 152.963C106.857 152.963 112.412 157.908 113.987 165.104C94.8269 165.44 78.4664 164.677 78.4664 164.677" fill="#9BD6E8"/>
    <path d="M92.4208 109.817C87.8915 111.436 88.09 114.685 86.5808 117.696C85.0716 120.71 81.7908 122.718 81.397 124.727C81.0035 126.735 82.4075 130.92 80.741 133.264C79.0746 135.606 78.51 136.777 79.1662 139.121C79.8224 141.466 81.2659 145.147 81.397 145.648C81.5284 146.152 83.3657 149.668 85.5967 150.169C87.8276 150.67 92.027 151.508 94.127 152.679C96.2265 153.852 102.978 151.18 106.725 151.348C110.473 151.513 113.025 147.993 112.762 145.648C112.5 143.306 115.525 138.62 115.518 134.603C115.51 130.289 111.581 127.071 110.531 124.225C109.481 121.379 110.662 116.357 106.725 113.384C104.237 111.503 102.526 111.671 100.557 110.833C98.5889 109.996 95.3079 108.783 92.4208 109.817" fill="#3A384D"/>
    <path d="M97.9327 160.046C96.9082 161.974 96.1572 162.054 95.0454 160.046C94.1616 158.448 92.4208 154.819 92.4208 152.979V134.603C92.4208 132.76 93.6019 131.253 95.0454 131.253H97.9327C99.3762 131.253 100.557 132.76 100.557 134.603V152.979C100.557 154.819 98.8513 158.316 97.9327 160.046Z" fill="#F09959"/>
    <path d="M97.9327 131.253H95.0454C93.6019 131.253 92.4208 132.76 92.4208 134.603V150.998C95.6625 152.312 98.6213 149.698 100.557 146.75V134.603C100.557 132.76 99.3762 131.253 97.9327 131.253" fill="#E38540"/>
    <path d="M105.216 131.44C105.216 139.816 101.309 146.607 96.4891 146.607C91.6693 146.607 87.7618 139.816 87.7618 131.44C87.7618 123.065 91.6693 116.274 96.4891 116.274C101.309 116.274 105.216 123.065 105.216 131.44" fill="#F09959"/>
    <path d="M100.557 119.371C95.0454 131.253 86.9089 130.082 86.9089 130.082C86.9089 130.082 87.1059 114.348 93.5691 113.511C100.032 112.676 103.838 115.982 105.151 121.443C106.463 126.903 105.151 130.501 105.151 130.501C105.151 130.501 103.051 128.41 102.001 125.063C100.951 121.713 100.557 119.371 100.557 119.371" fill="#3A384D"/>
    <path d="M88.6552 131.206C89.4715 133.399 89.2045 135.738 88.0589 136.433C86.9132 137.127 85.3226 135.912 84.5063 133.719C83.6903 131.529 83.9573 129.19 85.1029 128.495C86.2486 127.801 87.8392 129.016 88.6552 131.206Z" fill="#F09959"/>
    <path d="M103.929 131.206C103.113 133.399 103.38 135.738 104.526 136.433C105.671 137.127 107.262 135.912 108.078 133.719C108.894 131.529 108.627 129.19 107.481 128.495C106.336 127.801 104.745 129.016 103.929 131.206Z" fill="#F09959"/>
    <path d="M99.77 139.667C99.77 139.667 98.301 142.094 96.4892 142.094C94.6771 142.094 93.2083 139.667 93.2083 139.667H99.77" fill="white"/>
    <path d="M106.878 188.736H84.8388C83.4294 188.736 82.2762 187.265 82.2762 185.466C82.2762 183.67 83.4294 182.199 84.8388 182.199H106.878C108.287 182.199 109.44 183.67 109.44 185.466C109.44 187.265 108.287 188.736 106.878 188.736" fill="#99BBEB"/>
    <path d="M110.913 198.778H80.8034C79.394 198.778 78.241 197.307 78.241 195.511C78.241 193.712 79.394 192.241 80.8034 192.241H110.913C112.322 192.241 113.475 193.712 113.475 195.511C113.475 197.307 112.322 198.778 110.913 198.778Z" fill="#99BBEB"/>
    <path d="M132.478 234.896H59.238C58.4203 234.896 57.7511 234.042 57.7511 232.998C57.7511 231.957 58.4203 231.103 59.238 231.103H132.478C133.296 231.103 133.965 231.957 133.965 232.998C133.965 234.042 133.296 234.896 132.478 234.896Z" fill="#99BBEB"/>
    <path d="M132.478 243.71H59.238C58.4203 243.71 57.7511 242.855 57.7511 241.814C57.7511 240.77 58.4203 239.916 59.238 239.916H132.478C133.296 239.916 133.965 240.77 133.965 241.814C133.965 242.855 133.296 243.71 132.478 243.71Z" fill="#99BBEB"/>
    <path d="M132.478 252.526H59.238C58.4203 252.526 57.7511 251.671 57.7511 250.627C57.7511 249.586 58.4203 248.732 59.238 248.732H132.478C133.296 248.732 133.965 249.586 133.965 250.627C133.965 251.671 133.296 252.526 132.478 252.526Z" fill="#99BBEB"/>
    <path d="M69.4816 100.827C69.2133 100.827 68.9868 101.116 68.9868 101.458V163.47C68.9868 163.812 69.2133 164.101 69.4816 164.101H122.235C122.503 164.101 122.73 163.812 122.73 163.47V101.458C122.73 101.116 122.503 100.827 122.235 100.827H69.4816ZM122.235 166.856H69.4816C68.0178 166.856 66.8268 165.338 66.8268 163.47V101.458C66.8268 99.59 68.0178 98.072 69.4816 98.072H122.235C123.699 98.072 124.89 99.59 124.89 101.458V163.47C124.89 165.338 123.699 166.856 122.235 166.856" fill="#99BBEB"/>
    <path d="M77.0941 207.305L78.6212 211.253L82.0364 211.886L79.5651 214.958L80.1485 219.297L77.0941 217.248L74.0394 219.297L74.6228 214.958L72.1516 211.886L75.5668 211.253L77.0941 207.305Z" fill="#99BBEB"/>
    <path d="M89.6035 207.305L91.1306 211.253L94.5458 211.886L92.0748 214.958L92.658 219.297L89.6035 217.248L86.5489 219.297L87.1323 214.958L84.661 211.886L88.0762 211.253L89.6035 207.305Z" fill="#99BBEB"/>
    <path d="M102.113 207.305L103.64 211.253L107.055 211.886L104.584 214.958L105.168 219.297L102.113 217.248L99.0585 219.297L99.6417 214.958L97.1707 211.886L100.586 211.253L102.113 207.305" fill="#99BBEB"/>
    <path d="M114.622 207.305L116.15 211.253L119.565 211.886L117.094 214.958L117.677 219.297L114.622 217.248L111.568 219.297L112.151 214.958L109.68 211.886L113.095 211.253L114.622 207.305" fill="#99BBEB"/>
    <path d="M257.206 282.872H351.11V86.558H257.206V282.872Z" fill="#99BBEB"/>
    <path d="M262.122 275.389H348.023V90.558H262.122V275.389Z" fill="white"/>
    <path d="M291.898 130.44C291.898 139.232 296.047 153.42 305.838 152.965C315.632 152.511 317.796 138.986 318.176 135.168C318.554 131.352 291.898 130.44 291.898 130.44" fill="#7A4E34"/>
    <path d="M287.817 164.677C291.049 155.803 296.522 152.963 305.508 152.963C316.206 152.963 321.762 157.908 323.336 165.104C304.177 165.44 287.817 164.677 287.817 164.677" fill="#D54A41"/>
    <path d="M307.283 160.046C306.257 161.974 305.508 162.054 304.395 160.046C303.512 158.448 301.771 154.819 301.771 152.979V134.603C301.771 132.76 302.953 131.253 304.395 131.253H307.283C308.726 131.253 309.908 132.76 309.908 134.603V152.979C309.908 154.819 308.201 158.316 307.283 160.046Z" fill="#F09959"/>
    <path d="M307.283 131.253H304.395C302.953 131.253 301.771 132.76 301.771 134.603V150.998C305.013 152.312 307.972 149.698 309.908 146.75V134.603C309.908 132.76 308.726 131.253 307.283 131.253Z" fill="#E38540"/>
    <path d="M314.567 131.44C314.567 139.816 310.659 146.607 305.838 146.607C301.019 146.607 297.112 139.816 297.112 131.44C297.112 123.065 301.019 116.274 305.838 116.274C310.659 116.274 314.567 123.065 314.567 131.44Z" fill="#F09959"/>
    <path d="M310.636 119.914C309.599 124.578 307.327 124.523 304.158 126.054C300.989 127.586 299.475 129.126 298.438 132.11C297.114 135.915 299.039 147.009 299.039 147.009C299.039 147.009 291.014 139.35 291.941 127.308C292.87 115.263 298.438 110.599 303.676 110.599C308.916 110.599 310.91 114.671 310.91 114.671C310.91 114.671 313.701 114.687 316.34 118.674C319.889 124.035 318.796 137.055 316.34 141.719C313.884 146.384 312.247 147.847 312.301 147.637C312.355 147.428 314.593 136.716 313.394 130.093C312.193 123.468 310.636 119.914 310.636 119.914" fill="#7A4E34"/>
    <path d="M309.119 139.667C309.119 139.667 307.651 142.094 305.838 142.094C304.028 142.094 302.557 139.667 302.557 139.667H309.119Z" fill="white"/>
    <path d="M316.228 188.736H294.189C292.779 188.736 291.625 187.265 291.625 185.466C291.625 183.67 292.779 182.199 294.189 182.199H316.228C317.636 182.199 318.79 183.67 318.79 185.466C318.79 187.265 317.636 188.736 316.228 188.736Z" fill="#99BBEB"/>
    <path d="M320.263 198.778H290.155C288.744 198.778 287.591 197.307 287.591 195.511C287.591 193.712 288.744 192.241 290.155 192.241H320.263C321.673 192.241 322.827 193.712 322.827 195.511C322.827 197.307 321.673 198.778 320.263 198.778Z" fill="#99BBEB"/>
    <path d="M341.828 234.896H268.589C267.77 234.896 267.101 234.042 267.101 232.998C267.101 231.957 267.77 231.103 268.589 231.103H341.828C342.647 231.103 343.316 231.957 343.316 232.998C343.316 234.042 342.647 234.896 341.828 234.896Z" fill="#99BBEB"/>
    <path d="M341.828 243.71H268.589C267.77 243.71 267.101 242.855 267.101 241.814C267.101 240.77 267.77 239.916 268.589 239.916H341.828C342.647 239.916 343.316 240.77 343.316 241.814C343.316 242.855 342.647 243.71 341.828 243.71Z" fill="#99BBEB"/>
    <path d="M341.828 252.526H268.589C267.77 252.526 267.101 251.671 267.101 250.627C267.101 249.586 267.77 248.732 268.589 248.732H341.828C342.647 248.732 343.316 249.586 343.316 250.627C343.316 251.671 342.647 252.526 341.828 252.526Z" fill="#99BBEB"/>
    <path d="M278.832 100.827C278.564 100.827 278.337 101.116 278.337 101.458V163.47C278.337 163.812 278.564 164.101 278.832 164.101H331.585C331.853 164.101 332.08 163.812 332.08 163.47V101.458C332.08 101.116 331.853 100.827 331.585 100.827H278.832ZM331.585 166.856H278.832C277.367 166.856 276.177 165.338 276.177 163.47V101.458C276.177 99.59 277.367 98.072 278.832 98.072H331.585C333.05 98.072 334.24 99.59 334.24 101.458V163.47C334.24 165.338 333.05 166.856 331.585 166.856Z" fill="#99BBEB"/>
    <path d="M286.444 207.305L287.971 211.253L291.386 211.886L288.915 214.958L289.498 219.297L286.444 217.248L283.389 219.297L283.973 214.958L281.502 211.886L284.917 211.253L286.444 207.305" fill="#99BBEB"/>
    <path d="M298.954 207.305L300.482 211.253L303.897 211.886L301.425 214.958L302.009 219.297L298.954 217.248L295.898 219.297L296.483 214.958L294.012 211.886L297.427 211.253L298.954 207.305" fill="#99BBEB"/>
    <path d="M311.463 207.305L312.99 211.253L316.405 211.886L313.934 214.958L314.517 219.297L311.463 217.248L308.409 219.297L308.992 214.958L306.521 211.886L309.936 211.253L311.463 207.305" fill="#99BBEB"/>
    <path d="M323.974 207.305L325.501 211.253L328.916 211.886L326.445 214.958L327.028 219.297L323.974 217.248L320.917 219.297L321.5 214.958L319.029 211.886L322.444 211.253L323.974 207.305" fill="#99BBEB"/>
    <path d="M257.206 280.908H141.76V87.2861H255.77C255.681 89.1595 255.633 91.0439 255.633 92.9449C255.633 94.8265 255.683 96.6944 255.767 98.5486L257.206 99.1436V280.908" fill="#D7E8FA"/>
    <path d="M257.206 99.1436L255.767 98.5486C255.683 96.6945 255.633 94.8266 255.633 92.9449C255.633 91.044 255.681 89.1596 255.77 87.2862H257.206V99.1436" fill="#9DC5FB"/>
    <path d="M141.76 280.908H119.565L119.864 275.389H138.673V90.5591H129.871L130.048 87.2861H141.76V280.908" fill="#99BBEB"/>
    <path d="M138.673 275.389H119.864L121.101 252.526H132.478C133.296 252.526 133.965 251.672 133.965 250.627C133.965 249.586 133.296 248.732 132.478 248.732H121.307L121.579 243.71H132.478C133.296 243.71 133.965 242.856 133.965 241.814C133.965 240.77 133.296 239.916 132.478 239.916H121.784L122.056 234.896H132.478C133.296 234.896 133.965 234.042 133.965 232.998C133.965 231.957 133.296 231.103 132.478 231.103H122.261L129.871 90.5591H138.673V275.389Z" fill="#EBF1FB"/>
    <path d="M132.478 234.896H122.056L122.261 231.103H132.478C133.296 231.103 133.965 231.957 133.965 232.998C133.965 234.042 133.296 234.896 132.478 234.896" fill="#99BBEB"/>
    <path d="M132.478 243.71H121.579L121.784 239.916H132.478C133.296 239.916 133.965 240.77 133.965 241.814C133.965 242.855 133.296 243.71 132.478 243.71" fill="#99BBEB"/>
    <path d="M132.478 252.526H121.102L121.307 248.732H132.478C133.296 248.732 133.965 249.586 133.965 250.627C133.965 251.671 133.296 252.526 132.478 252.526" fill="#99BBEB"/>
    <path d="M267.762 280.908H257.206V87.2861H273.106L273.015 90.5591H262.122V275.389H267.913L267.762 280.908Z" fill="#99BBEB"/>
    <path d="M267.913 275.389H262.122V90.5591H273.015L269.136 231.103H268.589C267.77 231.103 267.101 231.957 267.101 232.998C267.101 234.042 267.77 234.896 268.589 234.896H269.032L268.892 239.916H268.589C267.77 239.916 267.101 240.77 267.101 241.814C267.101 242.856 267.77 243.71 268.589 243.71H268.788L268.65 248.732H268.589C267.77 248.732 267.101 249.586 267.101 250.627C267.101 251.652 267.747 252.495 268.544 252.523L267.913 275.389" fill="#EBF1FB"/>
    <path d="M269.032 234.896H268.589C267.77 234.896 267.101 234.042 267.101 232.998C267.101 231.957 267.77 231.103 268.589 231.103H269.136L269.032 234.896" fill="#99BBEB"/>
    <path d="M268.788 243.71H268.589C267.77 243.71 267.101 242.855 267.101 241.814C267.101 240.77 267.77 239.916 268.589 239.916H268.892L268.788 243.71" fill="#99BBEB"/>
    <path d="M268.544 252.523C267.747 252.495 267.101 251.652 267.101 250.627C267.101 249.586 267.77 248.732 268.589 248.732H268.65L268.544 252.523" fill="#99BBEB"/>
    <path d="M263.392 318.781H135.132V50.6475H263.392V318.781Z" fill="#99BBEB"/>
    <path d="M259.174 308.562H141.849V56.1106H259.174V308.562Z" fill="white"/>
    <path d="M189.578 109.136C189.496 108.825 187.442 93.7852 187.196 87.9391C186.952 82.0902 194.566 81.2555 194.566 81.2555C194.566 81.2555 200.787 76.9742 205.29 79.1672C209.794 81.3602 212.859 85.0491 214.904 89.6444C216.952 94.2398 213.105 108.557 213.105 108.557L189.578 109.136" fill="#2E2D3D"/>
    <path d="M175.461 157.453C175.433 157.205 175.988 151.288 176.007 151.048C177.044 138.587 189.088 135.08 201.104 135.08C215.224 135.08 224.804 138.378 226.333 151.326C226.378 151.706 227.193 157.638 227.152 158.037C200.981 158.495 175.461 157.453 175.461 157.453" fill="#D5E1E8"/>
    <path d="M203.53 144.753C202.13 147.386 201.104 147.497 199.586 144.753C198.378 142.573 194.348 137.595 194.348 135.08L196.002 110.004C196.002 107.489 197.616 105.431 199.586 105.431H203.53C205.502 105.431 207.116 107.489 207.116 110.004L207.885 135.08C207.885 137.595 204.785 142.392 203.53 144.753Z" fill="#F09959"/>
    <path d="M203.53 105.431H199.586C197.616 105.431 196.002 107.489 196.002 110.004L194.566 132.25C198.994 134.05 204.973 130.394 207.617 126.369L207.116 110.004C207.116 107.489 205.502 105.431 203.53 105.431Z" fill="#E38540"/>
    <path d="M188.026 136.909L194.348 151.814C194.348 151.814 197.73 148.263 198.059 148.96C198.387 149.654 197.458 158.439 197.458 158.439C197.458 158.439 204.99 158.572 205.318 158.153C205.647 157.737 203.789 148.61 204.554 148.61C205.318 148.61 207.617 151.257 207.617 151.257L214.676 136.909L213.125 136.427L201.558 144.364L189.19 136.601L188.026 136.909" fill="#BDCCD4"/>
    <path d="M195.255 143.777L199.951 147.794L198.495 158.459L204.826 158.01L203.245 148.309L207.137 143.777L205.308 141.579H197.082L195.255 143.777Z" fill="#D54A41"/>
    <path d="M194.674 129.606L188.868 136.653C188.868 136.653 194.784 150.073 195.11 150.073C195.439 150.073 200.132 142.673 200.132 142.673L203.137 142.606L207.885 148.959L213.399 136.512L207.774 128.909C207.774 128.909 202.971 140.744 202.098 141.022C201.225 141.301 201.219 141.441 200.512 140.744C199.806 140.047 194.674 129.606 194.674 129.606" fill="#D5E1E8"/>
    <path d="M213.479 105.684C213.479 117.126 208.142 126.402 201.558 126.402C194.974 126.402 189.639 117.126 189.639 105.684C189.639 94.2425 194.974 84.9691 201.558 84.9691C208.142 84.9691 213.479 94.2425 213.479 105.684Z" fill="#F09959"/>
    <path d="M190.859 105.364C191.974 108.359 191.609 111.555 190.043 112.503C188.479 113.45 186.306 111.792 185.192 108.797C184.077 105.805 184.442 102.609 186.006 101.662C187.572 100.714 189.745 102.372 190.859 105.364" fill="#F09959"/>
    <path d="M211.721 105.364C210.606 108.359 210.971 111.555 212.535 112.503C214.099 113.45 216.272 111.792 217.386 108.797C218.501 105.805 218.138 102.609 216.572 101.662C215.008 100.714 212.835 102.372 211.721 105.364Z" fill="#F09959"/>
    <path d="M206.845 114.183C206.845 114.183 204.478 119.076 201.558 119.076C198.638 119.076 196.27 114.183 196.27 114.183H206.845" fill="white"/>
    <path d="M194.566 91.5922C199.478 87.2063 201.687 87.9391 205.372 95.1434C209.057 102.348 213.479 102.477 213.479 102.477L214.051 95.0056C214.051 95.0056 208.563 81.4648 201.195 83.2391C193.829 85.0133 189.639 93.4739 189.639 93.4739C189.639 93.4739 189.28 109.326 190.309 109.869C191.337 110.409 191.453 104.75 192.19 103.601C192.929 102.452 191.453 97.0223 192.436 94.518C193.419 92.011 194.566 91.5922 194.566 91.5922" fill="#2E2D3D"/>
    <path d="M210.366 99.7388C212.081 102.133 211.431 111.643 212.332 111.538C213.233 111.434 213.561 102.452 213.315 101.513C213.068 100.574 210.366 99.7388 210.366 99.7388Z" fill="#2E2D3D"/>
    <path d="M228.072 190.207H173.32C171.396 190.207 169.821 188.199 169.821 185.742C169.821 183.287 171.396 181.278 173.32 181.278H228.072C229.999 181.278 231.573 183.287 231.573 185.742C231.573 188.199 229.999 190.207 228.072 190.207" fill="#99BBEB"/>
    <path d="M221.259 203.925H180.135C178.208 203.925 176.634 201.913 176.634 199.459C176.634 197.004 178.208 194.996 180.135 194.996H221.259C223.184 194.996 224.758 197.004 224.758 199.459C224.758 201.913 223.184 203.925 221.259 203.925Z" fill="#99BBEB"/>
    <path d="M250.715 253.253H150.679C149.562 253.253 148.648 252.087 148.648 250.663C148.648 249.239 149.562 248.073 150.679 248.073H250.715C251.832 248.073 252.745 249.239 252.745 250.663C252.745 252.087 251.832 253.253 250.715 253.253Z" fill="#99BBEB"/>
    <path d="M250.715 265.292H150.679C149.562 265.292 148.648 264.127 148.648 262.702C148.648 261.278 149.562 260.113 150.679 260.113H250.715C251.832 260.113 252.745 261.278 252.745 262.702C252.745 264.127 251.832 265.292 250.715 265.292Z" fill="#99BBEB"/>
    <path d="M250.715 277.334H150.679C149.562 277.334 148.648 276.166 148.648 274.742C148.648 273.317 149.562 272.152 150.679 272.152H250.715C251.832 272.152 252.745 273.317 252.745 274.742C252.745 276.166 251.832 277.334 250.715 277.334Z" fill="#99BBEB"/>
    <path d="M164.67 69.6321C164.08 69.6321 163.599 70.2437 163.599 70.9986V155.698C163.599 156.45 164.08 157.062 164.67 157.062H236.723C237.314 157.062 237.794 156.45 237.794 155.698V70.9986C237.794 70.2437 237.314 69.6321 236.723 69.6321H164.67ZM236.723 159.817H164.67C162.889 159.817 161.439 157.971 161.439 155.698V70.9986C161.439 68.7257 162.889 66.8771 164.67 66.8771H236.723C238.505 66.8771 239.954 68.7257 239.954 70.9986V155.698C239.954 157.971 238.505 159.817 236.723 159.817Z" fill="#99BBEB"/>
    <path d="M166.389 215.57L168.475 220.962L173.139 221.827L169.765 226.022L170.562 231.948L166.389 229.149L162.217 231.948L163.014 226.022L159.638 221.827L164.303 220.962L166.389 215.57" fill="#99BBEB"/>
    <path d="M183.474 215.57L185.561 220.962L190.227 221.827L186.85 226.022L187.647 231.948L183.474 229.149L179.303 231.948L180.1 226.022L176.724 221.827L181.39 220.962L183.474 215.57Z" fill="#99BBEB"/>
    <path d="M200.56 215.57L202.646 220.962L207.312 221.827L203.936 226.022L204.733 231.948L200.56 229.149L196.389 231.948L197.186 226.022L193.81 221.827L198.476 220.962L200.56 215.57Z" fill="#99BBEB"/>
    <path d="M217.648 215.57L219.732 220.962L224.398 221.827L221.022 226.022L221.819 231.948L217.648 229.149L213.475 231.948L214.272 226.022L210.896 221.827L215.561 220.962L217.648 215.57Z" fill="#99BBEB"/>
    <path d="M235.005 215.57L237.09 220.962L241.755 221.827L238.379 226.022L239.176 231.948L235.005 229.149L230.832 231.948L231.629 226.022L228.253 221.827L232.919 220.962L235.005 215.57Z" fill="#99BBEB"/>
    <path d="M469.381 310.163H304.797C303.808 310.163 303.007 309.141 303.007 307.879V304.455C303.007 303.193 303.808 302.171 304.797 302.171H469.381C470.37 302.171 471.171 303.193 471.171 304.455V307.879C471.171 309.141 470.37 310.163 469.381 310.163Z" fill="#2E5B9A"/>
    <path d="M511.76 195.053C513.989 205.082 508.544 215.413 502.543 217.584C496.543 219.755 492.262 212.942 490.033 202.914C487.801 192.885 490.858 182.998 496.858 180.827C502.859 178.656 509.529 185.025 511.76 195.053" fill="#F09959"/>
    <path d="M478.12 389.364C478.12 389.364 493.497 419.826 495.575 421.148C497.651 422.473 502.843 422.804 500.895 427.771C498.949 432.738 498.169 452.274 496.352 453.266C494.536 454.26 478.96 456.577 481.295 453.266C483.632 449.954 485.069 451.61 486.248 445.651C487.427 439.692 489.084 428.435 486.877 426.115C484.671 423.798 471.171 402.937 471.171 402.937L478.12 389.364Z" fill="#F09959"/>
    <path d="M400.727 402.444C400.727 402.444 382.037 441.739 378.574 445.271C375.114 448.803 363.69 454.101 373.036 454.982C382.382 455.867 386.881 451.01 392.765 448.803C398.651 446.596 405.92 445.271 403.151 439.529C400.381 433.791 401.531 421.261 407.501 413.316C413.471 405.368 400.727 402.444 400.727 402.444" fill="#F09959"/>
    <path d="M496.115 311.328C496.115 311.328 449.843 309.785 431.498 328.988C420.768 349.738 394.809 410.963 392.789 417.71C394.174 419.476 401.963 422.663 405.425 422.223C415.635 406.693 429.133 393.267 434.501 381.085C441.115 366.076 443.154 358.568 453.885 357.246C464.616 355.921 488.846 351.504 496.115 351.504C503.383 351.504 496.115 311.328 496.115 311.328Z" fill="#6791C9"/>
    <path d="M536.466 455.09H534.04L516.648 362.533H521.983L536.466 455.09" fill="#2E5B9A"/>
    <path d="M463.808 455.09H466.233L486.192 359.263H480.857L463.808 455.09Z" fill="#2E5B9A"/>
    <path d="M522.475 307.287L495.575 313.21C495.575 313.21 459.825 313.629 443.484 317.51C428.617 321.042 426.425 342.586 443.484 372.255C453.174 389.11 461.367 402.552 478.12 417.71C482.382 413.72 484.012 412.211 485.19 402.607C483.978 400.485 480.839 387.215 479.865 384.617C470.597 359.91 458.228 350.926 458.056 348.493C460.134 344.19 513.069 370.93 523.592 355.202C533.643 340.181 522.475 307.287 522.475 307.287" fill="#75A1DE"/>
    <path d="M523.592 229.607C516.507 228.337 509.293 230.056 502.543 236.287C496.646 243.955 489.974 256.597 490.382 277.455C490.901 303.945 487.168 305.645 491.063 312.929C507.304 321.483 535.079 358.235 528.539 318.836C523.802 290.305 538.926 269.039 526.726 237.392C525.733 234.816 524.491 232.318 523.592 229.607" fill="#F37168"/>
    <path d="M490.378 287.423C490.063 301.234 488.533 305.3 489.702 309.631C496.322 310.494 508.433 313.871 511.459 319.277C514.922 325.456 518.384 326.34 516.769 321.778C515.153 317.216 510.883 310.742 517.46 288.52C524.037 266.295 527.152 251.286 520.691 235.833L490.378 287.423Z" fill="#D54A41"/>
    <path d="M523.592 229.607C519.231 216.432 518.16 201.632 518.16 201.632L506.736 205.936C506.736 205.936 513.226 224.477 506.997 231.1C505.671 232.508 504.135 234.216 502.543 236.288C509.293 230.056 516.507 228.337 523.592 229.607" fill="#F09959"/>
    <path d="M518.503 205.14C517.827 204.371 516.98 203.415 516.091 202.412L506.775 205.922L506.755 205.988C506.98 206.644 509.351 213.705 509.665 220.499C512.44 218.353 515.481 214.848 518.957 208.729C518.769 207.371 518.62 206.162 518.503 205.14Z" fill="#E38540"/>
    <path d="M515.564 233.75C503.798 238.996 505.103 254.804 494.277 278.117C488.672 290.183 483.468 290.002 483.468 290.002C483.468 290.002 470.327 290.137 454.433 287.657C444.48 286.106 443.847 289.886 450.77 293.04C464.73 299.407 479.219 306.262 490.901 304.606C502.584 302.95 522.564 264.934 523.592 255.038C525.018 241.351 521.489 231.105 515.564 233.75" fill="#F09959"/>
    <path d="M509.505 366.39C508.772 366.39 508.025 366.379 507.256 366.354C497.668 366.054 491.14 364.362 485.898 363.001C479.774 361.414 476.401 360.541 472.476 362.932C470.968 363.85 469.165 363.037 468.443 361.114C467.724 359.194 468.361 356.891 469.869 355.973C475.621 352.466 480.438 353.714 487.101 355.441C492.112 356.742 498.35 358.359 507.405 358.643C517.54 358.965 523.717 357.048 526.849 352.618C529.64 348.67 530.457 342.038 529.42 331.748C529.066 328.225 528.709 325.296 528.396 322.712C527.513 315.419 526.927 310.601 527.651 303.154C528.323 296.239 530.117 287.029 534.278 269.166C534.753 267.124 536.433 265.962 538.036 266.568C539.637 267.174 540.55 269.32 540.075 271.361C532.325 304.647 532.718 307.887 534.373 321.533C534.692 324.164 535.053 327.145 535.418 330.765C536.697 343.454 535.403 352.042 531.342 357.783C527.16 363.698 520.374 366.39 509.505 366.39Z" fill="#2E5B9A"/>
    <path d="M401.999 435.562C389.597 443.298 382.92 447.734 378.944 447.31C378.006 447.21 377.228 447.089 376.576 446.957C372.152 450.293 365.091 454.233 373.036 454.982C382.382 455.867 386.882 451.01 392.765 448.803C398.651 446.596 405.92 445.271 403.151 439.529C402.619 438.43 402.235 437.08 401.999 435.562Z" fill="#D54A41"/>
    <path d="M496.927 421.795C496.623 434.32 495.273 446.731 489.268 449.075C487.676 449.698 486.224 449.786 484.941 449.569C483.995 451.059 482.844 451.076 481.295 453.266C478.96 456.577 494.536 454.26 496.353 453.266C498.169 452.274 498.949 432.738 500.895 427.771C502.496 423.691 499.277 422.74 496.927 421.795" fill="#D54A41"/>
    <path d="M449.152 303.264H409.752C408.574 303.264 407.505 302.394 407.008 301.033L391.087 257.325C390.383 255.393 391.039 253.101 392.554 252.203C394.07 251.305 395.867 252.143 396.571 254.074L411.68 295.55H449.152C450.824 295.55 452.176 297.278 452.176 299.407C452.176 301.54 450.824 303.264 449.152 303.264" fill="#75A1DE"/>
    <path d="M457.397 288.095C449.435 287.949 441.538 281.897 437.616 282.778C433.693 283.663 420.886 294.994 422.502 295.435C424.116 295.876 434.27 289.164 434.615 289.062C434.963 288.96 437.155 293.71 442.577 295.457C448.001 297.201 442.616 290.272 459.425 296.749C470.357 300.959 457.397 288.095 457.397 288.095" fill="#F09959"/>
    <path d="M522.422 217.584L523.592 229.607C523.592 229.607 513.291 230.389 508.163 234.067C503.038 237.745 495.471 248.376 495.471 248.376L501.653 234.803L502.543 226.119L522.422 217.584" fill="#F2E5DE"/>
    <path d="M518.037 232.301C510.386 230.472 506.846 239.219 501.884 253.493C496.923 267.769 488.453 285.106 486.769 287.341C485.086 289.578 458.384 287.341 458.384 287.341C458.384 287.341 457.576 297.201 458.384 298.38C459.192 299.556 463.808 299.407 463.808 299.407C463.808 299.407 465.655 301.289 467.385 302.777C469.115 304.264 483.768 307.061 490.577 306.62C497.385 306.179 503.614 305.444 504.537 304.118C505.461 302.793 524.037 266.295 525.191 253.198C526.344 240.1 521.942 233.235 518.037 232.301" fill="#F2E5DE"/>
    <path d="M495.471 172.259C480.999 173.14 483.269 200.911 483.269 200.911C483.269 200.911 487.028 202.39 494.903 200.734C494.298 197.753 494.558 190.139 494.558 190.139C494.558 190.139 495.471 196.318 496.633 200.07C498.299 201.046 500.182 200.183 503.383 199.194C505.029 208.019 509.675 211.746 512.855 213.022C516.371 214.432 520.091 216.113 524.245 213.462C528.398 210.815 526.115 183.736 523.908 178.292C520.598 170.118 515.095 162.801 505.576 166.666C500.802 168.603 495.471 172.259 495.471 172.259" fill="#303C60"/>
    <path d="M520.64 205.236L526.556 216.259C526.556 216.259 519.998 237.158 539.071 246.624C554.007 254.041 552.247 267.105 545.499 280.244C538.749 293.382 549.536 304.857 549.536 304.857C549.536 304.857 551.182 290.302 565.695 287.555C585.483 283.809 591.086 249.925 576.305 232.979C564.075 218.959 560.353 230.571 552.074 217.989C543.797 205.407 528.167 213.906 528.167 213.906L522.439 203.25L520.64 205.236" fill="#303C60"/>
    <path d="M583.113 267.116C583.027 267.116 582.941 267.088 582.861 267.033C582.606 266.854 582.513 266.447 582.651 266.121C587.628 254.523 583.567 240.472 581.526 236.665C581.308 236.263 581.102 235.855 580.886 235.42C578.88 231.428 576.383 226.455 563.058 223.397C559.85 222.659 557.252 220.226 554.502 217.65C548.819 212.33 542.38 206.302 528.387 214.515C528.124 214.669 527.811 214.523 527.69 214.187C527.569 213.848 527.683 213.451 527.947 213.294C542.501 204.751 549.208 211.03 555.124 216.57C557.774 219.049 560.276 221.394 563.246 222.074C577.02 225.237 579.655 230.483 581.772 234.698C581.986 235.119 582.187 235.522 582.394 235.907C584.532 239.897 588.786 254.617 583.576 266.766C583.478 266.989 583.299 267.116 583.113 267.116" fill="#303C60"/>
    <path d="M517.479 216.531C516.533 216.531 515.507 216.427 514.406 216.217C509.343 215.248 502.549 211.578 502.018 190.971C502.007 190.599 502.236 190.29 502.526 190.276C502.822 190.271 503.059 190.555 503.07 190.926C503.288 199.42 504.61 205.707 506.997 209.605C508.809 212.57 511.213 214.25 514.561 214.889C519.248 215.785 522.354 214.68 523.793 211.608C523.942 211.291 524.266 211.187 524.514 211.377C524.763 211.567 524.845 211.98 524.696 212.297C523.376 215.115 520.955 216.531 517.479 216.531" fill="#303C60"/>
    <path d="M320.647 455.09H324.535L339.662 307.615H331.108L320.647 455.09Z" fill="#2E5B9A"/>
    <path d="M452.591 455.09H448.703L433.576 307.615H442.132L452.591 455.09Z" fill="#2E5B9A"/>
    <path d="M605.078 330.605C611.804 338.44 608.88 346.273 603.907 360.825C598.935 375.374 598.058 429.093 598.058 429.093L602.154 428.347C602.154 428.347 601.568 373.134 607.126 358.213C612.681 343.289 615.023 335.828 619.995 340.677C624.967 345.529 605.078 330.605 605.078 330.605" fill="#74B570"/>
    <path d="M601.383 320.461C602.199 315.819 607.05 310.794 613.539 306.534C612.573 313.381 609.48 324.577 612.681 326.875C616.999 329.971 613.103 314.339 614.768 305.747C620.861 301.953 628.19 298.851 634.938 297.308C634.929 297.341 634.921 297.369 634.912 297.402C631.108 309.714 626.136 314.563 628.184 316.428C629.724 317.833 634.741 303.611 641.366 296.322C646.341 295.983 650.546 296.842 653.037 299.355C656.884 303.239 659.465 306.686 655.596 318.513C653.387 320.53 650.522 321.973 647.196 322.398C638.422 323.516 634.327 323.891 640.47 327.621C643.477 329.448 648.518 327.517 652.607 326.343C651.281 329.459 649.65 332.985 647.669 337.005C646.414 339.55 645.03 341.765 643.559 343.677C640.731 344.369 638.264 344.377 636.96 343.664C632.864 341.424 622.334 334.335 619.701 337.319C617.127 340.242 639.204 342.091 637.673 349.515C626.972 357.378 614.727 353.637 612.563 346.416C609.655 336.718 598.922 334.437 601.383 320.461" fill="#9CD499"/>
    <path d="M623.505 373.509C611.804 362.315 599.812 372.762 593.671 384.699C587.528 396.637 591.915 423.498 591.915 423.498C591.915 423.498 594.254 423.498 594.254 422.38C594.254 421.261 587.82 390.669 603.03 376.864C612.545 368.23 619.41 372.387 620.287 376.492C621.164 380.594 616.485 388.058 616.485 388.058L623.505 373.509Z" fill="#74B570"/>
    <path d="M596.596 350.502C608.295 350.502 612.098 373.633 608.88 387.063C605.662 400.491 601.275 425.487 601.275 425.487L598.35 421.757C598.35 421.757 609.465 386.688 606.832 371.021C604.199 355.35 597.764 352.739 596.596 352.739C595.425 352.739 596.596 350.502 596.596 350.502Z" fill="#9CD499"/>
    <path d="M606.409 387.165C607.232 385.777 608.247 384.628 609.487 383.865C609.325 384.978 609.124 386.047 608.88 387.063C607.413 393.182 605.705 401.7 604.279 409.164C604.149 408.208 603.951 406.734 603.642 404.464C603.568 403.926 603.512 403.342 603.471 402.725C604.618 397.755 605.7 392.342 606.409 387.165Z" fill="#74B570"/>
    <path d="M609.608 387.278C631.836 375.341 620.125 358.957 639.723 369.776C641.103 370.539 642.785 372.462 644.468 375.109C642.723 375.74 640.61 376.195 638.26 375.746C632.409 374.627 634.456 380.594 644.11 382.088C645.928 382.369 647.406 382.757 648.633 383.305C653.231 394.571 655.303 409.392 645.572 414.544C643.654 415.561 641.284 416.139 638.645 416.357C635.642 413.313 639.379 395.697 634.75 398.13C630.305 400.463 636.141 413.23 635.342 416.445C630.955 416.343 626.097 415.431 621.455 413.963C619.619 412.652 618.218 410.891 617.786 408.574C616.323 400.742 625.974 395.89 626.268 389.176C626.536 383.002 622.73 402.758 612.645 405.665C603.525 400.232 599.216 392.86 609.608 387.278" fill="#9CD499"/>
    <path d="M593.769 366.169C596.108 359.827 589.965 358.337 590.259 363.186C590.518 367.483 590.546 377.93 587.09 380.773C581.13 379.95 573.022 376.886 566.894 372.219C566.816 371.588 566.889 370.938 567.151 370.274C569.784 363.558 586.749 357.962 581.482 355.725C577.29 353.943 569.942 364.464 564.021 369.765C560.466 366.324 558.083 362.221 558.083 357.643C558.083 351.444 563.989 344.43 571.624 341.074C575.061 341.518 578.251 343.914 583.239 347.518C590.604 352.841 588.9 344.234 581.936 339.126C587.947 339.523 593.941 342.799 598.363 350.626C598.363 350.626 597.944 353.97 600.719 359.147C608.295 373.263 599.553 381.506 589.105 380.969C589.697 377.25 592.151 370.552 593.769 366.169" fill="#9CD499"/>
    <path d="M622.801 372.875C628.521 378.512 634.876 385.104 642.675 389.581C650.475 394.058 648.916 408.649 648.916 408.649C648.916 408.649 650.084 396.047 643.585 391.736C637.085 387.424 632.796 382.286 627.856 381.289C622.913 380.294 620.185 379.3 620.185 379.3C620.185 379.3 621.745 375.321 620.833 373.828C619.924 372.335 622.801 372.875 622.801 372.875" fill="#74B570"/>
    <path d="M650.996 306.672C630.065 313.802 614.725 330.883 611.865 335.027C609.005 339.173 609.005 340.333 609.005 340.333L611.215 345.639L612.254 344.978C612.254 344.978 610.565 340.498 614.984 334.696C622.607 324.687 631.884 316.789 638.256 313.306C644.626 309.824 650.996 306.672 650.996 306.672" fill="#74B570"/>
    <path d="M593.22 454.442H601.216C606.903 454.442 611.513 448.563 611.513 441.309V417.875H582.923V441.309C582.923 448.563 587.535 454.442 593.22 454.442" fill="#75A1DE"/>
    <path d="M611.513 424.633H582.923V422.065H611.513V424.633Z" fill="white"/>
    <path d="M611.513 428.256H582.923V426.746H611.513V428.256Z" fill="white"/>
    <path d="M71.7181 422.539H78.5396C79.9801 422.539 81.1478 421.051 81.1478 419.214V412.048C81.1478 410.211 79.9801 408.723 78.5396 408.723H71.7181C70.2776 408.723 69.1099 410.211 69.1099 412.048V419.214C69.1099 421.051 70.2776 422.539 71.7181 422.539Z" fill="#9EC8FF"/>
    <path d="M49.8308 422.539H56.6523C58.0928 422.539 59.2605 421.051 59.2605 419.214V412.048C59.2605 410.211 58.0928 408.723 56.6523 408.723H49.8308C48.3903 408.723 47.2226 410.211 47.2226 412.048V419.214C47.2226 421.051 48.3903 422.539 49.8308 422.539Z" fill="#9EC8FF"/>
    <path d="M27.9435 422.539H34.765C36.2055 422.539 37.3732 421.051 37.3732 419.214V412.048C37.3732 410.211 36.2055 408.723 34.765 408.723H27.9435C26.503 408.723 25.3353 410.211 25.3353 412.048V419.214C25.3353 421.051 26.503 422.539 27.9435 422.539Z" fill="#9EC8FF"/>
    <path d="M650.823 165.027V156.326C650.823 154.489 649.656 152.998 648.216 152.998H642.597C641.157 152.998 639.99 154.489 639.99 156.326V165.027C639.99 166.864 641.157 168.352 642.597 168.352H648.216C649.656 168.352 650.823 166.864 650.823 165.027Z" fill="#9EC8FF"/>
    <path d="M650.823 192.943V184.243C650.823 182.405 649.656 180.915 648.216 180.915H642.597C641.157 180.915 639.99 182.405 639.99 184.243V192.943C639.99 194.781 641.157 196.268 642.597 196.268H648.216C649.656 196.268 650.823 194.781 650.823 192.943Z" fill="#9EC8FF"/>
    <path d="M650.823 220.86V212.159C650.823 210.322 649.656 208.831 648.216 208.831H642.597C641.157 208.831 639.99 210.322 639.99 212.159V220.86C639.99 222.697 641.157 224.185 642.597 224.185H648.216C649.656 224.185 650.823 222.697 650.823 220.86Z" fill="#9EC8FF"/>
    </svg>
