<svg width="644" height="457" viewBox="0 0 644 457" fill="none" xmlns="http://www.w3.org/2000/svg">
    <path d="M190.056 302.402C183.864 304.13 176.231 305.088 167.801 300.939C158.745 296.472 152.803 288.043 147.612 280.288C140.81 270.115 134.536 261.534 122.694 256.172C114.16 252.307 105.072 250.146 96.9483 243.811C87.4964 236.441 83.0334 226.063 81.5725 217.421C79.8832 207.347 81.6725 198.225 77.5744 187.489C75.0902 180.993 70.7897 175.249 64.322 170.226C59.6379 166.595 54.6095 163.581 49.9548 159.918C34.9291 148.104 30.1436 131.574 37.9105 124.022C42.8105 115.134 56.5412 113.34 71.7376 122.172C83.8943 129.237 90.6531 140.445 99.3207 150.528C108.691 161.438 118.795 165.827 130.67 169.684C138.749 172.305 147.347 174.848 155.165 180.567C163.024 186.311 167.828 194.058 171.726 201.574C176.501 210.756 180.697 221.511 190.787 228.686C196.197 232.527 202.133 234.791 207.503 238.822C211.153 241.571 214.367 244.87 217.035 248.374C231.415 267.252 225.612 283.802 214.266 291.871C207.493 296.7 198.803 299.961 190.056 302.402" fill="#C2D7F1"/>
    <path d="M61.8421 135.812C74.6783 151.143 87.5994 166.427 100.604 181.66C92.4442 178.117 84.2838 174.575 76.1234 171.033C74.5576 170.353 73.5285 172.469 75.0813 173.142L103.281 185.384C103.509 185.483 103.719 185.509 103.918 185.503C114.841 198.276 125.839 211.006 136.878 223.711C122.204 219.698 107.53 215.685 92.856 211.673C91.1856 211.215 90.1352 213.323 91.814 213.783C107.475 218.065 123.137 222.348 138.799 226.632C139.037 226.697 139.257 226.699 139.464 226.672C149.702 238.441 160.03 250.155 170.364 261.865C158.316 258.144 146.267 254.423 134.218 250.704C132.564 250.191 131.519 252.301 133.175 252.813C146.548 256.942 159.921 261.073 173.294 265.202C180.225 273.042 187.178 280.87 194.146 288.686L157.868 277.143C156.219 276.618 155.175 278.728 156.826 279.253C169.055 283.144 181.285 287.036 193.514 290.927C194.338 291.19 194.972 290.783 195.229 290.256C195.354 290.3 195.486 290.336 195.626 290.351C203.661 299.357 211.722 308.347 219.828 317.307C220.891 318.483 223.048 317.076 221.986 315.901C213.787 306.837 205.634 297.744 197.508 288.636C200.445 277.961 202.599 267.198 203.951 256.301C204.132 254.843 201.409 254.565 201.228 256.028C199.967 266.189 197.984 276.233 195.345 286.2C188.854 278.919 182.374 271.631 175.918 264.328C175.936 263.917 175.698 263.511 175.088 263.323L175.017 263.302C174.713 262.959 174.413 262.612 174.111 262.269C175.59 251.27 177.07 240.271 178.55 229.272C178.745 227.814 176.024 227.536 175.826 228.998C174.457 239.179 173.088 249.361 171.717 259.542C161.495 247.966 151.287 236.382 141.166 224.746C142.614 212.859 144.064 200.973 145.512 189.086C145.689 187.627 142.967 187.348 142.79 188.812C141.442 199.866 140.095 210.92 138.748 221.975C127.526 209.06 116.346 196.12 105.245 183.132C105.391 182.984 105.508 182.808 105.542 182.568L107.964 165.466C108.17 164.008 105.448 163.732 105.24 165.192C104.514 170.327 103.786 175.462 103.059 180.597C89.9552 165.25 76.9342 149.853 64.0003 134.406C62.99 133.198 60.8359 134.61 61.8421 135.812" fill="#FDE5E6"/>
    <path d="M137.842 346.404C123.531 342.793 108.997 339.151 93.9175 338.626C78.8365 338.102 62.8728 341.089 52.1059 349.128C41.3383 357.167 37.4284 370.892 45.7407 380.414C55.6198 391.731 76.5228 392.919 94.4576 393.348C119.546 393.949 147.767 396.528 163.059 411.561C170.893 419.263 174.144 429.313 182.68 436.576C197.28 448.997 222.908 449.653 244.205 445.428C265.502 441.205 285.516 433.103 307.363 431.093C331.737 428.85 355.983 434.374 380.264 437.03C463.762 446.166 548.374 426.685 599.499 375.715C607.022 368.214 614.052 358.525 609.316 349.846C603.288 338.794 587.893 330.82 572.105 331.517C533.495 333.221 494.668 334.163 456.209 331.203C421.807 328.555 388.234 321.743 354.093 317.619C273.157 307.843 215.39 326.036 137.842 346.404" fill="#C2D7F1"/>
    <path d="M526.926 291.967C530.716 284.441 534.581 276.562 533.864 268.424C533.2 260.885 533.058 252.482 530.27 245.286C527.479 238.085 526.611 230.439 527.152 222.888C528.851 199.213 540.883 200.193 545.417 201.374C549.873 202.536 552.543 206.025 553.917 212.037C555.021 216.87 555.229 240.141 563.503 235.618C573.081 230.383 568.291 206.678 568.432 198.556C568.644 186.407 572.108 173.006 581.465 163.375C586.076 158.628 593.418 154.639 600.425 156.456C604.617 157.542 607.747 160.523 609.786 163.76C615.923 173.508 613.624 184.756 610.552 194.941C609.267 199.2 596.186 219.807 609.497 216.255C612.677 215.406 636.564 194.201 642.637 212.207C644.776 218.547 637.32 226.294 625.066 236.359C617.413 242.647 588.046 260.265 590.982 267.206C592.247 270.195 595.85 269.358 599.575 268.52C604.496 267.411 609.628 266.304 609.848 274.034C610.062 281.64 599.286 288.525 591.823 292.365C588.271 294.192 584.294 295.426 580.893 297.441C576.859 299.832 572.331 304.947 576.471 308.832C578.28 310.528 581.276 311.105 583.015 312.851C584.782 314.623 584.818 317.268 583.735 319.386C582.651 321.505 580.623 323.185 578.515 324.674C564.984 334.224 546.482 337.869 528.752 337.245C511.021 336.62 493.832 332.087 477.24 326.851L526.926 291.967Z" fill="#96B0E1"/>
    <path d="M542.834 306.705C542.683 306.705 542.53 306.668 542.397 306.59C542.058 306.39 541.98 305.998 542.221 305.716C544.664 302.863 546.99 299.948 549.207 296.98C549.129 297.113 549.105 297.269 549.156 297.423C549.246 297.702 549.55 297.886 549.882 297.886C549.947 297.886 550.014 297.878 550.081 297.863C550.175 297.842 550.269 297.819 550.364 297.798C548.168 300.732 545.864 303.618 543.448 306.442C543.301 306.614 543.069 306.705 542.834 306.705V306.705ZM549.282 296.879C554.946 289.288 559.889 281.367 564.203 273.355C564.318 273.458 564.432 273.559 564.548 273.66C564.696 273.787 564.893 273.851 565.092 273.851C565.279 273.851 565.467 273.794 565.613 273.676C565.913 273.437 565.922 273.04 565.634 272.79C565.377 272.569 565.121 272.341 564.869 272.109C568.971 264.365 572.489 256.546 575.508 248.866C575.478 248.972 575.478 249.084 575.519 249.194C575.615 249.467 575.915 249.643 576.24 249.643C576.311 249.643 576.383 249.634 576.456 249.617C576.582 249.585 576.71 249.553 576.838 249.52C570.688 265.107 562.482 281.252 551.524 296.231C550.918 296.373 550.305 296.514 549.683 296.654C549.517 296.692 549.38 296.773 549.282 296.879V296.879ZM575.543 248.779C590.328 211.12 593.079 176.802 593.446 170.866C593.484 170.267 593.498 169.961 593.498 169.96C593.513 169.623 593.847 169.358 594.251 169.358C594.26 169.358 594.269 169.358 594.279 169.358C594.695 169.371 595.019 169.662 595.004 170.006C594.993 170.041 593.361 206.867 577.409 248.057C576.948 248.183 576.486 248.303 576.026 248.417C575.799 248.473 575.627 248.61 575.543 248.779" fill="#AFC3E9"/>
    <path d="M576.24 249.643C575.915 249.643 575.615 249.468 575.519 249.194C575.478 249.084 575.478 248.972 575.508 248.866C575.517 248.838 575.529 248.807 575.543 248.779C575.627 248.61 575.799 248.473 576.026 248.417C576.486 248.303 576.948 248.183 577.409 248.057C588.019 245.17 599.041 239.191 608.155 233.281C617.669 227.115 625.119 221.03 627.949 218.636C628.759 217.952 629.187 217.574 629.187 217.573C629.336 217.443 629.537 217.376 629.737 217.376C629.922 217.376 630.108 217.433 630.252 217.547C630.555 217.783 630.57 218.179 630.285 218.431C630.27 218.443 623.271 224.632 613.055 231.621C602.936 238.54 589.682 246.251 576.838 249.52C576.71 249.553 576.582 249.585 576.456 249.617C576.383 249.634 576.311 249.643 576.24 249.643" fill="#AFC3E9"/>
    <path d="M565.092 273.851C564.893 273.851 564.696 273.787 564.548 273.66C564.432 273.559 564.318 273.458 564.203 273.355C555.731 265.819 550.316 253.646 546.874 241.77C543.393 229.732 541.974 218.002 541.665 211.729C541.648 211.383 541.972 211.091 542.388 211.078C542.397 211.078 542.408 211.076 542.418 211.076C542.82 211.076 543.155 211.341 543.17 211.678C543.474 217.865 544.887 229.545 548.338 241.477C551.674 253.041 556.958 264.842 564.869 272.109C565.121 272.341 565.377 272.569 565.634 272.79C565.922 273.04 565.913 273.437 565.613 273.676C565.467 273.794 565.279 273.851 565.092 273.851" fill="#AFC3E9"/>
    <path d="M549.882 297.886C549.55 297.886 549.246 297.702 549.156 297.423C549.105 297.269 549.129 297.113 549.207 296.98C549.228 296.945 549.254 296.911 549.282 296.879C549.38 296.773 549.517 296.692 549.683 296.654C550.305 296.514 550.918 296.373 551.524 296.231C586.682 288.01 597.462 278.222 598.013 277.706L598.036 277.685C598.185 277.54 598.396 277.465 598.61 277.465C598.782 277.465 598.955 277.513 599.096 277.614C599.414 277.838 599.452 278.232 599.184 278.497C599.075 278.604 588.168 289.189 550.364 297.798C550.269 297.819 550.176 297.842 550.081 297.863C550.014 297.878 549.947 297.886 549.882 297.886" fill="#AFC3E9"/>
    <path d="M557.534 318.785C551.298 318.785 544.074 318.034 536.842 315.645C536.455 315.518 536.267 315.153 536.42 314.832C536.538 314.587 536.821 314.437 537.119 314.437C537.212 314.437 537.306 314.452 537.398 314.482C544.409 316.798 551.442 317.533 557.534 317.533C557.537 317.533 557.538 317.533 557.541 317.533C566.678 317.533 573.69 315.876 575.266 315.469C575.491 315.411 575.598 315.38 575.598 315.38H575.6C575.68 315.357 575.761 315.347 575.841 315.347C576.156 315.347 576.448 315.511 576.555 315.772C576.689 316.1 576.478 316.454 576.083 316.566C576.034 316.58 568.231 318.784 557.534 318.785" fill="#AFC3E9"/>
    <path d="M502.859 332.042C502.859 332.042 438.182 332.042 422.503 332.042C406.821 332.042 409.367 316.581 452.989 323.46C442.285 319.393 442.222 313.947 443.132 312.494C443.966 311.158 447.021 310.301 448.824 310.429C454.373 310.826 458.585 313.653 463.445 315.911C454.65 311.155 449.184 302.426 449.541 293.707C449.637 291.31 450.261 288.742 452.382 287.113C454.763 285.285 458.655 284.067 461.835 284.592C467.722 285.565 478.543 293.736 482.855 297.206C460.876 280.397 452.507 253.906 466.579 247.864C490.268 237.692 508.164 295.319 508.164 295.319C508.164 295.319 496.379 252.015 516.144 251.761C535.908 251.508 519.839 302.068 519.839 302.068L502.859 332.042" fill="#96B0E1"/>
    <path d="M109.477 318.784C105.902 311.686 102.257 304.254 102.933 296.579C103.559 289.469 103.693 281.545 106.324 274.758C108.956 267.967 109.774 260.755 109.264 253.632C107.662 231.303 96.3134 232.226 92.0365 233.341C87.8347 234.437 85.3163 237.728 84.0208 243.398C82.9794 247.957 82.784 269.905 74.9783 265.638C65.9455 260.701 70.4631 238.343 70.3301 230.683C70.1307 219.225 66.8628 206.586 58.0387 197.502C53.6898 193.026 46.7651 189.263 40.1575 190.977C36.2017 192.002 33.2503 194.813 31.328 197.866C25.5408 207.06 27.7065 217.669 30.605 227.274C31.817 231.291 44.1538 250.727 31.5993 247.376C28.6015 246.577 6.07263 226.577 0.344072 243.56C-1.67411 249.539 5.35833 256.846 16.9167 266.339C24.1339 272.267 51.8316 288.884 49.0628 295.431C47.8701 298.251 44.4709 297.461 40.9583 296.669C36.3159 295.625 31.4752 294.58 31.2693 301.871C31.0668 309.045 41.2308 315.538 48.2708 319.161C51.6193 320.884 55.3709 322.046 58.5783 323.948C62.3821 326.203 66.6527 331.026 62.7487 334.69C61.043 336.289 58.2175 336.835 56.5764 338.481C54.9108 340.153 54.8755 342.649 55.8981 344.646C56.9207 346.643 58.8312 348.229 60.8217 349.633C73.5821 358.639 91.0321 362.077 107.755 361.488C124.478 360.9 140.69 356.625 156.338 351.685L109.477 318.784" fill="#96B0E1"/>
    <path d="M70.6607 297.274C67.5293 291.095 64.7816 284.893 62.3693 278.78C62.4968 278.813 62.6246 278.845 62.7522 278.876C62.824 278.895 62.8965 278.902 62.9676 278.902C63.2919 278.902 63.5919 278.727 63.6889 278.455C63.7272 278.348 63.7296 278.239 63.7013 278.136C66.0431 284.092 68.7056 290.138 71.7293 296.158L70.6607 297.274V297.274ZM63.6595 278.031C63.5747 277.865 63.4053 277.731 63.1818 277.676C62.721 277.562 62.2592 277.442 61.7967 277.315C46.7733 238.487 45.2376 203.795 45.2271 203.76C45.2111 203.414 45.536 203.123 45.9513 203.11C45.9614 203.11 45.9707 203.11 45.9802 203.11C46.3833 203.11 46.7168 203.375 46.7321 203.712C46.7321 203.713 46.7451 204.001 46.7809 204.566C46.8163 205.13 46.8745 205.964 46.9646 207.047C47.1446 209.212 47.4523 212.365 47.9625 216.314C48.9827 224.213 50.812 235.299 54.0481 248.025C56.4189 257.348 59.545 267.551 63.6595 278.031" fill="#AFC3E9"/>
    <path d="M62.9676 278.902C62.8965 278.902 62.824 278.895 62.7522 278.876C62.6246 278.845 62.4969 278.813 62.3693 278.78C50.2513 275.691 37.7587 268.419 28.2173 261.897C18.5806 255.304 11.9777 249.465 11.9636 249.452C11.6782 249.201 11.6929 248.805 11.996 248.568C12.1413 248.454 12.3266 248.398 12.512 248.398C12.712 248.398 12.9121 248.464 13.0604 248.595C13.0621 248.596 13.4646 248.953 14.2277 249.597C14.9903 250.242 16.1088 251.171 17.5262 252.304C20.3611 254.572 24.3939 257.658 29.1741 260.93C38.3606 267.22 50.3314 274.181 61.7967 277.316C62.2592 277.442 62.721 277.562 63.1818 277.676C63.4053 277.731 63.5747 277.865 63.6596 278.031C63.6772 278.064 63.6913 278.1 63.7013 278.136C63.7296 278.239 63.7272 278.348 63.6889 278.455C63.5919 278.727 63.2919 278.902 62.9676 278.902" fill="#AFC3E9"/>
    <path d="M85.5611 281.723C86.9969 278.281 88.2159 274.707 89.2398 271.156C92.4942 259.907 93.8274 248.891 94.1135 243.057C94.1299 242.721 94.4635 242.458 94.8654 242.458C94.876 242.458 94.886 242.458 94.8966 242.458C95.3126 242.471 95.6356 242.763 95.6186 243.109C95.3266 249.029 93.9875 260.092 90.7049 271.449C89.9824 273.941 89.1675 276.449 88.2495 278.917L85.5611 281.723" fill="#AFC3E9"/>
    <path d="M54.683 313.949C44.8381 309.542 41.3571 306.166 41.2942 306.103C41.0247 305.839 41.0636 305.444 41.3802 305.22C41.5219 305.12 41.6956 305.071 41.8679 305.071C42.0809 305.071 42.2927 305.146 42.4423 305.291L42.4621 305.31L42.5445 305.385C42.6204 305.454 42.7405 305.559 42.9069 305.697C43.2412 305.974 43.7637 306.383 44.5051 306.902C45.9885 307.941 48.3473 309.422 51.8235 311.159C52.9702 311.731 54.2382 312.333 55.6368 312.954L54.683 313.949" fill="#AFC3E9"/>
    <path d="M80.6086 344.112C70.5137 344.112 63.1506 342.032 63.1006 342.018V342.019C62.707 341.908 62.4957 341.552 62.6299 341.224C62.7364 340.963 63.0287 340.799 63.3429 340.799C63.4231 340.799 63.5049 340.809 63.5854 340.833C63.5854 340.833 63.6867 340.862 63.8984 340.916C64.1108 340.971 64.4275 341.05 64.8393 341.144C65.6637 341.334 66.8703 341.588 68.3861 341.843C71.4175 342.351 75.6857 342.861 80.6086 342.861C80.6092 342.861 80.6092 342.861 80.6098 342.861C86.063 342.861 92.3147 342.236 98.5882 340.303L99.4614 341.369C92.8613 343.451 86.2991 344.112 80.6086 344.112Z" fill="#AFC3E9"/>
    <path d="M132.175 356.581C132.175 356.581 193.177 356.581 207.964 356.581C222.753 356.581 220.353 341.999 179.212 348.488C189.304 344.651 189.365 339.514 188.508 338.144C187.721 336.884 184.84 336.076 183.139 336.197C177.906 336.57 173.933 339.237 169.349 341.368C177.644 336.882 182.799 328.649 182.464 320.427C182.371 318.165 181.784 315.742 179.785 314.207C177.537 312.483 173.868 311.334 170.868 311.829C165.315 312.746 155.11 320.453 151.042 323.725C171.771 307.87 179.666 282.888 166.394 277.189C144.052 267.594 127.174 321.945 127.174 321.945C127.174 321.945 138.287 281.104 119.647 280.865C101.006 280.624 116.162 328.31 116.162 328.31" fill="#96B0E1"/>
    <path d="M290.261 223.165C286.358 215.415 282.38 207.303 283.117 198.924C283.801 191.161 283.947 182.509 286.818 175.1C289.692 167.687 290.585 159.813 290.028 152.038C288.279 127.661 275.89 128.67 271.22 129.887C266.634 131.083 263.883 134.675 262.469 140.865C261.333 145.843 261.119 169.802 252.598 165.146C242.737 159.755 247.668 135.348 247.524 126.985C247.307 114.474 243.738 100.677 234.106 90.7606C229.358 85.8736 221.798 81.7656 214.584 83.6355C210.266 84.7552 207.044 87.8237 204.946 91.1564C198.627 101.193 200.99 112.776 204.156 123.263C205.479 127.646 218.946 148.866 205.241 145.208C201.968 144.334 177.373 122.5 171.119 141.041C168.917 147.569 176.594 155.546 189.212 165.91C197.092 172.382 227.329 190.523 224.306 197.669C223.004 200.748 219.293 199.885 215.458 199.022C210.391 197.882 205.105 196.741 204.881 204.7C204.661 212.532 215.755 219.621 223.441 223.575C227.098 225.456 231.192 226.726 234.693 228.801C238.847 231.263 243.508 236.53 239.247 240.529C237.386 242.276 234.3 242.871 232.509 244.667C230.689 246.492 230.652 249.217 231.768 251.398C232.884 253.578 234.97 255.308 237.144 256.842C251.075 266.675 270.124 270.428 288.381 269.785C306.637 269.142 324.336 264.476 341.42 259.084L290.261 223.165" fill="#96B0E1"/>
    <path d="M247.216 198.203C244.095 191.932 241.334 185.646 238.888 179.446C239.015 179.479 239.143 179.51 239.271 179.541C239.343 179.56 239.415 179.567 239.486 179.567C239.81 179.567 240.11 179.392 240.208 179.12C240.245 179.014 240.248 178.905 240.22 178.803C242.703 185.12 245.514 191.521 248.698 197.907L247.216 198.203V198.203ZM240.177 178.693C240.092 178.529 239.923 178.396 239.7 178.341C239.241 178.227 238.778 178.107 238.316 177.982C221.879 135.559 220.197 97.624 220.186 97.5889C220.171 97.2433 220.496 96.9527 220.912 96.9402C220.921 96.9402 220.93 96.9402 220.939 96.9402C221.343 96.9402 221.677 97.2044 221.692 97.5426C221.692 97.5439 221.706 97.8595 221.745 98.4744C221.784 99.0906 221.848 100.002 221.945 101.185C222.143 103.548 222.479 106.991 223.036 111.304C224.149 119.929 226.148 132.032 229.682 145.927C232.269 156.108 235.683 167.251 240.177 178.693" fill="#AFC3E9"/>
    <path d="M239.486 179.568C239.415 179.568 239.343 179.56 239.271 179.541C239.143 179.51 239.015 179.479 238.888 179.446C225.664 176.082 212.015 168.141 201.593 161.016C191.076 153.821 183.87 147.449 183.855 147.436C183.57 147.184 183.585 146.789 183.888 146.551C184.032 146.438 184.218 146.382 184.403 146.382C184.603 146.382 184.804 146.447 184.951 146.578C184.953 146.579 185.394 146.969 186.227 147.673C187.06 148.378 188.282 149.392 189.83 150.63C192.925 153.106 197.33 156.477 202.551 160.048C212.617 166.94 225.744 174.573 238.316 177.982C238.778 178.107 239.241 178.227 239.7 178.341C239.923 178.396 240.092 178.529 240.177 178.693C240.195 178.728 240.211 178.766 240.22 178.804C240.248 178.905 240.245 179.014 240.208 179.12C240.11 179.392 239.81 179.568 239.486 179.568" fill="#AFC3E9"/>
    <path d="M256.855 196.276C261.969 189.149 265.664 180.096 268.235 171.182C271.79 158.896 273.245 146.869 273.558 140.496C273.575 140.159 273.907 139.895 274.31 139.895C274.32 139.895 274.331 139.896 274.341 139.896C274.757 139.91 275.079 140.202 275.063 140.548C274.743 147.007 273.282 159.081 269.7 171.476C267.218 180.04 263.739 188.754 258.881 195.872L256.855 196.276" fill="#AFC3E9"/>
    <path d="M315.041 264.428C315.041 264.428 381.636 264.428 397.781 264.428C413.924 264.428 411.304 248.509 366.391 255.592C377.41 251.404 377.475 245.797 376.539 244.3C375.681 242.926 372.534 242.042 370.678 242.173C364.965 242.582 360.627 245.493 355.623 247.819C364.679 242.922 370.306 233.935 369.94 224.957C369.841 222.489 369.199 219.842 367.017 218.168C364.563 216.285 360.556 215.032 357.281 215.573C351.22 216.572 340.078 224.986 335.638 228.559C358.268 211.25 366.886 183.976 352.398 177.754C328.005 167.281 309.581 226.615 309.581 226.615C309.581 226.615 321.712 182.03 301.362 181.768C281.013 181.506 297.559 233.565 297.559 233.565L315.041 264.428" fill="#96B0E1"/>
    <path d="M103.087 124.887C104.54 124.887 104.543 123.008 103.087 123.008C101.633 123.008 101.631 124.887 103.087 124.887Z" fill="#5779C5"/>
    <path d="M113.321 118.699C114.775 118.699 114.778 116.82 113.321 116.82C111.868 116.82 111.865 118.699 113.321 118.699Z" fill="#5779C5"/>
    <path d="M302.2 181.363C303.655 181.363 303.656 179.485 302.2 179.485C300.746 179.485 300.745 181.363 302.2 181.363Z" fill="#5779C5"/>
    <path d="M97.5042 110.961C98.9582 110.961 98.9605 109.083 97.5042 109.083C96.051 109.083 96.048 110.961 97.5042 110.961Z" fill="#5779C5"/>
    <path d="M538.532 287.351C539.985 287.351 539.988 285.473 538.532 285.473C537.078 285.473 537.075 287.351 538.532 287.351Z" fill="#5779C5"/>
    <path d="M548.767 295.862C550.221 295.862 550.224 293.983 548.767 293.983C547.312 293.983 547.31 295.862 548.767 295.862Z" fill="#5779C5"/>
    <path d="M526.437 303.598C527.889 303.598 527.892 301.719 526.437 301.719C524.983 301.719 524.98 303.598 526.437 303.598Z" fill="#5779C5"/>
    <path d="M498.522 68.4108C499.976 68.4108 499.979 66.5321 498.522 66.5321C497.07 66.5321 497.067 68.4108 498.522 68.4108Z" fill="#5779C5"/>
    <path d="M514.34 71.5068C515.793 71.5068 515.796 69.6282 514.34 69.6282C512.886 69.6282 512.885 71.5068 514.34 71.5068Z" fill="#5779C5"/>
    <path d="M499.455 81.564C500.907 81.564 500.91 79.6853 499.455 79.6853C497.999 79.6853 497.998 81.564 499.455 81.564Z" fill="#5779C5"/>
    <path d="M324.532 138.813C325.984 138.813 325.987 136.934 324.532 136.934C323.077 136.934 323.075 138.813 324.532 138.813Z" fill="#5779C5"/>
    <path d="M327.322 126.435C328.777 126.435 328.778 124.557 327.322 124.557C325.868 124.557 325.867 126.435 327.322 126.435Z" fill="#5779C5"/>
    <path d="M338.488 139.587C339.941 139.587 339.944 137.708 338.488 137.708C337.033 137.708 337.031 139.587 338.488 139.587Z" fill="#5779C5"/>
    <path d="M319.879 351.564C321.333 351.564 321.336 349.685 319.879 349.685C318.425 349.685 318.422 351.564 319.879 351.564Z" fill="#5779C5"/>
    <path d="M328.252 361.621C329.706 361.621 329.709 359.742 328.252 359.742C326.799 359.742 326.796 361.621 328.252 361.621Z" fill="#5779C5"/>
    <path d="M555.279 365.49C556.734 365.49 556.735 363.611 555.279 363.611C553.825 363.611 553.822 365.49 555.279 365.49Z" fill="#5779C5"/>
    <path d="M524.575 159.701C526.028 159.701 526.031 157.823 524.575 157.823C523.121 157.823 523.118 159.701 524.575 159.701Z" fill="#5779C5"/>
    <path d="M121.696 83.8847C123.15 83.8847 123.152 82.0061 121.696 82.0061C120.242 82.0061 120.24 83.8847 121.696 83.8847Z" fill="#5779C5"/>
    <path d="M237.07 30.5032C238.524 30.5032 238.527 28.6245 237.07 28.6245C235.616 28.6245 235.613 30.5032 237.07 30.5032Z" fill="#5779C5"/>
    <path d="M319.879 1.87863C321.333 1.87863 321.336 5.96046e-08 319.879 5.96046e-08C318.425 5.96046e-08 318.422 1.87863 319.879 1.87863Z" fill="#5779C5"/>
    <path d="M349.652 20.4461C351.106 20.4461 351.109 18.5674 349.652 18.5674C348.199 18.5674 348.197 20.4461 349.652 20.4461Z" fill="#5779C5"/>
    <path d="M106.809 356.207C108.263 356.207 108.265 354.328 106.809 354.328C105.355 354.328 105.352 356.207 106.809 356.207Z" fill="#5779C5"/>
    <path d="M64.0084 329.902C65.4624 329.902 65.4647 328.023 64.0084 328.023C62.5545 328.023 62.5521 329.902 64.0084 329.902Z" fill="#5779C5"/>
    <path d="M67.73 335.317C69.184 335.317 69.1862 333.439 67.73 333.439C66.2767 333.439 66.2737 335.317 67.73 335.317Z" fill="#5779C5"/>
    <path d="M60.2868 339.186C61.7408 339.186 61.7431 337.307 60.2868 337.307C58.833 337.307 58.8306 339.186 60.2868 339.186Z" fill="#5779C5"/>
    <path d="M492.94 402.623C494.393 402.623 494.396 400.745 492.94 400.745C491.486 400.745 491.483 402.623 492.94 402.623Z" fill="#5779C5"/>
    <path d="M103.087 271.88C104.54 271.88 104.543 270.001 103.087 270.001C101.633 270.001 101.631 271.88 103.087 271.88Z" fill="#5779C5"/>
    <path d="M87.2698 421.192C88.7231 421.192 88.7261 419.314 87.2698 419.314C85.816 419.314 85.8136 421.192 87.2698 421.192Z" fill="#5779C5"/>
    <path d="M297.548 411.134C299.002 411.134 299.005 409.255 297.548 409.255C296.095 409.255 296.092 411.134 297.548 411.134Z" fill="#5779C5"/>
    <path d="M580.402 421.192C581.856 421.192 581.859 419.314 580.402 419.314C578.947 419.314 578.945 421.192 580.402 421.192Z" fill="#5779C5"/>
    <path d="M348.723 4.19943C350.176 4.19943 350.179 2.32077 348.723 2.32077C347.268 2.32077 347.266 4.19943 348.723 4.19943Z" fill="#5779C5"/>
    <path d="M429.67 113.283C431.124 113.283 431.127 111.405 429.67 111.405C428.217 111.405 428.215 113.283 429.67 113.283Z" fill="#5779C5"/>
    <path d="M457.584 97.0366C459.037 97.0366 459.04 95.158 457.584 95.158C456.129 95.158 456.128 97.0366 457.584 97.0366Z" fill="#5779C5"/>
    <path d="M37.4914 156.606C38.9454 156.606 38.9477 154.728 37.4914 154.728C36.037 154.728 36.0352 156.606 37.4914 156.606Z" fill="#5779C5"/>
    <path d="M589.706 134.944C591.158 134.944 591.161 133.066 589.706 133.066C588.253 133.066 588.25 134.944 589.706 134.944Z" fill="#5779C5"/>
    <path d="M327.835 108.986C396.516 142.141 444.573 201.21 456.098 266.527C456.452 268.532 451.413 266.373 450.957 266.235C373.256 242.704 321.944 179.178 325.109 110.482C325.157 109.401 326.502 108.336 327.835 108.986" fill="#C2D7F1"/>
    <path d="M334.621 127.52C365.733 163.804 396.845 200.087 427.959 236.372C413.684 229.363 399.412 222.352 385.137 215.342C383.68 214.627 382.197 216.443 383.662 217.163C399.685 225.032 415.707 232.9 431.729 240.769C441.303 251.935 450.877 263.102 460.452 274.268C461.441 275.421 463.435 273.98 462.457 272.838C453.046 261.864 443.636 250.89 434.227 239.915C434.203 239.632 434.035 239.357 433.638 239.162L433.538 239.114C401.233 201.439 368.93 163.764 336.626 126.089C335.638 124.938 333.642 126.378 334.621 127.52" fill="#FDE5E6"/>
    <path d="M353.243 174.196C351.827 173.419 350.348 175.238 351.77 176.017C364.941 183.245 378.11 190.473 391.28 197.7C392.697 198.478 394.175 196.66 392.756 195.881C379.583 188.653 366.414 181.425 353.243 174.196Z" fill="#FDE5E6"/>
    <path d="M363.685 138.06C364.992 146.015 366.301 153.969 367.61 161.923C356.376 154.894 345.144 147.866 333.91 140.837C332.553 139.987 331.081 141.81 332.437 142.658C344.306 150.085 356.173 157.511 368.042 164.938C369.339 165.748 370.708 164.134 369.659 163.247C370.086 163.04 370.391 162.657 370.305 162.137L366.274 137.64C366.043 136.238 363.454 136.664 363.685 138.06" fill="#FDE5E6"/>
    <path d="M394.13 166.376L392.703 193.862C392.631 195.271 395.265 195.418 395.338 194.002L396.764 166.515C396.838 165.106 394.203 164.959 394.13 166.376Z" fill="#FDE5E6"/>
    <path d="M425.54 210.322C427.754 218.566 428.693 226.914 428.336 235.357C428.275 236.766 430.91 236.914 430.97 235.497C431.336 226.87 430.395 218.327 428.131 209.902C427.76 208.523 425.168 208.94 425.54 210.322Z" fill="#FDE5E6"/>
    <path d="M379.056 279.035C373.736 273.466 368.914 266.079 371.303 255.598C373.882 244.336 383.715 234.497 392.884 225.726C404.918 214.229 414.827 203.981 417.489 189.468C419.409 179.009 418.555 168.743 424.318 157.601C431.02 144.641 444.399 135.445 456.542 130.099C470.707 123.879 485.014 121.645 499.083 112.665C507.596 107.226 514.184 100.264 518.741 91.4031C522.031 84.9894 524.251 78.4992 527.601 72.1017C538.399 51.4527 560.742 39.1863 575.388 43.7715C590.73 44.8273 599.508 58.0832 593.204 77.5774C588.158 93.1716 574.576 105.087 563.508 118.455C551.53 132.91 549.532 145.211 549.114 159.086C548.835 168.526 548.9 178.462 543.915 189.012C538.915 199.619 529.582 207.99 520.19 215.33C508.723 224.311 494.669 233.4 488.537 246.928C485.262 254.179 484.556 261.265 480.98 268.558C478.537 273.518 475.084 278.281 471.084 282.575C449.539 305.708 422.443 307.145 405.44 299.128C395.271 294.344 386.57 286.902 379.056 279.035" fill="#C2D7F1"/>
    <path d="M568.594 73.5258C551.611 93.501 534.741 113.54 517.98 133.644C519.589 123.711 521.196 113.778 522.805 103.845C523.115 101.939 519.523 101.83 519.217 103.718L513.659 138.044C513.614 138.321 513.668 138.549 513.764 138.749C499.718 155.626 485.77 172.558 471.879 189.522C471.28 172.71 470.683 155.899 470.084 139.087C470.017 137.175 466.428 137.038 466.496 138.961C467.133 156.905 467.771 174.847 468.41 192.79C468.421 193.063 468.514 193.288 468.645 193.487C455.783 209.215 443.04 225.01 430.306 240.808C430.446 226.815 430.584 212.822 430.725 198.828C430.743 196.908 427.155 196.777 427.135 198.701C426.98 214.233 426.826 229.764 426.67 245.296C418.149 255.884 409.656 266.491 401.188 277.109L402.113 234.824C402.155 232.903 398.566 232.774 398.525 234.696C398.213 248.952 397.901 263.207 397.589 277.462C397.567 278.423 398.453 278.889 399.347 278.917C399.338 279.065 399.344 279.216 399.383 279.366C389.627 291.606 379.909 303.865 370.252 316.158C368.985 317.769 372.032 319.35 373.298 317.741C383.064 305.306 392.894 292.907 402.761 280.527C419.876 278.778 436.777 276.185 453.513 272.713C455.753 272.248 454.953 269.337 452.706 269.803C437.096 273.041 421.339 275.488 405.403 277.228C413.292 267.339 421.197 257.456 429.134 247.591C429.75 247.426 430.244 247.003 430.25 246.294L430.252 246.212C430.625 245.749 431.003 245.286 431.377 244.822C448.324 241.436 465.27 238.048 482.217 234.661C484.463 234.213 483.661 231.301 481.411 231.752C465.723 234.888 450.035 238.023 434.347 241.158C446.934 225.535 459.538 209.922 472.259 194.373C490.506 190.558 508.751 186.743 527 182.928C529.238 182.461 528.438 179.549 526.191 180.018C509.223 183.567 492.252 187.113 475.283 190.662C489.406 173.417 503.585 156.204 517.867 139.052C518.153 139.135 518.467 139.175 518.836 139.104L545.239 133.961C547.488 133.523 546.687 130.612 544.432 131.05C536.504 132.595 528.575 134.139 520.649 135.683C537.533 115.427 554.529 95.2356 571.638 75.1101C572.976 73.5371 569.926 71.9603 568.594 73.5258" fill="#FDE5E6"/>
    <path d="M543.611 324.073L376.959 404.798L375.149 374.017L541.923 295.367L543.611 324.073Z" fill="#E0461F"/>
    <path d="M375.149 374.017L202.49 329.67L387.261 262.534L541.923 295.367L375.149 374.017Z" fill="#F25734"/>
    <path d="M204.28 360.104L376.94 404.451L375.149 374.017L202.49 329.67L204.28 360.104" fill="white"/>
    <path d="M202.673 332.782L375.331 377.129L375.149 374.017L202.49 329.67L202.673 332.782" fill="#E0461F"/>
    <path d="M204.299 360.451L376.96 404.797L376.776 401.684L204.117 357.338L204.299 360.451" fill="#E0461F"/>
    <path d="M364.581 398.636L376.776 401.684L375.331 377.129L363.118 373.994L364.581 398.636" fill="#A0331E"/>
    <path d="M219.329 354.63L225.164 351.832L231.524 357.68L231.019 349.119L218.806 345.984L219.329 354.63" fill="#A0331E"/>
    <path d="M520.529 285.043L374.346 355.726L372.783 329.147L519.122 261.15L520.529 285.043" fill="white"/>
    <path d="M519.259 263.465L372.944 331.908L372.783 329.147L519.122 261.15L519.259 263.465Z" fill="#4378C5"/>
    <path d="M520.628 286.76L374.367 356.099L374.204 353.337L520.493 284.446L520.628 286.76" fill="#4378C5"/>
    <path d="M520.782 290.878L514.676 289.582L515.033 289.413L520.872 290.836L520.782 290.878Z" fill="#8691D1"/>
    <path d="M375.425 360.582L374.372 356.158L478.454 306.753L514.675 289.582L520.782 290.878L375.425 360.582" fill="#F14D29"/>
    <path d="M478.454 306.753L515.004 289.405L515.032 289.413L514.675 289.582L478.454 306.753" fill="#396BBD"/>
    <path d="M519.122 261.15L383.241 232.878L223.053 291.018L230.022 298.826L229.673 292.861L372.783 329.147L519.122 261.15" fill="#6096D6"/>
    <path d="M228.811 318.659L373.539 355.832C373.936 355.934 374.345 355.698 374.325 355.375L372.819 329.763L231.22 293.393C227.604 292.465 223.907 294.617 224.08 297.549L225.1 314.876C225.2 316.607 226.677 318.111 228.811 318.659Z" fill="white"/>
    <path d="M351.529 345.006L356.569 342.59L362.059 347.639L361.626 333.285L351.079 330.578L351.529 345.006" fill="#4378C5"/>
    <path d="M236.641 320.55L224.61 317.483L223.053 291.019L235.085 294.084L236.641 320.55" fill="#4378C5"/>
    <path d="M227.19 318.191L224.61 317.483L223.053 291.018L225.634 291.726L227.19 318.191Z" fill="#4378C5"/>
    <path d="M223.211 293.706L372.939 331.834L372.783 329.147L223.053 291.018L223.211 293.706" fill="#4378C5"/>
    <path d="M224.566 317.529L374.438 356.06L374.28 353.371L224.393 314.991L224.566 317.529Z" fill="#4378C5"/>
    <path d="M375.425 360.582L276.494 334.89C277.733 333.881 278.949 332.864 280.137 331.842L318.739 341.757L374.265 356.057L375.425 360.582" fill="#F14D29"/>
    <path d="M318.739 341.757L280.137 331.842C280.145 331.837 280.154 331.828 280.16 331.822L318.739 341.757" fill="#E2CBCD"/>
    <path d="M314.993 272.782C320.158 278.628 314.264 294.396 299.865 311.857C286.613 327.938 266.134 345.443 240.432 357.93C186.816 383.98 133.889 382.885 123.844 371.121L73.867 310.138L268.057 215.793C268.057 215.793 314.615 272.356 314.993 272.782" fill="#2E2C2D"/>
    <path d="M310.879 193.104L204.819 312.52L199.146 305.599L305.511 186.554L310.879 193.104" fill="#262324"/>
    <path d="M305.512 186.554L247.489 251.494L199.142 305.599L40.0715 335.356L33.3087 336.257L146.261 218.376L305.512 186.554" fill="#2E2C2D"/>
    <path d="M38.4069 342.484L204.839 312.544L199.146 305.599L33.304 336.257L38.4069 342.484" fill="#262324"/>
    <path d="M244.324 255.063C244.327 255.051 244.329 255.042 244.33 255.03L247.489 251.494L305.512 186.554L305.511 186.555L247.489 251.494L244.324 255.063" fill="#211B1D"/>
    <path d="M244.33 255.03C250.301 222.39 208.68 216.482 177.799 216.482C160.304 216.482 146.261 218.376 146.261 218.376L305.512 186.554L247.489 251.494L244.33 255.03" fill="#292325"/>
    <path d="M299.865 311.857C299.865 311.857 304.349 287.901 292.234 273.12C279.874 258.037 264.448 256.281 257.938 256.281C255.965 256.281 254.811 256.442 254.811 256.442L278.913 229.197C278.913 229.197 314.615 272.356 314.993 272.782C316.234 274.187 316.836 276.163 316.836 278.599C316.835 286.302 310.805 298.591 299.865 311.857" fill="#2D2527"/>
    <path d="M180.413 253.935C180.999 254.649 180.996 255.594 180.503 256.609C179.663 258.394 177.326 260.428 174.073 262.009C168.955 264.494 163.497 264.915 161.878 262.94C160.688 261.487 161.902 259.156 164.659 257.04C165.654 256.268 166.859 255.527 168.219 254.867C173.336 252.379 178.794 251.96 180.413 253.935Z" fill="#F25734"/>
    <path d="M169.801 257.59L117.899 314.488L119.243 315.336L118.085 314.315C117.904 314.454 107.34 322.81 99.0682 343.853L102.277 344.724C106.322 334.436 110.9 327.31 114.442 322.773C116.213 320.505 117.725 318.883 118.783 317.837C119.312 317.315 119.728 316.935 120.006 316.691C120.144 316.57 120.249 316.482 120.316 316.427L120.387 316.368L120.401 316.357L120.277 316.248L120.4 316.357H120.401L120.277 316.248L120.4 316.357L120.503 316.276L172.49 259.285L169.801 257.59" fill="#F25734"/>
    <path d="M180.413 253.935C180.999 254.649 180.996 255.594 180.503 256.609C173.594 253.52 167.418 255.698 164.659 257.04C165.654 256.268 166.859 255.527 168.219 254.867C173.336 252.379 178.794 251.96 180.413 253.935Z" fill="#E0461F"/>
    <path d="M115.29 368.438C119.428 382.465 119.586 394.386 115.655 395.071C111.724 395.758 105.177 384.95 101.038 370.923C96.8995 356.897 96.7412 344.975 100.673 344.289C101.765 344.099 103.069 344.796 104.445 346.201C108.061 349.861 112.301 358.31 115.29 368.438Z" fill="#F25734"/>
    <path d="M115.29 368.438C119.428 382.466 119.586 394.386 115.655 395.071C115.856 364.01 100.767 348.842 100.767 348.842L104.445 346.201C108.061 349.861 112.301 358.31 115.29 368.438Z" fill="#E0461F"/>
    <path d="M108.069 343.962C108.687 346.057 107.704 348.142 105.732 349.459C104.855 350.045 103.786 350.482 102.562 350.694C98.6317 351.38 94.7106 349.476 93.8169 346.447C93.215 344.406 94.1398 342.379 95.9969 341.054C96.8953 340.416 98.0286 339.94 99.3231 339.715C103.254 339.028 107.175 340.933 108.069 343.962Z" fill="#F25734"/>
    <path d="M108.069 343.962C108.687 346.057 107.704 348.142 105.732 349.459C105.608 349.249 105.511 349.007 105.423 348.752C102.989 341.432 97.4042 341.04 95.9969 341.054C96.8953 340.416 98.0286 339.94 99.3231 339.715C103.254 339.028 107.175 340.933 108.069 343.962" fill="#E0461F"/>
    <path d="M554.108 332.223L531.626 337.951L477.743 191.716L500.226 185.99L554.108 332.223" fill="#F2C511"/>
    <path d="M540.993 335.564L538.494 336.2L484.402 189.393L486.901 188.757L540.993 335.564Z" fill="#2E2C2D"/>
    <path d="M547.238 333.973L544.741 334.61L490.647 187.802L493.145 187.166L547.238 333.973" fill="#2E2C2D"/>
    <path d="M555.27 335.377L532.252 341.241L530.88 337.513L553.896 331.649L555.27 335.377Z" fill="#2E2C2D"/>
    <path d="M552.072 343.406L540.311 346.403C537.202 347.194 533.911 345.74 532.959 343.156L532.252 341.241L555.27 335.377L555.976 337.294C556.928 339.877 555.181 342.614 552.072 343.406Z" fill="#F25734"/>
    <path d="M500.23 185.985L477.748 191.712L481.744 178.622L483.506 172.819L488.649 176.863L500.23 185.985Z" fill="#FDDCB5"/>
    <path d="M488.649 176.863L481.744 178.622L483.506 172.819L488.649 176.863Z" fill="#2E2C2D"/>
    <path d="M147.903 100.905C149.066 99.3524 148.494 97.3109 146.627 96.3453L123.43 84.3418C121.564 83.3762 119.108 83.8509 117.947 85.4039L115.843 88.2144L114.145 90.4826L80.2351 135.787C79.073 137.34 79.6443 139.382 81.5118 140.347L162.078 182.039C163.945 183.004 166.4 182.53 167.563 180.978L201.067 136.214C202.228 134.661 201.657 132.62 199.791 131.654L149.18 105.466C147.313 104.499 146.741 102.457 147.903 100.905" fill="#D2AD13"/>
    <path d="M162.078 182.039L81.5118 140.347C79.6443 139.382 79.073 137.34 80.2351 135.787L119.694 94.1059C120.855 92.5541 123.311 92.0782 125.177 93.0438L205.744 134.735C207.612 135.701 208.183 137.743 207.021 139.295L167.563 180.978C166.4 182.53 163.945 183.004 162.078 182.039" fill="#F2C511"/>
    <path d="M373.986 279.382C363.969 279.382 354.049 278.21 346.249 273.265C342.607 270.954 339.476 267.454 339.982 263.668C340.334 261.048 343.232 258.789 346.176 258.429C347.629 258.025 349.17 257.854 350.777 257.854C355.501 257.854 360.791 259.342 366.065 260.83C371.338 262.319 376.593 263.807 381.248 263.807C381.817 263.807 382.376 263.784 382.926 263.738C389.337 263.188 394.728 259.685 400.572 257.426C404.332 255.973 408.552 255.05 412.678 255.05C415.838 255.05 418.941 255.592 421.734 256.853C428.167 259.759 431.622 267.34 427.412 272.321C423.76 276.644 416.538 277.369 410.197 277.704C401.985 278.138 393.776 278.572 385.566 279.005C381.769 279.205 377.872 279.382 373.986 279.382" fill="#5889CF"/>
    <path d="M443.645 123.702C441.378 124.144 433.272 124.243 425.722 124.747C424.243 121.243 421.947 113.581 418.677 103.862C418.021 101.912 414.72 98.3842 411.021 97.0216C408.725 96.1762 405.29 97.733 406.279 101.439C406.836 103.521 407.523 106.432 410.381 113.177C414.38 122.62 417.274 127.147 419.086 129.39C419.308 129.773 419.62 130.125 420.007 130.428C420.199 130.611 420.428 130.751 420.681 130.859C421.363 131.211 422.187 131.424 423.125 131.394C430.086 131.174 429.616 130.979 438.556 128.768C444.76 127.234 443.748 128.361 444.987 127.026C445.997 125.943 445.474 123.347 443.645 123.702Z" fill="#E0461F"/>
    <path d="M385.688 113.668C387.244 118.485 387.907 123.478 388.487 128.435C388.915 132.072 388.419 135.807 387.535 139.378C386.999 141.542 386.303 143.679 385.532 145.792C385.238 146.593 382.777 153.046 382.629 153.743C382.629 153.743 416.676 155.678 418.665 155.791C418.804 149.901 412.277 131 418.703 119.368C423.151 111.312 418.165 110.773 415.336 103.696C414.642 101.962 409.608 98.4832 407.584 97.9371C406.507 97.6453 405.383 97.4963 404.265 97.356C398.201 96.6008 385.491 93.7377 383.548 100.877C383.019 102.823 383.926 109.004 384.768 111.104C385.104 111.953 385.413 112.807 385.688 113.668" fill="#F25734"/>
    <path d="M417.106 215.049C417.185 214.449 417.213 213.889 417.201 213.363C417.334 212.472 417.408 211.481 417.399 210.354C417.359 205.816 418.043 186.456 418.414 174.89C419.218 164.781 418.665 155.791 418.665 155.791L382.629 153.743C381.21 158.126 380.629 161.783 380.457 164.695C379.481 169.221 374.093 201.87 372.636 207.858C372.561 208.168 372.504 208.46 372.445 208.752C364.626 218.492 358.747 255.556 357.286 261.973C357.092 262.826 357.664 262.767 358.28 262.705C360.083 262.517 359.444 261.093 361.975 261.366C363.314 261.51 363.573 263.067 363.573 263.067C367.078 254.472 378.812 224.238 384.161 215.169C384.968 213.802 385.381 212.566 385.542 211.443C389.844 201.463 396.672 184.267 398.599 176.845C399.624 185.337 402.03 204.519 404.121 213.487C399.395 225.64 404.31 251.245 403.56 265.806C405.627 263.352 407.43 262.831 408.252 262.93C409.584 263.092 410.241 264.015 410.241 264.015C411.572 244.482 415.769 225.11 417.106 215.049" fill="#213766"/>
    <path d="M410.691 263.99C411.047 264.677 412.889 266.328 415.532 267.496C418.176 268.662 423.916 269.466 420.631 270.175C417.347 270.886 413.648 270.133 411.774 269.771C409.897 269.411 408.063 269.271 405.826 269.132C402.879 268.95 402.869 268.798 403.493 266.054C404.351 262.279 409.537 261.764 410.691 263.99" fill="#181837"/>
    <path d="M363.545 262.502C363.902 263.189 364.069 266.437 366.712 267.605C369.353 268.771 375.096 269.575 371.811 270.284C368.527 270.994 364.829 270.242 362.953 269.88C361.077 269.519 360.918 267.784 358.681 267.645C355.735 267.461 355.725 267.309 356.349 264.566C357.208 260.79 362.394 260.275 363.545 262.502" fill="#181837"/>
    <path d="M391.131 109.888C391.632 110.127 392.131 110.371 392.632 110.612L389.686 118.16C390.118 115.702 390.611 112.928 391.131 109.888Z" fill="#F0423E"/>
    <path d="M394.613 84.1152C394.544 84.4383 393.355 91.3255 392.809 96.6333C392.54 99.2334 394.597 101.835 396.847 102.025L396.946 102.033C399.158 102.158 401.95 99.9936 401.967 97.4273C401.991 92.7808 402.646 88.0629 402.663 87.9902L394.613 84.1152" fill="#F07A43"/>
    <path d="M390.688 78.8549C390.912 84.8078 391.015 86.1278 393.92 88.7254C396.829 91.3229 401.177 92.6856 404.548 92.876C408.188 93.0826 411.149 90.0392 412.176 87.5844C413.24 85.042 414.734 79.024 414.244 72.4925C413.997 69.181 409.453 64.924 404.429 64.6384C399.408 64.3516 390.141 64.3115 390.688 78.8549Z" fill="#F6834D"/>
    <path d="M377.607 63.2307C375.379 64.2928 373.647 65.9585 372.545 67.881C373.796 64.7211 375.854 62.587 378.686 61.5399C383.444 59.784 389.141 61.5649 391.275 62.3665C386.573 61.3858 381.716 61.2719 377.607 63.2307ZM414.249 69.1046C413.496 67.7808 411.028 65.6817 408.954 64.9127C404.973 62.5143 400.046 62.6057 396.142 63.6691C394.871 63.2608 393.56 62.89 392.233 62.5807L392.325 62.4404C392.25 62.4053 384.657 58.9924 378.532 61.2518C375.131 62.508 372.808 65.2521 371.63 69.4052L371.814 69.4415C370.983 71.6721 370.954 74.1056 371.941 76.2974C372.927 78.4929 374.759 80.3754 375.73 82.5772C377.847 87.3778 375.66 92.4164 370.157 94.6971C372.076 96.061 375.093 95.6439 377.213 94.5054C379.333 93.367 380.709 90.8596 382.647 89.5157C385.896 87.2625 385.685 80.5845 389.906 80.84L396.312 77.2142C401.464 76.2711 407.865 75.0425 411.398 72.6503C412.764 73.4369 413.942 74.2559 414.3 75.303C414.906 77.0627 415.696 71.6559 414.249 69.1046Z" fill="#090A0A"/>
    <path d="M392.801 79.049C393.637 81.1519 393.242 83.1508 391.918 83.5153C390.593 83.8797 388.842 82.4707 388.005 80.3691C387.169 78.2675 387.565 76.2674 388.888 75.9029C390.213 75.5384 391.963 76.9474 392.801 79.049Z" fill="#F6834D"/>
    <path d="M441.814 135.031L420.706 138.813V115.377L441.814 111.595V135.031Z" fill="#E0C9CB"/>
    <path d="M413.21 127.043C414.906 125.933 417.15 124.825 418.711 124.692C420.268 124.558 417.623 126.291 416.416 127.207C415.21 128.122 411.783 127.978 413.21 127.043Z" fill="#F6834D"/>
    <path d="M415.553 127.014C419.953 126.431 422.182 125.521 424.204 126.156C426.228 126.793 423.311 129.14 421.816 129.536C420.319 129.933 415.073 131.623 413.508 130.774C411.943 129.924 412.306 127.445 415.553 127.014Z" fill="#F6834D"/>
    <path d="M412.675 126.899C410.373 127.254 396.519 126.828 388.493 126.999C388.998 122.94 390.406 115.753 391.887 106.778C392.218 104.77 390.878 100.442 388.138 97.9685C386.436 96.4342 382.537 96.7261 381.674 100.453C381.189 102.545 380.425 105.444 379.818 112.578C378.824 124.269 379.662 129.287 380.349 131.496C380.505 131.994 380.889 132.383 381.409 132.664C382.18 133.337 383.277 133.806 384.616 133.815C391.858 133.867 394.533 133.768 403.944 131.832C410.479 130.488 412.511 131.741 413.877 130.404C414.987 129.321 414.595 126.602 412.675 126.899" fill="#E0461F"/>
    <path d="M441.57 125.244C441.576 124.21 441.66 122.618 442.258 121.185C442.6 120.367 443.709 119.775 444.521 120.505C445.23 121.145 446.446 123.731 445.926 124.974C445.485 126.026 444.361 127.008 443.261 127.413C442.159 127.819 441.562 126.934 441.57 125.244Z" fill="#F6834D"/>
    <path d="M510.14 115.955L499.462 108.089L561.592 93.7702L539.948 137.403L522.534 124.43L515.279 129.973L510.14 115.955" fill="#6096D6"/>
    <path d="M515.279 129.973L510.14 115.955L561.592 93.7702L522.534 124.43L515.279 129.973" fill="#416CBD"/>
    <path d="M186.879 21.1725L193.567 10.6971L129.343 15.3799L167.995 49.9448L178.842 32.7225L187.97 35.801L186.879 21.1725Z" fill="#F25734"/>
    <path d="M187.97 35.801L178.842 32.7225L129.343 15.38L186.879 21.1725L187.97 35.801" fill="#C24220"/>
    <path d="M507.102 134.743C506.233 135.162 505.362 135.582 504.493 136.003C504.223 136.133 504.131 136.421 504.29 136.645C504.446 136.869 504.791 136.946 505.061 136.814C505.93 136.395 506.799 135.975 507.668 135.555C507.938 135.425 508.03 135.138 507.875 134.914C507.718 134.69 507.372 134.614 507.102 134.743" fill="#96B0E1"/>
    <path d="M489.887 143.47C488.301 144.354 486.734 145.263 485.196 146.201C484.945 146.354 484.89 146.648 485.074 146.858C485.259 147.067 485.612 147.112 485.863 146.959C487.388 146.03 488.941 145.128 490.516 144.25C490.775 144.106 490.845 143.814 490.67 143.599C490.497 143.383 490.146 143.326 489.887 143.47V143.47ZM472.28 155.633C470.984 156.801 469.743 158.021 468.57 159.288C468.379 159.493 468.425 159.789 468.672 159.947C468.919 160.106 469.275 160.067 469.465 159.862C470.617 158.617 471.837 157.417 473.11 156.271C473.321 156.079 473.307 155.782 473.077 155.607C472.848 155.43 472.491 155.443 472.28 155.633ZM460.178 171.79C459.52 173.298 458.97 174.835 458.546 176.391C458.476 176.644 458.666 176.896 458.97 176.954C459.275 177.011 459.577 176.852 459.647 176.599C460.061 175.083 460.597 173.585 461.24 172.11C461.347 171.866 461.195 171.597 460.903 171.508C460.609 171.419 460.285 171.546 460.178 171.79V171.79ZM458.41 190.702C458.809 192.263 459.323 193.803 459.91 195.323C460.005 195.57 460.323 195.706 460.62 195.628C460.916 195.547 461.081 195.283 460.986 195.036C460.407 193.54 459.904 192.031 459.516 190.506C459.451 190.252 459.151 190.091 458.845 190.144C458.539 190.198 458.345 190.447 458.41 190.702ZM466.038 208.627C466.697 210.096 467.317 211.585 467.856 213.088C467.945 213.337 468.26 213.479 468.558 213.403C468.857 213.33 469.028 213.068 468.939 212.82C468.391 211.292 467.762 209.781 467.097 208.299C466.987 208.056 466.661 207.932 466.369 208.023C466.077 208.113 465.929 208.384 466.038 208.627V208.627ZM469.471 226.915C469.439 227.079 469.403 227.243 469.367 227.406C469.062 228.74 468.552 230.062 467.865 231.322C467.735 231.559 467.862 231.837 468.145 231.945C468.43 232.051 468.764 231.947 468.894 231.71C469.617 230.384 470.154 228.993 470.477 227.581C470.514 227.411 470.552 227.239 470.585 227.068C470.636 226.812 470.429 226.57 470.121 226.528C469.812 226.485 469.522 226.658 469.471 226.915" fill="#96B0E1"/>
    <path d="M455.819 240.142C454.935 240.3 454.028 240.381 453.102 240.381L452.95 240.38C452.638 240.377 452.383 240.585 452.38 240.844C452.376 241.105 452.626 241.317 452.939 241.319L453.102 241.32C454.108 241.32 455.096 241.231 456.054 241.061C456.36 241.007 456.554 240.757 456.489 240.504C456.423 240.25 456.123 240.088 455.819 240.142" fill="#96B0E1"/>
    <path d="M198.006 42.7946C198.625 43.4471 199.243 44.1034 199.856 44.7647C200.047 44.9701 200.401 45.0077 200.648 44.8499C200.895 44.6908 200.942 44.3965 200.751 44.1911C200.135 43.526 199.514 42.8673 198.893 42.2135C198.701 42.0093 198.345 41.9742 198.1 42.1346C197.856 42.2961 197.813 42.5904 198.006 42.7946" fill="#96B0E1"/>
    <path d="M209.44 57.0136C210.296 58.4727 211.049 59.9631 211.671 61.4911C211.77 61.7366 212.091 61.8681 212.387 61.7854C212.682 61.7015 212.841 61.436 212.741 61.1892C212.102 59.6199 211.331 58.0919 210.456 56.6015C210.318 56.3673 209.98 56.2709 209.699 56.3849C209.419 56.4988 209.303 56.7794 209.44 57.0136V57.0136ZM212.694 75.7326C212.237 77.3082 211.587 78.8286 210.743 80.2464C210.605 80.4793 210.719 80.7611 210.998 80.8751C211.278 80.9903 211.617 80.8952 211.755 80.6635C212.638 79.1781 213.317 77.5912 213.792 75.953C213.866 75.7 213.679 75.447 213.376 75.3857C213.072 75.3243 212.768 75.4808 212.694 75.7326V75.7326ZM197.836 88.9421C196.438 89.1976 195.028 89.3153 193.609 89.3166C193.117 89.3166 192.623 89.3015 192.127 89.274C191.815 89.2565 191.547 89.4518 191.526 89.7111C191.505 89.9691 191.74 90.1933 192.05 90.2108C192.57 90.2409 193.09 90.2559 193.609 90.2559C195.105 90.2559 196.596 90.1307 198.078 89.8589C198.384 89.8038 198.577 89.5533 198.509 89.299C198.441 89.046 198.14 88.8857 197.836 88.9421V88.9421ZM175.772 84.5272C174.071 83.7357 172.387 82.8866 170.727 82.0174C170.464 81.8796 170.116 81.9447 169.949 82.1639C169.783 82.3831 169.861 82.6736 170.125 82.8126C171.795 83.6881 173.496 84.5448 175.219 85.3463C175.492 85.4728 175.835 85.3927 175.989 85.166C176.141 84.9393 176.043 84.6537 175.772 84.5272V84.5272ZM155.747 74.1182C154.036 73.2991 152.304 72.5063 150.555 71.7436C150.278 71.6233 149.937 71.7122 149.792 71.9414C149.647 72.1706 149.753 72.4549 150.03 72.5752C151.766 73.3329 153.485 74.1195 155.184 74.9323C155.455 75.0625 155.8 74.9849 155.955 74.7594C156.112 74.5352 156.019 74.2485 155.747 74.1182V74.1182ZM134.363 65.6542C132.518 65.0655 130.66 64.507 128.789 63.9784C128.494 63.8945 128.173 64.026 128.072 64.2715C127.972 64.517 128.13 64.7837 128.425 64.8677C130.282 65.3924 132.127 65.9473 133.958 66.5309C134.249 66.6236 134.576 66.5021 134.688 66.2604C134.799 66.0187 134.654 65.7469 134.363 65.6542V65.6542ZM111.655 60.0558C111.427 60.0157 111.2 59.9756 110.972 59.9356C109.271 59.6425 107.555 59.3732 105.828 59.1365C105.52 59.0951 105.229 59.268 105.179 59.5235C105.128 59.7802 105.336 60.022 105.644 60.0646C107.355 60.2975 109.056 60.563 110.742 60.8548C110.968 60.8949 111.194 60.9338 111.42 60.9738C111.725 61.0277 112.025 60.8661 112.09 60.6131C112.155 60.3589 111.96 60.1096 111.655 60.0558V60.0558ZM88.0665 58.1358C86.0772 58.2134 84.0973 58.3637 82.1349 58.5992C81.826 58.6368 81.612 58.8747 81.6566 59.1315C81.7013 59.3882 81.9879 59.5661 82.2967 59.5298C84.2202 59.2981 86.163 59.1503 88.1189 59.0739C88.4301 59.0626 88.6714 58.8434 88.6573 58.5842C88.6425 58.3249 88.3783 58.1245 88.0665 58.1358V58.1358ZM65.2294 63.2808C63.4913 64.0937 61.8196 64.9967 60.2163 65.9761C59.9651 66.1301 59.9109 66.4232 60.0957 66.6324C60.2804 66.8415 60.634 66.8866 60.8853 66.7326C62.4533 65.7744 64.0861 64.8927 65.7831 64.0999C66.0548 63.9734 66.1514 63.6866 65.9983 63.4612C65.8455 63.2345 65.5011 63.1543 65.2294 63.2808ZM47.7183 76.5367C46.5469 77.8655 45.4435 79.2394 44.4086 80.6484C44.2456 80.8701 44.3298 81.1594 44.5962 81.2947C44.8623 81.43 45.21 81.3598 45.3724 81.1381C46.3914 79.7504 47.4776 78.3978 48.6298 77.0915C48.8138 76.8823 48.7597 76.588 48.5079 76.4352C48.256 76.2812 47.903 76.3263 47.7183 76.5367V76.5367ZM36.912 94.0746C36.2653 95.6314 35.674 97.2007 35.1297 98.7813C35.0437 99.0318 35.2174 99.291 35.5175 99.3624C35.8175 99.4338 36.1299 99.2898 36.2159 99.0405C36.7549 97.4737 37.3402 95.9207 37.9799 94.3815C38.0816 94.1372 37.9251 93.8692 37.6303 93.784C37.3355 93.7001 37.0136 93.8304 36.912 94.0746V94.0746ZM31.3082 113.211C30.9798 114.828 30.6749 116.448 30.386 118.07C30.3402 118.327 30.5538 118.566 30.8622 118.604C31.1709 118.641 31.4582 118.465 31.5034 118.208C31.7912 116.591 32.0947 114.977 32.4219 113.367C32.4743 113.112 32.2672 112.869 31.9595 112.826C31.6517 112.782 31.3604 112.955 31.3082 113.211V113.211ZM28.0549 132.689C27.8318 134.322 27.6425 135.961 27.5188 137.602C27.4994 137.86 27.736 138.084 28.0472 138.099C28.3586 138.115 28.6268 137.919 28.6463 137.661C28.768 136.04 28.9563 134.417 29.1769 132.794C29.2123 132.537 28.9892 132.304 28.6791 132.275C28.3697 132.245 28.0895 132.431 28.0549 132.689ZM29.1504 152.357C29.743 153.95 30.4973 155.503 31.4199 156.975C31.5641 157.205 31.9052 157.294 32.1818 157.175C32.4584 157.055 32.5661 156.771 32.4219 156.541C31.5335 155.124 30.8039 153.622 30.2295 152.08C30.1372 151.832 29.8212 151.693 29.5229 151.77C29.2251 151.846 29.0581 152.109 29.1504 152.357V152.357ZM44.5145 166.878C46.3985 167.459 48.3473 167.85 50.3379 168.108C50.6455 168.148 50.9344 167.971 50.9827 167.716C51.0303 167.459 50.8197 167.218 50.5114 167.18C48.5814 166.929 46.7074 166.552 44.9076 165.997C44.6151 165.907 44.2897 166.031 44.1814 166.274C44.0733 166.518 44.2221 166.788 44.5145 166.878ZM68.1248 168.381C69.1633 168.359 70.1983 168.346 71.2268 168.346C72.1559 168.346 73.0791 168.357 73.9952 168.384C74.307 168.394 74.5689 168.192 74.5801 167.932C74.5912 167.673 74.3476 167.455 74.0358 167.446C73.1032 167.418 72.1664 167.406 71.2268 167.406C70.1865 167.406 69.1427 167.42 68.0978 167.441C67.7858 167.448 67.5388 167.663 67.5465 167.922C67.554 168.182 67.813 168.387 68.1248 168.381V168.381ZM91.0855 171.301C92.903 171.883 94.6836 172.546 96.4164 173.288C96.6936 173.406 97.0341 173.315 97.1771 173.085C97.3196 172.853 97.2101 172.57 96.9329 172.452C95.1642 171.696 93.3468 171.018 91.4915 170.425C91.2003 170.331 90.8732 170.452 90.7614 170.694C90.649 170.936 90.7942 171.207 91.0855 171.301ZM110.447 181.918C111.62 182.927 112.734 183.982 113.782 185.083C113.942 185.252 114.102 185.423 114.259 185.593C114.449 185.8 114.804 185.838 115.051 185.681C115.298 185.523 115.346 185.227 115.156 185.022C114.995 184.848 114.832 184.674 114.668 184.501C113.596 183.375 112.458 182.295 111.259 181.265C111.042 181.078 110.684 181.073 110.46 181.253C110.236 181.434 110.23 181.732 110.447 181.918V181.918ZM122.402 198.423C123.017 199.96 123.534 201.524 123.949 203.107C124.015 203.361 124.316 203.522 124.621 203.467C124.926 203.411 125.119 203.161 125.053 202.908C124.63 201.292 124.102 199.695 123.474 198.126C123.375 197.881 123.055 197.748 122.759 197.829C122.463 197.911 122.304 198.178 122.402 198.423Z" fill="#96B0E1"/>
    <path d="M124.83 217.719C124.714 218.538 124.568 219.356 124.394 220.17C124.338 220.426 124.543 220.67 124.85 220.715C125.157 220.762 125.451 220.591 125.506 220.336C125.685 219.503 125.834 218.667 125.952 217.83C125.989 217.572 125.768 217.337 125.457 217.307C125.148 217.277 124.867 217.461 124.83 217.719" fill="#96B0E1"/>
    <path d="M222.851 413.249C222.771 412.847 222.732 412.448 222.732 412.052C222.732 411.665 222.769 411.281 222.84 410.903C222.888 410.646 222.677 410.406 222.369 410.368C222.06 410.327 221.772 410.503 221.724 410.758C221.644 411.184 221.602 411.616 221.602 412.052C221.602 412.499 221.646 412.95 221.736 413.403C221.787 413.659 222.078 413.832 222.385 413.789C222.694 413.746 222.902 413.504 222.851 413.249" fill="#96B0E1"/>
    <path d="M235.38 402.521L235.631 402.52C237.504 402.52 239.349 402.8 241.134 403.301C241.429 403.384 241.75 403.252 241.849 403.006C241.949 402.76 241.791 402.493 241.495 402.411C239.608 401.881 237.639 401.58 235.631 401.58L235.362 401.581C235.05 401.586 234.802 401.8 234.806 402.06C234.812 402.319 235.068 402.526 235.38 402.521ZM254.853 412.394C256.048 413.721 257.165 415.105 258.257 416.514C258.426 416.732 258.775 416.795 259.038 416.655C259.3 416.513 259.375 416.223 259.206 416.005C258.107 414.587 256.975 413.184 255.757 411.831C255.57 411.623 255.216 411.581 254.966 411.736C254.716 411.891 254.666 412.186 254.853 412.394V412.394ZM268.645 428.949C269.944 430.246 271.296 431.506 272.696 432.728C272.91 432.916 273.269 432.924 273.495 432.745C273.721 432.566 273.728 432.269 273.514 432.081C272.13 430.873 270.796 429.629 269.512 428.347C269.313 428.148 268.956 428.122 268.717 428.287C268.477 428.454 268.446 428.75 268.645 428.949V428.949ZM286.503 442.635C288.161 443.61 289.856 444.539 291.585 445.423C291.85 445.56 292.198 445.491 292.361 445.269C292.525 445.049 292.442 444.759 292.176 444.623C290.468 443.75 288.793 442.831 287.155 441.869C286.901 441.719 286.548 441.77 286.369 441.981C286.188 442.193 286.248 442.486 286.503 442.635V442.635ZM307.966 452.09C309.867 452.681 311.792 453.221 313.735 453.707C314.033 453.782 314.348 453.642 314.438 453.392C314.529 453.144 314.359 452.883 314.06 452.808C312.141 452.328 310.24 451.795 308.362 451.209C308.07 451.119 307.745 451.242 307.635 451.485C307.526 451.728 307.674 451.999 307.966 452.09ZM331.643 456.586C333.666 456.735 335.695 456.827 337.724 456.862C338.036 456.867 338.293 456.661 338.301 456.402C338.307 456.143 338.06 455.929 337.748 455.922C335.743 455.887 333.74 455.797 331.743 455.649C331.432 455.627 331.158 455.818 331.131 456.076C331.104 456.335 331.333 456.563 331.643 456.586V456.586ZM355.908 455.688C357.905 455.394 359.893 455.047 361.865 454.649C362.168 454.587 362.355 454.333 362.281 454.081C362.207 453.828 361.901 453.674 361.599 453.736C359.649 454.13 357.685 454.474 355.71 454.763C355.403 454.808 355.198 455.052 355.253 455.306C355.307 455.562 355.601 455.733 355.908 455.688ZM379.091 449.666C380.935 448.96 382.751 448.205 384.535 447.402C384.81 447.278 384.911 446.993 384.764 446.765C384.614 446.537 384.271 446.452 383.997 446.575C382.235 447.369 380.441 448.116 378.618 448.812C378.335 448.921 378.211 449.201 378.341 449.436C378.472 449.672 378.806 449.774 379.091 449.666V449.666ZM399.623 438.878C401.18 437.792 402.693 436.669 404.166 435.514C404.393 435.336 404.404 435.039 404.19 434.85C403.976 434.661 403.619 434.652 403.392 434.83C401.932 435.974 400.436 437.084 398.897 438.158C398.657 438.324 398.626 438.621 398.828 438.82C399.028 439.018 399.383 439.045 399.623 438.878V438.878ZM416.609 424.461C417.92 423.184 419.214 421.893 420.501 420.598C420.7 420.398 420.667 420.102 420.426 419.937C420.185 419.772 419.83 419.8 419.631 420C418.346 421.292 417.054 422.579 415.749 423.852C415.547 424.049 415.576 424.346 415.812 424.514C416.05 424.682 416.407 424.659 416.609 424.461V424.461ZM432.08 408.98C433.392 407.709 434.719 406.45 436.069 405.211C436.278 405.019 436.26 404.721 436.03 404.547C435.798 404.373 435.441 404.388 435.231 404.581C433.874 405.827 432.54 407.092 431.223 408.369C431.02 408.565 431.047 408.862 431.285 409.031C431.521 409.2 431.878 409.178 432.08 408.98V408.98ZM449.091 394.821C450.654 393.778 452.26 392.776 453.905 391.823C454.161 391.673 454.223 391.382 454.045 391.168C453.866 390.956 453.515 390.903 453.258 391.052C451.593 392.018 449.966 393.032 448.384 394.088C448.14 394.251 448.103 394.547 448.297 394.748C448.493 394.951 448.848 394.984 449.091 394.821ZM469.761 384.793C471.647 384.211 473.556 383.714 475.478 383.313C475.78 383.251 475.964 382.995 475.889 382.744C475.812 382.492 475.506 382.339 475.203 382.403C473.238 382.812 471.29 383.32 469.368 383.912C469.076 384.002 468.927 384.273 469.035 384.516C469.144 384.759 469.469 384.883 469.761 384.793" fill="#96B0E1"/>
    <path d="M493.301 382.597C494.271 382.734 495.24 382.9 496.208 383.1C496.511 383.163 496.817 383.01 496.892 382.759C496.968 382.507 496.782 382.251 496.481 382.189C495.484 381.983 494.487 381.81 493.488 381.67C493.181 381.628 492.89 381.799 492.837 382.056C492.786 382.311 492.993 382.553 493.301 382.597" fill="#96B0E1"/>
    <path d="M376.95 9.94434C377.789 9.78528 378.622 9.71015 379.445 9.71015C380.525 9.71015 381.59 9.83914 382.632 10.0784C382.932 10.1485 383.244 10.002 383.327 9.75149C383.409 9.50225 383.233 9.24298 382.933 9.1741C381.801 8.91359 380.633 8.77082 379.445 8.77082C378.54 8.77082 377.622 8.85348 376.699 9.02757C376.395 9.08518 376.205 9.33692 376.274 9.58992C376.343 9.84291 376.646 10.0007 376.95 9.94434V9.94434ZM395.313 19.6971L395.407 19.8461C396.282 21.2551 397.055 22.723 397.796 24.2134C397.916 24.4526 398.246 24.5666 398.534 24.4677C398.823 24.3675 398.96 24.0932 398.84 23.854C398.093 22.3523 397.308 20.8606 396.412 19.4153L396.314 19.26C396.169 19.0308 395.827 18.9419 395.551 19.0634C395.274 19.1836 395.169 19.4679 395.313 19.6971V19.6971ZM406.025 37.6797C406.138 37.7936 406.252 37.9064 406.37 38.0191C407.62 39.2252 408.995 40.281 410.473 41.2015C410.721 41.3568 411.075 41.3155 411.263 41.1076C411.45 40.8997 411.399 40.6054 411.15 40.4501C409.735 39.5671 408.421 38.5589 407.225 37.4054L406.895 37.081C406.696 36.8806 406.341 36.8531 406.1 37.0171C405.86 37.1825 405.826 37.4793 406.025 37.6797V37.6797ZM427.441 46.5895C429.428 46.8438 431.448 47.0179 433.477 47.1331C433.788 47.1494 434.058 46.954 434.079 46.696C434.1 46.4367 433.865 46.2126 433.553 46.195C431.552 46.0823 429.563 45.9107 427.611 45.6615C427.304 45.6227 427.015 45.798 426.968 46.0547C426.92 46.3115 427.132 46.5507 427.441 46.5895V46.5895ZM451.588 47.1957C451.761 47.1957 451.936 47.1957 452.109 47.1957C453.933 47.1957 455.763 47.2208 457.586 47.2871C457.898 47.2984 458.161 47.0968 458.175 46.8375C458.189 46.5783 457.948 46.3591 457.636 46.3478C455.792 46.2814 453.945 46.2564 452.109 46.2564C451.934 46.2564 451.76 46.2564 451.583 46.2576C451.272 46.2576 451.02 46.4693 451.022 46.7286C451.022 46.9878 451.276 47.197 451.588 47.1957V47.1957ZM475.097 49.9661C476.939 50.576 478.696 51.3138 480.349 52.2042C480.611 52.3458 480.96 52.2844 481.131 52.0665C481.299 51.8485 481.226 51.558 480.963 51.4164C479.243 50.4896 477.418 49.7231 475.514 49.0932C475.225 48.998 474.896 49.1145 474.78 49.3562C474.666 49.5967 474.806 49.8709 475.097 49.9661" fill="#96B0E1"/>
    <path d="M262.68 119.191L259.84 118.192L275.087 88.2733L277.925 89.274L262.68 119.191" fill="#2E2C2D"/>
    <path d="M246.474 148.141C242.482 146.735 240.617 142.903 242.309 139.585L256.465 111.803C258.156 108.484 262.764 106.933 266.756 108.34C270.749 109.746 272.614 113.578 270.922 116.897L256.765 144.678C255.073 147.997 250.467 149.548 246.474 148.141Z" fill="#6096D6"/>
    <path d="M328.29 72.3585L323.435 70.6477C320.64 76.1296 316.07 80.4856 310.497 83.499C304.925 86.5098 298.359 88.1543 291.648 88.153C287.163 88.153 282.612 87.4241 278.205 85.8711C271.613 83.5478 266.373 79.7466 262.749 75.1139C259.128 70.4798 257.15 65.0205 257.152 59.4408C257.152 55.7111 258.03 51.9274 259.896 48.2628C262.692 42.7821 267.262 38.4248 272.835 35.4115C278.407 32.4006 284.973 30.7562 291.683 30.7574C296.169 30.7574 300.719 31.4876 305.127 33.0394C311.718 35.3639 316.958 39.1638 320.583 43.7978C324.204 48.4306 326.181 53.89 326.18 59.4696C326.18 63.1994 325.302 66.983 323.435 70.6477L328.29 72.3585L333.143 74.0681C335.57 69.31 336.725 64.3454 336.724 59.4696C336.722 52.1691 334.147 45.0653 329.424 39.021C324.705 32.9767 317.809 27.9845 309.24 24.9674C303.518 22.9497 297.547 21.9891 291.683 21.9903C282.903 21.9916 274.359 24.1332 267.09 28.0596C259.821 31.9835 253.817 37.7172 250.188 44.8424C247.762 49.6004 246.606 54.5651 246.608 59.4408C246.609 66.7413 249.185 73.8452 253.907 79.8894C258.626 85.9337 265.522 90.9272 274.091 93.9443C279.814 95.9608 285.784 96.9214 291.648 96.9201C300.429 96.9201 308.972 94.7784 316.241 90.8508C323.511 86.9269 329.516 81.1945 333.143 74.0681L328.29 72.3585" fill="#4378C5"/>
    <path d="M323.155 69.9187C315.838 84.278 295.905 90.986 278.636 84.9029C261.366 78.8186 253.297 62.245 260.615 47.8858C267.932 33.5265 287.863 26.8172 305.134 32.9015C322.404 38.9859 330.471 55.5582 323.155 69.9187Z" fill="#BDEAFB"/>
    <path d="M287.116 55.8075C279.729 55.8075 273.74 51.6945 273.74 46.6208C273.74 41.5472 279.729 37.4342 287.116 37.4342C294.503 37.4342 300.492 41.5472 300.492 46.6208C300.492 51.6945 294.503 55.8075 287.116 55.8075Z" fill="#D3F1FC"/>
    </svg>
