<svg width="521" height="568" viewBox="0 0 521 568" fill="none" xmlns="http://www.w3.org/2000/svg">
    <path d="M274.567 526.069C231.58 526.069 188.622 520.333 147.178 507.657C117.341 498.532 87.5195 485.252 65.2937 461.078C54.8164 449.683 46.4699 436.086 40.3854 421.252C45.7729 426.785 51.6611 431.659 57.817 435.749C64.4169 440.133 71.3556 443.705 78.5177 446.549V463.158C78.5177 470.261 82.9327 476.017 88.3787 476.017H174.075V508.408C174.075 510.316 175.455 511.867 177.151 511.867H321.06C322.757 511.867 324.136 510.316 324.136 508.408V507.941C327.531 508.287 330.937 508.459 334.344 508.459C348.838 508.459 363.309 505.325 376.704 498.91C379.236 497.697 381.742 496.341 384.206 494.851C384.832 496.52 385.944 497.879 387.391 498.723C388.39 499.307 389.476 499.603 390.569 499.603C391.271 499.603 391.977 499.48 392.665 499.235C394.428 498.607 395.867 497.246 396.719 495.402C397.57 493.557 397.731 491.45 397.173 489.468L396.258 486.218C400.034 483.06 403.634 479.58 407.005 475.816L409.85 477.476C410.851 478.059 411.937 478.355 413.032 478.355C413.734 478.355 414.438 478.234 415.126 477.987C416.888 477.361 418.327 476 419.177 474.154C420.913 470.395 419.641 465.757 416.349 463.738C417.82 461.521 419.214 459.239 420.519 456.9C428.181 454.527 435.591 451.376 442.636 447.37C443.984 449.728 446.196 451.442 448.849 451.876C449.28 451.946 449.71 451.982 450.134 451.982C454.484 451.98 458.302 448.382 458.944 443.402L460.029 435.013C465.85 434.658 471.453 433.058 476.715 430.252L481.223 437.045C482.646 439.189 484.727 440.582 487.082 440.968C487.515 441.038 487.948 441.073 488.379 441.073C490.164 441.073 491.897 440.473 493.387 439.327C491.551 442.163 489.627 444.93 487.616 447.62C450.276 497.576 389.371 516.245 331.634 522.793C312.685 524.943 293.626 526.07 274.567 526.069ZM321.06 509.316H177.151C176.706 509.316 176.343 508.908 176.343 508.408V476.017H231.935H256.419H259.178C267.039 484.168 275.991 490.903 285.506 496.038C296.936 502.21 309.293 506.125 321.867 507.686V508.408C321.867 508.908 321.505 509.316 321.06 509.316V509.316ZM192.433 494.426C191.807 494.426 191.299 494.996 191.299 495.701C191.299 496.407 191.807 496.977 192.433 496.977H232.806C233.433 496.977 233.94 496.407 233.94 495.701C233.94 494.996 233.433 494.426 232.806 494.426H192.433ZM192.433 481.807C191.807 481.807 191.299 482.377 191.299 483.083C191.299 483.787 191.807 484.358 192.433 484.358H252.298C252.925 484.358 253.432 483.787 253.432 483.083C253.432 482.377 252.925 481.807 252.298 481.807H192.433ZM390.57 497.05C389.835 497.05 389.106 496.851 388.435 496.459C387.391 495.851 386.607 494.842 386.208 493.605C388.976 491.833 391.686 489.895 394.322 487.797L395.011 490.239C395.385 491.571 395.278 492.987 394.705 494.227C394.132 495.467 393.165 496.38 391.981 496.803C391.517 496.968 391.043 497.05 390.57 497.05ZM413.033 475.802C412.297 475.802 411.567 475.603 410.896 475.212L408.67 473.913C410.878 471.326 412.977 468.615 414.948 465.793L415.179 465.928C417.454 467.258 418.345 470.422 417.164 472.979C416.592 474.219 415.626 475.134 414.442 475.556C413.978 475.721 413.505 475.802 413.033 475.802V475.802ZM450.132 449.429C449.815 449.429 449.495 449.404 449.174 449.351C447.272 449.04 445.673 447.845 444.661 446.19C445.743 445.542 446.815 444.875 447.879 444.185C451.21 442.026 454.403 439.684 457.456 437.179L456.7 443.035C456.221 446.749 453.375 449.429 450.132 449.429V449.429ZM488.382 438.522C488.06 438.522 487.734 438.497 487.409 438.442C485.653 438.156 484.102 437.118 483.041 435.519L477.404 427.025L476.555 427.502C472.32 429.883 467.841 431.431 463.194 432.122C470.295 425.412 476.502 417.781 481.735 409.531C484.335 406.354 486.4 402.705 487.858 398.728C491.685 391.129 494.741 383.159 496.973 375.022C497.413 373.417 497.826 371.821 498.209 370.231C499.36 374.332 500.005 378.589 500.135 382.955L500.166 384.022L509.494 385.546C511.983 385.953 513.951 387.874 514.769 390.358C513.986 393.316 513.13 396.254 512.205 399.158C511.142 399.95 509.875 400.403 508.54 400.403C508.224 400.403 507.905 400.377 507.584 400.326L498.258 398.802L497.959 399.813C496.01 406.38 492.893 412.268 488.695 417.313L488.046 418.092L493.682 426.587C495.874 429.886 495.268 434.574 492.335 437.037C491.176 438.009 489.802 438.522 488.382 438.522V438.522ZM497.007 433.453C497.622 430.642 497.157 427.555 495.502 425.061L490.994 418.268C494.882 413.395 497.84 407.808 499.8 401.631L507.259 402.849C507.692 402.921 508.123 402.955 508.549 402.955C509.424 402.955 510.278 402.809 511.091 402.534C507.393 413.377 502.685 423.769 497.007 433.453ZM515.646 386.905C514.281 384.871 512.234 383.416 509.82 383.022L502.36 381.802C502.093 376.268 501.036 370.91 499.209 365.812C499.518 364.341 499.803 362.874 500.064 361.411L504.167 357.966C508.104 354.664 508.917 348.373 505.979 343.947C504.961 342.412 503.622 341.298 502.145 340.638C502.356 330.527 501.395 320.342 499.259 309.74C494.597 286.59 486.725 263.254 489.17 239.134C489.22 238.637 489.274 238.139 489.335 237.643C505.959 262.813 516.932 292.687 520.07 323.819C521.012 333.172 521.229 342.619 520.744 352.02C520.136 363.806 518.421 375.526 515.646 386.905V386.905ZM500.673 357.715C501.396 352.93 501.857 348.17 502.058 343.402C502.871 343.908 503.588 344.609 504.16 345.471C506.35 348.771 505.745 353.459 502.81 355.921L500.673 357.715ZM401.205 88.3463C400.414 88.0427 399.624 87.7455 398.83 87.4533C370.463 77.0031 341.32 69.0569 311.871 69.0569C307.437 69.0569 303.001 69.2368 298.555 69.6157C291.329 70.2305 284.691 70.6502 278.526 70.8875C264.622 68.6717 250.765 67.4802 237 67.3756C257.85 52.7118 283.744 44.9672 309.458 44.9672C324.36 44.9672 339.204 47.5696 352.966 52.9325C371.262 60.0622 387.949 72.4362 401.205 88.3463" fill="#F6F5FB"/>
    <path d="M223.904 46.1179C215.576 46.1179 208.825 38.5251 208.825 29.1605C208.825 19.7945 215.576 12.203 223.904 12.203C232.231 12.203 238.982 19.7945 238.982 29.1605C238.982 38.5251 232.231 46.1179 223.904 46.1179" fill="#F9F8FC"/>
    <path d="M427.652 27.5696C423.355 27.5696 419.872 23.6508 419.872 18.8199C419.872 13.9876 423.355 10.0701 427.652 10.0701C431.949 10.0701 435.432 13.9876 435.432 18.8199C435.432 23.6508 431.949 27.5696 427.652 27.5696Z" fill="#F9F8FC"/>
    <path d="M32.7934 519.037C19.6838 519.037 9.05627 507.086 9.05627 492.341C9.05627 477.598 19.6838 465.645 32.7934 465.645C45.9037 465.645 56.5316 477.598 56.5316 492.341C56.5316 507.086 45.9037 519.037 32.7934 519.037" fill="#F9F8FC"/>
    <path d="M492.972 94.0269C488.171 94.0269 483.337 91.2663 479.186 84.3292C470.913 70.5048 450.627 57.7826 457.395 42.9593C461.423 34.133 472.029 30.3647 482.737 30.3647C490.013 30.3647 497.337 32.106 502.671 35.1854C515.851 42.7948 521.052 60.9807 514.285 75.8052C509.953 85.2936 501.512 94.0281 492.972 94.0269" fill="#F9FBFD"/>
    <path d="M467.778 535.109C463.96 535.109 460.095 533.913 456.649 531.41C447.112 524.487 439.586 509.104 453.529 500.673C461.839 495.646 470.261 483.447 478.343 483.447C479.986 483.447 481.613 483.951 483.223 485.12C492.76 492.044 491.222 513.804 485.065 524.529C481.133 531.378 474.526 535.109 467.778 535.109" fill="#F5F3FA"/>
    <path d="M33.2352 62.1964C30.3902 62.1951 27.7308 61.1963 25.3478 58.7074C14.8585 47.752 21.0197 21.111 30.7611 9.31361C35.8685 3.12917 42.8037 -1.21766e-05 49.7603 -1.21766e-05C56.0725 -1.21766e-05 62.4026 2.57809 67.3922 7.79047C77.8823 18.7446 84.2243 39.7089 65.2609 46.7328C54.7534 50.6261 42.9141 62.1964 33.2352 62.1964Z" fill="#F5F3FA"/>
    <path d="M40.3854 421.252C37.8213 418.619 35.3709 415.837 33.0576 412.918C33.4457 413.117 33.8764 413.228 34.3301 413.228H37.3555C38.2936 415.938 39.3038 418.615 40.3854 421.252V421.252ZM31.3787 410.743C17.9402 392.866 9.67572 370.233 11.9368 345.73C13.6533 327.131 14.5005 309.715 17.8853 290.917C23.443 260.056 7.42748 237.83 2.15294 208.899C-2.33467 184.292 0.219292 157.97 9.5707 135.138C11.6612 130.036 14.0902 125.108 16.856 120.413C40.8511 79.6832 84.1946 43.8816 125.965 43.8816C131.412 43.8816 136.833 44.4901 142.18 45.7759C181.138 55.147 203.166 63.1276 226.397 67.5121C185.533 68.8809 145.512 80.043 107.206 102.657C91.2078 112.1 65.1586 140.242 59.7941 159.646C58.7812 163.307 58.1998 167.003 57.906 170.72C56.4651 188.953 61.9328 207.74 57.3624 225.797C51.8907 247.413 36.0515 263.605 29.5952 284.828C21.0179 313.023 20.5221 344.272 28.9288 372.501C29.3919 378.423 30.1691 384.31 31.2546 390.122V409.769C31.2546 410.107 31.2981 410.433 31.3787 410.743V410.743ZM64.9034 106.484C63.9639 106.484 63.2019 107.34 63.2019 108.397C63.2019 109.453 63.9639 110.311 64.9034 110.311C65.8432 110.311 66.6048 109.453 66.6048 108.397C66.6048 107.34 65.8432 106.484 64.9034 106.484ZM153.01 55.3983C147.252 55.3983 142.585 60.6477 142.585 67.123C142.585 73.5982 147.252 78.8464 153.01 78.8464C158.767 78.8464 163.435 73.5982 163.435 67.123C163.435 60.6477 158.767 55.3983 153.01 55.3983ZM36.4973 410.677H34.3301C33.8852 410.677 33.5232 410.269 33.5232 409.769V400.424C34.4032 403.885 35.3944 407.304 36.4973 410.677V410.677ZM489.334 237.643C486.376 233.165 483.236 228.83 479.933 224.67C480.265 221.749 480.515 218.816 480.687 215.876C480.704 215.588 480.719 215.298 480.735 215.009C481.433 201.772 479.688 188.888 475.894 176.963V151.172C475.894 147.997 473.585 145.399 470.761 145.399H459.32C455.557 140.595 451.365 136.191 446.794 132.27V116.333C446.794 113.986 445.102 112.083 443.014 112.083H416.656C415.24 108.971 413.625 105.908 411.751 102.912C408.548 97.79 405.019 92.9221 401.205 88.3463C435.001 101.297 466.745 124.209 485.876 158.05C491.239 167.535 495.624 178.045 496.456 189.245C497.672 205.604 491.271 221.365 489.334 237.643" fill="#F5F3FA"/>
    <path d="M420.519 456.9C425.834 447.379 429.707 436.885 431.572 425.801C434.893 428.455 438.514 430.575 442.397 432.132L441.314 440.521C440.993 443.004 441.514 445.409 442.636 447.37C435.591 451.376 428.18 454.527 420.519 456.9V456.9ZM78.5177 446.549C71.3555 443.705 64.4169 440.133 57.817 435.749C51.6611 431.659 45.7729 426.785 40.3854 421.252C39.3038 418.615 38.2936 415.938 37.3555 413.228H50.3075C52.4007 415.578 54.6232 417.768 56.9791 419.771C63.5098 425.32 70.8123 429.223 78.5177 431.825V446.549V446.549ZM444.661 446.19C443.746 444.694 443.308 442.822 443.558 440.887L444.913 430.4L444.013 430.062C439.653 428.425 435.628 426.055 432 422.992C432.632 418.358 432.909 413.629 432.794 408.83C439.205 417.122 448.339 421.482 457.578 421.482C464.402 421.482 471.282 419.103 477.159 414.171C478.826 412.772 480.355 411.218 481.735 409.531C476.502 417.781 470.295 425.412 463.194 432.122C461.811 432.328 460.413 432.456 459.003 432.51L458.055 432.544L457.456 437.179C454.403 439.684 451.21 442.026 447.879 444.185C446.815 444.875 445.743 445.542 444.661 446.19V446.19ZM457.574 418.932C448.258 418.932 439.053 414.167 433.066 405.146C432.899 404.896 432.736 404.642 432.577 404.389C432.224 399.475 431.523 394.569 430.752 389.674L432.2 380.84L435.495 374.592L460.426 402.935C463.424 406.345 467.354 408.05 471.285 408.05C475.216 408.05 479.146 406.345 482.145 402.935C485.144 399.526 486.643 395.058 486.643 390.589C486.643 386.12 485.144 381.652 482.145 378.242L457.529 350.255C458.987 350.259 460.457 350.38 461.927 350.62C469.999 351.937 477.13 356.712 482.009 364.064C486.888 371.414 488.93 380.463 487.756 389.54C486.584 398.619 482.338 406.639 475.802 412.126C470.33 416.716 463.927 418.932 457.574 418.932V418.932ZM48.135 410.677H36.4973C35.3944 407.304 34.4032 403.885 33.5232 400.424V385.486C37.3188 394.67 42.1556 403.334 48.135 410.677ZM487.858 398.728C488.882 395.934 489.604 392.976 490.002 389.906C491.261 380.155 489.069 370.436 483.827 362.538C478.587 354.641 470.926 349.511 462.253 348.094C460.654 347.832 459.055 347.702 457.468 347.702C456.759 347.702 456.054 347.729 455.351 347.78L451.773 343.713L455.456 336.726C455.661 336.715 455.867 336.706 456.072 336.698L457.02 336.663L457.517 332.819L464.376 319.806C464.562 319.788 464.748 319.779 464.938 319.779C465.255 319.779 465.576 319.805 465.901 319.857C467.656 320.144 469.206 321.182 470.267 322.781C471.327 324.379 471.772 326.346 471.517 328.32L470.162 338.81L471.062 339.146C476.898 341.337 482.134 344.841 486.621 349.565L487.315 350.294L494.869 343.954H494.868C496.027 342.982 497.404 342.469 498.823 342.469C499.145 342.469 499.47 342.496 499.794 342.549C500.602 342.681 501.365 342.972 502.058 343.402C501.857 348.17 501.396 352.93 500.673 357.715L495.258 362.263L495.682 363.217C496.695 365.495 497.538 367.836 498.209 370.231C497.826 371.821 497.413 373.417 496.973 375.022C494.741 383.159 491.685 391.129 487.858 398.728V398.728ZM31.2546 390.122C30.1691 384.31 29.3919 378.423 28.9288 372.501C29.64 374.889 30.4155 377.258 31.2546 379.599V390.122ZM499.209 365.812C498.874 364.878 498.513 363.953 498.128 363.037L500.064 361.411C499.803 362.874 499.518 364.341 499.209 365.812ZM487.471 346.979C483.137 342.605 478.168 339.279 472.677 337.076L473.76 328.686C474.103 326.039 473.509 323.4 472.085 321.255C470.662 319.111 468.581 317.718 466.226 317.334C466.055 317.306 465.885 317.283 465.716 317.266L488.579 273.897C489.17 272.775 488.841 271.327 487.844 270.661L484.295 268.295L485.355 266.282C485.947 265.159 485.619 263.711 484.62 263.045L473.36 255.538C476.523 245.575 478.741 235.201 479.933 224.671C483.237 228.83 486.376 233.165 489.335 237.643C489.274 238.139 489.22 238.637 489.17 239.134C486.725 263.254 494.597 286.59 499.259 309.74C501.395 320.342 502.356 330.527 502.145 340.638C501.088 340.164 499.961 339.923 498.828 339.923C496.975 339.923 495.107 340.57 493.512 341.909L487.471 346.979V346.979ZM416.656 112.083H407.621L341.881 87.7671C320.719 79.9396 299.562 74.2412 278.526 70.8875C284.691 70.6502 291.329 70.2305 298.555 69.6157C303.001 69.2368 307.437 69.0569 311.871 69.0569C341.32 69.0569 370.463 77.0031 398.83 87.4533C399.624 87.7454 400.414 88.0427 401.205 88.3463C405.019 92.9221 408.548 97.7901 411.751 102.912C413.625 105.908 415.24 108.971 416.656 112.083" fill="#EEEBF7"/>
    <path d="M153.01 78.8464C147.252 78.8464 142.585 73.5983 142.585 67.123C142.585 60.6477 147.252 55.3984 153.01 55.3984C158.767 55.3984 163.435 60.6477 163.435 67.123C163.435 73.5983 158.767 78.8464 153.01 78.8464" fill="#F0EDF8"/>
    <path d="M234.842 68.9319C231.99 68.5135 229.183 68.0377 226.397 67.5121C229.271 67.4164 232.15 67.368 235.032 67.368C235.689 67.368 236.343 67.3705 237 67.3756C236.273 67.8871 235.555 68.4038 234.842 68.9319" fill="#EBE7F6"/>
    <path d="M334.344 508.459C330.937 508.459 327.531 508.287 324.136 507.941V452.693C328.928 454.362 333.821 455.843 338.779 457.121C337.737 457.85 336.884 458.883 336.304 460.14C335.453 461.984 335.291 464.092 335.85 466.073C336.781 469.384 339.511 471.506 342.448 471.504C343.139 471.504 343.84 471.388 344.533 471.141L349.653 469.317C351.718 473.447 354.408 477.046 357.671 480.036L355.197 485.398C354.345 487.242 354.184 489.35 354.742 491.33C355.3 493.312 356.509 494.931 358.15 495.888C359.166 496.48 360.252 496.76 361.325 496.76C363.828 496.76 366.247 495.231 367.478 492.566L369.953 487.204C372.903 488.135 375.913 488.603 378.949 488.603C380.083 488.603 381.221 488.539 382.36 488.407L383.982 494.167C384.048 494.4 384.123 494.628 384.206 494.851C381.742 496.341 379.236 497.697 376.704 498.91C363.309 505.325 348.838 508.459 334.344 508.459V508.459ZM321.867 507.686C309.293 506.125 296.936 502.21 285.506 496.038C275.991 490.903 267.039 484.168 259.178 476.017H267.055C271.006 476.017 274.488 473.764 276.542 470.337H303.471C304.097 470.337 304.605 469.767 304.605 469.062C304.605 468.358 304.097 467.786 303.471 467.786H277.727C278.219 466.351 278.489 464.789 278.489 463.158V443.899H302.253C307.429 446.094 312.593 448.332 317.806 450.362C319.151 450.885 320.506 451.395 321.867 451.889V507.686V507.686ZM280.17 481.807C279.543 481.807 279.036 482.377 279.036 483.083C279.036 483.787 279.543 484.358 280.17 484.358H303.471C304.097 484.358 304.605 483.787 304.605 483.083C304.605 482.377 304.097 481.807 303.471 481.807H280.17ZM280.17 454.566C279.543 454.566 279.036 455.137 279.036 455.842C279.036 456.547 279.543 457.117 280.17 457.117H303.471C304.097 457.117 304.605 456.547 304.605 455.842C304.605 455.137 304.097 454.566 303.471 454.566H280.17V454.566ZM416.348 463.738C416.308 463.713 416.267 463.688 416.225 463.664L411.456 460.882C411.592 460.336 411.717 459.789 411.832 459.239C414.758 458.565 417.655 457.787 420.519 456.9C419.214 459.239 417.82 461.521 416.348 463.738ZM296.148 441.348H278.489V435.091C284.485 436.772 290.34 438.972 296.148 441.348ZM266.615 71.1273C254.665 71.1273 244.479 70.3466 234.842 68.9319C235.555 68.4038 236.273 67.8871 237 67.3756C250.765 67.4802 264.622 68.6716 278.526 70.8875C274.354 71.0495 270.396 71.1273 266.615 71.1273" fill="#E9E5F5"/>
    <path d="M28.9288 372.501C20.5221 344.272 21.0179 313.023 29.5953 284.828C36.0515 263.605 51.8907 247.413 57.3624 225.797C61.9328 207.74 56.4651 188.953 57.906 170.72C58.1998 167.003 58.7812 163.307 59.7941 159.646C65.1586 140.242 91.2078 112.1 107.206 102.657C145.512 80.043 185.533 68.8809 226.397 67.5121C229.183 68.0377 231.99 68.5135 234.842 68.9319C226.044 75.434 218.205 83.2117 211.748 92.1899H150.016H144.364C143.346 92.1899 142.521 93.1185 142.521 94.2628V100.619V147.921C140.07 149.367 138.317 152.155 138.091 155.486L137.402 165.638C130.604 166.415 124.197 168.842 118.53 172.589L112.633 164.862C110.991 162.711 108.666 161.605 106.328 161.605C104.415 161.605 102.492 162.345 100.925 163.857C97.4451 167.216 97.0455 173.111 100.031 177.024L105.927 184.751C101.773 190.481 98.6677 197.236 96.9529 204.674L87.9258 203.9C87.7105 203.881 87.496 203.872 87.2838 203.872C82.9859 203.872 79.3476 207.6 79.0153 212.499C78.6662 217.64 82.0894 222.128 86.6617 222.521L95.6888 223.295C95.7818 224.327 95.9019 225.352 96.0477 226.366C68.2075 245.706 46.4061 275.923 35.6426 311.356H34.3301C32.634 311.356 31.2546 312.908 31.2546 314.816V329.209C31.0322 330.381 30.8222 331.559 30.6241 332.74C28.4326 345.808 27.8912 359.233 28.9288 372.501V372.501ZM33.5233 318.961V314.816C33.5233 314.315 33.8852 313.907 34.3301 313.907H34.8889C34.4095 315.58 33.953 317.267 33.5233 318.961ZM479.933 224.67C475.596 219.206 470.972 214.033 466.088 209.193C459.375 202.541 452.072 196.332 445.886 189.134H470.761C473.585 189.134 475.894 186.537 475.894 183.362V176.963C479.688 188.888 481.433 201.772 480.735 215.009C480.719 215.298 480.704 215.588 480.687 215.876C480.515 218.816 480.265 221.749 479.933 224.67V224.67ZM459.32 145.399H446.794V132.27C451.365 136.191 455.557 140.595 459.32 145.399Z" fill="#E8E4F5"/>
    <path d="M411.832 459.239C412.209 457.417 412.463 455.577 412.595 453.725L417.938 454.833C418.066 454.859 418.194 454.872 418.32 454.872C419.314 454.872 420.196 454.076 420.383 452.938L425.068 424.358L427.603 422.229C428.872 423.51 430.197 424.702 431.572 425.801C429.707 436.885 425.834 447.379 420.519 456.9C417.655 457.787 414.758 458.565 411.832 459.239V459.239ZM338.779 457.121C333.821 455.843 328.928 454.362 324.136 452.693V435.388L345.233 439.761L346.546 440.527C345.409 445.085 345.05 449.77 345.477 454.483L340.355 456.306C339.795 456.506 339.266 456.781 338.779 457.121V457.121ZM321.867 451.889C320.506 451.395 319.151 450.885 317.806 450.362C312.593 448.332 307.429 446.094 302.253 443.899H303.471C304.097 443.899 304.605 443.328 304.605 442.623C304.605 441.918 304.097 441.348 303.471 441.348H296.148C290.34 438.972 284.485 436.772 278.489 435.091V425.925L321.867 434.917V451.889V451.889ZM78.5177 431.825C70.8123 429.223 63.5098 425.32 56.9791 419.771C54.6232 417.768 52.4007 415.578 50.3075 413.228H78.5177V431.825V431.825ZM78.5177 410.677H48.135C42.1556 403.334 37.3188 394.67 33.5233 385.486V318.961C33.953 317.267 34.4095 315.58 34.8889 313.907H79.5493C78.8882 315.71 78.5177 317.728 78.5177 319.86V342.276H54.3406C53.714 342.276 53.2063 342.846 53.2063 343.551C53.2063 344.255 53.714 344.827 54.3406 344.827H78.5177V355.498V358.033H54.3406C53.714 358.033 53.2063 358.603 53.2063 359.308C53.2063 360.014 53.714 360.584 54.3406 360.584H78.5177V372.892H54.3406C53.714 372.892 53.2063 373.462 53.2063 374.167C53.2063 374.871 53.714 375.443 54.3406 375.443H78.5177V387.748H54.3406C53.714 387.748 53.2063 388.318 53.2063 389.024C53.2063 389.729 53.714 390.299 54.3406 390.299H78.5177V396.468V410.677V410.677ZM31.2546 379.599C30.4155 377.258 29.6401 374.889 28.9288 372.501C27.8912 359.233 28.4326 345.808 30.6241 332.74C30.8222 331.559 31.0322 330.381 31.2546 329.209V379.599V379.599ZM80.7633 311.356H35.6426C46.4061 275.923 68.2075 245.706 96.0477 226.366C96.9835 232.87 98.9876 239.006 101.87 244.52L94.9998 251.151C91.5197 254.508 91.1192 260.403 94.1056 264.318C95.7477 266.47 98.0722 267.575 100.41 267.575C102.324 267.575 104.247 266.835 105.814 265.322L112.684 258.693C117.78 263.364 123.785 266.857 130.399 268.786L129.711 278.937C129.361 284.08 132.785 288.566 137.357 288.959C137.573 288.977 137.786 288.986 137.998 288.986C139.654 288.986 141.212 288.433 142.521 287.473V306.053H101.431H90.7945H89.1049C85.7175 306.053 82.7014 308.129 80.7633 311.356V311.356ZM473.36 255.538L454.769 243.142L455.996 235.654C456.207 234.372 455.453 233.14 454.313 232.904L452.475 232.522L453.344 227.219L428.303 222.029C425 209.859 419.59 198.716 412.553 189.134H445.886C452.072 196.332 459.375 202.542 466.088 209.193C470.972 214.033 475.596 219.206 479.933 224.671C478.741 235.201 476.522 245.575 473.36 255.538V255.538ZM300.082 170.354V94.708C300.082 93.3176 299.08 92.1899 297.844 92.1899H297.25H294.801H211.748C218.205 83.2117 226.044 75.434 234.842 68.9319C244.479 70.3466 254.665 71.1273 266.615 71.1273C270.396 71.1273 274.354 71.0495 278.526 70.8875C299.562 74.2412 320.719 79.9396 341.881 87.7671L407.621 112.083H358.633C356.545 112.083 354.852 113.986 354.852 116.333V150.078C354.852 152.427 356.545 154.33 358.633 154.33H372.19V158.632C364.247 155.86 355.81 154.367 347.068 154.367C329.708 154.367 313.546 160.258 300.082 170.354" fill="#E7E3F4"/>
    <path d="M361.329 494.21C360.609 494.21 359.878 494.021 359.196 493.622C358.093 492.979 357.279 491.892 356.904 490.56C356.53 489.229 356.638 487.813 357.211 486.574L360.552 479.329L359.801 478.679C356.211 475.57 353.319 471.705 351.207 467.19L350.765 466.245L343.848 468.709C343.383 468.875 342.912 468.955 342.447 468.955C340.475 468.955 338.638 467.527 338.012 465.302C337.638 463.971 337.744 462.554 338.317 461.314C338.889 460.075 339.856 459.16 341.041 458.739L342.807 458.11C347.147 459.123 351.532 459.978 355.943 460.661C358.104 467.019 362.208 472.197 367.623 475.359C371.192 477.441 375.066 478.495 378.973 478.495C381.48 478.495 384 478.062 386.458 477.186C392.748 474.946 397.884 470.086 400.924 463.501C401.286 462.718 401.613 461.92 401.904 461.113C404.41 460.739 406.901 460.295 409.372 459.779C409.264 460.238 409.146 460.695 409.02 461.151L408.738 462.171L414.948 465.793C412.977 468.615 410.878 471.326 408.67 473.913L404.455 471.454L403.877 472.298C401.111 476.335 397.673 479.587 393.659 481.964L392.82 482.46L394.322 487.797C391.686 489.895 388.976 491.833 386.208 493.605C386.185 493.537 386.165 493.468 386.144 493.398L383.955 485.617L383.013 485.755C381.659 485.951 380.307 486.05 378.959 486.05C375.835 486.05 372.738 485.521 369.714 484.465L368.807 484.149L365.464 491.389C364.638 493.181 363.011 494.21 361.329 494.21V494.21ZM396.258 486.218L395.551 483.71C399.224 481.388 402.423 478.363 405.084 474.694L407.005 475.816C403.634 479.579 400.034 483.06 396.258 486.218" fill="#E9E5F5"/>
    <path d="M401.904 461.113C402.976 458.144 403.575 455.028 403.692 451.88L410.35 453.26C410.21 455.454 409.884 457.631 409.372 459.779C406.901 460.295 404.41 460.739 401.904 461.113ZM355.943 460.661C351.532 459.978 347.147 459.123 342.807 458.11L347.958 456.276L347.835 455.217C347.263 450.251 347.624 445.309 348.91 440.524L349.237 440.591L354.938 444.393C353.932 449.206 354.093 454.254 355.455 459.091C355.604 459.622 355.767 460.146 355.943 460.661" fill="#E7E3F4"/>
    <path d="M378.976 475.944C375.429 475.942 371.909 474.986 368.669 473.094C364.124 470.442 360.597 466.224 358.538 461.044C365.972 462.082 373.468 462.631 380.927 462.631C381.38 462.631 381.83 462.629 382.283 462.625L385.509 464.775C385.845 465 386.214 465.106 386.579 465.106C387.295 465.106 387.994 464.693 388.387 463.95L389.202 462.401C392.584 462.213 395.941 461.907 399.284 461.476C399.165 461.761 399.04 462.044 398.91 462.325C396.151 468.306 391.484 472.72 385.772 474.754C383.541 475.548 381.253 475.944 378.976 475.944Z" fill="#E9E5F5"/>
    <path d="M380.927 462.631C373.468 462.631 365.972 462.082 358.538 461.044C358.188 460.162 357.88 459.254 357.617 458.319C356.455 454.191 356.256 449.895 356.995 445.763L382.283 462.625C381.83 462.629 381.38 462.631 380.927 462.631V462.631ZM389.202 462.401L395.63 450.209L401.435 451.412C401.352 454.865 400.63 458.281 399.284 461.477C395.941 461.907 392.584 462.213 389.202 462.401V462.401ZM432 422.992C430.771 421.955 429.588 420.839 428.453 419.644L427.76 418.915L425.673 420.667L428.7 402.199C429.442 403.735 430.29 405.23 431.247 406.671C431.742 407.418 432.258 408.137 432.794 408.83C432.909 413.629 432.631 418.358 432 422.992V422.992ZM432.577 404.389C431.29 402.337 430.232 400.177 429.396 397.947L430.752 389.674C431.523 394.569 432.224 399.475 432.577 404.389Z" fill="#E7E3F4"/>
    <path d="M108.358 218.748C108.336 217.518 108.366 216.277 108.451 215.026C109.806 195.064 124.632 179.878 142.144 179.878C142.27 179.878 142.396 179.879 142.521 179.881V206.051C130.586 208.541 119.117 212.865 108.358 218.748" fill="#E8E4F5"/>
    <path d="M142.216 255.966C141.352 255.966 140.482 255.929 139.605 255.854C122.089 254.35 108.711 238.098 108.358 218.748C119.117 212.865 130.586 208.541 142.522 206.051V255.965C142.419 255.966 142.318 255.966 142.216 255.966Z" fill="#E7E3F4"/>
    <path d="M507.636 463.771C504.816 463.771 502.531 461.201 502.531 458.031C502.531 454.861 504.816 452.29 507.636 452.29C510.454 452.29 512.74 454.861 512.74 458.031C512.74 461.201 510.454 463.771 507.636 463.771Z" fill="#8F8ECB"/>
    <path d="M271.839 16.3719C269.02 16.3719 266.734 13.8014 266.734 10.6314C266.734 7.46135 269.02 4.89088 271.839 4.89088C274.657 4.89088 276.943 7.46135 276.943 10.6314C276.943 13.8014 274.657 16.3719 271.839 16.3719Z" fill="#8F8ECB"/>
    <path d="M87.4371 516.71C84.6181 516.71 82.3327 514.14 82.3327 510.97C82.3327 507.8 84.6181 505.229 87.4371 505.229C90.256 505.229 92.5415 507.8 92.5415 510.97C92.5415 514.14 90.256 516.71 87.4371 516.71Z" fill="#8F8ECB"/>
    <path d="M409.616 539.574C407.424 539.574 405.646 537.574 405.646 535.109C405.646 532.643 407.424 530.645 409.616 530.645C411.808 530.645 413.586 532.643 413.586 535.109C413.586 537.574 411.808 539.574 409.616 539.574Z" fill="#F7B4C6"/>
    <path d="M64.9034 110.311C63.9639 110.311 63.2019 109.453 63.2019 108.397C63.2019 107.34 63.9639 106.484 64.9034 106.484C65.8431 106.484 66.6048 107.34 66.6048 108.397C66.6048 109.453 65.8431 110.311 64.9034 110.311Z" fill="#8987CA"/>
    <path d="M421.351 56.7736C420.925 56.7736 420.496 56.7238 420.064 56.6205C416.753 55.8245 414.642 52.162 415.349 48.4384C415.965 45.2007 418.508 42.9836 421.338 42.9836C421.763 42.9836 422.194 43.0334 422.625 43.1367C425.935 43.9327 428.047 47.5951 427.339 51.3188C426.724 54.5564 424.181 56.7736 421.351 56.7736" fill="#F7B4C6"/>
    <path d="M97.4133 21.7794C97.2471 21.7794 97.0783 21.7603 96.9086 21.7194C95.6099 21.4082 94.7827 19.9705 95.06 18.5111C95.3011 17.2406 96.2985 16.3718 97.4084 16.3718C97.5746 16.3718 97.7433 16.3909 97.9122 16.4318C99.2114 16.7443 100.039 18.1795 99.7612 19.6401C99.5201 20.9094 98.5232 21.7794 97.4133 21.7794Z" fill="#F7B4C6"/>
    <path d="M480.887 10.1006C480.746 10.1006 480.603 10.0841 480.459 10.0496C479.355 9.78557 478.652 8.56477 478.888 7.32227C479.092 6.24306 479.94 5.50444 480.884 5.50444C481.025 5.50444 481.169 5.52102 481.313 5.55546C482.415 5.8208 483.12 7.0416 482.884 8.28282C482.678 9.36204 481.831 10.1006 480.887 10.1006Z" fill="#8F8ECB"/>
    <path d="M48.6548 558.159C48.5134 558.159 48.3708 558.143 48.2272 558.108C47.1238 557.843 46.4202 556.622 46.6556 555.381C46.8607 554.302 47.7084 553.562 48.6512 553.562C48.793 553.562 48.9366 553.578 49.0805 553.614C50.1843 553.88 50.8875 555.1 50.6518 556.34C50.447 557.42 49.5986 558.159 48.6548 558.159" fill="#8F8ECB"/>
    <path d="M96.0477 226.366C95.9019 225.352 95.7818 224.327 95.6888 223.295L86.6617 222.521C82.0894 222.128 78.6662 217.64 79.0153 212.499C79.3476 207.6 82.9859 203.872 87.2838 203.872C87.496 203.872 87.7105 203.881 87.9258 203.9L96.9529 204.674C98.6677 197.236 101.773 190.481 105.927 184.751L100.032 177.024C97.0455 173.111 97.4452 167.216 100.925 163.857C102.492 162.345 104.415 161.605 106.328 161.605C108.666 161.605 110.991 162.711 112.633 164.862L118.53 172.589C124.197 168.842 130.604 166.415 137.402 165.638L138.091 155.486C138.317 152.155 140.07 149.367 142.522 147.921V179.881C142.396 179.879 142.27 179.878 142.144 179.878C124.632 179.878 109.806 195.064 108.451 215.026C108.367 216.277 108.336 217.518 108.358 218.748C104.139 221.054 100.034 223.596 96.0477 226.366" fill="#F9F8FD"/>
    <path d="M137.998 288.986C137.786 288.986 137.572 288.977 137.357 288.959C132.785 288.566 129.361 284.08 129.711 278.937L130.399 268.786C123.785 266.857 117.78 263.364 112.684 258.693L105.814 265.322C104.247 266.835 102.324 267.575 100.41 267.575C98.0722 267.575 95.7476 266.47 94.1056 264.318C91.1192 260.403 91.5197 254.508 94.9998 251.151L101.87 244.52C98.9876 239.006 96.9835 232.87 96.0477 226.366C100.034 223.596 104.139 221.054 108.358 218.748C108.711 238.098 122.089 254.35 139.605 255.854C140.482 255.929 141.352 255.966 142.216 255.966C142.318 255.966 142.419 255.966 142.521 255.965V287.473C141.212 288.433 139.654 288.986 137.998 288.986" fill="#F9F7FC"/>
    <path d="M390.569 499.602C389.476 499.602 388.39 499.307 387.391 498.723C385.944 497.879 384.832 496.52 384.206 494.851C384.876 494.446 385.544 494.03 386.208 493.605C386.607 494.842 387.391 495.851 388.435 496.459C389.106 496.851 389.835 497.05 390.57 497.05C391.043 497.05 391.517 496.968 391.981 496.803C393.165 496.38 394.132 495.467 394.705 494.227C395.278 492.987 395.385 491.571 395.011 490.239L394.322 487.797C394.972 487.281 395.618 486.754 396.258 486.218L397.173 489.468C397.731 491.45 397.57 493.557 396.719 495.402C395.867 497.246 394.428 498.607 392.665 499.235C391.977 499.48 391.271 499.602 390.569 499.602V499.602ZM413.032 478.355C411.937 478.355 410.85 478.059 409.85 477.476L407.005 475.816C407.566 475.19 408.122 474.554 408.67 473.913L410.896 475.212C411.567 475.603 412.297 475.802 413.033 475.802C413.505 475.802 413.978 475.721 414.442 475.556C415.626 475.134 416.592 474.219 417.164 472.979C418.345 470.422 417.454 467.258 415.179 465.928L414.948 465.793C415.423 465.114 415.888 464.431 416.348 463.738C419.641 465.757 420.913 470.395 419.177 474.154C418.327 476 416.888 477.361 415.126 477.987C414.438 478.234 413.734 478.355 413.032 478.355" fill="#FCFDFE"/>
    <path d="M361.325 496.76C360.252 496.76 359.166 496.48 358.15 495.888C356.509 494.931 355.3 493.312 354.742 491.33C354.184 489.35 354.345 487.242 355.197 485.398L357.671 480.036C354.408 477.046 351.718 473.447 349.653 469.317L344.533 471.141C343.84 471.388 343.139 471.504 342.448 471.504C339.511 471.506 336.781 469.384 335.85 466.073C335.291 464.092 335.453 461.984 336.304 460.14C336.884 458.883 337.737 457.85 338.779 457.121C340.117 457.466 341.459 457.795 342.807 458.11L341.041 458.739C339.856 459.16 338.889 460.075 338.317 461.314C337.744 462.554 337.638 463.971 338.012 465.302C338.638 467.527 340.475 468.955 342.447 468.955C342.912 468.955 343.383 468.875 343.848 468.709L350.765 466.245L351.207 467.19C353.319 471.705 356.211 475.57 359.801 478.679L360.552 479.329L357.211 486.574C356.638 487.813 356.53 489.229 356.904 490.56C357.279 491.892 358.093 492.979 359.196 493.622C359.878 494.021 360.609 494.21 361.329 494.21C363.011 494.21 364.638 493.181 365.464 491.389L368.807 484.149L369.714 484.465C372.738 485.521 375.835 486.05 378.959 486.05C380.307 486.05 381.659 485.951 383.013 485.755L383.955 485.617L386.144 493.398C386.164 493.468 386.185 493.537 386.208 493.605C385.544 494.03 384.876 494.446 384.206 494.851C384.123 494.628 384.048 494.4 383.982 494.167L382.36 488.407C381.221 488.539 380.083 488.603 378.949 488.603C375.913 488.603 372.903 488.135 369.953 487.204L367.478 492.566C366.247 495.231 363.828 496.76 361.325 496.76V496.76ZM414.948 465.793L408.738 462.171L409.02 461.151C409.146 460.695 409.264 460.238 409.372 459.779C410.195 459.606 411.014 459.427 411.832 459.239C411.717 459.789 411.592 460.336 411.456 460.882L416.225 463.664C416.267 463.689 416.308 463.713 416.348 463.738C415.888 464.431 415.423 465.114 414.948 465.793" fill="#F9F8FC"/>
    <path d="M409.372 459.779C409.884 457.632 410.21 455.454 410.35 453.26L412.595 453.725C412.463 455.577 412.209 457.417 411.832 459.239C411.014 459.427 410.195 459.606 409.372 459.779ZM342.807 458.11C341.459 457.795 340.117 457.466 338.779 457.121C339.266 456.781 339.795 456.506 340.355 456.306L345.477 454.483C345.05 449.77 345.409 445.085 346.546 440.527L345.233 439.761L348.91 440.524C347.624 445.309 347.263 450.251 347.835 455.217L347.958 456.276L342.807 458.11Z" fill="#F9F7FC"/>
    <path d="M394.322 487.797L392.82 482.46L393.659 481.964C397.673 479.587 401.111 476.335 403.877 472.298L404.455 471.454L408.67 473.913C408.123 474.554 407.566 475.19 407.005 475.816L405.084 474.694C402.423 478.363 399.224 481.388 395.551 483.71L396.258 486.218C395.618 486.754 394.972 487.281 394.322 487.797ZM378.973 478.495C375.066 478.495 371.192 477.441 367.623 475.359C362.208 472.197 358.104 467.019 355.943 460.661C356.806 460.797 357.672 460.924 358.538 461.044C360.597 466.224 364.124 470.442 368.669 473.094C371.909 474.986 375.429 475.942 378.976 475.944C381.253 475.944 383.541 475.548 385.772 474.754C391.484 472.72 396.151 468.306 398.91 462.325C399.04 462.044 399.165 461.761 399.284 461.476C400.157 461.364 401.034 461.242 401.904 461.113C401.613 461.92 401.286 462.718 400.924 463.501C397.884 470.086 392.748 474.946 386.458 477.186C384 478.062 381.48 478.495 378.973 478.495" fill="#F9F8FC"/>
    <path d="M399.284 461.477C400.63 458.281 401.352 454.865 401.435 451.411L403.692 451.88C403.575 455.028 402.976 458.144 401.904 461.113C401.034 461.242 400.157 461.364 399.284 461.477ZM358.538 461.044C357.672 460.924 356.806 460.797 355.943 460.661C355.767 460.146 355.604 459.622 355.455 459.091C354.093 454.254 353.932 449.206 354.938 444.393L356.995 445.763C356.256 449.895 356.455 454.191 357.617 458.319C357.881 459.254 358.188 460.162 358.538 461.044" fill="#F9F7FC"/>
    <path d="M493.387 439.327C494.634 437.401 495.842 435.441 497.007 433.453C496.531 435.629 495.409 437.639 493.691 439.082C493.592 439.166 493.489 439.248 493.387 439.327V439.327ZM511.091 402.534C511.473 401.413 511.844 400.289 512.205 399.158C513.726 398.023 514.827 396.195 515.111 394.009C515.274 392.735 515.141 391.488 514.769 390.358C515.072 389.21 515.365 388.061 515.646 386.905C517.03 388.968 517.709 391.625 517.354 394.375C516.84 398.35 514.302 401.446 511.091 402.534" fill="white"/>
    <path d="M450.134 451.982C449.71 451.982 449.28 451.946 448.849 451.876C446.196 451.442 443.984 449.728 442.636 447.37C443.314 446.985 443.989 446.592 444.661 446.19C445.673 447.845 447.272 449.04 449.174 449.351C449.495 449.404 449.815 449.429 450.132 449.429C453.375 449.429 456.221 446.749 456.7 443.035L457.456 437.179C459.427 435.56 461.343 433.871 463.194 432.122C467.841 431.431 472.32 429.883 476.555 427.502L477.404 427.025L483.041 435.519C484.102 437.118 485.653 438.156 487.409 438.442C487.734 438.497 488.06 438.522 488.382 438.522C489.802 438.522 491.176 438.009 492.335 437.037C495.268 434.574 495.874 429.886 493.682 426.587L488.046 418.092L488.695 417.313C492.893 412.268 496.01 406.38 497.959 399.813L498.258 398.802L507.585 400.326C507.906 400.377 508.224 400.403 508.54 400.403C509.875 400.403 511.142 399.95 512.205 399.158C511.844 400.289 511.473 401.413 511.091 402.534C510.279 402.809 509.424 402.955 508.549 402.955C508.123 402.955 507.692 402.921 507.259 402.849L499.8 401.631C497.84 407.808 494.882 413.395 490.994 418.268L495.502 425.061C497.157 427.555 497.622 430.642 497.007 433.453C495.842 435.441 494.634 437.401 493.387 439.327C491.897 440.473 490.164 441.073 488.379 441.073C487.948 441.073 487.515 441.038 487.082 440.968C484.727 440.582 482.646 439.189 481.223 437.045L476.715 430.252C471.453 433.058 465.85 434.658 460.029 435.013L458.944 443.402C458.302 448.382 454.484 451.98 450.134 451.982V451.982ZM514.769 390.358C513.951 387.874 511.983 385.953 509.494 385.546L500.166 384.022L500.135 382.955C500.005 378.589 499.36 374.332 498.209 370.231C498.567 368.752 498.9 367.28 499.209 365.812C501.036 370.91 502.093 376.268 502.36 381.802L509.82 383.022C512.234 383.416 514.281 384.871 515.646 386.905C515.365 388.061 515.072 389.21 514.769 390.358V390.358ZM500.064 361.411C500.285 360.177 500.487 358.946 500.673 357.715L502.81 355.921C505.745 353.459 506.35 348.771 504.16 345.471C503.588 344.609 502.871 343.908 502.058 343.402C502.097 342.481 502.126 341.56 502.145 340.638C503.622 341.298 504.961 342.412 505.979 343.947C508.917 348.373 508.104 354.664 504.167 357.966L500.064 361.411" fill="#FCFDFE"/>
    <path d="M442.636 447.37C441.514 445.409 440.993 443.004 441.314 440.521L442.397 432.132C438.514 430.575 434.893 428.455 431.572 425.801C431.73 424.869 431.872 423.934 432 422.992C435.628 426.055 439.653 428.425 444.013 430.062L444.913 430.4L443.558 440.887C443.308 442.822 443.746 444.694 444.661 446.19C443.989 446.592 443.314 446.985 442.636 447.37ZM457.456 437.179L458.055 432.544L459.003 432.51C460.413 432.456 461.811 432.328 463.194 432.122C461.343 433.871 459.427 435.56 457.456 437.179V437.179ZM498.209 370.231C497.538 367.836 496.695 365.495 495.682 363.217L495.258 362.263L500.673 357.715C500.487 358.946 500.285 360.177 500.064 361.411L498.128 363.037C498.513 363.953 498.874 364.878 499.209 365.812C498.9 367.28 498.567 368.752 498.209 370.231ZM487.316 350.294L486.621 349.565C482.134 344.841 476.898 341.337 471.062 339.146L470.162 338.81L471.517 328.32C471.772 326.346 471.327 324.379 470.267 322.781C469.206 321.182 467.656 320.144 465.901 319.857C465.576 319.805 465.255 319.779 464.938 319.779C464.748 319.779 464.562 319.788 464.376 319.806L465.716 317.266C465.885 317.283 466.055 317.306 466.226 317.334C468.581 317.718 470.662 319.111 472.085 321.255C473.509 323.4 474.103 326.039 473.76 328.686L472.677 337.076C478.168 339.279 483.137 342.605 487.471 346.979L493.512 341.909C495.107 340.57 496.975 339.923 498.828 339.923C499.961 339.923 501.088 340.164 502.145 340.638C502.126 341.56 502.097 342.481 502.058 343.402C501.365 342.972 500.602 342.681 499.794 342.549C499.47 342.496 499.145 342.47 498.823 342.47C497.404 342.47 496.027 342.982 494.868 343.954H494.869L487.316 350.294V350.294ZM455.456 336.726L457.517 332.819L457.02 336.663L456.072 336.698C455.867 336.706 455.661 336.715 455.456 336.726Z" fill="#FAFAFD"/>
    <path d="M431.572 425.801C430.197 424.702 428.872 423.51 427.603 422.229L425.068 424.358L425.673 420.667L427.76 418.915L428.453 419.644C429.588 420.839 430.771 421.955 432 422.992C431.872 423.934 431.73 424.869 431.572 425.801" fill="#F9F7FC"/>
    <path d="M481.735 409.531C483.952 406.035 485.997 402.423 487.858 398.728C486.4 402.705 484.335 406.354 481.735 409.531Z" fill="#FCFDFE"/>
    <path d="M457.578 421.482C448.339 421.482 439.205 417.122 432.794 408.83C432.78 408.268 432.761 407.705 432.737 407.141C432.696 406.224 432.643 405.306 432.577 404.389C432.736 404.642 432.899 404.896 433.066 405.146C439.053 414.167 448.258 418.932 457.574 418.932C463.927 418.932 470.33 416.716 475.802 412.126C482.338 406.639 486.584 398.619 487.756 389.54C488.93 380.463 486.888 371.414 482.009 364.064C477.131 356.712 469.999 351.937 461.927 350.62C460.457 350.38 458.987 350.259 457.529 350.255L455.351 347.78C456.054 347.729 456.759 347.702 457.468 347.702C459.055 347.702 460.654 347.832 462.253 348.094C470.926 349.511 478.587 354.641 483.828 362.538C489.069 370.436 491.261 380.155 490.002 389.906C489.605 392.976 488.882 395.934 487.858 398.728C485.997 402.423 483.952 406.035 481.735 409.531C480.355 411.218 478.826 412.772 477.159 414.171C471.282 419.103 464.402 421.482 457.578 421.482V421.482ZM476.481 413.148H476.492H476.481Z" fill="#FAFAFD"/>
    <path d="M432.794 408.83C432.258 408.137 431.742 407.418 431.247 406.671C430.29 405.23 429.442 403.735 428.7 402.199L429.396 397.947C430.232 400.177 431.29 402.337 432.577 404.389C432.643 405.306 432.696 406.224 432.737 407.141C432.761 407.705 432.78 408.268 432.794 408.83Z" fill="#F9F7FC"/>
    <path d="M303.471 457.117H280.17C279.543 457.117 279.036 456.547 279.036 455.842C279.036 455.137 279.543 454.566 280.17 454.566H303.471C304.097 454.566 304.605 455.137 304.605 455.842C304.605 456.547 304.097 457.117 303.471 457.117Z" fill="#FBFCFE"/>
    <path d="M303.471 484.358H280.17C279.543 484.358 279.036 483.787 279.036 483.083C279.036 482.377 279.543 481.807 280.17 481.807H303.471C304.097 481.807 304.605 482.377 304.605 483.083C304.605 483.787 304.097 484.358 303.471 484.358Z" fill="#FBFCFE"/>
    <path d="M321.06 511.867H177.151C175.455 511.867 174.075 510.316 174.075 508.408V476.017H176.343V508.408C176.343 508.908 176.706 509.316 177.151 509.316H321.06C321.505 509.316 321.867 508.908 321.867 508.408V507.686C322.622 507.779 323.38 507.865 324.136 507.941V508.408C324.136 510.316 322.757 511.867 321.06 511.867" fill="#FEFEFF"/>
    <path d="M324.136 507.941C323.38 507.865 322.622 507.779 321.867 507.686V451.889C322.622 452.162 323.377 452.43 324.136 452.693V507.941Z" fill="#FBFCFE"/>
    <path d="M324.136 452.693C323.377 452.43 322.622 452.162 321.867 451.889V434.917L324.136 435.388V452.693Z" fill="#FBFCFE"/>
    <path d="M302.253 443.899H278.489V441.348H296.148C298.187 442.182 300.22 443.037 302.253 443.899Z" fill="#FBFCFE"/>
    <path d="M303.471 443.899H302.253C300.22 443.037 298.187 442.182 296.148 441.348H303.471C304.097 441.348 304.605 441.918 304.605 442.623C304.605 443.328 304.097 443.899 303.471 443.899Z" fill="#FBFCFE"/>
    <path d="M303.471 470.337H276.543C277.018 469.545 277.416 468.69 277.727 467.786H303.471C304.097 467.786 304.605 468.358 304.605 469.062C304.605 469.767 304.097 470.337 303.471 470.337Z" fill="#FBFCFE"/>
    <path d="M252.298 484.358H192.433C191.807 484.358 191.299 483.787 191.299 483.083C191.299 482.377 191.807 481.807 192.433 481.807H252.298C252.925 481.807 253.432 482.377 253.432 483.083C253.432 483.787 252.925 484.358 252.298 484.358Z" fill="#FEFEFF"/>
    <path d="M232.806 496.977H192.433C191.807 496.977 191.299 496.407 191.299 495.701C191.299 494.996 191.807 494.426 192.433 494.426H232.806C233.433 494.426 233.94 494.996 233.94 495.701C233.94 496.407 233.433 496.977 232.806 496.977Z" fill="#FEFEFF"/>
    <path d="M78.5177 375.443H54.3405C53.714 375.443 53.2062 374.871 53.2062 374.167C53.2062 373.462 53.714 372.892 54.3405 372.892H78.5177V375.443Z" fill="#FBFCFE"/>
    <path d="M78.5177 344.827H54.3405C53.714 344.827 53.2062 344.255 53.2062 343.551C53.2062 342.846 53.714 342.276 54.3405 342.276H78.5177V344.827Z" fill="#FBFCFE"/>
    <path d="M33.0576 412.918C32.252 412.505 31.6317 411.711 31.3787 410.743C31.9294 411.475 32.4896 412.201 33.0576 412.918Z" fill="white"/>
    <path d="M37.3555 413.228H34.3301C33.8764 413.228 33.4457 413.117 33.0576 412.918C32.4896 412.201 31.9294 411.475 31.3787 410.743C31.2981 410.433 31.2546 410.107 31.2546 409.769V390.122C31.9015 393.587 32.6583 397.025 33.5233 400.424V409.769C33.5233 410.269 33.8852 410.677 34.3301 410.677H36.4973C36.776 411.529 37.0626 412.382 37.3555 413.228" fill="#FEFEFF"/>
    <path d="M50.3075 413.228H37.3555C37.0626 412.382 36.776 411.529 36.4973 410.677H48.135C48.8436 411.547 49.5671 412.396 50.3075 413.228V413.228ZM33.5233 400.424C32.6583 397.025 31.9015 393.587 31.2546 390.122V379.599C31.5294 380.366 31.8107 381.129 32.0991 381.889C32.5565 383.096 33.031 384.295 33.5233 385.486V400.424Z" fill="#FDFDFE"/>
    <path d="M31.2546 329.209V314.816C31.2546 312.908 32.634 311.356 34.3301 311.356H35.6426C35.3851 312.203 35.1334 313.055 34.8889 313.907H34.3301C33.8852 313.907 33.5233 314.315 33.5233 314.816V318.961C32.6658 322.337 31.9087 325.753 31.2546 329.209" fill="#FBFCFE"/>
    <path d="M78.5177 413.228H50.3075C49.5671 412.396 48.8436 411.547 48.135 410.677H78.5177V413.228V413.228ZM33.5233 385.486C33.031 384.295 32.5565 383.096 32.0991 381.889C31.8107 381.129 31.5294 380.366 31.2546 379.599V329.209C31.9087 325.753 32.6658 322.337 33.5233 318.961V385.486ZM79.5493 313.907H34.8889C35.1334 313.055 35.3851 312.203 35.6426 311.356H80.7633C80.2914 312.143 79.8833 312.998 79.5493 313.907Z" fill="#FBFCFE"/>
    <path d="M78.5177 390.299H54.3405C53.714 390.299 53.2062 389.729 53.2062 389.024C53.2062 388.318 53.714 387.748 54.3405 387.748H78.5177V390.299Z" fill="#FBFCFE"/>
    <path d="M78.5177 360.584H54.3405C53.714 360.584 53.2062 360.014 53.2062 359.308C53.2062 358.603 53.714 358.033 54.3405 358.033H78.5177V360.584Z" fill="#FBFCFE"/>
    <path d="M354.938 444.393L349.237 440.591L355.57 441.904C355.324 442.724 355.114 443.555 354.938 444.393" fill="#D1CCEB"/>
    <path d="M386.579 465.106C386.214 465.106 385.845 465 385.509 464.775L382.283 462.625C384.592 462.604 386.903 462.53 389.202 462.401L388.387 463.95C387.994 464.693 387.295 465.106 386.579 465.106" fill="#D2CEEB"/>
    <path d="M382.283 462.625L356.995 445.763C357.2 444.617 357.477 443.484 357.826 442.372L361.133 443.057L382.285 457.161C382.621 457.385 382.99 457.492 383.354 457.492C384.072 457.492 384.77 457.078 385.163 456.334L389.106 448.856L395.63 450.209L389.202 462.401C386.903 462.53 384.592 462.604 382.283 462.625Z" fill="#D1CCEB"/>
    <path d="M356.995 445.763L354.938 444.393C355.114 443.555 355.324 442.724 355.57 441.904L357.826 442.372C357.477 443.484 357.2 444.617 356.995 445.763Z" fill="#DFDDF2"/>
    <path d="M432.201 380.84L433.581 372.417L435.495 374.592L432.201 380.84ZM451.773 343.713L447.247 338.568L447.552 337.991C450.129 337.293 452.769 336.871 455.456 336.726L451.773 343.713ZM449.128 335L484.295 268.294L487.844 270.661C488.841 271.327 489.17 272.775 488.579 273.897L465.716 317.266C465.455 317.241 465.195 317.228 464.938 317.228C460.599 317.228 456.774 320.828 456.131 325.807L455.045 334.195C453.047 334.317 451.072 334.586 449.128 335V335ZM457.517 332.819L458.375 326.174C458.827 322.679 461.369 320.094 464.376 319.806L457.517 332.819Z" fill="#D7D3EE"/>
    <path d="M447.552 337.991L449.128 335C451.072 334.586 453.047 334.317 455.045 334.195L456.131 325.807C456.774 320.828 460.599 317.228 464.938 317.228C465.195 317.228 465.455 317.241 465.716 317.266L464.376 319.806C461.369 320.094 458.827 322.679 458.375 326.174L457.517 332.819L455.456 336.726C452.769 336.871 450.129 337.293 447.552 337.991" fill="#E2DFF2"/>
    <path d="M382.285 457.161L258.17 374.405C257.173 373.74 256.843 372.291 257.435 371.168L357.628 181.117C358.219 179.994 359.507 179.624 360.505 180.29L484.62 263.045C485.619 263.711 485.947 265.159 485.355 266.282L385.163 456.334C384.572 457.456 383.283 457.827 382.285 457.161" fill="#F795B4"/>
    <path d="M430.752 389.674C430.507 388.118 430.254 386.563 430.003 385.008L432.2 380.84L430.752 389.674Z" fill="#D7D3EE"/>
    <path d="M418.32 454.872C418.194 454.872 418.066 454.859 417.938 454.833L412.595 453.725C412.724 451.909 412.735 450.082 412.625 448.249L414.905 448.721C414.922 448.725 414.939 448.727 414.956 448.731L416.969 449.148L417.342 446.871C417.346 446.856 417.348 446.841 417.35 446.827L417.631 445.108L417.647 445.103C421.284 443.807 423.305 439.428 422.154 435.338C421.73 433.832 420.929 432.535 419.849 431.579L420.416 428.119C420.813 427.881 421.195 427.606 421.563 427.299L425.068 424.358L420.383 452.938C420.196 454.076 419.314 454.872 418.32 454.872" fill="#D1CCEB"/>
    <path d="M410.35 453.26L403.692 451.88C403.76 450.035 403.664 448.179 403.399 446.336L410.319 447.771C410.457 449.608 410.467 451.44 410.35 453.26V453.26ZM418.135 442.04L419.346 434.648C419.624 435.088 419.843 435.578 419.992 436.107C420.631 438.378 419.815 440.781 418.135 442.04Z" fill="#D1CCEB"/>
    <path d="M401.435 451.411L395.63 450.209L398.236 445.265L401.014 445.842C401.34 447.689 401.48 449.557 401.435 451.411V451.411ZM420.995 424.593L425.929 394.484C426.58 397.128 427.501 399.718 428.7 402.199L425.673 420.667L420.995 424.593ZM429.396 397.947C428.429 395.364 427.76 392.687 427.382 389.98L430.003 385.008C430.254 386.563 430.507 388.118 430.752 389.674L429.396 397.947" fill="#D1CCEB"/>
    <path d="M412.595 453.725L410.35 453.26C410.467 451.44 410.457 449.608 410.319 447.771L412.625 448.249C412.735 450.082 412.724 451.909 412.595 453.725V453.725ZM417.631 445.108L418.135 442.04C419.815 440.781 420.631 438.378 419.992 436.107C419.843 435.578 419.624 435.088 419.346 434.648L419.849 431.579C420.929 432.535 421.73 433.832 422.154 435.338C423.305 439.428 421.284 443.807 417.647 445.103L417.631 445.108Z" fill="#DFDDF2"/>
    <path d="M403.692 451.88L401.435 451.411C401.48 449.557 401.34 447.689 401.014 445.842L403.399 446.336C403.664 448.179 403.76 450.035 403.692 451.88Z" fill="#DFDDF2"/>
    <path d="M420.416 428.119L420.995 424.593L425.673 420.667L425.068 424.358L421.563 427.299C421.195 427.606 420.813 427.881 420.416 428.119" fill="#DFDDF2"/>
    <path d="M428.7 402.199C427.501 399.718 426.58 397.128 425.929 394.484L426.345 391.947L427.382 389.98C427.76 392.687 428.429 395.364 429.396 397.947L428.7 402.199" fill="#DFDDF2"/>
    <path d="M345.233 439.761L324.136 435.388V429.905L337.304 432.634L338.428 433.384C339.01 435.277 340.193 436.819 341.779 437.745L345.233 439.761" fill="#D1CCEB"/>
    <path d="M349.237 440.591L348.91 440.524C348.922 440.48 348.933 440.438 348.944 440.396L349.237 440.591Z" fill="#D1CCEB"/>
    <path d="M348.91 440.524L345.233 439.761L341.779 437.745C340.193 436.819 339.01 435.277 338.428 433.384L348.944 440.396C348.933 440.438 348.922 440.48 348.91 440.524Z" fill="#DFDDF2"/>
    <path d="M321.867 434.917L278.489 425.925V423.5H293.238L321.867 429.434V434.917ZM280.931 420.949H278.489V420.442L280.931 420.949Z" fill="#D1CCEB"/>
    <path d="M324.136 435.388L321.867 434.917V429.434L324.136 429.905V435.388ZM293.238 423.5H278.489V420.949H280.931L293.238 423.5Z" fill="#E3E3F4"/>
    <path d="M454.769 243.142L451.132 240.717L452.475 232.522L454.313 232.904C455.453 233.14 456.207 234.372 455.996 235.654L454.769 243.142" fill="#D1CCEB"/>
    <path d="M395.63 450.209L389.106 448.856L391.711 443.913L398.236 445.265L395.63 450.209" fill="#BBB6E1"/>
    <path d="M338.428 433.384L337.304 432.634L338.28 432.836C338.307 432.954 338.337 433.071 338.37 433.187C338.388 433.254 338.408 433.319 338.428 433.384" fill="#BBB6E1"/>
    <path d="M355.57 441.904L349.237 440.591L348.944 440.396C348.957 440.35 348.969 440.304 348.983 440.258L349.264 439.239L342.825 435.48C342.001 435 341.339 434.272 340.9 433.38L349.198 435.1L356.277 439.819C356.015 440.506 355.78 441.201 355.57 441.904" fill="#BBB6E1"/>
    <path d="M361.133 443.057L357.826 442.372C357.956 441.956 358.096 441.543 358.247 441.133L361.133 443.057Z" fill="#BBB6E1"/>
    <path d="M348.944 440.396L338.428 433.384C338.408 433.319 338.389 433.254 338.37 433.187C338.337 433.071 338.307 432.954 338.28 432.836L340.9 433.38C341.339 434.272 342.001 435 342.825 435.48L349.264 439.239L348.983 440.258C348.969 440.304 348.957 440.35 348.944 440.396" fill="#C9C5E7"/>
    <path d="M357.826 442.372L355.57 441.904C355.78 441.201 356.015 440.506 356.277 439.819L358.247 441.133C358.096 441.543 357.956 441.956 357.826 442.372Z" fill="#C9C5E7"/>
    <path d="M430.003 385.008C429.577 382.361 429.155 379.719 428.782 377.078L429.611 372.023L430.969 369.447L433.581 372.417L432.2 380.84L430.003 385.008" fill="#C2BCE4"/>
    <path d="M427.382 389.98C427.258 389.093 427.166 388.203 427.105 387.312L428.782 377.078C429.155 379.719 429.577 382.361 430.003 385.008L427.382 389.98Z" fill="#BBB6E1"/>
    <path d="M426.345 391.948L427.105 387.312C427.166 388.203 427.258 389.093 427.382 389.98L426.345 391.948" fill="#C9C5E7"/>
    <path d="M389.106 448.856L361.133 443.057L358.247 441.133L356.277 439.819L349.199 435.1L391.711 443.913L389.106 448.856V448.856ZM429.611 372.023L430.18 368.551L430.969 369.447L429.611 372.023ZM440.404 330.788L437.003 326.922L437.528 323.718L451.132 240.717L454.769 243.142L440.404 330.788" fill="#DF8AB2"/>
    <path d="M416.969 449.148L270.94 418.876L307.315 196.948L453.344 227.219L416.969 449.148Z" fill="white"/>
    <path d="M414.956 448.731C414.939 448.727 414.922 448.725 414.905 448.721L412.625 448.249C412.625 448.248 412.625 448.248 412.625 448.248L414.956 448.731" fill="#DEB6DC"/>
    <path d="M410.319 447.771L403.399 446.336L410.319 447.769C410.319 447.769 410.319 447.769 410.319 447.771Z" fill="#DEB6DC"/>
    <path d="M401.014 445.842L398.236 445.265H398.237L401.014 445.841C401.014 445.841 401.014 445.841 401.014 445.842" fill="#DEB6DC"/>
    <path d="M412.625 448.249L410.319 447.771C410.319 447.769 410.319 447.769 410.319 447.769L412.625 448.248C412.625 448.248 412.625 448.248 412.625 448.249Z" fill="#E9C2DD"/>
    <path d="M403.399 446.336L401.014 445.842C401.014 445.841 401.014 445.841 401.014 445.841L403.399 446.336" fill="#E9C2DD"/>
    <path d="M417.342 446.871L417.631 445.108L417.35 446.827C417.348 446.841 417.346 446.856 417.342 446.871ZM419.849 431.579L420.416 428.119L419.849 431.579Z" fill="#DEB6DC"/>
    <path d="M418.134 442.04L419.346 434.648L418.135 442.04H418.134Z" fill="#DEB6DC"/>
    <path d="M420.993 424.593L425.929 394.482V394.484L420.995 424.593H420.993Z" fill="#DEB6DC"/>
    <path d="M417.631 445.108L418.134 442.04H418.135L417.631 445.108ZM419.346 434.648L419.849 431.579L419.346 434.648Z" fill="#E9C2DD"/>
    <path d="M420.416 428.119L420.994 424.593H420.995L420.416 428.119" fill="#E9C2DD"/>
    <path d="M425.929 394.484V394.482L426.345 391.948L425.929 394.484" fill="#E9C2DD"/>
    <path d="M337.304 432.634L324.136 429.905V429.904L337.303 432.634H337.304ZM321.867 429.434L293.238 423.5H293.241L321.867 429.433V429.434ZM280.933 420.949H280.931L278.489 420.442V420.441L280.933 420.949Z" fill="#DEB6DC"/>
    <path d="M324.136 429.905L321.867 429.434V429.433L324.136 429.904V429.905ZM293.241 423.5H293.238L280.931 420.949H280.933L293.241 423.5Z" fill="#EBC5DD"/>
    <path d="M398.236 445.265L391.711 443.913V443.912L398.237 445.265H398.236Z" fill="#D3AAD6"/>
    <path d="M338.28 432.836L337.304 432.634H337.303L338.28 432.835C338.28 432.836 338.28 432.836 338.28 432.836Z" fill="#D3AAD6"/>
    <path d="M349.198 435.1L340.9 433.38C340.9 433.38 340.9 433.38 340.9 433.379L349.197 435.1H349.198" fill="#D3AAD6"/>
    <path d="M340.9 433.38L338.28 432.836C338.28 432.836 338.28 432.836 338.28 432.835L340.9 433.379C340.9 433.38 340.9 433.38 340.9 433.38Z" fill="#DAB3D5"/>
    <path d="M428.782 377.078V377.077L429.611 372.023L428.782 377.078" fill="#D6AED6"/>
    <path d="M427.105 387.312C427.105 387.31 427.105 387.312 427.105 387.31L428.782 377.077V377.078L427.105 387.312Z" fill="#D3AAD6"/>
    <path d="M426.345 391.948L427.105 387.31C427.105 387.312 427.105 387.31 427.105 387.312L426.345 391.948Z" fill="#DAB3D5"/>
    <path d="M391.711 443.913L349.198 435.1H349.197L391.711 443.912V443.913ZM429.611 372.023L430.179 368.551H430.18L429.611 372.023V372.023ZM437.003 326.922L437.528 323.718L437.003 326.922Z" fill="#E98EB3"/>
    <path d="M415.288 448.761C415.178 448.761 415.067 448.75 414.956 448.731L412.625 448.248L410.319 447.769L403.399 446.336L401.014 445.841L398.237 445.265L391.711 443.912L349.197 435.099L340.9 433.379L338.28 432.835L337.303 432.634L324.136 429.904L321.867 429.433L293.241 423.5L280.933 420.949L278.489 420.441V372.82L280.845 358.445H307.95C312.951 358.445 317.586 356.47 321.395 353.105L351.598 359.366L351.805 359.387C352.342 359.387 352.819 358.957 352.919 358.343C353.034 357.649 352.626 356.984 352.01 356.856L323.547 350.956C325.545 348.713 327.237 346.045 328.535 343.065C334.504 344.565 340.705 345.356 347.068 345.356C356.925 345.356 366.516 343.487 375.56 339.857L411.493 347.306L430.179 368.55L429.611 372.023L428.782 377.077L427.105 387.31L426.345 391.947L425.929 394.482L420.993 424.593L420.416 428.119L419.849 431.579L419.346 434.648L418.134 442.04L417.631 445.108L417.342 446.871C417.14 447.985 416.267 448.761 415.288 448.761V448.761ZM408.702 344.133L379.601 338.1C385.69 335.247 391.505 331.57 396.953 327.105C396.901 328.097 397.212 329.108 397.885 329.866L401.829 334.301C403.006 332.084 406.229 327.946 409.832 323.767C406.229 327.946 403.006 332.084 401.829 334.301C401.405 335.099 401.242 335.652 401.428 335.863L408.702 344.133V344.133ZM437.003 326.922L423.148 311.171C423.1 311.116 423.03 311.089 422.94 311.089C422.63 311.089 422.082 311.401 421.358 311.954L417.585 307.711C416.963 307.011 416.151 306.664 415.339 306.664C415.33 306.664 415.322 306.664 415.314 306.664C420.865 298.252 425.083 289.044 427.886 279.309C427.937 279.198 427.974 279.078 427.996 278.95C427.998 278.932 428.001 278.916 428.002 278.899C430.347 270.626 431.674 261.971 431.934 253.1C432.149 252.915 432.307 252.642 432.36 252.318C432.436 251.85 432.276 251.396 431.974 251.11C431.978 250.694 431.982 250.277 431.982 249.861C431.982 240.185 430.694 230.838 428.303 222.029L451.278 226.792C452.42 227.028 453.174 228.26 452.964 229.542L437.528 323.718L437.003 326.922" fill="#FCD9E5"/>
    <path d="M431.245 253.363L431.038 253.341L395.518 245.978C394.902 245.85 394.495 245.186 394.608 244.493C394.723 243.8 395.306 243.342 395.93 243.47L431.451 250.833C432.067 250.961 432.474 251.625 432.36 252.318C432.259 252.933 431.783 253.363 431.245 253.363" fill="white"/>
    <path d="M429.154 266.123L428.947 266.103L393.426 258.738C392.81 258.611 392.403 257.946 392.517 257.254C392.631 256.562 393.216 256.103 393.839 256.231L429.359 263.594C429.975 263.721 430.382 264.387 430.269 265.08C430.168 265.693 429.691 266.123 429.154 266.123" fill="white"/>
    <path d="M426.881 279.994L426.674 279.973L391.153 272.61C390.537 272.482 390.13 271.817 390.245 271.124C390.357 270.433 390.941 269.975 391.566 270.101L427.086 277.464C427.702 277.592 428.109 278.257 427.996 278.95C427.895 279.565 427.417 279.994 426.881 279.994" fill="white"/>
    <path d="M369.689 287.515L311.671 275.488C310.436 275.233 309.62 273.899 309.847 272.511L321.269 202.823C321.496 201.434 322.683 200.516 323.917 200.772L381.935 212.799C383.17 213.056 383.987 214.389 383.76 215.778L372.337 285.465C372.109 286.853 370.924 287.771 369.689 287.515" fill="#6C92D3"/>
    <path d="M337.675 244.058C337.235 244.058 336.789 244.013 336.341 243.92L335.476 243.74C330.883 242.789 327.833 237.81 328.679 232.642L330.861 219.325C331.031 218.286 331.925 217.597 332.843 217.791C333.768 217.982 334.379 218.98 334.209 220.019L332.026 233.336C331.519 236.428 333.344 239.407 336.093 239.977L336.958 240.157C339.096 240.604 341.154 239.005 341.548 236.601L347.073 202.895C347.479 200.415 346.016 198.024 343.811 197.566L342.33 197.26C339.98 196.774 337.733 198.523 337.3 201.156L337.165 201.988C336.992 203.028 336.095 203.714 335.183 203.522C334.258 203.331 333.647 202.334 333.817 201.295L333.953 200.462C334.727 195.752 338.763 192.627 342.946 193.497L344.426 193.803C348.477 194.643 351.165 199.032 350.42 203.588L344.895 237.295C344.243 241.269 341.146 244.058 337.675 244.058" fill="#3C419F"/>
    <path d="M343.581 215.755L343.477 215.745L320.803 211.044C320.495 210.98 320.292 210.648 320.348 210.301C320.405 209.954 320.697 209.72 321.009 209.79L343.683 214.489C343.991 214.553 344.195 214.886 344.138 215.233C344.087 215.541 343.849 215.755 343.581 215.755" fill="white"/>
    <path d="M412.913 347.579L412.705 347.557L304.171 325.058C303.555 324.93 303.147 324.266 303.261 323.572C303.376 322.88 303.958 322.417 304.583 322.549L413.118 345.048C413.734 345.175 414.141 345.841 414.027 346.535C413.927 347.149 413.45 347.579 412.913 347.579" fill="white"/>
    <path d="M405.153 394.922L404.946 394.902L296.41 372.403C295.794 372.275 295.387 371.611 295.5 370.917C295.614 370.225 296.198 369.761 296.822 369.894L405.358 392.393C405.974 392.519 406.381 393.185 406.268 393.879C406.167 394.492 405.689 394.922 405.153 394.922Z" fill="white"/>
    <path d="M351.805 359.387L351.598 359.366L300.29 348.729C299.675 348.603 299.266 347.937 299.381 347.243C299.495 346.552 300.078 346.086 300.702 346.22L352.01 356.856C352.626 356.984 353.034 357.649 352.919 358.343C352.819 358.957 352.342 359.387 351.805 359.387" fill="white"/>
    <path d="M358.874 316.255L358.668 316.234L307.359 305.599C306.744 305.47 306.336 304.805 306.451 304.113C306.564 303.421 307.15 302.963 307.772 303.09L359.079 313.725C359.695 313.851 360.103 314.517 359.989 315.211C359.888 315.825 359.412 316.255 358.874 316.255Z" fill="white"/>
    <path d="M409.063 371.066L408.856 371.044L359.971 360.911C359.355 360.783 358.948 360.118 359.061 359.424C359.175 358.733 359.759 358.271 360.383 358.401L409.268 368.536C409.884 368.663 410.291 369.329 410.178 370.023C410.077 370.636 409.6 371.066 409.063 371.066Z" fill="white"/>
    <path d="M397.571 120.329H337.247C335.159 120.329 333.467 118.424 333.467 116.077V93.3865C333.467 91.038 335.159 89.1346 337.247 89.1346H397.571C399.658 89.1346 401.352 91.038 401.352 93.3865V116.077C401.352 118.424 399.658 120.329 397.571 120.329Z" fill="#6C92D3"/>
    <path d="M443.014 154.33H358.633C356.545 154.33 354.852 152.427 354.852 150.078V116.333C354.852 113.986 356.545 112.083 358.633 112.083H443.014C445.102 112.083 446.795 113.986 446.795 116.333V150.078C446.795 152.427 445.102 154.33 443.014 154.33" fill="#F795B4"/>
    <path d="M377.323 145.399H470.761C473.585 145.399 475.894 147.996 475.894 151.172V183.362C475.894 186.537 473.585 189.134 470.761 189.134H377.323C374.499 189.134 372.19 186.537 372.19 183.362V151.172C372.19 147.996 374.499 145.399 377.323 145.399" fill="white"/>
    <path d="M470.761 189.134H412.553C402.141 174.96 388.167 164.208 372.19 158.632V151.172C372.19 147.996 374.499 145.399 377.323 145.399H470.761C473.585 145.399 475.894 147.996 475.894 151.172V183.362C475.894 186.537 473.585 189.134 470.761 189.134Z" fill="#958ACC"/>
    <path d="M442.974 163.532C441.115 163.532 439.603 165.232 439.603 167.323C439.603 169.412 441.115 171.113 442.974 171.113C444.833 171.113 446.345 169.412 446.345 167.323C446.345 165.232 444.833 163.532 442.974 163.532ZM442.974 172.389C440.49 172.389 438.469 170.117 438.469 167.323C438.469 164.529 440.49 162.256 442.974 162.256C445.458 162.256 447.48 164.529 447.48 167.323C447.48 170.117 445.458 172.389 442.974 172.389Z" fill="white"/>
    <path d="M424.387 163.532C422.529 163.532 421.017 165.232 421.017 167.323C421.017 169.412 422.529 171.113 424.387 171.113C426.247 171.113 427.759 169.412 427.759 167.323C427.759 165.232 426.247 163.532 424.387 163.532ZM424.387 172.389C421.903 172.389 419.883 170.117 419.883 167.323C419.883 164.529 421.903 162.256 424.387 162.256C426.873 162.256 428.893 164.529 428.893 167.323C428.893 170.117 426.873 172.389 424.387 172.389Z" fill="white"/>
    <path d="M407.061 163.532C405.202 163.532 403.69 165.232 403.69 167.323C403.69 169.412 405.202 171.113 407.061 171.113C408.919 171.113 410.431 169.412 410.431 167.323C410.431 165.232 408.919 163.532 407.061 163.532ZM407.061 172.389C404.576 172.389 402.555 170.117 402.555 167.323C402.555 164.529 404.576 162.256 407.061 162.256C409.545 162.256 411.565 164.529 411.565 167.323C411.565 170.117 409.545 172.389 407.061 172.389Z" fill="white"/>
    <path d="M150.016 92.1899H294.801C297.718 92.1899 300.082 94.8496 300.082 98.1281V337.959C300.082 349.273 291.927 358.443 281.867 358.443H181.336C159.899 358.443 142.521 338.9 142.521 314.793V100.619C142.521 95.9646 145.877 92.1899 150.016 92.1899" fill="white"/>
    <path d="M142.521 100.619V94.2628C142.521 93.1185 143.346 92.1899 144.364 92.1899H150.016C145.877 92.1899 142.521 95.9646 142.521 100.619Z" fill="#BAB0DE"/>
    <path d="M156.515 312.699C154.363 308.715 150.466 306.053 146.017 306.053H142.521V100.619C142.521 95.9646 145.877 92.1899 150.016 92.1899H294.801H157.767C157.076 92.1899 156.515 92.8201 156.515 93.5969V312.699Z" fill="#CBC2E6"/>
    <path d="M300.082 170.354V95.374C300.082 93.6148 298.815 92.1899 297.25 92.1899H297.844C299.08 92.1899 300.082 93.3176 300.082 94.708V170.354Z" fill="#A6A2D8"/>
    <path d="M300.082 170.354V98.1281C300.082 94.8496 297.718 92.1899 294.801 92.1899H297.25C298.815 92.1899 300.082 93.6148 300.082 95.374V170.354Z" fill="#8883C9"/>
    <path d="M200.399 342.638H170.525C163.771 342.638 158.294 336.479 158.294 328.881V319.86C158.294 317.238 157.644 314.787 156.516 312.699V93.5969C156.516 92.8201 157.076 92.1899 157.767 92.1899H294.801C297.718 92.1899 300.082 94.8497 300.082 98.1281V170.354C285.285 181.45 273.748 197.623 267.453 216.647H210.641C210.015 216.647 209.507 217.218 209.507 217.922C209.507 218.626 210.015 219.198 210.641 219.198H266.646C264.528 226.203 263.116 233.567 262.503 241.19H183.474C182.846 241.19 182.339 241.762 182.339 242.466C182.339 243.17 182.846 243.742 183.474 243.742H262.328C262.214 245.766 262.156 247.805 262.156 249.861C262.156 276.273 271.738 300.213 287.199 317.517H203.446V328.784C203.446 333.789 202.345 338.502 200.399 342.638" fill="#938ECF"/>
    <path d="M178.504 358.399V358.445H305.057C319.622 358.445 331.431 345.165 331.431 328.784V317.517H203.446V328.784C203.446 344.624 192.404 357.563 178.504 358.399" fill="#5E56B0"/>
    <path d="M307.95 358.445H280.845H305.057C310.785 358.445 316.088 356.391 320.413 352.901L321.395 353.105C317.586 356.47 312.95 358.445 307.95 358.445V358.445ZM323.547 350.956L322.741 350.789C324.933 348.56 326.789 345.924 328.217 342.985C328.322 343.012 328.43 343.038 328.535 343.065C327.237 346.045 325.545 348.713 323.547 350.956" fill="#C9ADD2"/>
    <path d="M321.395 353.105L320.413 352.901C321.225 352.246 322.002 351.541 322.741 350.789L323.547 350.956C322.864 351.723 322.145 352.441 321.395 353.105" fill="#CCCBE6"/>
    <path d="M305.057 358.445H278.489V355.498C278.489 348.396 273.37 342.638 267.055 342.638H214.775C216.507 338.502 217.488 333.789 217.488 328.784V317.517H287.199C298.3 329.941 312.429 338.945 328.217 342.985C326.789 345.924 324.933 348.56 322.741 350.789C322.002 351.541 321.225 352.246 320.413 352.901C316.088 356.391 310.785 358.445 305.057 358.445Z" fill="#5450AC"/>
    <path d="M276.167 286.829H185.174C184.548 286.829 184.04 286.257 184.04 285.553C184.04 284.849 184.548 284.277 185.174 284.277H276.167C276.794 284.277 277.301 284.849 277.301 285.553C277.301 286.257 276.794 286.829 276.167 286.829Z" fill="white"/>
    <path d="M278.076 243.742H183.473C182.846 243.742 182.339 243.17 182.339 242.466C182.339 241.762 182.846 241.19 183.473 241.19H278.076C278.703 241.19 279.21 241.762 279.21 242.466C279.21 243.17 278.703 243.742 278.076 243.742Z" fill="white"/>
    <path d="M230.67 265.266H182.33C181.704 265.266 181.196 264.696 181.196 263.99C181.196 263.286 181.704 262.715 182.33 262.715H230.67C231.297 262.715 231.804 263.286 231.804 263.99C231.804 264.696 231.297 265.266 230.67 265.266Z" fill="white"/>
    <path d="M227.008 265.266H185.993C185.366 265.266 184.858 264.696 184.858 263.99C184.858 263.286 185.366 262.715 185.993 262.715H227.008C227.634 262.715 228.143 263.286 228.143 263.99C228.143 264.696 227.634 265.266 227.008 265.266Z" fill="white"/>
    <path d="M246.406 197.672H184.131C183.504 197.672 182.997 197.101 182.997 196.397C182.997 195.692 183.504 195.121 184.131 195.121H246.406C247.032 195.121 247.54 195.692 247.54 196.397C247.54 197.101 247.032 197.672 246.406 197.672Z" fill="white"/>
    <path d="M275.275 197.672H256.306C255.679 197.672 255.172 197.101 255.172 196.397C255.172 195.692 255.679 195.121 256.306 195.121H275.275C275.903 195.121 276.41 195.692 276.41 196.397C276.41 197.101 275.903 197.672 275.275 197.672Z" fill="white"/>
    <path d="M278.076 219.198H210.641C210.015 219.198 209.507 218.626 209.507 217.922C209.507 217.218 210.015 216.647 210.641 216.647H278.076C278.703 216.647 279.21 217.218 279.21 217.922C279.21 218.626 278.703 219.198 278.076 219.198Z" fill="white"/>
    <path d="M203.981 219.198H183.473C182.846 219.198 182.339 218.626 182.339 217.922C182.339 217.218 182.846 216.647 183.473 216.647H203.981C204.607 216.647 205.115 217.218 205.115 217.922C205.115 218.626 204.607 219.198 203.981 219.198Z" fill="white"/>
    <path d="M276.167 179.447H185.174C184.548 179.447 184.04 178.875 184.04 178.171C184.04 177.466 184.548 176.895 185.174 176.895H276.167C276.794 176.895 277.301 177.466 277.301 178.171C277.301 178.875 276.794 179.447 276.167 179.447Z" fill="white"/>
    <path d="M276.167 136.36H185.174C184.548 136.36 184.04 135.788 184.04 135.084C184.04 134.379 184.548 133.809 185.174 133.809H276.167C276.794 133.809 277.301 134.379 277.301 135.084C277.301 135.788 276.794 136.36 276.167 136.36Z" fill="white"/>
    <path d="M218.57 157.885H184.131C183.504 157.885 182.997 157.314 182.997 156.61C182.997 155.904 183.504 155.334 184.131 155.334H218.57C219.196 155.334 219.704 155.904 219.704 156.61C219.704 157.314 219.196 157.885 218.57 157.885Z" fill="white"/>
    <path d="M275.475 157.885H234.46C233.833 157.885 233.325 157.314 233.325 156.61C233.325 155.904 233.833 155.334 234.46 155.334H275.475C276.102 155.334 276.609 155.904 276.609 156.61C276.609 157.314 276.102 157.885 275.475 157.885Z" fill="white"/>
    <path d="M300.082 241.078V225.075C301.233 222.123 302.575 219.292 304.095 216.594L300.082 241.078ZM407.796 211.822L360.505 180.29C360.168 180.065 359.8 179.96 359.436 179.96C358.719 179.96 358.02 180.373 357.628 181.117L349.153 197.191C348.065 195.476 346.409 194.214 344.426 193.803L342.946 193.497C342.475 193.399 342.006 193.352 341.543 193.352C337.895 193.352 334.64 196.283 333.953 200.462L333.817 201.295C333.749 201.71 333.806 202.118 333.957 202.47L318.47 199.259C327.853 191.493 339.435 186.899 351.954 186.899C354.459 186.899 356.491 184.615 356.491 181.797C356.491 178.979 354.459 176.694 351.954 176.694C330.89 176.694 312.11 187.903 300.082 205.296V192.281C312.465 179.49 328.969 171.673 347.068 171.673C355.923 171.673 364.394 173.544 372.19 176.953V183.362C372.19 186.537 374.499 189.134 377.323 189.134H390.815C397.673 195.395 403.458 203.098 407.796 211.822V211.822ZM345.147 204.79L336.658 203.03C336.912 202.761 337.095 202.402 337.165 201.988L337.3 201.156C337.684 198.819 339.497 197.179 341.543 197.179C341.803 197.179 342.066 197.205 342.33 197.26L343.81 197.566C345.49 197.915 346.739 199.384 347.06 201.161L345.147 204.79" fill="#EDE9F6"/>
    <path d="M410.706 218.38L350.056 205.807L350.42 203.588C350.801 201.262 350.286 198.98 349.153 197.191L357.628 181.117C358.02 180.373 358.719 179.96 359.436 179.96C359.8 179.96 360.168 180.065 360.505 180.29L407.796 211.822C408.854 213.948 409.826 216.138 410.706 218.38V218.38ZM346.709 205.113L345.147 204.79L347.06 201.161C347.16 201.717 347.17 202.303 347.073 202.895L346.709 205.113Z" fill="#F9ACC4"/>
    <path d="M410.706 218.381L350.056 205.808V205.807L410.706 218.38V218.381ZM346.709 205.115L336.658 203.03L345.147 204.79L346.709 205.113V205.115V205.115ZM333.958 202.471L318.469 199.26L318.47 199.259L333.957 202.47C333.957 202.47 333.958 202.47 333.958 202.471" fill="white"/>
    <path d="M300.082 241.078L304.095 216.594V216.593L300.082 241.078Z" fill="#F2D2EB"/>
    <path d="M347.068 328.049C341.694 328.049 336.458 327.36 331.431 326.055V317.517H312.247C307.868 314.656 303.79 311.272 300.082 307.442V241.078L304.095 216.593C307.888 209.859 312.775 203.974 318.469 199.26L333.958 202.471C333.981 202.524 334.006 202.576 334.032 202.626L323.956 200.537C323.816 200.508 323.678 200.494 323.542 200.494C322.465 200.494 321.51 201.356 321.307 202.589L310.309 269.689L309.847 272.511C309.846 272.513 309.846 272.517 309.845 272.521L309.242 276.193C309.016 277.583 309.832 278.916 311.068 279.172L371.926 291.788C372.065 291.817 372.205 291.831 372.341 291.831C373.416 291.831 374.372 290.968 374.573 289.737L386.638 216.131C386.866 214.743 386.049 213.41 384.815 213.154L350.034 205.944L350.056 205.808L410.706 218.381C414.252 227.409 416.32 237.328 416.567 247.747L395.93 243.47C395.861 243.456 395.79 243.448 395.722 243.448C395.181 243.448 394.71 243.878 394.608 244.493C394.495 245.186 394.902 245.85 395.518 245.978L416.591 250.347C416.572 253.891 416.342 257.388 415.914 260.806L393.839 256.231C393.769 256.215 393.7 256.209 393.632 256.209C393.091 256.209 392.619 256.64 392.517 257.254C392.403 257.946 392.81 258.611 393.426 258.738L415.56 263.327C414.965 267.171 414.117 270.922 413.041 274.553L391.566 270.101C391.496 270.087 391.427 270.08 391.358 270.08C390.816 270.08 390.344 270.509 390.245 271.124C390.13 271.817 390.537 272.483 391.153 272.61L412.277 276.989C402.451 306.77 376.927 328.049 347.068 328.049ZM307.566 303.069C307.025 303.069 306.552 303.498 306.451 304.113C306.336 304.805 306.743 305.47 307.359 305.599L358.668 316.234L358.874 316.255C359.412 316.255 359.888 315.825 359.989 315.211C360.103 314.517 359.695 313.851 359.079 313.725L307.772 303.09C307.702 303.076 307.634 303.069 307.566 303.069ZM346.687 205.25L336.538 203.146C336.579 203.109 336.619 203.071 336.658 203.03L346.709 205.115L346.687 205.25" fill="#FDE1EA"/>
    <path d="M416.591 250.347L395.518 245.978C394.902 245.85 394.495 245.186 394.608 244.493C394.71 243.878 395.181 243.448 395.722 243.448C395.79 243.448 395.861 243.456 395.93 243.47L416.567 247.747C416.584 248.452 416.592 249.153 416.592 249.861C416.592 250.024 416.592 250.184 416.591 250.347" fill="white"/>
    <path d="M415.56 263.327L393.426 258.738C392.81 258.611 392.403 257.946 392.517 257.254C392.619 256.64 393.091 256.209 393.632 256.209C393.7 256.209 393.769 256.215 393.839 256.231L415.914 260.806C415.807 261.653 415.691 262.49 415.56 263.327" fill="white"/>
    <path d="M412.277 276.989L391.153 272.61C390.537 272.483 390.13 271.817 390.245 271.124C390.344 270.509 390.816 270.08 391.358 270.08C391.427 270.08 391.496 270.087 391.566 270.101L413.041 274.553C412.798 275.372 412.544 276.182 412.277 276.989Z" fill="white"/>
    <path d="M372.341 291.831C372.205 291.831 372.065 291.817 371.926 291.788L311.068 279.172C309.832 278.916 309.016 277.583 309.242 276.193L309.845 272.521C309.624 273.905 310.439 275.233 311.671 275.488L369.689 287.515C369.828 287.544 369.967 287.558 370.104 287.558C371.179 287.558 372.135 286.696 372.337 285.465L382.682 222.353L383.401 217.96L383.76 215.778C383.76 215.773 383.761 215.769 383.762 215.765L383.786 215.616C383.999 214.316 383.235 213.068 382.079 212.828L349.996 206.178L350.034 205.944L384.815 213.154C386.049 213.41 386.866 214.743 386.638 216.131L374.573 289.737C374.372 290.968 373.416 291.831 372.341 291.831V291.831ZM310.309 269.689L321.307 202.589C321.51 201.356 322.465 200.494 323.542 200.494C323.678 200.494 323.816 200.508 323.956 200.537L334.032 202.626C334.085 202.725 334.146 202.82 334.214 202.906L323.851 200.758C323.716 200.73 323.581 200.717 323.448 200.717C322.405 200.717 321.477 201.553 321.282 202.749L321.139 203.621L310.309 269.689V269.689ZM346.649 205.484L336.279 203.335C336.369 203.28 336.457 203.218 336.538 203.146L346.687 205.25L346.649 205.484" fill="#EAD0E4"/>
    <path d="M370.104 287.558C369.967 287.558 369.828 287.544 369.689 287.515L311.671 275.488C310.439 275.233 309.624 273.905 309.845 272.521C309.846 272.517 309.846 272.513 309.847 272.511L310.309 269.689L321.139 203.621L320.192 209.399L345.158 214.575L341.548 236.601C341.198 238.733 339.54 240.232 337.678 240.232C337.44 240.232 337.2 240.207 336.958 240.157L336.093 239.977C333.344 239.407 331.519 236.428 332.026 233.336L334.209 220.019C334.379 218.98 333.768 217.982 332.843 217.791C332.738 217.769 332.635 217.759 332.532 217.759C331.732 217.759 331.012 218.404 330.861 219.325L328.679 232.642C327.833 237.81 330.883 242.789 335.476 243.74L336.341 243.92C336.789 244.013 337.235 244.058 337.675 244.058C341.146 244.058 344.243 241.269 344.895 237.295L348.505 215.269L382.682 222.353L372.337 285.465C372.135 286.696 371.179 287.558 370.104 287.558V287.558ZM320.9 209.777C320.631 209.777 320.398 209.995 320.348 210.301C320.292 210.648 320.495 210.98 320.803 211.044L343.477 215.745L343.581 215.755C343.849 215.755 344.087 215.541 344.138 215.233C344.195 214.886 343.991 214.553 343.683 214.489L321.009 209.79C320.972 209.781 320.935 209.777 320.9 209.777V209.777ZM383.401 217.961L383.762 215.765C383.761 215.769 383.76 215.773 383.76 215.778L383.401 217.961Z" fill="#89ADE0"/>
    <path d="M382.682 222.353L383.401 217.96L382.682 222.353ZM383.762 215.765C383.982 214.381 383.167 213.054 381.935 212.799L349.996 206.178L382.079 212.828C383.235 213.068 383.999 214.316 383.786 215.616L383.762 215.765Z" fill="#EAD4E6"/>
    <path d="M382.682 222.353L348.505 215.269L349.996 206.178L381.935 212.799C383.167 213.054 383.982 214.381 383.762 215.765L383.401 217.96L382.682 222.353" fill="#90B3E3"/>
    <path d="M346.649 205.484L336.278 203.335H336.279L346.649 205.484V205.484ZM321.139 203.621L321.282 202.749C321.477 201.553 322.405 200.717 323.449 200.717C323.581 200.717 323.716 200.73 323.851 200.758L334.214 202.906L323.917 200.772C323.777 200.743 323.639 200.729 323.503 200.729C322.428 200.729 321.471 201.591 321.27 202.823L321.139 203.621" fill="#EAD4E6"/>
    <path d="M345.158 214.575L320.192 209.399L321.139 203.621L321.269 202.823C321.471 201.591 322.428 200.729 323.503 200.729C323.639 200.729 323.777 200.743 323.917 200.772L334.214 202.906C334.458 203.218 334.793 203.442 335.183 203.522C335.285 203.544 335.388 203.554 335.489 203.554C335.768 203.554 336.038 203.477 336.278 203.335L346.649 205.484L345.158 214.575Z" fill="#90B3E3"/>
    <path d="M337.675 244.058C337.235 244.058 336.789 244.013 336.341 243.92L335.476 243.74C330.883 242.789 327.833 237.81 328.679 232.642L330.861 219.325C331.012 218.404 331.732 217.759 332.532 217.759C332.635 217.759 332.739 217.769 332.843 217.791C333.768 217.982 334.379 218.98 334.209 220.019L332.026 233.336C331.519 236.428 333.344 239.407 336.093 239.977L336.958 240.157C337.2 240.207 337.44 240.232 337.678 240.232C339.54 240.232 341.198 238.733 341.548 236.601L345.158 214.575L346.649 205.485L346.687 205.25L346.709 205.115V205.113L347.073 202.895C347.17 202.303 347.16 201.717 347.06 201.161C346.739 199.384 345.49 197.915 343.811 197.566L342.33 197.26C342.066 197.205 341.803 197.179 341.543 197.179C339.497 197.179 337.684 198.819 337.3 201.156L337.165 201.988C337.095 202.403 336.912 202.761 336.658 203.03C336.619 203.071 336.579 203.109 336.538 203.146C336.457 203.218 336.369 203.28 336.279 203.335H336.278C336.038 203.477 335.768 203.554 335.489 203.554C335.388 203.554 335.285 203.544 335.183 203.523C334.793 203.442 334.458 203.218 334.214 202.906C334.146 202.82 334.085 202.725 334.032 202.626C334.006 202.576 333.981 202.524 333.958 202.471C333.958 202.47 333.957 202.47 333.957 202.47C333.806 202.118 333.749 201.71 333.817 201.295L333.953 200.462C334.64 196.283 337.895 193.352 341.543 193.352C342.006 193.352 342.475 193.399 342.946 193.497L344.426 193.803C346.409 194.214 348.065 195.476 349.153 197.191C350.286 198.98 350.801 201.262 350.42 203.588L350.056 205.807V205.809L350.034 205.944L349.996 206.178L348.505 215.269L344.895 237.295C344.243 241.269 341.146 244.058 337.675 244.058" fill="#6465B6"/>
    <path d="M343.581 215.755L343.477 215.745L320.803 211.044C320.495 210.98 320.292 210.648 320.348 210.301C320.398 209.995 320.631 209.777 320.9 209.777C320.935 209.777 320.972 209.781 321.009 209.79L343.683 214.489C343.991 214.553 344.195 214.886 344.138 215.233C344.087 215.54 343.849 215.755 343.581 215.755" fill="white"/>
    <path d="M358.874 316.255L358.668 316.234L307.359 305.599C306.744 305.47 306.336 304.805 306.451 304.113C306.552 303.498 307.025 303.069 307.566 303.069C307.634 303.069 307.702 303.076 307.772 303.09L359.079 313.725C359.695 313.851 360.103 314.517 359.989 315.211C359.888 315.825 359.412 316.255 358.874 316.255Z" fill="white"/>
    <path d="M390.815 189.134H377.323C374.499 189.134 372.19 186.537 372.19 183.362V176.953C378.978 179.921 385.25 184.053 390.815 189.134Z" fill="#AEA3D9"/>
    <path d="M300.082 307.442C286.236 293.141 277.544 272.62 277.544 249.861C277.544 247.801 277.616 245.762 277.755 243.742H278.076C278.703 243.742 279.21 243.17 279.21 242.466C279.21 241.762 278.703 241.19 278.076 241.19H277.969C279.868 221.923 288.019 204.741 300.082 192.281V205.296C291.429 217.807 286.272 233.52 286.272 250.561C286.272 253.379 288.304 255.664 290.809 255.664C293.314 255.664 295.347 253.379 295.347 250.561C295.347 241.504 297.037 232.882 300.082 225.075V307.442Z" fill="#ACA6DA"/>
    <path d="M331.431 326.055C324.598 324.282 318.15 321.375 312.247 317.517H331.431V326.055Z" fill="#7974C1"/>
    <path d="M278.076 243.742H277.755C277.814 242.887 277.886 242.036 277.969 241.19H278.076C278.703 241.19 279.21 241.762 279.21 242.466C279.21 243.17 278.703 243.742 278.076 243.742Z" fill="white"/>
    <path d="M300.082 225.075V205.296C312.11 187.903 330.89 176.694 351.954 176.694C354.459 176.694 356.491 178.979 356.491 181.797C356.491 184.615 354.459 186.899 351.954 186.899C339.435 186.899 327.853 191.493 318.47 199.259L307.315 196.948L306.941 199.231C306.939 199.244 306.936 199.257 306.934 199.271L304.095 216.594C302.575 219.292 301.233 222.123 300.082 225.075" fill="#FBFCFE"/>
    <path d="M318.469 199.26L309.381 197.376C309.251 197.35 309.123 197.337 308.997 197.337C308.015 197.337 307.142 198.114 306.941 199.231L307.315 196.948L318.47 199.259L318.469 199.26Z" fill="white"/>
    <path d="M304.095 216.594L306.934 199.271C306.936 199.257 306.939 199.244 306.941 199.231L304.095 216.593V216.594Z" fill="#FCF8FC"/>
    <path d="M304.095 216.593L306.941 199.231C307.142 198.114 308.015 197.337 308.997 197.337C309.123 197.337 309.251 197.35 309.381 197.376L318.469 199.26C312.775 203.974 307.888 209.859 304.095 216.593" fill="#FFFAFB"/>
    <path d="M290.809 255.664C288.304 255.664 286.272 253.379 286.272 250.561C286.272 233.52 291.429 217.807 300.082 205.296V225.075C297.037 232.882 295.347 241.504 295.347 250.561C295.347 253.379 293.314 255.664 290.809 255.664Z" fill="#EDEDF8"/>
    <path d="M409.696 213.089L407.796 211.822C403.458 203.098 397.673 195.395 390.815 189.134H392.593C399.582 195.772 405.415 203.904 409.696 213.089" fill="#8584CA"/>
    <path d="M412.052 218.66L410.706 218.38C409.826 216.138 408.854 213.948 407.796 211.822L409.696 213.089C410.543 214.905 411.329 216.763 412.052 218.66Z" fill="#886CB2"/>
    <path d="M412.052 218.66L410.706 218.381V218.38L412.052 218.66Z" fill="#8F8ECB"/>
    <path d="M347.068 329.325C341.696 329.325 336.462 328.648 331.431 327.364V326.055C336.458 327.36 341.694 328.049 347.068 328.049C376.927 328.049 402.451 306.77 412.277 276.989L413.411 277.223C403.474 307.603 377.485 329.325 347.068 329.325ZM414.167 274.786L413.041 274.553C414.117 270.922 414.965 267.171 415.56 263.327L416.676 263.559C416.08 267.403 415.238 271.152 414.167 274.786V274.786ZM417.03 261.037L415.914 260.806C416.342 257.388 416.572 253.891 416.591 250.347L417.724 250.582C417.696 254.126 417.46 257.617 417.03 261.037V261.037ZM417.707 247.983L416.567 247.747C416.32 237.328 414.252 227.409 410.706 218.382L412.052 218.66C415.497 227.699 417.492 237.601 417.707 247.983Z" fill="#8C80C1"/>
    <path d="M417.724 250.582L416.591 250.347C416.592 250.184 416.592 250.024 416.592 249.861C416.592 249.153 416.584 248.452 416.567 247.747L417.707 247.983C417.72 248.608 417.727 249.233 417.727 249.861C417.727 250.102 417.726 250.341 417.724 250.582" fill="#8F8ECB"/>
    <path d="M416.676 263.559L415.56 263.327C415.691 262.49 415.807 261.653 415.914 260.806L417.03 261.037C416.924 261.883 416.806 262.722 416.676 263.559" fill="#8F8ECB"/>
    <path d="M413.411 277.223L412.277 276.989C412.544 276.182 412.798 275.372 413.041 274.553L414.167 274.786C413.927 275.603 413.674 276.418 413.411 277.223Z" fill="#8F8ECB"/>
    <path d="M300.082 192.281V190.562C312.577 178.024 329.045 170.397 347.068 170.397C355.912 170.397 364.38 172.234 372.19 175.585V176.953C364.394 173.544 355.923 171.673 347.068 171.673C328.969 171.673 312.465 179.49 300.082 192.281Z" fill="#8584CA"/>
    <path d="M392.593 189.134H390.815C385.25 184.053 378.978 179.921 372.19 176.953V175.585C379.682 178.801 386.567 183.413 392.593 189.134" fill="#6966BA"/>
    <path d="M312.247 317.517H310.041C306.502 315.059 303.172 312.262 300.082 309.162V307.442C303.79 311.272 307.868 314.656 312.247 317.517Z" fill="#8C80C1"/>
    <path d="M300.082 309.162C285.565 294.599 276.41 273.41 276.41 249.861C276.41 247.802 276.48 245.762 276.617 243.742H277.755C277.616 245.762 277.544 247.801 277.544 249.861C277.544 272.62 286.236 293.141 300.082 307.442V309.162Z" fill="#6868BA"/>
    <path d="M277.969 241.19H276.828C278.77 221.142 287.371 203.313 300.082 190.562V192.281C288.019 204.741 279.868 221.923 277.969 241.19Z" fill="#6868BA"/>
    <path d="M331.431 327.364C323.755 325.406 316.549 322.038 310.041 317.517H312.247C318.15 321.375 324.598 324.282 331.431 326.055V327.364" fill="#5454AE"/>
    <path d="M277.755 243.742H276.617C276.675 242.89 276.746 242.035 276.828 241.19H277.969C277.886 242.036 277.814 242.887 277.755 243.742Z" fill="#8F8ECB"/>
    <path d="M347.068 330.601C307.418 330.601 275.275 294.452 275.275 249.862C275.275 205.27 307.418 169.123 347.068 169.123C386.718 169.123 418.861 205.27 418.861 249.862C418.861 294.452 386.718 330.601 347.068 330.601ZM413.057 307.711C413.162 307.591 413.28 307.497 413.397 307.399C424.329 291.481 430.847 271.532 430.847 249.862C430.847 197.827 393.338 155.643 347.068 155.643C300.799 155.643 263.29 197.827 263.29 249.862C263.29 301.897 300.799 344.081 347.068 344.081C366.256 344.081 383.919 336.799 398.044 324.595L407.736 313.694L413.057 307.711" fill="#3C419F"/>
    <path d="M347.068 170.397C308.107 170.397 276.41 206.044 276.41 249.861C276.41 293.679 308.107 329.325 347.068 329.325C386.03 329.325 417.727 293.679 417.727 249.861C417.727 206.044 386.03 170.397 347.068 170.397ZM347.068 331.876C306.856 331.876 274.141 295.085 274.141 249.861C274.141 204.639 306.856 167.846 347.068 167.846C387.281 167.846 419.995 204.639 419.995 249.861C419.995 295.085 387.281 331.876 347.068 331.876V331.876ZM347.068 156.919C301.498 156.919 264.425 198.612 264.425 249.861C264.425 301.111 301.498 342.805 347.068 342.805C365.387 342.805 382.752 336.175 397.293 323.633L412.255 306.809C412.361 306.688 412.475 306.584 412.592 306.484C423.793 290.116 429.713 270.541 429.713 249.861C429.713 198.612 392.638 156.919 347.068 156.919ZM347.068 345.356C300.247 345.356 262.156 302.518 262.156 249.861C262.156 197.207 300.247 154.367 347.068 154.367C393.89 154.367 431.982 197.207 431.982 249.861C431.982 271.167 425.865 291.333 414.294 308.178L414.081 308.415C413.97 308.51 413.911 308.553 413.861 308.611L398.735 325.605C383.781 338.526 365.915 345.356 347.068 345.356" fill="#3C419F"/>
    <path d="M410.985 322.443L407.736 318.789C406.485 317.382 406.485 315.101 407.736 313.694L398.044 324.595L397.885 324.772C396.634 326.178 396.634 328.46 397.885 329.866L401.829 334.301C403.13 331.85 406.934 327.049 410.985 322.443" fill="#4E5DB3"/>
    <path d="M407.736 313.694C406.485 315.101 406.485 317.382 407.736 318.789L410.986 322.443C414.905 317.986 419.04 313.727 421.361 311.958L417.585 307.711C416.44 306.423 414.652 306.328 413.397 307.399C413.28 307.497 413.162 307.591 413.057 307.711L407.736 313.694" fill="#4E5DB3"/>
    <path d="M410.984 322.441L407.736 318.789C407.11 318.085 406.798 317.164 406.798 316.242C406.798 315.319 407.11 314.398 407.736 313.694L413.057 307.711C413.162 307.591 413.28 307.497 413.397 307.399C413.97 306.91 414.655 306.664 415.339 306.664C416.151 306.664 416.963 307.011 417.585 307.711L421.358 311.954C419.035 313.729 414.897 317.992 410.984 322.441" fill="#4750AB"/>
    <path d="M482.145 378.242L423.148 311.171C422.935 310.929 422.29 311.249 421.361 311.958C419.04 313.727 414.905 317.986 410.985 322.443C406.934 327.049 403.13 331.85 401.829 334.301C401.405 335.099 401.242 335.652 401.428 335.863L460.426 402.935C466.423 409.755 476.147 409.755 482.145 402.935C488.142 396.116 488.142 385.061 482.145 378.242" fill="#6C92D3"/>
    <path d="M409.832 323.767C410.213 323.325 410.598 322.883 410.985 322.443C414.905 317.986 419.04 313.727 421.361 311.958L421.358 311.954C422.082 311.401 422.63 311.089 422.94 311.089C423.03 311.089 423.1 311.116 423.148 311.171C423.101 311.117 423.032 311.091 422.943 311.091C422.634 311.091 422.082 311.407 421.361 311.958C419.04 313.727 414.905 317.986 410.985 322.443C410.598 322.883 410.213 323.325 409.832 323.767" fill="#E4C3DC"/>
    <path d="M409.832 323.767C409.841 323.755 409.85 323.745 409.859 323.734C410.231 323.303 410.607 322.871 410.984 322.441L410.985 322.443C410.598 322.883 410.213 323.326 409.832 323.767Z" fill="#4C59B1"/>
    <path d="M410.985 322.443L410.984 322.442C414.897 317.992 419.035 313.729 421.358 311.954L421.361 311.958C419.04 313.727 414.905 317.986 410.985 322.443" fill="#454EAA"/>
    <path d="M481.099 403.346C470.498 403.338 405.396 329.481 409.832 323.767C410.213 323.325 410.598 322.883 410.985 322.443C414.905 317.986 419.04 313.727 421.361 311.958C422.082 311.407 422.634 311.091 422.943 311.091C423.032 311.091 423.101 311.117 423.148 311.171L482.145 378.242C485.144 381.652 486.643 386.12 486.643 390.589C486.643 395.058 485.144 399.526 482.145 402.935C481.901 403.213 481.551 403.346 481.099 403.346" fill="#6386CD"/>
    <path d="M264.289 294.967H70.36C59.0301 294.967 49.8454 284.638 49.8454 271.897C49.8454 259.154 59.0301 248.825 70.36 248.825H264.289C275.618 248.825 284.804 259.154 284.804 271.897C284.804 284.638 275.618 294.967 264.289 294.967Z" fill="white"/>
    <path d="M264.289 294.967H232.747L232.594 248.825H264.289C275.618 248.825 284.804 259.154 284.804 271.897C284.804 284.638 275.618 294.967 264.289 294.967Z" fill="#6C92D3"/>
    <path d="M256.306 262.35C252.609 262.35 249.602 265.733 249.602 269.89C249.602 274.048 252.609 277.431 256.306 277.431C258.098 277.431 259.781 276.646 261.047 275.223C262.313 273.798 263.011 271.905 263.011 269.89C263.011 265.733 260.003 262.35 256.306 262.35ZM256.306 279.982C251.359 279.982 247.333 275.455 247.333 269.89C247.333 264.326 251.359 259.799 256.306 259.799C261.254 259.799 265.28 264.326 265.28 269.89C265.28 272.586 264.345 275.121 262.651 277.026C260.956 278.932 258.703 279.982 256.306 279.982" fill="white"/>
    <path d="M268.929 285.448C268.64 285.448 268.349 285.325 268.127 285.075L261.009 277.069C260.566 276.571 260.566 275.764 261.009 275.265C261.452 274.766 262.17 274.767 262.613 275.265L269.731 283.271C270.174 283.77 270.174 284.577 269.731 285.075C269.51 285.325 269.219 285.448 268.929 285.448" fill="white"/>
    <path d="M267.055 342.638H170.525C163.771 342.638 158.294 336.479 158.294 328.881V319.86C158.294 312.235 152.797 306.053 146.017 306.053H101.431C94.6511 306.053 89.1545 312.235 89.1545 319.86V355.498V396.468V463.158C89.1545 470.261 94.274 476.017 100.589 476.017H267.055C273.37 476.017 278.489 470.261 278.489 463.158V355.498C278.489 348.396 273.37 342.638 267.055 342.638Z" fill="#F26690"/>
    <path d="M256.419 342.638H159.889C153.133 342.638 147.657 336.479 147.657 328.881V319.86C147.657 312.235 142.161 306.053 135.381 306.053H90.7945C84.0142 306.053 78.5177 312.235 78.5177 319.86V355.498V396.468V463.158C78.5177 470.261 83.6372 476.017 89.9521 476.017H256.419C262.733 476.017 267.853 470.261 267.853 463.158V355.498C267.853 348.396 262.733 342.638 256.419 342.638Z" fill="#F26690"/>
    <path d="M256.419 476.017H231.935C237.38 476.017 241.795 470.261 241.795 463.158V355.498C241.795 348.396 237.38 342.638 231.935 342.638H148.69C142.864 342.638 138.142 336.479 138.142 328.881V319.86C138.142 312.235 133.402 306.053 127.554 306.053H90.7945H135.381C142.161 306.053 147.657 312.235 147.657 319.86V328.881C147.657 336.479 153.133 342.638 159.889 342.638H256.419C262.733 342.638 267.853 348.396 267.853 355.498V463.158C267.853 470.261 262.733 476.017 256.419 476.017" fill="#F5799E"/>
    <path d="M174.075 476.017H88.3787C82.9327 476.017 78.5177 470.261 78.5177 463.158C78.5177 470.261 83.6372 476.017 89.9521 476.017H174.075Z" fill="#F8F7FC"/>
    <path d="M78.5177 319.86C78.5177 317.728 78.8882 315.71 79.5492 313.907H79.7141C78.947 315.71 78.5177 317.728 78.5177 319.86ZM81.1217 311.356H80.7633C82.7014 308.128 85.7175 306.053 89.1049 306.053H90.7945C86.8665 306.053 83.3691 308.128 81.1217 311.356Z" fill="#EBE7F6"/>
    <path d="M79.7141 313.907H79.5493C79.8833 312.998 80.2914 312.143 80.7633 311.356H81.1217C80.5746 312.143 80.1013 312.998 79.7141 313.907Z" fill="#FCFDFE"/>
    <path d="M231.935 476.017H89.9521C83.6372 476.017 78.5177 470.261 78.5177 463.158V396.468V355.498V319.86C78.5177 312.235 84.0142 306.053 90.7945 306.053H127.554C133.402 306.053 138.142 312.235 138.142 319.86V328.881C138.142 336.479 142.864 342.638 148.69 342.638H231.935C237.38 342.638 241.795 348.396 241.795 355.498V463.158C241.795 470.261 237.38 476.017 231.935 476.017" fill="#F68AAB"/>
    <path d="M87.4371 356.965C86.8105 356.965 86.3028 356.395 86.3028 355.689V324.386C86.3028 319.537 89.8099 315.594 94.1207 315.594H126.976C127.602 315.594 128.11 316.164 128.11 316.869C128.11 317.574 127.602 318.145 126.976 318.145H94.1207C91.0611 318.145 88.5714 320.944 88.5714 324.386V355.689C88.5714 356.395 88.0636 356.965 87.4371 356.965" fill="white"/>
    <path d="M272.166 562.671C271.677 563.235 271.259 563.854 270.914 564.517L270.389 564.211C270.313 563.832 269.994 563.572 269.644 563.619C269.27 563.667 269.003 564.049 269.047 564.47C269.091 564.89 269.43 565.192 269.804 565.142L270.011 565.076L270.522 565.373C270.238 566.077 270.032 566.82 269.912 567.589L270.755 567.756C271.015 566.098 271.715 564.571 272.78 563.345L272.166 562.671" fill="#100F0D"/>
    <path d="M278.367 559.746C278.174 559.746 277.982 559.754 277.79 559.768L277.707 558.973C277.92 558.782 278.042 558.478 278.007 558.153C277.955 557.654 277.553 557.297 277.109 557.356C276.665 557.414 276.347 557.867 276.4 558.366C276.434 558.689 276.614 558.951 276.857 559.083L276.94 559.876C276.133 560.023 275.355 560.297 274.613 560.696L274.982 561.566C276.038 560.997 277.177 560.71 278.367 560.71C278.928 560.71 279.488 560.777 280.034 560.91L280.214 559.968C279.61 559.822 278.988 559.746 278.367 559.746" fill="#100F0D"/>
    <path d="M285.826 562.983C286.2 562.932 286.464 562.549 286.419 562.128C286.374 561.708 286.034 561.41 285.659 561.461C285.311 561.509 285.056 561.847 285.061 562.234L284.592 562.696C284.119 562.15 283.585 561.664 283.001 561.249L282.544 562.064C283.826 562.972 284.827 564.256 285.44 565.78L286.22 565.382C285.938 564.678 285.58 564.021 285.156 563.419L285.61 562.975L285.826 562.983" fill="#100F0D"/>
    </svg>
