<svg width="487" height="346" viewBox="0 0 487 346" fill="none" xmlns="http://www.w3.org/2000/svg">
    <path d="M454.401 106.52H439.394V73.0392C439.161 72.9047 438.931 72.7724 438.7 72.64H434.226V72.6229H408.2V72.64H408.176V77.6572H408.2V81.1095H408.176V86.1268H408.2V89.5897H408.176V94.6091H408.2V94.6283L405.442 94.6091V68.3572H376.238V71.6814H376.223V76.6986H376.238V81.1095H376.223V86.1268H376.238V89.5897H376.223V94.6091H376.238V97.8138H376.223V102.833H376.238V106.038H376.223V111.057H376.238V114.076H376.223V117.261H376.238V117.609H343.317V146.332H331.019V153.567H317.76V141.107H293.906V107.255H290.175V103.884H289.642V107.255H286.547V107.25H271.075V103.884H270.541V107.25H266.511V124.273L246.474 124.179V134.687H229.486V69.7342H179.155V139.318H163.784V101.691H113.454V345.119L457.378 343.806L454.401 106.52" fill="#DFEBFA"/>
    <path d="M113.501 146.016V343.456H88.2235V146.016H113.501Z" fill="#DFEBFA"/>
    <path d="M229.486 80.7444H192.105V69.7342H229.486V80.7444Z" fill="#EEF6FF"/>
    <path d="M229.486 97.6899H192.105V86.6797H229.486V97.6899Z" fill="#EEF6FF"/>
    <path d="M229.486 114.99H192.105V103.98H229.486V114.99Z" fill="#EEF6FF"/>
    <path d="M229.486 132.565H192.105V121.557H229.486V132.565Z" fill="#EEF6FF"/>
    <path d="M229.486 149.523H192.105V138.513H229.486V149.523Z" fill="#EEF6FF"/>
    <path d="M394.935 75.0418H376.244V68.3571H394.935V75.0418Z" fill="#EEF6FF"/>
    <path d="M394.935 85.3347H376.244V78.6478H394.935V85.3347Z" fill="#EEF6FF"/>
    <path d="M394.935 95.841H376.244V89.1542H394.935V95.841Z" fill="#EEF6FF"/>
    <path d="M394.935 106.514H376.244V99.8271H394.935V106.514Z" fill="#EEF6FF"/>
    <path d="M394.935 116.813H376.244V110.126H394.935V116.813Z" fill="#EEF6FF"/>
    <path d="M394.935 128.148H376.244V121.461H394.935V128.148Z" fill="#EEF6FF"/>
    <path d="M394.935 138.439H376.244V131.754H394.935V138.439Z" fill="#EEF6FF"/>
    <path d="M394.935 148.945H376.244V142.26H394.935V148.945Z" fill="#EEF6FF"/>
    <path d="M394.935 159.62H376.244V152.933H394.935V159.62Z" fill="#EEF6FF"/>
    <path d="M394.935 169.919H376.244V163.232H394.935V169.919Z" fill="#EEF6FF"/>
    <path d="M426.927 79.4272H408.236V72.7403H426.927V79.4272Z" fill="#EEF6FF"/>
    <path d="M426.927 89.7178H408.236V83.0332H426.927V89.7178Z" fill="#EEF6FF"/>
    <path d="M426.927 100.224H408.236V93.5395H426.927V100.224Z" fill="#EEF6FF"/>
    <path d="M426.927 110.899H408.236V104.212H426.927V110.899Z" fill="#EEF6FF"/>
    <path d="M426.927 121.198H408.236V114.512H426.927V121.198Z" fill="#EEF6FF"/>
    <path d="M426.927 131.935H408.236V125.248H426.927V131.935Z" fill="#EEF6FF"/>
    <path d="M426.927 142.226H408.236V135.539H426.927V142.226Z" fill="#EEF6FF"/>
    <path d="M426.927 152.732H408.236V146.048H426.927V152.732Z" fill="#EEF6FF"/>
    <path d="M426.927 163.407H408.236V156.721H426.927V163.407Z" fill="#EEF6FF"/>
    <path d="M426.927 173.707H408.236V167.02H426.927V173.707Z" fill="#EEF6FF"/>
    <path d="M426.927 185.517H408.236V178.831H426.927V185.517Z" fill="#EEF6FF"/>
    <path d="M426.927 195.808H408.236V189.123H426.927V195.808Z" fill="#EEF6FF"/>
    <path d="M426.927 206.315H408.236V199.63H426.927V206.315Z" fill="#EEF6FF"/>
    <path d="M426.927 216.989H408.236V210.303H426.927V216.989Z" fill="#EEF6FF"/>
    <path d="M426.927 227.289H408.236V220.602H426.927V227.289Z" fill="#EEF6FF"/>
    <path d="M350.375 117.855H349.447V104.212H350.375V117.855Z" fill="#DFEBFA"/>
    <path d="M366.516 118.916H365.073V92.4976H366.516V118.916Z" fill="#DFEBFA"/>
    <path d="M183.098 69.7343H182.496V64.8707H183.098V69.7343Z" fill="#DFEBFA"/>
    <path d="M195.838 69.7343H195.236V64.8707H195.838V69.7343Z" fill="#DFEBFA"/>
    <path d="M225.045 69.7343H224.445V64.8707H225.045V69.7343Z" fill="#DFEBFA"/>
    <path d="M379.599 68.3571H379.136V64.6017H379.599V68.3571Z" fill="#DFEBFA"/>
    <path d="M401.526 68.3571H401.06V64.6017H401.526V68.3571Z" fill="#DFEBFA"/>
    <path d="M213.628 69.7343H213.026V64.8707H213.628V69.7343Z" fill="#DFEBFA"/>
    <path d="M334.837 106.834C329.73 94.0797 307.991 100.799 307.991 100.799C307.991 100.799 295.601 125.616 291.275 126.679C286.95 127.742 297.727 103.393 297.727 103.393C289.125 103.563 268.674 116.529 268.674 116.529C268.674 116.529 273.194 143.262 268.74 143.227C264.285 143.191 265.946 119.354 265.946 119.354C258.004 122.787 251.447 133.291 251.447 133.291C243.676 150.057 265.6 159.172 265.6 159.172C265.6 159.172 266.966 168.469 262.458 179.847C262.458 179.847 261.389 181.975 260.46 185.49L262.704 185.225C262.817 184.602 262.951 183.997 263.109 183.412L263.114 183.402L263.12 183.376C263.233 183.011 263.395 182.492 263.6 181.858L263.602 181.856V181.854C264.132 180.432 264.477 179.386 264.687 178.634L264.689 178.628C266.249 174.174 268.567 168.337 270.405 166.956C270.405 166.956 270.116 166.635 269.805 165.982C269.995 166.292 270.195 166.616 270.405 166.956C275.209 174.738 294.572 173.86 305.014 170.412C315.457 166.964 310.439 164.492 304.104 160.267C297.772 156.044 285.851 158.749 282.06 157.244C278.27 155.741 283.256 153.211 290.453 152.925C297.65 152.636 302.051 159.353 313.703 159.103C325.352 158.851 331.593 136.143 331.593 136.143C323.926 139.544 309.148 136.827 308.279 134.145C307.408 131.466 328.564 129.267 331.759 128.058C334.955 126.85 339.945 119.589 334.837 106.834" fill="#AFCDFB"/>
    <path d="M390.049 344.086C390.026 344.052 389.904 343.845 389.757 343.48C389.678 343.283 389.588 343.038 389.507 342.747C389.603 342.986 389.703 343.23 389.801 343.48C389.885 343.678 389.966 343.879 390.049 344.086V344.086ZM483.247 282.53C479.552 265.512 450.966 269.329 450.966 269.329C450.966 269.329 430.252 297.735 424.622 298.154C418.993 298.57 437.59 270.405 437.59 270.405C426.805 268.808 398.512 280.704 398.512 280.704C398.512 280.704 398.529 315.067 392.969 314.085C387.411 313.103 394.506 283.657 394.506 283.657C383.857 286.274 373.45 298.019 373.45 298.019C360.206 317.339 385.686 333.351 385.686 333.351C385.686 333.351 385.601 337.433 383.919 343.48C383.772 344.009 383.612 344.558 383.435 345.119H388.711C389.189 344.656 389.639 344.306 390.051 344.092C390.194 344.445 390.359 344.784 390.544 345.119H436.034C435.469 344.592 434.877 344.048 434.269 343.48C434.043 343.266 433.814 343.055 433.582 342.835C426.553 336.221 411.085 337.092 406.665 334.412C402.243 331.735 409.011 329.621 418.065 330.779C427.121 331.94 431.206 341.261 445.82 343.403C446.044 343.437 446.268 343.463 446.493 343.48C447.171 343.539 447.846 343.537 448.512 343.48C461.945 342.295 473.021 318.481 473.021 318.481C462.72 321.118 444.824 314.602 444.301 311.068C443.776 307.535 470.681 309.245 474.933 308.408C479.181 307.571 486.945 299.548 483.247 282.53" fill="#C7DCFB"/>
    <path d="M113.502 206.551V205.174C113.693 205.599 113.89 206.056 114.088 206.545L113.502 206.551Z" fill="#C7DCFB"/>
    <path d="M80.0919 198.622C76.818 198.622 73.6899 198.344 71.09 197.836C61.0226 195.874 65.3739 192.996 70.7385 188.342C75.1182 184.542 83.4864 184.578 88.2235 183.72V198.033C85.5587 198.434 82.7763 198.622 80.0919 198.622ZM60.8418 188.44C50.457 188.44 42.4665 169.255 42.4665 169.255C43.9435 169.699 45.6487 169.889 47.4377 169.889C54.7255 169.889 63.412 166.736 63.8052 164.663C64.295 162.082 44.4611 162.536 41.362 161.793C38.2629 161.05 32.7916 154.919 36.0184 142.516C38.0477 134.717 47.07 133.27 53.4861 133.27C57.2721 133.27 60.1503 133.774 60.1503 133.774C60.1503 133.774 74.5334 155.279 78.6604 155.753C78.7057 155.76 78.7494 155.762 78.7908 155.762C82.5074 155.762 69.9524 134.965 69.9524 134.965C70.2913 134.929 70.6544 134.911 71.0358 134.911C79.633 134.911 98.3795 143.703 98.3795 143.703C98.3795 143.703 98.3434 144.585 98.3112 146.016H88.2235V168.83V180.035C87.2969 179.902 86.2297 179.828 85.0672 179.828C84.2552 179.828 83.3968 179.864 82.5068 179.941C75.8138 180.524 72.5311 187.255 61.7214 188.393C61.4264 188.425 61.1329 188.44 60.8418 188.44" fill="#CDE0FB"/>
    <path d="M113.502 176.864V154.167C115.236 155.892 116.29 157.186 116.29 157.186C121.358 165.261 117.744 172.24 113.502 176.864Z" fill="#C7DCFB"/>
    <path d="M101.309 146.016H101.24C101.238 146.003 101.236 145.994 101.236 145.994C101.26 146.001 101.285 146.009 101.309 146.016Z" fill="#CDE0FB"/>
    <path d="M111.982 206.566C111.804 206.003 111.609 205.458 111.394 204.935L111.389 204.925L111.38 204.903C111.232 204.579 111.02 204.118 110.756 203.556L110.755 203.554L110.754 203.552C110.098 202.296 109.653 201.37 109.372 200.699L109.37 200.693C107.401 196.756 104.572 191.628 102.708 190.565C100.837 194.681 94.8942 197.029 88.2235 198.033V183.72C89.2883 183.528 90.1696 183.288 90.7811 182.951C93.0348 181.709 91.5151 180.504 88.2235 180.035V168.83V146.016H98.3112C98.1735 152.16 98.1125 168.422 101.326 168.422C101.369 168.422 101.413 168.42 101.458 168.414C105.501 167.867 101.39 146.778 101.24 146.016H101.309C106.088 147.425 110.688 151.366 113.501 154.167V168.83V176.864C110.075 180.601 106.238 182.8 106.238 182.8C106.238 182.8 106.067 191.564 111.577 201.56H111.577C111.577 201.56 112.46 202.873 113.501 205.174V206.551L111.982 206.566V206.566ZM103.149 189.593C103.009 189.903 102.862 190.227 102.708 190.565C102.708 190.565 102.938 190.236 103.149 189.593Z" fill="#C7DCFB"/>
    <path d="M618.478 344.18V344.419C618.478 344.805 618.165 345.119 617.778 345.119H1.31153C0.928619 345.119 0.611023 344.805 0.611023 344.419V344.18C0.611023 343.793 0.928619 343.48 1.31153 343.48H617.778C618.165 343.48 618.478 343.793 618.478 344.18Z" fill="#2E3552"/>
    <path d="M380.784 339.731L133.327 343.409C131.415 343.437 129.734 342.15 129.263 340.296L82.0701 154.532C81.4084 151.927 83.3688 149.395 86.0547 149.385L334.178 148.324C336.073 148.317 337.729 149.6 338.197 151.439L384.724 334.583C385.381 337.171 383.452 339.692 380.784 339.731" fill="#162B4C"/>
    <path d="M382.811 339.686L138.225 340.73C135.542 340.74 131.761 342.448 131.1 339.848L86.8919 156.661C85.9555 152.976 88.7302 149.391 92.5315 149.374L337.119 148.33C339.802 148.319 342.147 150.136 342.807 152.737L388.45 332.399C389.387 336.084 386.613 339.669 382.811 339.686Z" fill="#233862"/>
    <path d="M378.694 332.771L285.484 333.166L246.241 333.332L139.588 333.783C138.324 333.787 137.215 332.933 136.9 331.703L95.4265 169.917L91.9468 156.338C91.4986 154.592 92.8117 152.895 94.6127 152.886L329.04 151.893L333.717 151.872C334.982 151.868 336.092 152.724 336.406 153.952L340.497 169.917L351.073 211.172L360.464 247.8L381.358 329.318C381.806 331.063 380.493 332.762 378.694 332.771" fill="#9CC4FF"/>
    <path d="M340.497 169.917H95.4265L91.9468 156.338C91.4986 154.592 92.8117 152.895 94.6127 152.886L329.04 151.893L333.717 151.872C334.982 151.868 336.092 152.724 336.406 153.951L340.497 169.917" fill="#CFE3FF"/>
    <path d="M60.7666 92.2649L32.8333 96.2509L51.3703 83.6139L52.3128 87.664L59.1059 88.8959L60.7666 92.2649" fill="#9EC3F6"/>
    <path d="M32.8333 96.2509L56.0783 84.2629L78.8608 83.1164L32.8333 96.2509Z" fill="white"/>
    <path d="M51.3703 83.6139L32.8333 96.2509L47.1833 76.5L51.3703 83.6139Z" fill="white"/>
    <path d="M267.809 70.9C267.809 65.2102 272.422 60.5965 278.11 60.5965C283.798 60.5965 288.408 65.2102 288.408 70.9C288.408 76.5898 283.798 81.2014 278.11 81.2014C272.422 81.2014 267.809 76.5898 267.809 70.9Z" fill="#D5E5FB"/>
    <path d="M274.803 66.7666C274.803 64.9412 276.283 63.4595 278.11 63.4595C279.935 63.4595 281.416 64.9412 281.416 66.7666C281.416 68.592 279.935 70.0716 278.11 70.0716C276.283 70.0716 274.803 68.592 274.803 66.7666Z" fill="white"/>
    <path d="M278.11 70.0716C274.914 70.0716 272.325 72.6635 272.325 75.8596H283.894C283.894 72.6635 281.305 70.0716 278.11 70.0716Z" fill="white"/>
    <path d="M195.038 43.4908C195.038 39.6542 198.15 36.5414 201.985 36.5414C205.823 36.5414 208.935 39.6542 208.935 43.4908C208.935 47.3296 205.823 50.4424 201.985 50.4424C198.15 50.4424 195.038 47.3296 195.038 43.4908" fill="#C6DCF7"/>
    <path d="M199.757 40.7025C199.757 39.4706 200.753 38.4736 201.985 38.4736C203.217 38.4736 204.215 39.4706 204.215 40.7025C204.215 41.9365 203.217 42.9336 201.985 42.9336C200.753 42.9336 199.757 41.9365 199.757 40.7025" fill="white"/>
    <path d="M201.985 42.9336C199.831 42.9336 198.083 44.6821 198.083 46.8385H205.889C205.889 44.6821 204.141 42.9336 201.985 42.9336" fill="white"/>
    <path d="M251.526 8.59851C251.624 8.27826 251.961 8.09895 252.282 8.19716C252.602 8.2975 252.781 8.63483 252.681 8.95508C252.583 9.27319 252.245 9.45252 251.925 9.35431C251.607 9.2561 251.428 8.91876 251.526 8.59851Z" fill="#D5E5FB"/>
    <path d="M254.2 9.42262C254.299 9.10237 254.638 8.92305 254.956 9.02126C255.276 9.11947 255.455 9.45894 255.357 9.77706C255.259 10.0973 254.92 10.2766 254.602 10.1784C254.281 10.0802 254.102 9.74073 254.2 9.42262Z" fill="#D5E5FB"/>
    <path d="M257.31 11.011C256.992 10.915 256.813 10.5755 256.911 10.2552C257.009 9.93713 257.346 9.7578 257.667 9.85601C257.987 9.95422 258.166 10.2916 258.068 10.6118C257.97 10.9321 257.63 11.1093 257.31 11.011" fill="#D5E5FB"/>
    <path d="M259.622 11.0901C259.72 10.7699 260.057 10.5905 260.377 10.6908C260.695 10.7891 260.874 11.1264 260.776 11.4466C260.678 11.7647 260.341 11.9441 260.021 11.8459C259.703 11.7476 259.523 11.4104 259.622 11.0901Z" fill="#D5E5FB"/>
    <path d="M262.296 11.9142C262.394 11.5939 262.734 11.4146 263.052 11.5128C263.372 11.611 263.551 11.9505 263.453 12.2686C263.355 12.5888 263.015 12.7682 262.697 12.67C262.377 12.5718 262.198 12.2323 262.296 11.9142Z" fill="#D5E5FB"/>
    <path d="M265.406 13.5026C265.088 13.4044 264.908 13.0671 265.007 12.7468C265.105 12.4287 265.442 12.2493 265.762 12.3476C266.082 12.4458 266.262 12.7831 266.164 13.1034C266.063 13.4236 265.726 13.603 265.406 13.5026" fill="#D5E5FB"/>
    <path d="M267.609 13.5475C267.707 13.2294 268.044 13.05 268.364 13.1482C268.684 13.2464 268.861 13.5838 268.763 13.904C268.665 14.2243 268.328 14.4036 268.008 14.3054C267.69 14.2072 267.51 13.8677 267.609 13.5475Z" fill="#D5E5FB"/>
    <path d="M270.283 14.3716C270.381 14.0535 270.72 13.872 271.038 13.9702C271.359 14.0705 271.538 14.4079 271.44 14.7281C271.342 15.0462 271.002 15.2256 270.684 15.1274C270.364 15.0292 270.185 14.6918 270.283 14.3716Z" fill="#D5E5FB"/>
    <path d="M273.393 15.9621C273.075 15.8639 272.895 15.5244 272.994 15.2063C273.092 14.8861 273.431 14.7067 273.749 14.8049C274.069 14.9032 274.249 15.2426 274.15 15.5607C274.052 15.881 273.713 16.0603 273.393 15.9621" fill="#D5E5FB"/>
    <path d="M275.704 16.039C275.802 15.7209 276.14 15.5416 276.46 15.6398C276.778 15.738 276.957 16.0754 276.859 16.3956C276.761 16.7159 276.423 16.8952 276.103 16.797C275.785 16.6988 275.606 16.3593 275.704 16.039Z" fill="#D5E5FB"/>
    <path d="M278.378 16.8631C278.477 16.5428 278.816 16.3635 279.134 16.4639C279.454 16.5621 279.634 16.8994 279.535 17.2197C279.437 17.5378 279.098 17.7171 278.78 17.6189C278.46 17.5207 278.28 17.1833 278.378 16.8631Z" fill="#D5E5FB"/>
    <path d="M281.488 18.4537C281.17 18.3555 280.991 18.0161 281.089 17.6979C281.187 17.3777 281.525 17.1983 281.845 17.2966C282.165 17.3948 282.344 17.7342 282.246 18.0523C282.146 18.3726 281.809 18.5519 281.488 18.4537" fill="#D5E5FB"/>
    <path d="M283.806 18.5327C283.904 18.2146 284.242 18.0352 284.562 18.1334C284.882 18.2316 285.061 18.569 284.963 18.8892C284.865 19.2095 284.526 19.3888 284.205 19.2906C283.887 19.1924 283.708 18.8529 283.806 18.5327" fill="#D5E5FB"/>
    <path d="M286.481 19.3568C286.579 19.0387 286.918 18.8572 287.236 18.9576C287.556 19.0558 287.736 19.3931 287.637 19.7133C287.539 20.0315 287.2 20.2108 286.882 20.1126C286.562 20.0144 286.383 19.6771 286.481 19.3568Z" fill="#D5E5FB"/>
    <path d="M289.593 20.9474C289.272 20.8492 289.093 20.5097 289.191 20.1916C289.289 19.8713 289.629 19.692 289.947 19.7902C290.267 19.8884 290.446 20.2279 290.348 20.546C290.25 20.8662 289.911 21.0456 289.593 20.9474Z" fill="#D5E5FB"/>
    <path d="M291.902 21.0242C292 20.7061 292.337 20.5268 292.657 20.625C292.978 20.7232 293.155 21.0627 293.057 21.3808C292.958 21.701 292.621 21.8804 292.301 21.7821C291.983 21.6839 291.804 21.3445 291.902 21.0242Z" fill="#D5E5FB"/>
    <path d="M294.576 21.8483C294.675 21.5281 295.014 21.3509 295.332 21.4491C295.652 21.5473 295.831 21.8846 295.733 22.2049C295.635 22.523 295.296 22.7023 294.978 22.6041C294.657 22.5059 294.478 22.1686 294.576 21.8483Z" fill="#D5E5FB"/>
    <path d="M297.686 23.4389C297.368 23.3407 297.189 23.0013 297.287 22.6832C297.385 22.3629 297.725 22.1836 298.043 22.2818C298.363 22.38 298.542 22.7195 298.444 23.0376C298.346 23.3578 298.006 23.5371 297.686 23.4389" fill="#D5E5FB"/>
    <path d="M299.889 23.4838C299.987 23.1635 300.324 22.9842 300.644 23.0824C300.965 23.1806 301.144 23.5201 301.046 23.8382C300.945 24.1585 300.608 24.3378 300.288 24.2396C299.97 24.1414 299.791 23.8019 299.889 23.4838" fill="#D5E5FB"/>
    <path d="M302.563 24.3057C302.661 23.9876 303.001 23.8082 303.319 23.9065C303.639 24.0047 303.818 24.3441 303.72 24.6622C303.622 24.9825 303.283 25.1619 302.964 25.0636C302.644 24.9654 302.465 24.626 302.563 24.3057Z" fill="#D5E5FB"/>
    <path d="M305.675 25.8963C305.355 25.7981 305.176 25.4608 305.274 25.1405C305.372 24.8224 305.711 24.643 306.029 24.7412C306.349 24.8394 306.529 25.1768 306.431 25.497C306.332 25.8151 305.993 25.9945 305.675 25.8963Z" fill="#D5E5FB"/>
    <path d="M307.984 25.9753C308.083 25.655 308.42 25.4757 308.74 25.5739C309.06 25.6721 309.238 26.0115 309.139 26.3297C309.041 26.6499 308.704 26.8293 308.384 26.7311C308.066 26.6329 307.886 26.2934 307.984 25.9753Z" fill="#D5E5FB"/>
    <path d="M310.659 26.7994C310.757 26.4791 311.096 26.2998 311.414 26.398C311.734 26.4962 311.914 26.8357 311.816 27.1538C311.717 27.474 311.378 27.6534 311.06 27.5552C310.74 27.457 310.561 27.1175 310.659 26.7994Z" fill="#D5E5FB"/>
    <path d="M313.769 28.3878C313.451 28.2896 313.271 27.9523 313.37 27.632C313.468 27.3139 313.805 27.1346 314.125 27.2328C314.445 27.331 314.625 27.6684 314.526 27.9886C314.428 28.3067 314.089 28.4861 313.769 28.3878" fill="#D5E5FB"/>
    <path d="M285.326 60.3595C285.057 60.1631 284.997 59.783 285.196 59.514C285.392 59.245 285.772 59.1852 286.041 59.3838C286.31 59.5802 286.368 59.9602 286.171 60.2292C285.975 60.4982 285.595 60.5559 285.326 60.3595Z" fill="#D5E5FB"/>
    <path d="M286.98 58.1006C286.711 57.9042 286.651 57.5242 286.85 57.2552C287.046 56.9862 287.426 56.9264 287.695 57.1249C287.964 57.3214 288.022 57.7014 287.825 57.9704C287.627 58.2394 287.249 58.2992 286.98 58.1006Z" fill="#D5E5FB"/>
    <path d="M289.501 55.6817C289.304 55.9528 288.925 56.0105 288.656 55.814C288.387 55.6155 288.327 55.2376 288.525 54.9665C288.722 54.6974 289.102 54.6398 289.371 54.8362C289.64 55.0348 289.699 55.4127 289.501 55.6817Z" fill="#D5E5FB"/>
    <path d="M290.331 53.5253C290.062 53.3268 290.003 52.9489 290.201 52.6798C290.397 52.4087 290.777 52.351 291.046 52.5475C291.315 52.746 291.375 53.1239 291.176 53.3951C290.98 53.6641 290.6 53.7218 290.331 53.5253Z" fill="#D5E5FB"/>
    <path d="M291.985 51.2665C291.716 51.0679 291.657 50.69 291.855 50.421C292.051 50.152 292.431 50.0922 292.7 50.2908C292.969 50.4872 293.029 50.8651 292.83 51.1362C292.634 51.4053 292.254 51.4629 291.985 51.2665Z" fill="#D5E5FB"/>
    <path d="M294.506 48.8475C294.31 49.1165 293.93 49.1763 293.661 48.9778C293.392 48.7814 293.334 48.4013 293.531 48.1323C293.727 47.8633 294.107 47.8035 294.376 48.0021C294.645 48.1985 294.705 48.5785 294.506 48.8475Z" fill="#D5E5FB"/>
    <path d="M295.34 46.6848C295.072 46.4862 295.014 46.1083 295.21 45.8393C295.409 45.5682 295.787 45.5105 296.056 45.707C296.325 45.9055 296.384 46.2834 296.186 46.5546C295.989 46.8236 295.609 46.8812 295.34 46.6848Z" fill="#D5E5FB"/>
    <path d="M296.995 44.426C296.726 44.2274 296.668 43.8495 296.864 43.5805C297.063 43.3115 297.441 43.2517 297.71 43.4503C297.979 43.6467 298.038 44.0246 297.84 44.2957C297.643 44.5647 297.264 44.6224 296.995 44.426Z" fill="#D5E5FB"/>
    <path d="M299.515 42.007C299.319 42.276 298.941 42.3358 298.67 42.1372C298.401 41.9408 298.343 41.5608 298.54 41.2918C298.738 41.0227 299.116 40.963 299.385 41.1615C299.654 41.3579 299.714 41.738 299.515 42.007Z" fill="#D5E5FB"/>
    <path d="M300.346 39.8485C300.077 39.6521 300.019 39.2742 300.215 39.003C300.414 38.734 300.792 38.6764 301.061 38.8728C301.332 39.0714 301.389 39.4493 301.191 39.7183C300.994 39.9873 300.617 40.0471 300.346 39.8485" fill="#D5E5FB"/>
    <path d="M302 37.5918C301.731 37.3933 301.673 37.0154 301.87 36.7442C302.068 36.4752 302.446 36.4176 302.715 36.614C302.984 36.8126 303.044 37.1905 302.845 37.4595C302.649 37.7306 302.271 37.7882 302 37.5918Z" fill="#D5E5FB"/>
    <path d="M304.52 35.1729C304.324 35.4419 303.946 35.4996 303.675 35.3032C303.406 35.1046 303.349 34.7267 303.545 34.4577C303.743 34.1865 304.121 34.1288 304.39 34.3274C304.661 34.5238 304.719 34.9018 304.52 35.1729Z" fill="#D5E5FB"/>
    <path d="M305.285 33.1062C305.016 32.9077 304.956 32.5298 305.154 32.2608C305.351 31.9918 305.731 31.932 306 32.1306C306.268 32.327 306.328 32.707 306.13 32.976C305.933 33.245 305.553 33.3026 305.285 33.1062Z" fill="#D5E5FB"/>
    <path d="M306.939 30.8474C306.67 30.651 306.61 30.2709 306.808 30.0019C307.005 29.7329 307.385 29.6731 307.654 29.8717C307.923 30.0681 307.982 30.4481 307.784 30.7171C307.588 30.9862 307.208 31.0459 306.939 30.8474Z" fill="#D5E5FB"/>
    <path d="M309.459 28.4284C309.263 28.6996 308.883 28.7572 308.614 28.5586C308.345 28.3622 308.288 27.9843 308.484 27.7132C308.682 27.4442 309.06 27.3865 309.329 27.583C309.598 27.7815 309.658 28.1594 309.459 28.4284Z" fill="#D5E5FB"/>
    <path d="M310.29 26.2721C310.021 26.0735 309.963 25.6956 310.159 25.4266C310.358 25.1554 310.736 25.0978 311.005 25.2942C311.274 25.4928 311.333 25.8706 311.135 26.1397C310.938 26.4108 310.559 26.4685 310.29 26.2721Z" fill="#D5E5FB"/>
    <path d="M311.944 24.0132C311.675 23.8146 311.617 23.4368 311.814 23.1677C312.01 22.8966 312.39 22.8389 312.659 23.0375C312.928 23.2339 312.988 23.6118 312.789 23.883C312.593 24.152 312.213 24.2096 311.944 24.0132Z" fill="#D5E5FB"/>
    <path d="M314.464 21.5943C314.268 21.8633 313.89 21.9231 313.619 21.7245C313.35 21.5281 313.293 21.1481 313.489 20.8791C313.688 20.6101 314.065 20.5502 314.334 20.7488C314.605 20.9452 314.663 21.3253 314.464 21.5943Z" fill="#D5E5FB"/>
    <path d="M290.331 69.841C290.278 69.5101 290.502 69.2005 290.831 69.145C291.159 69.0916 291.471 69.3158 291.524 69.6446C291.58 69.9755 291.356 70.2851 291.027 70.3406C290.696 70.394 290.384 70.1698 290.331 69.841Z" fill="#D5E5FB"/>
    <path d="M293.093 69.3884C293.04 69.0575 293.264 68.7457 293.592 68.6924C293.921 68.639 294.233 68.8632 294.286 69.192C294.342 69.5208 294.117 69.8325 293.789 69.8858C293.458 69.9414 293.148 69.7172 293.093 69.3884Z" fill="#D5E5FB"/>
    <path d="M296.587 69.4289C296.256 69.4823 295.947 69.2581 295.891 68.9294C295.838 68.5984 296.062 68.2888 296.39 68.2333C296.721 68.1799 297.031 68.4041 297.086 68.7329C297.14 69.0639 296.916 69.3734 296.587 69.4289Z" fill="#D5E5FB"/>
    <path d="M298.689 68.4703C298.636 68.1394 298.86 67.8298 299.189 67.7743C299.519 67.7209 299.829 67.9451 299.884 68.2739C299.938 68.6048 299.714 68.9144 299.385 68.9699C299.054 69.0233 298.745 68.7991 298.689 68.4703Z" fill="#D5E5FB"/>
    <path d="M301.451 68.0177C301.398 67.6868 301.622 67.3772 301.951 67.3217C302.282 67.2683 302.591 67.4925 302.647 67.8213C302.7 68.1501 302.476 68.4618 302.147 68.5173C301.816 68.5707 301.507 68.3465 301.451 68.0177Z" fill="#D5E5FB"/>
    <path d="M304.945 68.0582C304.614 68.1116 304.305 67.8875 304.249 67.5587C304.196 67.2277 304.42 66.9181 304.749 66.8626C305.08 66.8093 305.389 67.0334 305.445 67.3622C305.498 67.6932 305.274 68.0027 304.945 68.0582Z" fill="#D5E5FB"/>
    <path d="M307.056 67.0975C307.003 66.7687 307.225 66.457 307.555 66.4036C307.884 66.3502 308.196 66.5723 308.249 66.9032C308.302 67.232 308.08 67.5437 307.75 67.5971C307.421 67.6526 307.109 67.4284 307.056 67.0975Z" fill="#D5E5FB"/>
    <path d="M309.818 66.6449C309.765 66.3161 309.987 66.0044 310.317 65.951C310.646 65.8955 310.958 66.1197 311.011 66.4506C311.064 66.7794 310.842 67.0911 310.512 67.1445C310.183 67.1979 309.871 66.9758 309.818 66.6449Z" fill="#D5E5FB"/>
    <path d="M313.31 66.6855C312.981 66.7388 312.669 66.5168 312.616 66.1859C312.563 65.8571 312.785 65.5454 313.115 65.492C313.444 65.4386 313.756 65.6607 313.809 65.9916C313.862 66.3204 313.64 66.6321 313.31 66.6855Z" fill="#D5E5FB"/>
    <path d="M315.414 65.7268C315.361 65.3981 315.583 65.0864 315.914 65.033C316.242 64.9796 316.554 65.2016 316.607 65.5326C316.663 65.8613 316.439 66.173 316.108 66.2264C315.779 66.2819 315.468 66.0578 315.414 65.7268Z" fill="#D5E5FB"/>
    <path d="M318.176 65.2742C318.123 64.9454 318.345 64.6337 318.676 64.5804C319.004 64.527 319.316 64.749 319.369 65.0799C319.425 65.4087 319.201 65.7204 318.87 65.7738C318.541 65.8272 318.229 65.6052 318.176 65.2742Z" fill="#D5E5FB"/>
    <path d="M321.668 65.3148C321.339 65.3703 321.028 65.1461 320.974 64.8152C320.921 64.4864 321.143 64.1747 321.474 64.1213C321.802 64.068 322.114 64.29 322.167 64.6209C322.223 64.9497 321.999 65.2614 321.668 65.3148Z" fill="#D5E5FB"/>
    <path d="M323.661 64.3754C323.606 64.0466 323.83 63.7349 324.159 63.6815C324.49 63.626 324.801 63.8502 324.855 64.179C324.908 64.5099 324.684 64.8216 324.355 64.875C324.026 64.9284 323.715 64.7063 323.661 64.3754" fill="#D5E5FB"/>
    <path d="M326.423 63.9228C326.368 63.594 326.592 63.2823 326.921 63.2268C327.252 63.1734 327.563 63.3976 327.617 63.7264C327.67 64.0573 327.448 64.3669 327.117 64.4224C326.788 64.4758 326.477 64.2516 326.423 63.9228" fill="#D5E5FB"/>
    <path d="M329.915 63.9633C329.587 64.0167 329.275 63.7947 329.222 63.4638C329.166 63.135 329.39 62.8233 329.719 62.7699C330.05 62.7144 330.361 62.9385 330.415 63.2673C330.468 63.5983 330.246 63.91 329.915 63.9633" fill="#D5E5FB"/>
    <path d="M332.02 63.0047C331.964 62.676 332.188 62.3642 332.517 62.3109C332.848 62.2554 333.16 62.4795 333.213 62.8083C333.266 63.1392 333.044 63.4509 332.713 63.5043C332.385 63.5577 332.073 63.3357 332.02 63.0047" fill="#D5E5FB"/>
    <path d="M334.782 62.5521C334.726 62.2233 334.95 61.9116 335.281 61.8582C335.61 61.8027 335.921 62.0269 335.975 62.3557C336.028 62.6866 335.806 62.9983 335.475 63.0517C335.147 63.1051 334.835 62.8809 334.782 62.5521Z" fill="#D5E5FB"/>
    <path d="M338.273 62.5927C337.945 62.646 337.633 62.424 337.58 62.0931C337.524 61.7643 337.748 61.4526 338.079 61.3992C338.408 61.3437 338.719 61.5679 338.773 61.8988C338.826 62.2276 338.604 62.5393 338.273 62.5927Z" fill="#D5E5FB"/>
    <path d="M274.434 58.8052C274.116 58.9056 273.775 58.7305 273.674 58.4124C273.572 58.0943 273.747 57.7548 274.065 57.6523C274.383 57.5499 274.725 57.7271 274.827 58.0452C274.927 58.3633 274.752 58.7027 274.434 58.8052Z" fill="#D5E5FB"/>
    <path d="M273.583 56.1386C273.265 56.2411 272.923 56.0639 272.821 55.7458C272.72 55.4277 272.895 55.0882 273.213 54.9857C273.531 54.8832 273.873 55.0583 273.973 55.3785C274.076 55.6967 273.901 56.0361 273.583 56.1386Z" fill="#D5E5FB"/>
    <path d="M273.111 52.6756C273.211 52.9937 273.036 53.3353 272.718 53.4357C272.4 53.5382 272.059 53.3631 271.958 53.045C271.856 52.7269 272.031 52.3852 272.349 52.2828C272.669 52.1824 273.008 52.3575 273.111 52.6756Z" fill="#D5E5FB"/>
    <path d="M271.854 50.7349C271.536 50.8374 271.196 50.6602 271.094 50.3421C270.994 50.0239 271.169 49.6845 271.487 49.582C271.805 49.4795 272.144 49.6567 272.246 49.9748C272.349 50.2929 272.174 50.6324 271.854 50.7349Z" fill="#D5E5FB"/>
    <path d="M271.002 48.0683C270.684 48.1708 270.345 47.9936 270.242 47.6754C270.14 47.3573 270.317 47.0178 270.635 46.9153C270.953 46.8128 271.292 46.9901 271.395 47.3082C271.495 47.6263 271.32 47.9658 271.002 48.0683Z" fill="#D5E5FB"/>
    <path d="M270.531 44.6053C270.633 44.9234 270.458 45.265 270.14 45.3653C269.822 45.4678 269.48 45.2927 269.378 44.9746C269.278 44.6565 269.453 44.3149 269.771 44.2146C270.089 44.1121 270.43 44.2872 270.531 44.6053Z" fill="#D5E5FB"/>
    <path d="M269.273 42.6582C268.955 42.7585 268.614 42.5835 268.513 42.2653C268.411 41.9472 268.586 41.6078 268.904 41.5053C269.224 41.4028 269.564 41.5779 269.666 41.8981C269.766 42.2162 269.591 42.5557 269.273 42.6582Z" fill="#D5E5FB"/>
    <path d="M268.422 39.9915C268.104 40.0919 267.762 39.9168 267.662 39.5987C267.56 39.2806 267.735 38.939 268.053 38.8386C268.371 38.7362 268.712 38.9112 268.812 39.2293C268.915 39.5496 268.74 39.889 268.422 39.9915Z" fill="#D5E5FB"/>
    <path d="M267.95 36.5286C268.05 36.8467 267.875 37.1883 267.557 37.2886C267.239 37.3911 266.9 37.216 266.797 36.8979C266.695 36.5798 266.872 36.2382 267.19 36.1358C267.508 36.0354 267.848 36.2105 267.95 36.5286Z" fill="#D5E5FB"/>
    <path d="M266.695 34.5879C266.377 34.6882 266.035 34.5131 265.933 34.195C265.833 33.8769 266.008 33.5374 266.326 33.4349C266.644 33.3325 266.985 33.5097 267.086 33.8278C267.188 34.1459 267.013 34.4854 266.695 34.5879Z" fill="#D5E5FB"/>
    <path d="M265.841 31.9212C265.523 32.0216 265.184 31.8465 265.081 31.5284C264.981 31.2103 265.156 30.8708 265.474 30.7683C265.792 30.6659 266.132 30.8409 266.234 31.1612C266.336 31.4793 266.159 31.8188 265.841 31.9212Z" fill="#D5E5FB"/>
    <path d="M265.37 28.4583C265.472 28.7764 265.297 29.118 264.979 29.2184C264.661 29.3208 264.319 29.1458 264.219 28.8276C264.117 28.5095 264.292 28.168 264.61 28.0655C264.928 27.9651 265.269 28.1402 265.37 28.4583Z" fill="#D5E5FB"/>
    <path d="M264.149 26.6243C263.831 26.7268 263.491 26.5517 263.389 26.2336C263.289 25.9155 263.464 25.5739 263.782 25.4735C264.1 25.3711 264.439 25.5461 264.541 25.8643C264.644 26.1824 264.469 26.524 264.149 26.6243Z" fill="#D5E5FB"/>
    <path d="M263.297 23.9598C262.979 24.0602 262.64 23.8851 262.537 23.567C262.435 23.2489 262.612 22.9073 262.93 22.8069C263.248 22.7044 263.587 22.8795 263.69 23.1976C263.79 23.5158 263.615 23.8573 263.297 23.9598Z" fill="#D5E5FB"/>
    <path d="M262.825 20.4969C262.928 20.815 262.753 21.1544 262.435 21.2569C262.117 21.3594 261.775 21.1843 261.673 20.8641C261.572 20.546 261.747 20.2065 262.066 20.104C262.384 20.0037 262.725 20.1788 262.825 20.4969Z" fill="#D5E5FB"/>
    <path d="M261.57 18.5562C261.252 18.6565 260.913 18.4814 260.811 18.1633C260.708 17.8452 260.883 17.5036 261.201 17.4033C261.521 17.3008 261.861 17.4759 261.963 17.794C262.063 18.1121 261.888 18.4537 261.57 18.5562Z" fill="#D5E5FB"/>
    <path d="M260.719 15.8895C260.401 15.9899 260.059 15.8148 259.959 15.4967C259.856 15.1785 260.031 14.8369 260.35 14.7366C260.668 14.6341 261.009 14.8092 261.109 15.1273C261.212 15.4454 261.037 15.787 260.719 15.8895Z" fill="#D5E5FB"/>
    <path d="M260.247 12.4266C260.347 12.7447 260.172 13.0842 259.854 13.1866C259.536 13.2891 259.197 13.114 259.094 12.7938C258.992 12.4757 259.169 12.1362 259.487 12.0337C259.805 11.9334 260.145 12.1085 260.247 12.4266Z" fill="#D5E5FB"/>
    <path d="M205.855 40.0983C205.665 39.8251 205.735 39.4472 206.008 39.2572C206.284 39.0671 206.661 39.1376 206.851 39.4109C207.039 39.6863 206.971 40.0642 206.696 40.2542C206.42 40.4442 206.045 40.3738 205.855 40.0983" fill="#D5E5FB"/>
    <path d="M208.158 38.5098C207.968 38.2344 208.038 37.8565 208.313 37.6665C208.587 37.4765 208.964 37.547 209.154 37.8224C209.344 38.0957 209.274 38.4735 208.999 38.6635C208.725 38.8536 208.348 38.7831 208.158 38.5098Z" fill="#D5E5FB"/>
    <path d="M211.334 37.0517C211.058 37.2417 210.683 37.1733 210.493 36.8979C210.303 36.6225 210.371 36.2467 210.646 36.0567C210.922 35.8667 211.297 35.935 211.487 36.2105C211.677 36.4859 211.609 36.8616 211.334 37.0517Z" fill="#D5E5FB"/>
    <path d="M212.826 35.286C212.636 35.0106 212.706 34.6348 212.979 34.4448C213.254 34.2548 213.632 34.3232 213.82 34.5986C214.01 34.874 213.942 35.2497 213.666 35.4397C213.391 35.6297 213.015 35.5614 212.826 35.286Z" fill="#D5E5FB"/>
    <path d="M215.128 33.6954C214.939 33.42 215.009 33.0442 215.284 32.8542C215.557 32.6642 215.935 32.7347 216.125 33.0079C216.315 33.2834 216.245 33.6613 215.969 33.8491C215.696 34.0392 215.318 33.9708 215.128 33.6954Z" fill="#D5E5FB"/>
    <path d="M218.304 32.2394C218.029 32.4294 217.653 32.3589 217.464 32.0856C217.274 31.8102 217.342 31.4323 217.617 31.2423C217.893 31.0523 218.268 31.1228 218.458 31.3982C218.648 31.6715 218.58 32.0494 218.304 32.2394Z" fill="#D5E5FB"/>
    <path d="M219.803 30.4694C219.613 30.194 219.681 29.8183 219.956 29.6282C220.232 29.4382 220.607 29.5066 220.797 29.782C220.987 30.0574 220.919 30.4331 220.644 30.6232C220.368 30.8132 219.993 30.7449 219.803 30.4694Z" fill="#D5E5FB"/>
    <path d="M222.106 28.8789C221.916 28.6035 221.984 28.2277 222.259 28.0377C222.535 27.8477 222.913 27.916 223.1 28.1915C223.29 28.4669 223.222 28.8426 222.947 29.0326C222.671 29.2226 222.296 29.1543 222.106 28.8789Z" fill="#D5E5FB"/>
    <path d="M225.282 27.4228C225.006 27.6129 224.629 27.5424 224.439 27.267C224.251 26.9937 224.319 26.6158 224.594 26.4258C224.868 26.2358 225.245 26.3063 225.435 26.5795C225.625 26.8549 225.555 27.2328 225.282 27.4228" fill="#D5E5FB"/>
    <path d="M226.774 25.6572C226.584 25.3817 226.652 25.0038 226.927 24.8159C227.203 24.6259 227.578 24.6943 227.768 24.9697C227.958 25.2451 227.89 25.6209 227.615 25.8109C227.339 26.0009 226.964 25.9304 226.774 25.6572Z" fill="#D5E5FB"/>
    <path d="M229.077 24.0666C228.887 23.7912 228.955 23.4154 229.23 23.2254C229.506 23.0354 229.883 23.1037 230.071 23.3791C230.261 23.6545 230.193 24.0303 229.918 24.2203C229.642 24.4103 229.267 24.342 229.077 24.0666Z" fill="#D5E5FB"/>
    <path d="M232.253 22.6084C231.977 22.7984 231.599 22.7301 231.41 22.4547C231.22 22.1792 231.29 21.8035 231.565 21.6134C231.839 21.4234 232.216 21.4918 232.406 21.7672C232.596 22.0426 232.526 22.4184 232.253 22.6084" fill="#D5E5FB"/>
    <path d="M233.651 20.9089C233.461 20.6335 233.529 20.2556 233.804 20.0678C234.08 19.8777 234.455 19.946 234.645 20.2215C234.835 20.4969 234.767 20.8726 234.492 21.0627C234.216 21.2527 233.841 21.1843 233.651 20.9089Z" fill="#D5E5FB"/>
    <path d="M235.954 19.3184C235.764 19.0429 235.834 18.6672 236.107 18.4772C236.383 18.2871 236.76 18.3554 236.95 18.6309C237.14 18.9063 237.07 19.2821 236.795 19.4721C236.521 19.6621 236.144 19.5938 235.954 19.3184" fill="#D5E5FB"/>
    <path d="M239.13 17.8602C238.854 18.0502 238.476 17.9818 238.289 17.7064C238.099 17.431 238.167 17.0553 238.442 16.8653C238.718 16.6753 239.093 16.7436 239.283 17.019C239.473 17.2944 239.405 17.6723 239.13 17.8602Z" fill="#D5E5FB"/>
    <path d="M240.621 16.0945C240.432 15.8212 240.5 15.4434 240.775 15.2534C241.05 15.0633 241.426 15.1338 241.616 15.4092C241.806 15.6825 241.738 16.0604 241.462 16.2504C241.187 16.4404 240.811 16.3699 240.621 16.0945Z" fill="#D5E5FB"/>
    <path d="M242.924 14.5061C242.735 14.2307 242.805 13.8528 243.078 13.6628C243.353 13.4728 243.731 13.5432 243.921 13.8186C244.109 14.0919 244.041 14.4698 243.765 14.6598C243.492 14.8498 243.114 14.7793 242.924 14.5061" fill="#D5E5FB"/>
    <path d="M246.1 13.0479C245.825 13.2379 245.447 13.1696 245.26 12.8942C245.07 12.6187 245.138 12.243 245.413 12.053C245.689 11.8629 246.064 11.9312 246.254 12.2067C246.444 12.4821 246.376 12.8578 246.1 13.0479Z" fill="#D5E5FB"/>
    <path d="M321.495 31.8252C321.736 31.5946 322.121 31.6031 322.351 31.8444C322.582 32.0857 322.575 32.4678 322.334 32.6984C322.093 32.929 321.709 32.9225 321.478 32.6813C321.248 32.44 321.254 32.0558 321.495 31.8252" fill="#D5E5FB"/>
    <path d="M323.433 33.847C323.674 33.6164 324.056 33.6229 324.287 33.8641C324.519 34.1054 324.511 34.4897 324.27 34.7202C324.029 34.9508 323.645 34.9444 323.414 34.701C323.184 34.4619 323.192 34.0776 323.433 33.847" fill="#D5E5FB"/>
    <path d="M325.375 36.7506C325.145 36.5094 325.153 36.1251 325.395 35.8945C325.636 35.6639 326.018 35.6725 326.248 35.9137C326.481 36.155 326.473 36.5371 326.231 36.7698C325.99 37.0004 325.606 36.9919 325.375 36.7506" fill="#D5E5FB"/>
    <path d="M327.356 37.9441C327.597 37.7114 327.979 37.72 328.212 37.9612C328.442 38.2025 328.434 38.5846 328.193 38.8173C327.952 39.0479 327.57 39.0394 327.337 38.7981C327.106 38.5569 327.115 38.1747 327.356 37.9441" fill="#D5E5FB"/>
    <path d="M329.292 39.9638C329.533 39.7332 329.915 39.7417 330.148 39.983C330.379 40.2242 330.37 40.6064 330.129 40.8391C329.888 41.0697 329.505 41.0612 329.273 40.8199C329.042 40.5787 329.051 40.1965 329.292 39.9638Z" fill="#D5E5FB"/>
    <path d="M331.236 42.8674C331.004 42.6261 331.012 42.244 331.253 42.0134C331.495 41.7807 331.877 41.7892 332.109 42.0305C332.34 42.2717 332.331 42.656 332.09 42.8866C331.849 43.1172 331.467 43.1086 331.236 42.8674" fill="#D5E5FB"/>
    <path d="M333.221 44.0652C333.462 43.8346 333.845 43.8431 334.075 44.0844C334.306 44.3256 334.299 44.7078 334.058 44.9405C333.817 45.1711 333.433 45.1625 333.202 44.9213C332.972 44.68 332.98 44.2979 333.221 44.0652" fill="#D5E5FB"/>
    <path d="M335.157 46.087C335.399 45.8564 335.781 45.865 336.011 46.1062C336.244 46.3475 336.235 46.7296 335.994 46.9602C335.753 47.1929 335.369 47.1844 335.138 46.9431C334.908 46.7019 334.916 46.3197 335.157 46.087" fill="#D5E5FB"/>
    <path d="M337.099 48.9906C336.869 48.7493 336.877 48.3672 337.119 48.1366C337.36 47.9039 337.742 47.9124 337.975 48.1537C338.205 48.3949 338.197 48.7792 337.955 49.0098C337.714 49.2404 337.332 49.2318 337.099 48.9906Z" fill="#D5E5FB"/>
    <path d="M339.08 50.184C339.321 49.9534 339.703 49.9598 339.936 50.2011C340.166 50.4445 340.158 50.8266 339.917 51.0572C339.676 51.2878 339.294 51.2814 339.061 51.0402C338.83 50.7989 338.839 50.4146 339.08 50.184Z" fill="#D5E5FB"/>
    <path d="M341.016 52.2059C341.257 51.9732 341.641 51.9818 341.872 52.223C342.103 52.4643 342.094 52.8486 341.853 53.0791C341.612 53.3097 341.23 53.3012 340.999 53.0599C340.766 52.8187 340.775 52.4365 341.016 52.2059" fill="#D5E5FB"/>
    <path d="M342.96 55.1095C342.728 54.8682 342.736 54.4839 342.978 54.2534C343.219 54.0228 343.603 54.0313 343.833 54.2726C344.064 54.5138 344.055 54.896 343.814 55.1266C343.573 55.3593 343.191 55.3507 342.96 55.1095" fill="#D5E5FB"/>
    <path d="M247.861 9.3821C247.861 4.65307 251.692 0.818574 256.42 0.818574C261.148 0.818574 264.979 4.65307 264.979 9.3821C264.979 14.1111 261.148 17.9435 256.42 17.9435C251.692 17.9435 247.861 14.1111 247.861 9.3821Z" fill="#D5E5FB"/>
    <path d="M253.673 5.94684C253.673 4.42885 254.903 3.19907 256.42 3.19907C257.938 3.19907 259.167 4.42885 259.167 5.94684C259.167 7.46483 257.938 8.69458 256.42 8.69458C254.903 8.69458 253.673 7.46483 253.673 5.94684Z" fill="white"/>
    <path d="M256.42 8.69458C253.765 8.69458 251.611 10.8467 251.611 13.5026H261.227C261.227 10.8467 259.075 8.69458 256.42 8.69458Z" fill="white"/>
    <path d="M302.538 24.485C302.538 17.1983 308.441 11.2907 315.726 11.2907C323.01 11.2907 328.916 17.1983 328.916 24.485C328.916 31.7718 323.01 37.6772 315.726 37.6772C308.441 37.6772 302.538 31.7718 302.538 24.485" fill="#C6DCF7"/>
    <path d="M311.493 19.1902C311.493 16.8524 313.389 14.9566 315.726 14.9566C318.065 14.9566 319.961 16.8524 319.961 19.1902C319.961 21.5302 318.065 23.4261 315.726 23.4261C313.389 23.4261 311.493 21.5302 311.493 19.1902" fill="white"/>
    <path d="M315.726 23.4261C311.634 23.4261 308.317 26.7439 308.317 30.8367H323.134C323.134 26.7439 319.817 23.4261 315.726 23.4261Z" fill="white"/>
    <path d="M339.842 60.6391C339.842 55.7179 343.827 51.7319 348.747 51.7319C353.664 51.7319 357.649 55.7179 357.649 60.6391C357.649 65.5581 353.664 69.5442 348.747 69.5442C343.827 69.5442 339.842 65.5581 339.842 60.6391Z" fill="#D5E5FB"/>
    <path d="M349.801 62.7571C349.803 62.5756 349.78 62.4133 349.731 62.2746C349.682 62.1337 349.598 62.0077 349.485 61.8924C349.37 61.7792 349.221 61.6725 349.037 61.5743C348.853 61.4761 348.629 61.38 348.365 61.2839C347.91 61.1174 347.496 60.9423 347.127 60.7609C346.755 60.5815 346.437 60.3723 346.175 60.1396C345.912 59.9047 345.71 59.6336 345.567 59.324C345.424 59.0123 345.355 58.6451 345.362 58.2202C345.368 57.8509 345.439 57.5157 345.573 57.2146C345.707 56.9136 345.899 56.651 346.145 56.429C346.39 56.2069 346.685 56.0276 347.024 55.8909C347.366 55.7543 347.746 55.671 348.168 55.6369L348.188 54.2448L349.308 54.2619L349.287 55.6732C349.688 55.7308 350.051 55.844 350.375 56.0084C350.7 56.1728 350.975 56.3863 351.199 56.6446C351.425 56.9051 351.596 57.2104 351.716 57.5605C351.833 57.9128 351.891 58.3035 351.884 58.739L349.859 58.7091C349.867 58.1882 349.758 57.7975 349.53 57.5349C349.304 57.2744 348.994 57.1399 348.608 57.1356C348.397 57.1314 348.215 57.1591 348.064 57.2146C347.91 57.2701 347.784 57.3491 347.686 57.4495C347.586 57.5498 347.511 57.6694 347.464 57.8082C347.415 57.9469 347.389 58.0964 347.387 58.2565C347.385 58.4166 347.404 58.5618 347.449 58.6942C347.494 58.8244 347.573 58.9461 347.686 59.0571C347.799 59.1703 347.951 59.277 348.136 59.3774C348.324 59.4777 348.559 59.5823 348.836 59.6891C349.287 59.8663 349.697 60.0456 350.066 60.2293C350.435 60.4129 350.749 60.6221 351.013 60.8569C351.276 61.0939 351.479 61.3672 351.62 61.6768C351.763 61.9863 351.831 62.3514 351.824 62.7741C351.82 63.1542 351.748 63.4979 351.611 63.7989C351.472 64.1 351.282 64.3604 351.035 64.5782C350.789 64.796 350.495 64.9689 350.149 65.0992C349.803 65.2294 349.421 65.3105 349.001 65.3426L348.981 66.6385L347.867 66.6214L347.887 65.3319C347.498 65.2892 347.125 65.1974 346.766 65.0629C346.405 64.9262 346.087 64.7341 345.81 64.4864C345.535 64.2366 345.315 63.9249 345.152 63.5492C344.988 63.1734 344.911 62.7251 344.92 62.2041L346.943 62.234C346.939 62.5414 346.977 62.7998 347.063 63.0069C347.146 63.214 347.259 63.3805 347.402 63.5065C347.545 63.6324 347.707 63.7221 347.891 63.7733C348.074 63.8267 348.262 63.8545 348.454 63.8566C348.674 63.8609 348.866 63.8353 349.033 63.7797C349.199 63.7264 349.34 63.6516 349.453 63.5534C349.566 63.4552 349.652 63.3378 349.711 63.2011C349.769 63.0645 349.799 62.9172 349.801 62.7571" fill="white"/>
    <path d="M434.773 258.024C434.773 258.024 396.518 244.747 314.998 260.618C289.776 265.529 258.219 275.463 224.204 283.89L204.09 213.531C204.275 213.484 204.472 213.435 204.676 213.381C214.96 210.732 249.372 201.154 289.243 186.314C325.239 172.919 365.888 155.469 395.788 121.66L424.669 222.681L434.773 258.024Z" fill="#ED7D2B"/>
    <path d="M424.669 222.681C411.781 219.626 373.574 213.477 307.56 226.24C281.873 231.206 249.752 241.335 215.114 249.894L204.676 213.381C214.96 210.732 249.372 201.154 289.243 186.314C325.239 172.919 365.888 155.469 395.789 121.66L424.669 222.681" fill="#F99746"/>
    <path d="M438.405 262.738C437.24 263.073 436.023 262.397 435.69 261.231L394.546 117.315C394.211 116.147 394.888 114.93 396.053 114.597C397.221 114.264 398.437 114.939 398.77 116.106L439.914 260.023C440.25 261.188 439.573 262.405 438.405 262.738" fill="#ED7D2B"/>
    <path d="M182.991 295.805L224.302 283.988L204.169 213.558L162.856 225.378C161.178 225.856 160.198 227.622 160.677 229.302L179.068 293.627C179.548 295.305 181.314 296.285 182.991 295.805" fill="#D66316"/>
    <path d="M300.294 333.176L263.609 333.332L245.304 294.558L238.543 280.226L238.555 280.222L272.012 269.656L272.616 271.014L278.829 284.968L300.294 333.176" fill="#F99746"/>
    <path d="M300.294 333.176L263.609 333.332L245.304 294.558L278.829 284.968L300.294 333.176" fill="#ED7D2B"/>
    <path d="M471.858 130.819C472.686 131.831 472.536 133.338 471.525 134.169L436.175 163.162C435.163 163.99 433.657 163.843 432.828 162.831C431.998 161.819 432.148 160.312 433.159 159.481L468.509 130.488C469.52 129.659 471.027 129.807 471.858 130.819" fill="#F99746"/>
    <path d="M492.73 205.241C492.599 206.543 491.43 207.502 490.128 207.373L444.636 202.871C443.334 202.743 442.373 201.571 442.503 200.268C442.631 198.968 443.803 198.007 445.105 198.135L490.595 202.638C491.897 202.766 492.858 203.938 492.73 205.241" fill="#F99746"/>
    <path d="M508.889 167.665C509.122 168.952 508.261 170.197 506.974 170.432L443.231 182.029C441.944 182.262 440.698 181.401 440.465 180.114C440.23 178.826 441.093 177.582 442.38 177.347L506.123 165.75C507.41 165.515 508.654 166.377 508.889 167.665Z" fill="#F99746"/>
    <path d="M314.802 334.837C314.802 334.837 314.802 332.363 315.154 331.541C315.506 330.717 316.799 327.367 316.799 327.367H321.852C321.852 327.367 322.793 330.422 322.85 331.421C322.91 332.42 322.85 334.837 322.85 334.837H314.802Z" fill="#233862"/>
    <path d="M346.884 334.837C346.884 334.837 346.884 332.363 346.531 331.541C346.179 330.717 344.886 327.367 344.886 327.367H339.834C339.834 327.367 338.892 330.422 338.835 331.421C338.775 332.42 338.835 334.837 338.835 334.837H346.884Z" fill="#233862"/>
    <path d="M326.641 195.955C326.641 195.955 326.462 201.466 325.757 203.934L320.178 207.826L341.183 210.971L336.173 204.047C336.173 204.047 334.66 196.66 335.454 193.927C336.246 191.194 326.641 195.955 326.641 195.955" fill="#FFB27D"/>
    <path d="M326.609 196.716C326.609 196.713 328.27 200.716 331.399 200.627C334.528 200.539 335.241 197 335.241 197L326.609 196.716" fill="#ED985F"/>
    <path d="M324.741 193.477C324.741 193.477 323.732 188.432 323.028 186.905C322.321 185.377 321.734 178.559 329.548 178.205C329.548 178.205 332.545 178.559 334.19 177.56C334.19 177.56 334.19 178.559 333.778 178.912C333.778 178.912 336.48 178.265 338.596 180.615C340.711 182.966 337.187 191.194 337.362 193.133L324.741 193.477" fill="#2C3A64"/>
    <path d="M331.04 199.081C328.773 199.043 324.601 196.022 324.601 192.283V186.448C324.601 185.082 325.553 183.965 326.716 183.965H335.364C336.528 183.965 337.479 185.082 337.479 186.448V191.952C337.479 195.874 333.64 199.128 331.04 199.081" fill="#FFB27D"/>
    <path d="M324.601 189.563C324.601 189.563 324.613 186.058 327.39 185.52C330.165 184.979 336.378 187.227 337.26 184.672C338.141 182.114 325.249 182.159 324.601 183.79C323.952 185.419 324.601 189.563 324.601 189.563" fill="#2C3A64"/>
    <path d="M315.436 249.145C315.436 249.145 316.319 276.148 314.996 291.556C313.675 306.963 315.007 328.406 315.007 328.406C315.007 328.406 319.235 330.738 323.817 328.406C323.817 328.406 328.844 298.64 328.812 291.556C328.778 284.011 334.282 250.323 334.282 250.323L315.436 249.145Z" fill="#2B478B"/>
    <path d="M346.7 328.404C346.7 328.404 342.474 330.738 337.891 328.404C337.891 328.404 332.865 298.64 332.897 291.554C332.912 288.369 331.939 280.519 330.81 272.514C329.262 261.562 327.427 250.323 327.427 250.323L347.003 249.1C347.003 249.1 345.389 276.148 346.711 291.554C348.034 306.963 346.7 328.404 346.7 328.404Z" fill="#2B478B"/>
    <path d="M346.768 253.637C346.768 253.637 338.423 255.255 330.809 255.255C327.488 255.255 323.879 254.89 321.006 254.506C317.83 254.083 315.553 253.637 315.553 253.637C315.553 253.637 313.86 253.786 314.861 245.44C315.621 239.091 315.382 233.356 315.214 227.457C315.194 226.802 315.207 226.025 315.248 225.162C315.572 218.283 317.653 205.9 319.237 205.236C319.237 205.236 321.593 204.359 325.757 203.934C325.757 204.015 328.174 207.549 331.042 207.943C332.824 207.239 334.222 206.637 336.173 204.047C338.643 204.335 341.336 204.824 344.215 205.599C344.215 205.599 344.514 206.91 345.645 229.669C346.096 238.685 349.171 253.667 346.768 253.637" fill="white"/>
    <path d="M332.897 291.554C332.912 288.369 331.939 280.519 330.81 272.514C331.981 267.732 334.837 263.131 334.837 263.131C338.45 273.268 332.897 291.554 332.897 291.554Z" fill="#233862"/>
    <path d="M307.5 232.327C307.302 232.492 307.995 234.212 309.018 236.456C311.122 241.064 314.618 247.868 314.618 247.868C314.112 249.787 313.557 250.974 313.557 250.974C307.677 246.352 303.884 242.422 301.464 239.405C298.064 235.165 297.366 232.733 297.366 232.733C310.458 206.075 319.672 205.093 319.672 205.093L318.584 222.711C318.584 222.711 308.106 231.821 307.5 232.327Z" fill="white"/>
    <path d="M313.92 248.203C313.92 248.203 317.092 245.263 318.385 246.909C319.679 248.555 319.914 251.141 318.915 250.964C317.916 250.789 315.858 249.847 315.566 250.319C315.271 250.789 313.954 251.688 313.555 250.972C313.156 250.259 313.92 248.203 313.92 248.203Z" fill="#FFB27D"/>
    <path d="M314.618 247.868C314.112 249.787 313.557 250.974 313.557 250.974C307.677 246.352 303.884 242.422 301.464 239.405C303.289 239.27 305.953 238.617 309.018 236.456C311.122 241.064 314.618 247.868 314.618 247.868" fill="#FFB27D"/>
    <path d="M365.186 232.733C365.186 232.733 364.488 235.165 361.086 239.405C358.665 242.422 354.875 246.352 348.994 250.974C348.994 250.974 348.439 249.787 347.934 247.868C347.934 247.868 351.428 241.064 353.532 236.456C354.554 234.213 355.248 232.492 355.05 232.327C354.58 231.934 348.179 226.373 345.323 223.892C344.495 223.17 343.966 222.711 343.966 222.711L343.313 205.354C343.313 205.354 352.091 206.075 365.186 232.733" fill="white"/>
    <path d="M348.629 248.203C348.629 248.203 345.456 245.263 344.164 246.909C342.871 248.555 342.636 251.141 343.635 250.964C344.634 250.789 346.691 249.847 346.984 250.319C347.278 250.789 348.595 251.688 348.994 250.972C349.393 250.259 348.629 248.203 348.629 248.203" fill="#FFB27D"/>
    <path d="M347.931 247.868C348.437 249.787 348.992 250.974 348.992 250.974C354.872 246.352 358.665 242.422 361.086 239.405C359.261 239.27 356.597 238.617 353.532 236.456C351.428 241.064 347.931 247.868 347.931 247.868" fill="#FFB27D"/>
    <path d="M326.05 202.589C326.05 202.589 325.117 202.98 324.852 204.036C324.852 204.036 328.594 207.886 331.042 207.943L326.05 202.589Z" fill="#ED7D2B"/>
    <path d="M331.042 207.943L335.87 202.395C335.87 202.395 336.867 203.052 336.852 204.13C336.852 204.13 333.117 208.091 331.042 207.943Z" fill="#ED7D2B"/>
    <path d="M330.171 207.536C330.171 207.536 326.485 239.36 327.768 243.239C328.43 245.238 329.313 246.965 330.016 248.171C330.521 249.038 331.776 249.036 332.278 248.165C333.256 246.465 334.536 244.006 334.536 242.759C334.536 240.735 331.738 207.508 331.738 207.508L330.171 207.536Z" fill="#F99746"/>
    <path d="M329.207 205.975C329.207 205.975 331.433 205.753 332.79 205.89C333.059 205.917 333.209 206.212 333.078 206.449C332.698 207.132 331.921 208.319 331.11 208.319C329.971 208.319 328.195 206.054 329.207 205.975" fill="#ED7D2B"/>
    <path d="M329.234 195.324C329.234 195.324 329.941 196.278 331.175 196.244C332.408 196.209 332.987 195.324 332.987 195.324C332.987 195.324 330.906 194.982 329.234 195.324" fill="white"/>
    <path d="M324.997 164.853L323.281 166.085L321.557 164.868C321.939 164.328 322.571 163.973 323.281 163.973C323.988 163.973 324.615 164.319 324.997 164.853" fill="white"/>
    <path d="M323.282 160.969C321.557 160.969 320.031 161.83 319.107 163.14L320.195 163.905C320.881 162.936 322.01 162.304 323.282 162.304C324.545 162.304 325.666 162.927 326.351 163.883L327.435 163.104C326.504 161.81 324.989 160.969 323.282 160.969Z" fill="white"/>
    <path d="M323.282 155.264C319.632 155.264 316.402 157.079 314.445 159.855L315.536 160.619C317.252 158.189 320.084 156.599 323.282 156.599C326.451 156.599 329.266 158.164 330.987 160.561L332.069 159.782C330.107 157.047 326.901 155.264 323.282 155.264Z" fill="white"/>
    <path d="M323.282 158.386C320.684 158.386 318.381 159.671 316.981 161.642L318.069 162.406C319.23 160.783 321.134 159.72 323.282 159.72C325.412 159.72 327.301 160.766 328.466 162.368L329.546 161.593C328.142 159.65 325.856 158.386 323.282 158.386Z" fill="white"/>
    <path d="M143.958 193.276C143.958 193.276 141.411 188.75 143.958 187.83C146.504 186.907 147.656 187.757 147.777 188.788C147.898 189.819 146.807 193.882 146.807 193.882L143.958 193.276Z" fill="#FFB27D"/>
    <path d="M145.998 222.222C141.356 223.059 137.088 223.448 133.236 223.533C129.579 223.616 126.298 223.426 123.425 223.091C122.654 223.004 121.913 222.903 121.201 222.797C113.686 221.657 109.535 219.635 109.535 219.635C109.535 219.635 116.403 205.255 121.95 205.806C128.458 206.455 139.487 212.297 140.583 210.659C141.818 208.812 142.851 192.981 142.851 192.981C145.736 191.004 147.459 193.088 147.459 193.088C147.459 193.088 153.096 220.941 145.998 222.222" fill="#F99746"/>
    <path d="M145.998 222.222C141.356 223.059 137.088 223.448 133.236 223.533C129.579 223.616 126.298 223.426 123.425 223.091C121.694 217.583 120.449 211.957 123.931 215.35C130.075 221.332 145.998 222.222 145.998 222.222" fill="#ED7D2B"/>
    <path d="M109.014 338.323C109.014 338.323 108.52 344.039 109.728 344.635L125.188 344.603C125.188 344.603 125.188 342.818 122.704 342.421C120.222 342.026 115.859 340.572 115.121 337.333C114.383 334.092 109.014 338.323 109.014 338.323" fill="#233862"/>
    <path d="M120.364 269.137C120.287 272.875 120.108 276.731 119.756 280.196C118.087 296.638 117.5 316.506 117.26 320.336C116.844 326.985 115.531 337.606 115.531 337.606C115.531 337.606 112.926 340.079 107.85 338.9C107.85 338.9 103.644 323.601 102.704 307.492C102.689 307.227 102.675 306.961 102.661 306.696C102.552 304.565 102.438 302.131 102.322 299.505C101.548 281.917 100.708 255.789 100.708 255.789L120.108 251.231C120.108 251.231 120.554 259.82 120.364 269.137Z" fill="#2A4E96"/>
    <path d="M102.322 299.505C101.548 281.917 100.708 255.789 100.708 255.789L120.108 251.231C120.108 251.231 106.076 293.256 102.322 299.505" fill="#233862"/>
    <path d="M71.243 252.702C71.243 252.702 68.0863 256.414 67.8022 257.443C67.5183 258.475 67.0127 262.183 67.2833 263.298C67.5542 264.412 69.6531 260.189 70.4164 259.739C71.1799 259.288 69.8433 261.419 70.1043 261.773C70.3654 262.13 71.8727 260.531 72.4605 259.988C73.0483 259.448 72.99 256.536 73.6959 254.813C74.4015 253.09 71.243 252.702 71.243 252.702" fill="#FFB27D"/>
    <path d="M70.5024 331.827C70.5024 331.827 67.7507 334.338 68.2878 336.122C68.8245 337.907 71.3077 339.099 71.6432 341.278C71.9787 343.46 73.321 344.65 74.5289 344.65C75.7371 344.65 80.2883 344.65 80.2883 344.65C80.2883 344.65 81.1774 343.115 79.0298 342.653C76.8822 342.19 76.0725 339.626 76.2067 337.248C76.341 334.867 76.0054 331.694 76.0054 331.694L71.4419 330.638L70.5024 331.827" fill="#233862"/>
    <path d="M117.051 256.186C117.051 256.186 98.8905 295.054 89.2264 312.108C79.5624 329.162 76.5425 333.921 76.5425 333.921C76.5425 333.921 71.0057 331.739 70.5024 330.251C70.5024 330.251 74.1979 297.329 80.6697 289.302C84.3268 284.767 88.6224 271.159 88.8239 266.398C89.0252 261.639 93.2677 250.28 93.2677 250.28L117.051 256.186" fill="#2A4E96"/>
    <path d="M122.36 258.02C122.36 258.02 115.138 262.849 104.917 262.401C100.432 262.204 91.5337 260.932 90.0977 257.364C89.7604 256.525 90.0076 255.462 90.5134 253.831C91.8261 249.589 94.8859 241.512 93.9619 223.602C93.8757 221.936 93.9227 220.369 94.0821 218.902C95.0449 210.081 100.099 204.856 104.984 203.15C116.897 198.985 120.868 204.756 120.868 204.756C120.868 204.756 126.134 208.928 126.928 217.638C128.514 235.058 122.36 258.02 122.36 258.02Z" fill="#F99746"/>
    <path d="M108.474 202.149C108.474 202.149 113.941 205.475 119.869 204.534C119.869 204.534 121.041 204.237 120.465 202.86C120.827 201.75 120.783 201.85 120.992 201.024C121.512 199.124 121.67 198.029 121.67 198.029L118.306 194.491L115.119 191.109C114.239 199.19 108.474 202.149 108.474 202.149" fill="#FFB27D"/>
    <path d="M114.609 194.175C114.609 194.175 116.44 199.07 120.992 201.024C121.512 199.124 121.85 197.136 121.85 197.136L118.306 194.491L114.609 194.175Z" fill="#ED985F"/>
    <path d="M125.445 197.858C125.445 197.858 115.011 199.162 114.279 192.749C113.546 186.335 111.706 182.183 118.337 181.079C124.968 179.975 126.544 182.281 127.317 184.362C128.09 186.446 128.141 197.352 125.445 197.858" fill="#FFB27D"/>
    <path d="M110.985 180.037C110.895 179.924 110.681 179.83 110.199 179.785C110.199 179.785 110.594 179.559 111.111 179.565C111.238 178.897 111.64 177.72 112.807 177.475C112.807 177.475 112.174 177.782 112.065 178.493C113.456 177.17 116.364 176.275 124.288 177.204C134.731 178.427 131.025 185.005 129.639 185.752C128.253 186.502 124.923 184.179 122.389 184.286C119.855 184.39 119.236 188.024 118.36 188.491C117.484 188.961 117.855 188.088 116.715 187.518C115.575 186.95 115.392 188.869 115.68 190.131C115.968 191.393 114.312 192.981 114.312 192.981C114.312 192.981 114.312 192.981 112.768 191.186C111.223 189.39 109.983 181.986 110.774 180.449C110.844 180.312 110.914 180.174 110.985 180.037" fill="#1D2A49"/>
    <path d="M142.85 190.274L125.137 190.43L125.016 187.766L142.674 186.397L142.85 190.274Z" fill="#2A4E96"/>
    <path d="M156.222 190.718L136.936 190.998L136.716 186.152L155.947 184.661L156.222 190.718" fill="#2A4E96"/>
    <path d="M169.226 191.098L152.963 191.12L152.666 184.576L168.863 183.103L169.226 191.098" fill="#233862"/>
    <path d="M169.458 192.202C169.96 192.181 170.348 191.756 170.325 191.254L169.944 182.849C169.921 182.347 169.496 181.958 168.994 181.982C168.492 182.003 168.104 182.43 168.127 182.932L168.509 191.335C168.531 191.837 168.957 192.225 169.458 192.202" fill="#233862"/>
    <path d="M125.082 191C124.636 191.019 124.258 190.676 124.238 190.229L124.139 188.047C124.119 187.601 124.464 187.223 124.91 187.204C125.356 187.183 125.734 187.529 125.754 187.975L125.853 190.155C125.873 190.601 125.528 190.979 125.082 191Z" fill="#2A4E96"/>
    <path d="M90.5135 253.831C91.8261 249.589 94.8859 241.512 93.962 223.602C93.8757 221.936 93.9227 220.369 94.0821 218.902H94.0834C98.004 218.565 103.997 222.805 103.997 222.805C103.997 222.805 100.306 245.315 90.5135 253.831" fill="#ED7D2B"/>
    <path d="M108.474 202.149C108.474 202.149 98.4215 203.878 93.1782 210.281C87.9351 216.684 79.5007 225.711 77.5068 228.873C75.5126 232.035 69.9769 253.549 69.9769 253.549C69.9769 253.549 70.3421 254.241 71.869 254.644C73.3302 255.029 74.3906 254.433 74.3906 254.433C74.3906 254.433 81.7249 241.877 84.4851 235.605C85.6319 232.998 105.466 222.677 112.923 223.747C115.852 224.165 108.474 202.149 108.474 202.149Z" fill="#F99746"/>
    <path d="M142.745 185.633C142.745 185.633 144.907 186.956 146.201 186.397C147.494 185.838 147.38 185.325 147.38 185.325C147.38 185.325 143.473 184.241 142.745 185.633" fill="#FFB27D"/>
    <path d="M118.229 209.165C118.229 209.165 113.818 237.026 82.5155 245.137L79.1059 251.867L85.096 252.881C85.096 252.881 120.732 242.554 120.252 208.672L118.229 209.165" fill="#BC3F3F"/>
    <path d="M117.546 204.717L116.101 204.858V206.951L118.229 209.165L120.253 208.671V205.768L118.798 204.717H117.546Z" fill="#A02E2E"/>
    <path d="M111.876 199.175C111.876 199.175 110.477 199.491 107.28 202.149C107.28 202.149 110.46 208.902 117.169 209.709C117.169 209.709 117.061 206.577 117.545 204.717C117.545 204.717 112.228 202.813 111.876 199.175" fill="#ED7D2B"/>
    <path d="M117.546 204.717C117.546 204.717 120.819 206.455 121.062 209.165C121.062 209.165 122.313 207.181 121.95 205.806C121.587 204.433 120.465 202.86 120.465 202.86C120.465 202.86 120.577 204.515 117.546 204.717Z" fill="#ED7D2B"/>
    <path d="M192.692 140.445C189.443 146.368 185.343 148.979 185.343 148.979L167.653 149.06C167.653 149.06 195.17 135.926 192.692 140.445Z" fill="#233862"/>
    <path d="M180.065 186.026C179.617 186.561 179.57 187.151 179.811 187.774L179.815 187.783C180.257 188.933 181.67 190.204 183.307 191.466C183.516 191.628 183.702 191.775 183.864 191.912C183.907 191.948 183.95 191.984 183.99 192.021C184.022 192.048 184.054 192.076 184.086 192.104C185.616 193.46 185.057 193.788 187.811 196.545C190.952 199.687 193.072 199.704 193.669 199.399C194.175 199.141 193.106 197.463 191.919 195.575C191.862 195.486 191.806 195.394 191.746 195.3C191.588 195.05 191.433 194.796 191.275 194.544C189.883 192.273 190.208 191.186 190.459 187.759C190.664 184.975 194.476 172.148 194.476 172.148L188.558 171.249C188.558 171.249 186.982 181.433 185.055 183.037C184.026 183.891 182.855 183.923 181.86 184.561C181.79 184.606 181.721 184.651 181.655 184.698C181.089 185.088 180.515 185.49 180.065 186.026Z" fill="#FFB27D"/>
    <path d="M180.065 186.026C179.617 186.561 179.57 187.151 179.811 187.774L179.815 187.783C180.351 188.931 181.73 190.193 183.311 191.453C183.518 191.617 183.702 191.771 183.864 191.912C183.907 191.948 183.95 191.984 183.99 192.021C184.022 192.048 184.054 192.076 184.086 192.104C185.616 193.46 185.057 193.788 187.811 196.545C190.952 199.687 193.072 199.704 193.669 199.399C194.175 199.141 193.106 197.463 191.919 195.575C191.315 195.368 188.511 194.292 186.353 191.641C184.453 189.311 183.158 186.297 181.86 184.561C181.79 184.606 181.721 184.651 181.655 184.698C181.089 185.088 180.515 185.49 180.065 186.026Z" fill="#233862"/>
    <path d="M227.553 181.403C227.952 183.216 230.541 182.862 233.427 182.095C236.312 181.329 235.64 182.185 239.757 181.647C243.874 181.109 245.093 179.546 245.208 178.929C245.311 178.382 243.266 178.231 241.074 178.021C240.799 177.996 240.523 177.968 240.246 177.938C237.77 177.678 235.93 176.119 233.661 174.855C231.512 173.658 228.242 168.668 228.242 168.668L222.592 169.227C222.592 169.227 225.651 173.681 226.838 175.62C227.538 176.762 227.531 178.286 227.469 179.467C227.44 180.107 227.41 180.763 227.553 181.403" fill="#FFB27D"/>
    <path d="M233.427 182.095C236.312 181.329 235.64 182.185 239.757 181.647C243.874 181.109 245.093 179.546 245.208 178.929C245.311 178.382 243.266 178.231 241.074 178.021L241.055 178.064C241.055 178.064 238.615 179.868 235.183 180.018C232.385 180.142 229.403 179.399 227.469 179.467C227.44 180.107 227.41 180.763 227.553 181.403C227.952 183.216 230.541 182.862 233.427 182.095" fill="#233862"/>
    <path d="M205.15 145.636L200.141 159.979L193.601 178.707C193.601 178.707 191.732 178.927 189.926 178.444C188.265 178 186.344 176.787 186.344 176.787C186.344 176.787 187.868 156.787 191.219 145.256C192.077 142.296 193.057 139.897 194.165 138.535C199.582 131.869 205.15 145.636 205.15 145.636" fill="#233862"/>
    <path d="M199.326 123.126C195.838 122.078 185.982 123.709 176.09 125.848L173.943 122.46L152.462 121.209C152.462 121.209 145.695 137.047 149.767 146.974C150.365 148.432 151.421 149.216 153.35 149.21L154.538 149.148C154.538 149.148 166.523 149.082 170.669 148.998C181.335 148.789 193.098 141.218 194.632 140.881C197.142 140.326 198.252 145.35 200.877 150.597C203.503 155.843 225.038 173.583 225.038 173.583C225.038 173.583 228.296 173.551 229.63 173.019C231.064 172.449 231.58 171.734 231.58 171.734C231.58 171.734 207.191 125.494 199.326 123.126" fill="#2B478B"/>
    <path d="M170.421 59.5055C168.794 58.5789 167.225 58.4721 166.276 58.5212C165.592 58.5575 164.906 58.5042 164.225 58.4273C156.076 57.4943 151.418 69.4055 151.201 72.9901C150.801 79.598 147.331 80.6719 142.501 84.9013C132.817 93.3815 135.895 102.951 141.35 106.422C144.624 108.506 150.276 106.245 150.276 106.245C150.358 106.3 165.679 97.2736 173.234 92.9161C184.652 91.0629 175.075 62.1529 170.421 59.5055" fill="#233862"/>
    <path d="M166.762 89.4638C166.796 89.483 163.03 90.8536 160.473 89.7797C158.067 88.7741 156.183 84.8842 156.218 84.882C157.302 84.8094 158.474 83.838 159.269 77.5931L159.734 77.7511L167.557 80.3921C167.557 80.3921 167.043 82.8965 166.726 85.277C166.459 87.2775 166.332 89.1883 166.762 89.4638Z" fill="#FFB27D"/>
    <path d="M167.557 80.3922C167.557 80.3922 167.043 82.8965 166.726 85.277C162.249 84.5618 160.41 80.1509 159.734 77.7512L167.557 80.3922Z" fill="#ED975D"/>
    <path d="M168.763 82.8453C168.763 82.8453 158.107 81.6283 158.966 75.0013C159.826 68.3742 159.03 63.7562 165.87 64.2515C172.71 64.749 173.701 67.4498 173.952 69.73C174.203 72.0123 171.557 82.9904 168.763 82.8453Z" fill="#FFB27D"/>
    <path d="M173.493 66.1175C173.493 66.1175 166.805 72.1147 162.187 72.6805C157.569 73.2442 155.788 71.7924 155.788 71.7924C155.788 71.7924 158.47 69.4738 160.04 65.7845C160.502 64.6978 161.51 63.9377 162.684 63.8139C165.983 63.4637 172.244 63.2097 173.493 66.1175" fill="#233862"/>
    <path d="M169.23 65.6756C169.23 65.6756 171.549 67.8319 172.298 69.4503C173.021 71.0131 173.303 74.7771 172.781 76.2844C172.781 76.2844 176.191 69.3158 174.118 66.0044C171.918 62.4945 169.23 65.6756 169.23 65.6756Z" fill="#233862"/>
    <path d="M176.02 104.947C176.123 126.472 176.268 121.971 173.955 124.059C173.397 124.561 171.809 124.886 169.714 125.067C163.126 125.635 151.509 124.777 151.043 123.566C149.439 119.377 150.487 118.045 149.09 111.61C148.944 110.925 148.765 110.184 148.557 109.379C147.411 104.962 146.351 103.474 149.966 96.2723C153.244 89.7477 156.678 84.438 157 84.6194C166.09 89.7776 166.726 85.2792 166.726 85.2792C166.726 85.2792 175.97 94.4469 176.02 104.947" fill="#9CC4FF"/>
    <path d="M200.141 159.979L193.601 178.707C193.601 178.707 191.732 178.927 189.926 178.444C188.265 178 186.344 176.787 186.344 176.787C186.344 176.787 187.868 156.787 191.219 145.256L200.141 159.979" fill="#2B478B"/>
    <path d="M166.726 85.2771C166.726 85.2771 176.002 86.6627 177.166 90.6231C178.33 94.5836 185.181 117.864 185.181 117.864C185.181 117.864 180.498 118.801 178.283 116.672C176.069 114.544 170.331 96.6716 170.331 96.6716L166.726 85.2771" fill="#9CC4FF"/>
    <path d="M169.714 125.067C163.126 125.635 151.509 124.777 151.043 123.566C149.439 119.377 150.487 118.045 149.09 111.61L152.095 102.586C152.095 102.586 151.766 112.575 154.76 115.141C157.751 117.708 166.906 119.971 168.38 122.136C169.09 123.175 169.565 124.222 169.714 125.067Z" fill="#7DA6EF"/>
    <path d="M162.073 121.019C162.073 121.019 168.552 119.439 169.614 119.996C170.675 120.554 173.283 122.608 173.619 123.333C173.955 124.059 171.27 122.823 170.401 122.608C169.838 122.469 168.373 123.011 167.648 123.269C164.597 124.354 162.704 123.863 162.704 123.863L162.073 121.019" fill="#FFB27D"/>
    <path d="M156.994 84.6152C156.994 84.6152 148.267 85.3262 145.325 89.6068C141.184 95.6318 133.236 121.117 138.144 124.399C143.671 128.094 162.977 124.903 162.977 124.903C162.977 124.903 163.562 121.877 162.637 120.438C161.712 118.999 147.097 116.933 146.412 116.273C145.726 115.615 154.557 102.993 154.518 100.976C154.478 98.9581 156.994 84.6152 156.994 84.6152" fill="#9CC4FF"/>
    <path d="M169.965 121.803C169.965 121.803 171.363 123.536 171.814 123.737C172.265 123.938 172.553 123.88 172.553 123.88L171.602 122.245L169.965 121.803Z" fill="#FFB27D"/>
    <path d="M169.614 119.996L173.616 121.845C173.616 121.845 173.453 122.125 172.965 122.112C172.476 122.099 171.236 121.672 171.236 121.672L169.614 119.996Z" fill="#FFB27D"/>
    <path d="M171.867 126.431L203.227 125.812L212.198 102.161L180.887 102.778L171.867 126.431Z" fill="#F99746"/>
    <path d="M203.577 124.892L162.166 125.71L162.184 126.623L203.227 125.812L203.577 124.892" fill="#ED7D2B"/>
    <path d="M195.08 114.236C195.3 113.406 194.809 112.746 193.985 112.763C193.162 112.78 192.314 113.466 192.094 114.294C191.875 115.124 192.363 115.784 193.189 115.767C194.013 115.75 194.861 115.065 195.08 114.236Z" fill="white"/>
    <path d="M135.706 333.665H499.361C501.901 333.665 503.961 335.723 503.961 338.266V339.269C503.961 341.814 501.899 343.875 499.357 343.872L135.59 343.463C132.716 343.46 130.549 340.851 131.072 338.025L131.183 337.427C131.587 335.247 133.488 333.665 135.706 333.665" fill="#233862"/>
    </svg>
