<svg width="213" height="117" viewBox="0 0 213 117" fill="none" xmlns="http://www.w3.org/2000/svg">
    <path d="M36.8115 67.744C36.8115 72.304 35.1555 75.952 31.8435 78.688C28.5795 81.376 23.9235 82.72 17.8755 82.72C12.4515 82.72 7.60353 81.688 3.33153 79.624V69.472C5.77953 70.528 8.29953 71.512 10.8915 72.424C13.5315 73.288 16.1475 73.72 18.7395 73.72C21.4275 73.72 23.3235 73.216 24.4275 72.208C25.5795 71.152 26.1555 69.832 26.1555 68.248C26.1555 66.952 25.6995 65.848 24.7875 64.936C23.9235 64.024 22.7475 63.184 21.2595 62.416C19.7715 61.6 18.0675 60.736 16.1475 59.824C14.9475 59.248 13.6515 58.576 12.2595 57.808C10.8675 56.992 9.52353 56.008 8.22753 54.856C6.97953 53.656 5.94753 52.216 5.13153 50.536C4.31553 48.856 3.90753 46.84 3.90753 44.488C3.90753 39.88 5.46753 36.304 8.58753 33.76C11.7075 31.168 15.9555 29.872 21.3315 29.872C24.0195 29.872 26.5635 30.184 28.9635 30.808C31.4115 31.432 33.9555 32.32 36.5955 33.472L33.0675 41.968C30.7155 41.008 28.6035 40.264 26.7315 39.736C24.8595 39.208 22.9395 38.944 20.9715 38.944C18.9075 38.944 17.3235 39.424 16.2195 40.384C15.1155 41.344 14.5635 42.592 14.5635 44.128C14.5635 45.952 15.3795 47.392 17.0115 48.448C18.6435 49.504 21.0675 50.8 24.2835 52.336C26.9235 53.584 29.1555 54.88 30.9795 56.224C32.8515 57.568 34.2915 59.152 35.2995 60.976C36.3075 62.8 36.8115 65.056 36.8115 67.744ZM92.8118 56.224C92.8118 61.552 91.9238 66.208 90.1478 70.192C88.4198 74.128 85.7558 77.2 82.1558 79.408C78.5558 81.616 73.9478 82.72 68.3318 82.72C62.7638 82.72 58.1558 81.616 54.5078 79.408C50.9078 77.2 48.2198 74.104 46.4438 70.12C44.7158 66.136 43.8518 61.48 43.8518 56.152C43.8518 50.824 44.7158 46.192 46.4438 42.256C48.2198 38.32 50.9078 35.272 54.5078 33.112C58.1558 30.904 62.7878 29.8 68.4038 29.8C73.9718 29.8 78.5558 30.904 82.1558 33.112C85.7558 35.272 88.4198 38.344 90.1478 42.328C91.9238 46.264 92.8118 50.896 92.8118 56.224ZM55.2998 56.224C55.2998 61.6 56.3318 65.848 58.3958 68.968C60.4598 72.04 63.7718 73.576 68.3318 73.576C72.9878 73.576 76.3238 72.04 78.3398 68.968C80.3558 65.848 81.3638 61.6 81.3638 56.224C81.3638 50.8 80.3558 46.552 78.3398 43.48C76.3238 40.408 73.0118 38.872 68.4038 38.872C63.7958 38.872 60.4598 40.408 58.3958 43.48C56.3318 46.552 55.2998 50.8 55.2998 56.224Z" fill="#08A73A"/>
    <path d="M118.87 30.592C125.878 30.592 131.038 31.864 134.35 34.408C137.71 36.952 139.39 40.816 139.39 46C139.39 48.352 138.934 50.416 138.022 52.192C137.158 53.92 135.982 55.408 134.494 56.656C133.054 57.856 131.494 58.84 129.814 59.608L144.934 82H132.838L120.598 62.272H114.766V82H103.894V30.592H118.87ZM118.078 39.52H114.766V53.416H118.294C121.894 53.416 124.462 52.816 125.998 51.616C127.582 50.416 128.374 48.64 128.374 46.288C128.374 43.84 127.534 42.112 125.854 41.104C124.222 40.048 121.63 39.52 118.078 39.52ZM170.649 82H147.249V75.808L153.513 72.928V39.664L147.249 36.784V30.592H170.649V36.784L164.385 39.664V72.928L170.649 75.808V82ZM209.722 67.744C209.722 72.304 208.066 75.952 204.754 78.688C201.49 81.376 196.834 82.72 190.786 82.72C185.362 82.72 180.514 81.688 176.242 79.624V69.472C178.69 70.528 181.21 71.512 183.802 72.424C186.442 73.288 189.058 73.72 191.65 73.72C194.338 73.72 196.234 73.216 197.338 72.208C198.49 71.152 199.066 69.832 199.066 68.248C199.066 66.952 198.61 65.848 197.698 64.936C196.834 64.024 195.658 63.184 194.17 62.416C192.682 61.6 190.978 60.736 189.058 59.824C187.858 59.248 186.562 58.576 185.17 57.808C183.778 56.992 182.434 56.008 181.138 54.856C179.89 53.656 178.858 52.216 178.042 50.536C177.226 48.856 176.818 46.84 176.818 44.488C176.818 39.88 178.378 36.304 181.498 33.76C184.618 31.168 188.866 29.872 194.242 29.872C196.93 29.872 199.474 30.184 201.874 30.808C204.322 31.432 206.866 32.32 209.506 33.472L205.978 41.968C203.626 41.008 201.514 40.264 199.642 39.736C197.77 39.208 195.85 38.944 193.882 38.944C191.818 38.944 190.234 39.424 189.13 40.384C188.026 41.344 187.474 42.592 187.474 44.128C187.474 45.952 188.29 47.392 189.922 48.448C191.554 49.504 193.978 50.8 197.194 52.336C199.834 53.584 202.066 54.88 203.89 56.224C205.762 57.568 207.202 59.152 208.21 60.976C209.218 62.8 209.722 65.056 209.722 67.744Z" fill="#0E0B0B"/>
    </svg>
