<svg width="84" height="84" viewBox="0 0 84 84" fill="none" xmlns="http://www.w3.org/2000/svg">
                               <path d="M59.2435 59.3833C58.7263 59.0478 58.0973 58.9307 57.4939 59.0575C56.8906 59.1843 56.362 59.5447 56.0235 60.06C52.7335 65.1 46.6902 71.2833 41.3002 73.36C35.9102 75.4367 31.6868 74.69 30.0068 73.36C29.2835 72.73 27.3935 71.0267 29.0035 65.2167C30.0768 61.3433 36.7502 43.0967 38.3368 38.6633L33.2502 39.3167C31.6402 43.6567 25.5735 59.9433 24.4768 64.0033C22.8902 69.8133 23.6835 74.0367 27.0202 76.9767C29.3516 78.6124 32.1542 79.44 35.0002 79.3333C37.7617 79.2935 40.4916 78.7396 43.0502 77.7C49.5602 75.1567 56.3968 68.0867 59.9902 62.6033C60.1531 62.343 60.263 62.0531 60.3137 61.7502C60.3643 61.4474 60.3547 61.1375 60.2853 60.8383C60.216 60.5392 60.0882 60.2567 59.9094 60.007C59.7307 59.7573 59.5044 59.5454 59.2435 59.3833Z" fill="#08A73A" />
                                <path d="M45.0332 25.6668C47.1099 25.6668 49.14 25.0509 50.8667 23.8972C52.5934 22.7434 53.9392 21.1036 54.7339 19.1849C55.5287 17.2663 55.7366 15.1551 55.3315 13.1183C54.9263 11.0815 53.9263 9.21058 52.4578 7.74213C50.9894 6.27368 49.1185 5.27365 47.0817 4.86851C45.0449 4.46336 42.9337 4.6713 41.015 5.46602C39.0964 6.26074 37.4565 7.60655 36.3028 9.33327C35.149 11.06 34.5332 13.09 34.5332 15.1668C34.5332 17.9515 35.6394 20.6222 37.6086 22.5914C39.5777 24.5605 42.2484 25.6668 45.0332 25.6668ZM45.0332 9.33342C46.1869 9.33342 47.3147 9.67554 48.274 10.3165C49.2333 10.9575 49.981 11.8685 50.4225 12.9344C50.864 14.0003 50.9795 15.1732 50.7545 16.3048C50.5294 17.4363 49.9738 18.4757 49.158 19.2915C48.3422 20.1073 47.3028 20.6629 46.1712 20.888C45.0397 21.1131 43.8668 20.9976 42.8009 20.5561C41.735 20.1145 40.8239 19.3669 40.183 18.4076C39.542 17.4483 39.1999 16.3205 39.1999 15.1668C39.1999 13.6197 39.8144 12.1359 40.9084 11.042C42.0024 9.948 43.4861 9.33342 45.0332 9.33342Z" fill="#08A73A" />
                                <path d="M27.5568 34.9999C27.6968 34.9999 42.1868 33.0866 45.5935 32.6666C47.1101 32.4333 48.2535 32.6666 48.6268 33.0166C49.0001 33.3666 49.1168 34.8833 48.4635 36.9366C47.0401 41.2766 39.8535 62.6033 37.7535 68.9266C38.7799 68.716 39.7868 68.4194 40.7635 68.0399C41.6976 67.6536 42.5956 67.1851 43.4468 66.6399C46.3168 58.3333 51.6835 42.2333 52.8968 38.5466C54.1101 34.8599 53.8068 32.0599 52.1968 30.1466C51.2783 29.2154 50.1287 28.5452 48.8658 28.2049C47.6029 27.8646 46.2722 27.8663 45.0101 28.2099C41.6735 28.5599 27.5801 30.4033 26.9735 30.5433C26.3546 30.6237 25.7931 30.9467 25.4124 31.4412C25.0317 31.9356 24.863 32.5611 24.9435 33.1799C25.0239 33.7988 25.3469 34.3603 25.8414 34.741C26.3358 35.1217 26.9613 35.2904 27.5801 35.2099L27.5568 34.9999Z" fill="#08A73A" />
                            </svg>