<svg width="840" height="449" viewBox="0 0 840 449" fill="none" xmlns="http://www.w3.org/2000/svg">
<g clip-path="url(#clip0)">
<path d="M397.309 21.0745C275.198 21.0745 272.322 175.298 272.322 205.807C272.322 236.361 328.261 261.095 397.309 261.095C466.338 261.095 522.296 236.361 522.296 205.807C522.296 175.298 519.401 21.0745 397.309 21.0745V21.0745Z" fill="#FCC21B"/>
<path d="M464.029 72.4161C464.029 72.4161 472.462 78.2359 474.203 90.9996" stroke="#2F2F2F" stroke-width="3" stroke-miterlimit="10" stroke-linecap="round"/>
<path d="M330.59 72.4161C330.59 72.4161 322.157 78.2359 320.415 90.9996" stroke="#2F2F2F" stroke-width="3" stroke-miterlimit="10" stroke-linecap="round"/>
<path d="M354.245 136.455C345.46 136.544 338.259 127.042 338.162 115.249C338.064 103.411 345.107 93.7552 353.893 93.667C362.658 93.5788 369.878 103.08 369.976 114.918C370.074 126.734 363.01 136.367 354.245 136.455V136.455Z" fill="#2F2F2F"/>
<path d="M440.55 136.456C449.316 136.433 456.418 126.844 456.398 115.05C456.379 103.212 449.237 93.6672 440.472 93.6892C431.687 93.7113 424.565 103.301 424.584 115.139C424.604 126.932 431.765 136.478 440.55 136.456V136.456Z" fill="#2F2F2F"/>
<path d="M348.121 203.889C372.676 168.883 432.528 148.425 455.714 179.971" stroke="#2F2F2F" stroke-width="6" stroke-miterlimit="10" stroke-linecap="round" stroke-linejoin="round"/>
</g>
<path d="M222.062 343.172C221.641 346.781 220.305 349.57 218.055 351.539C215.82 353.492 212.844 354.469 209.125 354.469C205.094 354.469 201.859 353.023 199.422 350.133C197 347.242 195.789 343.375 195.789 338.531V335.25C195.789 332.078 196.352 329.289 197.477 326.883C198.617 324.477 200.227 322.633 202.305 321.352C204.383 320.055 206.789 319.406 209.523 319.406C213.148 319.406 216.055 320.422 218.242 322.453C220.43 324.469 221.703 327.266 222.062 330.844H217.539C217.148 328.125 216.297 326.156 214.984 324.938C213.688 323.719 211.867 323.109 209.523 323.109C206.648 323.109 204.391 324.172 202.75 326.297C201.125 328.422 200.312 331.445 200.312 335.367V338.672C200.312 342.375 201.086 345.32 202.633 347.508C204.18 349.695 206.344 350.789 209.125 350.789C211.625 350.789 213.539 350.227 214.867 349.102C216.211 347.961 217.102 345.984 217.539 343.172H222.062ZM243.203 354C242.953 353.5 242.75 352.609 242.594 351.328C240.578 353.422 238.172 354.469 235.375 354.469C232.875 354.469 230.82 353.766 229.211 352.359C227.617 350.938 226.82 349.141 226.82 346.969C226.82 344.328 227.82 342.281 229.82 340.828C231.836 339.359 234.664 338.625 238.305 338.625H242.523V336.633C242.523 335.117 242.07 333.914 241.164 333.023C240.258 332.117 238.922 331.664 237.156 331.664C235.609 331.664 234.312 332.055 233.266 332.836C232.219 333.617 231.695 334.562 231.695 335.672H227.336C227.336 334.406 227.781 333.188 228.672 332.016C229.578 330.828 230.797 329.891 232.328 329.203C233.875 328.516 235.57 328.172 237.414 328.172C240.336 328.172 242.625 328.906 244.281 330.375C245.938 331.828 246.797 333.836 246.859 336.398V348.07C246.859 350.398 247.156 352.25 247.75 353.625V354H243.203ZM236.008 350.695C237.367 350.695 238.656 350.344 239.875 349.641C241.094 348.938 241.977 348.023 242.523 346.898V341.695H239.125C233.812 341.695 231.156 343.25 231.156 346.359C231.156 347.719 231.609 348.781 232.516 349.547C233.422 350.312 234.586 350.695 236.008 350.695ZM257.758 328.641L257.898 331.828C259.836 329.391 262.367 328.172 265.492 328.172C270.852 328.172 273.555 331.195 273.602 337.242V354H269.266V337.219C269.25 335.391 268.828 334.039 268 333.164C267.188 332.289 265.914 331.852 264.18 331.852C262.773 331.852 261.539 332.227 260.477 332.977C259.414 333.727 258.586 334.711 257.992 335.93V354H253.656V328.641H257.758ZM284.242 328.641L284.383 331.828C286.32 329.391 288.852 328.172 291.977 328.172C297.336 328.172 300.039 331.195 300.086 337.242V354H295.75V337.219C295.734 335.391 295.312 334.039 294.484 333.164C293.672 332.289 292.398 331.852 290.664 331.852C289.258 331.852 288.023 332.227 286.961 332.977C285.898 333.727 285.07 334.711 284.477 335.93V354H280.141V328.641H284.242ZM305.477 341.086C305.477 338.602 305.961 336.367 306.93 334.383C307.914 332.398 309.273 330.867 311.008 329.789C312.758 328.711 314.75 328.172 316.984 328.172C320.438 328.172 323.227 329.367 325.352 331.758C327.492 334.148 328.562 337.328 328.562 341.297V341.602C328.562 344.07 328.086 346.289 327.133 348.258C326.195 350.211 324.844 351.734 323.078 352.828C321.328 353.922 319.312 354.469 317.031 354.469C313.594 354.469 310.805 353.273 308.664 350.883C306.539 348.492 305.477 345.328 305.477 341.391V341.086ZM309.836 341.602C309.836 344.414 310.484 346.672 311.781 348.375C313.094 350.078 314.844 350.93 317.031 350.93C319.234 350.93 320.984 350.07 322.281 348.352C323.578 346.617 324.227 344.195 324.227 341.086C324.227 338.305 323.562 336.055 322.234 334.336C320.922 332.602 319.172 331.734 316.984 331.734C314.844 331.734 313.117 332.586 311.805 334.289C310.492 335.992 309.836 338.43 309.836 341.602ZM339.883 322.5V328.641H344.617V331.992H339.883V347.719C339.883 348.734 340.094 349.5 340.516 350.016C340.938 350.516 341.656 350.766 342.672 350.766C343.172 350.766 343.859 350.672 344.734 350.484V354C343.594 354.312 342.484 354.469 341.406 354.469C339.469 354.469 338.008 353.883 337.023 352.711C336.039 351.539 335.547 349.875 335.547 347.719V331.992H330.93V328.641H335.547V322.5H339.883ZM363.062 354V331.992H359.055V328.641H363.062V326.484C363.062 323.656 363.867 321.453 365.477 319.875C367.102 318.297 369.391 317.508 372.344 317.508C374.094 317.508 376.305 317.984 378.977 318.938L378.25 322.594C376.297 321.812 374.438 321.422 372.672 321.422C370.812 321.422 369.469 321.844 368.641 322.688C367.828 323.516 367.422 324.766 367.422 326.438V328.641H372.602V331.992H367.422V354H363.062ZM381.133 354H376.773V328.641H381.133V354ZM392.289 328.641L392.43 331.828C394.367 329.391 396.898 328.172 400.023 328.172C405.383 328.172 408.086 331.195 408.133 337.242V354H403.797V337.219C403.781 335.391 403.359 334.039 402.531 333.164C401.719 332.289 400.445 331.852 398.711 331.852C397.305 331.852 396.07 332.227 395.008 332.977C393.945 333.727 393.117 334.711 392.523 335.93V354H388.188V328.641H392.289ZM413.617 341.109C413.617 337.219 414.539 334.094 416.383 331.734C418.227 329.359 420.641 328.172 423.625 328.172C426.594 328.172 428.945 329.188 430.68 331.219V318H435.016V354H431.031L430.82 351.281C429.086 353.406 426.672 354.469 423.578 354.469C420.641 354.469 418.242 353.266 416.383 350.859C414.539 348.453 413.617 345.312 413.617 341.438V341.109ZM417.953 341.602C417.953 344.477 418.547 346.727 419.734 348.352C420.922 349.977 422.562 350.789 424.656 350.789C427.406 350.789 429.414 349.555 430.68 347.086V335.438C429.383 333.047 427.391 331.852 424.703 331.852C422.578 331.852 420.922 332.672 419.734 334.312C418.547 335.953 417.953 338.383 417.953 341.602ZM459.18 354H454.68V319.875H459.18V354ZM470.852 328.641L470.992 331.828C472.93 329.391 475.461 328.172 478.586 328.172C483.945 328.172 486.648 331.195 486.695 337.242V354H482.359V337.219C482.344 335.391 481.922 334.039 481.094 333.164C480.281 332.289 479.008 331.852 477.273 331.852C475.867 331.852 474.633 332.227 473.57 332.977C472.508 333.727 471.68 334.711 471.086 335.93V354H466.75V328.641H470.852ZM492.18 341.109C492.18 337.125 493.094 333.977 494.922 331.664C496.75 329.336 499.203 328.172 502.281 328.172C505.281 328.172 507.648 329.18 509.383 331.195L509.57 328.641H513.555V363.75H509.219V351.656C507.469 353.531 505.141 354.469 502.234 354.469C499.172 354.469 496.727 353.281 494.898 350.906C493.086 348.516 492.18 345.352 492.18 341.414V341.109ZM496.516 341.602C496.516 344.508 497.125 346.789 498.344 348.445C499.578 350.102 501.234 350.93 503.312 350.93C505.891 350.93 507.859 349.789 509.219 347.508V335.086C507.844 332.852 505.891 331.734 503.359 331.734C501.266 331.734 499.602 332.57 498.367 334.242C497.133 335.898 496.516 338.352 496.516 341.602ZM536.172 351.492C534.484 353.477 532.008 354.469 528.742 354.469C526.039 354.469 523.977 353.688 522.555 352.125C521.148 350.547 520.438 348.219 520.422 345.141V328.641H524.758V345.023C524.758 348.867 526.32 350.789 529.445 350.789C532.758 350.789 534.961 349.555 536.055 347.086V328.641H540.391V354H536.266L536.172 351.492ZM551.711 354H547.375V328.641H551.711V354ZM547.023 321.914C547.023 321.211 547.234 320.617 547.656 320.133C548.094 319.648 548.734 319.406 549.578 319.406C550.422 319.406 551.062 319.648 551.5 320.133C551.938 320.617 552.156 321.211 552.156 321.914C552.156 322.617 551.938 323.203 551.5 323.672C551.062 324.141 550.422 324.375 549.578 324.375C548.734 324.375 548.094 324.141 547.656 323.672C547.234 323.203 547.023 322.617 547.023 321.914ZM570.93 332.531C570.273 332.422 569.562 332.367 568.797 332.367C565.953 332.367 564.023 333.578 563.008 336V354H558.672V328.641H562.891L562.961 331.57C564.383 329.305 566.398 328.172 569.008 328.172C569.852 328.172 570.492 328.281 570.93 328.5V332.531ZM583.656 347.648L589.562 328.641H594.203L584.008 357.914C582.43 362.133 579.922 364.242 576.484 364.242L575.664 364.172L574.047 363.867V360.352L575.219 360.445C576.688 360.445 577.828 360.148 578.641 359.555C579.469 358.961 580.148 357.875 580.68 356.297L581.641 353.719L572.594 328.641H577.328L583.656 347.648ZM614.852 344.367H610.938L610.633 319.875H615.18L614.852 344.367ZM610.469 351.82C610.469 351.117 610.68 350.531 611.102 350.062C611.539 349.578 612.18 349.336 613.023 349.336C613.867 349.336 614.508 349.578 614.945 350.062C615.383 350.531 615.602 351.117 615.602 351.82C615.602 352.523 615.383 353.109 614.945 353.578C614.508 354.031 613.867 354.258 613.023 354.258C612.18 354.258 611.539 354.031 611.102 353.578C610.68 353.109 610.469 352.523 610.469 351.82Z" fill="black"/>
<path d="M14.3672 420.008L23.2734 402.875H28.3828L16.6172 424.273V437H12.1172V424.273L0.351562 402.875H5.50781L14.3672 420.008ZM29.4141 424.086C29.4141 421.602 29.8984 419.367 30.8672 417.383C31.8516 415.398 33.2109 413.867 34.9453 412.789C36.6953 411.711 38.6875 411.172 40.9219 411.172C44.375 411.172 47.1641 412.367 49.2891 414.758C51.4297 417.148 52.5 420.328 52.5 424.297V424.602C52.5 427.07 52.0234 429.289 51.0703 431.258C50.1328 433.211 48.7812 434.734 47.0156 435.828C45.2656 436.922 43.25 437.469 40.9688 437.469C37.5312 437.469 34.7422 436.273 32.6016 433.883C30.4766 431.492 29.4141 428.328 29.4141 424.391V424.086ZM33.7734 424.602C33.7734 427.414 34.4219 429.672 35.7188 431.375C37.0312 433.078 38.7812 433.93 40.9688 433.93C43.1719 433.93 44.9219 433.07 46.2188 431.352C47.5156 429.617 48.1641 427.195 48.1641 424.086C48.1641 421.305 47.5 419.055 46.1719 417.336C44.8594 415.602 43.1094 414.734 40.9219 414.734C38.7812 414.734 37.0547 415.586 35.7422 417.289C34.4297 418.992 33.7734 421.43 33.7734 424.602ZM73.5938 434.492C71.9062 436.477 69.4297 437.469 66.1641 437.469C63.4609 437.469 61.3984 436.688 59.9766 435.125C58.5703 433.547 57.8594 431.219 57.8438 428.141V411.641H62.1797V428.023C62.1797 431.867 63.7422 433.789 66.8672 433.789C70.1797 433.789 72.3828 432.555 73.4766 430.086V411.641H77.8125V437H73.6875L73.5938 434.492ZM118.781 431.023L123.656 411.641H127.992L120.609 437H117.094L110.93 417.781L104.93 437H101.414L94.0547 411.641H98.3672L103.359 430.625L109.266 411.641H112.758L118.781 431.023ZM137.133 437H132.797V411.641H137.133V437ZM132.445 404.914C132.445 404.211 132.656 403.617 133.078 403.133C133.516 402.648 134.156 402.406 135 402.406C135.844 402.406 136.484 402.648 136.922 403.133C137.359 403.617 137.578 404.211 137.578 404.914C137.578 405.617 137.359 406.203 136.922 406.672C136.484 407.141 135.844 407.375 135 407.375C134.156 407.375 133.516 407.141 133.078 406.672C132.656 406.203 132.445 405.617 132.445 404.914ZM148.805 437H144.469V401H148.805V437ZM160.477 437H156.141V401H160.477V437ZM200.812 424.602C200.812 428.477 199.922 431.594 198.141 433.953C196.359 436.297 193.969 437.469 190.969 437.469C187.766 437.469 185.289 436.336 183.539 434.07L183.328 437H179.344V401H183.68V414.43C185.43 412.258 187.844 411.172 190.922 411.172C194 411.172 196.414 412.336 198.164 414.664C199.93 416.992 200.812 420.18 200.812 424.227V424.602ZM196.477 424.109C196.477 421.156 195.906 418.875 194.766 417.266C193.625 415.656 191.984 414.852 189.844 414.852C186.984 414.852 184.93 416.18 183.68 418.836V429.805C185.008 432.461 187.078 433.789 189.891 433.789C191.969 433.789 193.586 432.984 194.742 431.375C195.898 429.766 196.477 427.344 196.477 424.109ZM216.82 437.469C213.383 437.469 210.586 436.344 208.43 434.094C206.273 431.828 205.195 428.805 205.195 425.023V424.227C205.195 421.711 205.672 419.469 206.625 417.5C207.594 415.516 208.938 413.969 210.656 412.859C212.391 411.734 214.266 411.172 216.281 411.172C219.578 411.172 222.141 412.258 223.969 414.43C225.797 416.602 226.711 419.711 226.711 423.758V425.562H209.531C209.594 428.062 210.32 430.086 211.711 431.633C213.117 433.164 214.898 433.93 217.055 433.93C218.586 433.93 219.883 433.617 220.945 432.992C222.008 432.367 222.938 431.539 223.734 430.508L226.383 432.57C224.258 435.836 221.07 437.469 216.82 437.469ZM216.281 414.734C214.531 414.734 213.062 415.375 211.875 416.656C210.688 417.922 209.953 419.703 209.672 422H222.375V421.672C222.25 419.469 221.656 417.766 220.594 416.562C219.531 415.344 218.094 414.734 216.281 414.734ZM255.914 415.531C255.258 415.422 254.547 415.367 253.781 415.367C250.938 415.367 249.008 416.578 247.992 419V437H243.656V411.641H247.875L247.945 414.57C249.367 412.305 251.383 411.172 253.992 411.172C254.836 411.172 255.477 411.281 255.914 411.5V415.531ZM269.977 437.469C266.539 437.469 263.742 436.344 261.586 434.094C259.43 431.828 258.352 428.805 258.352 425.023V424.227C258.352 421.711 258.828 419.469 259.781 417.5C260.75 415.516 262.094 413.969 263.812 412.859C265.547 411.734 267.422 411.172 269.438 411.172C272.734 411.172 275.297 412.258 277.125 414.43C278.953 416.602 279.867 419.711 279.867 423.758V425.562H262.688C262.75 428.062 263.477 430.086 264.867 431.633C266.273 433.164 268.055 433.93 270.211 433.93C271.742 433.93 273.039 433.617 274.102 432.992C275.164 432.367 276.094 431.539 276.891 430.508L279.539 432.57C277.414 435.836 274.227 437.469 269.977 437.469ZM269.438 414.734C267.688 414.734 266.219 415.375 265.031 416.656C263.844 417.922 263.109 419.703 262.828 422H275.531V421.672C275.406 419.469 274.812 417.766 273.75 416.562C272.688 415.344 271.25 414.734 269.438 414.734ZM283.852 424.109C283.852 420.219 284.773 417.094 286.617 414.734C288.461 412.359 290.875 411.172 293.859 411.172C296.828 411.172 299.18 412.188 300.914 414.219V401H305.25V437H301.266L301.055 434.281C299.32 436.406 296.906 437.469 293.812 437.469C290.875 437.469 288.477 436.266 286.617 433.859C284.773 431.453 283.852 428.312 283.852 424.438V424.109ZM288.188 424.602C288.188 427.477 288.781 429.727 289.969 431.352C291.156 432.977 292.797 433.789 294.891 433.789C297.641 433.789 299.648 432.555 300.914 430.086V418.438C299.617 416.047 297.625 414.852 294.938 414.852C292.812 414.852 291.156 415.672 289.969 417.312C288.781 418.953 288.188 421.383 288.188 424.602ZM316.711 437H312.375V411.641H316.711V437ZM312.023 404.914C312.023 404.211 312.234 403.617 312.656 403.133C313.094 402.648 313.734 402.406 314.578 402.406C315.422 402.406 316.062 402.648 316.5 403.133C316.938 403.617 317.156 404.211 317.156 404.914C317.156 405.617 316.938 406.203 316.5 406.672C316.062 407.141 315.422 407.375 314.578 407.375C313.734 407.375 313.094 407.141 312.656 406.672C312.234 406.203 312.023 405.617 312.023 404.914ZM335.93 415.531C335.273 415.422 334.562 415.367 333.797 415.367C330.953 415.367 329.023 416.578 328.008 419V437H323.672V411.641H327.891L327.961 414.57C329.383 412.305 331.398 411.172 334.008 411.172C334.852 411.172 335.492 411.281 335.93 411.5V415.531ZM349.992 437.469C346.555 437.469 343.758 436.344 341.602 434.094C339.445 431.828 338.367 428.805 338.367 425.023V424.227C338.367 421.711 338.844 419.469 339.797 417.5C340.766 415.516 342.109 413.969 343.828 412.859C345.562 411.734 347.438 411.172 349.453 411.172C352.75 411.172 355.312 412.258 357.141 414.43C358.969 416.602 359.883 419.711 359.883 423.758V425.562H342.703C342.766 428.062 343.492 430.086 344.883 431.633C346.289 433.164 348.07 433.93 350.227 433.93C351.758 433.93 353.055 433.617 354.117 432.992C355.18 432.367 356.109 431.539 356.906 430.508L359.555 432.57C357.43 435.836 354.242 437.469 349.992 437.469ZM349.453 414.734C347.703 414.734 346.234 415.375 345.047 416.656C343.859 417.922 343.125 419.703 342.844 422H355.547V421.672C355.422 419.469 354.828 417.766 353.766 416.562C352.703 415.344 351.266 414.734 349.453 414.734ZM375.094 433.93C376.641 433.93 377.992 433.461 379.148 432.523C380.305 431.586 380.945 430.414 381.07 429.008H385.172C385.094 430.461 384.594 431.844 383.672 433.156C382.75 434.469 381.516 435.516 379.969 436.297C378.438 437.078 376.812 437.469 375.094 437.469C371.641 437.469 368.891 436.32 366.844 434.023C364.812 431.711 363.797 428.555 363.797 424.555V423.828C363.797 421.359 364.25 419.164 365.156 417.242C366.062 415.32 367.359 413.828 369.047 412.766C370.75 411.703 372.758 411.172 375.07 411.172C377.914 411.172 380.273 412.023 382.148 413.727C384.039 415.43 385.047 417.641 385.172 420.359H381.07C380.945 418.719 380.32 417.375 379.195 416.328C378.086 415.266 376.711 414.734 375.07 414.734C372.867 414.734 371.156 415.531 369.938 417.125C368.734 418.703 368.133 420.992 368.133 423.992V424.812C368.133 427.734 368.734 429.984 369.938 431.562C371.141 433.141 372.859 433.93 375.094 433.93ZM395.93 405.5V411.641H400.664V414.992H395.93V430.719C395.93 431.734 396.141 432.5 396.562 433.016C396.984 433.516 397.703 433.766 398.719 433.766C399.219 433.766 399.906 433.672 400.781 433.484V437C399.641 437.312 398.531 437.469 397.453 437.469C395.516 437.469 394.055 436.883 393.07 435.711C392.086 434.539 391.594 432.875 391.594 430.719V414.992H386.977V411.641H391.594V405.5H395.93ZM416.273 437.469C412.836 437.469 410.039 436.344 407.883 434.094C405.727 431.828 404.648 428.805 404.648 425.023V424.227C404.648 421.711 405.125 419.469 406.078 417.5C407.047 415.516 408.391 413.969 410.109 412.859C411.844 411.734 413.719 411.172 415.734 411.172C419.031 411.172 421.594 412.258 423.422 414.43C425.25 416.602 426.164 419.711 426.164 423.758V425.562H408.984C409.047 428.062 409.773 430.086 411.164 431.633C412.57 433.164 414.352 433.93 416.508 433.93C418.039 433.93 419.336 433.617 420.398 432.992C421.461 432.367 422.391 431.539 423.188 430.508L425.836 432.57C423.711 435.836 420.523 437.469 416.273 437.469ZM415.734 414.734C413.984 414.734 412.516 415.375 411.328 416.656C410.141 417.922 409.406 419.703 409.125 422H421.828V421.672C421.703 419.469 421.109 417.766 420.047 416.562C418.984 415.344 417.547 414.734 415.734 414.734ZM430.148 424.109C430.148 420.219 431.07 417.094 432.914 414.734C434.758 412.359 437.172 411.172 440.156 411.172C443.125 411.172 445.477 412.188 447.211 414.219V401H451.547V437H447.562L447.352 434.281C445.617 436.406 443.203 437.469 440.109 437.469C437.172 437.469 434.773 436.266 432.914 433.859C431.07 431.453 430.148 428.312 430.148 424.438V424.109ZM434.484 424.602C434.484 427.477 435.078 429.727 436.266 431.352C437.453 432.977 439.094 433.789 441.188 433.789C443.938 433.789 445.945 432.555 447.211 430.086V418.438C445.914 416.047 443.922 414.852 441.234 414.852C439.109 414.852 437.453 415.672 436.266 417.312C435.078 418.953 434.484 421.383 434.484 424.602ZM492.656 431.023L497.531 411.641H501.867L494.484 437H490.969L484.805 417.781L478.805 437H475.289L467.93 411.641H472.242L477.234 430.625L483.141 411.641H486.633L492.656 431.023ZM511.008 437H506.672V411.641H511.008V437ZM506.32 404.914C506.32 404.211 506.531 403.617 506.953 403.133C507.391 402.648 508.031 402.406 508.875 402.406C509.719 402.406 510.359 402.648 510.797 403.133C511.234 403.617 511.453 404.211 511.453 404.914C511.453 405.617 511.234 406.203 510.797 406.672C510.359 407.141 509.719 407.375 508.875 407.375C508.031 407.375 507.391 407.141 506.953 406.672C506.531 406.203 506.32 405.617 506.32 404.914ZM523.852 405.5V411.641H528.586V414.992H523.852V430.719C523.852 431.734 524.062 432.5 524.484 433.016C524.906 433.516 525.625 433.766 526.641 433.766C527.141 433.766 527.828 433.672 528.703 433.484V437C527.562 437.312 526.453 437.469 525.375 437.469C523.438 437.469 521.977 436.883 520.992 435.711C520.008 434.539 519.516 432.875 519.516 430.719V414.992H514.898V411.641H519.516V405.5H523.852ZM538.008 414.711C539.93 412.352 542.43 411.172 545.508 411.172C550.867 411.172 553.57 414.195 553.617 420.242V437H549.281V420.219C549.266 418.391 548.844 417.039 548.016 416.164C547.203 415.289 545.93 414.852 544.195 414.852C542.789 414.852 541.555 415.227 540.492 415.977C539.43 416.727 538.602 417.711 538.008 418.93V437H533.672V401H538.008V414.711ZM564.82 437H560.484V411.641H564.82V437ZM560.133 404.914C560.133 404.211 560.344 403.617 560.766 403.133C561.203 402.648 561.844 402.406 562.688 402.406C563.531 402.406 564.172 402.648 564.609 403.133C565.047 403.617 565.266 404.211 565.266 404.914C565.266 405.617 565.047 406.203 564.609 406.672C564.172 407.141 563.531 407.375 562.688 407.375C561.844 407.375 561.203 407.141 560.766 406.672C560.344 406.203 560.133 405.617 560.133 404.914ZM575.883 411.641L576.023 414.828C577.961 412.391 580.492 411.172 583.617 411.172C588.977 411.172 591.68 414.195 591.727 420.242V437H587.391V420.219C587.375 418.391 586.953 417.039 586.125 416.164C585.312 415.289 584.039 414.852 582.305 414.852C580.898 414.852 579.664 415.227 578.602 415.977C577.539 416.727 576.711 417.711 576.117 418.93V437H571.781V411.641H575.883ZM611.719 419.891L613.453 402.875H630.938V406.883H617.133L616.102 416.188C617.773 415.203 619.672 414.711 621.797 414.711C624.906 414.711 627.375 415.742 629.203 417.805C631.031 419.852 631.945 422.625 631.945 426.125C631.945 429.641 630.992 432.414 629.086 434.445C627.195 436.461 624.547 437.469 621.141 437.469C618.125 437.469 615.664 436.633 613.758 434.961C611.852 433.289 610.766 430.977 610.5 428.023H614.602C614.867 429.977 615.562 431.453 616.688 432.453C617.812 433.438 619.297 433.93 621.141 433.93C623.156 433.93 624.734 433.242 625.875 431.867C627.031 430.492 627.609 428.594 627.609 426.172C627.609 423.891 626.984 422.062 625.734 420.688C624.5 419.297 622.852 418.602 620.789 418.602C618.898 418.602 617.414 419.016 616.336 419.844L615.188 420.781L611.719 419.891ZM663.797 430.273C663.797 429.102 663.352 428.195 662.461 427.555C661.586 426.898 660.047 426.336 657.844 425.867C655.656 425.398 653.914 424.836 652.617 424.18C651.336 423.523 650.383 422.742 649.758 421.836C649.148 420.93 648.844 419.852 648.844 418.602C648.844 416.523 649.719 414.766 651.469 413.328C653.234 411.891 655.484 411.172 658.219 411.172C661.094 411.172 663.422 411.914 665.203 413.398C667 414.883 667.898 416.781 667.898 419.094H663.539C663.539 417.906 663.031 416.883 662.016 416.023C661.016 415.164 659.75 414.734 658.219 414.734C656.641 414.734 655.406 415.078 654.516 415.766C653.625 416.453 653.18 417.352 653.18 418.461C653.18 419.508 653.594 420.297 654.422 420.828C655.25 421.359 656.742 421.867 658.898 422.352C661.07 422.836 662.828 423.414 664.172 424.086C665.516 424.758 666.508 425.57 667.148 426.523C667.805 427.461 668.133 428.609 668.133 429.969C668.133 432.234 667.227 434.055 665.414 435.43C663.602 436.789 661.25 437.469 658.359 437.469C656.328 437.469 654.531 437.109 652.969 436.391C651.406 435.672 650.18 434.672 649.289 433.391C648.414 432.094 647.977 430.695 647.977 429.195H652.312C652.391 430.648 652.969 431.805 654.047 432.664C655.141 433.508 656.578 433.93 658.359 433.93C660 433.93 661.312 433.602 662.297 432.945C663.297 432.273 663.797 431.383 663.797 430.273ZM684.305 437.469C680.867 437.469 678.07 436.344 675.914 434.094C673.758 431.828 672.68 428.805 672.68 425.023V424.227C672.68 421.711 673.156 419.469 674.109 417.5C675.078 415.516 676.422 413.969 678.141 412.859C679.875 411.734 681.75 411.172 683.766 411.172C687.062 411.172 689.625 412.258 691.453 414.43C693.281 416.602 694.195 419.711 694.195 423.758V425.562H677.016C677.078 428.062 677.805 430.086 679.195 431.633C680.602 433.164 682.383 433.93 684.539 433.93C686.07 433.93 687.367 433.617 688.43 432.992C689.492 432.367 690.422 431.539 691.219 430.508L693.867 432.57C691.742 435.836 688.555 437.469 684.305 437.469ZM683.766 414.734C682.016 414.734 680.547 415.375 679.359 416.656C678.172 417.922 677.438 419.703 677.156 422H689.859V421.672C689.734 419.469 689.141 417.766 688.078 416.562C687.016 415.344 685.578 414.734 683.766 414.734ZM709.406 433.93C710.953 433.93 712.305 433.461 713.461 432.523C714.617 431.586 715.258 430.414 715.383 429.008H719.484C719.406 430.461 718.906 431.844 717.984 433.156C717.062 434.469 715.828 435.516 714.281 436.297C712.75 437.078 711.125 437.469 709.406 437.469C705.953 437.469 703.203 436.32 701.156 434.023C699.125 431.711 698.109 428.555 698.109 424.555V423.828C698.109 421.359 698.562 419.164 699.469 417.242C700.375 415.32 701.672 413.828 703.359 412.766C705.062 411.703 707.07 411.172 709.383 411.172C712.227 411.172 714.586 412.023 716.461 413.727C718.352 415.43 719.359 417.641 719.484 420.359H715.383C715.258 418.719 714.633 417.375 713.508 416.328C712.398 415.266 711.023 414.734 709.383 414.734C707.18 414.734 705.469 415.531 704.25 417.125C703.047 418.703 702.445 420.992 702.445 423.992V424.812C702.445 427.734 703.047 429.984 704.25 431.562C705.453 433.141 707.172 433.93 709.406 433.93ZM723.211 424.086C723.211 421.602 723.695 419.367 724.664 417.383C725.648 415.398 727.008 413.867 728.742 412.789C730.492 411.711 732.484 411.172 734.719 411.172C738.172 411.172 740.961 412.367 743.086 414.758C745.227 417.148 746.297 420.328 746.297 424.297V424.602C746.297 427.07 745.82 429.289 744.867 431.258C743.93 433.211 742.578 434.734 740.812 435.828C739.062 436.922 737.047 437.469 734.766 437.469C731.328 437.469 728.539 436.273 726.398 433.883C724.273 431.492 723.211 428.328 723.211 424.391V424.086ZM727.57 424.602C727.57 427.414 728.219 429.672 729.516 431.375C730.828 433.078 732.578 433.93 734.766 433.93C736.969 433.93 738.719 433.07 740.016 431.352C741.312 429.617 741.961 427.195 741.961 424.086C741.961 421.305 741.297 419.055 739.969 417.336C738.656 415.602 736.906 414.734 734.719 414.734C732.578 414.734 730.852 415.586 729.539 417.289C728.227 418.992 727.57 421.43 727.57 424.602ZM755.836 411.641L755.977 414.828C757.914 412.391 760.445 411.172 763.57 411.172C768.93 411.172 771.633 414.195 771.68 420.242V437H767.344V420.219C767.328 418.391 766.906 417.039 766.078 416.164C765.266 415.289 763.992 414.852 762.258 414.852C760.852 414.852 759.617 415.227 758.555 415.977C757.492 416.727 756.664 417.711 756.07 418.93V437H751.734V411.641H755.836ZM777.164 424.109C777.164 420.219 778.086 417.094 779.93 414.734C781.773 412.359 784.188 411.172 787.172 411.172C790.141 411.172 792.492 412.188 794.227 414.219V401H798.562V437H794.578L794.367 434.281C792.633 436.406 790.219 437.469 787.125 437.469C784.188 437.469 781.789 436.266 779.93 433.859C778.086 431.453 777.164 428.312 777.164 424.438V424.109ZM781.5 424.602C781.5 427.477 782.094 429.727 783.281 431.352C784.469 432.977 786.109 433.789 788.203 433.789C790.953 433.789 792.961 432.555 794.227 430.086V418.438C792.93 416.047 790.938 414.852 788.25 414.852C786.125 414.852 784.469 415.672 783.281 417.312C782.094 418.953 781.5 421.383 781.5 424.602ZM820.078 430.273C820.078 429.102 819.633 428.195 818.742 427.555C817.867 426.898 816.328 426.336 814.125 425.867C811.938 425.398 810.195 424.836 808.898 424.18C807.617 423.523 806.664 422.742 806.039 421.836C805.43 420.93 805.125 419.852 805.125 418.602C805.125 416.523 806 414.766 807.75 413.328C809.516 411.891 811.766 411.172 814.5 411.172C817.375 411.172 819.703 411.914 821.484 413.398C823.281 414.883 824.18 416.781 824.18 419.094H819.82C819.82 417.906 819.312 416.883 818.297 416.023C817.297 415.164 816.031 414.734 814.5 414.734C812.922 414.734 811.688 415.078 810.797 415.766C809.906 416.453 809.461 417.352 809.461 418.461C809.461 419.508 809.875 420.297 810.703 420.828C811.531 421.359 813.023 421.867 815.18 422.352C817.352 422.836 819.109 423.414 820.453 424.086C821.797 424.758 822.789 425.57 823.43 426.523C824.086 427.461 824.414 428.609 824.414 429.969C824.414 432.234 823.508 434.055 821.695 435.43C819.883 436.789 817.531 437.469 814.641 437.469C812.609 437.469 810.812 437.109 809.25 436.391C807.688 435.672 806.461 434.672 805.57 433.391C804.695 432.094 804.258 430.695 804.258 429.195H808.594C808.672 430.648 809.25 431.805 810.328 432.664C811.422 433.508 812.859 433.93 814.641 433.93C816.281 433.93 817.594 433.602 818.578 432.945C819.578 432.273 820.078 431.383 820.078 430.273ZM830.156 434.727C830.156 433.977 830.375 433.352 830.812 432.852C831.266 432.352 831.938 432.102 832.828 432.102C833.719 432.102 834.391 432.352 834.844 432.852C835.312 433.352 835.547 433.977 835.547 434.727C835.547 435.445 835.312 436.047 834.844 436.531C834.391 437.016 833.719 437.258 832.828 437.258C831.938 437.258 831.266 437.016 830.812 436.531C830.375 436.047 830.156 435.445 830.156 434.727Z" fill="#08A73A"/>
<defs>
<clipPath id="clip0">
<rect width="250.444" height="282.169" fill="white" transform="translate(272.087)"/>
</clipPath>
</defs>
</svg>
