<svg width="84" height="84" viewBox="0 0 74 62" fill="none" xmlns="http://www.w3.org/2000/svg">
    <path d="M63.8752 61.7142H10.1252C7.5755 61.7144 5.12238 60.7389 3.26907 58.9878C1.41576 57.2367 0.302777 54.8428 0.158424 52.2972L0.143066 51.7321V7.19636C0.142851 5.44526 0.807402 3.75937 2.00242 2.4794C3.19743 1.19944 4.83378 0.420855 6.58078 0.301002L7.05378 0.285645H54.6609C56.412 0.285429 58.0979 0.94998 59.3779 2.14499C60.6578 3.34 61.4364 4.97636 61.5563 6.72336L61.5716 7.19636V9.49993H66.9466C68.6977 9.49971 70.3836 10.1643 71.6636 11.3593C72.9436 12.5543 73.7221 14.1906 73.842 15.9376L73.8574 16.4106V51.7321C73.8575 54.2818 72.882 56.7349 71.1309 58.5882C69.3799 60.4415 66.986 61.5545 64.4404 61.6989L63.8752 61.7142H10.1252H63.8752ZM10.1252 57.1071H63.8752C65.2246 57.107 66.5247 56.5993 67.517 55.6849C68.5094 54.7704 69.1215 53.5162 69.2318 52.1713L69.2502 51.7321V16.4106C69.2502 15.854 69.0486 15.3162 68.6827 14.8966C68.3168 14.4771 67.8114 14.2043 67.2599 14.1286L66.9466 14.1071H61.5716V47.1249C61.5716 47.6816 61.37 48.2194 61.0041 48.6389C60.6383 49.0585 60.1328 49.3313 59.5813 49.407L59.2681 49.4285C58.7114 49.4285 58.1736 49.2269 57.7541 48.861C57.3345 48.4951 57.0617 47.9897 56.986 47.4382L56.9645 47.1249V7.19636C56.9645 6.6397 56.7629 6.10188 56.397 5.68236C56.0311 5.26284 55.5257 4.98999 54.9742 4.91429L54.6609 4.89279H7.05378C6.49712 4.89281 5.9593 5.0944 5.53978 5.46029C5.12026 5.82617 4.84741 6.33159 4.77171 6.88307L4.75021 7.19636V51.7321C4.75026 53.081 5.25752 54.3806 6.1713 55.3729C7.08507 56.3652 8.33856 56.9776 9.68292 57.0886L10.1252 57.1071H63.8752H10.1252ZM25.4701 27.9408C27.5894 27.9408 29.3094 29.6608 29.3094 31.7801V42.5178C29.3094 44.6371 27.5894 46.3571 25.4701 46.3571H14.7324C12.6131 46.3571 10.8931 44.6371 10.8931 42.5178V31.7801C10.8931 29.6608 12.6131 27.9408 14.7324 27.9408H25.4701ZM37.7681 41.7499H48.5058C49.0894 41.7501 49.6512 41.9718 50.0777 42.3703C50.5042 42.7687 50.7635 43.3142 50.8033 43.8965C50.8431 44.4788 50.6603 45.0545 50.292 45.5072C49.9237 45.96 49.3973 46.256 48.8191 46.3356L48.5058 46.3571H37.7681C37.1844 46.3569 36.6226 46.1352 36.1961 45.7367C35.7697 45.3383 35.5103 44.7928 35.4706 44.2105C35.4308 43.6282 35.6135 43.0525 35.9818 42.5998C36.3501 42.147 36.8766 41.851 37.4548 41.7714L37.7681 41.7499H48.5058H37.7681ZM24.7053 32.5479H15.5002V41.7499H24.7053V32.5479ZM37.7681 27.9408H48.5058C49.0894 27.941 49.6512 28.1627 50.0777 28.5611C50.5042 28.9596 50.7635 29.5051 50.8033 30.0873C50.8431 30.6696 50.6603 31.2453 50.292 31.6981C49.9237 32.1508 49.3973 32.4469 48.8191 32.5264L48.5058 32.5479H37.7681C37.1803 32.5539 36.6124 32.3349 36.1808 31.9359C35.7492 31.5368 35.4865 30.9878 35.4464 30.4014C35.4064 29.8149 35.5921 29.2353 35.9654 28.7813C36.3388 28.3273 36.8716 28.0332 37.4548 27.9592L37.7681 27.9408H48.5058H37.7681ZM13.1844 14.0979H48.5058C49.0894 14.098 49.6512 14.3198 50.0777 14.7182C50.5042 15.1167 50.7635 15.6621 50.8033 16.2444C50.8431 16.8267 50.6603 17.4024 50.292 17.8551C49.9237 18.3079 49.3973 18.6039 48.8191 18.6835L48.5058 18.705H13.1844C12.601 18.7041 12.0397 18.4818 11.6138 18.0831C11.1879 17.6844 10.9292 17.139 10.8898 16.5569C10.8504 15.9749 11.0333 15.3995 11.4017 14.9471C11.77 14.4947 12.2962 14.1989 12.8741 14.1194L13.1844 14.0979H48.5058H13.1844Z" fill="#08A73A" />
</svg>