<svg width="84" height="84" viewBox="0 0 68 68" fill="none" xmlns="http://www.w3.org/2000/svg">
    <path d="M66.9342 1.06568C66.5546 0.687885 66.0751 0.426314 65.5519 0.311722C65.0288 0.19713 64.4838 0.23428 63.9811 0.418804L2.10607 22.9188C1.57245 23.1212 1.11303 23.4812 0.788838 23.9509C0.464644 24.4206 0.291016 24.9778 0.291016 25.5485C0.291016 26.1192 0.464644 26.6764 0.788838 27.1461C1.11303 27.6158 1.57245 27.9758 2.10607 28.1782L26.2654 37.8251L44.0967 19.9376L48.0623 23.9032L30.1467 41.8188L39.8217 65.9782C40.0301 66.5015 40.3909 66.9502 40.8572 67.2661C41.3236 67.582 41.874 67.7506 42.4373 67.7501C43.0057 67.7384 43.5572 67.5548 44.0191 67.2234C44.481 66.892 44.8317 66.4285 45.0248 65.8938L67.5248 4.0188C67.7164 3.52121 67.7627 2.97939 67.6581 2.45653C67.5535 1.93366 67.3025 1.4513 66.9342 1.06568Z" fill="#08A73A" />
</svg>